G04 #@! TF.FileFunction,Legend,Top*
%FSLAX46Y46*%
G04 Gerber Fmt 4.6, Leading zero omitted, Abs format (unit mm)*
G04 Created by KiCad (PCBNEW 4.0.6) date Sun Apr 30 19:13:02 2017*
%MOMM*%
%LPD*%
G01*
G04 APERTURE LIST*
%ADD10C,0.100000*%
%ADD11C,0.150000*%
%ADD12C,0.120000*%
G04 APERTURE END LIST*
D10*
D11*
X139240000Y-109285000D02*
X139515000Y-109285000D01*
X139240000Y-101535000D02*
X139592500Y-101535000D01*
X157940000Y-101535000D02*
X157587500Y-101535000D01*
X157940000Y-109285000D02*
X157587500Y-109285000D01*
X139240000Y-109285000D02*
X139240000Y-101535000D01*
X157940000Y-109285000D02*
X157940000Y-101535000D01*
X139515000Y-109285000D02*
X139515000Y-110710000D01*
D12*
X146140000Y-111212000D02*
X150960000Y-111212000D01*
X146140000Y-113832000D02*
X150960000Y-113832000D01*
X146140000Y-111212000D02*
X146140000Y-111526000D01*
X146140000Y-113518000D02*
X146140000Y-113832000D01*
X150960000Y-111212000D02*
X150960000Y-111526000D01*
X150960000Y-113518000D02*
X150960000Y-113832000D01*
X135770000Y-101600000D02*
X135770000Y-111880000D01*
X135770000Y-111880000D02*
X138550000Y-111880000D01*
X138550000Y-111880000D02*
X138550000Y-101600000D01*
X138550000Y-101600000D02*
X135770000Y-101600000D01*
X135770000Y-100330000D02*
X135770000Y-98940000D01*
X135770000Y-98940000D02*
X137160000Y-98940000D01*
X158630000Y-101600000D02*
X158630000Y-111880000D01*
X158630000Y-111880000D02*
X161410000Y-111880000D01*
X161410000Y-111880000D02*
X161410000Y-101600000D01*
X161410000Y-101600000D02*
X158630000Y-101600000D01*
X158630000Y-100330000D02*
X158630000Y-98940000D01*
X158630000Y-98940000D02*
X160020000Y-98940000D01*
X156210000Y-93860000D02*
X138310000Y-93860000D01*
X138310000Y-93860000D02*
X138310000Y-99180000D01*
X138310000Y-99180000D02*
X158870000Y-99180000D01*
X158870000Y-99180000D02*
X158870000Y-96520000D01*
X158870000Y-96520000D02*
X156210000Y-96520000D01*
X156210000Y-96520000D02*
X156210000Y-93860000D01*
X157480000Y-93860000D02*
X158870000Y-93860000D01*
X158870000Y-93860000D02*
X158870000Y-95250000D01*
D11*
X148171095Y-105014381D02*
X148171095Y-105823905D01*
X148218714Y-105919143D01*
X148266333Y-105966762D01*
X148361571Y-106014381D01*
X148552048Y-106014381D01*
X148647286Y-105966762D01*
X148694905Y-105919143D01*
X148742524Y-105823905D01*
X148742524Y-105014381D01*
X149742524Y-106014381D02*
X149171095Y-106014381D01*
X149456809Y-106014381D02*
X149456809Y-105014381D01*
X149361571Y-105157238D01*
X149266333Y-105252476D01*
X149171095Y-105300095D01*
X143724334Y-112879143D02*
X143676715Y-112926762D01*
X143533858Y-112974381D01*
X143438620Y-112974381D01*
X143295762Y-112926762D01*
X143200524Y-112831524D01*
X143152905Y-112736286D01*
X143105286Y-112545810D01*
X143105286Y-112402952D01*
X143152905Y-112212476D01*
X143200524Y-112117238D01*
X143295762Y-112022000D01*
X143438620Y-111974381D01*
X143533858Y-111974381D01*
X143676715Y-112022000D01*
X143724334Y-112069619D01*
X144676715Y-112974381D02*
X144105286Y-112974381D01*
X144391000Y-112974381D02*
X144391000Y-111974381D01*
X144295762Y-112117238D01*
X144200524Y-112212476D01*
X144105286Y-112260095D01*
X136826667Y-97392381D02*
X136826667Y-98106667D01*
X136779047Y-98249524D01*
X136683809Y-98344762D01*
X136540952Y-98392381D01*
X136445714Y-98392381D01*
X137826667Y-98392381D02*
X137255238Y-98392381D01*
X137540952Y-98392381D02*
X137540952Y-97392381D01*
X137445714Y-97535238D01*
X137350476Y-97630476D01*
X137255238Y-97678095D01*
X159686667Y-97392381D02*
X159686667Y-98106667D01*
X159639047Y-98249524D01*
X159543809Y-98344762D01*
X159400952Y-98392381D01*
X159305714Y-98392381D01*
X160115238Y-97487619D02*
X160162857Y-97440000D01*
X160258095Y-97392381D01*
X160496191Y-97392381D01*
X160591429Y-97440000D01*
X160639048Y-97487619D01*
X160686667Y-97582857D01*
X160686667Y-97678095D01*
X160639048Y-97820952D01*
X160067619Y-98392381D01*
X160686667Y-98392381D01*
X159322381Y-96853333D02*
X160036667Y-96853333D01*
X160179524Y-96900953D01*
X160274762Y-96996191D01*
X160322381Y-97139048D01*
X160322381Y-97234286D01*
X159322381Y-96472381D02*
X159322381Y-95853333D01*
X159703333Y-96186667D01*
X159703333Y-96043809D01*
X159750952Y-95948571D01*
X159798571Y-95900952D01*
X159893810Y-95853333D01*
X160131905Y-95853333D01*
X160227143Y-95900952D01*
X160274762Y-95948571D01*
X160322381Y-96043809D01*
X160322381Y-96329524D01*
X160274762Y-96424762D01*
X160227143Y-96472381D01*
M02*
