G04 #@! TF.FileFunction,Soldermask,Top*
%FSLAX46Y46*%
G04 Gerber Fmt 4.6, Leading zero omitted, Abs format (unit mm)*
G04 Created by KiCad (PCBNEW 4.0.6) date Thu May  4 15:15:54 2017*
%MOMM*%
%LPD*%
G01*
G04 APERTURE LIST*
%ADD10C,0.100000*%
%ADD11R,0.800000X1.600000*%
%ADD12C,2.000000*%
%ADD13R,2.100000X2.100000*%
%ADD14O,2.100000X2.100000*%
G04 APERTURE END LIST*
D10*
D11*
X140017500Y-110110000D03*
X140652500Y-110110000D03*
X141287500Y-110110000D03*
X141922500Y-110110000D03*
X142557500Y-110110000D03*
X143192500Y-110110000D03*
X143827500Y-110110000D03*
X144462500Y-110110000D03*
X145097500Y-110110000D03*
X145732500Y-110110000D03*
X146367500Y-110110000D03*
X147002500Y-110110000D03*
X147637500Y-110110000D03*
X148272500Y-110110000D03*
X148907500Y-110110000D03*
X149542500Y-110110000D03*
X150177500Y-110110000D03*
X150812500Y-110110000D03*
X151447500Y-110110000D03*
X152082500Y-110110000D03*
X152717500Y-110110000D03*
X153352500Y-110110000D03*
X153987500Y-110110000D03*
X154622500Y-110110000D03*
X155257500Y-110110000D03*
X155892500Y-110110000D03*
X156527500Y-110110000D03*
X157162500Y-110110000D03*
X157162500Y-100710000D03*
X156527500Y-100710000D03*
X155892500Y-100710000D03*
X155257500Y-100710000D03*
X154622500Y-100710000D03*
X153987500Y-100710000D03*
X153352500Y-100710000D03*
X152717500Y-100710000D03*
X152082500Y-100710000D03*
X151447500Y-100710000D03*
X150812500Y-100710000D03*
X150177500Y-100710000D03*
X149542500Y-100710000D03*
X148907500Y-100710000D03*
X148272500Y-100710000D03*
X147637500Y-100710000D03*
X147002500Y-100710000D03*
X146367500Y-100710000D03*
X145732500Y-100710000D03*
X145097500Y-100710000D03*
X144462500Y-100710000D03*
X143827500Y-100710000D03*
X143192500Y-100710000D03*
X142557500Y-100710000D03*
X141922500Y-100710000D03*
X141287500Y-100710000D03*
X140652500Y-100710000D03*
X140017500Y-100710000D03*
D12*
X146050000Y-112522000D03*
X151050000Y-112522000D03*
D13*
X137160000Y-100330000D03*
D14*
X137160000Y-102870000D03*
X137160000Y-105410000D03*
X137160000Y-107950000D03*
X137160000Y-110490000D03*
D13*
X160020000Y-100330000D03*
D14*
X160020000Y-102870000D03*
X160020000Y-105410000D03*
X160020000Y-107950000D03*
X160020000Y-110490000D03*
D13*
X157480000Y-95250000D03*
D14*
X157480000Y-97790000D03*
X154940000Y-95250000D03*
X154940000Y-97790000D03*
X152400000Y-95250000D03*
X152400000Y-97790000D03*
X149860000Y-95250000D03*
X149860000Y-97790000D03*
X147320000Y-95250000D03*
X147320000Y-97790000D03*
X144780000Y-95250000D03*
X144780000Y-97790000D03*
X142240000Y-95250000D03*
X142240000Y-97790000D03*
X139700000Y-95250000D03*
X139700000Y-97790000D03*
M02*
