G04 #@! TF.FileFunction,Copper,L2,Bot,Signal*
%FSLAX46Y46*%
G04 Gerber Fmt 4.6, Leading zero omitted, Abs format (unit mm)*
G04 Created by KiCad (PCBNEW 4.0.6) date Thu May  4 15:15:54 2017*
%MOMM*%
%LPD*%
G01*
G04 APERTURE LIST*
%ADD10C,0.100000*%
%ADD11C,1.600000*%
%ADD12R,1.700000X1.700000*%
%ADD13O,1.700000X1.700000*%
%ADD14C,0.400000*%
%ADD15C,0.400000*%
G04 APERTURE END LIST*
D10*
D11*
X146050000Y-112522000D03*
X151050000Y-112522000D03*
D12*
X137160000Y-100330000D03*
D13*
X137160000Y-102870000D03*
X137160000Y-105410000D03*
X137160000Y-107950000D03*
X137160000Y-110490000D03*
D12*
X160020000Y-100330000D03*
D13*
X160020000Y-102870000D03*
X160020000Y-105410000D03*
X160020000Y-107950000D03*
X160020000Y-110490000D03*
D12*
X157480000Y-95250000D03*
D13*
X157480000Y-97790000D03*
X154940000Y-95250000D03*
X154940000Y-97790000D03*
X152400000Y-95250000D03*
X152400000Y-97790000D03*
X149860000Y-95250000D03*
X149860000Y-97790000D03*
X147320000Y-95250000D03*
X147320000Y-97790000D03*
X144780000Y-95250000D03*
X144780000Y-97790000D03*
X142240000Y-95250000D03*
X142240000Y-97790000D03*
X139700000Y-95250000D03*
X139700000Y-97790000D03*
D14*
X140815200Y-108748800D03*
X142711700Y-109109700D03*
X156209800Y-99709700D03*
X153896400Y-101714600D03*
X153411100Y-99692300D03*
X145062900Y-99708600D03*
X151960500Y-101710300D03*
X143827500Y-101710300D03*
D15*
X137160000Y-102870000D02*
X137160000Y-104120300D01*
X147028700Y-108500700D02*
X140815200Y-108500700D01*
X151050000Y-112522000D02*
X147028700Y-108500700D01*
X137707000Y-104120300D02*
X137160000Y-104120300D01*
X140815200Y-107228500D02*
X137707000Y-104120300D01*
X140815200Y-108500700D02*
X140815200Y-107228500D01*
X140815200Y-108500700D02*
X140815200Y-108748800D01*
X137160000Y-107950000D02*
X138410300Y-107950000D01*
X142448800Y-109372600D02*
X142711700Y-109109700D01*
X139832900Y-109372600D02*
X142448800Y-109372600D01*
X138410300Y-107950000D02*
X139832900Y-109372600D01*
X154940000Y-95250000D02*
X154940000Y-96500300D01*
X156209800Y-97223100D02*
X156209800Y-99709700D01*
X155487000Y-96500300D02*
X156209800Y-97223100D01*
X154940000Y-96500300D02*
X155487000Y-96500300D01*
X152400000Y-100218200D02*
X153896400Y-101714600D01*
X152400000Y-97790000D02*
X152400000Y-100218200D01*
X153670000Y-99433400D02*
X153411100Y-99692300D01*
X153670000Y-97223800D02*
X153670000Y-99433400D01*
X152946500Y-96500300D02*
X153670000Y-97223800D01*
X151813500Y-96500300D02*
X152946500Y-96500300D01*
X151110300Y-95797100D02*
X151813500Y-96500300D01*
X151110300Y-95250000D02*
X151110300Y-95797100D01*
X149860000Y-95250000D02*
X151110300Y-95250000D01*
X145062900Y-99708500D02*
X145062900Y-99708600D01*
X144901500Y-99708500D02*
X145062900Y-99708500D01*
X143490300Y-98297300D02*
X144901500Y-99708500D01*
X143490300Y-97203500D02*
X143490300Y-98297300D01*
X142787100Y-96500300D02*
X143490300Y-97203500D01*
X142240000Y-96500300D02*
X142787100Y-96500300D01*
X142240000Y-95250000D02*
X142240000Y-96500300D01*
X147320000Y-95250000D02*
X147320000Y-96500300D01*
X148570300Y-98320100D02*
X151960500Y-101710300D01*
X148570300Y-97203500D02*
X148570300Y-98320100D01*
X147867100Y-96500300D02*
X148570300Y-97203500D01*
X147320000Y-96500300D02*
X147867100Y-96500300D01*
X139700000Y-95250000D02*
X139700000Y-96500300D01*
X140950300Y-98833100D02*
X143827500Y-101710300D01*
X140950300Y-97203500D02*
X140950300Y-98833100D01*
X140247100Y-96500300D02*
X140950300Y-97203500D01*
X139700000Y-96500300D02*
X140247100Y-96500300D01*
M02*
