M48
INCH,TZ
T1C0.012
T2C0.031
T3C0.039
%
G90
G05
T1
X5.5439Y-4.2814
X5.6186Y-4.2957
X5.6625Y-4.0043
X5.7111Y-3.9255
X5.9827Y-4.0043
X6.0398Y-3.9249
X6.0589Y-4.0045
X6.15Y-3.9256
T2
X5.75Y-4.43
X5.9469Y-4.43
T3
X5.4Y-3.95
X5.4Y-4.05
X5.4Y-4.15
X5.4Y-4.25
X5.4Y-4.35
X5.5Y-3.75
X5.5Y-3.85
X5.6Y-3.75
X5.6Y-3.85
X5.7Y-3.75
X5.7Y-3.85
X5.8Y-3.75
X5.8Y-3.85
X5.9Y-3.75
X5.9Y-3.85
X6.Y-3.75
X6.Y-3.85
X6.1Y-3.75
X6.1Y-3.85
X6.2Y-3.75
X6.2Y-3.85
X6.3Y-3.95
X6.3Y-4.05
X6.3Y-4.15
X6.3Y-4.25
X6.3Y-4.35
T0
M30
