G04 #@! TF.FileFunction,Copper,L2,Bot,Signal*
%FSLAX46Y46*%
G04 Gerber Fmt 4.6, Leading zero omitted, Abs format (unit mm)*
G04 Created by KiCad (PCBNEW 4.0.6) date Thu May  4 15:15:30 2017*
%MOMM*%
%LPD*%
G01*
G04 APERTURE LIST*
%ADD10C,0.100000*%
%ADD11C,3.048000*%
%ADD12C,2.000000*%
%ADD13C,0.254000*%
G04 APERTURE END LIST*
D10*
D11*
X163390000Y-87630000D03*
X171890000Y-87630000D03*
D12*
X182880000Y-85090000D03*
X152400000Y-85090000D03*
D13*
G36*
X150627954Y-79242046D02*
X150858295Y-79395954D01*
X151130000Y-79450000D01*
X157480000Y-79450000D01*
X157751705Y-79395954D01*
X157982046Y-79242046D01*
X159044092Y-78180000D01*
X176235908Y-78180000D01*
X177297954Y-79242046D01*
X177528295Y-79395954D01*
X177800000Y-79450000D01*
X184150000Y-79450000D01*
X184421705Y-79395954D01*
X184652046Y-79242046D01*
X185714092Y-78180000D01*
X190425000Y-78180000D01*
X190425000Y-98350000D01*
X185714092Y-98350000D01*
X184652046Y-97287954D01*
X184421705Y-97134046D01*
X184150000Y-97080000D01*
X177800000Y-97080000D01*
X177528295Y-97134046D01*
X177297954Y-97287954D01*
X176235908Y-98350000D01*
X159044092Y-98350000D01*
X157982046Y-97287954D01*
X157751705Y-97134046D01*
X157480000Y-97080000D01*
X151130000Y-97080000D01*
X150858295Y-97134046D01*
X150627954Y-97287954D01*
X149565908Y-98350000D01*
X144855000Y-98350000D01*
X144855000Y-88057567D01*
X161230626Y-88057567D01*
X161558622Y-88851377D01*
X162165428Y-89459244D01*
X162958664Y-89788624D01*
X163817567Y-89789374D01*
X164311342Y-89585350D01*
X170462152Y-89585350D01*
X170618218Y-90015044D01*
X171627743Y-90320184D01*
X172677195Y-90215768D01*
X173161782Y-90015044D01*
X173317848Y-89585350D01*
X171890000Y-88157502D01*
X170462152Y-89585350D01*
X164311342Y-89585350D01*
X164611377Y-89461378D01*
X165219244Y-88854572D01*
X165548624Y-88061336D01*
X165549229Y-87367743D01*
X169199816Y-87367743D01*
X169304232Y-88417195D01*
X169504956Y-88901782D01*
X169934650Y-89057848D01*
X171362498Y-87630000D01*
X172417502Y-87630000D01*
X173845350Y-89057848D01*
X174275044Y-88901782D01*
X174580184Y-87892257D01*
X174475768Y-86842805D01*
X174275044Y-86358218D01*
X173845350Y-86202152D01*
X172417502Y-87630000D01*
X171362498Y-87630000D01*
X169934650Y-86202152D01*
X169504956Y-86358218D01*
X169199816Y-87367743D01*
X165549229Y-87367743D01*
X165549374Y-87202433D01*
X165221378Y-86408623D01*
X164614572Y-85800756D01*
X164310875Y-85674650D01*
X170462152Y-85674650D01*
X171890000Y-87102498D01*
X173317848Y-85674650D01*
X173161782Y-85244956D01*
X172152257Y-84939816D01*
X171102805Y-85044232D01*
X170618218Y-85244956D01*
X170462152Y-85674650D01*
X164310875Y-85674650D01*
X163821336Y-85471376D01*
X162962433Y-85470626D01*
X162168623Y-85798622D01*
X161560756Y-86405428D01*
X161231376Y-87198664D01*
X161230626Y-88057567D01*
X144855000Y-88057567D01*
X144855000Y-78180000D01*
X149565908Y-78180000D01*
X150627954Y-79242046D01*
X150627954Y-79242046D01*
G37*
X150627954Y-79242046D02*
X150858295Y-79395954D01*
X151130000Y-79450000D01*
X157480000Y-79450000D01*
X157751705Y-79395954D01*
X157982046Y-79242046D01*
X159044092Y-78180000D01*
X176235908Y-78180000D01*
X177297954Y-79242046D01*
X177528295Y-79395954D01*
X177800000Y-79450000D01*
X184150000Y-79450000D01*
X184421705Y-79395954D01*
X184652046Y-79242046D01*
X185714092Y-78180000D01*
X190425000Y-78180000D01*
X190425000Y-98350000D01*
X185714092Y-98350000D01*
X184652046Y-97287954D01*
X184421705Y-97134046D01*
X184150000Y-97080000D01*
X177800000Y-97080000D01*
X177528295Y-97134046D01*
X177297954Y-97287954D01*
X176235908Y-98350000D01*
X159044092Y-98350000D01*
X157982046Y-97287954D01*
X157751705Y-97134046D01*
X157480000Y-97080000D01*
X151130000Y-97080000D01*
X150858295Y-97134046D01*
X150627954Y-97287954D01*
X149565908Y-98350000D01*
X144855000Y-98350000D01*
X144855000Y-88057567D01*
X161230626Y-88057567D01*
X161558622Y-88851377D01*
X162165428Y-89459244D01*
X162958664Y-89788624D01*
X163817567Y-89789374D01*
X164311342Y-89585350D01*
X170462152Y-89585350D01*
X170618218Y-90015044D01*
X171627743Y-90320184D01*
X172677195Y-90215768D01*
X173161782Y-90015044D01*
X173317848Y-89585350D01*
X171890000Y-88157502D01*
X170462152Y-89585350D01*
X164311342Y-89585350D01*
X164611377Y-89461378D01*
X165219244Y-88854572D01*
X165548624Y-88061336D01*
X165549229Y-87367743D01*
X169199816Y-87367743D01*
X169304232Y-88417195D01*
X169504956Y-88901782D01*
X169934650Y-89057848D01*
X171362498Y-87630000D01*
X172417502Y-87630000D01*
X173845350Y-89057848D01*
X174275044Y-88901782D01*
X174580184Y-87892257D01*
X174475768Y-86842805D01*
X174275044Y-86358218D01*
X173845350Y-86202152D01*
X172417502Y-87630000D01*
X171362498Y-87630000D01*
X169934650Y-86202152D01*
X169504956Y-86358218D01*
X169199816Y-87367743D01*
X165549229Y-87367743D01*
X165549374Y-87202433D01*
X165221378Y-86408623D01*
X164614572Y-85800756D01*
X164310875Y-85674650D01*
X170462152Y-85674650D01*
X171890000Y-87102498D01*
X173317848Y-85674650D01*
X173161782Y-85244956D01*
X172152257Y-84939816D01*
X171102805Y-85044232D01*
X170618218Y-85244956D01*
X170462152Y-85674650D01*
X164310875Y-85674650D01*
X163821336Y-85471376D01*
X162962433Y-85470626D01*
X162168623Y-85798622D01*
X161560756Y-86405428D01*
X161231376Y-87198664D01*
X161230626Y-88057567D01*
X144855000Y-88057567D01*
X144855000Y-78180000D01*
X149565908Y-78180000D01*
X150627954Y-79242046D01*
M02*
