G04 #@! TF.FileFunction,Copper,L1,Top,Signal*
%FSLAX46Y46*%
G04 Gerber Fmt 4.6, Leading zero omitted, Abs format (unit mm)*
G04 Created by KiCad (PCBNEW 4.0.6) date Wed May 10 19:24:10 2017*
%MOMM*%
%LPD*%
G01*
G04 APERTURE LIST*
%ADD10C,0.100000*%
%ADD11O,4.000000X1.500000*%
%ADD12C,5.080000*%
%ADD13R,1.700000X1.700000*%
%ADD14O,1.700000X1.700000*%
%ADD15C,2.000000*%
%ADD16C,0.254000*%
G04 APERTURE END LIST*
D10*
D11*
X147070000Y-90130000D03*
X147070000Y-85130000D03*
X147070000Y-87630000D03*
X188210000Y-85130000D03*
X188210000Y-90130000D03*
X188210000Y-87630000D03*
D12*
X162814000Y-82550000D03*
X172466000Y-82550000D03*
D13*
X152908000Y-95504000D03*
D14*
X155448000Y-95504000D03*
D13*
X179832000Y-95504000D03*
D14*
X182372000Y-95504000D03*
D15*
X147070000Y-87630000D02*
X188210000Y-87630000D01*
X152908000Y-95504000D02*
X152444000Y-95504000D01*
X152444000Y-95504000D02*
X147070000Y-90130000D01*
X182372000Y-95504000D02*
X182836000Y-95504000D01*
X182836000Y-95504000D02*
X188210000Y-90130000D01*
D16*
G36*
X150627954Y-79242046D02*
X150858295Y-79395954D01*
X151130000Y-79450000D01*
X157480000Y-79450000D01*
X157751705Y-79395954D01*
X157982046Y-79242046D01*
X159044092Y-78180000D01*
X176235908Y-78180000D01*
X177297954Y-79242046D01*
X177528295Y-79395954D01*
X177800000Y-79450000D01*
X184150000Y-79450000D01*
X184421705Y-79395954D01*
X184652046Y-79242046D01*
X185714092Y-78180000D01*
X190425000Y-78180000D01*
X190425000Y-83498087D01*
X189833000Y-83253000D01*
X188583000Y-83253000D01*
X188583000Y-84757000D01*
X188603000Y-84757000D01*
X188603000Y-85503000D01*
X188583000Y-85503000D01*
X188583000Y-85523000D01*
X187837000Y-85523000D01*
X187837000Y-85503000D01*
X185408970Y-85503000D01*
X185201433Y-85786179D01*
X185287347Y-85995000D01*
X173829294Y-85995000D01*
X174350908Y-85778940D01*
X174632512Y-85244013D01*
X172466000Y-83077502D01*
X170299488Y-85244013D01*
X170581092Y-85778940D01*
X171207707Y-85995000D01*
X149992653Y-85995000D01*
X150078567Y-85786179D01*
X149871030Y-85503000D01*
X147443000Y-85503000D01*
X147443000Y-85523000D01*
X146697000Y-85523000D01*
X146697000Y-85503000D01*
X146677000Y-85503000D01*
X146677000Y-84757000D01*
X146697000Y-84757000D01*
X146697000Y-83253000D01*
X147443000Y-83253000D01*
X147443000Y-84757000D01*
X149871030Y-84757000D01*
X150078567Y-84473821D01*
X149910990Y-84066511D01*
X149382904Y-83538619D01*
X148693000Y-83253000D01*
X147443000Y-83253000D01*
X146697000Y-83253000D01*
X145447000Y-83253000D01*
X144855000Y-83498087D01*
X144855000Y-83178776D01*
X159638450Y-83178776D01*
X160120796Y-84346143D01*
X161013159Y-85240065D01*
X162179683Y-85724448D01*
X163442776Y-85725550D01*
X164610143Y-85243204D01*
X165504065Y-84350841D01*
X165988448Y-83184317D01*
X165989442Y-82044234D01*
X168761525Y-82044234D01*
X168849963Y-83500375D01*
X169237060Y-84434908D01*
X169771987Y-84716512D01*
X171938498Y-82550000D01*
X172993502Y-82550000D01*
X175160013Y-84716512D01*
X175621021Y-84473821D01*
X185201433Y-84473821D01*
X185408970Y-84757000D01*
X187837000Y-84757000D01*
X187837000Y-83253000D01*
X186587000Y-83253000D01*
X185897096Y-83538619D01*
X185369010Y-84066511D01*
X185201433Y-84473821D01*
X175621021Y-84473821D01*
X175694940Y-84434908D01*
X176170475Y-83055766D01*
X176082037Y-81599625D01*
X175694940Y-80665092D01*
X175160013Y-80383488D01*
X172993502Y-82550000D01*
X171938498Y-82550000D01*
X169771987Y-80383488D01*
X169237060Y-80665092D01*
X168761525Y-82044234D01*
X165989442Y-82044234D01*
X165989550Y-81921224D01*
X165507204Y-80753857D01*
X164614841Y-79859935D01*
X164605334Y-79855987D01*
X170299488Y-79855987D01*
X172466000Y-82022498D01*
X174632512Y-79855987D01*
X174350908Y-79321060D01*
X172971766Y-78845525D01*
X171515625Y-78933963D01*
X170581092Y-79321060D01*
X170299488Y-79855987D01*
X164605334Y-79855987D01*
X163448317Y-79375552D01*
X162185224Y-79374450D01*
X161017857Y-79856796D01*
X160123935Y-80749159D01*
X159639552Y-81915683D01*
X159638450Y-83178776D01*
X144855000Y-83178776D01*
X144855000Y-78180000D01*
X149565908Y-78180000D01*
X150627954Y-79242046D01*
X150627954Y-79242046D01*
G37*
X150627954Y-79242046D02*
X150858295Y-79395954D01*
X151130000Y-79450000D01*
X157480000Y-79450000D01*
X157751705Y-79395954D01*
X157982046Y-79242046D01*
X159044092Y-78180000D01*
X176235908Y-78180000D01*
X177297954Y-79242046D01*
X177528295Y-79395954D01*
X177800000Y-79450000D01*
X184150000Y-79450000D01*
X184421705Y-79395954D01*
X184652046Y-79242046D01*
X185714092Y-78180000D01*
X190425000Y-78180000D01*
X190425000Y-83498087D01*
X189833000Y-83253000D01*
X188583000Y-83253000D01*
X188583000Y-84757000D01*
X188603000Y-84757000D01*
X188603000Y-85503000D01*
X188583000Y-85503000D01*
X188583000Y-85523000D01*
X187837000Y-85523000D01*
X187837000Y-85503000D01*
X185408970Y-85503000D01*
X185201433Y-85786179D01*
X185287347Y-85995000D01*
X173829294Y-85995000D01*
X174350908Y-85778940D01*
X174632512Y-85244013D01*
X172466000Y-83077502D01*
X170299488Y-85244013D01*
X170581092Y-85778940D01*
X171207707Y-85995000D01*
X149992653Y-85995000D01*
X150078567Y-85786179D01*
X149871030Y-85503000D01*
X147443000Y-85503000D01*
X147443000Y-85523000D01*
X146697000Y-85523000D01*
X146697000Y-85503000D01*
X146677000Y-85503000D01*
X146677000Y-84757000D01*
X146697000Y-84757000D01*
X146697000Y-83253000D01*
X147443000Y-83253000D01*
X147443000Y-84757000D01*
X149871030Y-84757000D01*
X150078567Y-84473821D01*
X149910990Y-84066511D01*
X149382904Y-83538619D01*
X148693000Y-83253000D01*
X147443000Y-83253000D01*
X146697000Y-83253000D01*
X145447000Y-83253000D01*
X144855000Y-83498087D01*
X144855000Y-83178776D01*
X159638450Y-83178776D01*
X160120796Y-84346143D01*
X161013159Y-85240065D01*
X162179683Y-85724448D01*
X163442776Y-85725550D01*
X164610143Y-85243204D01*
X165504065Y-84350841D01*
X165988448Y-83184317D01*
X165989442Y-82044234D01*
X168761525Y-82044234D01*
X168849963Y-83500375D01*
X169237060Y-84434908D01*
X169771987Y-84716512D01*
X171938498Y-82550000D01*
X172993502Y-82550000D01*
X175160013Y-84716512D01*
X175621021Y-84473821D01*
X185201433Y-84473821D01*
X185408970Y-84757000D01*
X187837000Y-84757000D01*
X187837000Y-83253000D01*
X186587000Y-83253000D01*
X185897096Y-83538619D01*
X185369010Y-84066511D01*
X185201433Y-84473821D01*
X175621021Y-84473821D01*
X175694940Y-84434908D01*
X176170475Y-83055766D01*
X176082037Y-81599625D01*
X175694940Y-80665092D01*
X175160013Y-80383488D01*
X172993502Y-82550000D01*
X171938498Y-82550000D01*
X169771987Y-80383488D01*
X169237060Y-80665092D01*
X168761525Y-82044234D01*
X165989442Y-82044234D01*
X165989550Y-81921224D01*
X165507204Y-80753857D01*
X164614841Y-79859935D01*
X164605334Y-79855987D01*
X170299488Y-79855987D01*
X172466000Y-82022498D01*
X174632512Y-79855987D01*
X174350908Y-79321060D01*
X172971766Y-78845525D01*
X171515625Y-78933963D01*
X170581092Y-79321060D01*
X170299488Y-79855987D01*
X164605334Y-79855987D01*
X163448317Y-79375552D01*
X162185224Y-79374450D01*
X161017857Y-79856796D01*
X160123935Y-80749159D01*
X159639552Y-81915683D01*
X159638450Y-83178776D01*
X144855000Y-83178776D01*
X144855000Y-78180000D01*
X149565908Y-78180000D01*
X150627954Y-79242046D01*
M02*
