G04 #@! TF.FileFunction,Copper,L1,Top,Signal*
%FSLAX46Y46*%
G04 Gerber Fmt 4.6, Leading zero omitted, Abs format (unit mm)*
G04 Created by KiCad (PCBNEW 4.0.6) date Tue May 23 23:02:08 2017*
%MOMM*%
%LPD*%
G01*
G04 APERTURE LIST*
%ADD10C,0.100000*%
%ADD11C,5.400000*%
%ADD12C,3.000000*%
%ADD13R,1.700000X1.700000*%
%ADD14O,1.700000X1.700000*%
%ADD15C,1.778000*%
%ADD16C,2.286000*%
%ADD17C,2.000000*%
G04 APERTURE END LIST*
D10*
D11*
X130300000Y-112000000D03*
D12*
X126275000Y-98100000D03*
X134525000Y-98100000D03*
D13*
X117000000Y-111250000D03*
D14*
X119540000Y-111250000D03*
D13*
X141500000Y-111250000D03*
D14*
X144040000Y-111250000D03*
D15*
X120310000Y-105040000D03*
X120310000Y-102500000D03*
X120310000Y-99960000D03*
D16*
X117500000Y-105040000D03*
X117500000Y-102500000D03*
X117500000Y-99960000D03*
D15*
X140440000Y-99960000D03*
X140440000Y-102500000D03*
X140440000Y-105040000D03*
D16*
X143250000Y-99960000D03*
X143250000Y-102500000D03*
X143250000Y-105040000D03*
D11*
X130300000Y-92000000D03*
D17*
X134525000Y-98100000D02*
X131900000Y-98100000D01*
X122960000Y-99960000D02*
X120310000Y-99960000D01*
X125000000Y-102000000D02*
X122960000Y-99960000D01*
X128000000Y-102000000D02*
X125000000Y-102000000D01*
X131900000Y-98100000D02*
X128000000Y-102000000D01*
X140440000Y-99960000D02*
X136385000Y-99960000D01*
X136385000Y-99960000D02*
X134525000Y-98100000D01*
X120310000Y-102500000D02*
X121500000Y-102500000D01*
X121500000Y-102500000D02*
X123500000Y-104500000D01*
X123500000Y-104500000D02*
X136500000Y-104500000D01*
X136500000Y-104500000D02*
X138500000Y-102500000D01*
X138500000Y-102500000D02*
X140440000Y-102500000D01*
X119540000Y-111250000D02*
X122750000Y-111250000D01*
X137250000Y-111250000D02*
X141500000Y-111250000D01*
X133000000Y-107000000D02*
X137250000Y-111250000D01*
X127000000Y-107000000D02*
X133000000Y-107000000D01*
X122750000Y-111250000D02*
X127000000Y-107000000D01*
X117000000Y-111250000D02*
X117000000Y-108000000D01*
X120310000Y-107690000D02*
X120310000Y-105040000D01*
X120000000Y-108000000D02*
X120310000Y-107690000D01*
X117000000Y-108000000D02*
X120000000Y-108000000D01*
X144040000Y-111250000D02*
X144040000Y-108040000D01*
X140440000Y-107440000D02*
X140440000Y-105040000D01*
X141000000Y-108000000D02*
X140440000Y-107440000D01*
X144000000Y-108000000D02*
X141000000Y-108000000D01*
X144040000Y-108040000D02*
X144000000Y-108000000D01*
M02*
