G04 #@! TF.FileFunction,Copper,L2,Bot,Signal*
%FSLAX46Y46*%
G04 Gerber Fmt 4.6, Leading zero omitted, Abs format (unit mm)*
G04 Created by KiCad (PCBNEW 4.0.6) date Wed May 10 19:24:10 2017*
%MOMM*%
%LPD*%
G01*
G04 APERTURE LIST*
%ADD10C,0.100000*%
%ADD11C,5.080000*%
%ADD12R,1.700000X1.700000*%
%ADD13O,1.700000X1.700000*%
%ADD14C,0.254000*%
G04 APERTURE END LIST*
D10*
D11*
X162814000Y-82550000D03*
X172466000Y-82550000D03*
D12*
X152908000Y-95504000D03*
D13*
X155448000Y-95504000D03*
D12*
X179832000Y-95504000D03*
D13*
X182372000Y-95504000D03*
D14*
G36*
X150627954Y-79242046D02*
X150858295Y-79395954D01*
X151130000Y-79450000D01*
X157480000Y-79450000D01*
X157751705Y-79395954D01*
X157982046Y-79242046D01*
X159044092Y-78180000D01*
X176235908Y-78180000D01*
X177297954Y-79242046D01*
X177528295Y-79395954D01*
X177800000Y-79450000D01*
X184150000Y-79450000D01*
X184421705Y-79395954D01*
X184652046Y-79242046D01*
X185714092Y-78180000D01*
X190425000Y-78180000D01*
X190425000Y-98350000D01*
X185714092Y-98350000D01*
X184652046Y-97287954D01*
X184421705Y-97134046D01*
X184150000Y-97080000D01*
X181549819Y-97080000D01*
X181637425Y-96992394D01*
X181701807Y-96836961D01*
X181803715Y-96905054D01*
X182372000Y-97018093D01*
X182940285Y-96905054D01*
X183422054Y-96583147D01*
X183743961Y-96101378D01*
X183857000Y-95533093D01*
X183857000Y-95474907D01*
X183743961Y-94906622D01*
X183422054Y-94424853D01*
X182940285Y-94102946D01*
X182372000Y-93989907D01*
X181803715Y-94102946D01*
X181701807Y-94171039D01*
X181637425Y-94015606D01*
X181320394Y-93698576D01*
X180906174Y-93527000D01*
X180486750Y-93527000D01*
X180205000Y-93808750D01*
X180205000Y-95131000D01*
X180225000Y-95131000D01*
X180225000Y-95877000D01*
X180205000Y-95877000D01*
X180205000Y-95897000D01*
X179459000Y-95897000D01*
X179459000Y-95877000D01*
X178136750Y-95877000D01*
X177855000Y-96158750D01*
X177855000Y-96578174D01*
X178026575Y-96992394D01*
X178114181Y-97080000D01*
X177800000Y-97080000D01*
X177528295Y-97134046D01*
X177297954Y-97287954D01*
X176235908Y-98350000D01*
X159044092Y-98350000D01*
X157982046Y-97287954D01*
X157751705Y-97134046D01*
X157480000Y-97080000D01*
X156577910Y-97080000D01*
X156908523Y-96836474D01*
X157307263Y-96176128D01*
X157107766Y-95877000D01*
X155821000Y-95877000D01*
X155821000Y-95897000D01*
X155075000Y-95897000D01*
X155075000Y-95877000D01*
X155055000Y-95877000D01*
X155055000Y-95131000D01*
X155075000Y-95131000D01*
X155075000Y-93850294D01*
X155821000Y-93850294D01*
X155821000Y-95131000D01*
X157107766Y-95131000D01*
X157307263Y-94831872D01*
X157064494Y-94429826D01*
X177855000Y-94429826D01*
X177855000Y-94849250D01*
X178136750Y-95131000D01*
X179459000Y-95131000D01*
X179459000Y-93808750D01*
X179177250Y-93527000D01*
X178757826Y-93527000D01*
X178343606Y-93698576D01*
X178026575Y-94015606D01*
X177855000Y-94429826D01*
X157064494Y-94429826D01*
X156908523Y-94171526D01*
X156287432Y-93714037D01*
X156120124Y-93644759D01*
X155821000Y-93850294D01*
X155075000Y-93850294D01*
X154775876Y-93644759D01*
X154608568Y-93714037D01*
X154078522Y-94104463D01*
X154009890Y-94057569D01*
X153758000Y-94006560D01*
X152058000Y-94006560D01*
X151822683Y-94050838D01*
X151606559Y-94189910D01*
X151461569Y-94402110D01*
X151410560Y-94654000D01*
X151410560Y-96354000D01*
X151454838Y-96589317D01*
X151593910Y-96805441D01*
X151806110Y-96950431D01*
X152058000Y-97001440D01*
X153758000Y-97001440D01*
X153993317Y-96957162D01*
X154077651Y-96902895D01*
X154318090Y-97080000D01*
X151130000Y-97080000D01*
X150858295Y-97134046D01*
X150627954Y-97287954D01*
X149565908Y-98350000D01*
X144855000Y-98350000D01*
X144855000Y-85244013D01*
X160647488Y-85244013D01*
X160929092Y-85778940D01*
X162308234Y-86254475D01*
X163764375Y-86166037D01*
X164698908Y-85778940D01*
X164980512Y-85244013D01*
X162814000Y-83077502D01*
X160647488Y-85244013D01*
X144855000Y-85244013D01*
X144855000Y-82044234D01*
X159109525Y-82044234D01*
X159197963Y-83500375D01*
X159585060Y-84434908D01*
X160119987Y-84716512D01*
X162286498Y-82550000D01*
X163341502Y-82550000D01*
X165508013Y-84716512D01*
X166042940Y-84434908D01*
X166476060Y-83178776D01*
X169290450Y-83178776D01*
X169772796Y-84346143D01*
X170665159Y-85240065D01*
X171831683Y-85724448D01*
X173094776Y-85725550D01*
X174262143Y-85243204D01*
X175156065Y-84350841D01*
X175640448Y-83184317D01*
X175641550Y-81921224D01*
X175159204Y-80753857D01*
X174266841Y-79859935D01*
X173100317Y-79375552D01*
X171837224Y-79374450D01*
X170669857Y-79856796D01*
X169775935Y-80749159D01*
X169291552Y-81915683D01*
X169290450Y-83178776D01*
X166476060Y-83178776D01*
X166518475Y-83055766D01*
X166430037Y-81599625D01*
X166042940Y-80665092D01*
X165508013Y-80383488D01*
X163341502Y-82550000D01*
X162286498Y-82550000D01*
X160119987Y-80383488D01*
X159585060Y-80665092D01*
X159109525Y-82044234D01*
X144855000Y-82044234D01*
X144855000Y-79855987D01*
X160647488Y-79855987D01*
X162814000Y-82022498D01*
X164980512Y-79855987D01*
X164698908Y-79321060D01*
X163319766Y-78845525D01*
X161863625Y-78933963D01*
X160929092Y-79321060D01*
X160647488Y-79855987D01*
X144855000Y-79855987D01*
X144855000Y-78180000D01*
X149565908Y-78180000D01*
X150627954Y-79242046D01*
X150627954Y-79242046D01*
G37*
X150627954Y-79242046D02*
X150858295Y-79395954D01*
X151130000Y-79450000D01*
X157480000Y-79450000D01*
X157751705Y-79395954D01*
X157982046Y-79242046D01*
X159044092Y-78180000D01*
X176235908Y-78180000D01*
X177297954Y-79242046D01*
X177528295Y-79395954D01*
X177800000Y-79450000D01*
X184150000Y-79450000D01*
X184421705Y-79395954D01*
X184652046Y-79242046D01*
X185714092Y-78180000D01*
X190425000Y-78180000D01*
X190425000Y-98350000D01*
X185714092Y-98350000D01*
X184652046Y-97287954D01*
X184421705Y-97134046D01*
X184150000Y-97080000D01*
X181549819Y-97080000D01*
X181637425Y-96992394D01*
X181701807Y-96836961D01*
X181803715Y-96905054D01*
X182372000Y-97018093D01*
X182940285Y-96905054D01*
X183422054Y-96583147D01*
X183743961Y-96101378D01*
X183857000Y-95533093D01*
X183857000Y-95474907D01*
X183743961Y-94906622D01*
X183422054Y-94424853D01*
X182940285Y-94102946D01*
X182372000Y-93989907D01*
X181803715Y-94102946D01*
X181701807Y-94171039D01*
X181637425Y-94015606D01*
X181320394Y-93698576D01*
X180906174Y-93527000D01*
X180486750Y-93527000D01*
X180205000Y-93808750D01*
X180205000Y-95131000D01*
X180225000Y-95131000D01*
X180225000Y-95877000D01*
X180205000Y-95877000D01*
X180205000Y-95897000D01*
X179459000Y-95897000D01*
X179459000Y-95877000D01*
X178136750Y-95877000D01*
X177855000Y-96158750D01*
X177855000Y-96578174D01*
X178026575Y-96992394D01*
X178114181Y-97080000D01*
X177800000Y-97080000D01*
X177528295Y-97134046D01*
X177297954Y-97287954D01*
X176235908Y-98350000D01*
X159044092Y-98350000D01*
X157982046Y-97287954D01*
X157751705Y-97134046D01*
X157480000Y-97080000D01*
X156577910Y-97080000D01*
X156908523Y-96836474D01*
X157307263Y-96176128D01*
X157107766Y-95877000D01*
X155821000Y-95877000D01*
X155821000Y-95897000D01*
X155075000Y-95897000D01*
X155075000Y-95877000D01*
X155055000Y-95877000D01*
X155055000Y-95131000D01*
X155075000Y-95131000D01*
X155075000Y-93850294D01*
X155821000Y-93850294D01*
X155821000Y-95131000D01*
X157107766Y-95131000D01*
X157307263Y-94831872D01*
X157064494Y-94429826D01*
X177855000Y-94429826D01*
X177855000Y-94849250D01*
X178136750Y-95131000D01*
X179459000Y-95131000D01*
X179459000Y-93808750D01*
X179177250Y-93527000D01*
X178757826Y-93527000D01*
X178343606Y-93698576D01*
X178026575Y-94015606D01*
X177855000Y-94429826D01*
X157064494Y-94429826D01*
X156908523Y-94171526D01*
X156287432Y-93714037D01*
X156120124Y-93644759D01*
X155821000Y-93850294D01*
X155075000Y-93850294D01*
X154775876Y-93644759D01*
X154608568Y-93714037D01*
X154078522Y-94104463D01*
X154009890Y-94057569D01*
X153758000Y-94006560D01*
X152058000Y-94006560D01*
X151822683Y-94050838D01*
X151606559Y-94189910D01*
X151461569Y-94402110D01*
X151410560Y-94654000D01*
X151410560Y-96354000D01*
X151454838Y-96589317D01*
X151593910Y-96805441D01*
X151806110Y-96950431D01*
X152058000Y-97001440D01*
X153758000Y-97001440D01*
X153993317Y-96957162D01*
X154077651Y-96902895D01*
X154318090Y-97080000D01*
X151130000Y-97080000D01*
X150858295Y-97134046D01*
X150627954Y-97287954D01*
X149565908Y-98350000D01*
X144855000Y-98350000D01*
X144855000Y-85244013D01*
X160647488Y-85244013D01*
X160929092Y-85778940D01*
X162308234Y-86254475D01*
X163764375Y-86166037D01*
X164698908Y-85778940D01*
X164980512Y-85244013D01*
X162814000Y-83077502D01*
X160647488Y-85244013D01*
X144855000Y-85244013D01*
X144855000Y-82044234D01*
X159109525Y-82044234D01*
X159197963Y-83500375D01*
X159585060Y-84434908D01*
X160119987Y-84716512D01*
X162286498Y-82550000D01*
X163341502Y-82550000D01*
X165508013Y-84716512D01*
X166042940Y-84434908D01*
X166476060Y-83178776D01*
X169290450Y-83178776D01*
X169772796Y-84346143D01*
X170665159Y-85240065D01*
X171831683Y-85724448D01*
X173094776Y-85725550D01*
X174262143Y-85243204D01*
X175156065Y-84350841D01*
X175640448Y-83184317D01*
X175641550Y-81921224D01*
X175159204Y-80753857D01*
X174266841Y-79859935D01*
X173100317Y-79375552D01*
X171837224Y-79374450D01*
X170669857Y-79856796D01*
X169775935Y-80749159D01*
X169291552Y-81915683D01*
X169290450Y-83178776D01*
X166476060Y-83178776D01*
X166518475Y-83055766D01*
X166430037Y-81599625D01*
X166042940Y-80665092D01*
X165508013Y-80383488D01*
X163341502Y-82550000D01*
X162286498Y-82550000D01*
X160119987Y-80383488D01*
X159585060Y-80665092D01*
X159109525Y-82044234D01*
X144855000Y-82044234D01*
X144855000Y-79855987D01*
X160647488Y-79855987D01*
X162814000Y-82022498D01*
X164980512Y-79855987D01*
X164698908Y-79321060D01*
X163319766Y-78845525D01*
X161863625Y-78933963D01*
X160929092Y-79321060D01*
X160647488Y-79855987D01*
X144855000Y-79855987D01*
X144855000Y-78180000D01*
X149565908Y-78180000D01*
X150627954Y-79242046D01*
M02*
