G04 #@! TF.FileFunction,Legend,Top*
%FSLAX46Y46*%
G04 Gerber Fmt 4.6, Leading zero omitted, Abs format (unit mm)*
G04 Created by KiCad (PCBNEW 4.0.6) date Sun May 21 15:13:49 2017*
%MOMM*%
%LPD*%
G01*
G04 APERTURE LIST*
%ADD10C,0.100000*%
%ADD11C,0.150000*%
%ADD12C,0.120000*%
G04 APERTURE END LIST*
D10*
D11*
X139150000Y-95500000D02*
X139150000Y-108500000D01*
X139150000Y-108500000D02*
X138900000Y-108500000D01*
X121650000Y-108500000D02*
X138900000Y-108500000D01*
X121650000Y-98100000D02*
X121650000Y-108500000D01*
X121650000Y-95500000D02*
X139150000Y-95500000D01*
X121650000Y-96800000D02*
X121650000Y-95500000D01*
X121650000Y-98100000D02*
X121650000Y-96850000D01*
D12*
X118270000Y-112640000D02*
X120930000Y-112640000D01*
X120930000Y-112640000D02*
X120930000Y-109860000D01*
X120930000Y-109860000D02*
X118270000Y-109860000D01*
X118270000Y-109860000D02*
X118270000Y-112640000D01*
X117000000Y-112640000D02*
X115610000Y-112640000D01*
X115610000Y-112640000D02*
X115610000Y-111250000D01*
X142770000Y-112640000D02*
X145430000Y-112640000D01*
X145430000Y-112640000D02*
X145430000Y-109860000D01*
X145430000Y-109860000D02*
X142770000Y-109860000D01*
X142770000Y-109860000D02*
X142770000Y-112640000D01*
X141500000Y-112640000D02*
X140110000Y-112640000D01*
X140110000Y-112640000D02*
X140110000Y-111250000D01*
D11*
X126252381Y-93333333D02*
X125776190Y-93666667D01*
X126252381Y-93904762D02*
X125252381Y-93904762D01*
X125252381Y-93523809D01*
X125300000Y-93428571D01*
X125347619Y-93380952D01*
X125442857Y-93333333D01*
X125585714Y-93333333D01*
X125680952Y-93380952D01*
X125728571Y-93428571D01*
X125776190Y-93523809D01*
X125776190Y-93904762D01*
X125728571Y-92904762D02*
X125728571Y-92571428D01*
X126252381Y-92428571D02*
X126252381Y-92904762D01*
X125252381Y-92904762D01*
X125252381Y-92428571D01*
X125728571Y-91666666D02*
X125728571Y-92000000D01*
X126252381Y-92000000D02*
X125252381Y-92000000D01*
X125252381Y-91523809D01*
X125252381Y-91000000D02*
X125490476Y-91000000D01*
X125395238Y-91238095D02*
X125490476Y-91000000D01*
X125395238Y-90761904D01*
X125680952Y-91142857D02*
X125490476Y-91000000D01*
X125680952Y-90857142D01*
X125252381Y-90238095D02*
X125490476Y-90238095D01*
X125395238Y-90476190D02*
X125490476Y-90238095D01*
X125395238Y-89999999D01*
X125680952Y-90380952D02*
X125490476Y-90238095D01*
X125680952Y-90095237D01*
X126252381Y-113333333D02*
X125776190Y-113666667D01*
X126252381Y-113904762D02*
X125252381Y-113904762D01*
X125252381Y-113523809D01*
X125300000Y-113428571D01*
X125347619Y-113380952D01*
X125442857Y-113333333D01*
X125585714Y-113333333D01*
X125680952Y-113380952D01*
X125728571Y-113428571D01*
X125776190Y-113523809D01*
X125776190Y-113904762D01*
X125728571Y-112904762D02*
X125728571Y-112571428D01*
X126252381Y-112428571D02*
X126252381Y-112904762D01*
X125252381Y-112904762D01*
X125252381Y-112428571D01*
X125728571Y-111666666D02*
X125728571Y-112000000D01*
X126252381Y-112000000D02*
X125252381Y-112000000D01*
X125252381Y-111523809D01*
X125252381Y-111000000D02*
X125490476Y-111000000D01*
X125395238Y-111238095D02*
X125490476Y-111000000D01*
X125395238Y-110761904D01*
X125680952Y-111142857D02*
X125490476Y-111000000D01*
X125680952Y-110857142D01*
X125252381Y-110238095D02*
X125490476Y-110238095D01*
X125395238Y-110476190D02*
X125490476Y-110238095D01*
X125395238Y-109999999D01*
X125680952Y-110380952D02*
X125490476Y-110238095D01*
X125680952Y-110095237D01*
X130566667Y-100552381D02*
X130566667Y-101266667D01*
X130519047Y-101409524D01*
X130423809Y-101504762D01*
X130280952Y-101552381D01*
X130185714Y-101552381D01*
X131566667Y-101552381D02*
X130995238Y-101552381D01*
X131280952Y-101552381D02*
X131280952Y-100552381D01*
X131185714Y-100695238D01*
X131090476Y-100790476D01*
X130995238Y-100838095D01*
X115062381Y-113845238D02*
X114062381Y-113845238D01*
X114062381Y-113464285D01*
X114110000Y-113369047D01*
X114157619Y-113321428D01*
X114252857Y-113273809D01*
X114395714Y-113273809D01*
X114490952Y-113321428D01*
X114538571Y-113369047D01*
X114586190Y-113464285D01*
X114586190Y-113845238D01*
X114062381Y-112940476D02*
X115062381Y-112702381D01*
X114348095Y-112511904D01*
X115062381Y-112321428D01*
X114062381Y-112083333D01*
X115062381Y-111130952D02*
X114586190Y-111464286D01*
X115062381Y-111702381D02*
X114062381Y-111702381D01*
X114062381Y-111321428D01*
X114110000Y-111226190D01*
X114157619Y-111178571D01*
X114252857Y-111130952D01*
X114395714Y-111130952D01*
X114490952Y-111178571D01*
X114538571Y-111226190D01*
X114586190Y-111321428D01*
X114586190Y-111702381D01*
X115157619Y-110940476D02*
X115157619Y-110178571D01*
X115062381Y-109464285D02*
X115062381Y-109940476D01*
X114062381Y-109940476D01*
X115062381Y-108607142D02*
X115062381Y-109178571D01*
X115062381Y-108892857D02*
X114062381Y-108892857D01*
X114205238Y-108988095D01*
X114300476Y-109083333D01*
X114348095Y-109178571D01*
X139562381Y-113940476D02*
X138562381Y-113940476D01*
X138562381Y-113559523D01*
X138610000Y-113464285D01*
X138657619Y-113416666D01*
X138752857Y-113369047D01*
X138895714Y-113369047D01*
X138990952Y-113416666D01*
X139038571Y-113464285D01*
X139086190Y-113559523D01*
X139086190Y-113940476D01*
X138562381Y-113035714D02*
X139562381Y-112797619D01*
X138848095Y-112607142D01*
X139562381Y-112416666D01*
X138562381Y-112178571D01*
X139562381Y-111226190D02*
X139086190Y-111559524D01*
X139562381Y-111797619D02*
X138562381Y-111797619D01*
X138562381Y-111416666D01*
X138610000Y-111321428D01*
X138657619Y-111273809D01*
X138752857Y-111226190D01*
X138895714Y-111226190D01*
X138990952Y-111273809D01*
X139038571Y-111321428D01*
X139086190Y-111416666D01*
X139086190Y-111797619D01*
X139657619Y-111035714D02*
X139657619Y-110273809D01*
X139562381Y-109464285D02*
X139086190Y-109797619D01*
X139562381Y-110035714D02*
X138562381Y-110035714D01*
X138562381Y-109654761D01*
X138610000Y-109559523D01*
X138657619Y-109511904D01*
X138752857Y-109464285D01*
X138895714Y-109464285D01*
X138990952Y-109511904D01*
X139038571Y-109559523D01*
X139086190Y-109654761D01*
X139086190Y-110035714D01*
X139562381Y-108511904D02*
X139562381Y-109083333D01*
X139562381Y-108797619D02*
X138562381Y-108797619D01*
X138705238Y-108892857D01*
X138800476Y-108988095D01*
X138848095Y-109083333D01*
X118079334Y-107524381D02*
X117603143Y-107524381D01*
X117603143Y-106524381D01*
X118936477Y-107524381D02*
X118365048Y-107524381D01*
X118650762Y-107524381D02*
X118650762Y-106524381D01*
X118555524Y-106667238D01*
X118460286Y-106762476D01*
X118365048Y-106810095D01*
X142337334Y-98380381D02*
X142004000Y-97904190D01*
X141765905Y-98380381D02*
X141765905Y-97380381D01*
X142146858Y-97380381D01*
X142242096Y-97428000D01*
X142289715Y-97475619D01*
X142337334Y-97570857D01*
X142337334Y-97713714D01*
X142289715Y-97808952D01*
X142242096Y-97856571D01*
X142146858Y-97904190D01*
X141765905Y-97904190D01*
X143289715Y-98380381D02*
X142718286Y-98380381D01*
X143004000Y-98380381D02*
X143004000Y-97380381D01*
X142908762Y-97523238D01*
X142813524Y-97618476D01*
X142718286Y-97666095D01*
M02*
