G04 #@! TF.FileFunction,Legend,Top*
%FSLAX46Y46*%
G04 Gerber Fmt 4.6, Leading zero omitted, Abs format (unit mm)*
G04 Created by KiCad (PCBNEW 4.0.5) date Sun Apr  9 13:57:52 2017*
%MOMM*%
%LPD*%
G01*
G04 APERTURE LIST*
%ADD10C,0.100000*%
%ADD11C,0.300000*%
%ADD12C,0.150000*%
G04 APERTURE END LIST*
D10*
D11*
X109250001Y-104178571D02*
X108750001Y-103464286D01*
X108392858Y-104178571D02*
X108392858Y-102678571D01*
X108964286Y-102678571D01*
X109107144Y-102750000D01*
X109178572Y-102821429D01*
X109250001Y-102964286D01*
X109250001Y-103178571D01*
X109178572Y-103321429D01*
X109107144Y-103392857D01*
X108964286Y-103464286D01*
X108392858Y-103464286D01*
X109750001Y-102678571D02*
X110750001Y-104178571D01*
X110750001Y-102678571D02*
X109750001Y-104178571D01*
X105357143Y-102678571D02*
X106214286Y-102678571D01*
X105785715Y-104178571D02*
X105785715Y-102678571D01*
X106571429Y-102678571D02*
X107571429Y-104178571D01*
X107571429Y-102678571D02*
X106571429Y-104178571D01*
D12*
X126270000Y-89270000D02*
X126270000Y-94350000D01*
X126270000Y-94350000D02*
X123730000Y-94350000D01*
X123730000Y-94350000D02*
X123730000Y-89270000D01*
X123730000Y-89270000D02*
X126270000Y-89270000D01*
X94126000Y-83380000D02*
X94126000Y-98620000D01*
X94126000Y-98620000D02*
X112160000Y-98620000D01*
X112160000Y-98620000D02*
X112160000Y-83380000D01*
X112160000Y-83380000D02*
X94126000Y-83380000D01*
X114635000Y-85705000D02*
X114635000Y-86975000D01*
X121985000Y-85705000D02*
X121985000Y-86975000D01*
X121985000Y-97915000D02*
X121985000Y-96645000D01*
X114635000Y-97915000D02*
X114635000Y-96645000D01*
X114635000Y-85705000D02*
X121985000Y-85705000D01*
X114635000Y-97915000D02*
X121985000Y-97915000D01*
X114635000Y-86975000D02*
X113700000Y-86975000D01*
X115770000Y-98730000D02*
X120850000Y-98730000D01*
X120850000Y-98730000D02*
X120850000Y-101270000D01*
X120850000Y-101270000D02*
X115770000Y-101270000D01*
X115770000Y-101270000D02*
X115770000Y-98730000D01*
X128857263Y-92225586D02*
X128904882Y-92273205D01*
X128952501Y-92416062D01*
X128952501Y-92511300D01*
X128904882Y-92654158D01*
X128809644Y-92749396D01*
X128714406Y-92797015D01*
X128523930Y-92844634D01*
X128381072Y-92844634D01*
X128190596Y-92797015D01*
X128095358Y-92749396D01*
X128000120Y-92654158D01*
X127952501Y-92511300D01*
X127952501Y-92416062D01*
X128000120Y-92273205D01*
X128047739Y-92225586D01*
X128952501Y-91273205D02*
X128952501Y-91844634D01*
X128952501Y-91558920D02*
X127952501Y-91558920D01*
X128095358Y-91654158D01*
X128190596Y-91749396D01*
X128238215Y-91844634D01*
X96626381Y-91587333D02*
X97340667Y-91587333D01*
X97483524Y-91634953D01*
X97578762Y-91730191D01*
X97626381Y-91873048D01*
X97626381Y-91968286D01*
X97626381Y-90587333D02*
X97626381Y-91158762D01*
X97626381Y-90873048D02*
X96626381Y-90873048D01*
X96769238Y-90968286D01*
X96864476Y-91063524D01*
X96912095Y-91158762D01*
X113738095Y-82232381D02*
X113738095Y-83041905D01*
X113785714Y-83137143D01*
X113833333Y-83184762D01*
X113928571Y-83232381D01*
X114119048Y-83232381D01*
X114214286Y-83184762D01*
X114261905Y-83137143D01*
X114309524Y-83041905D01*
X114309524Y-82232381D01*
X115309524Y-83232381D02*
X114738095Y-83232381D01*
X115023809Y-83232381D02*
X115023809Y-82232381D01*
X114928571Y-82375238D01*
X114833333Y-82470476D01*
X114738095Y-82518095D01*
X98166667Y-100452381D02*
X98166667Y-101166667D01*
X98119047Y-101309524D01*
X98023809Y-101404762D01*
X97880952Y-101452381D01*
X97785714Y-101452381D01*
X98595238Y-100547619D02*
X98642857Y-100500000D01*
X98738095Y-100452381D01*
X98976191Y-100452381D01*
X99071429Y-100500000D01*
X99119048Y-100547619D01*
X99166667Y-100642857D01*
X99166667Y-100738095D01*
X99119048Y-100880952D01*
X98547619Y-101452381D01*
X99166667Y-101452381D01*
X98166667Y-102952381D02*
X98166667Y-103666667D01*
X98119047Y-103809524D01*
X98023809Y-103904762D01*
X97880952Y-103952381D01*
X97785714Y-103952381D01*
X98547619Y-102952381D02*
X99166667Y-102952381D01*
X98833333Y-103333333D01*
X98976191Y-103333333D01*
X99071429Y-103380952D01*
X99119048Y-103428571D01*
X99166667Y-103523810D01*
X99166667Y-103761905D01*
X99119048Y-103857143D01*
X99071429Y-103904762D01*
X98976191Y-103952381D01*
X98690476Y-103952381D01*
X98595238Y-103904762D01*
X98547619Y-103857143D01*
X118392254Y-96952261D02*
X118058920Y-96476070D01*
X117820825Y-96952261D02*
X117820825Y-95952261D01*
X118201778Y-95952261D01*
X118297016Y-95999880D01*
X118344635Y-96047499D01*
X118392254Y-96142737D01*
X118392254Y-96285594D01*
X118344635Y-96380832D01*
X118297016Y-96428451D01*
X118201778Y-96476070D01*
X117820825Y-96476070D01*
X119344635Y-96952261D02*
X118773206Y-96952261D01*
X119058920Y-96952261D02*
X119058920Y-95952261D01*
X118963682Y-96095118D01*
X118868444Y-96190356D01*
X118773206Y-96237975D01*
X107166667Y-101452381D02*
X107166667Y-102166667D01*
X107119047Y-102309524D01*
X107023809Y-102404762D01*
X106880952Y-102452381D01*
X106785714Y-102452381D01*
X107642857Y-102452381D02*
X107642857Y-101452381D01*
X108023810Y-101452381D01*
X108119048Y-101500000D01*
X108166667Y-101547619D01*
X108214286Y-101642857D01*
X108214286Y-101785714D01*
X108166667Y-101880952D01*
X108119048Y-101928571D01*
X108023810Y-101976190D01*
X107642857Y-101976190D01*
X109166667Y-102452381D02*
X108595238Y-102452381D01*
X108880952Y-102452381D02*
X108880952Y-101452381D01*
X108785714Y-101595238D01*
X108690476Y-101690476D01*
X108595238Y-101738095D01*
X129261905Y-92952381D02*
X129261905Y-91952381D01*
X129642858Y-91952381D01*
X129738096Y-92000000D01*
X129785715Y-92047619D01*
X129833334Y-92142857D01*
X129833334Y-92285714D01*
X129785715Y-92380952D01*
X129738096Y-92428571D01*
X129642858Y-92476190D01*
X129261905Y-92476190D01*
X130785715Y-92952381D02*
X130214286Y-92952381D01*
X130500000Y-92952381D02*
X130500000Y-91952381D01*
X130404762Y-92095238D01*
X130309524Y-92190476D01*
X130214286Y-92238095D01*
M02*
