G04 #@! TF.FileFunction,Copper,L1,Top,Signal*
%FSLAX46Y46*%
G04 Gerber Fmt 4.6, Leading zero omitted, Abs format (unit mm)*
G04 Created by KiCad (PCBNEW 4.0.6) date Thu May  4 15:13:46 2017*
%MOMM*%
%LPD*%
G01*
G04 APERTURE LIST*
%ADD10C,0.100000*%
%ADD11O,1.600000X1.600000*%
%ADD12C,3.649980*%
%ADD13R,1.501140X1.501140*%
%ADD14C,1.501140*%
%ADD15C,1.998980*%
%ADD16C,1.524000*%
%ADD17C,1.600000*%
%ADD18O,4.000000X1.500000*%
%ADD19C,2.000000*%
%ADD20C,2.000000*%
%ADD21C,0.500000*%
%ADD22C,0.254000*%
G04 APERTURE END LIST*
D10*
D11*
X116205000Y-98425000D03*
X118745000Y-98425000D03*
X121285000Y-98425000D03*
X123825000Y-98425000D03*
X123825000Y-90805000D03*
X121285000Y-90805000D03*
X118745000Y-90805000D03*
X116205000Y-90805000D03*
D12*
X96520000Y-97378520D03*
X96520000Y-85509100D03*
D13*
X102870000Y-86995000D03*
D14*
X105410000Y-88265000D03*
X102870000Y-89535000D03*
X105410000Y-90805000D03*
X102870000Y-92075000D03*
X105410000Y-93345000D03*
X102870000Y-94615000D03*
X105410000Y-95885000D03*
D15*
X116205000Y-85090000D03*
X123825000Y-85090000D03*
D16*
X135255000Y-97790000D03*
X137795000Y-97790000D03*
X140335000Y-97790000D03*
D17*
X116205000Y-88265000D03*
D11*
X123705000Y-88265000D03*
D18*
X138680000Y-88940000D03*
X138680000Y-93940000D03*
X138680000Y-91440000D03*
D19*
X133350000Y-88900000D03*
D20*
X138680000Y-88940000D02*
X133390000Y-88940000D01*
X133390000Y-88940000D02*
X133350000Y-88900000D01*
D21*
X123825000Y-98425000D02*
X123825000Y-97125000D01*
X129510000Y-91440000D02*
X123825000Y-97125000D01*
X138680000Y-91440000D02*
X129510000Y-91440000D01*
X117505000Y-97125000D02*
X116205000Y-98425000D01*
X123825000Y-97125000D02*
X117505000Y-97125000D01*
X121285000Y-90805000D02*
X121285000Y-89505000D01*
X121285000Y-89505000D02*
X120347500Y-88567500D01*
X123825000Y-85090000D02*
X120347500Y-88567500D01*
X118775000Y-86995000D02*
X102870000Y-86995000D01*
X120347500Y-88567500D02*
X118775000Y-86995000D01*
X121285000Y-98425000D02*
X118745000Y-98425000D01*
D22*
G36*
X106812954Y-84957046D02*
X107043295Y-85110954D01*
X107315000Y-85165000D01*
X113665000Y-85165000D01*
X113936705Y-85110954D01*
X114167046Y-84957046D01*
X114720023Y-84404069D01*
X114570794Y-84763453D01*
X114570226Y-85413694D01*
X114818538Y-86014655D01*
X115277927Y-86474846D01*
X115367990Y-86512243D01*
X115308284Y-86840782D01*
X116205000Y-87737498D01*
X117101716Y-86840782D01*
X117042084Y-86512646D01*
X117129655Y-86476462D01*
X117589846Y-86017073D01*
X117839206Y-85416547D01*
X117839774Y-84766306D01*
X117591462Y-84165345D01*
X117321588Y-83895000D01*
X122708549Y-83895000D01*
X122440154Y-84162927D01*
X122190794Y-84763453D01*
X122190226Y-85413694D01*
X122438538Y-86014655D01*
X122897927Y-86474846D01*
X123498453Y-86724206D01*
X124148694Y-86724774D01*
X124749655Y-86476462D01*
X125209846Y-86017073D01*
X125459206Y-85416547D01*
X125459473Y-85111188D01*
X125730000Y-85165000D01*
X132080000Y-85165000D01*
X132351705Y-85110954D01*
X132582046Y-84957046D01*
X133644092Y-83895000D01*
X141530000Y-83895000D01*
X141530000Y-92898411D01*
X141520990Y-92876511D01*
X141002088Y-92357800D01*
X141261196Y-91970017D01*
X141366623Y-91440000D01*
X141261196Y-90909983D01*
X140960966Y-90460657D01*
X140555899Y-90190000D01*
X140960966Y-89919343D01*
X141261196Y-89470017D01*
X141366623Y-88940000D01*
X141261196Y-88409983D01*
X140960966Y-87960657D01*
X140511640Y-87660427D01*
X139981623Y-87555000D01*
X137378377Y-87555000D01*
X136848360Y-87660427D01*
X136399034Y-87960657D01*
X136098804Y-88409983D01*
X135993377Y-88940000D01*
X136098804Y-89470017D01*
X136399034Y-89919343D01*
X136804101Y-90190000D01*
X136399034Y-90460657D01*
X136098804Y-90909983D01*
X135993377Y-91440000D01*
X136098804Y-91970017D01*
X136357912Y-92357800D01*
X135839010Y-92876511D01*
X135671433Y-93283821D01*
X135878970Y-93567000D01*
X138307000Y-93567000D01*
X138307000Y-93547000D01*
X139053000Y-93547000D01*
X139053000Y-93567000D01*
X139073000Y-93567000D01*
X139073000Y-94313000D01*
X139053000Y-94313000D01*
X139053000Y-95817000D01*
X140303000Y-95817000D01*
X140992904Y-95531381D01*
X141520990Y-95003489D01*
X141530000Y-94981589D01*
X141530000Y-97023875D01*
X141520010Y-96999697D01*
X141127370Y-96606371D01*
X140614100Y-96393243D01*
X140058339Y-96392758D01*
X139544697Y-96604990D01*
X139151371Y-96997630D01*
X139065051Y-97205512D01*
X138980010Y-96999697D01*
X138587370Y-96606371D01*
X138074100Y-96393243D01*
X137518339Y-96392758D01*
X137004697Y-96604990D01*
X136682414Y-96926711D01*
X136651106Y-96921396D01*
X135782502Y-97790000D01*
X135796644Y-97804142D01*
X135269142Y-98331644D01*
X135255000Y-98317502D01*
X135240858Y-98331644D01*
X134713356Y-97804142D01*
X134727498Y-97790000D01*
X133858894Y-96921396D01*
X133507082Y-96981117D01*
X133330589Y-97711589D01*
X133447069Y-98453997D01*
X133507082Y-98598883D01*
X133858892Y-98658604D01*
X133631114Y-98886382D01*
X133729732Y-98985000D01*
X133644092Y-98985000D01*
X132582046Y-97922954D01*
X132351705Y-97769046D01*
X132080000Y-97715000D01*
X125730000Y-97715000D01*
X125458295Y-97769046D01*
X125227954Y-97922954D01*
X125176053Y-97974855D01*
X125150767Y-97847736D01*
X124839698Y-97382189D01*
X124374151Y-97071120D01*
X123825000Y-96961887D01*
X123275849Y-97071120D01*
X122810302Y-97382189D01*
X122555000Y-97764275D01*
X122299698Y-97382189D01*
X121834151Y-97071120D01*
X121285000Y-96961887D01*
X120735849Y-97071120D01*
X120270302Y-97382189D01*
X120015000Y-97764275D01*
X119759698Y-97382189D01*
X119294151Y-97071120D01*
X118745000Y-96961887D01*
X118195849Y-97071120D01*
X117730302Y-97382189D01*
X117475000Y-97764275D01*
X117219698Y-97382189D01*
X116754151Y-97071120D01*
X116205000Y-96961887D01*
X115655849Y-97071120D01*
X115190302Y-97382189D01*
X114879233Y-97847736D01*
X114770000Y-98396887D01*
X114770000Y-98453113D01*
X114788075Y-98543983D01*
X114167046Y-97922954D01*
X113936705Y-97769046D01*
X113665000Y-97715000D01*
X107315000Y-97715000D01*
X107043295Y-97769046D01*
X106812954Y-97922954D01*
X105750908Y-98985000D01*
X98392705Y-98985000D01*
X98604262Y-98773812D01*
X98979562Y-97869989D01*
X98980416Y-96891345D01*
X98606694Y-95986868D01*
X97915292Y-95294258D01*
X97011469Y-94918958D01*
X96032825Y-94918104D01*
X95128348Y-95291826D01*
X94690000Y-95729409D01*
X94690000Y-87157894D01*
X95124708Y-87593362D01*
X96028531Y-87968662D01*
X97007175Y-87969516D01*
X97911652Y-87595794D01*
X98604262Y-86904392D01*
X98878302Y-86244430D01*
X101471990Y-86244430D01*
X101471990Y-87745570D01*
X101516268Y-87980887D01*
X101655340Y-88197011D01*
X101867540Y-88342001D01*
X102064021Y-88381789D01*
X101696056Y-88749113D01*
X101484671Y-89258184D01*
X101484190Y-89809398D01*
X101694686Y-90318837D01*
X102084113Y-90708944D01*
X102315381Y-90804975D01*
X102086163Y-90899686D01*
X101696056Y-91289113D01*
X101484671Y-91798184D01*
X101484190Y-92349398D01*
X101694686Y-92858837D01*
X102084113Y-93248944D01*
X102315381Y-93344975D01*
X102086163Y-93439686D01*
X101696056Y-93829113D01*
X101484671Y-94338184D01*
X101484190Y-94889398D01*
X101694686Y-95398837D01*
X102084113Y-95788944D01*
X102593184Y-96000329D01*
X103144398Y-96000810D01*
X103653837Y-95790314D01*
X104043944Y-95400887D01*
X104255329Y-94891816D01*
X104255810Y-94340602D01*
X104045314Y-93831163D01*
X103655887Y-93441056D01*
X103424619Y-93345025D01*
X103653837Y-93250314D01*
X104043944Y-92860887D01*
X104255329Y-92351816D01*
X104255810Y-91800602D01*
X104045314Y-91291163D01*
X103655887Y-90901056D01*
X103424619Y-90805025D01*
X103653837Y-90710314D01*
X104043944Y-90320887D01*
X104255329Y-89811816D01*
X104255810Y-89260602D01*
X104045314Y-88751163D01*
X103677156Y-88382363D01*
X103855887Y-88348732D01*
X104024451Y-88240264D01*
X104024190Y-88539398D01*
X104234686Y-89048837D01*
X104624113Y-89438944D01*
X104855381Y-89534975D01*
X104626163Y-89629686D01*
X104236056Y-90019113D01*
X104024671Y-90528184D01*
X104024190Y-91079398D01*
X104234686Y-91588837D01*
X104624113Y-91978944D01*
X104855381Y-92074975D01*
X104626163Y-92169686D01*
X104236056Y-92559113D01*
X104024671Y-93068184D01*
X104024190Y-93619398D01*
X104234686Y-94128837D01*
X104624113Y-94518944D01*
X104855381Y-94614975D01*
X104626163Y-94709686D01*
X104236056Y-95099113D01*
X104024671Y-95608184D01*
X104024190Y-96159398D01*
X104234686Y-96668837D01*
X104624113Y-97058944D01*
X105133184Y-97270329D01*
X105684398Y-97270810D01*
X106193837Y-97060314D01*
X106583944Y-96670887D01*
X106698961Y-96393894D01*
X134386396Y-96393894D01*
X135255000Y-97262498D01*
X136123604Y-96393894D01*
X136063883Y-96042082D01*
X135333411Y-95865589D01*
X134591003Y-95982069D01*
X134446117Y-96042082D01*
X134386396Y-96393894D01*
X106698961Y-96393894D01*
X106795329Y-96161816D01*
X106795810Y-95610602D01*
X106585314Y-95101163D01*
X106195887Y-94711056D01*
X105964619Y-94615025D01*
X106010229Y-94596179D01*
X135671433Y-94596179D01*
X135839010Y-95003489D01*
X136367096Y-95531381D01*
X137057000Y-95817000D01*
X138307000Y-95817000D01*
X138307000Y-94313000D01*
X135878970Y-94313000D01*
X135671433Y-94596179D01*
X106010229Y-94596179D01*
X106193837Y-94520314D01*
X106583944Y-94130887D01*
X106795329Y-93621816D01*
X106795810Y-93070602D01*
X106585314Y-92561163D01*
X106195887Y-92171056D01*
X105964619Y-92075025D01*
X106193837Y-91980314D01*
X106583944Y-91590887D01*
X106634489Y-91469159D01*
X114396048Y-91469159D01*
X114787909Y-92110859D01*
X115395509Y-92553754D01*
X115540844Y-92613929D01*
X115832000Y-92407410D01*
X115832000Y-91178000D01*
X114596172Y-91178000D01*
X114396048Y-91469159D01*
X106634489Y-91469159D01*
X106795329Y-91081816D01*
X106795810Y-90530602D01*
X106585314Y-90021163D01*
X106195887Y-89631056D01*
X105964619Y-89535025D01*
X106193837Y-89440314D01*
X106583944Y-89050887D01*
X106795329Y-88541816D01*
X106795647Y-88177373D01*
X114242204Y-88177373D01*
X114358080Y-88935173D01*
X114425146Y-89097086D01*
X114780780Y-89161716D01*
X114553718Y-89388778D01*
X114740961Y-89576021D01*
X114396048Y-90140841D01*
X114596172Y-90432000D01*
X115832000Y-90432000D01*
X115832000Y-90412000D01*
X116578000Y-90412000D01*
X116578000Y-90432000D01*
X116598000Y-90432000D01*
X116598000Y-91178000D01*
X116578000Y-91178000D01*
X116578000Y-92407410D01*
X116869156Y-92613929D01*
X117014491Y-92553754D01*
X117622091Y-92110859D01*
X117767533Y-91872688D01*
X118195849Y-92158880D01*
X118745000Y-92268113D01*
X119294151Y-92158880D01*
X119759698Y-91847811D01*
X120015000Y-91465725D01*
X120270302Y-91847811D01*
X120735849Y-92158880D01*
X121285000Y-92268113D01*
X121834151Y-92158880D01*
X122299698Y-91847811D01*
X122555000Y-91465725D01*
X122810302Y-91847811D01*
X123275849Y-92158880D01*
X123825000Y-92268113D01*
X124374151Y-92158880D01*
X124839698Y-91847811D01*
X125150767Y-91382264D01*
X125260000Y-90833113D01*
X125260000Y-90776887D01*
X125150767Y-90227736D01*
X124839698Y-89762189D01*
X124432706Y-89490245D01*
X124747811Y-89279698D01*
X125058880Y-88814151D01*
X125168113Y-88265000D01*
X125058880Y-87715849D01*
X124747811Y-87250302D01*
X124282264Y-86939233D01*
X123733113Y-86830000D01*
X123676887Y-86830000D01*
X123127736Y-86939233D01*
X122662189Y-87250302D01*
X122351120Y-87715849D01*
X122241887Y-88265000D01*
X122351120Y-88814151D01*
X122662189Y-89279698D01*
X123097294Y-89570427D01*
X122810302Y-89762189D01*
X122555000Y-90144275D01*
X122299698Y-89762189D01*
X121834151Y-89451120D01*
X121285000Y-89341887D01*
X120735849Y-89451120D01*
X120270302Y-89762189D01*
X120015000Y-90144275D01*
X119759698Y-89762189D01*
X119294151Y-89451120D01*
X118745000Y-89341887D01*
X118195849Y-89451120D01*
X117767533Y-89737312D01*
X117669039Y-89576021D01*
X117856282Y-89388778D01*
X117629220Y-89161716D01*
X117984854Y-89097086D01*
X118167796Y-88352627D01*
X118051920Y-87594827D01*
X117984854Y-87432914D01*
X117629218Y-87368284D01*
X116732502Y-88265000D01*
X116746644Y-88279142D01*
X116219142Y-88806644D01*
X116205000Y-88792502D01*
X116190858Y-88806644D01*
X115663356Y-88279142D01*
X115677498Y-88265000D01*
X114780782Y-87368284D01*
X114425146Y-87432914D01*
X114242204Y-88177373D01*
X106795647Y-88177373D01*
X106795810Y-87990602D01*
X106585314Y-87481163D01*
X106195887Y-87091056D01*
X105686816Y-86879671D01*
X105135602Y-86879190D01*
X104626163Y-87089686D01*
X104268010Y-87447215D01*
X104268010Y-86244430D01*
X104223732Y-86009113D01*
X104084660Y-85792989D01*
X103872460Y-85647999D01*
X103620570Y-85596990D01*
X102119430Y-85596990D01*
X101884113Y-85641268D01*
X101667989Y-85780340D01*
X101522999Y-85992540D01*
X101471990Y-86244430D01*
X98878302Y-86244430D01*
X98979562Y-86000569D01*
X98980416Y-85021925D01*
X98606694Y-84117448D01*
X98384634Y-83895000D01*
X105750908Y-83895000D01*
X106812954Y-84957046D01*
X106812954Y-84957046D01*
G37*
X106812954Y-84957046D02*
X107043295Y-85110954D01*
X107315000Y-85165000D01*
X113665000Y-85165000D01*
X113936705Y-85110954D01*
X114167046Y-84957046D01*
X114720023Y-84404069D01*
X114570794Y-84763453D01*
X114570226Y-85413694D01*
X114818538Y-86014655D01*
X115277927Y-86474846D01*
X115367990Y-86512243D01*
X115308284Y-86840782D01*
X116205000Y-87737498D01*
X117101716Y-86840782D01*
X117042084Y-86512646D01*
X117129655Y-86476462D01*
X117589846Y-86017073D01*
X117839206Y-85416547D01*
X117839774Y-84766306D01*
X117591462Y-84165345D01*
X117321588Y-83895000D01*
X122708549Y-83895000D01*
X122440154Y-84162927D01*
X122190794Y-84763453D01*
X122190226Y-85413694D01*
X122438538Y-86014655D01*
X122897927Y-86474846D01*
X123498453Y-86724206D01*
X124148694Y-86724774D01*
X124749655Y-86476462D01*
X125209846Y-86017073D01*
X125459206Y-85416547D01*
X125459473Y-85111188D01*
X125730000Y-85165000D01*
X132080000Y-85165000D01*
X132351705Y-85110954D01*
X132582046Y-84957046D01*
X133644092Y-83895000D01*
X141530000Y-83895000D01*
X141530000Y-92898411D01*
X141520990Y-92876511D01*
X141002088Y-92357800D01*
X141261196Y-91970017D01*
X141366623Y-91440000D01*
X141261196Y-90909983D01*
X140960966Y-90460657D01*
X140555899Y-90190000D01*
X140960966Y-89919343D01*
X141261196Y-89470017D01*
X141366623Y-88940000D01*
X141261196Y-88409983D01*
X140960966Y-87960657D01*
X140511640Y-87660427D01*
X139981623Y-87555000D01*
X137378377Y-87555000D01*
X136848360Y-87660427D01*
X136399034Y-87960657D01*
X136098804Y-88409983D01*
X135993377Y-88940000D01*
X136098804Y-89470017D01*
X136399034Y-89919343D01*
X136804101Y-90190000D01*
X136399034Y-90460657D01*
X136098804Y-90909983D01*
X135993377Y-91440000D01*
X136098804Y-91970017D01*
X136357912Y-92357800D01*
X135839010Y-92876511D01*
X135671433Y-93283821D01*
X135878970Y-93567000D01*
X138307000Y-93567000D01*
X138307000Y-93547000D01*
X139053000Y-93547000D01*
X139053000Y-93567000D01*
X139073000Y-93567000D01*
X139073000Y-94313000D01*
X139053000Y-94313000D01*
X139053000Y-95817000D01*
X140303000Y-95817000D01*
X140992904Y-95531381D01*
X141520990Y-95003489D01*
X141530000Y-94981589D01*
X141530000Y-97023875D01*
X141520010Y-96999697D01*
X141127370Y-96606371D01*
X140614100Y-96393243D01*
X140058339Y-96392758D01*
X139544697Y-96604990D01*
X139151371Y-96997630D01*
X139065051Y-97205512D01*
X138980010Y-96999697D01*
X138587370Y-96606371D01*
X138074100Y-96393243D01*
X137518339Y-96392758D01*
X137004697Y-96604990D01*
X136682414Y-96926711D01*
X136651106Y-96921396D01*
X135782502Y-97790000D01*
X135796644Y-97804142D01*
X135269142Y-98331644D01*
X135255000Y-98317502D01*
X135240858Y-98331644D01*
X134713356Y-97804142D01*
X134727498Y-97790000D01*
X133858894Y-96921396D01*
X133507082Y-96981117D01*
X133330589Y-97711589D01*
X133447069Y-98453997D01*
X133507082Y-98598883D01*
X133858892Y-98658604D01*
X133631114Y-98886382D01*
X133729732Y-98985000D01*
X133644092Y-98985000D01*
X132582046Y-97922954D01*
X132351705Y-97769046D01*
X132080000Y-97715000D01*
X125730000Y-97715000D01*
X125458295Y-97769046D01*
X125227954Y-97922954D01*
X125176053Y-97974855D01*
X125150767Y-97847736D01*
X124839698Y-97382189D01*
X124374151Y-97071120D01*
X123825000Y-96961887D01*
X123275849Y-97071120D01*
X122810302Y-97382189D01*
X122555000Y-97764275D01*
X122299698Y-97382189D01*
X121834151Y-97071120D01*
X121285000Y-96961887D01*
X120735849Y-97071120D01*
X120270302Y-97382189D01*
X120015000Y-97764275D01*
X119759698Y-97382189D01*
X119294151Y-97071120D01*
X118745000Y-96961887D01*
X118195849Y-97071120D01*
X117730302Y-97382189D01*
X117475000Y-97764275D01*
X117219698Y-97382189D01*
X116754151Y-97071120D01*
X116205000Y-96961887D01*
X115655849Y-97071120D01*
X115190302Y-97382189D01*
X114879233Y-97847736D01*
X114770000Y-98396887D01*
X114770000Y-98453113D01*
X114788075Y-98543983D01*
X114167046Y-97922954D01*
X113936705Y-97769046D01*
X113665000Y-97715000D01*
X107315000Y-97715000D01*
X107043295Y-97769046D01*
X106812954Y-97922954D01*
X105750908Y-98985000D01*
X98392705Y-98985000D01*
X98604262Y-98773812D01*
X98979562Y-97869989D01*
X98980416Y-96891345D01*
X98606694Y-95986868D01*
X97915292Y-95294258D01*
X97011469Y-94918958D01*
X96032825Y-94918104D01*
X95128348Y-95291826D01*
X94690000Y-95729409D01*
X94690000Y-87157894D01*
X95124708Y-87593362D01*
X96028531Y-87968662D01*
X97007175Y-87969516D01*
X97911652Y-87595794D01*
X98604262Y-86904392D01*
X98878302Y-86244430D01*
X101471990Y-86244430D01*
X101471990Y-87745570D01*
X101516268Y-87980887D01*
X101655340Y-88197011D01*
X101867540Y-88342001D01*
X102064021Y-88381789D01*
X101696056Y-88749113D01*
X101484671Y-89258184D01*
X101484190Y-89809398D01*
X101694686Y-90318837D01*
X102084113Y-90708944D01*
X102315381Y-90804975D01*
X102086163Y-90899686D01*
X101696056Y-91289113D01*
X101484671Y-91798184D01*
X101484190Y-92349398D01*
X101694686Y-92858837D01*
X102084113Y-93248944D01*
X102315381Y-93344975D01*
X102086163Y-93439686D01*
X101696056Y-93829113D01*
X101484671Y-94338184D01*
X101484190Y-94889398D01*
X101694686Y-95398837D01*
X102084113Y-95788944D01*
X102593184Y-96000329D01*
X103144398Y-96000810D01*
X103653837Y-95790314D01*
X104043944Y-95400887D01*
X104255329Y-94891816D01*
X104255810Y-94340602D01*
X104045314Y-93831163D01*
X103655887Y-93441056D01*
X103424619Y-93345025D01*
X103653837Y-93250314D01*
X104043944Y-92860887D01*
X104255329Y-92351816D01*
X104255810Y-91800602D01*
X104045314Y-91291163D01*
X103655887Y-90901056D01*
X103424619Y-90805025D01*
X103653837Y-90710314D01*
X104043944Y-90320887D01*
X104255329Y-89811816D01*
X104255810Y-89260602D01*
X104045314Y-88751163D01*
X103677156Y-88382363D01*
X103855887Y-88348732D01*
X104024451Y-88240264D01*
X104024190Y-88539398D01*
X104234686Y-89048837D01*
X104624113Y-89438944D01*
X104855381Y-89534975D01*
X104626163Y-89629686D01*
X104236056Y-90019113D01*
X104024671Y-90528184D01*
X104024190Y-91079398D01*
X104234686Y-91588837D01*
X104624113Y-91978944D01*
X104855381Y-92074975D01*
X104626163Y-92169686D01*
X104236056Y-92559113D01*
X104024671Y-93068184D01*
X104024190Y-93619398D01*
X104234686Y-94128837D01*
X104624113Y-94518944D01*
X104855381Y-94614975D01*
X104626163Y-94709686D01*
X104236056Y-95099113D01*
X104024671Y-95608184D01*
X104024190Y-96159398D01*
X104234686Y-96668837D01*
X104624113Y-97058944D01*
X105133184Y-97270329D01*
X105684398Y-97270810D01*
X106193837Y-97060314D01*
X106583944Y-96670887D01*
X106698961Y-96393894D01*
X134386396Y-96393894D01*
X135255000Y-97262498D01*
X136123604Y-96393894D01*
X136063883Y-96042082D01*
X135333411Y-95865589D01*
X134591003Y-95982069D01*
X134446117Y-96042082D01*
X134386396Y-96393894D01*
X106698961Y-96393894D01*
X106795329Y-96161816D01*
X106795810Y-95610602D01*
X106585314Y-95101163D01*
X106195887Y-94711056D01*
X105964619Y-94615025D01*
X106010229Y-94596179D01*
X135671433Y-94596179D01*
X135839010Y-95003489D01*
X136367096Y-95531381D01*
X137057000Y-95817000D01*
X138307000Y-95817000D01*
X138307000Y-94313000D01*
X135878970Y-94313000D01*
X135671433Y-94596179D01*
X106010229Y-94596179D01*
X106193837Y-94520314D01*
X106583944Y-94130887D01*
X106795329Y-93621816D01*
X106795810Y-93070602D01*
X106585314Y-92561163D01*
X106195887Y-92171056D01*
X105964619Y-92075025D01*
X106193837Y-91980314D01*
X106583944Y-91590887D01*
X106634489Y-91469159D01*
X114396048Y-91469159D01*
X114787909Y-92110859D01*
X115395509Y-92553754D01*
X115540844Y-92613929D01*
X115832000Y-92407410D01*
X115832000Y-91178000D01*
X114596172Y-91178000D01*
X114396048Y-91469159D01*
X106634489Y-91469159D01*
X106795329Y-91081816D01*
X106795810Y-90530602D01*
X106585314Y-90021163D01*
X106195887Y-89631056D01*
X105964619Y-89535025D01*
X106193837Y-89440314D01*
X106583944Y-89050887D01*
X106795329Y-88541816D01*
X106795647Y-88177373D01*
X114242204Y-88177373D01*
X114358080Y-88935173D01*
X114425146Y-89097086D01*
X114780780Y-89161716D01*
X114553718Y-89388778D01*
X114740961Y-89576021D01*
X114396048Y-90140841D01*
X114596172Y-90432000D01*
X115832000Y-90432000D01*
X115832000Y-90412000D01*
X116578000Y-90412000D01*
X116578000Y-90432000D01*
X116598000Y-90432000D01*
X116598000Y-91178000D01*
X116578000Y-91178000D01*
X116578000Y-92407410D01*
X116869156Y-92613929D01*
X117014491Y-92553754D01*
X117622091Y-92110859D01*
X117767533Y-91872688D01*
X118195849Y-92158880D01*
X118745000Y-92268113D01*
X119294151Y-92158880D01*
X119759698Y-91847811D01*
X120015000Y-91465725D01*
X120270302Y-91847811D01*
X120735849Y-92158880D01*
X121285000Y-92268113D01*
X121834151Y-92158880D01*
X122299698Y-91847811D01*
X122555000Y-91465725D01*
X122810302Y-91847811D01*
X123275849Y-92158880D01*
X123825000Y-92268113D01*
X124374151Y-92158880D01*
X124839698Y-91847811D01*
X125150767Y-91382264D01*
X125260000Y-90833113D01*
X125260000Y-90776887D01*
X125150767Y-90227736D01*
X124839698Y-89762189D01*
X124432706Y-89490245D01*
X124747811Y-89279698D01*
X125058880Y-88814151D01*
X125168113Y-88265000D01*
X125058880Y-87715849D01*
X124747811Y-87250302D01*
X124282264Y-86939233D01*
X123733113Y-86830000D01*
X123676887Y-86830000D01*
X123127736Y-86939233D01*
X122662189Y-87250302D01*
X122351120Y-87715849D01*
X122241887Y-88265000D01*
X122351120Y-88814151D01*
X122662189Y-89279698D01*
X123097294Y-89570427D01*
X122810302Y-89762189D01*
X122555000Y-90144275D01*
X122299698Y-89762189D01*
X121834151Y-89451120D01*
X121285000Y-89341887D01*
X120735849Y-89451120D01*
X120270302Y-89762189D01*
X120015000Y-90144275D01*
X119759698Y-89762189D01*
X119294151Y-89451120D01*
X118745000Y-89341887D01*
X118195849Y-89451120D01*
X117767533Y-89737312D01*
X117669039Y-89576021D01*
X117856282Y-89388778D01*
X117629220Y-89161716D01*
X117984854Y-89097086D01*
X118167796Y-88352627D01*
X118051920Y-87594827D01*
X117984854Y-87432914D01*
X117629218Y-87368284D01*
X116732502Y-88265000D01*
X116746644Y-88279142D01*
X116219142Y-88806644D01*
X116205000Y-88792502D01*
X116190858Y-88806644D01*
X115663356Y-88279142D01*
X115677498Y-88265000D01*
X114780782Y-87368284D01*
X114425146Y-87432914D01*
X114242204Y-88177373D01*
X106795647Y-88177373D01*
X106795810Y-87990602D01*
X106585314Y-87481163D01*
X106195887Y-87091056D01*
X105686816Y-86879671D01*
X105135602Y-86879190D01*
X104626163Y-87089686D01*
X104268010Y-87447215D01*
X104268010Y-86244430D01*
X104223732Y-86009113D01*
X104084660Y-85792989D01*
X103872460Y-85647999D01*
X103620570Y-85596990D01*
X102119430Y-85596990D01*
X101884113Y-85641268D01*
X101667989Y-85780340D01*
X101522999Y-85992540D01*
X101471990Y-86244430D01*
X98878302Y-86244430D01*
X98979562Y-86000569D01*
X98980416Y-85021925D01*
X98606694Y-84117448D01*
X98384634Y-83895000D01*
X105750908Y-83895000D01*
X106812954Y-84957046D01*
M02*
