M48
INCH,TZ
T1C0.016
T2C0.030
T3C0.031
T4C0.035
T5C0.039
%
G90
G05
T1
X4.6555Y-3.8484
X5.315Y-3.4646
T2
X3.7795Y-3.9567
X3.7795Y-4.0551
X3.9764Y-3.9567
X3.9764Y-4.0551
X4.152Y-3.9961
X4.252Y-3.9961
X4.352Y-3.9961
T3
X4.5079Y-3.4646
X4.5079Y-3.5646
X4.5079Y-3.6646
X4.5079Y-3.7646
X4.8079Y-3.4646
X4.8079Y-3.5646
X4.8079Y-3.6646
X4.8079Y-3.7646
T4
X4.2657Y-3.4077
X4.2657Y-3.5077
X4.2657Y-3.6077
X4.2657Y-3.7077
X4.3657Y-3.4577
X4.3657Y-3.5577
X4.3657Y-3.6577
X4.3657Y-3.7577
T5
X4.5079Y-3.937
X4.8079Y-3.937
X4.9213Y-3.4646
X4.9213Y-3.7646
T0
M30
