M48
INCH,TZ
T1C0.030
T2C0.031
T3C0.035
T4C0.039
T5C0.039
%
G90
G05
T1
X5.325Y-3.85
X5.425Y-3.85
X5.525Y-3.85
T2
X4.575Y-3.475
X4.575Y-3.575
X4.575Y-3.875
X4.675Y-3.575
X4.675Y-3.875
X4.775Y-3.575
X4.775Y-3.875
X4.8703Y-3.475
X4.875Y-3.575
X4.875Y-3.875
T3
X4.05Y-3.425
X4.05Y-3.525
X4.05Y-3.625
X4.05Y-3.725
X4.15Y-3.475
X4.15Y-3.575
X4.15Y-3.675
X4.15Y-3.775
T4
X5.25Y-3.5
T5
X4.575Y-3.35
X4.875Y-3.35
T0
M30
