G04 #@! TF.FileFunction,Profile,NP*
%FSLAX46Y46*%
G04 Gerber Fmt 4.6, Leading zero omitted, Abs format (unit mm)*
G04 Created by KiCad (PCBNEW 4.0.6) date Mon May  1 22:36:10 2017*
%MOMM*%
%LPD*%
G01*
G04 APERTURE LIST*
%ADD10C,0.100000*%
%ADD11C,0.150000*%
G04 APERTURE END LIST*
D10*
D11*
X142240000Y-99695000D02*
X142240000Y-83185000D01*
X133350000Y-99695000D02*
X142240000Y-99695000D01*
X132080000Y-98425000D02*
X133350000Y-99695000D01*
X125730000Y-98425000D02*
X132080000Y-98425000D01*
X124460000Y-99695000D02*
X125730000Y-98425000D01*
X114935000Y-99695000D02*
X124460000Y-99695000D01*
X113665000Y-98425000D02*
X114935000Y-99695000D01*
X107315000Y-98425000D02*
X113665000Y-98425000D01*
X106045000Y-99695000D02*
X107315000Y-98425000D01*
X93980000Y-99695000D02*
X106045000Y-99695000D01*
X93980000Y-83185000D02*
X93980000Y-99695000D01*
X140335000Y-83185000D02*
X142240000Y-83185000D01*
X133350000Y-83185000D02*
X140335000Y-83185000D01*
X132080000Y-84455000D02*
X133350000Y-83185000D01*
X125730000Y-84455000D02*
X132080000Y-84455000D01*
X124460000Y-83185000D02*
X125730000Y-84455000D01*
X114935000Y-83185000D02*
X124460000Y-83185000D01*
X113665000Y-84455000D02*
X114935000Y-83185000D01*
X107315000Y-84455000D02*
X113665000Y-84455000D01*
X106045000Y-83185000D02*
X107315000Y-84455000D01*
X93980000Y-83185000D02*
X106045000Y-83185000D01*
M02*
