G04 #@! TF.FileFunction,Copper,L2,Bot,Signal*
%FSLAX46Y46*%
G04 Gerber Fmt 4.6, Leading zero omitted, Abs format (unit mm)*
G04 Created by KiCad (PCBNEW 4.0.6) date Tue May 23 23:01:42 2017*
%MOMM*%
%LPD*%
G01*
G04 APERTURE LIST*
%ADD10C,0.100000*%
%ADD11C,3.500000*%
%ADD12O,1.600000X1.600000*%
%ADD13C,3.649980*%
%ADD14R,1.501140X1.501140*%
%ADD15C,1.501140*%
%ADD16C,1.998980*%
%ADD17C,1.524000*%
%ADD18C,1.600000*%
%ADD19C,1.778000*%
%ADD20C,2.286000*%
%ADD21C,0.400000*%
%ADD22C,0.254000*%
G04 APERTURE END LIST*
D10*
D11*
X60750000Y-142926000D03*
D12*
X42164000Y-140970000D03*
X44704000Y-140970000D03*
X47244000Y-140970000D03*
X49784000Y-140970000D03*
X49784000Y-133350000D03*
X47244000Y-133350000D03*
X44704000Y-133350000D03*
X42164000Y-133350000D03*
D13*
X29210000Y-143098520D03*
X29210000Y-131229100D03*
D14*
X35560000Y-132715000D03*
D15*
X38100000Y-133985000D03*
X35560000Y-135255000D03*
X38100000Y-136525000D03*
X35560000Y-137795000D03*
X38100000Y-139065000D03*
X35560000Y-140335000D03*
X38100000Y-141605000D03*
D16*
X40894000Y-143764000D03*
X48514000Y-143764000D03*
D17*
X51054000Y-130556000D03*
X53594000Y-130556000D03*
X56134000Y-130556000D03*
D18*
X40894000Y-130556000D03*
D12*
X48394000Y-130556000D03*
D19*
X58896000Y-134366000D03*
X58896000Y-136906000D03*
X58896000Y-139446000D03*
D20*
X61706000Y-134366000D03*
X61706000Y-136906000D03*
X61706000Y-139446000D03*
D11*
X60750000Y-130950000D03*
D21*
X47244000Y-133350000D02*
X47244000Y-133604000D01*
X47244000Y-133604000D02*
X45974000Y-134874000D01*
X38989000Y-132715000D02*
X35560000Y-132715000D01*
X41148000Y-134874000D02*
X38989000Y-132715000D01*
X45974000Y-134874000D02*
X41148000Y-134874000D01*
X48514000Y-143764000D02*
X48514000Y-135636000D01*
X47244000Y-134366000D02*
X47244000Y-133350000D01*
X48514000Y-135636000D02*
X47244000Y-134366000D01*
X40894000Y-143764000D02*
X40894000Y-142240000D01*
X39878000Y-135763000D02*
X38100000Y-133985000D01*
X39878000Y-141224000D02*
X39878000Y-135763000D01*
X40894000Y-142240000D02*
X39878000Y-141224000D01*
D22*
G36*
X62790000Y-129641711D02*
X62773084Y-129600771D01*
X62102758Y-128929274D01*
X61226487Y-128565415D01*
X60277675Y-128564587D01*
X59400771Y-128926916D01*
X58729274Y-129597242D01*
X58365415Y-130473513D01*
X58364587Y-131422325D01*
X58726916Y-132299229D01*
X58774301Y-132346697D01*
X58211381Y-132427866D01*
X58009632Y-132511433D01*
X57933568Y-132876067D01*
X58896000Y-133838498D01*
X58910142Y-133824356D01*
X59437644Y-134351858D01*
X59423502Y-134366000D01*
X59437644Y-134380142D01*
X58910142Y-134907644D01*
X58896000Y-134893502D01*
X58276499Y-135513002D01*
X58033851Y-135613262D01*
X57604769Y-136041596D01*
X57372265Y-136601528D01*
X57371736Y-137207812D01*
X57603262Y-137768149D01*
X58010737Y-138176336D01*
X57604769Y-138581596D01*
X57372265Y-139141528D01*
X57371736Y-139747812D01*
X57603262Y-140308149D01*
X58031596Y-140737231D01*
X58591528Y-140969735D01*
X59197812Y-140970264D01*
X59758149Y-140738738D01*
X60153343Y-140344232D01*
X60197806Y-140451840D01*
X60286406Y-140540595D01*
X60277675Y-140540587D01*
X59400771Y-140902916D01*
X58729274Y-141573242D01*
X58365415Y-142449513D01*
X58364587Y-143398325D01*
X58726916Y-144275229D01*
X59397242Y-144946726D01*
X60273513Y-145310585D01*
X61222325Y-145311413D01*
X62099229Y-144949084D01*
X62770726Y-144278758D01*
X62790000Y-144232341D01*
X62790000Y-146165500D01*
X26110000Y-146165500D01*
X26110000Y-143585695D01*
X26749584Y-143585695D01*
X27123306Y-144490172D01*
X27814708Y-145182782D01*
X28718531Y-145558082D01*
X29697175Y-145558936D01*
X30601652Y-145185214D01*
X31294262Y-144493812D01*
X31669562Y-143589989D01*
X31670083Y-142992643D01*
X37239859Y-142992643D01*
X37298100Y-143343306D01*
X38024362Y-143517860D01*
X38762140Y-143401198D01*
X38901900Y-143343306D01*
X38960141Y-142992643D01*
X38100000Y-142132502D01*
X37239859Y-142992643D01*
X31670083Y-142992643D01*
X31670416Y-142611345D01*
X31296694Y-141706868D01*
X30605292Y-141014258D01*
X29701469Y-140638958D01*
X28722825Y-140638104D01*
X27818348Y-141011826D01*
X27125738Y-141703228D01*
X26750438Y-142607051D01*
X26749584Y-143585695D01*
X26110000Y-143585695D01*
X26110000Y-140259362D01*
X33647140Y-140259362D01*
X33763802Y-140997140D01*
X33821694Y-141136900D01*
X34172357Y-141195141D01*
X35032498Y-140335000D01*
X34172357Y-139474859D01*
X33821694Y-139533100D01*
X33647140Y-140259362D01*
X26110000Y-140259362D01*
X26110000Y-131716275D01*
X26749584Y-131716275D01*
X27123306Y-132620752D01*
X27814708Y-133313362D01*
X28718531Y-133688662D01*
X29697175Y-133689516D01*
X30601652Y-133315794D01*
X31294262Y-132624392D01*
X31568302Y-131964430D01*
X34161990Y-131964430D01*
X34161990Y-133465570D01*
X34206268Y-133700887D01*
X34345340Y-133917011D01*
X34557540Y-134062001D01*
X34754021Y-134101789D01*
X34386056Y-134469113D01*
X34174671Y-134978184D01*
X34174190Y-135529398D01*
X34384686Y-136038837D01*
X34774113Y-136428944D01*
X35005381Y-136524975D01*
X34776163Y-136619686D01*
X34386056Y-137009113D01*
X34174671Y-137518184D01*
X34174190Y-138069398D01*
X34384686Y-138578837D01*
X34707377Y-138902092D01*
X34699859Y-138947357D01*
X35560000Y-139807498D01*
X35574142Y-139793356D01*
X36101644Y-140320858D01*
X36087502Y-140335000D01*
X36101644Y-140349142D01*
X35574142Y-140876644D01*
X35560000Y-140862502D01*
X34699859Y-141722643D01*
X34758100Y-142073306D01*
X35484362Y-142247860D01*
X36222140Y-142131198D01*
X36278607Y-142107808D01*
X36303802Y-142267140D01*
X36361694Y-142406900D01*
X36712357Y-142465141D01*
X37572498Y-141605000D01*
X37558356Y-141590858D01*
X38085858Y-141063356D01*
X38100000Y-141077498D01*
X38114142Y-141063356D01*
X38641644Y-141590858D01*
X38627502Y-141605000D01*
X39487643Y-142465141D01*
X39838306Y-142406900D01*
X39846391Y-142373259D01*
X39909956Y-142436824D01*
X39509154Y-142836927D01*
X39259794Y-143437453D01*
X39259226Y-144087694D01*
X39507538Y-144688655D01*
X39966927Y-145148846D01*
X40567453Y-145398206D01*
X41217694Y-145398774D01*
X41818655Y-145150462D01*
X42278846Y-144691073D01*
X42528206Y-144090547D01*
X42528774Y-143440306D01*
X42280462Y-142839345D01*
X41821073Y-142379154D01*
X41755183Y-142351794D01*
X42164000Y-142433113D01*
X42713151Y-142323880D01*
X43178698Y-142012811D01*
X43434000Y-141630725D01*
X43689302Y-142012811D01*
X44154849Y-142323880D01*
X44704000Y-142433113D01*
X45253151Y-142323880D01*
X45718698Y-142012811D01*
X45974000Y-141630725D01*
X46229302Y-142012811D01*
X46694849Y-142323880D01*
X47244000Y-142433113D01*
X47650566Y-142352242D01*
X47589345Y-142377538D01*
X47129154Y-142836927D01*
X46879794Y-143437453D01*
X46879226Y-144087694D01*
X47127538Y-144688655D01*
X47586927Y-145148846D01*
X48187453Y-145398206D01*
X48837694Y-145398774D01*
X49438655Y-145150462D01*
X49898846Y-144691073D01*
X50148206Y-144090547D01*
X50148774Y-143440306D01*
X49900462Y-142839345D01*
X49441073Y-142379154D01*
X49375183Y-142351794D01*
X49784000Y-142433113D01*
X50333151Y-142323880D01*
X50798698Y-142012811D01*
X51109767Y-141547264D01*
X51219000Y-140998113D01*
X51219000Y-140941887D01*
X51109767Y-140392736D01*
X50798698Y-139927189D01*
X50333151Y-139616120D01*
X49784000Y-139506887D01*
X49349000Y-139593414D01*
X49349000Y-135636000D01*
X49285439Y-135316459D01*
X49160780Y-135129893D01*
X49411000Y-134952410D01*
X49411000Y-133723000D01*
X50157000Y-133723000D01*
X50157000Y-134952410D01*
X50448156Y-135158929D01*
X50593491Y-135098754D01*
X51201091Y-134655859D01*
X51444772Y-134256814D01*
X56843405Y-134256814D01*
X56957866Y-135050619D01*
X57041433Y-135252368D01*
X57406067Y-135328432D01*
X58368498Y-134366000D01*
X57406067Y-133403568D01*
X57041433Y-133479632D01*
X56843405Y-134256814D01*
X51444772Y-134256814D01*
X51592952Y-134014159D01*
X51392828Y-133723000D01*
X50157000Y-133723000D01*
X49411000Y-133723000D01*
X49391000Y-133723000D01*
X49391000Y-132977000D01*
X49411000Y-132977000D01*
X49411000Y-132957000D01*
X50157000Y-132957000D01*
X50157000Y-132977000D01*
X51392828Y-132977000D01*
X51592952Y-132685841D01*
X51201091Y-132044141D01*
X51076083Y-131953020D01*
X51330661Y-131953242D01*
X51844303Y-131741010D01*
X52237629Y-131348370D01*
X52323949Y-131140488D01*
X52408990Y-131346303D01*
X52801630Y-131739629D01*
X53314900Y-131952757D01*
X53870661Y-131953242D01*
X53873410Y-131952106D01*
X55265396Y-131952106D01*
X55325117Y-132303918D01*
X56055589Y-132480411D01*
X56797997Y-132363931D01*
X56942883Y-132303918D01*
X57002604Y-131952106D01*
X56134000Y-131083502D01*
X55265396Y-131952106D01*
X53873410Y-131952106D01*
X54384303Y-131741010D01*
X54706586Y-131419289D01*
X54737894Y-131424604D01*
X55606498Y-130556000D01*
X56661502Y-130556000D01*
X57530106Y-131424604D01*
X57881918Y-131364883D01*
X58058411Y-130634411D01*
X57941931Y-129892003D01*
X57881918Y-129747117D01*
X57530106Y-129687396D01*
X56661502Y-130556000D01*
X55606498Y-130556000D01*
X54737894Y-129687396D01*
X54706214Y-129692774D01*
X54386370Y-129372371D01*
X53874668Y-129159894D01*
X55265396Y-129159894D01*
X56134000Y-130028498D01*
X57002604Y-129159894D01*
X56942883Y-128808082D01*
X56212411Y-128631589D01*
X55470003Y-128748069D01*
X55325117Y-128808082D01*
X55265396Y-129159894D01*
X53874668Y-129159894D01*
X53873100Y-129159243D01*
X53317339Y-129158758D01*
X52803697Y-129370990D01*
X52410371Y-129763630D01*
X52324051Y-129971512D01*
X52239010Y-129765697D01*
X51846370Y-129372371D01*
X51333100Y-129159243D01*
X50777339Y-129158758D01*
X50263697Y-129370990D01*
X50035255Y-129599033D01*
X49699859Y-129138909D01*
X49058159Y-128747048D01*
X48767000Y-128947172D01*
X48767000Y-130183000D01*
X48787000Y-130183000D01*
X48787000Y-130929000D01*
X48767000Y-130929000D01*
X48767000Y-130949000D01*
X48021000Y-130949000D01*
X48021000Y-130929000D01*
X46791590Y-130929000D01*
X46585071Y-131220156D01*
X46645246Y-131365491D01*
X47052998Y-131924880D01*
X46694849Y-131996120D01*
X46229302Y-132307189D01*
X45974000Y-132689275D01*
X45718698Y-132307189D01*
X45253151Y-131996120D01*
X44704000Y-131886887D01*
X44154849Y-131996120D01*
X43689302Y-132307189D01*
X43434000Y-132689275D01*
X43178698Y-132307189D01*
X42713151Y-131996120D01*
X42164000Y-131886887D01*
X41614849Y-131996120D01*
X41149302Y-132307189D01*
X40838233Y-132772736D01*
X40736923Y-133282055D01*
X39579434Y-132124566D01*
X39308541Y-131943561D01*
X38989000Y-131880000D01*
X36942123Y-131880000D01*
X36913732Y-131729113D01*
X36774660Y-131512989D01*
X36562460Y-131367999D01*
X36310570Y-131316990D01*
X34809430Y-131316990D01*
X34574113Y-131361268D01*
X34357989Y-131500340D01*
X34212999Y-131712540D01*
X34161990Y-131964430D01*
X31568302Y-131964430D01*
X31669562Y-131720569D01*
X31670330Y-130840187D01*
X39458752Y-130840187D01*
X39676757Y-131367800D01*
X40080077Y-131771824D01*
X40607309Y-131990750D01*
X41178187Y-131991248D01*
X41705800Y-131773243D01*
X42109824Y-131369923D01*
X42328750Y-130842691D01*
X42329248Y-130271813D01*
X42172249Y-129891844D01*
X46585071Y-129891844D01*
X46791590Y-130183000D01*
X48021000Y-130183000D01*
X48021000Y-128947172D01*
X47729841Y-128747048D01*
X47088141Y-129138909D01*
X46645246Y-129746509D01*
X46585071Y-129891844D01*
X42172249Y-129891844D01*
X42111243Y-129744200D01*
X41707923Y-129340176D01*
X41180691Y-129121250D01*
X40609813Y-129120752D01*
X40082200Y-129338757D01*
X39678176Y-129742077D01*
X39459250Y-130269309D01*
X39458752Y-130840187D01*
X31670330Y-130840187D01*
X31670416Y-130741925D01*
X31296694Y-129837448D01*
X30605292Y-129144838D01*
X29701469Y-128769538D01*
X28722825Y-128768684D01*
X27818348Y-129142406D01*
X27125738Y-129833808D01*
X26750438Y-130737631D01*
X26749584Y-131716275D01*
X26110000Y-131716275D01*
X26110000Y-127710000D01*
X62790000Y-127710000D01*
X62790000Y-129641711D01*
X62790000Y-129641711D01*
G37*
X62790000Y-129641711D02*
X62773084Y-129600771D01*
X62102758Y-128929274D01*
X61226487Y-128565415D01*
X60277675Y-128564587D01*
X59400771Y-128926916D01*
X58729274Y-129597242D01*
X58365415Y-130473513D01*
X58364587Y-131422325D01*
X58726916Y-132299229D01*
X58774301Y-132346697D01*
X58211381Y-132427866D01*
X58009632Y-132511433D01*
X57933568Y-132876067D01*
X58896000Y-133838498D01*
X58910142Y-133824356D01*
X59437644Y-134351858D01*
X59423502Y-134366000D01*
X59437644Y-134380142D01*
X58910142Y-134907644D01*
X58896000Y-134893502D01*
X58276499Y-135513002D01*
X58033851Y-135613262D01*
X57604769Y-136041596D01*
X57372265Y-136601528D01*
X57371736Y-137207812D01*
X57603262Y-137768149D01*
X58010737Y-138176336D01*
X57604769Y-138581596D01*
X57372265Y-139141528D01*
X57371736Y-139747812D01*
X57603262Y-140308149D01*
X58031596Y-140737231D01*
X58591528Y-140969735D01*
X59197812Y-140970264D01*
X59758149Y-140738738D01*
X60153343Y-140344232D01*
X60197806Y-140451840D01*
X60286406Y-140540595D01*
X60277675Y-140540587D01*
X59400771Y-140902916D01*
X58729274Y-141573242D01*
X58365415Y-142449513D01*
X58364587Y-143398325D01*
X58726916Y-144275229D01*
X59397242Y-144946726D01*
X60273513Y-145310585D01*
X61222325Y-145311413D01*
X62099229Y-144949084D01*
X62770726Y-144278758D01*
X62790000Y-144232341D01*
X62790000Y-146165500D01*
X26110000Y-146165500D01*
X26110000Y-143585695D01*
X26749584Y-143585695D01*
X27123306Y-144490172D01*
X27814708Y-145182782D01*
X28718531Y-145558082D01*
X29697175Y-145558936D01*
X30601652Y-145185214D01*
X31294262Y-144493812D01*
X31669562Y-143589989D01*
X31670083Y-142992643D01*
X37239859Y-142992643D01*
X37298100Y-143343306D01*
X38024362Y-143517860D01*
X38762140Y-143401198D01*
X38901900Y-143343306D01*
X38960141Y-142992643D01*
X38100000Y-142132502D01*
X37239859Y-142992643D01*
X31670083Y-142992643D01*
X31670416Y-142611345D01*
X31296694Y-141706868D01*
X30605292Y-141014258D01*
X29701469Y-140638958D01*
X28722825Y-140638104D01*
X27818348Y-141011826D01*
X27125738Y-141703228D01*
X26750438Y-142607051D01*
X26749584Y-143585695D01*
X26110000Y-143585695D01*
X26110000Y-140259362D01*
X33647140Y-140259362D01*
X33763802Y-140997140D01*
X33821694Y-141136900D01*
X34172357Y-141195141D01*
X35032498Y-140335000D01*
X34172357Y-139474859D01*
X33821694Y-139533100D01*
X33647140Y-140259362D01*
X26110000Y-140259362D01*
X26110000Y-131716275D01*
X26749584Y-131716275D01*
X27123306Y-132620752D01*
X27814708Y-133313362D01*
X28718531Y-133688662D01*
X29697175Y-133689516D01*
X30601652Y-133315794D01*
X31294262Y-132624392D01*
X31568302Y-131964430D01*
X34161990Y-131964430D01*
X34161990Y-133465570D01*
X34206268Y-133700887D01*
X34345340Y-133917011D01*
X34557540Y-134062001D01*
X34754021Y-134101789D01*
X34386056Y-134469113D01*
X34174671Y-134978184D01*
X34174190Y-135529398D01*
X34384686Y-136038837D01*
X34774113Y-136428944D01*
X35005381Y-136524975D01*
X34776163Y-136619686D01*
X34386056Y-137009113D01*
X34174671Y-137518184D01*
X34174190Y-138069398D01*
X34384686Y-138578837D01*
X34707377Y-138902092D01*
X34699859Y-138947357D01*
X35560000Y-139807498D01*
X35574142Y-139793356D01*
X36101644Y-140320858D01*
X36087502Y-140335000D01*
X36101644Y-140349142D01*
X35574142Y-140876644D01*
X35560000Y-140862502D01*
X34699859Y-141722643D01*
X34758100Y-142073306D01*
X35484362Y-142247860D01*
X36222140Y-142131198D01*
X36278607Y-142107808D01*
X36303802Y-142267140D01*
X36361694Y-142406900D01*
X36712357Y-142465141D01*
X37572498Y-141605000D01*
X37558356Y-141590858D01*
X38085858Y-141063356D01*
X38100000Y-141077498D01*
X38114142Y-141063356D01*
X38641644Y-141590858D01*
X38627502Y-141605000D01*
X39487643Y-142465141D01*
X39838306Y-142406900D01*
X39846391Y-142373259D01*
X39909956Y-142436824D01*
X39509154Y-142836927D01*
X39259794Y-143437453D01*
X39259226Y-144087694D01*
X39507538Y-144688655D01*
X39966927Y-145148846D01*
X40567453Y-145398206D01*
X41217694Y-145398774D01*
X41818655Y-145150462D01*
X42278846Y-144691073D01*
X42528206Y-144090547D01*
X42528774Y-143440306D01*
X42280462Y-142839345D01*
X41821073Y-142379154D01*
X41755183Y-142351794D01*
X42164000Y-142433113D01*
X42713151Y-142323880D01*
X43178698Y-142012811D01*
X43434000Y-141630725D01*
X43689302Y-142012811D01*
X44154849Y-142323880D01*
X44704000Y-142433113D01*
X45253151Y-142323880D01*
X45718698Y-142012811D01*
X45974000Y-141630725D01*
X46229302Y-142012811D01*
X46694849Y-142323880D01*
X47244000Y-142433113D01*
X47650566Y-142352242D01*
X47589345Y-142377538D01*
X47129154Y-142836927D01*
X46879794Y-143437453D01*
X46879226Y-144087694D01*
X47127538Y-144688655D01*
X47586927Y-145148846D01*
X48187453Y-145398206D01*
X48837694Y-145398774D01*
X49438655Y-145150462D01*
X49898846Y-144691073D01*
X50148206Y-144090547D01*
X50148774Y-143440306D01*
X49900462Y-142839345D01*
X49441073Y-142379154D01*
X49375183Y-142351794D01*
X49784000Y-142433113D01*
X50333151Y-142323880D01*
X50798698Y-142012811D01*
X51109767Y-141547264D01*
X51219000Y-140998113D01*
X51219000Y-140941887D01*
X51109767Y-140392736D01*
X50798698Y-139927189D01*
X50333151Y-139616120D01*
X49784000Y-139506887D01*
X49349000Y-139593414D01*
X49349000Y-135636000D01*
X49285439Y-135316459D01*
X49160780Y-135129893D01*
X49411000Y-134952410D01*
X49411000Y-133723000D01*
X50157000Y-133723000D01*
X50157000Y-134952410D01*
X50448156Y-135158929D01*
X50593491Y-135098754D01*
X51201091Y-134655859D01*
X51444772Y-134256814D01*
X56843405Y-134256814D01*
X56957866Y-135050619D01*
X57041433Y-135252368D01*
X57406067Y-135328432D01*
X58368498Y-134366000D01*
X57406067Y-133403568D01*
X57041433Y-133479632D01*
X56843405Y-134256814D01*
X51444772Y-134256814D01*
X51592952Y-134014159D01*
X51392828Y-133723000D01*
X50157000Y-133723000D01*
X49411000Y-133723000D01*
X49391000Y-133723000D01*
X49391000Y-132977000D01*
X49411000Y-132977000D01*
X49411000Y-132957000D01*
X50157000Y-132957000D01*
X50157000Y-132977000D01*
X51392828Y-132977000D01*
X51592952Y-132685841D01*
X51201091Y-132044141D01*
X51076083Y-131953020D01*
X51330661Y-131953242D01*
X51844303Y-131741010D01*
X52237629Y-131348370D01*
X52323949Y-131140488D01*
X52408990Y-131346303D01*
X52801630Y-131739629D01*
X53314900Y-131952757D01*
X53870661Y-131953242D01*
X53873410Y-131952106D01*
X55265396Y-131952106D01*
X55325117Y-132303918D01*
X56055589Y-132480411D01*
X56797997Y-132363931D01*
X56942883Y-132303918D01*
X57002604Y-131952106D01*
X56134000Y-131083502D01*
X55265396Y-131952106D01*
X53873410Y-131952106D01*
X54384303Y-131741010D01*
X54706586Y-131419289D01*
X54737894Y-131424604D01*
X55606498Y-130556000D01*
X56661502Y-130556000D01*
X57530106Y-131424604D01*
X57881918Y-131364883D01*
X58058411Y-130634411D01*
X57941931Y-129892003D01*
X57881918Y-129747117D01*
X57530106Y-129687396D01*
X56661502Y-130556000D01*
X55606498Y-130556000D01*
X54737894Y-129687396D01*
X54706214Y-129692774D01*
X54386370Y-129372371D01*
X53874668Y-129159894D01*
X55265396Y-129159894D01*
X56134000Y-130028498D01*
X57002604Y-129159894D01*
X56942883Y-128808082D01*
X56212411Y-128631589D01*
X55470003Y-128748069D01*
X55325117Y-128808082D01*
X55265396Y-129159894D01*
X53874668Y-129159894D01*
X53873100Y-129159243D01*
X53317339Y-129158758D01*
X52803697Y-129370990D01*
X52410371Y-129763630D01*
X52324051Y-129971512D01*
X52239010Y-129765697D01*
X51846370Y-129372371D01*
X51333100Y-129159243D01*
X50777339Y-129158758D01*
X50263697Y-129370990D01*
X50035255Y-129599033D01*
X49699859Y-129138909D01*
X49058159Y-128747048D01*
X48767000Y-128947172D01*
X48767000Y-130183000D01*
X48787000Y-130183000D01*
X48787000Y-130929000D01*
X48767000Y-130929000D01*
X48767000Y-130949000D01*
X48021000Y-130949000D01*
X48021000Y-130929000D01*
X46791590Y-130929000D01*
X46585071Y-131220156D01*
X46645246Y-131365491D01*
X47052998Y-131924880D01*
X46694849Y-131996120D01*
X46229302Y-132307189D01*
X45974000Y-132689275D01*
X45718698Y-132307189D01*
X45253151Y-131996120D01*
X44704000Y-131886887D01*
X44154849Y-131996120D01*
X43689302Y-132307189D01*
X43434000Y-132689275D01*
X43178698Y-132307189D01*
X42713151Y-131996120D01*
X42164000Y-131886887D01*
X41614849Y-131996120D01*
X41149302Y-132307189D01*
X40838233Y-132772736D01*
X40736923Y-133282055D01*
X39579434Y-132124566D01*
X39308541Y-131943561D01*
X38989000Y-131880000D01*
X36942123Y-131880000D01*
X36913732Y-131729113D01*
X36774660Y-131512989D01*
X36562460Y-131367999D01*
X36310570Y-131316990D01*
X34809430Y-131316990D01*
X34574113Y-131361268D01*
X34357989Y-131500340D01*
X34212999Y-131712540D01*
X34161990Y-131964430D01*
X31568302Y-131964430D01*
X31669562Y-131720569D01*
X31670330Y-130840187D01*
X39458752Y-130840187D01*
X39676757Y-131367800D01*
X40080077Y-131771824D01*
X40607309Y-131990750D01*
X41178187Y-131991248D01*
X41705800Y-131773243D01*
X42109824Y-131369923D01*
X42328750Y-130842691D01*
X42329248Y-130271813D01*
X42172249Y-129891844D01*
X46585071Y-129891844D01*
X46791590Y-130183000D01*
X48021000Y-130183000D01*
X48021000Y-128947172D01*
X47729841Y-128747048D01*
X47088141Y-129138909D01*
X46645246Y-129746509D01*
X46585071Y-129891844D01*
X42172249Y-129891844D01*
X42111243Y-129744200D01*
X41707923Y-129340176D01*
X41180691Y-129121250D01*
X40609813Y-129120752D01*
X40082200Y-129338757D01*
X39678176Y-129742077D01*
X39459250Y-130269309D01*
X39458752Y-130840187D01*
X31670330Y-130840187D01*
X31670416Y-130741925D01*
X31296694Y-129837448D01*
X30605292Y-129144838D01*
X29701469Y-128769538D01*
X28722825Y-128768684D01*
X27818348Y-129142406D01*
X27125738Y-129833808D01*
X26750438Y-130737631D01*
X26749584Y-131716275D01*
X26110000Y-131716275D01*
X26110000Y-127710000D01*
X62790000Y-127710000D01*
X62790000Y-129641711D01*
M02*
