M48
INCH,TZ
T1C0.030
T2C0.031
T3C0.035
T4C0.039
T5C0.040
T6C0.106
%
G90
G05
T1
X2.01Y-5.14
X2.11Y-5.14
X2.21Y-5.14
T2
X1.61Y-5.14
X1.66Y-5.25
X1.66Y-5.55
X1.76Y-5.25
X1.76Y-5.55
X1.86Y-5.25
X1.86Y-5.55
X1.9053Y-5.14
X1.96Y-5.25
X1.96Y-5.55
T3
X1.4Y-5.225
X1.4Y-5.325
X1.4Y-5.425
X1.4Y-5.525
X1.5Y-5.275
X1.5Y-5.375
X1.5Y-5.475
X1.5Y-5.575
T4
X1.61Y-5.66
X1.91Y-5.66
T5
X2.3187Y-5.29
X2.3187Y-5.39
X2.3187Y-5.49
T6
X2.3917Y-5.1555
X2.3917Y-5.627
T0
M30
