G04 #@! TF.FileFunction,Legend,Top*
%FSLAX46Y46*%
G04 Gerber Fmt 4.6, Leading zero omitted, Abs format (unit mm)*
G04 Created by KiCad (PCBNEW 4.0.6) date Tue May 23 23:14:16 2017*
%MOMM*%
%LPD*%
G01*
G04 APERTURE LIST*
%ADD10C,0.100000*%
%ADD11C,0.250000*%
%ADD12C,0.300000*%
%ADD13C,0.187500*%
%ADD14C,0.150000*%
%ADD15C,0.120000*%
G04 APERTURE END LIST*
D10*
D11*
X56197524Y-138898381D02*
X55721333Y-138898381D01*
X55673714Y-139374571D01*
X55721333Y-139326952D01*
X55816571Y-139279333D01*
X56054667Y-139279333D01*
X56149905Y-139326952D01*
X56197524Y-139374571D01*
X56245143Y-139469810D01*
X56245143Y-139707905D01*
X56197524Y-139803143D01*
X56149905Y-139850762D01*
X56054667Y-139898381D01*
X55816571Y-139898381D01*
X55721333Y-139850762D01*
X55673714Y-139803143D01*
X56530857Y-138898381D02*
X56864190Y-139898381D01*
X57197524Y-138898381D01*
X54126000Y-137358381D02*
X54126000Y-136358381D01*
X54364095Y-136358381D01*
X54506953Y-136406000D01*
X54602191Y-136501238D01*
X54649810Y-136596476D01*
X54697429Y-136786952D01*
X54697429Y-136929810D01*
X54649810Y-137120286D01*
X54602191Y-137215524D01*
X54506953Y-137310762D01*
X54364095Y-137358381D01*
X54126000Y-137358381D01*
X55078381Y-137072667D02*
X55554572Y-137072667D01*
X54983143Y-137358381D02*
X55316476Y-136358381D01*
X55649810Y-137358381D01*
X55840286Y-136358381D02*
X56411715Y-136358381D01*
X56126000Y-137358381D02*
X56126000Y-136358381D01*
X56697429Y-137072667D02*
X57173620Y-137072667D01*
X56602191Y-137358381D02*
X56935524Y-136358381D01*
X57268858Y-137358381D01*
X55118096Y-133866000D02*
X55022858Y-133818381D01*
X54880001Y-133818381D01*
X54737143Y-133866000D01*
X54641905Y-133961238D01*
X54594286Y-134056476D01*
X54546667Y-134246952D01*
X54546667Y-134389810D01*
X54594286Y-134580286D01*
X54641905Y-134675524D01*
X54737143Y-134770762D01*
X54880001Y-134818381D01*
X54975239Y-134818381D01*
X55118096Y-134770762D01*
X55165715Y-134723143D01*
X55165715Y-134389810D01*
X54975239Y-134389810D01*
X55594286Y-134818381D02*
X55594286Y-133818381D01*
X56165715Y-134818381D01*
X56165715Y-133818381D01*
X56641905Y-134818381D02*
X56641905Y-133818381D01*
X56880000Y-133818381D01*
X57022858Y-133866000D01*
X57118096Y-133961238D01*
X57165715Y-134056476D01*
X57213334Y-134246952D01*
X57213334Y-134389810D01*
X57165715Y-134580286D01*
X57118096Y-134675524D01*
X57022858Y-134770762D01*
X56880000Y-134818381D01*
X56641905Y-134818381D01*
D12*
X43704001Y-144442571D02*
X42846858Y-144442571D01*
X43275430Y-144442571D02*
X43275430Y-142942571D01*
X43132573Y-143156857D01*
X42989715Y-143299714D01*
X42846858Y-143371143D01*
X44632572Y-142942571D02*
X44775429Y-142942571D01*
X44918286Y-143014000D01*
X44989715Y-143085429D01*
X45061144Y-143228286D01*
X45132572Y-143514000D01*
X45132572Y-143871143D01*
X45061144Y-144156857D01*
X44989715Y-144299714D01*
X44918286Y-144371143D01*
X44775429Y-144442571D01*
X44632572Y-144442571D01*
X44489715Y-144371143D01*
X44418286Y-144299714D01*
X44346858Y-144156857D01*
X44275429Y-143871143D01*
X44275429Y-143514000D01*
X44346858Y-143228286D01*
X44418286Y-143085429D01*
X44489715Y-143014000D01*
X44632572Y-142942571D01*
X46061143Y-142942571D02*
X46204000Y-142942571D01*
X46346857Y-143014000D01*
X46418286Y-143085429D01*
X46489715Y-143228286D01*
X46561143Y-143514000D01*
X46561143Y-143871143D01*
X46489715Y-144156857D01*
X46418286Y-144299714D01*
X46346857Y-144371143D01*
X46204000Y-144442571D01*
X46061143Y-144442571D01*
X45918286Y-144371143D01*
X45846857Y-144299714D01*
X45775429Y-144156857D01*
X45704000Y-143871143D01*
X45704000Y-143514000D01*
X45775429Y-143228286D01*
X45846857Y-143085429D01*
X45918286Y-143014000D01*
X46061143Y-142942571D01*
D13*
X43543286Y-131234571D02*
X43114714Y-131234571D01*
X43329000Y-131234571D02*
X43329000Y-129734571D01*
X43257571Y-129948857D01*
X43186143Y-130091714D01*
X43114714Y-130163143D01*
X44007572Y-129734571D02*
X44079000Y-129734571D01*
X44150429Y-129806000D01*
X44186143Y-129877429D01*
X44221857Y-130020286D01*
X44257572Y-130306000D01*
X44257572Y-130663143D01*
X44221857Y-130948857D01*
X44186143Y-131091714D01*
X44150429Y-131163143D01*
X44079000Y-131234571D01*
X44007572Y-131234571D01*
X43936143Y-131163143D01*
X43900429Y-131091714D01*
X43864714Y-130948857D01*
X43829000Y-130663143D01*
X43829000Y-130306000D01*
X43864714Y-130020286D01*
X43900429Y-129877429D01*
X43936143Y-129806000D01*
X44007572Y-129734571D01*
X44721858Y-129734571D02*
X44793286Y-129734571D01*
X44864715Y-129806000D01*
X44900429Y-129877429D01*
X44936143Y-130020286D01*
X44971858Y-130306000D01*
X44971858Y-130663143D01*
X44936143Y-130948857D01*
X44900429Y-131091714D01*
X44864715Y-131163143D01*
X44793286Y-131234571D01*
X44721858Y-131234571D01*
X44650429Y-131163143D01*
X44614715Y-131091714D01*
X44579000Y-130948857D01*
X44543286Y-130663143D01*
X44543286Y-130306000D01*
X44579000Y-130020286D01*
X44614715Y-129877429D01*
X44650429Y-129806000D01*
X44721858Y-129734571D01*
X45293286Y-130234571D02*
X45293286Y-131234571D01*
X45293286Y-130377429D02*
X45329001Y-130306000D01*
X45400429Y-130234571D01*
X45507572Y-130234571D01*
X45579001Y-130306000D01*
X45614715Y-130448857D01*
X45614715Y-131234571D01*
X46221857Y-130448857D02*
X45971857Y-130448857D01*
X45971857Y-131234571D02*
X45971857Y-129734571D01*
X46329000Y-129734571D01*
D14*
X54697334Y-129484381D02*
X54364000Y-129008190D01*
X54125905Y-129484381D02*
X54125905Y-128484381D01*
X54506858Y-128484381D01*
X54602096Y-128532000D01*
X54649715Y-128579619D01*
X54697334Y-128674857D01*
X54697334Y-128817714D01*
X54649715Y-128912952D01*
X54602096Y-128960571D01*
X54506858Y-129008190D01*
X54125905Y-129008190D01*
X55030667Y-128484381D02*
X55697334Y-129484381D01*
X55697334Y-128484381D02*
X55030667Y-129484381D01*
X51562095Y-128484381D02*
X52133524Y-128484381D01*
X51847809Y-129484381D02*
X51847809Y-128484381D01*
X52371619Y-128484381D02*
X53038286Y-129484381D01*
X53038286Y-128484381D02*
X52371619Y-129484381D01*
X39869000Y-140835000D02*
X41139000Y-140835000D01*
X39869000Y-133485000D02*
X41139000Y-133485000D01*
X52079000Y-133485000D02*
X50809000Y-133485000D01*
X52079000Y-140835000D02*
X50809000Y-140835000D01*
X39869000Y-140835000D02*
X39869000Y-133485000D01*
X52079000Y-140835000D02*
X52079000Y-133485000D01*
X41139000Y-140835000D02*
X41139000Y-141770000D01*
X21336000Y-129540000D02*
X21336000Y-144780000D01*
X21336000Y-144780000D02*
X39370000Y-144780000D01*
X39370000Y-144780000D02*
X39370000Y-129540000D01*
X39370000Y-129540000D02*
X21336000Y-129540000D01*
X42164000Y-142494000D02*
X47244000Y-142494000D01*
X47244000Y-142494000D02*
X47244000Y-145034000D01*
X47244000Y-145034000D02*
X42164000Y-145034000D01*
X42164000Y-145034000D02*
X42164000Y-142494000D01*
D15*
X42684000Y-129196000D02*
X42684000Y-131916000D01*
X42684000Y-131916000D02*
X46604000Y-131916000D01*
X46604000Y-131916000D02*
X46604000Y-129196000D01*
X46604000Y-129196000D02*
X42684000Y-129196000D01*
X41874000Y-130556000D02*
X42684000Y-130556000D01*
X47414000Y-130556000D02*
X46604000Y-130556000D01*
D14*
X57023095Y-145819762D02*
X57165952Y-145867381D01*
X57404048Y-145867381D01*
X57499286Y-145819762D01*
X57546905Y-145772143D01*
X57594524Y-145676905D01*
X57594524Y-145581667D01*
X57546905Y-145486429D01*
X57499286Y-145438810D01*
X57404048Y-145391190D01*
X57213571Y-145343571D01*
X57118333Y-145295952D01*
X57070714Y-145248333D01*
X57023095Y-145153095D01*
X57023095Y-145057857D01*
X57070714Y-144962619D01*
X57118333Y-144915000D01*
X57213571Y-144867381D01*
X57451667Y-144867381D01*
X57594524Y-144915000D01*
X57975476Y-144962619D02*
X58023095Y-144915000D01*
X58118333Y-144867381D01*
X58356429Y-144867381D01*
X58451667Y-144915000D01*
X58499286Y-144962619D01*
X58546905Y-145057857D01*
X58546905Y-145153095D01*
X58499286Y-145295952D01*
X57927857Y-145867381D01*
X58546905Y-145867381D01*
X45116381Y-137731905D02*
X45925905Y-137731905D01*
X46021143Y-137684286D01*
X46068762Y-137636667D01*
X46116381Y-137541429D01*
X46116381Y-137350952D01*
X46068762Y-137255714D01*
X46021143Y-137208095D01*
X45925905Y-137160476D01*
X45116381Y-137160476D01*
X46116381Y-136160476D02*
X46116381Y-136731905D01*
X46116381Y-136446191D02*
X45116381Y-136446191D01*
X45259238Y-136541429D01*
X45354476Y-136636667D01*
X45402095Y-136731905D01*
X31710381Y-137493333D02*
X32424667Y-137493333D01*
X32567524Y-137540953D01*
X32662762Y-137636191D01*
X32710381Y-137779048D01*
X32710381Y-137874286D01*
X32710381Y-136493333D02*
X32710381Y-137064762D01*
X32710381Y-136779048D02*
X31710381Y-136779048D01*
X31853238Y-136874286D01*
X31948476Y-136969524D01*
X31996095Y-137064762D01*
X44537334Y-146502381D02*
X44204000Y-146026190D01*
X43965905Y-146502381D02*
X43965905Y-145502381D01*
X44346858Y-145502381D01*
X44442096Y-145550000D01*
X44489715Y-145597619D01*
X44537334Y-145692857D01*
X44537334Y-145835714D01*
X44489715Y-145930952D01*
X44442096Y-145978571D01*
X44346858Y-146026190D01*
X43965905Y-146026190D01*
X45489715Y-146502381D02*
X44918286Y-146502381D01*
X45204000Y-146502381D02*
X45204000Y-145502381D01*
X45108762Y-145645238D01*
X45013524Y-145740476D01*
X44918286Y-145788095D01*
X53268667Y-131786381D02*
X53268667Y-132500667D01*
X53221047Y-132643524D01*
X53125809Y-132738762D01*
X52982952Y-132786381D01*
X52887714Y-132786381D01*
X53744857Y-132786381D02*
X53744857Y-131786381D01*
X54125810Y-131786381D01*
X54221048Y-131834000D01*
X54268667Y-131881619D01*
X54316286Y-131976857D01*
X54316286Y-132119714D01*
X54268667Y-132214952D01*
X54221048Y-132262571D01*
X54125810Y-132310190D01*
X53744857Y-132310190D01*
X55268667Y-132786381D02*
X54697238Y-132786381D01*
X54982952Y-132786381D02*
X54982952Y-131786381D01*
X54887714Y-131929238D01*
X54792476Y-132024476D01*
X54697238Y-132072095D01*
X44477334Y-128553143D02*
X44429715Y-128600762D01*
X44286858Y-128648381D01*
X44191620Y-128648381D01*
X44048762Y-128600762D01*
X43953524Y-128505524D01*
X43905905Y-128410286D01*
X43858286Y-128219810D01*
X43858286Y-128076952D01*
X43905905Y-127886476D01*
X43953524Y-127791238D01*
X44048762Y-127696000D01*
X44191620Y-127648381D01*
X44286858Y-127648381D01*
X44429715Y-127696000D01*
X44477334Y-127743619D01*
X45429715Y-128648381D02*
X44858286Y-128648381D01*
X45144000Y-128648381D02*
X45144000Y-127648381D01*
X45048762Y-127791238D01*
X44953524Y-127886476D01*
X44858286Y-127934095D01*
X60221905Y-132786381D02*
X60221905Y-131786381D01*
X60602858Y-131786381D01*
X60698096Y-131834000D01*
X60745715Y-131881619D01*
X60793334Y-131976857D01*
X60793334Y-132119714D01*
X60745715Y-132214952D01*
X60698096Y-132262571D01*
X60602858Y-132310190D01*
X60221905Y-132310190D01*
X61745715Y-132786381D02*
X61174286Y-132786381D01*
X61460000Y-132786381D02*
X61460000Y-131786381D01*
X61364762Y-131929238D01*
X61269524Y-132024476D01*
X61174286Y-132072095D01*
X57023095Y-128674762D02*
X57165952Y-128722381D01*
X57404048Y-128722381D01*
X57499286Y-128674762D01*
X57546905Y-128627143D01*
X57594524Y-128531905D01*
X57594524Y-128436667D01*
X57546905Y-128341429D01*
X57499286Y-128293810D01*
X57404048Y-128246190D01*
X57213571Y-128198571D01*
X57118333Y-128150952D01*
X57070714Y-128103333D01*
X57023095Y-128008095D01*
X57023095Y-127912857D01*
X57070714Y-127817619D01*
X57118333Y-127770000D01*
X57213571Y-127722381D01*
X57451667Y-127722381D01*
X57594524Y-127770000D01*
X58546905Y-128722381D02*
X57975476Y-128722381D01*
X58261190Y-128722381D02*
X58261190Y-127722381D01*
X58165952Y-127865238D01*
X58070714Y-127960476D01*
X57975476Y-128008095D01*
M02*
