G04 #@! TF.FileFunction,Copper,L2,Bot,Signal*
%FSLAX46Y46*%
G04 Gerber Fmt 4.6, Leading zero omitted, Abs format (unit mm)*
G04 Created by KiCad (PCBNEW 4.0.6) date Wed Apr 19 22:24:01 2017*
%MOMM*%
%LPD*%
G01*
G04 APERTURE LIST*
%ADD10C,0.100000*%
%ADD11C,3.649980*%
%ADD12R,1.501140X1.501140*%
%ADD13C,1.501140*%
%ADD14O,1.600000X1.600000*%
%ADD15C,1.998980*%
%ADD16C,1.524000*%
%ADD17C,1.600000*%
%ADD18C,3.000000*%
%ADD19C,2.000000*%
%ADD20C,0.500000*%
%ADD21C,1.500000*%
%ADD22C,0.254000*%
G04 APERTURE END LIST*
D10*
D11*
X102000000Y-96938520D03*
X102000000Y-85069100D03*
D12*
X108350000Y-86555000D03*
D13*
X110890000Y-87825000D03*
X108350000Y-89095000D03*
X110890000Y-90365000D03*
X108350000Y-91635000D03*
X110890000Y-92905000D03*
X108350000Y-94175000D03*
X110890000Y-95445000D03*
D14*
X114500000Y-88000000D03*
X114500000Y-90540000D03*
X114500000Y-93080000D03*
X114500000Y-95620000D03*
X122120000Y-95620000D03*
X122120000Y-93080000D03*
X122120000Y-90540000D03*
X122120000Y-88000000D03*
D15*
X114500000Y-100000000D03*
X122120000Y-100000000D03*
D16*
X105460000Y-101500000D03*
X108000000Y-101500000D03*
X110540000Y-101500000D03*
D17*
X125000000Y-88000000D03*
X125000000Y-90500000D03*
D18*
X96500000Y-100500000D03*
X101500000Y-100500000D03*
X96500000Y-104500000D03*
X101500000Y-104500000D03*
D19*
X135000000Y-88000000D03*
X118250000Y-97750000D03*
D20*
X123409600Y-91790400D02*
X122120000Y-93080000D01*
X123409600Y-90060800D02*
X123409600Y-91790400D01*
X122618800Y-89270000D02*
X123409600Y-90060800D01*
X121589800Y-89270000D02*
X122618800Y-89270000D01*
X118874800Y-86555000D02*
X121589800Y-89270000D01*
X108350000Y-86555000D02*
X118874800Y-86555000D01*
X122120000Y-90540000D02*
X120820000Y-90540000D01*
X119550000Y-91810000D02*
X113171000Y-91810000D01*
X120820000Y-90540000D02*
X119550000Y-91810000D01*
X113171000Y-90106000D02*
X113171000Y-91810000D01*
X110890000Y-87825000D02*
X113171000Y-90106000D01*
X113171000Y-98671000D02*
X114500000Y-100000000D01*
X113171000Y-91810000D02*
X113171000Y-98671000D01*
D21*
X118080000Y-93080000D02*
X114500000Y-93080000D01*
X118250000Y-93250000D02*
X118080000Y-93080000D01*
X118250000Y-97750000D02*
X118250000Y-93250000D01*
D22*
G36*
X99540438Y-84577631D02*
X99539584Y-85556275D01*
X99913306Y-86460752D01*
X100604708Y-87153362D01*
X101508531Y-87528662D01*
X102487175Y-87529516D01*
X103391652Y-87155794D01*
X104084262Y-86464392D01*
X104459562Y-85560569D01*
X104460416Y-84581925D01*
X104100144Y-83710000D01*
X112705908Y-83710000D01*
X114497954Y-85502046D01*
X114728295Y-85655954D01*
X114798908Y-85670000D01*
X109722715Y-85670000D01*
X109703732Y-85569113D01*
X109564660Y-85352989D01*
X109352460Y-85207999D01*
X109100570Y-85156990D01*
X107599430Y-85156990D01*
X107364113Y-85201268D01*
X107147989Y-85340340D01*
X107002999Y-85552540D01*
X106951990Y-85804430D01*
X106951990Y-87305570D01*
X106996268Y-87540887D01*
X107135340Y-87757011D01*
X107347540Y-87902001D01*
X107544021Y-87941789D01*
X107176056Y-88309113D01*
X106964671Y-88818184D01*
X106964190Y-89369398D01*
X107174686Y-89878837D01*
X107564113Y-90268944D01*
X107795381Y-90364975D01*
X107566163Y-90459686D01*
X107176056Y-90849113D01*
X106964671Y-91358184D01*
X106964190Y-91909398D01*
X107174686Y-92418837D01*
X107497377Y-92742092D01*
X107489859Y-92787357D01*
X108350000Y-93647498D01*
X108364142Y-93633356D01*
X108891644Y-94160858D01*
X108877502Y-94175000D01*
X108891644Y-94189142D01*
X108364142Y-94716644D01*
X108350000Y-94702502D01*
X107489859Y-95562643D01*
X107548100Y-95913306D01*
X108274362Y-96087860D01*
X109012140Y-95971198D01*
X109068607Y-95947808D01*
X109093802Y-96107140D01*
X109151694Y-96246900D01*
X109502357Y-96305141D01*
X110362498Y-95445000D01*
X110348356Y-95430858D01*
X110875858Y-94903356D01*
X110890000Y-94917498D01*
X111750141Y-94057357D01*
X111742560Y-94011711D01*
X112063944Y-93690887D01*
X112275329Y-93181816D01*
X112275810Y-92630602D01*
X112065314Y-92121163D01*
X111675887Y-91731056D01*
X111444619Y-91635025D01*
X111673837Y-91540314D01*
X112063944Y-91150887D01*
X112275329Y-90641816D01*
X112275486Y-90462065D01*
X112286000Y-90472579D01*
X112286000Y-94586247D01*
X112277643Y-94584859D01*
X111417502Y-95445000D01*
X112277643Y-96305141D01*
X112286000Y-96303753D01*
X112286000Y-98670995D01*
X112285999Y-98671000D01*
X112342190Y-98953484D01*
X112353367Y-99009675D01*
X112437106Y-99135000D01*
X112545210Y-99296790D01*
X112882248Y-99633828D01*
X112865794Y-99673453D01*
X112865226Y-100323694D01*
X113113538Y-100924655D01*
X113572927Y-101384846D01*
X114173453Y-101634206D01*
X114823694Y-101634774D01*
X115424655Y-101386462D01*
X115884846Y-100927073D01*
X116134206Y-100326547D01*
X116134208Y-100323694D01*
X120485226Y-100323694D01*
X120733538Y-100924655D01*
X121192927Y-101384846D01*
X121793453Y-101634206D01*
X122443694Y-101634774D01*
X123044655Y-101386462D01*
X123504846Y-100927073D01*
X123754206Y-100326547D01*
X123754774Y-99676306D01*
X123506462Y-99075345D01*
X123047073Y-98615154D01*
X122446547Y-98365794D01*
X121796306Y-98365226D01*
X121195345Y-98613538D01*
X120735154Y-99072927D01*
X120485794Y-99673453D01*
X120485226Y-100323694D01*
X116134208Y-100323694D01*
X116134774Y-99676306D01*
X115886462Y-99075345D01*
X115427073Y-98615154D01*
X114826547Y-98365794D01*
X114176306Y-98365226D01*
X114134203Y-98382623D01*
X114056000Y-98304420D01*
X114056000Y-96972275D01*
X114471887Y-97055000D01*
X114528113Y-97055000D01*
X115077264Y-96945767D01*
X115542811Y-96634698D01*
X115853880Y-96169151D01*
X115963113Y-95620000D01*
X115853880Y-95070849D01*
X115542811Y-94605302D01*
X115332835Y-94465000D01*
X116865000Y-94465000D01*
X116865000Y-96822359D01*
X116864722Y-96822637D01*
X116615284Y-97423352D01*
X116614716Y-98073795D01*
X116863106Y-98674943D01*
X117322637Y-99135278D01*
X117923352Y-99384716D01*
X118573795Y-99385284D01*
X119174943Y-99136894D01*
X119635278Y-98677363D01*
X119884716Y-98076648D01*
X119885284Y-97426205D01*
X119636894Y-96825057D01*
X119635000Y-96823160D01*
X119635000Y-96284156D01*
X120311071Y-96284156D01*
X120371246Y-96429491D01*
X120814141Y-97037091D01*
X121455841Y-97428952D01*
X121747000Y-97228828D01*
X121747000Y-95993000D01*
X122493000Y-95993000D01*
X122493000Y-97228828D01*
X122784159Y-97428952D01*
X123425859Y-97037091D01*
X123868754Y-96429491D01*
X123928929Y-96284156D01*
X123722410Y-95993000D01*
X122493000Y-95993000D01*
X121747000Y-95993000D01*
X120517590Y-95993000D01*
X120311071Y-96284156D01*
X119635000Y-96284156D01*
X119635000Y-93250000D01*
X119529573Y-92719983D01*
X119512880Y-92695000D01*
X119549995Y-92695000D01*
X119550000Y-92695001D01*
X119832484Y-92638810D01*
X119888675Y-92627633D01*
X120175790Y-92435790D01*
X121069055Y-91542524D01*
X121077189Y-91554698D01*
X121459275Y-91810000D01*
X121077189Y-92065302D01*
X120766120Y-92530849D01*
X120656887Y-93080000D01*
X120766120Y-93629151D01*
X121052312Y-94057467D01*
X120814141Y-94202909D01*
X120371246Y-94810509D01*
X120311071Y-94955844D01*
X120517590Y-95247000D01*
X121747000Y-95247000D01*
X121747000Y-95227000D01*
X122493000Y-95227000D01*
X122493000Y-95247000D01*
X123722410Y-95247000D01*
X123928929Y-94955844D01*
X123868754Y-94810509D01*
X123425859Y-94202909D01*
X123187688Y-94057467D01*
X123473880Y-93629151D01*
X123583113Y-93080000D01*
X123548017Y-92903562D01*
X124035387Y-92416192D01*
X124035390Y-92416190D01*
X124159056Y-92231110D01*
X124167914Y-92279854D01*
X124912373Y-92462796D01*
X125670173Y-92346920D01*
X125832086Y-92279854D01*
X125896716Y-91924218D01*
X125000000Y-91027502D01*
X124985858Y-91041644D01*
X124458356Y-90514142D01*
X124472498Y-90500000D01*
X125527502Y-90500000D01*
X126424218Y-91396716D01*
X126779854Y-91332086D01*
X126962796Y-90587627D01*
X126846920Y-89829827D01*
X126779854Y-89667914D01*
X126424218Y-89603284D01*
X125527502Y-90500000D01*
X124472498Y-90500000D01*
X124458356Y-90485858D01*
X124985858Y-89958356D01*
X125000000Y-89972498D01*
X125715440Y-89257058D01*
X125811800Y-89217243D01*
X126215824Y-88813923D01*
X126434750Y-88286691D01*
X126435248Y-87715813D01*
X126217243Y-87188200D01*
X125813923Y-86784176D01*
X125286691Y-86565250D01*
X124715813Y-86564752D01*
X124188200Y-86782757D01*
X123784176Y-87186077D01*
X123565250Y-87713309D01*
X123565079Y-87909337D01*
X123473880Y-87450849D01*
X123162811Y-86985302D01*
X122697264Y-86674233D01*
X122148113Y-86565000D01*
X122091887Y-86565000D01*
X121542736Y-86674233D01*
X121077189Y-86985302D01*
X120868703Y-87297323D01*
X119500590Y-85929210D01*
X119313842Y-85804430D01*
X119213475Y-85737367D01*
X119157284Y-85726190D01*
X119075894Y-85710000D01*
X125000000Y-85710000D01*
X125271705Y-85655954D01*
X125502046Y-85502046D01*
X127294092Y-83710000D01*
X139290000Y-83710000D01*
X139290000Y-106790000D01*
X127294092Y-106790000D01*
X125502046Y-104997954D01*
X125271705Y-104844046D01*
X125000000Y-104790000D01*
X115000000Y-104790000D01*
X114728295Y-104844046D01*
X114497954Y-104997954D01*
X112705908Y-106790000D01*
X97784151Y-106790000D01*
X97910334Y-106437835D01*
X96500000Y-105027502D01*
X95089666Y-106437835D01*
X95215849Y-106790000D01*
X93710000Y-106790000D01*
X93710000Y-104243510D01*
X93833843Y-104243510D01*
X93938639Y-105283329D01*
X94134946Y-105757259D01*
X94562165Y-105910334D01*
X95972498Y-104500000D01*
X97027502Y-104500000D01*
X98437835Y-105910334D01*
X98865054Y-105757259D01*
X99166157Y-104756490D01*
X99061361Y-103716671D01*
X98865054Y-103242741D01*
X98437835Y-103089666D01*
X97027502Y-104500000D01*
X95972498Y-104500000D01*
X94562165Y-103089666D01*
X94134946Y-103242741D01*
X93833843Y-104243510D01*
X93710000Y-104243510D01*
X93710000Y-100922815D01*
X94364630Y-100922815D01*
X94688980Y-101707800D01*
X95209102Y-102228830D01*
X95089666Y-102562165D01*
X96500000Y-103972498D01*
X97910334Y-102562165D01*
X97790697Y-102228268D01*
X98308909Y-101710959D01*
X98634628Y-100926541D01*
X98634631Y-100922815D01*
X99364630Y-100922815D01*
X99688980Y-101707800D01*
X100289041Y-102308909D01*
X100749402Y-102500068D01*
X100292200Y-102688980D01*
X99691091Y-103289041D01*
X99365372Y-104073459D01*
X99364630Y-104922815D01*
X99688980Y-105707800D01*
X100289041Y-106308909D01*
X101073459Y-106634628D01*
X101922815Y-106635370D01*
X102707800Y-106311020D01*
X103308909Y-105710959D01*
X103634628Y-104926541D01*
X103635370Y-104077185D01*
X103311020Y-103292200D01*
X102710959Y-102691091D01*
X102250598Y-102499932D01*
X102707800Y-102311020D01*
X103243092Y-101776661D01*
X104062758Y-101776661D01*
X104274990Y-102290303D01*
X104667630Y-102683629D01*
X105180900Y-102896757D01*
X105736661Y-102897242D01*
X106250303Y-102685010D01*
X106643629Y-102292370D01*
X106729949Y-102084488D01*
X106814990Y-102290303D01*
X107207630Y-102683629D01*
X107720900Y-102896757D01*
X108276661Y-102897242D01*
X108279410Y-102896106D01*
X109671396Y-102896106D01*
X109731117Y-103247918D01*
X110461589Y-103424411D01*
X111203997Y-103307931D01*
X111348883Y-103247918D01*
X111408604Y-102896106D01*
X110540000Y-102027502D01*
X109671396Y-102896106D01*
X108279410Y-102896106D01*
X108790303Y-102685010D01*
X109112586Y-102363289D01*
X109143894Y-102368604D01*
X110012498Y-101500000D01*
X111067502Y-101500000D01*
X111936106Y-102368604D01*
X112287918Y-102308883D01*
X112464411Y-101578411D01*
X112347931Y-100836003D01*
X112287918Y-100691117D01*
X111936106Y-100631396D01*
X111067502Y-101500000D01*
X110012498Y-101500000D01*
X109143894Y-100631396D01*
X109112214Y-100636774D01*
X108792370Y-100316371D01*
X108280668Y-100103894D01*
X109671396Y-100103894D01*
X110540000Y-100972498D01*
X111408604Y-100103894D01*
X111348883Y-99752082D01*
X110618411Y-99575589D01*
X109876003Y-99692069D01*
X109731117Y-99752082D01*
X109671396Y-100103894D01*
X108280668Y-100103894D01*
X108279100Y-100103243D01*
X107723339Y-100102758D01*
X107209697Y-100314990D01*
X106816371Y-100707630D01*
X106730051Y-100915512D01*
X106645010Y-100709697D01*
X106252370Y-100316371D01*
X105739100Y-100103243D01*
X105183339Y-100102758D01*
X104669697Y-100314990D01*
X104276371Y-100707630D01*
X104063243Y-101220900D01*
X104062758Y-101776661D01*
X103243092Y-101776661D01*
X103308909Y-101710959D01*
X103634628Y-100926541D01*
X103635370Y-100077185D01*
X103311020Y-99292200D01*
X103145875Y-99126767D01*
X103391652Y-99025214D01*
X104084262Y-98333812D01*
X104459562Y-97429989D01*
X104460083Y-96832643D01*
X110029859Y-96832643D01*
X110088100Y-97183306D01*
X110814362Y-97357860D01*
X111552140Y-97241198D01*
X111691900Y-97183306D01*
X111750141Y-96832643D01*
X110890000Y-95972502D01*
X110029859Y-96832643D01*
X104460083Y-96832643D01*
X104460416Y-96451345D01*
X104086694Y-95546868D01*
X103395292Y-94854258D01*
X102491469Y-94478958D01*
X101512825Y-94478104D01*
X100608348Y-94851826D01*
X99915738Y-95543228D01*
X99540438Y-96447051D01*
X99539584Y-97425695D01*
X99913306Y-98330172D01*
X100281826Y-98699336D01*
X99691091Y-99289041D01*
X99365372Y-100073459D01*
X99364630Y-100922815D01*
X98634631Y-100922815D01*
X98635370Y-100077185D01*
X98311020Y-99292200D01*
X97710959Y-98691091D01*
X96926541Y-98365372D01*
X96077185Y-98364630D01*
X95292200Y-98688980D01*
X94691091Y-99289041D01*
X94365372Y-100073459D01*
X94364630Y-100922815D01*
X93710000Y-100922815D01*
X93710000Y-94099362D01*
X106437140Y-94099362D01*
X106553802Y-94837140D01*
X106611694Y-94976900D01*
X106962357Y-95035141D01*
X107822498Y-94175000D01*
X106962357Y-93314859D01*
X106611694Y-93373100D01*
X106437140Y-94099362D01*
X93710000Y-94099362D01*
X93710000Y-83710000D01*
X99900710Y-83710000D01*
X99540438Y-84577631D01*
X99540438Y-84577631D01*
G37*
X99540438Y-84577631D02*
X99539584Y-85556275D01*
X99913306Y-86460752D01*
X100604708Y-87153362D01*
X101508531Y-87528662D01*
X102487175Y-87529516D01*
X103391652Y-87155794D01*
X104084262Y-86464392D01*
X104459562Y-85560569D01*
X104460416Y-84581925D01*
X104100144Y-83710000D01*
X112705908Y-83710000D01*
X114497954Y-85502046D01*
X114728295Y-85655954D01*
X114798908Y-85670000D01*
X109722715Y-85670000D01*
X109703732Y-85569113D01*
X109564660Y-85352989D01*
X109352460Y-85207999D01*
X109100570Y-85156990D01*
X107599430Y-85156990D01*
X107364113Y-85201268D01*
X107147989Y-85340340D01*
X107002999Y-85552540D01*
X106951990Y-85804430D01*
X106951990Y-87305570D01*
X106996268Y-87540887D01*
X107135340Y-87757011D01*
X107347540Y-87902001D01*
X107544021Y-87941789D01*
X107176056Y-88309113D01*
X106964671Y-88818184D01*
X106964190Y-89369398D01*
X107174686Y-89878837D01*
X107564113Y-90268944D01*
X107795381Y-90364975D01*
X107566163Y-90459686D01*
X107176056Y-90849113D01*
X106964671Y-91358184D01*
X106964190Y-91909398D01*
X107174686Y-92418837D01*
X107497377Y-92742092D01*
X107489859Y-92787357D01*
X108350000Y-93647498D01*
X108364142Y-93633356D01*
X108891644Y-94160858D01*
X108877502Y-94175000D01*
X108891644Y-94189142D01*
X108364142Y-94716644D01*
X108350000Y-94702502D01*
X107489859Y-95562643D01*
X107548100Y-95913306D01*
X108274362Y-96087860D01*
X109012140Y-95971198D01*
X109068607Y-95947808D01*
X109093802Y-96107140D01*
X109151694Y-96246900D01*
X109502357Y-96305141D01*
X110362498Y-95445000D01*
X110348356Y-95430858D01*
X110875858Y-94903356D01*
X110890000Y-94917498D01*
X111750141Y-94057357D01*
X111742560Y-94011711D01*
X112063944Y-93690887D01*
X112275329Y-93181816D01*
X112275810Y-92630602D01*
X112065314Y-92121163D01*
X111675887Y-91731056D01*
X111444619Y-91635025D01*
X111673837Y-91540314D01*
X112063944Y-91150887D01*
X112275329Y-90641816D01*
X112275486Y-90462065D01*
X112286000Y-90472579D01*
X112286000Y-94586247D01*
X112277643Y-94584859D01*
X111417502Y-95445000D01*
X112277643Y-96305141D01*
X112286000Y-96303753D01*
X112286000Y-98670995D01*
X112285999Y-98671000D01*
X112342190Y-98953484D01*
X112353367Y-99009675D01*
X112437106Y-99135000D01*
X112545210Y-99296790D01*
X112882248Y-99633828D01*
X112865794Y-99673453D01*
X112865226Y-100323694D01*
X113113538Y-100924655D01*
X113572927Y-101384846D01*
X114173453Y-101634206D01*
X114823694Y-101634774D01*
X115424655Y-101386462D01*
X115884846Y-100927073D01*
X116134206Y-100326547D01*
X116134208Y-100323694D01*
X120485226Y-100323694D01*
X120733538Y-100924655D01*
X121192927Y-101384846D01*
X121793453Y-101634206D01*
X122443694Y-101634774D01*
X123044655Y-101386462D01*
X123504846Y-100927073D01*
X123754206Y-100326547D01*
X123754774Y-99676306D01*
X123506462Y-99075345D01*
X123047073Y-98615154D01*
X122446547Y-98365794D01*
X121796306Y-98365226D01*
X121195345Y-98613538D01*
X120735154Y-99072927D01*
X120485794Y-99673453D01*
X120485226Y-100323694D01*
X116134208Y-100323694D01*
X116134774Y-99676306D01*
X115886462Y-99075345D01*
X115427073Y-98615154D01*
X114826547Y-98365794D01*
X114176306Y-98365226D01*
X114134203Y-98382623D01*
X114056000Y-98304420D01*
X114056000Y-96972275D01*
X114471887Y-97055000D01*
X114528113Y-97055000D01*
X115077264Y-96945767D01*
X115542811Y-96634698D01*
X115853880Y-96169151D01*
X115963113Y-95620000D01*
X115853880Y-95070849D01*
X115542811Y-94605302D01*
X115332835Y-94465000D01*
X116865000Y-94465000D01*
X116865000Y-96822359D01*
X116864722Y-96822637D01*
X116615284Y-97423352D01*
X116614716Y-98073795D01*
X116863106Y-98674943D01*
X117322637Y-99135278D01*
X117923352Y-99384716D01*
X118573795Y-99385284D01*
X119174943Y-99136894D01*
X119635278Y-98677363D01*
X119884716Y-98076648D01*
X119885284Y-97426205D01*
X119636894Y-96825057D01*
X119635000Y-96823160D01*
X119635000Y-96284156D01*
X120311071Y-96284156D01*
X120371246Y-96429491D01*
X120814141Y-97037091D01*
X121455841Y-97428952D01*
X121747000Y-97228828D01*
X121747000Y-95993000D01*
X122493000Y-95993000D01*
X122493000Y-97228828D01*
X122784159Y-97428952D01*
X123425859Y-97037091D01*
X123868754Y-96429491D01*
X123928929Y-96284156D01*
X123722410Y-95993000D01*
X122493000Y-95993000D01*
X121747000Y-95993000D01*
X120517590Y-95993000D01*
X120311071Y-96284156D01*
X119635000Y-96284156D01*
X119635000Y-93250000D01*
X119529573Y-92719983D01*
X119512880Y-92695000D01*
X119549995Y-92695000D01*
X119550000Y-92695001D01*
X119832484Y-92638810D01*
X119888675Y-92627633D01*
X120175790Y-92435790D01*
X121069055Y-91542524D01*
X121077189Y-91554698D01*
X121459275Y-91810000D01*
X121077189Y-92065302D01*
X120766120Y-92530849D01*
X120656887Y-93080000D01*
X120766120Y-93629151D01*
X121052312Y-94057467D01*
X120814141Y-94202909D01*
X120371246Y-94810509D01*
X120311071Y-94955844D01*
X120517590Y-95247000D01*
X121747000Y-95247000D01*
X121747000Y-95227000D01*
X122493000Y-95227000D01*
X122493000Y-95247000D01*
X123722410Y-95247000D01*
X123928929Y-94955844D01*
X123868754Y-94810509D01*
X123425859Y-94202909D01*
X123187688Y-94057467D01*
X123473880Y-93629151D01*
X123583113Y-93080000D01*
X123548017Y-92903562D01*
X124035387Y-92416192D01*
X124035390Y-92416190D01*
X124159056Y-92231110D01*
X124167914Y-92279854D01*
X124912373Y-92462796D01*
X125670173Y-92346920D01*
X125832086Y-92279854D01*
X125896716Y-91924218D01*
X125000000Y-91027502D01*
X124985858Y-91041644D01*
X124458356Y-90514142D01*
X124472498Y-90500000D01*
X125527502Y-90500000D01*
X126424218Y-91396716D01*
X126779854Y-91332086D01*
X126962796Y-90587627D01*
X126846920Y-89829827D01*
X126779854Y-89667914D01*
X126424218Y-89603284D01*
X125527502Y-90500000D01*
X124472498Y-90500000D01*
X124458356Y-90485858D01*
X124985858Y-89958356D01*
X125000000Y-89972498D01*
X125715440Y-89257058D01*
X125811800Y-89217243D01*
X126215824Y-88813923D01*
X126434750Y-88286691D01*
X126435248Y-87715813D01*
X126217243Y-87188200D01*
X125813923Y-86784176D01*
X125286691Y-86565250D01*
X124715813Y-86564752D01*
X124188200Y-86782757D01*
X123784176Y-87186077D01*
X123565250Y-87713309D01*
X123565079Y-87909337D01*
X123473880Y-87450849D01*
X123162811Y-86985302D01*
X122697264Y-86674233D01*
X122148113Y-86565000D01*
X122091887Y-86565000D01*
X121542736Y-86674233D01*
X121077189Y-86985302D01*
X120868703Y-87297323D01*
X119500590Y-85929210D01*
X119313842Y-85804430D01*
X119213475Y-85737367D01*
X119157284Y-85726190D01*
X119075894Y-85710000D01*
X125000000Y-85710000D01*
X125271705Y-85655954D01*
X125502046Y-85502046D01*
X127294092Y-83710000D01*
X139290000Y-83710000D01*
X139290000Y-106790000D01*
X127294092Y-106790000D01*
X125502046Y-104997954D01*
X125271705Y-104844046D01*
X125000000Y-104790000D01*
X115000000Y-104790000D01*
X114728295Y-104844046D01*
X114497954Y-104997954D01*
X112705908Y-106790000D01*
X97784151Y-106790000D01*
X97910334Y-106437835D01*
X96500000Y-105027502D01*
X95089666Y-106437835D01*
X95215849Y-106790000D01*
X93710000Y-106790000D01*
X93710000Y-104243510D01*
X93833843Y-104243510D01*
X93938639Y-105283329D01*
X94134946Y-105757259D01*
X94562165Y-105910334D01*
X95972498Y-104500000D01*
X97027502Y-104500000D01*
X98437835Y-105910334D01*
X98865054Y-105757259D01*
X99166157Y-104756490D01*
X99061361Y-103716671D01*
X98865054Y-103242741D01*
X98437835Y-103089666D01*
X97027502Y-104500000D01*
X95972498Y-104500000D01*
X94562165Y-103089666D01*
X94134946Y-103242741D01*
X93833843Y-104243510D01*
X93710000Y-104243510D01*
X93710000Y-100922815D01*
X94364630Y-100922815D01*
X94688980Y-101707800D01*
X95209102Y-102228830D01*
X95089666Y-102562165D01*
X96500000Y-103972498D01*
X97910334Y-102562165D01*
X97790697Y-102228268D01*
X98308909Y-101710959D01*
X98634628Y-100926541D01*
X98634631Y-100922815D01*
X99364630Y-100922815D01*
X99688980Y-101707800D01*
X100289041Y-102308909D01*
X100749402Y-102500068D01*
X100292200Y-102688980D01*
X99691091Y-103289041D01*
X99365372Y-104073459D01*
X99364630Y-104922815D01*
X99688980Y-105707800D01*
X100289041Y-106308909D01*
X101073459Y-106634628D01*
X101922815Y-106635370D01*
X102707800Y-106311020D01*
X103308909Y-105710959D01*
X103634628Y-104926541D01*
X103635370Y-104077185D01*
X103311020Y-103292200D01*
X102710959Y-102691091D01*
X102250598Y-102499932D01*
X102707800Y-102311020D01*
X103243092Y-101776661D01*
X104062758Y-101776661D01*
X104274990Y-102290303D01*
X104667630Y-102683629D01*
X105180900Y-102896757D01*
X105736661Y-102897242D01*
X106250303Y-102685010D01*
X106643629Y-102292370D01*
X106729949Y-102084488D01*
X106814990Y-102290303D01*
X107207630Y-102683629D01*
X107720900Y-102896757D01*
X108276661Y-102897242D01*
X108279410Y-102896106D01*
X109671396Y-102896106D01*
X109731117Y-103247918D01*
X110461589Y-103424411D01*
X111203997Y-103307931D01*
X111348883Y-103247918D01*
X111408604Y-102896106D01*
X110540000Y-102027502D01*
X109671396Y-102896106D01*
X108279410Y-102896106D01*
X108790303Y-102685010D01*
X109112586Y-102363289D01*
X109143894Y-102368604D01*
X110012498Y-101500000D01*
X111067502Y-101500000D01*
X111936106Y-102368604D01*
X112287918Y-102308883D01*
X112464411Y-101578411D01*
X112347931Y-100836003D01*
X112287918Y-100691117D01*
X111936106Y-100631396D01*
X111067502Y-101500000D01*
X110012498Y-101500000D01*
X109143894Y-100631396D01*
X109112214Y-100636774D01*
X108792370Y-100316371D01*
X108280668Y-100103894D01*
X109671396Y-100103894D01*
X110540000Y-100972498D01*
X111408604Y-100103894D01*
X111348883Y-99752082D01*
X110618411Y-99575589D01*
X109876003Y-99692069D01*
X109731117Y-99752082D01*
X109671396Y-100103894D01*
X108280668Y-100103894D01*
X108279100Y-100103243D01*
X107723339Y-100102758D01*
X107209697Y-100314990D01*
X106816371Y-100707630D01*
X106730051Y-100915512D01*
X106645010Y-100709697D01*
X106252370Y-100316371D01*
X105739100Y-100103243D01*
X105183339Y-100102758D01*
X104669697Y-100314990D01*
X104276371Y-100707630D01*
X104063243Y-101220900D01*
X104062758Y-101776661D01*
X103243092Y-101776661D01*
X103308909Y-101710959D01*
X103634628Y-100926541D01*
X103635370Y-100077185D01*
X103311020Y-99292200D01*
X103145875Y-99126767D01*
X103391652Y-99025214D01*
X104084262Y-98333812D01*
X104459562Y-97429989D01*
X104460083Y-96832643D01*
X110029859Y-96832643D01*
X110088100Y-97183306D01*
X110814362Y-97357860D01*
X111552140Y-97241198D01*
X111691900Y-97183306D01*
X111750141Y-96832643D01*
X110890000Y-95972502D01*
X110029859Y-96832643D01*
X104460083Y-96832643D01*
X104460416Y-96451345D01*
X104086694Y-95546868D01*
X103395292Y-94854258D01*
X102491469Y-94478958D01*
X101512825Y-94478104D01*
X100608348Y-94851826D01*
X99915738Y-95543228D01*
X99540438Y-96447051D01*
X99539584Y-97425695D01*
X99913306Y-98330172D01*
X100281826Y-98699336D01*
X99691091Y-99289041D01*
X99365372Y-100073459D01*
X99364630Y-100922815D01*
X98634631Y-100922815D01*
X98635370Y-100077185D01*
X98311020Y-99292200D01*
X97710959Y-98691091D01*
X96926541Y-98365372D01*
X96077185Y-98364630D01*
X95292200Y-98688980D01*
X94691091Y-99289041D01*
X94365372Y-100073459D01*
X94364630Y-100922815D01*
X93710000Y-100922815D01*
X93710000Y-94099362D01*
X106437140Y-94099362D01*
X106553802Y-94837140D01*
X106611694Y-94976900D01*
X106962357Y-95035141D01*
X107822498Y-94175000D01*
X106962357Y-93314859D01*
X106611694Y-93373100D01*
X106437140Y-94099362D01*
X93710000Y-94099362D01*
X93710000Y-83710000D01*
X99900710Y-83710000D01*
X99540438Y-84577631D01*
M02*
