G04 #@! TF.FileFunction,Copper,L1,Top,Signal*
%FSLAX46Y46*%
G04 Gerber Fmt 4.6, Leading zero omitted, Abs format (unit mm)*
G04 Created by KiCad (PCBNEW 4.0.6) date Mon May  1 22:36:10 2017*
%MOMM*%
%LPD*%
G01*
G04 APERTURE LIST*
%ADD10C,0.100000*%
%ADD11O,1.600000X1.600000*%
%ADD12C,3.649980*%
%ADD13R,1.501140X1.501140*%
%ADD14C,1.501140*%
%ADD15C,1.998980*%
%ADD16C,1.524000*%
%ADD17C,1.600000*%
%ADD18R,1.850000X1.850000*%
%ADD19C,1.850000*%
%ADD20C,0.500000*%
%ADD21C,0.254000*%
G04 APERTURE END LIST*
D10*
D11*
X116205000Y-98425000D03*
X118745000Y-98425000D03*
X121285000Y-98425000D03*
X123825000Y-98425000D03*
X123825000Y-90805000D03*
X121285000Y-90805000D03*
X118745000Y-90805000D03*
X116205000Y-90805000D03*
D12*
X96520000Y-97378520D03*
X96520000Y-85509100D03*
D13*
X102870000Y-86995000D03*
D14*
X105410000Y-88265000D03*
X102870000Y-89535000D03*
X105410000Y-90805000D03*
X102870000Y-92075000D03*
X105410000Y-93345000D03*
X102870000Y-94615000D03*
X105410000Y-95885000D03*
D15*
X116205000Y-85090000D03*
X123825000Y-85090000D03*
D16*
X134620000Y-84455000D03*
X137160000Y-84455000D03*
X139700000Y-84455000D03*
D17*
X116205000Y-88265000D03*
D11*
X123705000Y-88265000D03*
D18*
X134620000Y-88900000D03*
D19*
X134620000Y-91400000D03*
X134620000Y-93900000D03*
D20*
X117465300Y-97164700D02*
X116205000Y-98425000D01*
X122564700Y-97164700D02*
X117465300Y-97164700D01*
X123825000Y-98425000D02*
X122564700Y-97164700D01*
X106015000Y-89535000D02*
X102870000Y-89535000D01*
X114905000Y-98425000D02*
X106015000Y-89535000D01*
X116205000Y-98425000D02*
X114905000Y-98425000D01*
X121285000Y-90805000D02*
X121285000Y-89505000D01*
X121285000Y-89505000D02*
X120347500Y-88567500D01*
X123825000Y-85090000D02*
X120347500Y-88567500D01*
X118775000Y-86995000D02*
X102870000Y-86995000D01*
X120347500Y-88567500D02*
X118775000Y-86995000D01*
X121285000Y-98425000D02*
X118745000Y-98425000D01*
D21*
G36*
X144018000Y-102108000D02*
X136436906Y-102108000D01*
X136437242Y-101723339D01*
X136225010Y-101209697D01*
X135832370Y-100816371D01*
X135319100Y-100603243D01*
X134763339Y-100602758D01*
X134249697Y-100814990D01*
X133856371Y-101207630D01*
X133770051Y-101415512D01*
X133685010Y-101209697D01*
X133292370Y-100816371D01*
X132779100Y-100603243D01*
X132223339Y-100602758D01*
X131709697Y-100814990D01*
X131387414Y-101136711D01*
X131356106Y-101131396D01*
X130487502Y-102000000D01*
X130501644Y-102014142D01*
X130407786Y-102108000D01*
X129512214Y-102108000D01*
X129418356Y-102014142D01*
X129432498Y-102000000D01*
X128563894Y-101131396D01*
X128212082Y-101191117D01*
X128035589Y-101921589D01*
X128064836Y-102108000D01*
X92202000Y-102108000D01*
X92202000Y-100603894D01*
X129091396Y-100603894D01*
X129960000Y-101472498D01*
X130828604Y-100603894D01*
X130768883Y-100252082D01*
X130038411Y-100075589D01*
X129296003Y-100192069D01*
X129151117Y-100252082D01*
X129091396Y-100603894D01*
X92202000Y-100603894D01*
X92202000Y-83185000D01*
X93270000Y-83185000D01*
X93270000Y-99695000D01*
X93324046Y-99966705D01*
X93477954Y-100197046D01*
X93708295Y-100350954D01*
X93980000Y-100405000D01*
X106045000Y-100405000D01*
X106316705Y-100350954D01*
X106547046Y-100197046D01*
X107609092Y-99135000D01*
X113370908Y-99135000D01*
X114432954Y-100197046D01*
X114663295Y-100350954D01*
X114935000Y-100405000D01*
X124460000Y-100405000D01*
X124731705Y-100350954D01*
X124962046Y-100197046D01*
X126024092Y-99135000D01*
X131785908Y-99135000D01*
X132847954Y-100197046D01*
X133078295Y-100350954D01*
X133350000Y-100405000D01*
X142240000Y-100405000D01*
X142511705Y-100350954D01*
X142742046Y-100197046D01*
X142895954Y-99966705D01*
X142950000Y-99695000D01*
X142950000Y-83185000D01*
X142895954Y-82913295D01*
X142742046Y-82682954D01*
X142511705Y-82529046D01*
X142240000Y-82475000D01*
X133350000Y-82475000D01*
X133078295Y-82529046D01*
X132847954Y-82682954D01*
X131785908Y-83745000D01*
X126024092Y-83745000D01*
X124962046Y-82682954D01*
X124731705Y-82529046D01*
X124460000Y-82475000D01*
X114935000Y-82475000D01*
X114663295Y-82529046D01*
X114432954Y-82682954D01*
X113370908Y-83745000D01*
X107609092Y-83745000D01*
X106547046Y-82682954D01*
X106316705Y-82529046D01*
X106045000Y-82475000D01*
X93980000Y-82475000D01*
X93708295Y-82529046D01*
X93477954Y-82682954D01*
X93324046Y-82913295D01*
X93270000Y-83185000D01*
X92202000Y-83185000D01*
X92202000Y-79502000D01*
X144018000Y-79502000D01*
X144018000Y-102108000D01*
X144018000Y-102108000D01*
G37*
X144018000Y-102108000D02*
X136436906Y-102108000D01*
X136437242Y-101723339D01*
X136225010Y-101209697D01*
X135832370Y-100816371D01*
X135319100Y-100603243D01*
X134763339Y-100602758D01*
X134249697Y-100814990D01*
X133856371Y-101207630D01*
X133770051Y-101415512D01*
X133685010Y-101209697D01*
X133292370Y-100816371D01*
X132779100Y-100603243D01*
X132223339Y-100602758D01*
X131709697Y-100814990D01*
X131387414Y-101136711D01*
X131356106Y-101131396D01*
X130487502Y-102000000D01*
X130501644Y-102014142D01*
X130407786Y-102108000D01*
X129512214Y-102108000D01*
X129418356Y-102014142D01*
X129432498Y-102000000D01*
X128563894Y-101131396D01*
X128212082Y-101191117D01*
X128035589Y-101921589D01*
X128064836Y-102108000D01*
X92202000Y-102108000D01*
X92202000Y-100603894D01*
X129091396Y-100603894D01*
X129960000Y-101472498D01*
X130828604Y-100603894D01*
X130768883Y-100252082D01*
X130038411Y-100075589D01*
X129296003Y-100192069D01*
X129151117Y-100252082D01*
X129091396Y-100603894D01*
X92202000Y-100603894D01*
X92202000Y-83185000D01*
X93270000Y-83185000D01*
X93270000Y-99695000D01*
X93324046Y-99966705D01*
X93477954Y-100197046D01*
X93708295Y-100350954D01*
X93980000Y-100405000D01*
X106045000Y-100405000D01*
X106316705Y-100350954D01*
X106547046Y-100197046D01*
X107609092Y-99135000D01*
X113370908Y-99135000D01*
X114432954Y-100197046D01*
X114663295Y-100350954D01*
X114935000Y-100405000D01*
X124460000Y-100405000D01*
X124731705Y-100350954D01*
X124962046Y-100197046D01*
X126024092Y-99135000D01*
X131785908Y-99135000D01*
X132847954Y-100197046D01*
X133078295Y-100350954D01*
X133350000Y-100405000D01*
X142240000Y-100405000D01*
X142511705Y-100350954D01*
X142742046Y-100197046D01*
X142895954Y-99966705D01*
X142950000Y-99695000D01*
X142950000Y-83185000D01*
X142895954Y-82913295D01*
X142742046Y-82682954D01*
X142511705Y-82529046D01*
X142240000Y-82475000D01*
X133350000Y-82475000D01*
X133078295Y-82529046D01*
X132847954Y-82682954D01*
X131785908Y-83745000D01*
X126024092Y-83745000D01*
X124962046Y-82682954D01*
X124731705Y-82529046D01*
X124460000Y-82475000D01*
X114935000Y-82475000D01*
X114663295Y-82529046D01*
X114432954Y-82682954D01*
X113370908Y-83745000D01*
X107609092Y-83745000D01*
X106547046Y-82682954D01*
X106316705Y-82529046D01*
X106045000Y-82475000D01*
X93980000Y-82475000D01*
X93708295Y-82529046D01*
X93477954Y-82682954D01*
X93324046Y-82913295D01*
X93270000Y-83185000D01*
X92202000Y-83185000D01*
X92202000Y-79502000D01*
X144018000Y-79502000D01*
X144018000Y-102108000D01*
G36*
X106812954Y-84957046D02*
X107043295Y-85110954D01*
X107315000Y-85165000D01*
X113665000Y-85165000D01*
X113936705Y-85110954D01*
X114167046Y-84957046D01*
X114720023Y-84404069D01*
X114570794Y-84763453D01*
X114570226Y-85413694D01*
X114818538Y-86014655D01*
X115277927Y-86474846D01*
X115367990Y-86512243D01*
X115308284Y-86840782D01*
X116205000Y-87737498D01*
X117101716Y-86840782D01*
X117042084Y-86512646D01*
X117129655Y-86476462D01*
X117589846Y-86017073D01*
X117839206Y-85416547D01*
X117839774Y-84766306D01*
X117591462Y-84165345D01*
X117321588Y-83895000D01*
X122708549Y-83895000D01*
X122440154Y-84162927D01*
X122190794Y-84763453D01*
X122190226Y-85413694D01*
X122438538Y-86014655D01*
X122897927Y-86474846D01*
X123498453Y-86724206D01*
X124148694Y-86724774D01*
X124749655Y-86476462D01*
X125209846Y-86017073D01*
X125459206Y-85416547D01*
X125459473Y-85111188D01*
X125730000Y-85165000D01*
X132080000Y-85165000D01*
X132351705Y-85110954D01*
X132582046Y-84957046D01*
X133644092Y-83895000D01*
X141530000Y-83895000D01*
X141530000Y-98985000D01*
X133644092Y-98985000D01*
X132582046Y-97922954D01*
X132351705Y-97769046D01*
X132080000Y-97715000D01*
X125730000Y-97715000D01*
X125458295Y-97769046D01*
X125227954Y-97922954D01*
X125176053Y-97974855D01*
X125150767Y-97847736D01*
X124839698Y-97382189D01*
X124374151Y-97071120D01*
X123825000Y-96961887D01*
X123275849Y-97071120D01*
X122810302Y-97382189D01*
X122555000Y-97764275D01*
X122299698Y-97382189D01*
X121834151Y-97071120D01*
X121285000Y-96961887D01*
X120735849Y-97071120D01*
X120270302Y-97382189D01*
X120015000Y-97764275D01*
X119759698Y-97382189D01*
X119294151Y-97071120D01*
X118745000Y-96961887D01*
X118195849Y-97071120D01*
X117730302Y-97382189D01*
X117475000Y-97764275D01*
X117219698Y-97382189D01*
X116754151Y-97071120D01*
X116205000Y-96961887D01*
X115655849Y-97071120D01*
X115190302Y-97382189D01*
X114879233Y-97847736D01*
X114770000Y-98396887D01*
X114770000Y-98453113D01*
X114788075Y-98543983D01*
X114167046Y-97922954D01*
X113936705Y-97769046D01*
X113665000Y-97715000D01*
X107315000Y-97715000D01*
X107043295Y-97769046D01*
X106812954Y-97922954D01*
X105750908Y-98985000D01*
X98392705Y-98985000D01*
X98604262Y-98773812D01*
X98979562Y-97869989D01*
X98980416Y-96891345D01*
X98606694Y-95986868D01*
X97915292Y-95294258D01*
X97011469Y-94918958D01*
X96032825Y-94918104D01*
X95128348Y-95291826D01*
X94690000Y-95729409D01*
X94690000Y-91999362D01*
X100957140Y-91999362D01*
X101073802Y-92737140D01*
X101131694Y-92876900D01*
X101482357Y-92935141D01*
X102342498Y-92075000D01*
X101482357Y-91214859D01*
X101131694Y-91273100D01*
X100957140Y-91999362D01*
X94690000Y-91999362D01*
X94690000Y-87157894D01*
X95124708Y-87593362D01*
X96028531Y-87968662D01*
X97007175Y-87969516D01*
X97911652Y-87595794D01*
X98604262Y-86904392D01*
X98878302Y-86244430D01*
X101471990Y-86244430D01*
X101471990Y-87745570D01*
X101516268Y-87980887D01*
X101655340Y-88197011D01*
X101867540Y-88342001D01*
X102064021Y-88381789D01*
X101696056Y-88749113D01*
X101484671Y-89258184D01*
X101484190Y-89809398D01*
X101694686Y-90318837D01*
X102017377Y-90642092D01*
X102009859Y-90687357D01*
X102870000Y-91547498D01*
X102884142Y-91533356D01*
X103411644Y-92060858D01*
X103397502Y-92075000D01*
X103411644Y-92089142D01*
X102884142Y-92616644D01*
X102870000Y-92602502D01*
X102009859Y-93462643D01*
X102017440Y-93508289D01*
X101696056Y-93829113D01*
X101484671Y-94338184D01*
X101484190Y-94889398D01*
X101694686Y-95398837D01*
X102084113Y-95788944D01*
X102593184Y-96000329D01*
X103144398Y-96000810D01*
X103653837Y-95790314D01*
X104043944Y-95400887D01*
X104254654Y-94893441D01*
X104321859Y-94960646D01*
X104549859Y-94732645D01*
X104557440Y-94778289D01*
X104236056Y-95099113D01*
X104024671Y-95608184D01*
X104024190Y-96159398D01*
X104234686Y-96668837D01*
X104624113Y-97058944D01*
X105133184Y-97270329D01*
X105684398Y-97270810D01*
X106193837Y-97060314D01*
X106583944Y-96670887D01*
X106795329Y-96161816D01*
X106795810Y-95610602D01*
X106585314Y-95101163D01*
X106262623Y-94777908D01*
X106270141Y-94732643D01*
X105410000Y-93872502D01*
X105395858Y-93886644D01*
X104868356Y-93359142D01*
X104882498Y-93345000D01*
X105937502Y-93345000D01*
X106797643Y-94205141D01*
X107148306Y-94146900D01*
X107322860Y-93420638D01*
X107206198Y-92682860D01*
X107148306Y-92543100D01*
X106797643Y-92484859D01*
X105937502Y-93345000D01*
X104882498Y-93345000D01*
X104868356Y-93330858D01*
X105395858Y-92803356D01*
X105410000Y-92817498D01*
X106270141Y-91957357D01*
X106262560Y-91911711D01*
X106583944Y-91590887D01*
X106634489Y-91469159D01*
X114396048Y-91469159D01*
X114787909Y-92110859D01*
X115395509Y-92553754D01*
X115540844Y-92613929D01*
X115832000Y-92407410D01*
X115832000Y-91178000D01*
X114596172Y-91178000D01*
X114396048Y-91469159D01*
X106634489Y-91469159D01*
X106795329Y-91081816D01*
X106795810Y-90530602D01*
X106585314Y-90021163D01*
X106195887Y-89631056D01*
X105964619Y-89535025D01*
X106193837Y-89440314D01*
X106583944Y-89050887D01*
X106795329Y-88541816D01*
X106795647Y-88177373D01*
X114242204Y-88177373D01*
X114358080Y-88935173D01*
X114425146Y-89097086D01*
X114780780Y-89161716D01*
X114553718Y-89388778D01*
X114740961Y-89576021D01*
X114396048Y-90140841D01*
X114596172Y-90432000D01*
X115832000Y-90432000D01*
X115832000Y-90412000D01*
X116578000Y-90412000D01*
X116578000Y-90432000D01*
X116598000Y-90432000D01*
X116598000Y-91178000D01*
X116578000Y-91178000D01*
X116578000Y-92407410D01*
X116869156Y-92613929D01*
X117014491Y-92553754D01*
X117622091Y-92110859D01*
X117767533Y-91872688D01*
X118195849Y-92158880D01*
X118745000Y-92268113D01*
X119294151Y-92158880D01*
X119759698Y-91847811D01*
X120015000Y-91465725D01*
X120270302Y-91847811D01*
X120735849Y-92158880D01*
X121285000Y-92268113D01*
X121834151Y-92158880D01*
X122299698Y-91847811D01*
X122555000Y-91465725D01*
X122810302Y-91847811D01*
X123275849Y-92158880D01*
X123825000Y-92268113D01*
X124374151Y-92158880D01*
X124839698Y-91847811D01*
X125150767Y-91382264D01*
X125260000Y-90833113D01*
X125260000Y-90776887D01*
X125150767Y-90227736D01*
X124839698Y-89762189D01*
X124529245Y-89554750D01*
X132568000Y-89554750D01*
X132568000Y-90049174D01*
X132739575Y-90463394D01*
X133056606Y-90780424D01*
X133168826Y-90826907D01*
X133060272Y-91088336D01*
X133059730Y-91708942D01*
X133296725Y-92282514D01*
X133663826Y-92650256D01*
X133298268Y-93015177D01*
X133060272Y-93588336D01*
X133059730Y-94208942D01*
X133296725Y-94782514D01*
X133735177Y-95221732D01*
X134308336Y-95459728D01*
X134928942Y-95460270D01*
X135502514Y-95223275D01*
X135941732Y-94784823D01*
X136179728Y-94211664D01*
X136180270Y-93591058D01*
X135943275Y-93017486D01*
X135576174Y-92649744D01*
X135941732Y-92284823D01*
X136179728Y-91711664D01*
X136180270Y-91091058D01*
X136071132Y-90826924D01*
X136183394Y-90780424D01*
X136500425Y-90463394D01*
X136672000Y-90049174D01*
X136672000Y-89554750D01*
X136390250Y-89273000D01*
X134993000Y-89273000D01*
X134993000Y-89293000D01*
X134247000Y-89293000D01*
X134247000Y-89273000D01*
X132849750Y-89273000D01*
X132568000Y-89554750D01*
X124529245Y-89554750D01*
X124432706Y-89490245D01*
X124747811Y-89279698D01*
X125058880Y-88814151D01*
X125168113Y-88265000D01*
X125065838Y-87750826D01*
X132568000Y-87750826D01*
X132568000Y-88245250D01*
X132849750Y-88527000D01*
X134247000Y-88527000D01*
X134247000Y-87129750D01*
X134993000Y-87129750D01*
X134993000Y-88527000D01*
X136390250Y-88527000D01*
X136672000Y-88245250D01*
X136672000Y-87750826D01*
X136500425Y-87336606D01*
X136183394Y-87019576D01*
X135769174Y-86848000D01*
X135274750Y-86848000D01*
X134993000Y-87129750D01*
X134247000Y-87129750D01*
X133965250Y-86848000D01*
X133470826Y-86848000D01*
X133056606Y-87019576D01*
X132739575Y-87336606D01*
X132568000Y-87750826D01*
X125065838Y-87750826D01*
X125058880Y-87715849D01*
X124747811Y-87250302D01*
X124282264Y-86939233D01*
X123733113Y-86830000D01*
X123676887Y-86830000D01*
X123127736Y-86939233D01*
X122662189Y-87250302D01*
X122351120Y-87715849D01*
X122241887Y-88265000D01*
X122351120Y-88814151D01*
X122662189Y-89279698D01*
X123097294Y-89570427D01*
X122810302Y-89762189D01*
X122555000Y-90144275D01*
X122299698Y-89762189D01*
X121834151Y-89451120D01*
X121285000Y-89341887D01*
X120735849Y-89451120D01*
X120270302Y-89762189D01*
X120015000Y-90144275D01*
X119759698Y-89762189D01*
X119294151Y-89451120D01*
X118745000Y-89341887D01*
X118195849Y-89451120D01*
X117767533Y-89737312D01*
X117669039Y-89576021D01*
X117856282Y-89388778D01*
X117629220Y-89161716D01*
X117984854Y-89097086D01*
X118167796Y-88352627D01*
X118051920Y-87594827D01*
X117984854Y-87432914D01*
X117629218Y-87368284D01*
X116732502Y-88265000D01*
X116746644Y-88279142D01*
X116219142Y-88806644D01*
X116205000Y-88792502D01*
X116190858Y-88806644D01*
X115663356Y-88279142D01*
X115677498Y-88265000D01*
X114780782Y-87368284D01*
X114425146Y-87432914D01*
X114242204Y-88177373D01*
X106795647Y-88177373D01*
X106795810Y-87990602D01*
X106585314Y-87481163D01*
X106195887Y-87091056D01*
X105686816Y-86879671D01*
X105135602Y-86879190D01*
X104626163Y-87089686D01*
X104268010Y-87447215D01*
X104268010Y-86244430D01*
X104223732Y-86009113D01*
X104084660Y-85792989D01*
X103872460Y-85647999D01*
X103620570Y-85596990D01*
X102119430Y-85596990D01*
X101884113Y-85641268D01*
X101667989Y-85780340D01*
X101522999Y-85992540D01*
X101471990Y-86244430D01*
X98878302Y-86244430D01*
X98979562Y-86000569D01*
X98980416Y-85021925D01*
X98606694Y-84117448D01*
X98384634Y-83895000D01*
X105750908Y-83895000D01*
X106812954Y-84957046D01*
X106812954Y-84957046D01*
G37*
X106812954Y-84957046D02*
X107043295Y-85110954D01*
X107315000Y-85165000D01*
X113665000Y-85165000D01*
X113936705Y-85110954D01*
X114167046Y-84957046D01*
X114720023Y-84404069D01*
X114570794Y-84763453D01*
X114570226Y-85413694D01*
X114818538Y-86014655D01*
X115277927Y-86474846D01*
X115367990Y-86512243D01*
X115308284Y-86840782D01*
X116205000Y-87737498D01*
X117101716Y-86840782D01*
X117042084Y-86512646D01*
X117129655Y-86476462D01*
X117589846Y-86017073D01*
X117839206Y-85416547D01*
X117839774Y-84766306D01*
X117591462Y-84165345D01*
X117321588Y-83895000D01*
X122708549Y-83895000D01*
X122440154Y-84162927D01*
X122190794Y-84763453D01*
X122190226Y-85413694D01*
X122438538Y-86014655D01*
X122897927Y-86474846D01*
X123498453Y-86724206D01*
X124148694Y-86724774D01*
X124749655Y-86476462D01*
X125209846Y-86017073D01*
X125459206Y-85416547D01*
X125459473Y-85111188D01*
X125730000Y-85165000D01*
X132080000Y-85165000D01*
X132351705Y-85110954D01*
X132582046Y-84957046D01*
X133644092Y-83895000D01*
X141530000Y-83895000D01*
X141530000Y-98985000D01*
X133644092Y-98985000D01*
X132582046Y-97922954D01*
X132351705Y-97769046D01*
X132080000Y-97715000D01*
X125730000Y-97715000D01*
X125458295Y-97769046D01*
X125227954Y-97922954D01*
X125176053Y-97974855D01*
X125150767Y-97847736D01*
X124839698Y-97382189D01*
X124374151Y-97071120D01*
X123825000Y-96961887D01*
X123275849Y-97071120D01*
X122810302Y-97382189D01*
X122555000Y-97764275D01*
X122299698Y-97382189D01*
X121834151Y-97071120D01*
X121285000Y-96961887D01*
X120735849Y-97071120D01*
X120270302Y-97382189D01*
X120015000Y-97764275D01*
X119759698Y-97382189D01*
X119294151Y-97071120D01*
X118745000Y-96961887D01*
X118195849Y-97071120D01*
X117730302Y-97382189D01*
X117475000Y-97764275D01*
X117219698Y-97382189D01*
X116754151Y-97071120D01*
X116205000Y-96961887D01*
X115655849Y-97071120D01*
X115190302Y-97382189D01*
X114879233Y-97847736D01*
X114770000Y-98396887D01*
X114770000Y-98453113D01*
X114788075Y-98543983D01*
X114167046Y-97922954D01*
X113936705Y-97769046D01*
X113665000Y-97715000D01*
X107315000Y-97715000D01*
X107043295Y-97769046D01*
X106812954Y-97922954D01*
X105750908Y-98985000D01*
X98392705Y-98985000D01*
X98604262Y-98773812D01*
X98979562Y-97869989D01*
X98980416Y-96891345D01*
X98606694Y-95986868D01*
X97915292Y-95294258D01*
X97011469Y-94918958D01*
X96032825Y-94918104D01*
X95128348Y-95291826D01*
X94690000Y-95729409D01*
X94690000Y-91999362D01*
X100957140Y-91999362D01*
X101073802Y-92737140D01*
X101131694Y-92876900D01*
X101482357Y-92935141D01*
X102342498Y-92075000D01*
X101482357Y-91214859D01*
X101131694Y-91273100D01*
X100957140Y-91999362D01*
X94690000Y-91999362D01*
X94690000Y-87157894D01*
X95124708Y-87593362D01*
X96028531Y-87968662D01*
X97007175Y-87969516D01*
X97911652Y-87595794D01*
X98604262Y-86904392D01*
X98878302Y-86244430D01*
X101471990Y-86244430D01*
X101471990Y-87745570D01*
X101516268Y-87980887D01*
X101655340Y-88197011D01*
X101867540Y-88342001D01*
X102064021Y-88381789D01*
X101696056Y-88749113D01*
X101484671Y-89258184D01*
X101484190Y-89809398D01*
X101694686Y-90318837D01*
X102017377Y-90642092D01*
X102009859Y-90687357D01*
X102870000Y-91547498D01*
X102884142Y-91533356D01*
X103411644Y-92060858D01*
X103397502Y-92075000D01*
X103411644Y-92089142D01*
X102884142Y-92616644D01*
X102870000Y-92602502D01*
X102009859Y-93462643D01*
X102017440Y-93508289D01*
X101696056Y-93829113D01*
X101484671Y-94338184D01*
X101484190Y-94889398D01*
X101694686Y-95398837D01*
X102084113Y-95788944D01*
X102593184Y-96000329D01*
X103144398Y-96000810D01*
X103653837Y-95790314D01*
X104043944Y-95400887D01*
X104254654Y-94893441D01*
X104321859Y-94960646D01*
X104549859Y-94732645D01*
X104557440Y-94778289D01*
X104236056Y-95099113D01*
X104024671Y-95608184D01*
X104024190Y-96159398D01*
X104234686Y-96668837D01*
X104624113Y-97058944D01*
X105133184Y-97270329D01*
X105684398Y-97270810D01*
X106193837Y-97060314D01*
X106583944Y-96670887D01*
X106795329Y-96161816D01*
X106795810Y-95610602D01*
X106585314Y-95101163D01*
X106262623Y-94777908D01*
X106270141Y-94732643D01*
X105410000Y-93872502D01*
X105395858Y-93886644D01*
X104868356Y-93359142D01*
X104882498Y-93345000D01*
X105937502Y-93345000D01*
X106797643Y-94205141D01*
X107148306Y-94146900D01*
X107322860Y-93420638D01*
X107206198Y-92682860D01*
X107148306Y-92543100D01*
X106797643Y-92484859D01*
X105937502Y-93345000D01*
X104882498Y-93345000D01*
X104868356Y-93330858D01*
X105395858Y-92803356D01*
X105410000Y-92817498D01*
X106270141Y-91957357D01*
X106262560Y-91911711D01*
X106583944Y-91590887D01*
X106634489Y-91469159D01*
X114396048Y-91469159D01*
X114787909Y-92110859D01*
X115395509Y-92553754D01*
X115540844Y-92613929D01*
X115832000Y-92407410D01*
X115832000Y-91178000D01*
X114596172Y-91178000D01*
X114396048Y-91469159D01*
X106634489Y-91469159D01*
X106795329Y-91081816D01*
X106795810Y-90530602D01*
X106585314Y-90021163D01*
X106195887Y-89631056D01*
X105964619Y-89535025D01*
X106193837Y-89440314D01*
X106583944Y-89050887D01*
X106795329Y-88541816D01*
X106795647Y-88177373D01*
X114242204Y-88177373D01*
X114358080Y-88935173D01*
X114425146Y-89097086D01*
X114780780Y-89161716D01*
X114553718Y-89388778D01*
X114740961Y-89576021D01*
X114396048Y-90140841D01*
X114596172Y-90432000D01*
X115832000Y-90432000D01*
X115832000Y-90412000D01*
X116578000Y-90412000D01*
X116578000Y-90432000D01*
X116598000Y-90432000D01*
X116598000Y-91178000D01*
X116578000Y-91178000D01*
X116578000Y-92407410D01*
X116869156Y-92613929D01*
X117014491Y-92553754D01*
X117622091Y-92110859D01*
X117767533Y-91872688D01*
X118195849Y-92158880D01*
X118745000Y-92268113D01*
X119294151Y-92158880D01*
X119759698Y-91847811D01*
X120015000Y-91465725D01*
X120270302Y-91847811D01*
X120735849Y-92158880D01*
X121285000Y-92268113D01*
X121834151Y-92158880D01*
X122299698Y-91847811D01*
X122555000Y-91465725D01*
X122810302Y-91847811D01*
X123275849Y-92158880D01*
X123825000Y-92268113D01*
X124374151Y-92158880D01*
X124839698Y-91847811D01*
X125150767Y-91382264D01*
X125260000Y-90833113D01*
X125260000Y-90776887D01*
X125150767Y-90227736D01*
X124839698Y-89762189D01*
X124529245Y-89554750D01*
X132568000Y-89554750D01*
X132568000Y-90049174D01*
X132739575Y-90463394D01*
X133056606Y-90780424D01*
X133168826Y-90826907D01*
X133060272Y-91088336D01*
X133059730Y-91708942D01*
X133296725Y-92282514D01*
X133663826Y-92650256D01*
X133298268Y-93015177D01*
X133060272Y-93588336D01*
X133059730Y-94208942D01*
X133296725Y-94782514D01*
X133735177Y-95221732D01*
X134308336Y-95459728D01*
X134928942Y-95460270D01*
X135502514Y-95223275D01*
X135941732Y-94784823D01*
X136179728Y-94211664D01*
X136180270Y-93591058D01*
X135943275Y-93017486D01*
X135576174Y-92649744D01*
X135941732Y-92284823D01*
X136179728Y-91711664D01*
X136180270Y-91091058D01*
X136071132Y-90826924D01*
X136183394Y-90780424D01*
X136500425Y-90463394D01*
X136672000Y-90049174D01*
X136672000Y-89554750D01*
X136390250Y-89273000D01*
X134993000Y-89273000D01*
X134993000Y-89293000D01*
X134247000Y-89293000D01*
X134247000Y-89273000D01*
X132849750Y-89273000D01*
X132568000Y-89554750D01*
X124529245Y-89554750D01*
X124432706Y-89490245D01*
X124747811Y-89279698D01*
X125058880Y-88814151D01*
X125168113Y-88265000D01*
X125065838Y-87750826D01*
X132568000Y-87750826D01*
X132568000Y-88245250D01*
X132849750Y-88527000D01*
X134247000Y-88527000D01*
X134247000Y-87129750D01*
X134993000Y-87129750D01*
X134993000Y-88527000D01*
X136390250Y-88527000D01*
X136672000Y-88245250D01*
X136672000Y-87750826D01*
X136500425Y-87336606D01*
X136183394Y-87019576D01*
X135769174Y-86848000D01*
X135274750Y-86848000D01*
X134993000Y-87129750D01*
X134247000Y-87129750D01*
X133965250Y-86848000D01*
X133470826Y-86848000D01*
X133056606Y-87019576D01*
X132739575Y-87336606D01*
X132568000Y-87750826D01*
X125065838Y-87750826D01*
X125058880Y-87715849D01*
X124747811Y-87250302D01*
X124282264Y-86939233D01*
X123733113Y-86830000D01*
X123676887Y-86830000D01*
X123127736Y-86939233D01*
X122662189Y-87250302D01*
X122351120Y-87715849D01*
X122241887Y-88265000D01*
X122351120Y-88814151D01*
X122662189Y-89279698D01*
X123097294Y-89570427D01*
X122810302Y-89762189D01*
X122555000Y-90144275D01*
X122299698Y-89762189D01*
X121834151Y-89451120D01*
X121285000Y-89341887D01*
X120735849Y-89451120D01*
X120270302Y-89762189D01*
X120015000Y-90144275D01*
X119759698Y-89762189D01*
X119294151Y-89451120D01*
X118745000Y-89341887D01*
X118195849Y-89451120D01*
X117767533Y-89737312D01*
X117669039Y-89576021D01*
X117856282Y-89388778D01*
X117629220Y-89161716D01*
X117984854Y-89097086D01*
X118167796Y-88352627D01*
X118051920Y-87594827D01*
X117984854Y-87432914D01*
X117629218Y-87368284D01*
X116732502Y-88265000D01*
X116746644Y-88279142D01*
X116219142Y-88806644D01*
X116205000Y-88792502D01*
X116190858Y-88806644D01*
X115663356Y-88279142D01*
X115677498Y-88265000D01*
X114780782Y-87368284D01*
X114425146Y-87432914D01*
X114242204Y-88177373D01*
X106795647Y-88177373D01*
X106795810Y-87990602D01*
X106585314Y-87481163D01*
X106195887Y-87091056D01*
X105686816Y-86879671D01*
X105135602Y-86879190D01*
X104626163Y-87089686D01*
X104268010Y-87447215D01*
X104268010Y-86244430D01*
X104223732Y-86009113D01*
X104084660Y-85792989D01*
X103872460Y-85647999D01*
X103620570Y-85596990D01*
X102119430Y-85596990D01*
X101884113Y-85641268D01*
X101667989Y-85780340D01*
X101522999Y-85992540D01*
X101471990Y-86244430D01*
X98878302Y-86244430D01*
X98979562Y-86000569D01*
X98980416Y-85021925D01*
X98606694Y-84117448D01*
X98384634Y-83895000D01*
X105750908Y-83895000D01*
X106812954Y-84957046D01*
M02*
