G04 #@! TF.FileFunction,Legend,Top*
%FSLAX46Y46*%
G04 Gerber Fmt 4.6, Leading zero omitted, Abs format (unit mm)*
G04 Created by KiCad (PCBNEW 4.0.6) date Mon May  1 23:13:11 2017*
%MOMM*%
%LPD*%
G01*
G04 APERTURE LIST*
%ADD10C,0.100000*%
%ADD11C,0.300000*%
%ADD12C,0.150000*%
%ADD13C,0.120000*%
G04 APERTURE END LIST*
D10*
D11*
X171513572Y-97262143D02*
X172656429Y-97262143D01*
X162623572Y-97262143D02*
X163766429Y-97262143D01*
X163195000Y-97833571D02*
X163195000Y-96690714D01*
D12*
X186055000Y-80645000D02*
X188595000Y-80645000D01*
X188595000Y-80645000D02*
X188595000Y-80010000D01*
X188595000Y-80010000D02*
X189865000Y-81280000D01*
X189865000Y-81280000D02*
X188595000Y-82550000D01*
X188595000Y-82550000D02*
X188595000Y-81915000D01*
X188595000Y-81915000D02*
X186055000Y-81915000D01*
X186055000Y-81915000D02*
X186055000Y-80645000D01*
X157640000Y-79430000D02*
X177640000Y-79430000D01*
X177640000Y-79430000D02*
X177640000Y-95830000D01*
X177640000Y-95830000D02*
X157640000Y-95830000D01*
X157640000Y-95830000D02*
X157640000Y-79430000D01*
D13*
X151040000Y-83810000D02*
X145090000Y-83810000D01*
X145090000Y-83810000D02*
X145090000Y-93910000D01*
X145090000Y-93910000D02*
X151040000Y-93910000D01*
X151040000Y-93910000D02*
X151040000Y-83810000D01*
X151040000Y-87110000D02*
X150290000Y-87110000D01*
X150290000Y-87110000D02*
X150290000Y-90610000D01*
X150290000Y-90610000D02*
X151040000Y-90610000D01*
X151040000Y-90610000D02*
X151040000Y-87110000D01*
X151040000Y-83810000D02*
X150290000Y-83810000D01*
X150290000Y-83810000D02*
X150290000Y-85610000D01*
X150290000Y-85610000D02*
X151040000Y-85610000D01*
X151040000Y-85610000D02*
X151040000Y-83810000D01*
X151040000Y-92110000D02*
X150290000Y-92110000D01*
X150290000Y-92110000D02*
X150290000Y-93910000D01*
X150290000Y-93910000D02*
X151040000Y-93910000D01*
X151040000Y-93910000D02*
X151040000Y-92110000D01*
X148790000Y-83810000D02*
X148790000Y-84560000D01*
X148790000Y-84560000D02*
X145840000Y-84560000D01*
X145840000Y-84560000D02*
X145840000Y-88860000D01*
X148790000Y-93910000D02*
X148790000Y-93160000D01*
X148790000Y-93160000D02*
X145840000Y-93160000D01*
X145840000Y-93160000D02*
X145840000Y-88860000D01*
X151340000Y-86010000D02*
X151340000Y-83510000D01*
X151340000Y-83510000D02*
X148840000Y-83510000D01*
X184240000Y-93990000D02*
X190190000Y-93990000D01*
X190190000Y-93990000D02*
X190190000Y-83890000D01*
X190190000Y-83890000D02*
X184240000Y-83890000D01*
X184240000Y-83890000D02*
X184240000Y-93990000D01*
X184240000Y-90690000D02*
X184990000Y-90690000D01*
X184990000Y-90690000D02*
X184990000Y-87190000D01*
X184990000Y-87190000D02*
X184240000Y-87190000D01*
X184240000Y-87190000D02*
X184240000Y-90690000D01*
X184240000Y-93990000D02*
X184990000Y-93990000D01*
X184990000Y-93990000D02*
X184990000Y-92190000D01*
X184990000Y-92190000D02*
X184240000Y-92190000D01*
X184240000Y-92190000D02*
X184240000Y-93990000D01*
X184240000Y-85690000D02*
X184990000Y-85690000D01*
X184990000Y-85690000D02*
X184990000Y-83890000D01*
X184990000Y-83890000D02*
X184240000Y-83890000D01*
X184240000Y-83890000D02*
X184240000Y-85690000D01*
X186490000Y-93990000D02*
X186490000Y-93240000D01*
X186490000Y-93240000D02*
X189440000Y-93240000D01*
X189440000Y-93240000D02*
X189440000Y-88940000D01*
X186490000Y-83890000D02*
X186490000Y-84640000D01*
X186490000Y-84640000D02*
X189440000Y-84640000D01*
X189440000Y-84640000D02*
X189440000Y-88940000D01*
X183940000Y-91790000D02*
X183940000Y-94290000D01*
X183940000Y-94290000D02*
X186440000Y-94290000D01*
D12*
X146685000Y-80645000D02*
X149225000Y-80645000D01*
X149225000Y-80645000D02*
X149225000Y-80010000D01*
X149225000Y-80010000D02*
X150495000Y-81280000D01*
X150495000Y-81280000D02*
X149225000Y-82550000D01*
X149225000Y-82550000D02*
X149225000Y-81915000D01*
X149225000Y-81915000D02*
X146685000Y-81915000D01*
X146685000Y-81915000D02*
X146685000Y-80645000D01*
X165036667Y-71572381D02*
X164703333Y-71096190D01*
X164465238Y-71572381D02*
X164465238Y-70572381D01*
X164846191Y-70572381D01*
X164941429Y-70620000D01*
X164989048Y-70667619D01*
X165036667Y-70762857D01*
X165036667Y-70905714D01*
X164989048Y-71000952D01*
X164941429Y-71048571D01*
X164846191Y-71096190D01*
X164465238Y-71096190D01*
X165465238Y-71048571D02*
X165798572Y-71048571D01*
X165941429Y-71572381D02*
X165465238Y-71572381D01*
X165465238Y-70572381D01*
X165941429Y-70572381D01*
X166703334Y-71048571D02*
X166370000Y-71048571D01*
X166370000Y-71572381D02*
X166370000Y-70572381D01*
X166846191Y-70572381D01*
X167370000Y-70572381D02*
X167370000Y-70810476D01*
X167131905Y-70715238D02*
X167370000Y-70810476D01*
X167608096Y-70715238D01*
X167227143Y-71000952D02*
X167370000Y-70810476D01*
X167512858Y-71000952D01*
X168131905Y-70572381D02*
X168131905Y-70810476D01*
X167893810Y-70715238D02*
X168131905Y-70810476D01*
X168370001Y-70715238D01*
X167989048Y-71000952D02*
X168131905Y-70810476D01*
X168274763Y-71000952D01*
X167306667Y-80097381D02*
X167306667Y-80811667D01*
X167259047Y-80954524D01*
X167163809Y-81049762D01*
X167020952Y-81097381D01*
X166925714Y-81097381D01*
X168306667Y-81097381D02*
X167735238Y-81097381D01*
X168020952Y-81097381D02*
X168020952Y-80097381D01*
X167925714Y-80240238D01*
X167830476Y-80335476D01*
X167735238Y-80383095D01*
X151542381Y-89193333D02*
X152256667Y-89193333D01*
X152399524Y-89240953D01*
X152494762Y-89336191D01*
X152542381Y-89479048D01*
X152542381Y-89574286D01*
X151637619Y-88764762D02*
X151590000Y-88717143D01*
X151542381Y-88621905D01*
X151542381Y-88383809D01*
X151590000Y-88288571D01*
X151637619Y-88240952D01*
X151732857Y-88193333D01*
X151828095Y-88193333D01*
X151970952Y-88240952D01*
X152542381Y-88812381D01*
X152542381Y-88193333D01*
X182642381Y-89273333D02*
X183356667Y-89273333D01*
X183499524Y-89320953D01*
X183594762Y-89416191D01*
X183642381Y-89559048D01*
X183642381Y-89654286D01*
X182642381Y-88892381D02*
X182642381Y-88273333D01*
X183023333Y-88606667D01*
X183023333Y-88463809D01*
X183070952Y-88368571D01*
X183118571Y-88320952D01*
X183213810Y-88273333D01*
X183451905Y-88273333D01*
X183547143Y-88320952D01*
X183594762Y-88368571D01*
X183642381Y-88463809D01*
X183642381Y-88749524D01*
X183594762Y-88844762D01*
X183547143Y-88892381D01*
X125666667Y-71572381D02*
X125333333Y-71096190D01*
X125095238Y-71572381D02*
X125095238Y-70572381D01*
X125476191Y-70572381D01*
X125571429Y-70620000D01*
X125619048Y-70667619D01*
X125666667Y-70762857D01*
X125666667Y-70905714D01*
X125619048Y-71000952D01*
X125571429Y-71048571D01*
X125476191Y-71096190D01*
X125095238Y-71096190D01*
X126095238Y-71048571D02*
X126428572Y-71048571D01*
X126571429Y-71572381D02*
X126095238Y-71572381D01*
X126095238Y-70572381D01*
X126571429Y-70572381D01*
X127333334Y-71048571D02*
X127000000Y-71048571D01*
X127000000Y-71572381D02*
X127000000Y-70572381D01*
X127476191Y-70572381D01*
X128000000Y-70572381D02*
X128000000Y-70810476D01*
X127761905Y-70715238D02*
X128000000Y-70810476D01*
X128238096Y-70715238D01*
X127857143Y-71000952D02*
X128000000Y-70810476D01*
X128142858Y-71000952D01*
X128761905Y-70572381D02*
X128761905Y-70810476D01*
X128523810Y-70715238D02*
X128761905Y-70810476D01*
X129000001Y-70715238D01*
X128619048Y-71000952D02*
X128761905Y-70810476D01*
X128904763Y-71000952D01*
M02*
