G04 #@! TF.FileFunction,Copper,L2,Bot,Signal*
%FSLAX46Y46*%
G04 Gerber Fmt 4.6, Leading zero omitted, Abs format (unit mm)*
G04 Created by KiCad (PCBNEW 4.0.6) date Mon May  1 23:13:11 2017*
%MOMM*%
%LPD*%
G01*
G04 APERTURE LIST*
%ADD10C,0.100000*%
%ADD11C,3.048000*%
%ADD12R,1.750000X1.750000*%
%ADD13C,1.750000*%
%ADD14C,0.254000*%
G04 APERTURE END LIST*
D10*
D11*
X163390000Y-87630000D03*
X171890000Y-87630000D03*
D12*
X148590000Y-86360000D03*
D13*
X148590000Y-88860000D03*
X148590000Y-91360000D03*
D12*
X186690000Y-91440000D03*
D13*
X186690000Y-88940000D03*
X186690000Y-86440000D03*
D14*
G36*
X150627954Y-79242046D02*
X150858295Y-79395954D01*
X151130000Y-79450000D01*
X157480000Y-79450000D01*
X157751705Y-79395954D01*
X157982046Y-79242046D01*
X159044092Y-78180000D01*
X176235908Y-78180000D01*
X177297954Y-79242046D01*
X177528295Y-79395954D01*
X177800000Y-79450000D01*
X184150000Y-79450000D01*
X184421705Y-79395954D01*
X184652046Y-79242046D01*
X185714092Y-78180000D01*
X190425000Y-78180000D01*
X190425000Y-98350000D01*
X185714092Y-98350000D01*
X184652046Y-97287954D01*
X184421705Y-97134046D01*
X184150000Y-97080000D01*
X177800000Y-97080000D01*
X177528295Y-97134046D01*
X177297954Y-97287954D01*
X176235908Y-98350000D01*
X159044092Y-98350000D01*
X157982046Y-97287954D01*
X157751705Y-97134046D01*
X157480000Y-97080000D01*
X151130000Y-97080000D01*
X150858295Y-97134046D01*
X150627954Y-97287954D01*
X149565908Y-98350000D01*
X144855000Y-98350000D01*
X144855000Y-87014750D01*
X146588000Y-87014750D01*
X146588000Y-87459174D01*
X146759575Y-87873394D01*
X147076606Y-88190424D01*
X147210072Y-88245708D01*
X147080262Y-88558325D01*
X147079738Y-89159040D01*
X147309138Y-89714229D01*
X147704536Y-90110318D01*
X147310630Y-90503537D01*
X147080262Y-91058325D01*
X147079738Y-91659040D01*
X147309138Y-92214229D01*
X147733537Y-92639370D01*
X148288325Y-92869738D01*
X148889040Y-92870262D01*
X149444229Y-92640862D01*
X149869370Y-92216463D01*
X150099738Y-91661675D01*
X150100262Y-91060960D01*
X149895335Y-90565000D01*
X185167560Y-90565000D01*
X185167560Y-92315000D01*
X185211838Y-92550317D01*
X185350910Y-92766441D01*
X185563110Y-92911431D01*
X185815000Y-92962440D01*
X187565000Y-92962440D01*
X187800317Y-92918162D01*
X188016441Y-92779090D01*
X188161431Y-92566890D01*
X188212440Y-92315000D01*
X188212440Y-90565000D01*
X188168162Y-90329683D01*
X188029090Y-90113559D01*
X187816890Y-89968569D01*
X187800324Y-89965214D01*
X187969370Y-89796463D01*
X188199738Y-89241675D01*
X188200262Y-88640960D01*
X187970862Y-88085771D01*
X187546463Y-87660630D01*
X187267145Y-87544647D01*
X186690000Y-86967502D01*
X186112852Y-87544650D01*
X185835771Y-87659138D01*
X185410630Y-88083537D01*
X185180262Y-88638325D01*
X185179738Y-89239040D01*
X185409138Y-89794229D01*
X185577717Y-89963103D01*
X185363559Y-90100910D01*
X185218569Y-90313110D01*
X185167560Y-90565000D01*
X149895335Y-90565000D01*
X149870862Y-90505771D01*
X149475464Y-90109682D01*
X149869370Y-89716463D01*
X150099738Y-89161675D01*
X150100262Y-88560960D01*
X149969991Y-88245681D01*
X150103394Y-88190424D01*
X150236251Y-88057567D01*
X161230626Y-88057567D01*
X161558622Y-88851377D01*
X162165428Y-89459244D01*
X162958664Y-89788624D01*
X163817567Y-89789374D01*
X164311342Y-89585350D01*
X170462152Y-89585350D01*
X170618218Y-90015044D01*
X171627743Y-90320184D01*
X172677195Y-90215768D01*
X173161782Y-90015044D01*
X173317848Y-89585350D01*
X171890000Y-88157502D01*
X170462152Y-89585350D01*
X164311342Y-89585350D01*
X164611377Y-89461378D01*
X165219244Y-88854572D01*
X165548624Y-88061336D01*
X165549229Y-87367743D01*
X169199816Y-87367743D01*
X169304232Y-88417195D01*
X169504956Y-88901782D01*
X169934650Y-89057848D01*
X171362498Y-87630000D01*
X172417502Y-87630000D01*
X173845350Y-89057848D01*
X174275044Y-88901782D01*
X174580184Y-87892257D01*
X174475768Y-86842805D01*
X174275044Y-86358218D01*
X174208927Y-86334204D01*
X184651523Y-86334204D01*
X184766206Y-87122349D01*
X184847179Y-87317834D01*
X185210394Y-87392104D01*
X186162498Y-86440000D01*
X187217502Y-86440000D01*
X188169606Y-87392104D01*
X188532821Y-87317834D01*
X188728477Y-86545796D01*
X188613794Y-85757651D01*
X188532821Y-85562166D01*
X188169606Y-85487896D01*
X187217502Y-86440000D01*
X186162498Y-86440000D01*
X185210394Y-85487896D01*
X184847179Y-85562166D01*
X184651523Y-86334204D01*
X174208927Y-86334204D01*
X173845350Y-86202152D01*
X172417502Y-87630000D01*
X171362498Y-87630000D01*
X169934650Y-86202152D01*
X169504956Y-86358218D01*
X169199816Y-87367743D01*
X165549229Y-87367743D01*
X165549374Y-87202433D01*
X165221378Y-86408623D01*
X164614572Y-85800756D01*
X164310875Y-85674650D01*
X170462152Y-85674650D01*
X171890000Y-87102498D01*
X173317848Y-85674650D01*
X173161782Y-85244956D01*
X172220338Y-84960394D01*
X185737896Y-84960394D01*
X186690000Y-85912498D01*
X187642104Y-84960394D01*
X187567834Y-84597179D01*
X186795796Y-84401523D01*
X186007651Y-84516206D01*
X185812166Y-84597179D01*
X185737896Y-84960394D01*
X172220338Y-84960394D01*
X172152257Y-84939816D01*
X171102805Y-85044232D01*
X170618218Y-85244956D01*
X170462152Y-85674650D01*
X164310875Y-85674650D01*
X163821336Y-85471376D01*
X162962433Y-85470626D01*
X162168623Y-85798622D01*
X161560756Y-86405428D01*
X161231376Y-87198664D01*
X161230626Y-88057567D01*
X150236251Y-88057567D01*
X150420425Y-87873394D01*
X150592000Y-87459174D01*
X150592000Y-87014750D01*
X150310250Y-86733000D01*
X148963000Y-86733000D01*
X148963000Y-86753000D01*
X148217000Y-86753000D01*
X148217000Y-86733000D01*
X146869750Y-86733000D01*
X146588000Y-87014750D01*
X144855000Y-87014750D01*
X144855000Y-85260826D01*
X146588000Y-85260826D01*
X146588000Y-85705250D01*
X146869750Y-85987000D01*
X148217000Y-85987000D01*
X148217000Y-84639750D01*
X148963000Y-84639750D01*
X148963000Y-85987000D01*
X150310250Y-85987000D01*
X150592000Y-85705250D01*
X150592000Y-85260826D01*
X150420425Y-84846606D01*
X150103394Y-84529576D01*
X149689174Y-84358000D01*
X149244750Y-84358000D01*
X148963000Y-84639750D01*
X148217000Y-84639750D01*
X147935250Y-84358000D01*
X147490826Y-84358000D01*
X147076606Y-84529576D01*
X146759575Y-84846606D01*
X146588000Y-85260826D01*
X144855000Y-85260826D01*
X144855000Y-78180000D01*
X149565908Y-78180000D01*
X150627954Y-79242046D01*
X150627954Y-79242046D01*
G37*
X150627954Y-79242046D02*
X150858295Y-79395954D01*
X151130000Y-79450000D01*
X157480000Y-79450000D01*
X157751705Y-79395954D01*
X157982046Y-79242046D01*
X159044092Y-78180000D01*
X176235908Y-78180000D01*
X177297954Y-79242046D01*
X177528295Y-79395954D01*
X177800000Y-79450000D01*
X184150000Y-79450000D01*
X184421705Y-79395954D01*
X184652046Y-79242046D01*
X185714092Y-78180000D01*
X190425000Y-78180000D01*
X190425000Y-98350000D01*
X185714092Y-98350000D01*
X184652046Y-97287954D01*
X184421705Y-97134046D01*
X184150000Y-97080000D01*
X177800000Y-97080000D01*
X177528295Y-97134046D01*
X177297954Y-97287954D01*
X176235908Y-98350000D01*
X159044092Y-98350000D01*
X157982046Y-97287954D01*
X157751705Y-97134046D01*
X157480000Y-97080000D01*
X151130000Y-97080000D01*
X150858295Y-97134046D01*
X150627954Y-97287954D01*
X149565908Y-98350000D01*
X144855000Y-98350000D01*
X144855000Y-87014750D01*
X146588000Y-87014750D01*
X146588000Y-87459174D01*
X146759575Y-87873394D01*
X147076606Y-88190424D01*
X147210072Y-88245708D01*
X147080262Y-88558325D01*
X147079738Y-89159040D01*
X147309138Y-89714229D01*
X147704536Y-90110318D01*
X147310630Y-90503537D01*
X147080262Y-91058325D01*
X147079738Y-91659040D01*
X147309138Y-92214229D01*
X147733537Y-92639370D01*
X148288325Y-92869738D01*
X148889040Y-92870262D01*
X149444229Y-92640862D01*
X149869370Y-92216463D01*
X150099738Y-91661675D01*
X150100262Y-91060960D01*
X149895335Y-90565000D01*
X185167560Y-90565000D01*
X185167560Y-92315000D01*
X185211838Y-92550317D01*
X185350910Y-92766441D01*
X185563110Y-92911431D01*
X185815000Y-92962440D01*
X187565000Y-92962440D01*
X187800317Y-92918162D01*
X188016441Y-92779090D01*
X188161431Y-92566890D01*
X188212440Y-92315000D01*
X188212440Y-90565000D01*
X188168162Y-90329683D01*
X188029090Y-90113559D01*
X187816890Y-89968569D01*
X187800324Y-89965214D01*
X187969370Y-89796463D01*
X188199738Y-89241675D01*
X188200262Y-88640960D01*
X187970862Y-88085771D01*
X187546463Y-87660630D01*
X187267145Y-87544647D01*
X186690000Y-86967502D01*
X186112852Y-87544650D01*
X185835771Y-87659138D01*
X185410630Y-88083537D01*
X185180262Y-88638325D01*
X185179738Y-89239040D01*
X185409138Y-89794229D01*
X185577717Y-89963103D01*
X185363559Y-90100910D01*
X185218569Y-90313110D01*
X185167560Y-90565000D01*
X149895335Y-90565000D01*
X149870862Y-90505771D01*
X149475464Y-90109682D01*
X149869370Y-89716463D01*
X150099738Y-89161675D01*
X150100262Y-88560960D01*
X149969991Y-88245681D01*
X150103394Y-88190424D01*
X150236251Y-88057567D01*
X161230626Y-88057567D01*
X161558622Y-88851377D01*
X162165428Y-89459244D01*
X162958664Y-89788624D01*
X163817567Y-89789374D01*
X164311342Y-89585350D01*
X170462152Y-89585350D01*
X170618218Y-90015044D01*
X171627743Y-90320184D01*
X172677195Y-90215768D01*
X173161782Y-90015044D01*
X173317848Y-89585350D01*
X171890000Y-88157502D01*
X170462152Y-89585350D01*
X164311342Y-89585350D01*
X164611377Y-89461378D01*
X165219244Y-88854572D01*
X165548624Y-88061336D01*
X165549229Y-87367743D01*
X169199816Y-87367743D01*
X169304232Y-88417195D01*
X169504956Y-88901782D01*
X169934650Y-89057848D01*
X171362498Y-87630000D01*
X172417502Y-87630000D01*
X173845350Y-89057848D01*
X174275044Y-88901782D01*
X174580184Y-87892257D01*
X174475768Y-86842805D01*
X174275044Y-86358218D01*
X174208927Y-86334204D01*
X184651523Y-86334204D01*
X184766206Y-87122349D01*
X184847179Y-87317834D01*
X185210394Y-87392104D01*
X186162498Y-86440000D01*
X187217502Y-86440000D01*
X188169606Y-87392104D01*
X188532821Y-87317834D01*
X188728477Y-86545796D01*
X188613794Y-85757651D01*
X188532821Y-85562166D01*
X188169606Y-85487896D01*
X187217502Y-86440000D01*
X186162498Y-86440000D01*
X185210394Y-85487896D01*
X184847179Y-85562166D01*
X184651523Y-86334204D01*
X174208927Y-86334204D01*
X173845350Y-86202152D01*
X172417502Y-87630000D01*
X171362498Y-87630000D01*
X169934650Y-86202152D01*
X169504956Y-86358218D01*
X169199816Y-87367743D01*
X165549229Y-87367743D01*
X165549374Y-87202433D01*
X165221378Y-86408623D01*
X164614572Y-85800756D01*
X164310875Y-85674650D01*
X170462152Y-85674650D01*
X171890000Y-87102498D01*
X173317848Y-85674650D01*
X173161782Y-85244956D01*
X172220338Y-84960394D01*
X185737896Y-84960394D01*
X186690000Y-85912498D01*
X187642104Y-84960394D01*
X187567834Y-84597179D01*
X186795796Y-84401523D01*
X186007651Y-84516206D01*
X185812166Y-84597179D01*
X185737896Y-84960394D01*
X172220338Y-84960394D01*
X172152257Y-84939816D01*
X171102805Y-85044232D01*
X170618218Y-85244956D01*
X170462152Y-85674650D01*
X164310875Y-85674650D01*
X163821336Y-85471376D01*
X162962433Y-85470626D01*
X162168623Y-85798622D01*
X161560756Y-86405428D01*
X161231376Y-87198664D01*
X161230626Y-88057567D01*
X150236251Y-88057567D01*
X150420425Y-87873394D01*
X150592000Y-87459174D01*
X150592000Y-87014750D01*
X150310250Y-86733000D01*
X148963000Y-86733000D01*
X148963000Y-86753000D01*
X148217000Y-86753000D01*
X148217000Y-86733000D01*
X146869750Y-86733000D01*
X146588000Y-87014750D01*
X144855000Y-87014750D01*
X144855000Y-85260826D01*
X146588000Y-85260826D01*
X146588000Y-85705250D01*
X146869750Y-85987000D01*
X148217000Y-85987000D01*
X148217000Y-84639750D01*
X148963000Y-84639750D01*
X148963000Y-85987000D01*
X150310250Y-85987000D01*
X150592000Y-85705250D01*
X150592000Y-85260826D01*
X150420425Y-84846606D01*
X150103394Y-84529576D01*
X149689174Y-84358000D01*
X149244750Y-84358000D01*
X148963000Y-84639750D01*
X148217000Y-84639750D01*
X147935250Y-84358000D01*
X147490826Y-84358000D01*
X147076606Y-84529576D01*
X146759575Y-84846606D01*
X146588000Y-85260826D01*
X144855000Y-85260826D01*
X144855000Y-78180000D01*
X149565908Y-78180000D01*
X150627954Y-79242046D01*
M02*
