G04 #@! TF.FileFunction,Copper,L1,Top,Signal*
%FSLAX46Y46*%
G04 Gerber Fmt 4.6, Leading zero omitted, Abs format (unit mm)*
G04 Created by KiCad (PCBNEW 4.0.6) date Mon May  1 23:13:11 2017*
%MOMM*%
%LPD*%
G01*
G04 APERTURE LIST*
%ADD10C,0.100000*%
%ADD11C,3.048000*%
%ADD12R,1.750000X1.750000*%
%ADD13C,1.750000*%
%ADD14C,2.000000*%
%ADD15C,0.254000*%
G04 APERTURE END LIST*
D10*
D11*
X163390000Y-87630000D03*
X171890000Y-87630000D03*
D12*
X148590000Y-86360000D03*
D13*
X148590000Y-88860000D03*
X148590000Y-91360000D03*
D12*
X186690000Y-91440000D03*
D13*
X186690000Y-88940000D03*
X186690000Y-86440000D03*
D14*
X148590000Y-88860000D02*
X157440000Y-88860000D01*
X177760000Y-88940000D02*
X186690000Y-88940000D01*
X175260000Y-91440000D02*
X177760000Y-88940000D01*
X160020000Y-91440000D02*
X175260000Y-91440000D01*
X157440000Y-88860000D02*
X160020000Y-91440000D01*
D15*
G36*
X150627954Y-79242046D02*
X150858295Y-79395954D01*
X151130000Y-79450000D01*
X157480000Y-79450000D01*
X157751705Y-79395954D01*
X157982046Y-79242046D01*
X159044092Y-78180000D01*
X176235908Y-78180000D01*
X177297954Y-79242046D01*
X177528295Y-79395954D01*
X177800000Y-79450000D01*
X184150000Y-79450000D01*
X184421705Y-79395954D01*
X184652046Y-79242046D01*
X185714092Y-78180000D01*
X190425000Y-78180000D01*
X190425000Y-98350000D01*
X185714092Y-98350000D01*
X184652046Y-97287954D01*
X184421705Y-97134046D01*
X184150000Y-97080000D01*
X177800000Y-97080000D01*
X177528295Y-97134046D01*
X177297954Y-97287954D01*
X176235908Y-98350000D01*
X159044092Y-98350000D01*
X157982046Y-97287954D01*
X157751705Y-97134046D01*
X157480000Y-97080000D01*
X151130000Y-97080000D01*
X150858295Y-97134046D01*
X150627954Y-97287954D01*
X149565908Y-98350000D01*
X144855000Y-98350000D01*
X144855000Y-92839606D01*
X147637896Y-92839606D01*
X147712166Y-93202821D01*
X148484204Y-93398477D01*
X149272349Y-93283794D01*
X149467834Y-93202821D01*
X149542104Y-92839606D01*
X148590000Y-91887502D01*
X147637896Y-92839606D01*
X144855000Y-92839606D01*
X144855000Y-91254204D01*
X146551523Y-91254204D01*
X146666206Y-92042349D01*
X146747179Y-92237834D01*
X147110394Y-92312104D01*
X148062498Y-91360000D01*
X147110394Y-90407896D01*
X146747179Y-90482166D01*
X146551523Y-91254204D01*
X144855000Y-91254204D01*
X144855000Y-88860000D01*
X146955000Y-88860000D01*
X147079457Y-89485687D01*
X147433880Y-90016120D01*
X147964313Y-90370543D01*
X148168700Y-90411198D01*
X148590000Y-90832498D01*
X148604142Y-90818356D01*
X149131644Y-91345858D01*
X149117502Y-91360000D01*
X150069606Y-92312104D01*
X150432821Y-92237834D01*
X150628477Y-91465796D01*
X150513794Y-90677651D01*
X150438137Y-90495000D01*
X156762760Y-90495000D01*
X158863880Y-92596120D01*
X159394312Y-92950543D01*
X160020000Y-93075001D01*
X160020005Y-93075000D01*
X175259995Y-93075000D01*
X175260000Y-93075001D01*
X175885688Y-92950543D01*
X176416120Y-92596120D01*
X176917490Y-92094750D01*
X184688000Y-92094750D01*
X184688000Y-92539174D01*
X184859575Y-92953394D01*
X185176606Y-93270424D01*
X185590826Y-93442000D01*
X186035250Y-93442000D01*
X186317000Y-93160250D01*
X186317000Y-91813000D01*
X187063000Y-91813000D01*
X187063000Y-93160250D01*
X187344750Y-93442000D01*
X187789174Y-93442000D01*
X188203394Y-93270424D01*
X188520425Y-92953394D01*
X188692000Y-92539174D01*
X188692000Y-92094750D01*
X188410250Y-91813000D01*
X187063000Y-91813000D01*
X186317000Y-91813000D01*
X184969750Y-91813000D01*
X184688000Y-92094750D01*
X176917490Y-92094750D01*
X178437240Y-90575000D01*
X184688000Y-90575000D01*
X184688000Y-90785250D01*
X184969750Y-91067000D01*
X186317000Y-91067000D01*
X186317000Y-91047000D01*
X187063000Y-91047000D01*
X187063000Y-91067000D01*
X188410250Y-91067000D01*
X188692000Y-90785250D01*
X188692000Y-90340826D01*
X188520425Y-89926606D01*
X188203394Y-89609576D01*
X188178192Y-89599137D01*
X188200543Y-89565687D01*
X188325000Y-88940000D01*
X188200543Y-88314313D01*
X187846120Y-87783880D01*
X187627460Y-87637776D01*
X187969370Y-87296463D01*
X188199738Y-86741675D01*
X188200262Y-86140960D01*
X187970862Y-85585771D01*
X187546463Y-85160630D01*
X186991675Y-84930262D01*
X186390960Y-84929738D01*
X185835771Y-85159138D01*
X185410630Y-85583537D01*
X185180262Y-86138325D01*
X185179738Y-86739040D01*
X185409138Y-87294229D01*
X185419890Y-87305000D01*
X177760005Y-87305000D01*
X177760000Y-87304999D01*
X177134312Y-87429457D01*
X176603880Y-87783880D01*
X174582760Y-89805000D01*
X164738071Y-89805000D01*
X164817848Y-89585350D01*
X163390000Y-88157502D01*
X161962152Y-89585350D01*
X162041929Y-89805000D01*
X160697240Y-89805000D01*
X158596120Y-87703880D01*
X158093055Y-87367743D01*
X160699816Y-87367743D01*
X160804232Y-88417195D01*
X161004956Y-88901782D01*
X161434650Y-89057848D01*
X162862498Y-87630000D01*
X163917502Y-87630000D01*
X165345350Y-89057848D01*
X165775044Y-88901782D01*
X166030217Y-88057567D01*
X169730626Y-88057567D01*
X170058622Y-88851377D01*
X170665428Y-89459244D01*
X171458664Y-89788624D01*
X172317567Y-89789374D01*
X173111377Y-89461378D01*
X173719244Y-88854572D01*
X174048624Y-88061336D01*
X174049374Y-87202433D01*
X173721378Y-86408623D01*
X173114572Y-85800756D01*
X172321336Y-85471376D01*
X171462433Y-85470626D01*
X170668623Y-85798622D01*
X170060756Y-86405428D01*
X169731376Y-87198664D01*
X169730626Y-88057567D01*
X166030217Y-88057567D01*
X166080184Y-87892257D01*
X165975768Y-86842805D01*
X165775044Y-86358218D01*
X165345350Y-86202152D01*
X163917502Y-87630000D01*
X162862498Y-87630000D01*
X161434650Y-86202152D01*
X161004956Y-86358218D01*
X160699816Y-87367743D01*
X158093055Y-87367743D01*
X158065688Y-87349457D01*
X157440000Y-87224999D01*
X157439995Y-87225000D01*
X150112440Y-87225000D01*
X150112440Y-85674650D01*
X161962152Y-85674650D01*
X163390000Y-87102498D01*
X164817848Y-85674650D01*
X164661782Y-85244956D01*
X163652257Y-84939816D01*
X162602805Y-85044232D01*
X162118218Y-85244956D01*
X161962152Y-85674650D01*
X150112440Y-85674650D01*
X150112440Y-85485000D01*
X150068162Y-85249683D01*
X149929090Y-85033559D01*
X149716890Y-84888569D01*
X149465000Y-84837560D01*
X147715000Y-84837560D01*
X147479683Y-84881838D01*
X147263559Y-85020910D01*
X147118569Y-85233110D01*
X147067560Y-85485000D01*
X147067560Y-87235000D01*
X147111838Y-87470317D01*
X147250910Y-87686441D01*
X147384529Y-87777739D01*
X147079457Y-88234313D01*
X146955000Y-88860000D01*
X144855000Y-88860000D01*
X144855000Y-78180000D01*
X149565908Y-78180000D01*
X150627954Y-79242046D01*
X150627954Y-79242046D01*
G37*
X150627954Y-79242046D02*
X150858295Y-79395954D01*
X151130000Y-79450000D01*
X157480000Y-79450000D01*
X157751705Y-79395954D01*
X157982046Y-79242046D01*
X159044092Y-78180000D01*
X176235908Y-78180000D01*
X177297954Y-79242046D01*
X177528295Y-79395954D01*
X177800000Y-79450000D01*
X184150000Y-79450000D01*
X184421705Y-79395954D01*
X184652046Y-79242046D01*
X185714092Y-78180000D01*
X190425000Y-78180000D01*
X190425000Y-98350000D01*
X185714092Y-98350000D01*
X184652046Y-97287954D01*
X184421705Y-97134046D01*
X184150000Y-97080000D01*
X177800000Y-97080000D01*
X177528295Y-97134046D01*
X177297954Y-97287954D01*
X176235908Y-98350000D01*
X159044092Y-98350000D01*
X157982046Y-97287954D01*
X157751705Y-97134046D01*
X157480000Y-97080000D01*
X151130000Y-97080000D01*
X150858295Y-97134046D01*
X150627954Y-97287954D01*
X149565908Y-98350000D01*
X144855000Y-98350000D01*
X144855000Y-92839606D01*
X147637896Y-92839606D01*
X147712166Y-93202821D01*
X148484204Y-93398477D01*
X149272349Y-93283794D01*
X149467834Y-93202821D01*
X149542104Y-92839606D01*
X148590000Y-91887502D01*
X147637896Y-92839606D01*
X144855000Y-92839606D01*
X144855000Y-91254204D01*
X146551523Y-91254204D01*
X146666206Y-92042349D01*
X146747179Y-92237834D01*
X147110394Y-92312104D01*
X148062498Y-91360000D01*
X147110394Y-90407896D01*
X146747179Y-90482166D01*
X146551523Y-91254204D01*
X144855000Y-91254204D01*
X144855000Y-88860000D01*
X146955000Y-88860000D01*
X147079457Y-89485687D01*
X147433880Y-90016120D01*
X147964313Y-90370543D01*
X148168700Y-90411198D01*
X148590000Y-90832498D01*
X148604142Y-90818356D01*
X149131644Y-91345858D01*
X149117502Y-91360000D01*
X150069606Y-92312104D01*
X150432821Y-92237834D01*
X150628477Y-91465796D01*
X150513794Y-90677651D01*
X150438137Y-90495000D01*
X156762760Y-90495000D01*
X158863880Y-92596120D01*
X159394312Y-92950543D01*
X160020000Y-93075001D01*
X160020005Y-93075000D01*
X175259995Y-93075000D01*
X175260000Y-93075001D01*
X175885688Y-92950543D01*
X176416120Y-92596120D01*
X176917490Y-92094750D01*
X184688000Y-92094750D01*
X184688000Y-92539174D01*
X184859575Y-92953394D01*
X185176606Y-93270424D01*
X185590826Y-93442000D01*
X186035250Y-93442000D01*
X186317000Y-93160250D01*
X186317000Y-91813000D01*
X187063000Y-91813000D01*
X187063000Y-93160250D01*
X187344750Y-93442000D01*
X187789174Y-93442000D01*
X188203394Y-93270424D01*
X188520425Y-92953394D01*
X188692000Y-92539174D01*
X188692000Y-92094750D01*
X188410250Y-91813000D01*
X187063000Y-91813000D01*
X186317000Y-91813000D01*
X184969750Y-91813000D01*
X184688000Y-92094750D01*
X176917490Y-92094750D01*
X178437240Y-90575000D01*
X184688000Y-90575000D01*
X184688000Y-90785250D01*
X184969750Y-91067000D01*
X186317000Y-91067000D01*
X186317000Y-91047000D01*
X187063000Y-91047000D01*
X187063000Y-91067000D01*
X188410250Y-91067000D01*
X188692000Y-90785250D01*
X188692000Y-90340826D01*
X188520425Y-89926606D01*
X188203394Y-89609576D01*
X188178192Y-89599137D01*
X188200543Y-89565687D01*
X188325000Y-88940000D01*
X188200543Y-88314313D01*
X187846120Y-87783880D01*
X187627460Y-87637776D01*
X187969370Y-87296463D01*
X188199738Y-86741675D01*
X188200262Y-86140960D01*
X187970862Y-85585771D01*
X187546463Y-85160630D01*
X186991675Y-84930262D01*
X186390960Y-84929738D01*
X185835771Y-85159138D01*
X185410630Y-85583537D01*
X185180262Y-86138325D01*
X185179738Y-86739040D01*
X185409138Y-87294229D01*
X185419890Y-87305000D01*
X177760005Y-87305000D01*
X177760000Y-87304999D01*
X177134312Y-87429457D01*
X176603880Y-87783880D01*
X174582760Y-89805000D01*
X164738071Y-89805000D01*
X164817848Y-89585350D01*
X163390000Y-88157502D01*
X161962152Y-89585350D01*
X162041929Y-89805000D01*
X160697240Y-89805000D01*
X158596120Y-87703880D01*
X158093055Y-87367743D01*
X160699816Y-87367743D01*
X160804232Y-88417195D01*
X161004956Y-88901782D01*
X161434650Y-89057848D01*
X162862498Y-87630000D01*
X163917502Y-87630000D01*
X165345350Y-89057848D01*
X165775044Y-88901782D01*
X166030217Y-88057567D01*
X169730626Y-88057567D01*
X170058622Y-88851377D01*
X170665428Y-89459244D01*
X171458664Y-89788624D01*
X172317567Y-89789374D01*
X173111377Y-89461378D01*
X173719244Y-88854572D01*
X174048624Y-88061336D01*
X174049374Y-87202433D01*
X173721378Y-86408623D01*
X173114572Y-85800756D01*
X172321336Y-85471376D01*
X171462433Y-85470626D01*
X170668623Y-85798622D01*
X170060756Y-86405428D01*
X169731376Y-87198664D01*
X169730626Y-88057567D01*
X166030217Y-88057567D01*
X166080184Y-87892257D01*
X165975768Y-86842805D01*
X165775044Y-86358218D01*
X165345350Y-86202152D01*
X163917502Y-87630000D01*
X162862498Y-87630000D01*
X161434650Y-86202152D01*
X161004956Y-86358218D01*
X160699816Y-87367743D01*
X158093055Y-87367743D01*
X158065688Y-87349457D01*
X157440000Y-87224999D01*
X157439995Y-87225000D01*
X150112440Y-87225000D01*
X150112440Y-85674650D01*
X161962152Y-85674650D01*
X163390000Y-87102498D01*
X164817848Y-85674650D01*
X164661782Y-85244956D01*
X163652257Y-84939816D01*
X162602805Y-85044232D01*
X162118218Y-85244956D01*
X161962152Y-85674650D01*
X150112440Y-85674650D01*
X150112440Y-85485000D01*
X150068162Y-85249683D01*
X149929090Y-85033559D01*
X149716890Y-84888569D01*
X149465000Y-84837560D01*
X147715000Y-84837560D01*
X147479683Y-84881838D01*
X147263559Y-85020910D01*
X147118569Y-85233110D01*
X147067560Y-85485000D01*
X147067560Y-87235000D01*
X147111838Y-87470317D01*
X147250910Y-87686441D01*
X147384529Y-87777739D01*
X147079457Y-88234313D01*
X146955000Y-88860000D01*
X144855000Y-88860000D01*
X144855000Y-78180000D01*
X149565908Y-78180000D01*
X150627954Y-79242046D01*
M02*
