G04 #@! TF.FileFunction,Copper,L1,Top,Signal*
%FSLAX46Y46*%
G04 Gerber Fmt 4.6, Leading zero omitted, Abs format (unit mm)*
G04 Created by KiCad (PCBNEW 4.0.6) date Tue May 23 23:01:21 2017*
%MOMM*%
%LPD*%
G01*
G04 APERTURE LIST*
%ADD10C,0.100000*%
%ADD11C,1.600000*%
%ADD12O,1.600000X1.600000*%
%ADD13R,1.600000X1.600000*%
%ADD14C,1.524000*%
%ADD15C,2.400000*%
%ADD16C,3.650000*%
%ADD17C,1.500000*%
%ADD18R,1.500000X1.500000*%
%ADD19C,7.000000*%
%ADD20C,2.000000*%
%ADD21C,0.400000*%
%ADD22C,0.400000*%
%ADD23C,1.500000*%
%ADD24C,2.000000*%
%ADD25C,0.254000*%
G04 APERTURE END LIST*
D10*
D11*
X62230000Y-107315000D03*
D12*
X69850000Y-107315000D03*
D11*
X42545000Y-107315000D03*
D12*
X50165000Y-107315000D03*
D11*
X23495000Y-107315000D03*
D12*
X31115000Y-107315000D03*
D11*
X81280000Y-127635000D03*
D12*
X88900000Y-127635000D03*
D11*
X62230000Y-127635000D03*
D12*
X69850000Y-127635000D03*
D11*
X41910000Y-127635000D03*
D12*
X49530000Y-127635000D03*
D11*
X22860000Y-127635000D03*
D12*
X30480000Y-127635000D03*
D11*
X81280000Y-107315000D03*
D12*
X88900000Y-107315000D03*
D11*
X97790000Y-100330000D03*
D12*
X105410000Y-100330000D03*
D11*
X97790000Y-94615000D03*
D12*
X105410000Y-94615000D03*
D13*
X81280000Y-104140000D03*
D12*
X88900000Y-96520000D03*
X83820000Y-104140000D03*
X86360000Y-96520000D03*
X86360000Y-104140000D03*
X83820000Y-96520000D03*
X88900000Y-104140000D03*
X81280000Y-96520000D03*
D13*
X62230000Y-104140000D03*
D12*
X69850000Y-96520000D03*
X64770000Y-104140000D03*
X67310000Y-96520000D03*
X67310000Y-104140000D03*
X64770000Y-96520000D03*
X69850000Y-104140000D03*
X62230000Y-96520000D03*
D13*
X42545000Y-104140000D03*
D12*
X50165000Y-96520000D03*
X45085000Y-104140000D03*
X47625000Y-96520000D03*
X47625000Y-104140000D03*
X45085000Y-96520000D03*
X50165000Y-104140000D03*
X42545000Y-96520000D03*
D13*
X23495000Y-104140000D03*
D12*
X31115000Y-96520000D03*
X26035000Y-104140000D03*
X28575000Y-96520000D03*
X28575000Y-104140000D03*
X26035000Y-96520000D03*
X31115000Y-104140000D03*
X23495000Y-96520000D03*
D13*
X81280000Y-124460000D03*
D12*
X88900000Y-116840000D03*
X83820000Y-124460000D03*
X86360000Y-116840000D03*
X86360000Y-124460000D03*
X83820000Y-116840000D03*
X88900000Y-124460000D03*
X81280000Y-116840000D03*
D13*
X62230000Y-124460000D03*
D12*
X69850000Y-116840000D03*
X64770000Y-124460000D03*
X67310000Y-116840000D03*
X67310000Y-124460000D03*
X64770000Y-116840000D03*
X69850000Y-124460000D03*
X62230000Y-116840000D03*
D13*
X41910000Y-124460000D03*
D12*
X49530000Y-116840000D03*
X44450000Y-124460000D03*
X46990000Y-116840000D03*
X46990000Y-124460000D03*
X44450000Y-116840000D03*
X49530000Y-124460000D03*
X41910000Y-116840000D03*
D13*
X23495000Y-124460000D03*
D12*
X31115000Y-116840000D03*
X26035000Y-124460000D03*
X28575000Y-116840000D03*
X28575000Y-124460000D03*
X26035000Y-116840000D03*
X31115000Y-124460000D03*
X23495000Y-116840000D03*
D11*
X74930000Y-86360000D03*
X77470000Y-86360000D03*
X80010000Y-86360000D03*
X82550000Y-86360000D03*
X72390000Y-86360000D03*
X69850000Y-86360000D03*
X67310000Y-86360000D03*
X85090000Y-86360000D03*
X87630000Y-86360000D03*
X90170000Y-86360000D03*
X92710000Y-86360000D03*
X80010000Y-83820000D03*
X80010000Y-81280000D03*
X80010000Y-78740000D03*
X80010000Y-76200000D03*
X80010000Y-73660000D03*
X92710000Y-71120000D03*
X90170000Y-71120000D03*
X87630000Y-71120000D03*
X85090000Y-71120000D03*
X82550000Y-71120000D03*
X80010000Y-71120000D03*
X77470000Y-71120000D03*
X74930000Y-71120000D03*
X64770000Y-86360000D03*
X62230000Y-86360000D03*
X59690000Y-86360000D03*
X57150000Y-86360000D03*
X54610000Y-86360000D03*
X52070000Y-86360000D03*
X49530000Y-86360000D03*
X46990000Y-86360000D03*
X44450000Y-86360000D03*
X41910000Y-86360000D03*
X39370000Y-86360000D03*
X36830000Y-86360000D03*
D13*
X34290000Y-86360000D03*
D11*
X72390000Y-71120000D03*
X69850000Y-71120000D03*
X67310000Y-71120000D03*
X64770000Y-71120000D03*
X62230000Y-71120000D03*
X59690000Y-71120000D03*
X57150000Y-71120000D03*
X54610000Y-71120000D03*
X52070000Y-71120000D03*
X49530000Y-71120000D03*
X46990000Y-71120000D03*
X44450000Y-71120000D03*
X41910000Y-71120000D03*
X39370000Y-71120000D03*
X36830000Y-71120000D03*
X34290000Y-71120000D03*
X36830000Y-73660000D03*
X41910000Y-73660000D03*
X44450000Y-73660000D03*
X46990000Y-73660000D03*
X49530000Y-78740000D03*
X52070000Y-78740000D03*
X54610000Y-78740000D03*
X57150000Y-78740000D03*
X72390000Y-78740000D03*
X74930000Y-78740000D03*
X77470000Y-78740000D03*
X82550000Y-78740000D03*
X85090000Y-78740000D03*
X87630000Y-78740000D03*
X90170000Y-78740000D03*
X92710000Y-78740000D03*
X92710000Y-76200000D03*
X90170000Y-76200000D03*
X87630000Y-76200000D03*
X85090000Y-76200000D03*
X82550000Y-76200000D03*
X77470000Y-76200000D03*
X74930000Y-76200000D03*
X72390000Y-76200000D03*
X57150000Y-76200000D03*
X54610000Y-76200000D03*
X52070000Y-76200000D03*
X49530000Y-76200000D03*
D14*
X105410000Y-86360000D03*
X105410000Y-83820000D03*
X102870000Y-86360000D03*
X102870000Y-83820000D03*
X100330000Y-86360000D03*
X100330000Y-83820000D03*
X97790000Y-86360000D03*
X97790000Y-83820000D03*
D11*
X81280000Y-93345000D03*
D12*
X88780000Y-93345000D03*
D11*
X62230000Y-93345000D03*
D12*
X69730000Y-93345000D03*
D11*
X42545000Y-93345000D03*
D12*
X50045000Y-93345000D03*
D11*
X23495000Y-93345000D03*
D12*
X30995000Y-93345000D03*
D11*
X81280000Y-113665000D03*
D12*
X88780000Y-113665000D03*
D11*
X62230000Y-113665000D03*
D12*
X69730000Y-113665000D03*
D11*
X41910000Y-113665000D03*
D12*
X49410000Y-113665000D03*
D11*
X23495000Y-113665000D03*
D12*
X30995000Y-113665000D03*
D11*
X97790000Y-89535000D03*
D12*
X105290000Y-89535000D03*
D15*
X92964000Y-137210800D03*
X92303600Y-142722600D03*
X92964000Y-153162000D03*
D16*
X90170000Y-148590000D03*
D15*
X34036000Y-133121400D03*
X34696400Y-139446000D03*
X34036000Y-153162000D03*
X78105000Y-131318000D03*
X64135000Y-131318000D03*
D17*
X80010000Y-135661400D03*
X81280000Y-133121400D03*
X82550000Y-135661400D03*
X83820000Y-133121400D03*
X85090000Y-135661400D03*
X86360000Y-133121400D03*
X87630000Y-135661400D03*
D18*
X88900000Y-133121400D03*
X74930000Y-133121400D03*
D17*
X73660000Y-135661400D03*
X72390000Y-133121400D03*
X71120000Y-135661400D03*
X69850000Y-133121400D03*
X68580000Y-135661400D03*
X67310000Y-133121400D03*
X66040000Y-135661400D03*
X38100000Y-135661400D03*
X39370000Y-133121400D03*
X40640000Y-135661400D03*
X41910000Y-133121400D03*
X43180000Y-135661400D03*
X44450000Y-133121400D03*
X45720000Y-135661400D03*
D18*
X46990000Y-133121400D03*
X60960000Y-133121400D03*
D17*
X59690000Y-135661400D03*
X58420000Y-133121400D03*
X57150000Y-135661400D03*
X55880000Y-133121400D03*
X54610000Y-135661400D03*
X53340000Y-133121400D03*
X52070000Y-135661400D03*
X74930000Y-139700000D03*
X73660000Y-142240000D03*
X72390000Y-139700000D03*
X71120000Y-142240000D03*
X69850000Y-139700000D03*
X68580000Y-142240000D03*
X67310000Y-139700000D03*
D18*
X66040000Y-142240000D03*
X80010000Y-142240000D03*
D17*
X81280000Y-139700000D03*
X82550000Y-142240000D03*
X83820000Y-139700000D03*
X85090000Y-142240000D03*
X86360000Y-139700000D03*
X87630000Y-142240000D03*
X88900000Y-139700000D03*
X60960000Y-139700000D03*
X59690000Y-142240000D03*
X58420000Y-139700000D03*
X57150000Y-142240000D03*
X55880000Y-139700000D03*
X54610000Y-142240000D03*
X53340000Y-139700000D03*
D18*
X52070000Y-142240000D03*
D16*
X36830000Y-148590000D03*
D18*
X38100000Y-142240000D03*
D17*
X39370000Y-139700000D03*
X40640000Y-142240000D03*
X41910000Y-139700000D03*
X43180000Y-142240000D03*
X44450000Y-139700000D03*
X45720000Y-142240000D03*
X46990000Y-139700000D03*
D15*
X50165000Y-131318000D03*
D19*
X25400000Y-76200000D03*
X101600000Y-76200000D03*
X101600000Y-152400000D03*
X25400000Y-152400000D03*
D20*
X74930000Y-100330000D03*
X81915000Y-100330000D03*
D21*
X57150000Y-83185000D03*
X59690000Y-83185000D03*
X85725000Y-127635000D03*
X53975000Y-84455000D03*
X57150000Y-84455000D03*
X62230000Y-84455000D03*
X78740000Y-84455000D03*
X78740000Y-91440000D03*
X85725000Y-107315000D03*
X66675000Y-127635000D03*
X55880000Y-90805000D03*
X55880000Y-111760000D03*
X55245000Y-114300000D03*
X52705000Y-113030000D03*
X52705000Y-120650000D03*
X31750000Y-140970000D03*
D20*
X74295000Y-106680000D03*
D17*
X32385000Y-121285000D03*
X34290000Y-124460000D03*
D21*
X97155000Y-87630000D03*
D22*
X31115000Y-104140000D02*
X31115000Y-103505000D01*
X31115000Y-103505000D02*
X34925000Y-99695000D01*
X34925000Y-99695000D02*
X34925000Y-97155000D01*
X34925000Y-97155000D02*
X41910000Y-90170000D01*
X41910000Y-90170000D02*
X53340000Y-90170000D01*
X53340000Y-90170000D02*
X57150000Y-86360000D01*
X52070000Y-84455000D02*
X52070000Y-86360000D01*
X53340000Y-83185000D02*
X52070000Y-84455000D01*
X57150000Y-83185000D02*
X53340000Y-83185000D01*
X60960000Y-84455000D02*
X59690000Y-83185000D01*
X60960000Y-88265000D02*
X60960000Y-84455000D01*
X64135000Y-91440000D02*
X60960000Y-88265000D01*
X71120000Y-91440000D02*
X64135000Y-91440000D01*
X76835000Y-97155000D02*
X71120000Y-91440000D01*
X76835000Y-124460000D02*
X76835000Y-97155000D01*
X78740000Y-126365000D02*
X76835000Y-124460000D01*
X84455000Y-126365000D02*
X78740000Y-126365000D01*
X85725000Y-127635000D02*
X84455000Y-126365000D01*
X57150000Y-84455000D02*
X53975000Y-84455000D01*
X78740000Y-84455000D02*
X62230000Y-84455000D01*
X78740000Y-104775000D02*
X78740000Y-91440000D01*
X80010000Y-106045000D02*
X78740000Y-104775000D01*
X84455000Y-106045000D02*
X80010000Y-106045000D01*
X85725000Y-107315000D02*
X84455000Y-106045000D01*
X51435000Y-73025000D02*
X49530000Y-71120000D01*
X57150000Y-73025000D02*
X51435000Y-73025000D01*
X58420000Y-74295000D02*
X57150000Y-73025000D01*
X58420000Y-124460000D02*
X58420000Y-74295000D01*
X60325000Y-126365000D02*
X58420000Y-124460000D01*
X65405000Y-126365000D02*
X60325000Y-126365000D01*
X66675000Y-127635000D02*
X65405000Y-126365000D01*
X49530000Y-124460000D02*
X49530000Y-121920000D01*
X55880000Y-111760000D02*
X55880000Y-90805000D01*
X55245000Y-116205000D02*
X55245000Y-114300000D01*
X49530000Y-121920000D02*
X55245000Y-116205000D01*
X88900000Y-107315000D02*
X88900000Y-106680000D01*
X88900000Y-106680000D02*
X87630000Y-105410000D01*
X87630000Y-97790000D02*
X86360000Y-96520000D01*
X87630000Y-105410000D02*
X87630000Y-97790000D01*
X88900000Y-133121400D02*
X88900000Y-132715000D01*
X88900000Y-132715000D02*
X93980000Y-127635000D01*
X93980000Y-127635000D02*
X93980000Y-112395000D01*
X93980000Y-112395000D02*
X88900000Y-107315000D01*
X74930000Y-133121400D02*
X74930000Y-130175000D01*
X71755000Y-109220000D02*
X69850000Y-107315000D01*
X71755000Y-127000000D02*
X71755000Y-109220000D01*
X74930000Y-130175000D02*
X71755000Y-127000000D01*
X69850000Y-107315000D02*
X67945000Y-107315000D01*
X66040000Y-97790000D02*
X67310000Y-96520000D01*
X66040000Y-105410000D02*
X66040000Y-97790000D01*
X67945000Y-107315000D02*
X66040000Y-105410000D01*
X60960000Y-133121400D02*
X60960000Y-132715000D01*
X60960000Y-132715000D02*
X52705000Y-124460000D01*
X50165000Y-110490000D02*
X50165000Y-107315000D01*
X52705000Y-113030000D02*
X50165000Y-110490000D01*
X52705000Y-124460000D02*
X52705000Y-120650000D01*
X50165000Y-107315000D02*
X48260000Y-107315000D01*
X46355000Y-97790000D02*
X47625000Y-96520000D01*
X46355000Y-105410000D02*
X46355000Y-97790000D01*
X48260000Y-107315000D02*
X46355000Y-105410000D01*
X31115000Y-107315000D02*
X29210000Y-107315000D01*
X27305000Y-97790000D02*
X28575000Y-96520000D01*
X27305000Y-105410000D02*
X27305000Y-97790000D01*
X29210000Y-107315000D02*
X27305000Y-105410000D01*
X46990000Y-133121400D02*
X46761400Y-133121400D01*
X46761400Y-133121400D02*
X43815000Y-130175000D01*
X43815000Y-130175000D02*
X40005000Y-130175000D01*
X40005000Y-130175000D02*
X37465000Y-127635000D01*
X37465000Y-127635000D02*
X37465000Y-113665000D01*
X37465000Y-113665000D02*
X31115000Y-107315000D01*
X45720000Y-135661400D02*
X45720000Y-135890000D01*
X45720000Y-135890000D02*
X43815000Y-137795000D01*
X43815000Y-137795000D02*
X37465000Y-137795000D01*
X37465000Y-137795000D02*
X36195000Y-136525000D01*
X36195000Y-136525000D02*
X36195000Y-114300000D01*
X36195000Y-114300000D02*
X32385000Y-110490000D01*
X32385000Y-110490000D02*
X26670000Y-110490000D01*
X26670000Y-110490000D02*
X23495000Y-107315000D01*
X88900000Y-127635000D02*
X86995000Y-127635000D01*
X85090000Y-118110000D02*
X86360000Y-116840000D01*
X85090000Y-125730000D02*
X85090000Y-118110000D01*
X86995000Y-127635000D02*
X85090000Y-125730000D01*
X81280000Y-139700000D02*
X78105000Y-136525000D01*
X81280000Y-130810000D02*
X81280000Y-127635000D01*
X78105000Y-133985000D02*
X81280000Y-130810000D01*
X78105000Y-136525000D02*
X78105000Y-133985000D01*
X69850000Y-127635000D02*
X69850000Y-126365000D01*
X68580000Y-118110000D02*
X67310000Y-116840000D01*
X68580000Y-125095000D02*
X68580000Y-118110000D01*
X69850000Y-126365000D02*
X68580000Y-125095000D01*
X66040000Y-142240000D02*
X62865000Y-139065000D01*
X67945000Y-129540000D02*
X69850000Y-127635000D01*
X61595000Y-129540000D02*
X67945000Y-129540000D01*
X60960000Y-130175000D02*
X61595000Y-129540000D01*
X60960000Y-130810000D02*
X60960000Y-130175000D01*
X62865000Y-132715000D02*
X60960000Y-130810000D01*
X62865000Y-139065000D02*
X62865000Y-132715000D01*
X52070000Y-142240000D02*
X52070000Y-137795000D01*
X47625000Y-129540000D02*
X49530000Y-127635000D01*
X47625000Y-131445000D02*
X47625000Y-129540000D01*
X48895000Y-132715000D02*
X47625000Y-131445000D01*
X48895000Y-134620000D02*
X48895000Y-132715000D01*
X52070000Y-137795000D02*
X48895000Y-134620000D01*
X49530000Y-127635000D02*
X48260000Y-127635000D01*
X45720000Y-118110000D02*
X46990000Y-116840000D01*
X45720000Y-125095000D02*
X45720000Y-118110000D01*
X48260000Y-127635000D02*
X45720000Y-125095000D01*
X30480000Y-127635000D02*
X29210000Y-127635000D01*
X27305000Y-118110000D02*
X28575000Y-116840000D01*
X27305000Y-125730000D02*
X27305000Y-118110000D01*
X29210000Y-127635000D02*
X27305000Y-125730000D01*
X38100000Y-142240000D02*
X38100000Y-143510000D01*
X30480000Y-142240000D02*
X30480000Y-127635000D01*
X33020000Y-144780000D02*
X30480000Y-142240000D01*
X36830000Y-144780000D02*
X33020000Y-144780000D01*
X38100000Y-143510000D02*
X36830000Y-144780000D01*
X39370000Y-139700000D02*
X37465000Y-139700000D01*
X31750000Y-141605000D02*
X31750000Y-140970000D01*
X32385000Y-142240000D02*
X31750000Y-141605000D01*
X34925000Y-142240000D02*
X32385000Y-142240000D01*
X37465000Y-139700000D02*
X34925000Y-142240000D01*
D23*
X32385000Y-121285000D02*
X34290000Y-123190000D01*
X34290000Y-123190000D02*
X34290000Y-124460000D01*
D24*
X93980000Y-89535000D02*
X93980000Y-88900000D01*
X96520000Y-83820000D02*
X97790000Y-83820000D01*
X95250000Y-85090000D02*
X96520000Y-83820000D01*
X95250000Y-87630000D02*
X95250000Y-85090000D01*
X93980000Y-88900000D02*
X95250000Y-87630000D01*
X97790000Y-89535000D02*
X93980000Y-89535000D01*
X93980000Y-89535000D02*
X70485000Y-89535000D01*
X69850000Y-88900000D02*
X69850000Y-86360000D01*
X70485000Y-89535000D02*
X69850000Y-88900000D01*
X97790000Y-94615000D02*
X97790000Y-89535000D01*
X97790000Y-100330000D02*
X97790000Y-94615000D01*
D22*
X100330000Y-86360000D02*
X100330000Y-87630000D01*
X100330000Y-87630000D02*
X97155000Y-87630000D01*
D25*
G36*
X33457914Y-69340146D02*
X33393284Y-69695782D01*
X34290000Y-70592498D01*
X35186716Y-69695782D01*
X35122086Y-69340146D01*
X34918023Y-69290000D01*
X101530069Y-69290000D01*
X104239021Y-69828844D01*
X106476273Y-71323727D01*
X107971156Y-73560979D01*
X108510000Y-76269931D01*
X108510000Y-152330069D01*
X107971156Y-155039021D01*
X106476273Y-157276273D01*
X104239021Y-158771156D01*
X101530069Y-159310000D01*
X25469931Y-159310000D01*
X22760979Y-158771156D01*
X20523727Y-157276273D01*
X19028844Y-155039021D01*
X18666799Y-153218894D01*
X21264284Y-153218894D01*
X21892474Y-154739229D01*
X23054653Y-155903438D01*
X24573889Y-156534280D01*
X26218894Y-156535716D01*
X27739229Y-155907526D01*
X28903438Y-154745347D01*
X29410003Y-153525403D01*
X32200682Y-153525403D01*
X32479455Y-154200086D01*
X32995199Y-154716730D01*
X33669395Y-154996681D01*
X34399403Y-154997318D01*
X35074086Y-154718545D01*
X35590730Y-154202801D01*
X35870681Y-153528605D01*
X35870683Y-153525403D01*
X91128682Y-153525403D01*
X91407455Y-154200086D01*
X91923199Y-154716730D01*
X92597395Y-154996681D01*
X93327403Y-154997318D01*
X94002086Y-154718545D01*
X94518730Y-154202801D01*
X94798681Y-153528605D01*
X94798951Y-153218894D01*
X97464284Y-153218894D01*
X98092474Y-154739229D01*
X99254653Y-155903438D01*
X100773889Y-156534280D01*
X102418894Y-156535716D01*
X103939229Y-155907526D01*
X105103438Y-154745347D01*
X105734280Y-153226111D01*
X105735716Y-151581106D01*
X105107526Y-150060771D01*
X103945347Y-148896562D01*
X102426111Y-148265720D01*
X100781106Y-148264284D01*
X99260771Y-148892474D01*
X98096562Y-150054653D01*
X97465720Y-151573889D01*
X97464284Y-153218894D01*
X94798951Y-153218894D01*
X94799318Y-152798597D01*
X94520545Y-152123914D01*
X94004801Y-151607270D01*
X93330605Y-151327319D01*
X92600597Y-151326682D01*
X91925914Y-151605455D01*
X91409270Y-152121199D01*
X91129319Y-152795395D01*
X91128682Y-153525403D01*
X35870683Y-153525403D01*
X35871318Y-152798597D01*
X35592545Y-152123914D01*
X35076801Y-151607270D01*
X34402605Y-151327319D01*
X33672597Y-151326682D01*
X32997914Y-151605455D01*
X32481270Y-152121199D01*
X32201319Y-152795395D01*
X32200682Y-153525403D01*
X29410003Y-153525403D01*
X29534280Y-153226111D01*
X29535716Y-151581106D01*
X28907526Y-150060771D01*
X27925648Y-149077177D01*
X34369574Y-149077177D01*
X34743298Y-149981657D01*
X35434703Y-150674270D01*
X36338529Y-151049572D01*
X37317177Y-151050426D01*
X38221657Y-150676702D01*
X38914270Y-149985297D01*
X39289572Y-149081471D01*
X39289575Y-149077177D01*
X87709574Y-149077177D01*
X88083298Y-149981657D01*
X88774703Y-150674270D01*
X89678529Y-151049572D01*
X90657177Y-151050426D01*
X91561657Y-150676702D01*
X92254270Y-149985297D01*
X92629572Y-149081471D01*
X92630426Y-148102823D01*
X92256702Y-147198343D01*
X91565297Y-146505730D01*
X90661471Y-146130428D01*
X89682823Y-146129574D01*
X88778343Y-146503298D01*
X88085730Y-147194703D01*
X87710428Y-148098529D01*
X87709574Y-149077177D01*
X39289575Y-149077177D01*
X39290426Y-148102823D01*
X38916702Y-147198343D01*
X38225297Y-146505730D01*
X37321471Y-146130428D01*
X36342823Y-146129574D01*
X35438343Y-146503298D01*
X34745730Y-147194703D01*
X34370428Y-148098529D01*
X34369574Y-149077177D01*
X27925648Y-149077177D01*
X27745347Y-148896562D01*
X26226111Y-148265720D01*
X24581106Y-148264284D01*
X23060771Y-148892474D01*
X21896562Y-150054653D01*
X21265720Y-151573889D01*
X21264284Y-153218894D01*
X18666799Y-153218894D01*
X18490000Y-152330069D01*
X18490000Y-127919187D01*
X21424752Y-127919187D01*
X21642757Y-128446800D01*
X22046077Y-128850824D01*
X22573309Y-129069750D01*
X23144187Y-129070248D01*
X23671800Y-128852243D01*
X24075824Y-128448923D01*
X24294750Y-127921691D01*
X24295248Y-127350813D01*
X24077243Y-126823200D01*
X23673923Y-126419176D01*
X23146691Y-126200250D01*
X22575813Y-126199752D01*
X22048200Y-126417757D01*
X21644176Y-126821077D01*
X21425250Y-127348309D01*
X21424752Y-127919187D01*
X18490000Y-127919187D01*
X18490000Y-123660000D01*
X22047560Y-123660000D01*
X22047560Y-125260000D01*
X22091838Y-125495317D01*
X22230910Y-125711441D01*
X22443110Y-125856431D01*
X22695000Y-125907440D01*
X24295000Y-125907440D01*
X24530317Y-125863162D01*
X24647739Y-125787603D01*
X25225509Y-126208754D01*
X25370844Y-126268929D01*
X25662000Y-126062410D01*
X25662000Y-124833000D01*
X25642000Y-124833000D01*
X25642000Y-124087000D01*
X25662000Y-124087000D01*
X25662000Y-122857590D01*
X25370844Y-122651071D01*
X25225509Y-122711246D01*
X24647683Y-123132438D01*
X24546890Y-123063569D01*
X24295000Y-123012560D01*
X22695000Y-123012560D01*
X22459683Y-123056838D01*
X22243559Y-123195910D01*
X22098569Y-123408110D01*
X22047560Y-123660000D01*
X18490000Y-123660000D01*
X18490000Y-117504159D01*
X21686048Y-117504159D01*
X22077909Y-118145859D01*
X22685509Y-118588754D01*
X22830844Y-118648929D01*
X23122000Y-118442410D01*
X23122000Y-117213000D01*
X21886172Y-117213000D01*
X21686048Y-117504159D01*
X18490000Y-117504159D01*
X18490000Y-113577373D01*
X21532204Y-113577373D01*
X21648080Y-114335173D01*
X21715146Y-114497086D01*
X22070782Y-114561716D01*
X22967498Y-113665000D01*
X24022502Y-113665000D01*
X24919218Y-114561716D01*
X25274854Y-114497086D01*
X25457796Y-113752627D01*
X25444397Y-113665000D01*
X29531887Y-113665000D01*
X29641120Y-114214151D01*
X29952189Y-114679698D01*
X30417736Y-114990767D01*
X30966887Y-115100000D01*
X31023113Y-115100000D01*
X31572264Y-114990767D01*
X32037811Y-114679698D01*
X32348880Y-114214151D01*
X32458113Y-113665000D01*
X32348880Y-113115849D01*
X32037811Y-112650302D01*
X31572264Y-112339233D01*
X31023113Y-112230000D01*
X30966887Y-112230000D01*
X30417736Y-112339233D01*
X29952189Y-112650302D01*
X29641120Y-113115849D01*
X29531887Y-113665000D01*
X25444397Y-113665000D01*
X25341920Y-112994827D01*
X25274854Y-112832914D01*
X24919218Y-112768284D01*
X24022502Y-113665000D01*
X22967498Y-113665000D01*
X22070782Y-112768284D01*
X21715146Y-112832914D01*
X21532204Y-113577373D01*
X18490000Y-113577373D01*
X18490000Y-112240782D01*
X22598284Y-112240782D01*
X23495000Y-113137498D01*
X24391716Y-112240782D01*
X24327086Y-111885146D01*
X23582627Y-111702204D01*
X22824827Y-111818080D01*
X22662914Y-111885146D01*
X22598284Y-112240782D01*
X18490000Y-112240782D01*
X18490000Y-103340000D01*
X22047560Y-103340000D01*
X22047560Y-104940000D01*
X22091838Y-105175317D01*
X22230910Y-105391441D01*
X22443110Y-105536431D01*
X22695000Y-105587440D01*
X24295000Y-105587440D01*
X24530317Y-105543162D01*
X24647739Y-105467603D01*
X25225509Y-105888754D01*
X25370844Y-105948929D01*
X25662000Y-105742410D01*
X25662000Y-104513000D01*
X25642000Y-104513000D01*
X25642000Y-103767000D01*
X25662000Y-103767000D01*
X25662000Y-102537590D01*
X25370844Y-102331071D01*
X25225509Y-102391246D01*
X24647683Y-102812438D01*
X24546890Y-102743569D01*
X24295000Y-102692560D01*
X22695000Y-102692560D01*
X22459683Y-102736838D01*
X22243559Y-102875910D01*
X22098569Y-103088110D01*
X22047560Y-103340000D01*
X18490000Y-103340000D01*
X18490000Y-97184159D01*
X21686048Y-97184159D01*
X22077909Y-97825859D01*
X22685509Y-98268754D01*
X22830844Y-98328929D01*
X23122000Y-98122410D01*
X23122000Y-96893000D01*
X21886172Y-96893000D01*
X21686048Y-97184159D01*
X18490000Y-97184159D01*
X18490000Y-95855841D01*
X21686048Y-95855841D01*
X21886172Y-96147000D01*
X23122000Y-96147000D01*
X23122000Y-96127000D01*
X23868000Y-96127000D01*
X23868000Y-96147000D01*
X23888000Y-96147000D01*
X23888000Y-96893000D01*
X23868000Y-96893000D01*
X23868000Y-98122410D01*
X24159156Y-98328929D01*
X24304491Y-98268754D01*
X24912091Y-97825859D01*
X25057533Y-97587688D01*
X25485849Y-97873880D01*
X26035000Y-97983113D01*
X26470000Y-97896586D01*
X26470000Y-102493613D01*
X26408000Y-102537590D01*
X26408000Y-103767000D01*
X26428000Y-103767000D01*
X26428000Y-104513000D01*
X26408000Y-104513000D01*
X26408000Y-105742410D01*
X26663030Y-105923304D01*
X26707082Y-105989233D01*
X26714566Y-106000434D01*
X28619566Y-107905434D01*
X28890459Y-108086439D01*
X29210000Y-108150000D01*
X29952118Y-108150000D01*
X30072189Y-108329698D01*
X30537736Y-108640767D01*
X31086887Y-108750000D01*
X31143113Y-108750000D01*
X31331633Y-108712501D01*
X32274132Y-109655000D01*
X27015868Y-109655000D01*
X24929779Y-107568911D01*
X24930248Y-107030813D01*
X24712243Y-106503200D01*
X24308923Y-106099176D01*
X23781691Y-105880250D01*
X23210813Y-105879752D01*
X22683200Y-106097757D01*
X22279176Y-106501077D01*
X22060250Y-107028309D01*
X22059752Y-107599187D01*
X22277757Y-108126800D01*
X22681077Y-108530824D01*
X23208309Y-108749750D01*
X23749354Y-108750222D01*
X26079566Y-111080434D01*
X26350459Y-111261439D01*
X26670000Y-111325000D01*
X32039132Y-111325000D01*
X35360000Y-114645868D01*
X35360000Y-131850363D01*
X35076801Y-131566670D01*
X34402605Y-131286719D01*
X33672597Y-131286082D01*
X32997914Y-131564855D01*
X32481270Y-132080599D01*
X32201319Y-132754795D01*
X32200682Y-133484803D01*
X32479455Y-134159486D01*
X32995199Y-134676130D01*
X33669395Y-134956081D01*
X34399403Y-134956718D01*
X35074086Y-134677945D01*
X35360000Y-134392529D01*
X35360000Y-136525000D01*
X35423561Y-136844541D01*
X35558278Y-137046159D01*
X35604566Y-137115434D01*
X36874566Y-138385434D01*
X37145459Y-138566439D01*
X37465000Y-138630000D01*
X38481471Y-138630000D01*
X38246061Y-138865000D01*
X37465000Y-138865000D01*
X37145459Y-138928561D01*
X36970476Y-139045481D01*
X36874566Y-139109566D01*
X36531395Y-139452737D01*
X36531718Y-139082597D01*
X36252945Y-138407914D01*
X35737201Y-137891270D01*
X35063005Y-137611319D01*
X34332997Y-137610682D01*
X33658314Y-137889455D01*
X33141670Y-138405199D01*
X32861719Y-139079395D01*
X32861082Y-139809403D01*
X33139855Y-140484086D01*
X33655599Y-141000730D01*
X34329795Y-141280681D01*
X34703125Y-141281007D01*
X34579132Y-141405000D01*
X32730868Y-141405000D01*
X32585000Y-141259132D01*
X32585000Y-140970729D01*
X32585145Y-140804637D01*
X32458292Y-140497628D01*
X32223607Y-140262534D01*
X31916821Y-140135145D01*
X31584637Y-140134855D01*
X31315000Y-140246266D01*
X31315000Y-128788553D01*
X31522811Y-128649698D01*
X31833880Y-128184151D01*
X31943113Y-127635000D01*
X31833880Y-127085849D01*
X31522811Y-126620302D01*
X31057264Y-126309233D01*
X30508113Y-126200000D01*
X30451887Y-126200000D01*
X29902736Y-126309233D01*
X29437189Y-126620302D01*
X29412748Y-126656880D01*
X28948002Y-126192134D01*
X28948002Y-126062411D01*
X29239156Y-126268929D01*
X29384491Y-126208754D01*
X29992091Y-125765859D01*
X30137533Y-125527688D01*
X30565849Y-125813880D01*
X31115000Y-125923113D01*
X31664151Y-125813880D01*
X32129698Y-125502811D01*
X32440767Y-125037264D01*
X32550000Y-124488113D01*
X32550000Y-124431887D01*
X32440767Y-123882736D01*
X32129698Y-123417189D01*
X31664151Y-123106120D01*
X31115000Y-122996887D01*
X30565849Y-123106120D01*
X30137533Y-123392312D01*
X29992091Y-123154141D01*
X29384491Y-122711246D01*
X29239156Y-122651071D01*
X28948000Y-122857590D01*
X28948000Y-124087000D01*
X28968000Y-124087000D01*
X28968000Y-124833000D01*
X28948000Y-124833000D01*
X28948000Y-124853000D01*
X28202000Y-124853000D01*
X28202000Y-124833000D01*
X28182000Y-124833000D01*
X28182000Y-124087000D01*
X28202000Y-124087000D01*
X28202000Y-122857590D01*
X28140000Y-122813613D01*
X28140000Y-118455868D01*
X28339582Y-118256286D01*
X28575000Y-118303113D01*
X29124151Y-118193880D01*
X29589698Y-117882811D01*
X29845000Y-117500725D01*
X30100302Y-117882811D01*
X30565849Y-118193880D01*
X31115000Y-118303113D01*
X31664151Y-118193880D01*
X32129698Y-117882811D01*
X32440767Y-117417264D01*
X32550000Y-116868113D01*
X32550000Y-116811887D01*
X32440767Y-116262736D01*
X32129698Y-115797189D01*
X31664151Y-115486120D01*
X31115000Y-115376887D01*
X30565849Y-115486120D01*
X30100302Y-115797189D01*
X29845000Y-116179275D01*
X29589698Y-115797189D01*
X29124151Y-115486120D01*
X28575000Y-115376887D01*
X28025849Y-115486120D01*
X27560302Y-115797189D01*
X27305000Y-116179275D01*
X27049698Y-115797189D01*
X26584151Y-115486120D01*
X26035000Y-115376887D01*
X25485849Y-115486120D01*
X25057533Y-115772312D01*
X24912091Y-115534141D01*
X24381188Y-115147152D01*
X24391716Y-115089218D01*
X23495000Y-114192502D01*
X22598284Y-115089218D01*
X22608812Y-115147152D01*
X22077909Y-115534141D01*
X21686048Y-116175841D01*
X21886172Y-116467000D01*
X23122000Y-116467000D01*
X23122000Y-116447000D01*
X23868000Y-116447000D01*
X23868000Y-116467000D01*
X23888000Y-116467000D01*
X23888000Y-117213000D01*
X23868000Y-117213000D01*
X23868000Y-118442410D01*
X24159156Y-118648929D01*
X24304491Y-118588754D01*
X24912091Y-118145859D01*
X25057533Y-117907688D01*
X25485849Y-118193880D01*
X26035000Y-118303113D01*
X26470000Y-118216586D01*
X26470000Y-122813613D01*
X26408000Y-122857590D01*
X26408000Y-124087000D01*
X26428000Y-124087000D01*
X26428000Y-124833000D01*
X26408000Y-124833000D01*
X26408000Y-126062410D01*
X26663030Y-126243304D01*
X26707082Y-126309233D01*
X26714566Y-126320434D01*
X28619566Y-128225434D01*
X28890459Y-128406439D01*
X29210000Y-128470000D01*
X29317118Y-128470000D01*
X29437189Y-128649698D01*
X29645000Y-128788553D01*
X29645000Y-142240000D01*
X29708561Y-142559541D01*
X29889566Y-142830434D01*
X32429566Y-145370434D01*
X32700459Y-145551439D01*
X33020000Y-145615000D01*
X36830000Y-145615000D01*
X37149541Y-145551439D01*
X37420434Y-145370434D01*
X38690434Y-144100434D01*
X38871439Y-143829541D01*
X38911970Y-143625780D01*
X39085317Y-143593162D01*
X39301441Y-143454090D01*
X39446431Y-143241890D01*
X39486355Y-143044738D01*
X39854436Y-143413461D01*
X40363298Y-143624759D01*
X40914285Y-143625240D01*
X41423515Y-143414831D01*
X41813461Y-143025564D01*
X41909976Y-142793130D01*
X42005169Y-143023515D01*
X42394436Y-143413461D01*
X42903298Y-143624759D01*
X43454285Y-143625240D01*
X43963515Y-143414831D01*
X44353461Y-143025564D01*
X44449976Y-142793130D01*
X44545169Y-143023515D01*
X44934436Y-143413461D01*
X45443298Y-143624759D01*
X45994285Y-143625240D01*
X46503515Y-143414831D01*
X46893461Y-143025564D01*
X47104759Y-142516702D01*
X47105240Y-141965715D01*
X46894831Y-141456485D01*
X46505564Y-141066539D01*
X45996702Y-140855241D01*
X45445715Y-140854760D01*
X44936485Y-141065169D01*
X44546539Y-141454436D01*
X44450024Y-141686870D01*
X44354831Y-141456485D01*
X43965564Y-141066539D01*
X43456702Y-140855241D01*
X42905715Y-140854760D01*
X42396485Y-141065169D01*
X42006539Y-141454436D01*
X41910024Y-141686870D01*
X41814831Y-141456485D01*
X41425564Y-141066539D01*
X40916702Y-140855241D01*
X40365715Y-140854760D01*
X39856485Y-141065169D01*
X39486920Y-141434091D01*
X39453162Y-141254683D01*
X39343960Y-141084978D01*
X39644285Y-141085240D01*
X40153515Y-140874831D01*
X40543461Y-140485564D01*
X40639976Y-140253130D01*
X40735169Y-140483515D01*
X41124436Y-140873461D01*
X41633298Y-141084759D01*
X42184285Y-141085240D01*
X42693515Y-140874831D01*
X43083461Y-140485564D01*
X43179976Y-140253130D01*
X43275169Y-140483515D01*
X43664436Y-140873461D01*
X44173298Y-141084759D01*
X44724285Y-141085240D01*
X45233515Y-140874831D01*
X45623461Y-140485564D01*
X45719976Y-140253130D01*
X45815169Y-140483515D01*
X46204436Y-140873461D01*
X46713298Y-141084759D01*
X47264285Y-141085240D01*
X47773515Y-140874831D01*
X48163461Y-140485564D01*
X48374759Y-139976702D01*
X48375240Y-139425715D01*
X48164831Y-138916485D01*
X47775564Y-138526539D01*
X47266702Y-138315241D01*
X46715715Y-138314760D01*
X46206485Y-138525169D01*
X45816539Y-138914436D01*
X45720024Y-139146870D01*
X45624831Y-138916485D01*
X45235564Y-138526539D01*
X44726702Y-138315241D01*
X44475846Y-138315022D01*
X45744446Y-137046422D01*
X45994285Y-137046640D01*
X46503515Y-136836231D01*
X46893461Y-136446964D01*
X47104759Y-135938102D01*
X47105240Y-135387115D01*
X46894831Y-134877885D01*
X46536411Y-134518840D01*
X47740000Y-134518840D01*
X47975317Y-134474562D01*
X48060000Y-134420070D01*
X48060000Y-134620000D01*
X48123561Y-134939541D01*
X48304566Y-135210434D01*
X51235000Y-138140868D01*
X51235000Y-140858554D01*
X51084683Y-140886838D01*
X50868559Y-141025910D01*
X50723569Y-141238110D01*
X50672560Y-141490000D01*
X50672560Y-142990000D01*
X50716838Y-143225317D01*
X50855910Y-143441441D01*
X51068110Y-143586431D01*
X51320000Y-143637440D01*
X52820000Y-143637440D01*
X53055317Y-143593162D01*
X53271441Y-143454090D01*
X53416431Y-143241890D01*
X53456355Y-143044738D01*
X53824436Y-143413461D01*
X54333298Y-143624759D01*
X54884285Y-143625240D01*
X55393515Y-143414831D01*
X55783461Y-143025564D01*
X55879976Y-142793130D01*
X55975169Y-143023515D01*
X56364436Y-143413461D01*
X56873298Y-143624759D01*
X57424285Y-143625240D01*
X57933515Y-143414831D01*
X58323461Y-143025564D01*
X58419976Y-142793130D01*
X58515169Y-143023515D01*
X58904436Y-143413461D01*
X59413298Y-143624759D01*
X59964285Y-143625240D01*
X60473515Y-143414831D01*
X60863461Y-143025564D01*
X61074759Y-142516702D01*
X61075240Y-141965715D01*
X60864831Y-141456485D01*
X60475564Y-141066539D01*
X59966702Y-140855241D01*
X59415715Y-140854760D01*
X58906485Y-141065169D01*
X58516539Y-141454436D01*
X58420024Y-141686870D01*
X58324831Y-141456485D01*
X57935564Y-141066539D01*
X57426702Y-140855241D01*
X56875715Y-140854760D01*
X56366485Y-141065169D01*
X55976539Y-141454436D01*
X55880024Y-141686870D01*
X55784831Y-141456485D01*
X55395564Y-141066539D01*
X54886702Y-140855241D01*
X54335715Y-140854760D01*
X53826485Y-141065169D01*
X53456920Y-141434091D01*
X53423162Y-141254683D01*
X53313960Y-141084978D01*
X53614285Y-141085240D01*
X54123515Y-140874831D01*
X54513461Y-140485564D01*
X54609976Y-140253130D01*
X54705169Y-140483515D01*
X55094436Y-140873461D01*
X55603298Y-141084759D01*
X56154285Y-141085240D01*
X56663515Y-140874831D01*
X57053461Y-140485564D01*
X57149976Y-140253130D01*
X57245169Y-140483515D01*
X57634436Y-140873461D01*
X58143298Y-141084759D01*
X58694285Y-141085240D01*
X59203515Y-140874831D01*
X59593461Y-140485564D01*
X59689976Y-140253130D01*
X59785169Y-140483515D01*
X60174436Y-140873461D01*
X60683298Y-141084759D01*
X61234285Y-141085240D01*
X61743515Y-140874831D01*
X62133461Y-140485564D01*
X62344759Y-139976702D01*
X62344978Y-139725846D01*
X64642560Y-142023428D01*
X64642560Y-142990000D01*
X64686838Y-143225317D01*
X64825910Y-143441441D01*
X65038110Y-143586431D01*
X65290000Y-143637440D01*
X66790000Y-143637440D01*
X67025317Y-143593162D01*
X67241441Y-143454090D01*
X67386431Y-143241890D01*
X67426355Y-143044738D01*
X67794436Y-143413461D01*
X68303298Y-143624759D01*
X68854285Y-143625240D01*
X69363515Y-143414831D01*
X69753461Y-143025564D01*
X69849976Y-142793130D01*
X69945169Y-143023515D01*
X70334436Y-143413461D01*
X70843298Y-143624759D01*
X71394285Y-143625240D01*
X71903515Y-143414831D01*
X72293461Y-143025564D01*
X72389976Y-142793130D01*
X72485169Y-143023515D01*
X72874436Y-143413461D01*
X73383298Y-143624759D01*
X73934285Y-143625240D01*
X74443515Y-143414831D01*
X74833461Y-143025564D01*
X75044759Y-142516702D01*
X75045240Y-141965715D01*
X74834831Y-141456485D01*
X74445564Y-141066539D01*
X73936702Y-140855241D01*
X73385715Y-140854760D01*
X72876485Y-141065169D01*
X72486539Y-141454436D01*
X72390024Y-141686870D01*
X72294831Y-141456485D01*
X71905564Y-141066539D01*
X71396702Y-140855241D01*
X70845715Y-140854760D01*
X70336485Y-141065169D01*
X69946539Y-141454436D01*
X69850024Y-141686870D01*
X69754831Y-141456485D01*
X69365564Y-141066539D01*
X68856702Y-140855241D01*
X68305715Y-140854760D01*
X67796485Y-141065169D01*
X67426920Y-141434091D01*
X67393162Y-141254683D01*
X67283960Y-141084978D01*
X67584285Y-141085240D01*
X68093515Y-140874831D01*
X68483461Y-140485564D01*
X68579976Y-140253130D01*
X68675169Y-140483515D01*
X69064436Y-140873461D01*
X69573298Y-141084759D01*
X70124285Y-141085240D01*
X70633515Y-140874831D01*
X71023461Y-140485564D01*
X71119976Y-140253130D01*
X71215169Y-140483515D01*
X71604436Y-140873461D01*
X72113298Y-141084759D01*
X72664285Y-141085240D01*
X73173515Y-140874831D01*
X73563461Y-140485564D01*
X73659976Y-140253130D01*
X73755169Y-140483515D01*
X74144436Y-140873461D01*
X74653298Y-141084759D01*
X75204285Y-141085240D01*
X75713515Y-140874831D01*
X76103461Y-140485564D01*
X76314759Y-139976702D01*
X76315240Y-139425715D01*
X76104831Y-138916485D01*
X75715564Y-138526539D01*
X75206702Y-138315241D01*
X74655715Y-138314760D01*
X74146485Y-138525169D01*
X73756539Y-138914436D01*
X73660024Y-139146870D01*
X73564831Y-138916485D01*
X73175564Y-138526539D01*
X72666702Y-138315241D01*
X72115715Y-138314760D01*
X71606485Y-138525169D01*
X71216539Y-138914436D01*
X71120024Y-139146870D01*
X71024831Y-138916485D01*
X70635564Y-138526539D01*
X70126702Y-138315241D01*
X69575715Y-138314760D01*
X69066485Y-138525169D01*
X68676539Y-138914436D01*
X68580024Y-139146870D01*
X68484831Y-138916485D01*
X68095564Y-138526539D01*
X67586702Y-138315241D01*
X67035715Y-138314760D01*
X66526485Y-138525169D01*
X66136539Y-138914436D01*
X65925241Y-139423298D01*
X65924760Y-139974285D01*
X66135169Y-140483515D01*
X66493589Y-140842560D01*
X65823428Y-140842560D01*
X63700000Y-138719132D01*
X63700000Y-133124281D01*
X63768395Y-133152681D01*
X64498403Y-133153318D01*
X65173086Y-132874545D01*
X65689730Y-132358801D01*
X65969681Y-131684605D01*
X65970318Y-130954597D01*
X65730834Y-130375000D01*
X67945000Y-130375000D01*
X68264541Y-130311439D01*
X68535434Y-130130434D01*
X69633367Y-129032501D01*
X69821887Y-129070000D01*
X69878113Y-129070000D01*
X70427264Y-128960767D01*
X70892811Y-128649698D01*
X71203880Y-128184151D01*
X71295861Y-127721729D01*
X74095000Y-130520868D01*
X74095000Y-131739954D01*
X73944683Y-131768238D01*
X73728559Y-131907310D01*
X73583569Y-132119510D01*
X73543645Y-132316662D01*
X73175564Y-131947939D01*
X72666702Y-131736641D01*
X72115715Y-131736160D01*
X71606485Y-131946569D01*
X71216539Y-132335836D01*
X71120024Y-132568270D01*
X71024831Y-132337885D01*
X70635564Y-131947939D01*
X70126702Y-131736641D01*
X69575715Y-131736160D01*
X69066485Y-131946569D01*
X68676539Y-132335836D01*
X68580024Y-132568270D01*
X68484831Y-132337885D01*
X68095564Y-131947939D01*
X67586702Y-131736641D01*
X67035715Y-131736160D01*
X66526485Y-131946569D01*
X66136539Y-132335836D01*
X65925241Y-132844698D01*
X65924760Y-133395685D01*
X66135169Y-133904915D01*
X66524436Y-134294861D01*
X67033298Y-134506159D01*
X67584285Y-134506640D01*
X68093515Y-134296231D01*
X68483461Y-133906964D01*
X68579976Y-133674530D01*
X68675169Y-133904915D01*
X69064436Y-134294861D01*
X69573298Y-134506159D01*
X70124285Y-134506640D01*
X70633515Y-134296231D01*
X71023461Y-133906964D01*
X71119976Y-133674530D01*
X71215169Y-133904915D01*
X71604436Y-134294861D01*
X72113298Y-134506159D01*
X72664285Y-134506640D01*
X73173515Y-134296231D01*
X73543080Y-133927309D01*
X73576838Y-134106717D01*
X73686040Y-134276422D01*
X73385715Y-134276160D01*
X72876485Y-134486569D01*
X72486539Y-134875836D01*
X72390024Y-135108270D01*
X72294831Y-134877885D01*
X71905564Y-134487939D01*
X71396702Y-134276641D01*
X70845715Y-134276160D01*
X70336485Y-134486569D01*
X69946539Y-134875836D01*
X69850024Y-135108270D01*
X69754831Y-134877885D01*
X69365564Y-134487939D01*
X68856702Y-134276641D01*
X68305715Y-134276160D01*
X67796485Y-134486569D01*
X67406539Y-134875836D01*
X67310024Y-135108270D01*
X67214831Y-134877885D01*
X66825564Y-134487939D01*
X66316702Y-134276641D01*
X65765715Y-134276160D01*
X65256485Y-134486569D01*
X64866539Y-134875836D01*
X64655241Y-135384698D01*
X64654760Y-135935685D01*
X64865169Y-136444915D01*
X65254436Y-136834861D01*
X65763298Y-137046159D01*
X66314285Y-137046640D01*
X66823515Y-136836231D01*
X67213461Y-136446964D01*
X67309976Y-136214530D01*
X67405169Y-136444915D01*
X67794436Y-136834861D01*
X68303298Y-137046159D01*
X68854285Y-137046640D01*
X69363515Y-136836231D01*
X69753461Y-136446964D01*
X69849976Y-136214530D01*
X69945169Y-136444915D01*
X70334436Y-136834861D01*
X70843298Y-137046159D01*
X71394285Y-137046640D01*
X71903515Y-136836231D01*
X72293461Y-136446964D01*
X72389976Y-136214530D01*
X72485169Y-136444915D01*
X72874436Y-136834861D01*
X73383298Y-137046159D01*
X73934285Y-137046640D01*
X74443515Y-136836231D01*
X74833461Y-136446964D01*
X75044759Y-135938102D01*
X75045240Y-135387115D01*
X74834831Y-134877885D01*
X74476411Y-134518840D01*
X75680000Y-134518840D01*
X75915317Y-134474562D01*
X76131441Y-134335490D01*
X76276431Y-134123290D01*
X76327440Y-133871400D01*
X76327440Y-132371400D01*
X76283162Y-132136083D01*
X76144090Y-131919959D01*
X75931890Y-131774969D01*
X75765000Y-131741173D01*
X75765000Y-130175000D01*
X75701439Y-129855459D01*
X75520434Y-129584566D01*
X72590000Y-126654132D01*
X72590000Y-109220000D01*
X72526439Y-108900459D01*
X72345434Y-108629566D01*
X71266286Y-107550418D01*
X71313113Y-107315000D01*
X71203880Y-106765849D01*
X70892811Y-106300302D01*
X70427264Y-105989233D01*
X69878113Y-105880000D01*
X69821887Y-105880000D01*
X69272736Y-105989233D01*
X68807189Y-106300302D01*
X68687118Y-106480000D01*
X68290868Y-106480000D01*
X67683002Y-105872134D01*
X67683002Y-105742411D01*
X67974156Y-105948929D01*
X68119491Y-105888754D01*
X68727091Y-105445859D01*
X68872533Y-105207688D01*
X69300849Y-105493880D01*
X69850000Y-105603113D01*
X70399151Y-105493880D01*
X70864698Y-105182811D01*
X71175767Y-104717264D01*
X71285000Y-104168113D01*
X71285000Y-104111887D01*
X71175767Y-103562736D01*
X70864698Y-103097189D01*
X70399151Y-102786120D01*
X69850000Y-102676887D01*
X69300849Y-102786120D01*
X68872533Y-103072312D01*
X68727091Y-102834141D01*
X68119491Y-102391246D01*
X67974156Y-102331071D01*
X67683000Y-102537590D01*
X67683000Y-103767000D01*
X67703000Y-103767000D01*
X67703000Y-104513000D01*
X67683000Y-104513000D01*
X67683000Y-104533000D01*
X66937000Y-104533000D01*
X66937000Y-104513000D01*
X66917000Y-104513000D01*
X66917000Y-103767000D01*
X66937000Y-103767000D01*
X66937000Y-102537590D01*
X66875000Y-102493613D01*
X66875000Y-98135868D01*
X67074582Y-97936286D01*
X67310000Y-97983113D01*
X67859151Y-97873880D01*
X68324698Y-97562811D01*
X68580000Y-97180725D01*
X68835302Y-97562811D01*
X69300849Y-97873880D01*
X69850000Y-97983113D01*
X70399151Y-97873880D01*
X70864698Y-97562811D01*
X71175767Y-97097264D01*
X71285000Y-96548113D01*
X71285000Y-96491887D01*
X71175767Y-95942736D01*
X70864698Y-95477189D01*
X70399151Y-95166120D01*
X69850000Y-95056887D01*
X69300849Y-95166120D01*
X68835302Y-95477189D01*
X68580000Y-95859275D01*
X68324698Y-95477189D01*
X67859151Y-95166120D01*
X67310000Y-95056887D01*
X66760849Y-95166120D01*
X66295302Y-95477189D01*
X66040000Y-95859275D01*
X65784698Y-95477189D01*
X65319151Y-95166120D01*
X64770000Y-95056887D01*
X64220849Y-95166120D01*
X63792533Y-95452312D01*
X63647091Y-95214141D01*
X63116188Y-94827152D01*
X63126716Y-94769218D01*
X62230000Y-93872502D01*
X61333284Y-94769218D01*
X61343812Y-94827152D01*
X60812909Y-95214141D01*
X60421048Y-95855841D01*
X60621172Y-96147000D01*
X61857000Y-96147000D01*
X61857000Y-96127000D01*
X62603000Y-96127000D01*
X62603000Y-96147000D01*
X62623000Y-96147000D01*
X62623000Y-96893000D01*
X62603000Y-96893000D01*
X62603000Y-98122410D01*
X62894156Y-98328929D01*
X63039491Y-98268754D01*
X63647091Y-97825859D01*
X63792533Y-97587688D01*
X64220849Y-97873880D01*
X64770000Y-97983113D01*
X65205000Y-97896586D01*
X65205000Y-102493613D01*
X65143000Y-102537590D01*
X65143000Y-103767000D01*
X65163000Y-103767000D01*
X65163000Y-104513000D01*
X65143000Y-104513000D01*
X65143000Y-105742410D01*
X65398030Y-105923304D01*
X65442082Y-105989233D01*
X65449566Y-106000434D01*
X67354566Y-107905434D01*
X67625459Y-108086439D01*
X67945000Y-108150000D01*
X68687118Y-108150000D01*
X68807189Y-108329698D01*
X69272736Y-108640767D01*
X69821887Y-108750000D01*
X69878113Y-108750000D01*
X70066633Y-108712501D01*
X70920000Y-109565868D01*
X70920000Y-112870586D01*
X70772811Y-112650302D01*
X70307264Y-112339233D01*
X69758113Y-112230000D01*
X69701887Y-112230000D01*
X69152736Y-112339233D01*
X68687189Y-112650302D01*
X68376120Y-113115849D01*
X68266887Y-113665000D01*
X68376120Y-114214151D01*
X68687189Y-114679698D01*
X69152736Y-114990767D01*
X69701887Y-115100000D01*
X69758113Y-115100000D01*
X70307264Y-114990767D01*
X70772811Y-114679698D01*
X70920000Y-114459414D01*
X70920000Y-115879954D01*
X70864698Y-115797189D01*
X70399151Y-115486120D01*
X69850000Y-115376887D01*
X69300849Y-115486120D01*
X68835302Y-115797189D01*
X68580000Y-116179275D01*
X68324698Y-115797189D01*
X67859151Y-115486120D01*
X67310000Y-115376887D01*
X66760849Y-115486120D01*
X66295302Y-115797189D01*
X66040000Y-116179275D01*
X65784698Y-115797189D01*
X65319151Y-115486120D01*
X64770000Y-115376887D01*
X64220849Y-115486120D01*
X63792533Y-115772312D01*
X63647091Y-115534141D01*
X63116188Y-115147152D01*
X63126716Y-115089218D01*
X62230000Y-114192502D01*
X61333284Y-115089218D01*
X61343812Y-115147152D01*
X60812909Y-115534141D01*
X60421048Y-116175841D01*
X60621172Y-116467000D01*
X61857000Y-116467000D01*
X61857000Y-116447000D01*
X62603000Y-116447000D01*
X62603000Y-116467000D01*
X62623000Y-116467000D01*
X62623000Y-117213000D01*
X62603000Y-117213000D01*
X62603000Y-118442410D01*
X62894156Y-118648929D01*
X63039491Y-118588754D01*
X63647091Y-118145859D01*
X63792533Y-117907688D01*
X64220849Y-118193880D01*
X64770000Y-118303113D01*
X65319151Y-118193880D01*
X65784698Y-117882811D01*
X66040000Y-117500725D01*
X66295302Y-117882811D01*
X66760849Y-118193880D01*
X67310000Y-118303113D01*
X67545418Y-118256286D01*
X67745000Y-118455868D01*
X67745000Y-122813613D01*
X67683000Y-122857590D01*
X67683000Y-124087000D01*
X67703000Y-124087000D01*
X67703000Y-124833000D01*
X67683000Y-124833000D01*
X67683000Y-126062410D01*
X67974156Y-126268929D01*
X68119491Y-126208754D01*
X68347028Y-126042896D01*
X68877472Y-126573340D01*
X68807189Y-126620302D01*
X68496120Y-127085849D01*
X68386887Y-127635000D01*
X68433714Y-127870418D01*
X67599132Y-128705000D01*
X63189300Y-128705000D01*
X63445824Y-128448923D01*
X63664750Y-127921691D01*
X63665248Y-127350813D01*
X63602933Y-127200000D01*
X65059132Y-127200000D01*
X66083764Y-128224632D01*
X66201393Y-128342466D01*
X66508179Y-128469855D01*
X66840363Y-128470145D01*
X67147372Y-128343292D01*
X67382466Y-128108607D01*
X67509855Y-127801821D01*
X67510145Y-127469637D01*
X67383292Y-127162628D01*
X67148607Y-126927534D01*
X67148256Y-126927388D01*
X66239005Y-126018137D01*
X66500509Y-126208754D01*
X66645844Y-126268929D01*
X66937000Y-126062410D01*
X66937000Y-124833000D01*
X65143000Y-124833000D01*
X65143000Y-124853000D01*
X64397000Y-124853000D01*
X64397000Y-124833000D01*
X64377000Y-124833000D01*
X64377000Y-124087000D01*
X64397000Y-124087000D01*
X64397000Y-122857590D01*
X65143000Y-122857590D01*
X65143000Y-124087000D01*
X66937000Y-124087000D01*
X66937000Y-122857590D01*
X66645844Y-122651071D01*
X66500509Y-122711246D01*
X66040000Y-123046923D01*
X65579491Y-122711246D01*
X65434156Y-122651071D01*
X65143000Y-122857590D01*
X64397000Y-122857590D01*
X64105844Y-122651071D01*
X63960509Y-122711246D01*
X63382683Y-123132438D01*
X63281890Y-123063569D01*
X63030000Y-123012560D01*
X61430000Y-123012560D01*
X61194683Y-123056838D01*
X60978559Y-123195910D01*
X60833569Y-123408110D01*
X60782560Y-123660000D01*
X60782560Y-125260000D01*
X60826838Y-125495317D01*
X60849156Y-125530000D01*
X60670868Y-125530000D01*
X59255000Y-124114132D01*
X59255000Y-117504159D01*
X60421048Y-117504159D01*
X60812909Y-118145859D01*
X61420509Y-118588754D01*
X61565844Y-118648929D01*
X61857000Y-118442410D01*
X61857000Y-117213000D01*
X60621172Y-117213000D01*
X60421048Y-117504159D01*
X59255000Y-117504159D01*
X59255000Y-113577373D01*
X60267204Y-113577373D01*
X60383080Y-114335173D01*
X60450146Y-114497086D01*
X60805782Y-114561716D01*
X61702498Y-113665000D01*
X62757502Y-113665000D01*
X63654218Y-114561716D01*
X64009854Y-114497086D01*
X64192796Y-113752627D01*
X64076920Y-112994827D01*
X64009854Y-112832914D01*
X63654218Y-112768284D01*
X62757502Y-113665000D01*
X61702498Y-113665000D01*
X60805782Y-112768284D01*
X60450146Y-112832914D01*
X60267204Y-113577373D01*
X59255000Y-113577373D01*
X59255000Y-112240782D01*
X61333284Y-112240782D01*
X62230000Y-113137498D01*
X63126716Y-112240782D01*
X63062086Y-111885146D01*
X62317627Y-111702204D01*
X61559827Y-111818080D01*
X61397914Y-111885146D01*
X61333284Y-112240782D01*
X59255000Y-112240782D01*
X59255000Y-107599187D01*
X60794752Y-107599187D01*
X61012757Y-108126800D01*
X61416077Y-108530824D01*
X61943309Y-108749750D01*
X62514187Y-108750248D01*
X63041800Y-108532243D01*
X63445824Y-108128923D01*
X63664750Y-107601691D01*
X63665248Y-107030813D01*
X63447243Y-106503200D01*
X63043923Y-106099176D01*
X62516691Y-105880250D01*
X61945813Y-105879752D01*
X61418200Y-106097757D01*
X61014176Y-106501077D01*
X60795250Y-107028309D01*
X60794752Y-107599187D01*
X59255000Y-107599187D01*
X59255000Y-103340000D01*
X60782560Y-103340000D01*
X60782560Y-104940000D01*
X60826838Y-105175317D01*
X60965910Y-105391441D01*
X61178110Y-105536431D01*
X61430000Y-105587440D01*
X63030000Y-105587440D01*
X63265317Y-105543162D01*
X63382739Y-105467603D01*
X63960509Y-105888754D01*
X64105844Y-105948929D01*
X64397000Y-105742410D01*
X64397000Y-104513000D01*
X64377000Y-104513000D01*
X64377000Y-103767000D01*
X64397000Y-103767000D01*
X64397000Y-102537590D01*
X64105844Y-102331071D01*
X63960509Y-102391246D01*
X63382683Y-102812438D01*
X63281890Y-102743569D01*
X63030000Y-102692560D01*
X61430000Y-102692560D01*
X61194683Y-102736838D01*
X60978559Y-102875910D01*
X60833569Y-103088110D01*
X60782560Y-103340000D01*
X59255000Y-103340000D01*
X59255000Y-97184159D01*
X60421048Y-97184159D01*
X60812909Y-97825859D01*
X61420509Y-98268754D01*
X61565844Y-98328929D01*
X61857000Y-98122410D01*
X61857000Y-96893000D01*
X60621172Y-96893000D01*
X60421048Y-97184159D01*
X59255000Y-97184159D01*
X59255000Y-93257373D01*
X60267204Y-93257373D01*
X60383080Y-94015173D01*
X60450146Y-94177086D01*
X60805782Y-94241716D01*
X61702498Y-93345000D01*
X60805782Y-92448284D01*
X60450146Y-92512914D01*
X60267204Y-93257373D01*
X59255000Y-93257373D01*
X59255000Y-87733167D01*
X59403309Y-87794750D01*
X59974187Y-87795248D01*
X60125000Y-87732933D01*
X60125000Y-88265000D01*
X60188561Y-88584541D01*
X60281210Y-88723200D01*
X60369566Y-88855434D01*
X63280814Y-91766682D01*
X63126716Y-91920780D01*
X63062086Y-91565146D01*
X62317627Y-91382204D01*
X61559827Y-91498080D01*
X61397914Y-91565146D01*
X61333284Y-91920782D01*
X62230000Y-92817498D01*
X62244142Y-92803356D01*
X62771644Y-93330858D01*
X62757502Y-93345000D01*
X63654218Y-94241716D01*
X64009854Y-94177086D01*
X64192796Y-93432627D01*
X64076920Y-92674827D01*
X64009854Y-92512914D01*
X63654220Y-92448284D01*
X63878521Y-92223983D01*
X64135000Y-92275000D01*
X68769954Y-92275000D01*
X68687189Y-92330302D01*
X68376120Y-92795849D01*
X68266887Y-93345000D01*
X68376120Y-93894151D01*
X68687189Y-94359698D01*
X69152736Y-94670767D01*
X69701887Y-94780000D01*
X69758113Y-94780000D01*
X70307264Y-94670767D01*
X70772811Y-94359698D01*
X71083880Y-93894151D01*
X71193113Y-93345000D01*
X71083880Y-92795849D01*
X70772811Y-92330302D01*
X70690046Y-92275000D01*
X70774132Y-92275000D01*
X76000000Y-97500869D01*
X76000000Y-99087609D01*
X75857363Y-98944722D01*
X75256648Y-98695284D01*
X74606205Y-98694716D01*
X74005057Y-98943106D01*
X73544722Y-99402637D01*
X73295284Y-100003352D01*
X73294716Y-100653795D01*
X73543106Y-101254943D01*
X74002637Y-101715278D01*
X74603352Y-101964716D01*
X75253795Y-101965284D01*
X75854943Y-101716894D01*
X76000000Y-101572090D01*
X76000000Y-124460000D01*
X76063561Y-124779541D01*
X76235766Y-125037264D01*
X76244566Y-125050434D01*
X78149566Y-126955434D01*
X78420459Y-127136439D01*
X78740000Y-127200000D01*
X79906833Y-127200000D01*
X79845250Y-127348309D01*
X79844752Y-127919187D01*
X80062757Y-128446800D01*
X80445000Y-128829710D01*
X80445000Y-130464132D01*
X79940306Y-130968826D01*
X79940318Y-130954597D01*
X79661545Y-130279914D01*
X79145801Y-129763270D01*
X78471605Y-129483319D01*
X77741597Y-129482682D01*
X77066914Y-129761455D01*
X76550270Y-130277199D01*
X76270319Y-130951395D01*
X76269682Y-131681403D01*
X76548455Y-132356086D01*
X77064199Y-132872730D01*
X77738395Y-133152681D01*
X77756435Y-133152697D01*
X77514566Y-133394566D01*
X77333561Y-133665459D01*
X77270000Y-133985000D01*
X77270000Y-136525000D01*
X77333561Y-136844541D01*
X77468278Y-137046159D01*
X77514566Y-137115434D01*
X79895177Y-139496045D01*
X79894760Y-139974285D01*
X80105169Y-140483515D01*
X80463589Y-140842560D01*
X79260000Y-140842560D01*
X79024683Y-140886838D01*
X78808559Y-141025910D01*
X78663569Y-141238110D01*
X78612560Y-141490000D01*
X78612560Y-142990000D01*
X78656838Y-143225317D01*
X78795910Y-143441441D01*
X79008110Y-143586431D01*
X79260000Y-143637440D01*
X80760000Y-143637440D01*
X80995317Y-143593162D01*
X81211441Y-143454090D01*
X81356431Y-143241890D01*
X81396355Y-143044738D01*
X81764436Y-143413461D01*
X82273298Y-143624759D01*
X82824285Y-143625240D01*
X83333515Y-143414831D01*
X83723461Y-143025564D01*
X83819976Y-142793130D01*
X83915169Y-143023515D01*
X84304436Y-143413461D01*
X84813298Y-143624759D01*
X85364285Y-143625240D01*
X85873515Y-143414831D01*
X86263461Y-143025564D01*
X86359976Y-142793130D01*
X86455169Y-143023515D01*
X86844436Y-143413461D01*
X87353298Y-143624759D01*
X87904285Y-143625240D01*
X88413515Y-143414831D01*
X88742916Y-143086003D01*
X90468282Y-143086003D01*
X90747055Y-143760686D01*
X91262799Y-144277330D01*
X91936995Y-144557281D01*
X92667003Y-144557918D01*
X93341686Y-144279145D01*
X93858330Y-143763401D01*
X94138281Y-143089205D01*
X94138918Y-142359197D01*
X93860145Y-141684514D01*
X93344401Y-141167870D01*
X92670205Y-140887919D01*
X91940197Y-140887282D01*
X91265514Y-141166055D01*
X90748870Y-141681799D01*
X90468919Y-142355995D01*
X90468282Y-143086003D01*
X88742916Y-143086003D01*
X88803461Y-143025564D01*
X89014759Y-142516702D01*
X89015240Y-141965715D01*
X88804831Y-141456485D01*
X88415564Y-141066539D01*
X87906702Y-140855241D01*
X87355715Y-140854760D01*
X86846485Y-141065169D01*
X86456539Y-141454436D01*
X86360024Y-141686870D01*
X86264831Y-141456485D01*
X85875564Y-141066539D01*
X85366702Y-140855241D01*
X84815715Y-140854760D01*
X84306485Y-141065169D01*
X83916539Y-141454436D01*
X83820024Y-141686870D01*
X83724831Y-141456485D01*
X83335564Y-141066539D01*
X82826702Y-140855241D01*
X82275715Y-140854760D01*
X81766485Y-141065169D01*
X81396920Y-141434091D01*
X81363162Y-141254683D01*
X81253960Y-141084978D01*
X81554285Y-141085240D01*
X82063515Y-140874831D01*
X82453461Y-140485564D01*
X82549976Y-140253130D01*
X82645169Y-140483515D01*
X83034436Y-140873461D01*
X83543298Y-141084759D01*
X84094285Y-141085240D01*
X84603515Y-140874831D01*
X84993461Y-140485564D01*
X85089976Y-140253130D01*
X85185169Y-140483515D01*
X85574436Y-140873461D01*
X86083298Y-141084759D01*
X86634285Y-141085240D01*
X87143515Y-140874831D01*
X87533461Y-140485564D01*
X87629976Y-140253130D01*
X87725169Y-140483515D01*
X88114436Y-140873461D01*
X88623298Y-141084759D01*
X89174285Y-141085240D01*
X89683515Y-140874831D01*
X90073461Y-140485564D01*
X90284759Y-139976702D01*
X90285240Y-139425715D01*
X90074831Y-138916485D01*
X89685564Y-138526539D01*
X89176702Y-138315241D01*
X88625715Y-138314760D01*
X88116485Y-138525169D01*
X87726539Y-138914436D01*
X87630024Y-139146870D01*
X87534831Y-138916485D01*
X87145564Y-138526539D01*
X86636702Y-138315241D01*
X86085715Y-138314760D01*
X85576485Y-138525169D01*
X85186539Y-138914436D01*
X85090024Y-139146870D01*
X84994831Y-138916485D01*
X84605564Y-138526539D01*
X84096702Y-138315241D01*
X83545715Y-138314760D01*
X83036485Y-138525169D01*
X82646539Y-138914436D01*
X82550024Y-139146870D01*
X82454831Y-138916485D01*
X82065564Y-138526539D01*
X81556702Y-138315241D01*
X81075689Y-138314821D01*
X80335071Y-137574203D01*
X91128682Y-137574203D01*
X91407455Y-138248886D01*
X91923199Y-138765530D01*
X92597395Y-139045481D01*
X93327403Y-139046118D01*
X94002086Y-138767345D01*
X94518730Y-138251601D01*
X94798681Y-137577405D01*
X94799318Y-136847397D01*
X94520545Y-136172714D01*
X94004801Y-135656070D01*
X93330605Y-135376119D01*
X92600597Y-135375482D01*
X91925914Y-135654255D01*
X91409270Y-136169999D01*
X91129319Y-136844195D01*
X91128682Y-137574203D01*
X80335071Y-137574203D01*
X79807091Y-137046223D01*
X80284285Y-137046640D01*
X80793515Y-136836231D01*
X81183461Y-136446964D01*
X81279976Y-136214530D01*
X81375169Y-136444915D01*
X81764436Y-136834861D01*
X82273298Y-137046159D01*
X82824285Y-137046640D01*
X83333515Y-136836231D01*
X83723461Y-136446964D01*
X83819976Y-136214530D01*
X83915169Y-136444915D01*
X84304436Y-136834861D01*
X84813298Y-137046159D01*
X85364285Y-137046640D01*
X85873515Y-136836231D01*
X86263461Y-136446964D01*
X86359976Y-136214530D01*
X86455169Y-136444915D01*
X86844436Y-136834861D01*
X87353298Y-137046159D01*
X87904285Y-137046640D01*
X88413515Y-136836231D01*
X88803461Y-136446964D01*
X89014759Y-135938102D01*
X89015240Y-135387115D01*
X88804831Y-134877885D01*
X88446411Y-134518840D01*
X89650000Y-134518840D01*
X89885317Y-134474562D01*
X90101441Y-134335490D01*
X90246431Y-134123290D01*
X90297440Y-133871400D01*
X90297440Y-132498428D01*
X94570434Y-128225434D01*
X94648495Y-128108607D01*
X94751439Y-127954541D01*
X94815000Y-127635000D01*
X94815000Y-112395000D01*
X94751439Y-112075459D01*
X94570434Y-111804566D01*
X90316286Y-107550418D01*
X90363113Y-107315000D01*
X90253880Y-106765849D01*
X89942811Y-106300302D01*
X89477264Y-105989233D01*
X89368458Y-105967590D01*
X88986729Y-105585861D01*
X89449151Y-105493880D01*
X89914698Y-105182811D01*
X90225767Y-104717264D01*
X90335000Y-104168113D01*
X90335000Y-104111887D01*
X90225767Y-103562736D01*
X89914698Y-103097189D01*
X89449151Y-102786120D01*
X88900000Y-102676887D01*
X88465000Y-102763414D01*
X88465000Y-97896586D01*
X88900000Y-97983113D01*
X89449151Y-97873880D01*
X89914698Y-97562811D01*
X90225767Y-97097264D01*
X90335000Y-96548113D01*
X90335000Y-96491887D01*
X90225767Y-95942736D01*
X89914698Y-95477189D01*
X89449151Y-95166120D01*
X88900000Y-95056887D01*
X88350849Y-95166120D01*
X87885302Y-95477189D01*
X87630000Y-95859275D01*
X87374698Y-95477189D01*
X86909151Y-95166120D01*
X86360000Y-95056887D01*
X85810849Y-95166120D01*
X85345302Y-95477189D01*
X85090000Y-95859275D01*
X84834698Y-95477189D01*
X84369151Y-95166120D01*
X83820000Y-95056887D01*
X83270849Y-95166120D01*
X82842533Y-95452312D01*
X82697091Y-95214141D01*
X82166188Y-94827152D01*
X82176716Y-94769218D01*
X81280000Y-93872502D01*
X80383284Y-94769218D01*
X80393812Y-94827152D01*
X79862909Y-95214141D01*
X79575000Y-95685612D01*
X79575000Y-94190689D01*
X79855782Y-94241716D01*
X80752498Y-93345000D01*
X81807502Y-93345000D01*
X82704218Y-94241716D01*
X83059854Y-94177086D01*
X83242796Y-93432627D01*
X83229397Y-93345000D01*
X87316887Y-93345000D01*
X87426120Y-93894151D01*
X87737189Y-94359698D01*
X88202736Y-94670767D01*
X88751887Y-94780000D01*
X88808113Y-94780000D01*
X89357264Y-94670767D01*
X89822811Y-94359698D01*
X90133880Y-93894151D01*
X90243113Y-93345000D01*
X90133880Y-92795849D01*
X89822811Y-92330302D01*
X89357264Y-92019233D01*
X88808113Y-91910000D01*
X88751887Y-91910000D01*
X88202736Y-92019233D01*
X87737189Y-92330302D01*
X87426120Y-92795849D01*
X87316887Y-93345000D01*
X83229397Y-93345000D01*
X83126920Y-92674827D01*
X83059854Y-92512914D01*
X82704218Y-92448284D01*
X81807502Y-93345000D01*
X80752498Y-93345000D01*
X79855782Y-92448284D01*
X79575000Y-92499311D01*
X79575000Y-91920782D01*
X80383284Y-91920782D01*
X81280000Y-92817498D01*
X82176716Y-91920782D01*
X82112086Y-91565146D01*
X81367627Y-91382204D01*
X80609827Y-91498080D01*
X80447914Y-91565146D01*
X80383284Y-91920782D01*
X79575000Y-91920782D01*
X79575000Y-91440729D01*
X79575145Y-91274637D01*
X79531910Y-91170000D01*
X96155000Y-91170000D01*
X96155000Y-100330000D01*
X96279457Y-100955687D01*
X96633880Y-101486120D01*
X97164313Y-101840543D01*
X97790000Y-101965000D01*
X98415687Y-101840543D01*
X98946120Y-101486120D01*
X99300543Y-100955687D01*
X99425000Y-100330000D01*
X103946887Y-100330000D01*
X104056120Y-100879151D01*
X104367189Y-101344698D01*
X104832736Y-101655767D01*
X105381887Y-101765000D01*
X105438113Y-101765000D01*
X105987264Y-101655767D01*
X106452811Y-101344698D01*
X106763880Y-100879151D01*
X106873113Y-100330000D01*
X106763880Y-99780849D01*
X106452811Y-99315302D01*
X105987264Y-99004233D01*
X105438113Y-98895000D01*
X105381887Y-98895000D01*
X104832736Y-99004233D01*
X104367189Y-99315302D01*
X104056120Y-99780849D01*
X103946887Y-100330000D01*
X99425000Y-100330000D01*
X99425000Y-94615000D01*
X103946887Y-94615000D01*
X104056120Y-95164151D01*
X104367189Y-95629698D01*
X104832736Y-95940767D01*
X105381887Y-96050000D01*
X105438113Y-96050000D01*
X105987264Y-95940767D01*
X106452811Y-95629698D01*
X106763880Y-95164151D01*
X106873113Y-94615000D01*
X106763880Y-94065849D01*
X106452811Y-93600302D01*
X105987264Y-93289233D01*
X105438113Y-93180000D01*
X105381887Y-93180000D01*
X104832736Y-93289233D01*
X104367189Y-93600302D01*
X104056120Y-94065849D01*
X103946887Y-94615000D01*
X99425000Y-94615000D01*
X99425000Y-89535000D01*
X103826887Y-89535000D01*
X103936120Y-90084151D01*
X104247189Y-90549698D01*
X104712736Y-90860767D01*
X105261887Y-90970000D01*
X105318113Y-90970000D01*
X105867264Y-90860767D01*
X106332811Y-90549698D01*
X106643880Y-90084151D01*
X106753113Y-89535000D01*
X106643880Y-88985849D01*
X106332811Y-88520302D01*
X105867264Y-88209233D01*
X105318113Y-88100000D01*
X105261887Y-88100000D01*
X104712736Y-88209233D01*
X104247189Y-88520302D01*
X103936120Y-88985849D01*
X103826887Y-89535000D01*
X99425000Y-89535000D01*
X99300543Y-88909313D01*
X99003663Y-88465000D01*
X100330000Y-88465000D01*
X100649541Y-88401439D01*
X100920434Y-88220434D01*
X101101439Y-87949541D01*
X101165000Y-87630000D01*
X101165000Y-87500391D01*
X101513629Y-87152370D01*
X101599949Y-86944488D01*
X101684990Y-87150303D01*
X102077630Y-87543629D01*
X102590900Y-87756757D01*
X103146661Y-87757242D01*
X103660303Y-87545010D01*
X104053629Y-87152370D01*
X104139949Y-86944488D01*
X104224990Y-87150303D01*
X104617630Y-87543629D01*
X105130900Y-87756757D01*
X105686661Y-87757242D01*
X106200303Y-87545010D01*
X106593629Y-87152370D01*
X106806757Y-86639100D01*
X106807242Y-86083339D01*
X106595010Y-85569697D01*
X106202370Y-85176371D01*
X105994488Y-85090051D01*
X106200303Y-85005010D01*
X106593629Y-84612370D01*
X106806757Y-84099100D01*
X106807242Y-83543339D01*
X106595010Y-83029697D01*
X106202370Y-82636371D01*
X105689100Y-82423243D01*
X105133339Y-82422758D01*
X104619697Y-82634990D01*
X104226371Y-83027630D01*
X104140051Y-83235512D01*
X104055010Y-83029697D01*
X103662370Y-82636371D01*
X103149100Y-82423243D01*
X102593339Y-82422758D01*
X102079697Y-82634990D01*
X101686371Y-83027630D01*
X101600051Y-83235512D01*
X101515010Y-83029697D01*
X101122370Y-82636371D01*
X100609100Y-82423243D01*
X100053339Y-82422758D01*
X99539697Y-82634990D01*
X99172045Y-83002001D01*
X98946120Y-82663880D01*
X98415687Y-82309457D01*
X97790000Y-82185000D01*
X96520000Y-82185000D01*
X95894312Y-82309457D01*
X95724020Y-82423243D01*
X95363880Y-82663880D01*
X95363878Y-82663883D01*
X94093880Y-83933880D01*
X93739457Y-84464312D01*
X93614999Y-85090000D01*
X93615000Y-85090005D01*
X93615000Y-85235412D01*
X93523923Y-85144176D01*
X92996691Y-84925250D01*
X92425813Y-84924752D01*
X91898200Y-85142757D01*
X91494176Y-85546077D01*
X91440138Y-85676215D01*
X91387243Y-85548200D01*
X90983923Y-85144176D01*
X90456691Y-84925250D01*
X89885813Y-84924752D01*
X89358200Y-85142757D01*
X88954176Y-85546077D01*
X88900138Y-85676215D01*
X88847243Y-85548200D01*
X88443923Y-85144176D01*
X87916691Y-84925250D01*
X87345813Y-84924752D01*
X86818200Y-85142757D01*
X86414176Y-85546077D01*
X86360138Y-85676215D01*
X86307243Y-85548200D01*
X85903923Y-85144176D01*
X85376691Y-84925250D01*
X84805813Y-84924752D01*
X84278200Y-85142757D01*
X83874176Y-85546077D01*
X83820138Y-85676215D01*
X83767243Y-85548200D01*
X83363923Y-85144176D01*
X82836691Y-84925250D01*
X82265813Y-84924752D01*
X81738200Y-85142757D01*
X81334176Y-85546077D01*
X81280138Y-85676215D01*
X81227243Y-85548200D01*
X80823923Y-85144176D01*
X80693785Y-85090138D01*
X80821800Y-85037243D01*
X81225824Y-84633923D01*
X81444750Y-84106691D01*
X81445248Y-83535813D01*
X81227243Y-83008200D01*
X80823923Y-82604176D01*
X80693785Y-82550138D01*
X80821800Y-82497243D01*
X81225824Y-82093923D01*
X81444750Y-81566691D01*
X81445248Y-80995813D01*
X81227243Y-80468200D01*
X80823923Y-80064176D01*
X80693785Y-80010138D01*
X80821800Y-79957243D01*
X81225824Y-79553923D01*
X81279862Y-79423785D01*
X81332757Y-79551800D01*
X81736077Y-79955824D01*
X82263309Y-80174750D01*
X82834187Y-80175248D01*
X83361800Y-79957243D01*
X83765824Y-79553923D01*
X83819862Y-79423785D01*
X83872757Y-79551800D01*
X84276077Y-79955824D01*
X84803309Y-80174750D01*
X85374187Y-80175248D01*
X85901800Y-79957243D01*
X86305824Y-79553923D01*
X86359862Y-79423785D01*
X86412757Y-79551800D01*
X86816077Y-79955824D01*
X87343309Y-80174750D01*
X87914187Y-80175248D01*
X88441800Y-79957243D01*
X88845824Y-79553923D01*
X88899862Y-79423785D01*
X88952757Y-79551800D01*
X89356077Y-79955824D01*
X89883309Y-80174750D01*
X90454187Y-80175248D01*
X90981800Y-79957243D01*
X91385824Y-79553923D01*
X91439862Y-79423785D01*
X91492757Y-79551800D01*
X91896077Y-79955824D01*
X92423309Y-80174750D01*
X92994187Y-80175248D01*
X93521800Y-79957243D01*
X93925824Y-79553923D01*
X94144750Y-79026691D01*
X94145248Y-78455813D01*
X93927243Y-77928200D01*
X93523923Y-77524176D01*
X93393785Y-77470138D01*
X93521800Y-77417243D01*
X93920844Y-77018894D01*
X97464284Y-77018894D01*
X98092474Y-78539229D01*
X99254653Y-79703438D01*
X100773889Y-80334280D01*
X102418894Y-80335716D01*
X103939229Y-79707526D01*
X105103438Y-78545347D01*
X105734280Y-77026111D01*
X105735716Y-75381106D01*
X105107526Y-73860771D01*
X103945347Y-72696562D01*
X102426111Y-72065720D01*
X100781106Y-72064284D01*
X99260771Y-72692474D01*
X98096562Y-73854653D01*
X97465720Y-75373889D01*
X97464284Y-77018894D01*
X93920844Y-77018894D01*
X93925824Y-77013923D01*
X94144750Y-76486691D01*
X94145248Y-75915813D01*
X93927243Y-75388200D01*
X93523923Y-74984176D01*
X92996691Y-74765250D01*
X92425813Y-74764752D01*
X91898200Y-74982757D01*
X91494176Y-75386077D01*
X91440138Y-75516215D01*
X91387243Y-75388200D01*
X90983923Y-74984176D01*
X90456691Y-74765250D01*
X89885813Y-74764752D01*
X89358200Y-74982757D01*
X88954176Y-75386077D01*
X88900138Y-75516215D01*
X88847243Y-75388200D01*
X88443923Y-74984176D01*
X87916691Y-74765250D01*
X87345813Y-74764752D01*
X86818200Y-74982757D01*
X86414176Y-75386077D01*
X86360138Y-75516215D01*
X86307243Y-75388200D01*
X85903923Y-74984176D01*
X85376691Y-74765250D01*
X84805813Y-74764752D01*
X84278200Y-74982757D01*
X83874176Y-75386077D01*
X83820138Y-75516215D01*
X83767243Y-75388200D01*
X83363923Y-74984176D01*
X82836691Y-74765250D01*
X82265813Y-74764752D01*
X81738200Y-74982757D01*
X81334176Y-75386077D01*
X81280138Y-75516215D01*
X81227243Y-75388200D01*
X80823923Y-74984176D01*
X80693785Y-74930138D01*
X80821800Y-74877243D01*
X81225824Y-74473923D01*
X81444750Y-73946691D01*
X81445248Y-73375813D01*
X81227243Y-72848200D01*
X80823923Y-72444176D01*
X80693785Y-72390138D01*
X80821800Y-72337243D01*
X81225824Y-71933923D01*
X81279862Y-71803785D01*
X81332757Y-71931800D01*
X81736077Y-72335824D01*
X82263309Y-72554750D01*
X82834187Y-72555248D01*
X83361800Y-72337243D01*
X83765824Y-71933923D01*
X83819862Y-71803785D01*
X83872757Y-71931800D01*
X84276077Y-72335824D01*
X84803309Y-72554750D01*
X85374187Y-72555248D01*
X85901800Y-72337243D01*
X86305824Y-71933923D01*
X86359862Y-71803785D01*
X86412757Y-71931800D01*
X86816077Y-72335824D01*
X87343309Y-72554750D01*
X87914187Y-72555248D01*
X88441800Y-72337243D01*
X88845824Y-71933923D01*
X88899862Y-71803785D01*
X88952757Y-71931800D01*
X89356077Y-72335824D01*
X89883309Y-72554750D01*
X90454187Y-72555248D01*
X90981800Y-72337243D01*
X91385824Y-71933923D01*
X91439862Y-71803785D01*
X91492757Y-71931800D01*
X91896077Y-72335824D01*
X92423309Y-72554750D01*
X92994187Y-72555248D01*
X93521800Y-72337243D01*
X93925824Y-71933923D01*
X94144750Y-71406691D01*
X94145248Y-70835813D01*
X93927243Y-70308200D01*
X93523923Y-69904176D01*
X92996691Y-69685250D01*
X92425813Y-69684752D01*
X91898200Y-69902757D01*
X91494176Y-70306077D01*
X91440138Y-70436215D01*
X91387243Y-70308200D01*
X90983923Y-69904176D01*
X90456691Y-69685250D01*
X89885813Y-69684752D01*
X89358200Y-69902757D01*
X88954176Y-70306077D01*
X88900138Y-70436215D01*
X88847243Y-70308200D01*
X88443923Y-69904176D01*
X87916691Y-69685250D01*
X87345813Y-69684752D01*
X86818200Y-69902757D01*
X86414176Y-70306077D01*
X86360138Y-70436215D01*
X86307243Y-70308200D01*
X85903923Y-69904176D01*
X85376691Y-69685250D01*
X84805813Y-69684752D01*
X84278200Y-69902757D01*
X83874176Y-70306077D01*
X83820138Y-70436215D01*
X83767243Y-70308200D01*
X83363923Y-69904176D01*
X82836691Y-69685250D01*
X82265813Y-69684752D01*
X81738200Y-69902757D01*
X81334176Y-70306077D01*
X81280138Y-70436215D01*
X81227243Y-70308200D01*
X80823923Y-69904176D01*
X80296691Y-69685250D01*
X79725813Y-69684752D01*
X79198200Y-69902757D01*
X78794176Y-70306077D01*
X78740138Y-70436215D01*
X78687243Y-70308200D01*
X78283923Y-69904176D01*
X77756691Y-69685250D01*
X77185813Y-69684752D01*
X76658200Y-69902757D01*
X76254176Y-70306077D01*
X76200138Y-70436215D01*
X76147243Y-70308200D01*
X75743923Y-69904176D01*
X75216691Y-69685250D01*
X74645813Y-69684752D01*
X74118200Y-69902757D01*
X73714176Y-70306077D01*
X73660138Y-70436215D01*
X73607243Y-70308200D01*
X73203923Y-69904176D01*
X72676691Y-69685250D01*
X72105813Y-69684752D01*
X71578200Y-69902757D01*
X71174176Y-70306077D01*
X71120138Y-70436215D01*
X71067243Y-70308200D01*
X70663923Y-69904176D01*
X70136691Y-69685250D01*
X69565813Y-69684752D01*
X69038200Y-69902757D01*
X68634176Y-70306077D01*
X68580138Y-70436215D01*
X68527243Y-70308200D01*
X68123923Y-69904176D01*
X67596691Y-69685250D01*
X67025813Y-69684752D01*
X66498200Y-69902757D01*
X66094176Y-70306077D01*
X66040138Y-70436215D01*
X65987243Y-70308200D01*
X65583923Y-69904176D01*
X65056691Y-69685250D01*
X64485813Y-69684752D01*
X63958200Y-69902757D01*
X63554176Y-70306077D01*
X63500138Y-70436215D01*
X63447243Y-70308200D01*
X63043923Y-69904176D01*
X62516691Y-69685250D01*
X61945813Y-69684752D01*
X61418200Y-69902757D01*
X61014176Y-70306077D01*
X60960138Y-70436215D01*
X60907243Y-70308200D01*
X60503923Y-69904176D01*
X59976691Y-69685250D01*
X59405813Y-69684752D01*
X58878200Y-69902757D01*
X58474176Y-70306077D01*
X58420138Y-70436215D01*
X58367243Y-70308200D01*
X57963923Y-69904176D01*
X57436691Y-69685250D01*
X56865813Y-69684752D01*
X56338200Y-69902757D01*
X55934176Y-70306077D01*
X55880138Y-70436215D01*
X55827243Y-70308200D01*
X55423923Y-69904176D01*
X54896691Y-69685250D01*
X54325813Y-69684752D01*
X53798200Y-69902757D01*
X53394176Y-70306077D01*
X53340138Y-70436215D01*
X53287243Y-70308200D01*
X52883923Y-69904176D01*
X52356691Y-69685250D01*
X51785813Y-69684752D01*
X51258200Y-69902757D01*
X50854176Y-70306077D01*
X50800138Y-70436215D01*
X50747243Y-70308200D01*
X50343923Y-69904176D01*
X49816691Y-69685250D01*
X49245813Y-69684752D01*
X48718200Y-69902757D01*
X48314176Y-70306077D01*
X48260138Y-70436215D01*
X48207243Y-70308200D01*
X47803923Y-69904176D01*
X47276691Y-69685250D01*
X46705813Y-69684752D01*
X46178200Y-69902757D01*
X45774176Y-70306077D01*
X45720138Y-70436215D01*
X45667243Y-70308200D01*
X45263923Y-69904176D01*
X44736691Y-69685250D01*
X44165813Y-69684752D01*
X43638200Y-69902757D01*
X43234176Y-70306077D01*
X43180138Y-70436215D01*
X43127243Y-70308200D01*
X42723923Y-69904176D01*
X42196691Y-69685250D01*
X41625813Y-69684752D01*
X41098200Y-69902757D01*
X40694176Y-70306077D01*
X40640138Y-70436215D01*
X40587243Y-70308200D01*
X40183923Y-69904176D01*
X39656691Y-69685250D01*
X39085813Y-69684752D01*
X38558200Y-69902757D01*
X38154176Y-70306077D01*
X38100138Y-70436215D01*
X38047243Y-70308200D01*
X37643923Y-69904176D01*
X37116691Y-69685250D01*
X36545813Y-69684752D01*
X36018200Y-69902757D01*
X35614176Y-70306077D01*
X35601928Y-70335574D01*
X34817502Y-71120000D01*
X35601107Y-71903605D01*
X35612757Y-71931800D01*
X36016077Y-72335824D01*
X36146215Y-72389862D01*
X36018200Y-72442757D01*
X35614176Y-72846077D01*
X35395250Y-73373309D01*
X35394752Y-73944187D01*
X35612757Y-74471800D01*
X36016077Y-74875824D01*
X36543309Y-75094750D01*
X37114187Y-75095248D01*
X37641800Y-74877243D01*
X38045824Y-74473923D01*
X38264750Y-73946691D01*
X38265248Y-73375813D01*
X38047243Y-72848200D01*
X37643923Y-72444176D01*
X37513785Y-72390138D01*
X37641800Y-72337243D01*
X38045824Y-71933923D01*
X38099862Y-71803785D01*
X38152757Y-71931800D01*
X38556077Y-72335824D01*
X39083309Y-72554750D01*
X39654187Y-72555248D01*
X40181800Y-72337243D01*
X40585824Y-71933923D01*
X40639862Y-71803785D01*
X40692757Y-71931800D01*
X41096077Y-72335824D01*
X41226215Y-72389862D01*
X41098200Y-72442757D01*
X40694176Y-72846077D01*
X40475250Y-73373309D01*
X40474752Y-73944187D01*
X40692757Y-74471800D01*
X41096077Y-74875824D01*
X41623309Y-75094750D01*
X42194187Y-75095248D01*
X42721800Y-74877243D01*
X43125824Y-74473923D01*
X43179862Y-74343785D01*
X43232757Y-74471800D01*
X43636077Y-74875824D01*
X44163309Y-75094750D01*
X44734187Y-75095248D01*
X45261800Y-74877243D01*
X45665824Y-74473923D01*
X45719862Y-74343785D01*
X45772757Y-74471800D01*
X46176077Y-74875824D01*
X46703309Y-75094750D01*
X47274187Y-75095248D01*
X47801800Y-74877243D01*
X48205824Y-74473923D01*
X48424750Y-73946691D01*
X48425248Y-73375813D01*
X48207243Y-72848200D01*
X47803923Y-72444176D01*
X47673785Y-72390138D01*
X47801800Y-72337243D01*
X48205824Y-71933923D01*
X48259862Y-71803785D01*
X48312757Y-71931800D01*
X48716077Y-72335824D01*
X49243309Y-72554750D01*
X49784354Y-72555222D01*
X50844566Y-73615434D01*
X51115459Y-73796439D01*
X51435000Y-73860000D01*
X56804132Y-73860000D01*
X57585000Y-74640868D01*
X57585000Y-74826833D01*
X57436691Y-74765250D01*
X56865813Y-74764752D01*
X56338200Y-74982757D01*
X55934176Y-75386077D01*
X55880138Y-75516215D01*
X55827243Y-75388200D01*
X55423923Y-74984176D01*
X54896691Y-74765250D01*
X54325813Y-74764752D01*
X53798200Y-74982757D01*
X53394176Y-75386077D01*
X53340138Y-75516215D01*
X53287243Y-75388200D01*
X52883923Y-74984176D01*
X52356691Y-74765250D01*
X51785813Y-74764752D01*
X51258200Y-74982757D01*
X50854176Y-75386077D01*
X50800138Y-75516215D01*
X50747243Y-75388200D01*
X50343923Y-74984176D01*
X49816691Y-74765250D01*
X49245813Y-74764752D01*
X48718200Y-74982757D01*
X48314176Y-75386077D01*
X48095250Y-75913309D01*
X48094752Y-76484187D01*
X48312757Y-77011800D01*
X48716077Y-77415824D01*
X48846215Y-77469862D01*
X48718200Y-77522757D01*
X48314176Y-77926077D01*
X48095250Y-78453309D01*
X48094752Y-79024187D01*
X48312757Y-79551800D01*
X48716077Y-79955824D01*
X49243309Y-80174750D01*
X49814187Y-80175248D01*
X50341800Y-79957243D01*
X50745824Y-79553923D01*
X50799862Y-79423785D01*
X50852757Y-79551800D01*
X51256077Y-79955824D01*
X51783309Y-80174750D01*
X52354187Y-80175248D01*
X52881800Y-79957243D01*
X53285824Y-79553923D01*
X53339862Y-79423785D01*
X53392757Y-79551800D01*
X53796077Y-79955824D01*
X54323309Y-80174750D01*
X54894187Y-80175248D01*
X55421800Y-79957243D01*
X55825824Y-79553923D01*
X55879862Y-79423785D01*
X55932757Y-79551800D01*
X56336077Y-79955824D01*
X56863309Y-80174750D01*
X57434187Y-80175248D01*
X57585000Y-80112933D01*
X57585000Y-82461503D01*
X57316821Y-82350145D01*
X56984637Y-82349855D01*
X56984286Y-82350000D01*
X53340000Y-82350000D01*
X53020459Y-82413561D01*
X52749566Y-82594566D01*
X51479566Y-83864566D01*
X51298561Y-84135459D01*
X51235000Y-84455000D01*
X51235000Y-85165917D01*
X50854176Y-85546077D01*
X50800138Y-85676215D01*
X50747243Y-85548200D01*
X50343923Y-85144176D01*
X49816691Y-84925250D01*
X49245813Y-84924752D01*
X48718200Y-85142757D01*
X48314176Y-85546077D01*
X48260138Y-85676215D01*
X48207243Y-85548200D01*
X47803923Y-85144176D01*
X47276691Y-84925250D01*
X46705813Y-84924752D01*
X46178200Y-85142757D01*
X45774176Y-85546077D01*
X45720138Y-85676215D01*
X45667243Y-85548200D01*
X45263923Y-85144176D01*
X44736691Y-84925250D01*
X44165813Y-84924752D01*
X43638200Y-85142757D01*
X43234176Y-85546077D01*
X43180138Y-85676215D01*
X43127243Y-85548200D01*
X42723923Y-85144176D01*
X42196691Y-84925250D01*
X41625813Y-84924752D01*
X41098200Y-85142757D01*
X40694176Y-85546077D01*
X40640138Y-85676215D01*
X40587243Y-85548200D01*
X40183923Y-85144176D01*
X39656691Y-84925250D01*
X39085813Y-84924752D01*
X38558200Y-85142757D01*
X38154176Y-85546077D01*
X38100138Y-85676215D01*
X38047243Y-85548200D01*
X37643923Y-85144176D01*
X37116691Y-84925250D01*
X36545813Y-84924752D01*
X36018200Y-85142757D01*
X35715742Y-85444688D01*
X35693162Y-85324683D01*
X35554090Y-85108559D01*
X35341890Y-84963569D01*
X35090000Y-84912560D01*
X33490000Y-84912560D01*
X33254683Y-84956838D01*
X33038559Y-85095910D01*
X32893569Y-85308110D01*
X32842560Y-85560000D01*
X32842560Y-87160000D01*
X32886838Y-87395317D01*
X33025910Y-87611441D01*
X33238110Y-87756431D01*
X33490000Y-87807440D01*
X35090000Y-87807440D01*
X35325317Y-87763162D01*
X35541441Y-87624090D01*
X35686431Y-87411890D01*
X35714426Y-87273646D01*
X36016077Y-87575824D01*
X36543309Y-87794750D01*
X37114187Y-87795248D01*
X37641800Y-87577243D01*
X38045824Y-87173923D01*
X38099862Y-87043785D01*
X38152757Y-87171800D01*
X38556077Y-87575824D01*
X39083309Y-87794750D01*
X39654187Y-87795248D01*
X40181800Y-87577243D01*
X40585824Y-87173923D01*
X40639862Y-87043785D01*
X40692757Y-87171800D01*
X41096077Y-87575824D01*
X41623309Y-87794750D01*
X42194187Y-87795248D01*
X42721800Y-87577243D01*
X43125824Y-87173923D01*
X43179862Y-87043785D01*
X43232757Y-87171800D01*
X43636077Y-87575824D01*
X44163309Y-87794750D01*
X44734187Y-87795248D01*
X45261800Y-87577243D01*
X45665824Y-87173923D01*
X45719862Y-87043785D01*
X45772757Y-87171800D01*
X46176077Y-87575824D01*
X46703309Y-87794750D01*
X47274187Y-87795248D01*
X47801800Y-87577243D01*
X48205824Y-87173923D01*
X48259862Y-87043785D01*
X48312757Y-87171800D01*
X48716077Y-87575824D01*
X49243309Y-87794750D01*
X49814187Y-87795248D01*
X50341800Y-87577243D01*
X50745824Y-87173923D01*
X50799862Y-87043785D01*
X50852757Y-87171800D01*
X51256077Y-87575824D01*
X51783309Y-87794750D01*
X52354187Y-87795248D01*
X52881800Y-87577243D01*
X53285824Y-87173923D01*
X53339862Y-87043785D01*
X53392757Y-87171800D01*
X53796077Y-87575824D01*
X54323309Y-87794750D01*
X54534198Y-87794934D01*
X52994132Y-89335000D01*
X41910000Y-89335000D01*
X41590460Y-89398560D01*
X41319566Y-89579566D01*
X34334566Y-96564566D01*
X34153561Y-96835459D01*
X34090000Y-97155000D01*
X34090000Y-99349132D01*
X30674655Y-102764477D01*
X30565849Y-102786120D01*
X30137533Y-103072312D01*
X29992091Y-102834141D01*
X29384491Y-102391246D01*
X29239156Y-102331071D01*
X28948000Y-102537590D01*
X28948000Y-103767000D01*
X28968000Y-103767000D01*
X28968000Y-104513000D01*
X28948000Y-104513000D01*
X28948000Y-104533000D01*
X28202000Y-104533000D01*
X28202000Y-104513000D01*
X28182000Y-104513000D01*
X28182000Y-103767000D01*
X28202000Y-103767000D01*
X28202000Y-102537590D01*
X28140000Y-102493613D01*
X28140000Y-98135868D01*
X28339582Y-97936286D01*
X28575000Y-97983113D01*
X29124151Y-97873880D01*
X29589698Y-97562811D01*
X29845000Y-97180725D01*
X30100302Y-97562811D01*
X30565849Y-97873880D01*
X31115000Y-97983113D01*
X31664151Y-97873880D01*
X32129698Y-97562811D01*
X32440767Y-97097264D01*
X32550000Y-96548113D01*
X32550000Y-96491887D01*
X32440767Y-95942736D01*
X32129698Y-95477189D01*
X31664151Y-95166120D01*
X31115000Y-95056887D01*
X30565849Y-95166120D01*
X30100302Y-95477189D01*
X29845000Y-95859275D01*
X29589698Y-95477189D01*
X29124151Y-95166120D01*
X28575000Y-95056887D01*
X28025849Y-95166120D01*
X27560302Y-95477189D01*
X27305000Y-95859275D01*
X27049698Y-95477189D01*
X26584151Y-95166120D01*
X26035000Y-95056887D01*
X25485849Y-95166120D01*
X25057533Y-95452312D01*
X24912091Y-95214141D01*
X24381188Y-94827152D01*
X24391716Y-94769218D01*
X23495000Y-93872502D01*
X22598284Y-94769218D01*
X22608812Y-94827152D01*
X22077909Y-95214141D01*
X21686048Y-95855841D01*
X18490000Y-95855841D01*
X18490000Y-93257373D01*
X21532204Y-93257373D01*
X21648080Y-94015173D01*
X21715146Y-94177086D01*
X22070782Y-94241716D01*
X22967498Y-93345000D01*
X24022502Y-93345000D01*
X24919218Y-94241716D01*
X25274854Y-94177086D01*
X25457796Y-93432627D01*
X25444397Y-93345000D01*
X29531887Y-93345000D01*
X29641120Y-93894151D01*
X29952189Y-94359698D01*
X30417736Y-94670767D01*
X30966887Y-94780000D01*
X31023113Y-94780000D01*
X31572264Y-94670767D01*
X32037811Y-94359698D01*
X32348880Y-93894151D01*
X32458113Y-93345000D01*
X32348880Y-92795849D01*
X32037811Y-92330302D01*
X31572264Y-92019233D01*
X31023113Y-91910000D01*
X30966887Y-91910000D01*
X30417736Y-92019233D01*
X29952189Y-92330302D01*
X29641120Y-92795849D01*
X29531887Y-93345000D01*
X25444397Y-93345000D01*
X25341920Y-92674827D01*
X25274854Y-92512914D01*
X24919218Y-92448284D01*
X24022502Y-93345000D01*
X22967498Y-93345000D01*
X22070782Y-92448284D01*
X21715146Y-92512914D01*
X21532204Y-93257373D01*
X18490000Y-93257373D01*
X18490000Y-91920782D01*
X22598284Y-91920782D01*
X23495000Y-92817498D01*
X24391716Y-91920782D01*
X24327086Y-91565146D01*
X23582627Y-91382204D01*
X22824827Y-91498080D01*
X22662914Y-91565146D01*
X22598284Y-91920782D01*
X18490000Y-91920782D01*
X18490000Y-77018894D01*
X21264284Y-77018894D01*
X21892474Y-78539229D01*
X23054653Y-79703438D01*
X24573889Y-80334280D01*
X26218894Y-80335716D01*
X27739229Y-79707526D01*
X28903438Y-78545347D01*
X29534280Y-77026111D01*
X29535716Y-75381106D01*
X28907526Y-73860771D01*
X27745347Y-72696562D01*
X27378462Y-72544218D01*
X33393284Y-72544218D01*
X33457914Y-72899854D01*
X34202373Y-73082796D01*
X34960173Y-72966920D01*
X35122086Y-72899854D01*
X35186716Y-72544218D01*
X34290000Y-71647502D01*
X33393284Y-72544218D01*
X27378462Y-72544218D01*
X26226111Y-72065720D01*
X24581106Y-72064284D01*
X23060771Y-72692474D01*
X21896562Y-73854653D01*
X21265720Y-75373889D01*
X21264284Y-77018894D01*
X18490000Y-77018894D01*
X18490000Y-76269931D01*
X19028844Y-73560979D01*
X20523727Y-71323727D01*
X20959769Y-71032373D01*
X32327204Y-71032373D01*
X32443080Y-71790173D01*
X32510146Y-71952086D01*
X32865782Y-72016716D01*
X33762498Y-71120000D01*
X32865782Y-70223284D01*
X32510146Y-70287914D01*
X32327204Y-71032373D01*
X20959769Y-71032373D01*
X22760979Y-69828844D01*
X25469931Y-69290000D01*
X33578978Y-69290000D01*
X33457914Y-69340146D01*
X33457914Y-69340146D01*
G37*
X33457914Y-69340146D02*
X33393284Y-69695782D01*
X34290000Y-70592498D01*
X35186716Y-69695782D01*
X35122086Y-69340146D01*
X34918023Y-69290000D01*
X101530069Y-69290000D01*
X104239021Y-69828844D01*
X106476273Y-71323727D01*
X107971156Y-73560979D01*
X108510000Y-76269931D01*
X108510000Y-152330069D01*
X107971156Y-155039021D01*
X106476273Y-157276273D01*
X104239021Y-158771156D01*
X101530069Y-159310000D01*
X25469931Y-159310000D01*
X22760979Y-158771156D01*
X20523727Y-157276273D01*
X19028844Y-155039021D01*
X18666799Y-153218894D01*
X21264284Y-153218894D01*
X21892474Y-154739229D01*
X23054653Y-155903438D01*
X24573889Y-156534280D01*
X26218894Y-156535716D01*
X27739229Y-155907526D01*
X28903438Y-154745347D01*
X29410003Y-153525403D01*
X32200682Y-153525403D01*
X32479455Y-154200086D01*
X32995199Y-154716730D01*
X33669395Y-154996681D01*
X34399403Y-154997318D01*
X35074086Y-154718545D01*
X35590730Y-154202801D01*
X35870681Y-153528605D01*
X35870683Y-153525403D01*
X91128682Y-153525403D01*
X91407455Y-154200086D01*
X91923199Y-154716730D01*
X92597395Y-154996681D01*
X93327403Y-154997318D01*
X94002086Y-154718545D01*
X94518730Y-154202801D01*
X94798681Y-153528605D01*
X94798951Y-153218894D01*
X97464284Y-153218894D01*
X98092474Y-154739229D01*
X99254653Y-155903438D01*
X100773889Y-156534280D01*
X102418894Y-156535716D01*
X103939229Y-155907526D01*
X105103438Y-154745347D01*
X105734280Y-153226111D01*
X105735716Y-151581106D01*
X105107526Y-150060771D01*
X103945347Y-148896562D01*
X102426111Y-148265720D01*
X100781106Y-148264284D01*
X99260771Y-148892474D01*
X98096562Y-150054653D01*
X97465720Y-151573889D01*
X97464284Y-153218894D01*
X94798951Y-153218894D01*
X94799318Y-152798597D01*
X94520545Y-152123914D01*
X94004801Y-151607270D01*
X93330605Y-151327319D01*
X92600597Y-151326682D01*
X91925914Y-151605455D01*
X91409270Y-152121199D01*
X91129319Y-152795395D01*
X91128682Y-153525403D01*
X35870683Y-153525403D01*
X35871318Y-152798597D01*
X35592545Y-152123914D01*
X35076801Y-151607270D01*
X34402605Y-151327319D01*
X33672597Y-151326682D01*
X32997914Y-151605455D01*
X32481270Y-152121199D01*
X32201319Y-152795395D01*
X32200682Y-153525403D01*
X29410003Y-153525403D01*
X29534280Y-153226111D01*
X29535716Y-151581106D01*
X28907526Y-150060771D01*
X27925648Y-149077177D01*
X34369574Y-149077177D01*
X34743298Y-149981657D01*
X35434703Y-150674270D01*
X36338529Y-151049572D01*
X37317177Y-151050426D01*
X38221657Y-150676702D01*
X38914270Y-149985297D01*
X39289572Y-149081471D01*
X39289575Y-149077177D01*
X87709574Y-149077177D01*
X88083298Y-149981657D01*
X88774703Y-150674270D01*
X89678529Y-151049572D01*
X90657177Y-151050426D01*
X91561657Y-150676702D01*
X92254270Y-149985297D01*
X92629572Y-149081471D01*
X92630426Y-148102823D01*
X92256702Y-147198343D01*
X91565297Y-146505730D01*
X90661471Y-146130428D01*
X89682823Y-146129574D01*
X88778343Y-146503298D01*
X88085730Y-147194703D01*
X87710428Y-148098529D01*
X87709574Y-149077177D01*
X39289575Y-149077177D01*
X39290426Y-148102823D01*
X38916702Y-147198343D01*
X38225297Y-146505730D01*
X37321471Y-146130428D01*
X36342823Y-146129574D01*
X35438343Y-146503298D01*
X34745730Y-147194703D01*
X34370428Y-148098529D01*
X34369574Y-149077177D01*
X27925648Y-149077177D01*
X27745347Y-148896562D01*
X26226111Y-148265720D01*
X24581106Y-148264284D01*
X23060771Y-148892474D01*
X21896562Y-150054653D01*
X21265720Y-151573889D01*
X21264284Y-153218894D01*
X18666799Y-153218894D01*
X18490000Y-152330069D01*
X18490000Y-127919187D01*
X21424752Y-127919187D01*
X21642757Y-128446800D01*
X22046077Y-128850824D01*
X22573309Y-129069750D01*
X23144187Y-129070248D01*
X23671800Y-128852243D01*
X24075824Y-128448923D01*
X24294750Y-127921691D01*
X24295248Y-127350813D01*
X24077243Y-126823200D01*
X23673923Y-126419176D01*
X23146691Y-126200250D01*
X22575813Y-126199752D01*
X22048200Y-126417757D01*
X21644176Y-126821077D01*
X21425250Y-127348309D01*
X21424752Y-127919187D01*
X18490000Y-127919187D01*
X18490000Y-123660000D01*
X22047560Y-123660000D01*
X22047560Y-125260000D01*
X22091838Y-125495317D01*
X22230910Y-125711441D01*
X22443110Y-125856431D01*
X22695000Y-125907440D01*
X24295000Y-125907440D01*
X24530317Y-125863162D01*
X24647739Y-125787603D01*
X25225509Y-126208754D01*
X25370844Y-126268929D01*
X25662000Y-126062410D01*
X25662000Y-124833000D01*
X25642000Y-124833000D01*
X25642000Y-124087000D01*
X25662000Y-124087000D01*
X25662000Y-122857590D01*
X25370844Y-122651071D01*
X25225509Y-122711246D01*
X24647683Y-123132438D01*
X24546890Y-123063569D01*
X24295000Y-123012560D01*
X22695000Y-123012560D01*
X22459683Y-123056838D01*
X22243559Y-123195910D01*
X22098569Y-123408110D01*
X22047560Y-123660000D01*
X18490000Y-123660000D01*
X18490000Y-117504159D01*
X21686048Y-117504159D01*
X22077909Y-118145859D01*
X22685509Y-118588754D01*
X22830844Y-118648929D01*
X23122000Y-118442410D01*
X23122000Y-117213000D01*
X21886172Y-117213000D01*
X21686048Y-117504159D01*
X18490000Y-117504159D01*
X18490000Y-113577373D01*
X21532204Y-113577373D01*
X21648080Y-114335173D01*
X21715146Y-114497086D01*
X22070782Y-114561716D01*
X22967498Y-113665000D01*
X24022502Y-113665000D01*
X24919218Y-114561716D01*
X25274854Y-114497086D01*
X25457796Y-113752627D01*
X25444397Y-113665000D01*
X29531887Y-113665000D01*
X29641120Y-114214151D01*
X29952189Y-114679698D01*
X30417736Y-114990767D01*
X30966887Y-115100000D01*
X31023113Y-115100000D01*
X31572264Y-114990767D01*
X32037811Y-114679698D01*
X32348880Y-114214151D01*
X32458113Y-113665000D01*
X32348880Y-113115849D01*
X32037811Y-112650302D01*
X31572264Y-112339233D01*
X31023113Y-112230000D01*
X30966887Y-112230000D01*
X30417736Y-112339233D01*
X29952189Y-112650302D01*
X29641120Y-113115849D01*
X29531887Y-113665000D01*
X25444397Y-113665000D01*
X25341920Y-112994827D01*
X25274854Y-112832914D01*
X24919218Y-112768284D01*
X24022502Y-113665000D01*
X22967498Y-113665000D01*
X22070782Y-112768284D01*
X21715146Y-112832914D01*
X21532204Y-113577373D01*
X18490000Y-113577373D01*
X18490000Y-112240782D01*
X22598284Y-112240782D01*
X23495000Y-113137498D01*
X24391716Y-112240782D01*
X24327086Y-111885146D01*
X23582627Y-111702204D01*
X22824827Y-111818080D01*
X22662914Y-111885146D01*
X22598284Y-112240782D01*
X18490000Y-112240782D01*
X18490000Y-103340000D01*
X22047560Y-103340000D01*
X22047560Y-104940000D01*
X22091838Y-105175317D01*
X22230910Y-105391441D01*
X22443110Y-105536431D01*
X22695000Y-105587440D01*
X24295000Y-105587440D01*
X24530317Y-105543162D01*
X24647739Y-105467603D01*
X25225509Y-105888754D01*
X25370844Y-105948929D01*
X25662000Y-105742410D01*
X25662000Y-104513000D01*
X25642000Y-104513000D01*
X25642000Y-103767000D01*
X25662000Y-103767000D01*
X25662000Y-102537590D01*
X25370844Y-102331071D01*
X25225509Y-102391246D01*
X24647683Y-102812438D01*
X24546890Y-102743569D01*
X24295000Y-102692560D01*
X22695000Y-102692560D01*
X22459683Y-102736838D01*
X22243559Y-102875910D01*
X22098569Y-103088110D01*
X22047560Y-103340000D01*
X18490000Y-103340000D01*
X18490000Y-97184159D01*
X21686048Y-97184159D01*
X22077909Y-97825859D01*
X22685509Y-98268754D01*
X22830844Y-98328929D01*
X23122000Y-98122410D01*
X23122000Y-96893000D01*
X21886172Y-96893000D01*
X21686048Y-97184159D01*
X18490000Y-97184159D01*
X18490000Y-95855841D01*
X21686048Y-95855841D01*
X21886172Y-96147000D01*
X23122000Y-96147000D01*
X23122000Y-96127000D01*
X23868000Y-96127000D01*
X23868000Y-96147000D01*
X23888000Y-96147000D01*
X23888000Y-96893000D01*
X23868000Y-96893000D01*
X23868000Y-98122410D01*
X24159156Y-98328929D01*
X24304491Y-98268754D01*
X24912091Y-97825859D01*
X25057533Y-97587688D01*
X25485849Y-97873880D01*
X26035000Y-97983113D01*
X26470000Y-97896586D01*
X26470000Y-102493613D01*
X26408000Y-102537590D01*
X26408000Y-103767000D01*
X26428000Y-103767000D01*
X26428000Y-104513000D01*
X26408000Y-104513000D01*
X26408000Y-105742410D01*
X26663030Y-105923304D01*
X26707082Y-105989233D01*
X26714566Y-106000434D01*
X28619566Y-107905434D01*
X28890459Y-108086439D01*
X29210000Y-108150000D01*
X29952118Y-108150000D01*
X30072189Y-108329698D01*
X30537736Y-108640767D01*
X31086887Y-108750000D01*
X31143113Y-108750000D01*
X31331633Y-108712501D01*
X32274132Y-109655000D01*
X27015868Y-109655000D01*
X24929779Y-107568911D01*
X24930248Y-107030813D01*
X24712243Y-106503200D01*
X24308923Y-106099176D01*
X23781691Y-105880250D01*
X23210813Y-105879752D01*
X22683200Y-106097757D01*
X22279176Y-106501077D01*
X22060250Y-107028309D01*
X22059752Y-107599187D01*
X22277757Y-108126800D01*
X22681077Y-108530824D01*
X23208309Y-108749750D01*
X23749354Y-108750222D01*
X26079566Y-111080434D01*
X26350459Y-111261439D01*
X26670000Y-111325000D01*
X32039132Y-111325000D01*
X35360000Y-114645868D01*
X35360000Y-131850363D01*
X35076801Y-131566670D01*
X34402605Y-131286719D01*
X33672597Y-131286082D01*
X32997914Y-131564855D01*
X32481270Y-132080599D01*
X32201319Y-132754795D01*
X32200682Y-133484803D01*
X32479455Y-134159486D01*
X32995199Y-134676130D01*
X33669395Y-134956081D01*
X34399403Y-134956718D01*
X35074086Y-134677945D01*
X35360000Y-134392529D01*
X35360000Y-136525000D01*
X35423561Y-136844541D01*
X35558278Y-137046159D01*
X35604566Y-137115434D01*
X36874566Y-138385434D01*
X37145459Y-138566439D01*
X37465000Y-138630000D01*
X38481471Y-138630000D01*
X38246061Y-138865000D01*
X37465000Y-138865000D01*
X37145459Y-138928561D01*
X36970476Y-139045481D01*
X36874566Y-139109566D01*
X36531395Y-139452737D01*
X36531718Y-139082597D01*
X36252945Y-138407914D01*
X35737201Y-137891270D01*
X35063005Y-137611319D01*
X34332997Y-137610682D01*
X33658314Y-137889455D01*
X33141670Y-138405199D01*
X32861719Y-139079395D01*
X32861082Y-139809403D01*
X33139855Y-140484086D01*
X33655599Y-141000730D01*
X34329795Y-141280681D01*
X34703125Y-141281007D01*
X34579132Y-141405000D01*
X32730868Y-141405000D01*
X32585000Y-141259132D01*
X32585000Y-140970729D01*
X32585145Y-140804637D01*
X32458292Y-140497628D01*
X32223607Y-140262534D01*
X31916821Y-140135145D01*
X31584637Y-140134855D01*
X31315000Y-140246266D01*
X31315000Y-128788553D01*
X31522811Y-128649698D01*
X31833880Y-128184151D01*
X31943113Y-127635000D01*
X31833880Y-127085849D01*
X31522811Y-126620302D01*
X31057264Y-126309233D01*
X30508113Y-126200000D01*
X30451887Y-126200000D01*
X29902736Y-126309233D01*
X29437189Y-126620302D01*
X29412748Y-126656880D01*
X28948002Y-126192134D01*
X28948002Y-126062411D01*
X29239156Y-126268929D01*
X29384491Y-126208754D01*
X29992091Y-125765859D01*
X30137533Y-125527688D01*
X30565849Y-125813880D01*
X31115000Y-125923113D01*
X31664151Y-125813880D01*
X32129698Y-125502811D01*
X32440767Y-125037264D01*
X32550000Y-124488113D01*
X32550000Y-124431887D01*
X32440767Y-123882736D01*
X32129698Y-123417189D01*
X31664151Y-123106120D01*
X31115000Y-122996887D01*
X30565849Y-123106120D01*
X30137533Y-123392312D01*
X29992091Y-123154141D01*
X29384491Y-122711246D01*
X29239156Y-122651071D01*
X28948000Y-122857590D01*
X28948000Y-124087000D01*
X28968000Y-124087000D01*
X28968000Y-124833000D01*
X28948000Y-124833000D01*
X28948000Y-124853000D01*
X28202000Y-124853000D01*
X28202000Y-124833000D01*
X28182000Y-124833000D01*
X28182000Y-124087000D01*
X28202000Y-124087000D01*
X28202000Y-122857590D01*
X28140000Y-122813613D01*
X28140000Y-118455868D01*
X28339582Y-118256286D01*
X28575000Y-118303113D01*
X29124151Y-118193880D01*
X29589698Y-117882811D01*
X29845000Y-117500725D01*
X30100302Y-117882811D01*
X30565849Y-118193880D01*
X31115000Y-118303113D01*
X31664151Y-118193880D01*
X32129698Y-117882811D01*
X32440767Y-117417264D01*
X32550000Y-116868113D01*
X32550000Y-116811887D01*
X32440767Y-116262736D01*
X32129698Y-115797189D01*
X31664151Y-115486120D01*
X31115000Y-115376887D01*
X30565849Y-115486120D01*
X30100302Y-115797189D01*
X29845000Y-116179275D01*
X29589698Y-115797189D01*
X29124151Y-115486120D01*
X28575000Y-115376887D01*
X28025849Y-115486120D01*
X27560302Y-115797189D01*
X27305000Y-116179275D01*
X27049698Y-115797189D01*
X26584151Y-115486120D01*
X26035000Y-115376887D01*
X25485849Y-115486120D01*
X25057533Y-115772312D01*
X24912091Y-115534141D01*
X24381188Y-115147152D01*
X24391716Y-115089218D01*
X23495000Y-114192502D01*
X22598284Y-115089218D01*
X22608812Y-115147152D01*
X22077909Y-115534141D01*
X21686048Y-116175841D01*
X21886172Y-116467000D01*
X23122000Y-116467000D01*
X23122000Y-116447000D01*
X23868000Y-116447000D01*
X23868000Y-116467000D01*
X23888000Y-116467000D01*
X23888000Y-117213000D01*
X23868000Y-117213000D01*
X23868000Y-118442410D01*
X24159156Y-118648929D01*
X24304491Y-118588754D01*
X24912091Y-118145859D01*
X25057533Y-117907688D01*
X25485849Y-118193880D01*
X26035000Y-118303113D01*
X26470000Y-118216586D01*
X26470000Y-122813613D01*
X26408000Y-122857590D01*
X26408000Y-124087000D01*
X26428000Y-124087000D01*
X26428000Y-124833000D01*
X26408000Y-124833000D01*
X26408000Y-126062410D01*
X26663030Y-126243304D01*
X26707082Y-126309233D01*
X26714566Y-126320434D01*
X28619566Y-128225434D01*
X28890459Y-128406439D01*
X29210000Y-128470000D01*
X29317118Y-128470000D01*
X29437189Y-128649698D01*
X29645000Y-128788553D01*
X29645000Y-142240000D01*
X29708561Y-142559541D01*
X29889566Y-142830434D01*
X32429566Y-145370434D01*
X32700459Y-145551439D01*
X33020000Y-145615000D01*
X36830000Y-145615000D01*
X37149541Y-145551439D01*
X37420434Y-145370434D01*
X38690434Y-144100434D01*
X38871439Y-143829541D01*
X38911970Y-143625780D01*
X39085317Y-143593162D01*
X39301441Y-143454090D01*
X39446431Y-143241890D01*
X39486355Y-143044738D01*
X39854436Y-143413461D01*
X40363298Y-143624759D01*
X40914285Y-143625240D01*
X41423515Y-143414831D01*
X41813461Y-143025564D01*
X41909976Y-142793130D01*
X42005169Y-143023515D01*
X42394436Y-143413461D01*
X42903298Y-143624759D01*
X43454285Y-143625240D01*
X43963515Y-143414831D01*
X44353461Y-143025564D01*
X44449976Y-142793130D01*
X44545169Y-143023515D01*
X44934436Y-143413461D01*
X45443298Y-143624759D01*
X45994285Y-143625240D01*
X46503515Y-143414831D01*
X46893461Y-143025564D01*
X47104759Y-142516702D01*
X47105240Y-141965715D01*
X46894831Y-141456485D01*
X46505564Y-141066539D01*
X45996702Y-140855241D01*
X45445715Y-140854760D01*
X44936485Y-141065169D01*
X44546539Y-141454436D01*
X44450024Y-141686870D01*
X44354831Y-141456485D01*
X43965564Y-141066539D01*
X43456702Y-140855241D01*
X42905715Y-140854760D01*
X42396485Y-141065169D01*
X42006539Y-141454436D01*
X41910024Y-141686870D01*
X41814831Y-141456485D01*
X41425564Y-141066539D01*
X40916702Y-140855241D01*
X40365715Y-140854760D01*
X39856485Y-141065169D01*
X39486920Y-141434091D01*
X39453162Y-141254683D01*
X39343960Y-141084978D01*
X39644285Y-141085240D01*
X40153515Y-140874831D01*
X40543461Y-140485564D01*
X40639976Y-140253130D01*
X40735169Y-140483515D01*
X41124436Y-140873461D01*
X41633298Y-141084759D01*
X42184285Y-141085240D01*
X42693515Y-140874831D01*
X43083461Y-140485564D01*
X43179976Y-140253130D01*
X43275169Y-140483515D01*
X43664436Y-140873461D01*
X44173298Y-141084759D01*
X44724285Y-141085240D01*
X45233515Y-140874831D01*
X45623461Y-140485564D01*
X45719976Y-140253130D01*
X45815169Y-140483515D01*
X46204436Y-140873461D01*
X46713298Y-141084759D01*
X47264285Y-141085240D01*
X47773515Y-140874831D01*
X48163461Y-140485564D01*
X48374759Y-139976702D01*
X48375240Y-139425715D01*
X48164831Y-138916485D01*
X47775564Y-138526539D01*
X47266702Y-138315241D01*
X46715715Y-138314760D01*
X46206485Y-138525169D01*
X45816539Y-138914436D01*
X45720024Y-139146870D01*
X45624831Y-138916485D01*
X45235564Y-138526539D01*
X44726702Y-138315241D01*
X44475846Y-138315022D01*
X45744446Y-137046422D01*
X45994285Y-137046640D01*
X46503515Y-136836231D01*
X46893461Y-136446964D01*
X47104759Y-135938102D01*
X47105240Y-135387115D01*
X46894831Y-134877885D01*
X46536411Y-134518840D01*
X47740000Y-134518840D01*
X47975317Y-134474562D01*
X48060000Y-134420070D01*
X48060000Y-134620000D01*
X48123561Y-134939541D01*
X48304566Y-135210434D01*
X51235000Y-138140868D01*
X51235000Y-140858554D01*
X51084683Y-140886838D01*
X50868559Y-141025910D01*
X50723569Y-141238110D01*
X50672560Y-141490000D01*
X50672560Y-142990000D01*
X50716838Y-143225317D01*
X50855910Y-143441441D01*
X51068110Y-143586431D01*
X51320000Y-143637440D01*
X52820000Y-143637440D01*
X53055317Y-143593162D01*
X53271441Y-143454090D01*
X53416431Y-143241890D01*
X53456355Y-143044738D01*
X53824436Y-143413461D01*
X54333298Y-143624759D01*
X54884285Y-143625240D01*
X55393515Y-143414831D01*
X55783461Y-143025564D01*
X55879976Y-142793130D01*
X55975169Y-143023515D01*
X56364436Y-143413461D01*
X56873298Y-143624759D01*
X57424285Y-143625240D01*
X57933515Y-143414831D01*
X58323461Y-143025564D01*
X58419976Y-142793130D01*
X58515169Y-143023515D01*
X58904436Y-143413461D01*
X59413298Y-143624759D01*
X59964285Y-143625240D01*
X60473515Y-143414831D01*
X60863461Y-143025564D01*
X61074759Y-142516702D01*
X61075240Y-141965715D01*
X60864831Y-141456485D01*
X60475564Y-141066539D01*
X59966702Y-140855241D01*
X59415715Y-140854760D01*
X58906485Y-141065169D01*
X58516539Y-141454436D01*
X58420024Y-141686870D01*
X58324831Y-141456485D01*
X57935564Y-141066539D01*
X57426702Y-140855241D01*
X56875715Y-140854760D01*
X56366485Y-141065169D01*
X55976539Y-141454436D01*
X55880024Y-141686870D01*
X55784831Y-141456485D01*
X55395564Y-141066539D01*
X54886702Y-140855241D01*
X54335715Y-140854760D01*
X53826485Y-141065169D01*
X53456920Y-141434091D01*
X53423162Y-141254683D01*
X53313960Y-141084978D01*
X53614285Y-141085240D01*
X54123515Y-140874831D01*
X54513461Y-140485564D01*
X54609976Y-140253130D01*
X54705169Y-140483515D01*
X55094436Y-140873461D01*
X55603298Y-141084759D01*
X56154285Y-141085240D01*
X56663515Y-140874831D01*
X57053461Y-140485564D01*
X57149976Y-140253130D01*
X57245169Y-140483515D01*
X57634436Y-140873461D01*
X58143298Y-141084759D01*
X58694285Y-141085240D01*
X59203515Y-140874831D01*
X59593461Y-140485564D01*
X59689976Y-140253130D01*
X59785169Y-140483515D01*
X60174436Y-140873461D01*
X60683298Y-141084759D01*
X61234285Y-141085240D01*
X61743515Y-140874831D01*
X62133461Y-140485564D01*
X62344759Y-139976702D01*
X62344978Y-139725846D01*
X64642560Y-142023428D01*
X64642560Y-142990000D01*
X64686838Y-143225317D01*
X64825910Y-143441441D01*
X65038110Y-143586431D01*
X65290000Y-143637440D01*
X66790000Y-143637440D01*
X67025317Y-143593162D01*
X67241441Y-143454090D01*
X67386431Y-143241890D01*
X67426355Y-143044738D01*
X67794436Y-143413461D01*
X68303298Y-143624759D01*
X68854285Y-143625240D01*
X69363515Y-143414831D01*
X69753461Y-143025564D01*
X69849976Y-142793130D01*
X69945169Y-143023515D01*
X70334436Y-143413461D01*
X70843298Y-143624759D01*
X71394285Y-143625240D01*
X71903515Y-143414831D01*
X72293461Y-143025564D01*
X72389976Y-142793130D01*
X72485169Y-143023515D01*
X72874436Y-143413461D01*
X73383298Y-143624759D01*
X73934285Y-143625240D01*
X74443515Y-143414831D01*
X74833461Y-143025564D01*
X75044759Y-142516702D01*
X75045240Y-141965715D01*
X74834831Y-141456485D01*
X74445564Y-141066539D01*
X73936702Y-140855241D01*
X73385715Y-140854760D01*
X72876485Y-141065169D01*
X72486539Y-141454436D01*
X72390024Y-141686870D01*
X72294831Y-141456485D01*
X71905564Y-141066539D01*
X71396702Y-140855241D01*
X70845715Y-140854760D01*
X70336485Y-141065169D01*
X69946539Y-141454436D01*
X69850024Y-141686870D01*
X69754831Y-141456485D01*
X69365564Y-141066539D01*
X68856702Y-140855241D01*
X68305715Y-140854760D01*
X67796485Y-141065169D01*
X67426920Y-141434091D01*
X67393162Y-141254683D01*
X67283960Y-141084978D01*
X67584285Y-141085240D01*
X68093515Y-140874831D01*
X68483461Y-140485564D01*
X68579976Y-140253130D01*
X68675169Y-140483515D01*
X69064436Y-140873461D01*
X69573298Y-141084759D01*
X70124285Y-141085240D01*
X70633515Y-140874831D01*
X71023461Y-140485564D01*
X71119976Y-140253130D01*
X71215169Y-140483515D01*
X71604436Y-140873461D01*
X72113298Y-141084759D01*
X72664285Y-141085240D01*
X73173515Y-140874831D01*
X73563461Y-140485564D01*
X73659976Y-140253130D01*
X73755169Y-140483515D01*
X74144436Y-140873461D01*
X74653298Y-141084759D01*
X75204285Y-141085240D01*
X75713515Y-140874831D01*
X76103461Y-140485564D01*
X76314759Y-139976702D01*
X76315240Y-139425715D01*
X76104831Y-138916485D01*
X75715564Y-138526539D01*
X75206702Y-138315241D01*
X74655715Y-138314760D01*
X74146485Y-138525169D01*
X73756539Y-138914436D01*
X73660024Y-139146870D01*
X73564831Y-138916485D01*
X73175564Y-138526539D01*
X72666702Y-138315241D01*
X72115715Y-138314760D01*
X71606485Y-138525169D01*
X71216539Y-138914436D01*
X71120024Y-139146870D01*
X71024831Y-138916485D01*
X70635564Y-138526539D01*
X70126702Y-138315241D01*
X69575715Y-138314760D01*
X69066485Y-138525169D01*
X68676539Y-138914436D01*
X68580024Y-139146870D01*
X68484831Y-138916485D01*
X68095564Y-138526539D01*
X67586702Y-138315241D01*
X67035715Y-138314760D01*
X66526485Y-138525169D01*
X66136539Y-138914436D01*
X65925241Y-139423298D01*
X65924760Y-139974285D01*
X66135169Y-140483515D01*
X66493589Y-140842560D01*
X65823428Y-140842560D01*
X63700000Y-138719132D01*
X63700000Y-133124281D01*
X63768395Y-133152681D01*
X64498403Y-133153318D01*
X65173086Y-132874545D01*
X65689730Y-132358801D01*
X65969681Y-131684605D01*
X65970318Y-130954597D01*
X65730834Y-130375000D01*
X67945000Y-130375000D01*
X68264541Y-130311439D01*
X68535434Y-130130434D01*
X69633367Y-129032501D01*
X69821887Y-129070000D01*
X69878113Y-129070000D01*
X70427264Y-128960767D01*
X70892811Y-128649698D01*
X71203880Y-128184151D01*
X71295861Y-127721729D01*
X74095000Y-130520868D01*
X74095000Y-131739954D01*
X73944683Y-131768238D01*
X73728559Y-131907310D01*
X73583569Y-132119510D01*
X73543645Y-132316662D01*
X73175564Y-131947939D01*
X72666702Y-131736641D01*
X72115715Y-131736160D01*
X71606485Y-131946569D01*
X71216539Y-132335836D01*
X71120024Y-132568270D01*
X71024831Y-132337885D01*
X70635564Y-131947939D01*
X70126702Y-131736641D01*
X69575715Y-131736160D01*
X69066485Y-131946569D01*
X68676539Y-132335836D01*
X68580024Y-132568270D01*
X68484831Y-132337885D01*
X68095564Y-131947939D01*
X67586702Y-131736641D01*
X67035715Y-131736160D01*
X66526485Y-131946569D01*
X66136539Y-132335836D01*
X65925241Y-132844698D01*
X65924760Y-133395685D01*
X66135169Y-133904915D01*
X66524436Y-134294861D01*
X67033298Y-134506159D01*
X67584285Y-134506640D01*
X68093515Y-134296231D01*
X68483461Y-133906964D01*
X68579976Y-133674530D01*
X68675169Y-133904915D01*
X69064436Y-134294861D01*
X69573298Y-134506159D01*
X70124285Y-134506640D01*
X70633515Y-134296231D01*
X71023461Y-133906964D01*
X71119976Y-133674530D01*
X71215169Y-133904915D01*
X71604436Y-134294861D01*
X72113298Y-134506159D01*
X72664285Y-134506640D01*
X73173515Y-134296231D01*
X73543080Y-133927309D01*
X73576838Y-134106717D01*
X73686040Y-134276422D01*
X73385715Y-134276160D01*
X72876485Y-134486569D01*
X72486539Y-134875836D01*
X72390024Y-135108270D01*
X72294831Y-134877885D01*
X71905564Y-134487939D01*
X71396702Y-134276641D01*
X70845715Y-134276160D01*
X70336485Y-134486569D01*
X69946539Y-134875836D01*
X69850024Y-135108270D01*
X69754831Y-134877885D01*
X69365564Y-134487939D01*
X68856702Y-134276641D01*
X68305715Y-134276160D01*
X67796485Y-134486569D01*
X67406539Y-134875836D01*
X67310024Y-135108270D01*
X67214831Y-134877885D01*
X66825564Y-134487939D01*
X66316702Y-134276641D01*
X65765715Y-134276160D01*
X65256485Y-134486569D01*
X64866539Y-134875836D01*
X64655241Y-135384698D01*
X64654760Y-135935685D01*
X64865169Y-136444915D01*
X65254436Y-136834861D01*
X65763298Y-137046159D01*
X66314285Y-137046640D01*
X66823515Y-136836231D01*
X67213461Y-136446964D01*
X67309976Y-136214530D01*
X67405169Y-136444915D01*
X67794436Y-136834861D01*
X68303298Y-137046159D01*
X68854285Y-137046640D01*
X69363515Y-136836231D01*
X69753461Y-136446964D01*
X69849976Y-136214530D01*
X69945169Y-136444915D01*
X70334436Y-136834861D01*
X70843298Y-137046159D01*
X71394285Y-137046640D01*
X71903515Y-136836231D01*
X72293461Y-136446964D01*
X72389976Y-136214530D01*
X72485169Y-136444915D01*
X72874436Y-136834861D01*
X73383298Y-137046159D01*
X73934285Y-137046640D01*
X74443515Y-136836231D01*
X74833461Y-136446964D01*
X75044759Y-135938102D01*
X75045240Y-135387115D01*
X74834831Y-134877885D01*
X74476411Y-134518840D01*
X75680000Y-134518840D01*
X75915317Y-134474562D01*
X76131441Y-134335490D01*
X76276431Y-134123290D01*
X76327440Y-133871400D01*
X76327440Y-132371400D01*
X76283162Y-132136083D01*
X76144090Y-131919959D01*
X75931890Y-131774969D01*
X75765000Y-131741173D01*
X75765000Y-130175000D01*
X75701439Y-129855459D01*
X75520434Y-129584566D01*
X72590000Y-126654132D01*
X72590000Y-109220000D01*
X72526439Y-108900459D01*
X72345434Y-108629566D01*
X71266286Y-107550418D01*
X71313113Y-107315000D01*
X71203880Y-106765849D01*
X70892811Y-106300302D01*
X70427264Y-105989233D01*
X69878113Y-105880000D01*
X69821887Y-105880000D01*
X69272736Y-105989233D01*
X68807189Y-106300302D01*
X68687118Y-106480000D01*
X68290868Y-106480000D01*
X67683002Y-105872134D01*
X67683002Y-105742411D01*
X67974156Y-105948929D01*
X68119491Y-105888754D01*
X68727091Y-105445859D01*
X68872533Y-105207688D01*
X69300849Y-105493880D01*
X69850000Y-105603113D01*
X70399151Y-105493880D01*
X70864698Y-105182811D01*
X71175767Y-104717264D01*
X71285000Y-104168113D01*
X71285000Y-104111887D01*
X71175767Y-103562736D01*
X70864698Y-103097189D01*
X70399151Y-102786120D01*
X69850000Y-102676887D01*
X69300849Y-102786120D01*
X68872533Y-103072312D01*
X68727091Y-102834141D01*
X68119491Y-102391246D01*
X67974156Y-102331071D01*
X67683000Y-102537590D01*
X67683000Y-103767000D01*
X67703000Y-103767000D01*
X67703000Y-104513000D01*
X67683000Y-104513000D01*
X67683000Y-104533000D01*
X66937000Y-104533000D01*
X66937000Y-104513000D01*
X66917000Y-104513000D01*
X66917000Y-103767000D01*
X66937000Y-103767000D01*
X66937000Y-102537590D01*
X66875000Y-102493613D01*
X66875000Y-98135868D01*
X67074582Y-97936286D01*
X67310000Y-97983113D01*
X67859151Y-97873880D01*
X68324698Y-97562811D01*
X68580000Y-97180725D01*
X68835302Y-97562811D01*
X69300849Y-97873880D01*
X69850000Y-97983113D01*
X70399151Y-97873880D01*
X70864698Y-97562811D01*
X71175767Y-97097264D01*
X71285000Y-96548113D01*
X71285000Y-96491887D01*
X71175767Y-95942736D01*
X70864698Y-95477189D01*
X70399151Y-95166120D01*
X69850000Y-95056887D01*
X69300849Y-95166120D01*
X68835302Y-95477189D01*
X68580000Y-95859275D01*
X68324698Y-95477189D01*
X67859151Y-95166120D01*
X67310000Y-95056887D01*
X66760849Y-95166120D01*
X66295302Y-95477189D01*
X66040000Y-95859275D01*
X65784698Y-95477189D01*
X65319151Y-95166120D01*
X64770000Y-95056887D01*
X64220849Y-95166120D01*
X63792533Y-95452312D01*
X63647091Y-95214141D01*
X63116188Y-94827152D01*
X63126716Y-94769218D01*
X62230000Y-93872502D01*
X61333284Y-94769218D01*
X61343812Y-94827152D01*
X60812909Y-95214141D01*
X60421048Y-95855841D01*
X60621172Y-96147000D01*
X61857000Y-96147000D01*
X61857000Y-96127000D01*
X62603000Y-96127000D01*
X62603000Y-96147000D01*
X62623000Y-96147000D01*
X62623000Y-96893000D01*
X62603000Y-96893000D01*
X62603000Y-98122410D01*
X62894156Y-98328929D01*
X63039491Y-98268754D01*
X63647091Y-97825859D01*
X63792533Y-97587688D01*
X64220849Y-97873880D01*
X64770000Y-97983113D01*
X65205000Y-97896586D01*
X65205000Y-102493613D01*
X65143000Y-102537590D01*
X65143000Y-103767000D01*
X65163000Y-103767000D01*
X65163000Y-104513000D01*
X65143000Y-104513000D01*
X65143000Y-105742410D01*
X65398030Y-105923304D01*
X65442082Y-105989233D01*
X65449566Y-106000434D01*
X67354566Y-107905434D01*
X67625459Y-108086439D01*
X67945000Y-108150000D01*
X68687118Y-108150000D01*
X68807189Y-108329698D01*
X69272736Y-108640767D01*
X69821887Y-108750000D01*
X69878113Y-108750000D01*
X70066633Y-108712501D01*
X70920000Y-109565868D01*
X70920000Y-112870586D01*
X70772811Y-112650302D01*
X70307264Y-112339233D01*
X69758113Y-112230000D01*
X69701887Y-112230000D01*
X69152736Y-112339233D01*
X68687189Y-112650302D01*
X68376120Y-113115849D01*
X68266887Y-113665000D01*
X68376120Y-114214151D01*
X68687189Y-114679698D01*
X69152736Y-114990767D01*
X69701887Y-115100000D01*
X69758113Y-115100000D01*
X70307264Y-114990767D01*
X70772811Y-114679698D01*
X70920000Y-114459414D01*
X70920000Y-115879954D01*
X70864698Y-115797189D01*
X70399151Y-115486120D01*
X69850000Y-115376887D01*
X69300849Y-115486120D01*
X68835302Y-115797189D01*
X68580000Y-116179275D01*
X68324698Y-115797189D01*
X67859151Y-115486120D01*
X67310000Y-115376887D01*
X66760849Y-115486120D01*
X66295302Y-115797189D01*
X66040000Y-116179275D01*
X65784698Y-115797189D01*
X65319151Y-115486120D01*
X64770000Y-115376887D01*
X64220849Y-115486120D01*
X63792533Y-115772312D01*
X63647091Y-115534141D01*
X63116188Y-115147152D01*
X63126716Y-115089218D01*
X62230000Y-114192502D01*
X61333284Y-115089218D01*
X61343812Y-115147152D01*
X60812909Y-115534141D01*
X60421048Y-116175841D01*
X60621172Y-116467000D01*
X61857000Y-116467000D01*
X61857000Y-116447000D01*
X62603000Y-116447000D01*
X62603000Y-116467000D01*
X62623000Y-116467000D01*
X62623000Y-117213000D01*
X62603000Y-117213000D01*
X62603000Y-118442410D01*
X62894156Y-118648929D01*
X63039491Y-118588754D01*
X63647091Y-118145859D01*
X63792533Y-117907688D01*
X64220849Y-118193880D01*
X64770000Y-118303113D01*
X65319151Y-118193880D01*
X65784698Y-117882811D01*
X66040000Y-117500725D01*
X66295302Y-117882811D01*
X66760849Y-118193880D01*
X67310000Y-118303113D01*
X67545418Y-118256286D01*
X67745000Y-118455868D01*
X67745000Y-122813613D01*
X67683000Y-122857590D01*
X67683000Y-124087000D01*
X67703000Y-124087000D01*
X67703000Y-124833000D01*
X67683000Y-124833000D01*
X67683000Y-126062410D01*
X67974156Y-126268929D01*
X68119491Y-126208754D01*
X68347028Y-126042896D01*
X68877472Y-126573340D01*
X68807189Y-126620302D01*
X68496120Y-127085849D01*
X68386887Y-127635000D01*
X68433714Y-127870418D01*
X67599132Y-128705000D01*
X63189300Y-128705000D01*
X63445824Y-128448923D01*
X63664750Y-127921691D01*
X63665248Y-127350813D01*
X63602933Y-127200000D01*
X65059132Y-127200000D01*
X66083764Y-128224632D01*
X66201393Y-128342466D01*
X66508179Y-128469855D01*
X66840363Y-128470145D01*
X67147372Y-128343292D01*
X67382466Y-128108607D01*
X67509855Y-127801821D01*
X67510145Y-127469637D01*
X67383292Y-127162628D01*
X67148607Y-126927534D01*
X67148256Y-126927388D01*
X66239005Y-126018137D01*
X66500509Y-126208754D01*
X66645844Y-126268929D01*
X66937000Y-126062410D01*
X66937000Y-124833000D01*
X65143000Y-124833000D01*
X65143000Y-124853000D01*
X64397000Y-124853000D01*
X64397000Y-124833000D01*
X64377000Y-124833000D01*
X64377000Y-124087000D01*
X64397000Y-124087000D01*
X64397000Y-122857590D01*
X65143000Y-122857590D01*
X65143000Y-124087000D01*
X66937000Y-124087000D01*
X66937000Y-122857590D01*
X66645844Y-122651071D01*
X66500509Y-122711246D01*
X66040000Y-123046923D01*
X65579491Y-122711246D01*
X65434156Y-122651071D01*
X65143000Y-122857590D01*
X64397000Y-122857590D01*
X64105844Y-122651071D01*
X63960509Y-122711246D01*
X63382683Y-123132438D01*
X63281890Y-123063569D01*
X63030000Y-123012560D01*
X61430000Y-123012560D01*
X61194683Y-123056838D01*
X60978559Y-123195910D01*
X60833569Y-123408110D01*
X60782560Y-123660000D01*
X60782560Y-125260000D01*
X60826838Y-125495317D01*
X60849156Y-125530000D01*
X60670868Y-125530000D01*
X59255000Y-124114132D01*
X59255000Y-117504159D01*
X60421048Y-117504159D01*
X60812909Y-118145859D01*
X61420509Y-118588754D01*
X61565844Y-118648929D01*
X61857000Y-118442410D01*
X61857000Y-117213000D01*
X60621172Y-117213000D01*
X60421048Y-117504159D01*
X59255000Y-117504159D01*
X59255000Y-113577373D01*
X60267204Y-113577373D01*
X60383080Y-114335173D01*
X60450146Y-114497086D01*
X60805782Y-114561716D01*
X61702498Y-113665000D01*
X62757502Y-113665000D01*
X63654218Y-114561716D01*
X64009854Y-114497086D01*
X64192796Y-113752627D01*
X64076920Y-112994827D01*
X64009854Y-112832914D01*
X63654218Y-112768284D01*
X62757502Y-113665000D01*
X61702498Y-113665000D01*
X60805782Y-112768284D01*
X60450146Y-112832914D01*
X60267204Y-113577373D01*
X59255000Y-113577373D01*
X59255000Y-112240782D01*
X61333284Y-112240782D01*
X62230000Y-113137498D01*
X63126716Y-112240782D01*
X63062086Y-111885146D01*
X62317627Y-111702204D01*
X61559827Y-111818080D01*
X61397914Y-111885146D01*
X61333284Y-112240782D01*
X59255000Y-112240782D01*
X59255000Y-107599187D01*
X60794752Y-107599187D01*
X61012757Y-108126800D01*
X61416077Y-108530824D01*
X61943309Y-108749750D01*
X62514187Y-108750248D01*
X63041800Y-108532243D01*
X63445824Y-108128923D01*
X63664750Y-107601691D01*
X63665248Y-107030813D01*
X63447243Y-106503200D01*
X63043923Y-106099176D01*
X62516691Y-105880250D01*
X61945813Y-105879752D01*
X61418200Y-106097757D01*
X61014176Y-106501077D01*
X60795250Y-107028309D01*
X60794752Y-107599187D01*
X59255000Y-107599187D01*
X59255000Y-103340000D01*
X60782560Y-103340000D01*
X60782560Y-104940000D01*
X60826838Y-105175317D01*
X60965910Y-105391441D01*
X61178110Y-105536431D01*
X61430000Y-105587440D01*
X63030000Y-105587440D01*
X63265317Y-105543162D01*
X63382739Y-105467603D01*
X63960509Y-105888754D01*
X64105844Y-105948929D01*
X64397000Y-105742410D01*
X64397000Y-104513000D01*
X64377000Y-104513000D01*
X64377000Y-103767000D01*
X64397000Y-103767000D01*
X64397000Y-102537590D01*
X64105844Y-102331071D01*
X63960509Y-102391246D01*
X63382683Y-102812438D01*
X63281890Y-102743569D01*
X63030000Y-102692560D01*
X61430000Y-102692560D01*
X61194683Y-102736838D01*
X60978559Y-102875910D01*
X60833569Y-103088110D01*
X60782560Y-103340000D01*
X59255000Y-103340000D01*
X59255000Y-97184159D01*
X60421048Y-97184159D01*
X60812909Y-97825859D01*
X61420509Y-98268754D01*
X61565844Y-98328929D01*
X61857000Y-98122410D01*
X61857000Y-96893000D01*
X60621172Y-96893000D01*
X60421048Y-97184159D01*
X59255000Y-97184159D01*
X59255000Y-93257373D01*
X60267204Y-93257373D01*
X60383080Y-94015173D01*
X60450146Y-94177086D01*
X60805782Y-94241716D01*
X61702498Y-93345000D01*
X60805782Y-92448284D01*
X60450146Y-92512914D01*
X60267204Y-93257373D01*
X59255000Y-93257373D01*
X59255000Y-87733167D01*
X59403309Y-87794750D01*
X59974187Y-87795248D01*
X60125000Y-87732933D01*
X60125000Y-88265000D01*
X60188561Y-88584541D01*
X60281210Y-88723200D01*
X60369566Y-88855434D01*
X63280814Y-91766682D01*
X63126716Y-91920780D01*
X63062086Y-91565146D01*
X62317627Y-91382204D01*
X61559827Y-91498080D01*
X61397914Y-91565146D01*
X61333284Y-91920782D01*
X62230000Y-92817498D01*
X62244142Y-92803356D01*
X62771644Y-93330858D01*
X62757502Y-93345000D01*
X63654218Y-94241716D01*
X64009854Y-94177086D01*
X64192796Y-93432627D01*
X64076920Y-92674827D01*
X64009854Y-92512914D01*
X63654220Y-92448284D01*
X63878521Y-92223983D01*
X64135000Y-92275000D01*
X68769954Y-92275000D01*
X68687189Y-92330302D01*
X68376120Y-92795849D01*
X68266887Y-93345000D01*
X68376120Y-93894151D01*
X68687189Y-94359698D01*
X69152736Y-94670767D01*
X69701887Y-94780000D01*
X69758113Y-94780000D01*
X70307264Y-94670767D01*
X70772811Y-94359698D01*
X71083880Y-93894151D01*
X71193113Y-93345000D01*
X71083880Y-92795849D01*
X70772811Y-92330302D01*
X70690046Y-92275000D01*
X70774132Y-92275000D01*
X76000000Y-97500869D01*
X76000000Y-99087609D01*
X75857363Y-98944722D01*
X75256648Y-98695284D01*
X74606205Y-98694716D01*
X74005057Y-98943106D01*
X73544722Y-99402637D01*
X73295284Y-100003352D01*
X73294716Y-100653795D01*
X73543106Y-101254943D01*
X74002637Y-101715278D01*
X74603352Y-101964716D01*
X75253795Y-101965284D01*
X75854943Y-101716894D01*
X76000000Y-101572090D01*
X76000000Y-124460000D01*
X76063561Y-124779541D01*
X76235766Y-125037264D01*
X76244566Y-125050434D01*
X78149566Y-126955434D01*
X78420459Y-127136439D01*
X78740000Y-127200000D01*
X79906833Y-127200000D01*
X79845250Y-127348309D01*
X79844752Y-127919187D01*
X80062757Y-128446800D01*
X80445000Y-128829710D01*
X80445000Y-130464132D01*
X79940306Y-130968826D01*
X79940318Y-130954597D01*
X79661545Y-130279914D01*
X79145801Y-129763270D01*
X78471605Y-129483319D01*
X77741597Y-129482682D01*
X77066914Y-129761455D01*
X76550270Y-130277199D01*
X76270319Y-130951395D01*
X76269682Y-131681403D01*
X76548455Y-132356086D01*
X77064199Y-132872730D01*
X77738395Y-133152681D01*
X77756435Y-133152697D01*
X77514566Y-133394566D01*
X77333561Y-133665459D01*
X77270000Y-133985000D01*
X77270000Y-136525000D01*
X77333561Y-136844541D01*
X77468278Y-137046159D01*
X77514566Y-137115434D01*
X79895177Y-139496045D01*
X79894760Y-139974285D01*
X80105169Y-140483515D01*
X80463589Y-140842560D01*
X79260000Y-140842560D01*
X79024683Y-140886838D01*
X78808559Y-141025910D01*
X78663569Y-141238110D01*
X78612560Y-141490000D01*
X78612560Y-142990000D01*
X78656838Y-143225317D01*
X78795910Y-143441441D01*
X79008110Y-143586431D01*
X79260000Y-143637440D01*
X80760000Y-143637440D01*
X80995317Y-143593162D01*
X81211441Y-143454090D01*
X81356431Y-143241890D01*
X81396355Y-143044738D01*
X81764436Y-143413461D01*
X82273298Y-143624759D01*
X82824285Y-143625240D01*
X83333515Y-143414831D01*
X83723461Y-143025564D01*
X83819976Y-142793130D01*
X83915169Y-143023515D01*
X84304436Y-143413461D01*
X84813298Y-143624759D01*
X85364285Y-143625240D01*
X85873515Y-143414831D01*
X86263461Y-143025564D01*
X86359976Y-142793130D01*
X86455169Y-143023515D01*
X86844436Y-143413461D01*
X87353298Y-143624759D01*
X87904285Y-143625240D01*
X88413515Y-143414831D01*
X88742916Y-143086003D01*
X90468282Y-143086003D01*
X90747055Y-143760686D01*
X91262799Y-144277330D01*
X91936995Y-144557281D01*
X92667003Y-144557918D01*
X93341686Y-144279145D01*
X93858330Y-143763401D01*
X94138281Y-143089205D01*
X94138918Y-142359197D01*
X93860145Y-141684514D01*
X93344401Y-141167870D01*
X92670205Y-140887919D01*
X91940197Y-140887282D01*
X91265514Y-141166055D01*
X90748870Y-141681799D01*
X90468919Y-142355995D01*
X90468282Y-143086003D01*
X88742916Y-143086003D01*
X88803461Y-143025564D01*
X89014759Y-142516702D01*
X89015240Y-141965715D01*
X88804831Y-141456485D01*
X88415564Y-141066539D01*
X87906702Y-140855241D01*
X87355715Y-140854760D01*
X86846485Y-141065169D01*
X86456539Y-141454436D01*
X86360024Y-141686870D01*
X86264831Y-141456485D01*
X85875564Y-141066539D01*
X85366702Y-140855241D01*
X84815715Y-140854760D01*
X84306485Y-141065169D01*
X83916539Y-141454436D01*
X83820024Y-141686870D01*
X83724831Y-141456485D01*
X83335564Y-141066539D01*
X82826702Y-140855241D01*
X82275715Y-140854760D01*
X81766485Y-141065169D01*
X81396920Y-141434091D01*
X81363162Y-141254683D01*
X81253960Y-141084978D01*
X81554285Y-141085240D01*
X82063515Y-140874831D01*
X82453461Y-140485564D01*
X82549976Y-140253130D01*
X82645169Y-140483515D01*
X83034436Y-140873461D01*
X83543298Y-141084759D01*
X84094285Y-141085240D01*
X84603515Y-140874831D01*
X84993461Y-140485564D01*
X85089976Y-140253130D01*
X85185169Y-140483515D01*
X85574436Y-140873461D01*
X86083298Y-141084759D01*
X86634285Y-141085240D01*
X87143515Y-140874831D01*
X87533461Y-140485564D01*
X87629976Y-140253130D01*
X87725169Y-140483515D01*
X88114436Y-140873461D01*
X88623298Y-141084759D01*
X89174285Y-141085240D01*
X89683515Y-140874831D01*
X90073461Y-140485564D01*
X90284759Y-139976702D01*
X90285240Y-139425715D01*
X90074831Y-138916485D01*
X89685564Y-138526539D01*
X89176702Y-138315241D01*
X88625715Y-138314760D01*
X88116485Y-138525169D01*
X87726539Y-138914436D01*
X87630024Y-139146870D01*
X87534831Y-138916485D01*
X87145564Y-138526539D01*
X86636702Y-138315241D01*
X86085715Y-138314760D01*
X85576485Y-138525169D01*
X85186539Y-138914436D01*
X85090024Y-139146870D01*
X84994831Y-138916485D01*
X84605564Y-138526539D01*
X84096702Y-138315241D01*
X83545715Y-138314760D01*
X83036485Y-138525169D01*
X82646539Y-138914436D01*
X82550024Y-139146870D01*
X82454831Y-138916485D01*
X82065564Y-138526539D01*
X81556702Y-138315241D01*
X81075689Y-138314821D01*
X80335071Y-137574203D01*
X91128682Y-137574203D01*
X91407455Y-138248886D01*
X91923199Y-138765530D01*
X92597395Y-139045481D01*
X93327403Y-139046118D01*
X94002086Y-138767345D01*
X94518730Y-138251601D01*
X94798681Y-137577405D01*
X94799318Y-136847397D01*
X94520545Y-136172714D01*
X94004801Y-135656070D01*
X93330605Y-135376119D01*
X92600597Y-135375482D01*
X91925914Y-135654255D01*
X91409270Y-136169999D01*
X91129319Y-136844195D01*
X91128682Y-137574203D01*
X80335071Y-137574203D01*
X79807091Y-137046223D01*
X80284285Y-137046640D01*
X80793515Y-136836231D01*
X81183461Y-136446964D01*
X81279976Y-136214530D01*
X81375169Y-136444915D01*
X81764436Y-136834861D01*
X82273298Y-137046159D01*
X82824285Y-137046640D01*
X83333515Y-136836231D01*
X83723461Y-136446964D01*
X83819976Y-136214530D01*
X83915169Y-136444915D01*
X84304436Y-136834861D01*
X84813298Y-137046159D01*
X85364285Y-137046640D01*
X85873515Y-136836231D01*
X86263461Y-136446964D01*
X86359976Y-136214530D01*
X86455169Y-136444915D01*
X86844436Y-136834861D01*
X87353298Y-137046159D01*
X87904285Y-137046640D01*
X88413515Y-136836231D01*
X88803461Y-136446964D01*
X89014759Y-135938102D01*
X89015240Y-135387115D01*
X88804831Y-134877885D01*
X88446411Y-134518840D01*
X89650000Y-134518840D01*
X89885317Y-134474562D01*
X90101441Y-134335490D01*
X90246431Y-134123290D01*
X90297440Y-133871400D01*
X90297440Y-132498428D01*
X94570434Y-128225434D01*
X94648495Y-128108607D01*
X94751439Y-127954541D01*
X94815000Y-127635000D01*
X94815000Y-112395000D01*
X94751439Y-112075459D01*
X94570434Y-111804566D01*
X90316286Y-107550418D01*
X90363113Y-107315000D01*
X90253880Y-106765849D01*
X89942811Y-106300302D01*
X89477264Y-105989233D01*
X89368458Y-105967590D01*
X88986729Y-105585861D01*
X89449151Y-105493880D01*
X89914698Y-105182811D01*
X90225767Y-104717264D01*
X90335000Y-104168113D01*
X90335000Y-104111887D01*
X90225767Y-103562736D01*
X89914698Y-103097189D01*
X89449151Y-102786120D01*
X88900000Y-102676887D01*
X88465000Y-102763414D01*
X88465000Y-97896586D01*
X88900000Y-97983113D01*
X89449151Y-97873880D01*
X89914698Y-97562811D01*
X90225767Y-97097264D01*
X90335000Y-96548113D01*
X90335000Y-96491887D01*
X90225767Y-95942736D01*
X89914698Y-95477189D01*
X89449151Y-95166120D01*
X88900000Y-95056887D01*
X88350849Y-95166120D01*
X87885302Y-95477189D01*
X87630000Y-95859275D01*
X87374698Y-95477189D01*
X86909151Y-95166120D01*
X86360000Y-95056887D01*
X85810849Y-95166120D01*
X85345302Y-95477189D01*
X85090000Y-95859275D01*
X84834698Y-95477189D01*
X84369151Y-95166120D01*
X83820000Y-95056887D01*
X83270849Y-95166120D01*
X82842533Y-95452312D01*
X82697091Y-95214141D01*
X82166188Y-94827152D01*
X82176716Y-94769218D01*
X81280000Y-93872502D01*
X80383284Y-94769218D01*
X80393812Y-94827152D01*
X79862909Y-95214141D01*
X79575000Y-95685612D01*
X79575000Y-94190689D01*
X79855782Y-94241716D01*
X80752498Y-93345000D01*
X81807502Y-93345000D01*
X82704218Y-94241716D01*
X83059854Y-94177086D01*
X83242796Y-93432627D01*
X83229397Y-93345000D01*
X87316887Y-93345000D01*
X87426120Y-93894151D01*
X87737189Y-94359698D01*
X88202736Y-94670767D01*
X88751887Y-94780000D01*
X88808113Y-94780000D01*
X89357264Y-94670767D01*
X89822811Y-94359698D01*
X90133880Y-93894151D01*
X90243113Y-93345000D01*
X90133880Y-92795849D01*
X89822811Y-92330302D01*
X89357264Y-92019233D01*
X88808113Y-91910000D01*
X88751887Y-91910000D01*
X88202736Y-92019233D01*
X87737189Y-92330302D01*
X87426120Y-92795849D01*
X87316887Y-93345000D01*
X83229397Y-93345000D01*
X83126920Y-92674827D01*
X83059854Y-92512914D01*
X82704218Y-92448284D01*
X81807502Y-93345000D01*
X80752498Y-93345000D01*
X79855782Y-92448284D01*
X79575000Y-92499311D01*
X79575000Y-91920782D01*
X80383284Y-91920782D01*
X81280000Y-92817498D01*
X82176716Y-91920782D01*
X82112086Y-91565146D01*
X81367627Y-91382204D01*
X80609827Y-91498080D01*
X80447914Y-91565146D01*
X80383284Y-91920782D01*
X79575000Y-91920782D01*
X79575000Y-91440729D01*
X79575145Y-91274637D01*
X79531910Y-91170000D01*
X96155000Y-91170000D01*
X96155000Y-100330000D01*
X96279457Y-100955687D01*
X96633880Y-101486120D01*
X97164313Y-101840543D01*
X97790000Y-101965000D01*
X98415687Y-101840543D01*
X98946120Y-101486120D01*
X99300543Y-100955687D01*
X99425000Y-100330000D01*
X103946887Y-100330000D01*
X104056120Y-100879151D01*
X104367189Y-101344698D01*
X104832736Y-101655767D01*
X105381887Y-101765000D01*
X105438113Y-101765000D01*
X105987264Y-101655767D01*
X106452811Y-101344698D01*
X106763880Y-100879151D01*
X106873113Y-100330000D01*
X106763880Y-99780849D01*
X106452811Y-99315302D01*
X105987264Y-99004233D01*
X105438113Y-98895000D01*
X105381887Y-98895000D01*
X104832736Y-99004233D01*
X104367189Y-99315302D01*
X104056120Y-99780849D01*
X103946887Y-100330000D01*
X99425000Y-100330000D01*
X99425000Y-94615000D01*
X103946887Y-94615000D01*
X104056120Y-95164151D01*
X104367189Y-95629698D01*
X104832736Y-95940767D01*
X105381887Y-96050000D01*
X105438113Y-96050000D01*
X105987264Y-95940767D01*
X106452811Y-95629698D01*
X106763880Y-95164151D01*
X106873113Y-94615000D01*
X106763880Y-94065849D01*
X106452811Y-93600302D01*
X105987264Y-93289233D01*
X105438113Y-93180000D01*
X105381887Y-93180000D01*
X104832736Y-93289233D01*
X104367189Y-93600302D01*
X104056120Y-94065849D01*
X103946887Y-94615000D01*
X99425000Y-94615000D01*
X99425000Y-89535000D01*
X103826887Y-89535000D01*
X103936120Y-90084151D01*
X104247189Y-90549698D01*
X104712736Y-90860767D01*
X105261887Y-90970000D01*
X105318113Y-90970000D01*
X105867264Y-90860767D01*
X106332811Y-90549698D01*
X106643880Y-90084151D01*
X106753113Y-89535000D01*
X106643880Y-88985849D01*
X106332811Y-88520302D01*
X105867264Y-88209233D01*
X105318113Y-88100000D01*
X105261887Y-88100000D01*
X104712736Y-88209233D01*
X104247189Y-88520302D01*
X103936120Y-88985849D01*
X103826887Y-89535000D01*
X99425000Y-89535000D01*
X99300543Y-88909313D01*
X99003663Y-88465000D01*
X100330000Y-88465000D01*
X100649541Y-88401439D01*
X100920434Y-88220434D01*
X101101439Y-87949541D01*
X101165000Y-87630000D01*
X101165000Y-87500391D01*
X101513629Y-87152370D01*
X101599949Y-86944488D01*
X101684990Y-87150303D01*
X102077630Y-87543629D01*
X102590900Y-87756757D01*
X103146661Y-87757242D01*
X103660303Y-87545010D01*
X104053629Y-87152370D01*
X104139949Y-86944488D01*
X104224990Y-87150303D01*
X104617630Y-87543629D01*
X105130900Y-87756757D01*
X105686661Y-87757242D01*
X106200303Y-87545010D01*
X106593629Y-87152370D01*
X106806757Y-86639100D01*
X106807242Y-86083339D01*
X106595010Y-85569697D01*
X106202370Y-85176371D01*
X105994488Y-85090051D01*
X106200303Y-85005010D01*
X106593629Y-84612370D01*
X106806757Y-84099100D01*
X106807242Y-83543339D01*
X106595010Y-83029697D01*
X106202370Y-82636371D01*
X105689100Y-82423243D01*
X105133339Y-82422758D01*
X104619697Y-82634990D01*
X104226371Y-83027630D01*
X104140051Y-83235512D01*
X104055010Y-83029697D01*
X103662370Y-82636371D01*
X103149100Y-82423243D01*
X102593339Y-82422758D01*
X102079697Y-82634990D01*
X101686371Y-83027630D01*
X101600051Y-83235512D01*
X101515010Y-83029697D01*
X101122370Y-82636371D01*
X100609100Y-82423243D01*
X100053339Y-82422758D01*
X99539697Y-82634990D01*
X99172045Y-83002001D01*
X98946120Y-82663880D01*
X98415687Y-82309457D01*
X97790000Y-82185000D01*
X96520000Y-82185000D01*
X95894312Y-82309457D01*
X95724020Y-82423243D01*
X95363880Y-82663880D01*
X95363878Y-82663883D01*
X94093880Y-83933880D01*
X93739457Y-84464312D01*
X93614999Y-85090000D01*
X93615000Y-85090005D01*
X93615000Y-85235412D01*
X93523923Y-85144176D01*
X92996691Y-84925250D01*
X92425813Y-84924752D01*
X91898200Y-85142757D01*
X91494176Y-85546077D01*
X91440138Y-85676215D01*
X91387243Y-85548200D01*
X90983923Y-85144176D01*
X90456691Y-84925250D01*
X89885813Y-84924752D01*
X89358200Y-85142757D01*
X88954176Y-85546077D01*
X88900138Y-85676215D01*
X88847243Y-85548200D01*
X88443923Y-85144176D01*
X87916691Y-84925250D01*
X87345813Y-84924752D01*
X86818200Y-85142757D01*
X86414176Y-85546077D01*
X86360138Y-85676215D01*
X86307243Y-85548200D01*
X85903923Y-85144176D01*
X85376691Y-84925250D01*
X84805813Y-84924752D01*
X84278200Y-85142757D01*
X83874176Y-85546077D01*
X83820138Y-85676215D01*
X83767243Y-85548200D01*
X83363923Y-85144176D01*
X82836691Y-84925250D01*
X82265813Y-84924752D01*
X81738200Y-85142757D01*
X81334176Y-85546077D01*
X81280138Y-85676215D01*
X81227243Y-85548200D01*
X80823923Y-85144176D01*
X80693785Y-85090138D01*
X80821800Y-85037243D01*
X81225824Y-84633923D01*
X81444750Y-84106691D01*
X81445248Y-83535813D01*
X81227243Y-83008200D01*
X80823923Y-82604176D01*
X80693785Y-82550138D01*
X80821800Y-82497243D01*
X81225824Y-82093923D01*
X81444750Y-81566691D01*
X81445248Y-80995813D01*
X81227243Y-80468200D01*
X80823923Y-80064176D01*
X80693785Y-80010138D01*
X80821800Y-79957243D01*
X81225824Y-79553923D01*
X81279862Y-79423785D01*
X81332757Y-79551800D01*
X81736077Y-79955824D01*
X82263309Y-80174750D01*
X82834187Y-80175248D01*
X83361800Y-79957243D01*
X83765824Y-79553923D01*
X83819862Y-79423785D01*
X83872757Y-79551800D01*
X84276077Y-79955824D01*
X84803309Y-80174750D01*
X85374187Y-80175248D01*
X85901800Y-79957243D01*
X86305824Y-79553923D01*
X86359862Y-79423785D01*
X86412757Y-79551800D01*
X86816077Y-79955824D01*
X87343309Y-80174750D01*
X87914187Y-80175248D01*
X88441800Y-79957243D01*
X88845824Y-79553923D01*
X88899862Y-79423785D01*
X88952757Y-79551800D01*
X89356077Y-79955824D01*
X89883309Y-80174750D01*
X90454187Y-80175248D01*
X90981800Y-79957243D01*
X91385824Y-79553923D01*
X91439862Y-79423785D01*
X91492757Y-79551800D01*
X91896077Y-79955824D01*
X92423309Y-80174750D01*
X92994187Y-80175248D01*
X93521800Y-79957243D01*
X93925824Y-79553923D01*
X94144750Y-79026691D01*
X94145248Y-78455813D01*
X93927243Y-77928200D01*
X93523923Y-77524176D01*
X93393785Y-77470138D01*
X93521800Y-77417243D01*
X93920844Y-77018894D01*
X97464284Y-77018894D01*
X98092474Y-78539229D01*
X99254653Y-79703438D01*
X100773889Y-80334280D01*
X102418894Y-80335716D01*
X103939229Y-79707526D01*
X105103438Y-78545347D01*
X105734280Y-77026111D01*
X105735716Y-75381106D01*
X105107526Y-73860771D01*
X103945347Y-72696562D01*
X102426111Y-72065720D01*
X100781106Y-72064284D01*
X99260771Y-72692474D01*
X98096562Y-73854653D01*
X97465720Y-75373889D01*
X97464284Y-77018894D01*
X93920844Y-77018894D01*
X93925824Y-77013923D01*
X94144750Y-76486691D01*
X94145248Y-75915813D01*
X93927243Y-75388200D01*
X93523923Y-74984176D01*
X92996691Y-74765250D01*
X92425813Y-74764752D01*
X91898200Y-74982757D01*
X91494176Y-75386077D01*
X91440138Y-75516215D01*
X91387243Y-75388200D01*
X90983923Y-74984176D01*
X90456691Y-74765250D01*
X89885813Y-74764752D01*
X89358200Y-74982757D01*
X88954176Y-75386077D01*
X88900138Y-75516215D01*
X88847243Y-75388200D01*
X88443923Y-74984176D01*
X87916691Y-74765250D01*
X87345813Y-74764752D01*
X86818200Y-74982757D01*
X86414176Y-75386077D01*
X86360138Y-75516215D01*
X86307243Y-75388200D01*
X85903923Y-74984176D01*
X85376691Y-74765250D01*
X84805813Y-74764752D01*
X84278200Y-74982757D01*
X83874176Y-75386077D01*
X83820138Y-75516215D01*
X83767243Y-75388200D01*
X83363923Y-74984176D01*
X82836691Y-74765250D01*
X82265813Y-74764752D01*
X81738200Y-74982757D01*
X81334176Y-75386077D01*
X81280138Y-75516215D01*
X81227243Y-75388200D01*
X80823923Y-74984176D01*
X80693785Y-74930138D01*
X80821800Y-74877243D01*
X81225824Y-74473923D01*
X81444750Y-73946691D01*
X81445248Y-73375813D01*
X81227243Y-72848200D01*
X80823923Y-72444176D01*
X80693785Y-72390138D01*
X80821800Y-72337243D01*
X81225824Y-71933923D01*
X81279862Y-71803785D01*
X81332757Y-71931800D01*
X81736077Y-72335824D01*
X82263309Y-72554750D01*
X82834187Y-72555248D01*
X83361800Y-72337243D01*
X83765824Y-71933923D01*
X83819862Y-71803785D01*
X83872757Y-71931800D01*
X84276077Y-72335824D01*
X84803309Y-72554750D01*
X85374187Y-72555248D01*
X85901800Y-72337243D01*
X86305824Y-71933923D01*
X86359862Y-71803785D01*
X86412757Y-71931800D01*
X86816077Y-72335824D01*
X87343309Y-72554750D01*
X87914187Y-72555248D01*
X88441800Y-72337243D01*
X88845824Y-71933923D01*
X88899862Y-71803785D01*
X88952757Y-71931800D01*
X89356077Y-72335824D01*
X89883309Y-72554750D01*
X90454187Y-72555248D01*
X90981800Y-72337243D01*
X91385824Y-71933923D01*
X91439862Y-71803785D01*
X91492757Y-71931800D01*
X91896077Y-72335824D01*
X92423309Y-72554750D01*
X92994187Y-72555248D01*
X93521800Y-72337243D01*
X93925824Y-71933923D01*
X94144750Y-71406691D01*
X94145248Y-70835813D01*
X93927243Y-70308200D01*
X93523923Y-69904176D01*
X92996691Y-69685250D01*
X92425813Y-69684752D01*
X91898200Y-69902757D01*
X91494176Y-70306077D01*
X91440138Y-70436215D01*
X91387243Y-70308200D01*
X90983923Y-69904176D01*
X90456691Y-69685250D01*
X89885813Y-69684752D01*
X89358200Y-69902757D01*
X88954176Y-70306077D01*
X88900138Y-70436215D01*
X88847243Y-70308200D01*
X88443923Y-69904176D01*
X87916691Y-69685250D01*
X87345813Y-69684752D01*
X86818200Y-69902757D01*
X86414176Y-70306077D01*
X86360138Y-70436215D01*
X86307243Y-70308200D01*
X85903923Y-69904176D01*
X85376691Y-69685250D01*
X84805813Y-69684752D01*
X84278200Y-69902757D01*
X83874176Y-70306077D01*
X83820138Y-70436215D01*
X83767243Y-70308200D01*
X83363923Y-69904176D01*
X82836691Y-69685250D01*
X82265813Y-69684752D01*
X81738200Y-69902757D01*
X81334176Y-70306077D01*
X81280138Y-70436215D01*
X81227243Y-70308200D01*
X80823923Y-69904176D01*
X80296691Y-69685250D01*
X79725813Y-69684752D01*
X79198200Y-69902757D01*
X78794176Y-70306077D01*
X78740138Y-70436215D01*
X78687243Y-70308200D01*
X78283923Y-69904176D01*
X77756691Y-69685250D01*
X77185813Y-69684752D01*
X76658200Y-69902757D01*
X76254176Y-70306077D01*
X76200138Y-70436215D01*
X76147243Y-70308200D01*
X75743923Y-69904176D01*
X75216691Y-69685250D01*
X74645813Y-69684752D01*
X74118200Y-69902757D01*
X73714176Y-70306077D01*
X73660138Y-70436215D01*
X73607243Y-70308200D01*
X73203923Y-69904176D01*
X72676691Y-69685250D01*
X72105813Y-69684752D01*
X71578200Y-69902757D01*
X71174176Y-70306077D01*
X71120138Y-70436215D01*
X71067243Y-70308200D01*
X70663923Y-69904176D01*
X70136691Y-69685250D01*
X69565813Y-69684752D01*
X69038200Y-69902757D01*
X68634176Y-70306077D01*
X68580138Y-70436215D01*
X68527243Y-70308200D01*
X68123923Y-69904176D01*
X67596691Y-69685250D01*
X67025813Y-69684752D01*
X66498200Y-69902757D01*
X66094176Y-70306077D01*
X66040138Y-70436215D01*
X65987243Y-70308200D01*
X65583923Y-69904176D01*
X65056691Y-69685250D01*
X64485813Y-69684752D01*
X63958200Y-69902757D01*
X63554176Y-70306077D01*
X63500138Y-70436215D01*
X63447243Y-70308200D01*
X63043923Y-69904176D01*
X62516691Y-69685250D01*
X61945813Y-69684752D01*
X61418200Y-69902757D01*
X61014176Y-70306077D01*
X60960138Y-70436215D01*
X60907243Y-70308200D01*
X60503923Y-69904176D01*
X59976691Y-69685250D01*
X59405813Y-69684752D01*
X58878200Y-69902757D01*
X58474176Y-70306077D01*
X58420138Y-70436215D01*
X58367243Y-70308200D01*
X57963923Y-69904176D01*
X57436691Y-69685250D01*
X56865813Y-69684752D01*
X56338200Y-69902757D01*
X55934176Y-70306077D01*
X55880138Y-70436215D01*
X55827243Y-70308200D01*
X55423923Y-69904176D01*
X54896691Y-69685250D01*
X54325813Y-69684752D01*
X53798200Y-69902757D01*
X53394176Y-70306077D01*
X53340138Y-70436215D01*
X53287243Y-70308200D01*
X52883923Y-69904176D01*
X52356691Y-69685250D01*
X51785813Y-69684752D01*
X51258200Y-69902757D01*
X50854176Y-70306077D01*
X50800138Y-70436215D01*
X50747243Y-70308200D01*
X50343923Y-69904176D01*
X49816691Y-69685250D01*
X49245813Y-69684752D01*
X48718200Y-69902757D01*
X48314176Y-70306077D01*
X48260138Y-70436215D01*
X48207243Y-70308200D01*
X47803923Y-69904176D01*
X47276691Y-69685250D01*
X46705813Y-69684752D01*
X46178200Y-69902757D01*
X45774176Y-70306077D01*
X45720138Y-70436215D01*
X45667243Y-70308200D01*
X45263923Y-69904176D01*
X44736691Y-69685250D01*
X44165813Y-69684752D01*
X43638200Y-69902757D01*
X43234176Y-70306077D01*
X43180138Y-70436215D01*
X43127243Y-70308200D01*
X42723923Y-69904176D01*
X42196691Y-69685250D01*
X41625813Y-69684752D01*
X41098200Y-69902757D01*
X40694176Y-70306077D01*
X40640138Y-70436215D01*
X40587243Y-70308200D01*
X40183923Y-69904176D01*
X39656691Y-69685250D01*
X39085813Y-69684752D01*
X38558200Y-69902757D01*
X38154176Y-70306077D01*
X38100138Y-70436215D01*
X38047243Y-70308200D01*
X37643923Y-69904176D01*
X37116691Y-69685250D01*
X36545813Y-69684752D01*
X36018200Y-69902757D01*
X35614176Y-70306077D01*
X35601928Y-70335574D01*
X34817502Y-71120000D01*
X35601107Y-71903605D01*
X35612757Y-71931800D01*
X36016077Y-72335824D01*
X36146215Y-72389862D01*
X36018200Y-72442757D01*
X35614176Y-72846077D01*
X35395250Y-73373309D01*
X35394752Y-73944187D01*
X35612757Y-74471800D01*
X36016077Y-74875824D01*
X36543309Y-75094750D01*
X37114187Y-75095248D01*
X37641800Y-74877243D01*
X38045824Y-74473923D01*
X38264750Y-73946691D01*
X38265248Y-73375813D01*
X38047243Y-72848200D01*
X37643923Y-72444176D01*
X37513785Y-72390138D01*
X37641800Y-72337243D01*
X38045824Y-71933923D01*
X38099862Y-71803785D01*
X38152757Y-71931800D01*
X38556077Y-72335824D01*
X39083309Y-72554750D01*
X39654187Y-72555248D01*
X40181800Y-72337243D01*
X40585824Y-71933923D01*
X40639862Y-71803785D01*
X40692757Y-71931800D01*
X41096077Y-72335824D01*
X41226215Y-72389862D01*
X41098200Y-72442757D01*
X40694176Y-72846077D01*
X40475250Y-73373309D01*
X40474752Y-73944187D01*
X40692757Y-74471800D01*
X41096077Y-74875824D01*
X41623309Y-75094750D01*
X42194187Y-75095248D01*
X42721800Y-74877243D01*
X43125824Y-74473923D01*
X43179862Y-74343785D01*
X43232757Y-74471800D01*
X43636077Y-74875824D01*
X44163309Y-75094750D01*
X44734187Y-75095248D01*
X45261800Y-74877243D01*
X45665824Y-74473923D01*
X45719862Y-74343785D01*
X45772757Y-74471800D01*
X46176077Y-74875824D01*
X46703309Y-75094750D01*
X47274187Y-75095248D01*
X47801800Y-74877243D01*
X48205824Y-74473923D01*
X48424750Y-73946691D01*
X48425248Y-73375813D01*
X48207243Y-72848200D01*
X47803923Y-72444176D01*
X47673785Y-72390138D01*
X47801800Y-72337243D01*
X48205824Y-71933923D01*
X48259862Y-71803785D01*
X48312757Y-71931800D01*
X48716077Y-72335824D01*
X49243309Y-72554750D01*
X49784354Y-72555222D01*
X50844566Y-73615434D01*
X51115459Y-73796439D01*
X51435000Y-73860000D01*
X56804132Y-73860000D01*
X57585000Y-74640868D01*
X57585000Y-74826833D01*
X57436691Y-74765250D01*
X56865813Y-74764752D01*
X56338200Y-74982757D01*
X55934176Y-75386077D01*
X55880138Y-75516215D01*
X55827243Y-75388200D01*
X55423923Y-74984176D01*
X54896691Y-74765250D01*
X54325813Y-74764752D01*
X53798200Y-74982757D01*
X53394176Y-75386077D01*
X53340138Y-75516215D01*
X53287243Y-75388200D01*
X52883923Y-74984176D01*
X52356691Y-74765250D01*
X51785813Y-74764752D01*
X51258200Y-74982757D01*
X50854176Y-75386077D01*
X50800138Y-75516215D01*
X50747243Y-75388200D01*
X50343923Y-74984176D01*
X49816691Y-74765250D01*
X49245813Y-74764752D01*
X48718200Y-74982757D01*
X48314176Y-75386077D01*
X48095250Y-75913309D01*
X48094752Y-76484187D01*
X48312757Y-77011800D01*
X48716077Y-77415824D01*
X48846215Y-77469862D01*
X48718200Y-77522757D01*
X48314176Y-77926077D01*
X48095250Y-78453309D01*
X48094752Y-79024187D01*
X48312757Y-79551800D01*
X48716077Y-79955824D01*
X49243309Y-80174750D01*
X49814187Y-80175248D01*
X50341800Y-79957243D01*
X50745824Y-79553923D01*
X50799862Y-79423785D01*
X50852757Y-79551800D01*
X51256077Y-79955824D01*
X51783309Y-80174750D01*
X52354187Y-80175248D01*
X52881800Y-79957243D01*
X53285824Y-79553923D01*
X53339862Y-79423785D01*
X53392757Y-79551800D01*
X53796077Y-79955824D01*
X54323309Y-80174750D01*
X54894187Y-80175248D01*
X55421800Y-79957243D01*
X55825824Y-79553923D01*
X55879862Y-79423785D01*
X55932757Y-79551800D01*
X56336077Y-79955824D01*
X56863309Y-80174750D01*
X57434187Y-80175248D01*
X57585000Y-80112933D01*
X57585000Y-82461503D01*
X57316821Y-82350145D01*
X56984637Y-82349855D01*
X56984286Y-82350000D01*
X53340000Y-82350000D01*
X53020459Y-82413561D01*
X52749566Y-82594566D01*
X51479566Y-83864566D01*
X51298561Y-84135459D01*
X51235000Y-84455000D01*
X51235000Y-85165917D01*
X50854176Y-85546077D01*
X50800138Y-85676215D01*
X50747243Y-85548200D01*
X50343923Y-85144176D01*
X49816691Y-84925250D01*
X49245813Y-84924752D01*
X48718200Y-85142757D01*
X48314176Y-85546077D01*
X48260138Y-85676215D01*
X48207243Y-85548200D01*
X47803923Y-85144176D01*
X47276691Y-84925250D01*
X46705813Y-84924752D01*
X46178200Y-85142757D01*
X45774176Y-85546077D01*
X45720138Y-85676215D01*
X45667243Y-85548200D01*
X45263923Y-85144176D01*
X44736691Y-84925250D01*
X44165813Y-84924752D01*
X43638200Y-85142757D01*
X43234176Y-85546077D01*
X43180138Y-85676215D01*
X43127243Y-85548200D01*
X42723923Y-85144176D01*
X42196691Y-84925250D01*
X41625813Y-84924752D01*
X41098200Y-85142757D01*
X40694176Y-85546077D01*
X40640138Y-85676215D01*
X40587243Y-85548200D01*
X40183923Y-85144176D01*
X39656691Y-84925250D01*
X39085813Y-84924752D01*
X38558200Y-85142757D01*
X38154176Y-85546077D01*
X38100138Y-85676215D01*
X38047243Y-85548200D01*
X37643923Y-85144176D01*
X37116691Y-84925250D01*
X36545813Y-84924752D01*
X36018200Y-85142757D01*
X35715742Y-85444688D01*
X35693162Y-85324683D01*
X35554090Y-85108559D01*
X35341890Y-84963569D01*
X35090000Y-84912560D01*
X33490000Y-84912560D01*
X33254683Y-84956838D01*
X33038559Y-85095910D01*
X32893569Y-85308110D01*
X32842560Y-85560000D01*
X32842560Y-87160000D01*
X32886838Y-87395317D01*
X33025910Y-87611441D01*
X33238110Y-87756431D01*
X33490000Y-87807440D01*
X35090000Y-87807440D01*
X35325317Y-87763162D01*
X35541441Y-87624090D01*
X35686431Y-87411890D01*
X35714426Y-87273646D01*
X36016077Y-87575824D01*
X36543309Y-87794750D01*
X37114187Y-87795248D01*
X37641800Y-87577243D01*
X38045824Y-87173923D01*
X38099862Y-87043785D01*
X38152757Y-87171800D01*
X38556077Y-87575824D01*
X39083309Y-87794750D01*
X39654187Y-87795248D01*
X40181800Y-87577243D01*
X40585824Y-87173923D01*
X40639862Y-87043785D01*
X40692757Y-87171800D01*
X41096077Y-87575824D01*
X41623309Y-87794750D01*
X42194187Y-87795248D01*
X42721800Y-87577243D01*
X43125824Y-87173923D01*
X43179862Y-87043785D01*
X43232757Y-87171800D01*
X43636077Y-87575824D01*
X44163309Y-87794750D01*
X44734187Y-87795248D01*
X45261800Y-87577243D01*
X45665824Y-87173923D01*
X45719862Y-87043785D01*
X45772757Y-87171800D01*
X46176077Y-87575824D01*
X46703309Y-87794750D01*
X47274187Y-87795248D01*
X47801800Y-87577243D01*
X48205824Y-87173923D01*
X48259862Y-87043785D01*
X48312757Y-87171800D01*
X48716077Y-87575824D01*
X49243309Y-87794750D01*
X49814187Y-87795248D01*
X50341800Y-87577243D01*
X50745824Y-87173923D01*
X50799862Y-87043785D01*
X50852757Y-87171800D01*
X51256077Y-87575824D01*
X51783309Y-87794750D01*
X52354187Y-87795248D01*
X52881800Y-87577243D01*
X53285824Y-87173923D01*
X53339862Y-87043785D01*
X53392757Y-87171800D01*
X53796077Y-87575824D01*
X54323309Y-87794750D01*
X54534198Y-87794934D01*
X52994132Y-89335000D01*
X41910000Y-89335000D01*
X41590460Y-89398560D01*
X41319566Y-89579566D01*
X34334566Y-96564566D01*
X34153561Y-96835459D01*
X34090000Y-97155000D01*
X34090000Y-99349132D01*
X30674655Y-102764477D01*
X30565849Y-102786120D01*
X30137533Y-103072312D01*
X29992091Y-102834141D01*
X29384491Y-102391246D01*
X29239156Y-102331071D01*
X28948000Y-102537590D01*
X28948000Y-103767000D01*
X28968000Y-103767000D01*
X28968000Y-104513000D01*
X28948000Y-104513000D01*
X28948000Y-104533000D01*
X28202000Y-104533000D01*
X28202000Y-104513000D01*
X28182000Y-104513000D01*
X28182000Y-103767000D01*
X28202000Y-103767000D01*
X28202000Y-102537590D01*
X28140000Y-102493613D01*
X28140000Y-98135868D01*
X28339582Y-97936286D01*
X28575000Y-97983113D01*
X29124151Y-97873880D01*
X29589698Y-97562811D01*
X29845000Y-97180725D01*
X30100302Y-97562811D01*
X30565849Y-97873880D01*
X31115000Y-97983113D01*
X31664151Y-97873880D01*
X32129698Y-97562811D01*
X32440767Y-97097264D01*
X32550000Y-96548113D01*
X32550000Y-96491887D01*
X32440767Y-95942736D01*
X32129698Y-95477189D01*
X31664151Y-95166120D01*
X31115000Y-95056887D01*
X30565849Y-95166120D01*
X30100302Y-95477189D01*
X29845000Y-95859275D01*
X29589698Y-95477189D01*
X29124151Y-95166120D01*
X28575000Y-95056887D01*
X28025849Y-95166120D01*
X27560302Y-95477189D01*
X27305000Y-95859275D01*
X27049698Y-95477189D01*
X26584151Y-95166120D01*
X26035000Y-95056887D01*
X25485849Y-95166120D01*
X25057533Y-95452312D01*
X24912091Y-95214141D01*
X24381188Y-94827152D01*
X24391716Y-94769218D01*
X23495000Y-93872502D01*
X22598284Y-94769218D01*
X22608812Y-94827152D01*
X22077909Y-95214141D01*
X21686048Y-95855841D01*
X18490000Y-95855841D01*
X18490000Y-93257373D01*
X21532204Y-93257373D01*
X21648080Y-94015173D01*
X21715146Y-94177086D01*
X22070782Y-94241716D01*
X22967498Y-93345000D01*
X24022502Y-93345000D01*
X24919218Y-94241716D01*
X25274854Y-94177086D01*
X25457796Y-93432627D01*
X25444397Y-93345000D01*
X29531887Y-93345000D01*
X29641120Y-93894151D01*
X29952189Y-94359698D01*
X30417736Y-94670767D01*
X30966887Y-94780000D01*
X31023113Y-94780000D01*
X31572264Y-94670767D01*
X32037811Y-94359698D01*
X32348880Y-93894151D01*
X32458113Y-93345000D01*
X32348880Y-92795849D01*
X32037811Y-92330302D01*
X31572264Y-92019233D01*
X31023113Y-91910000D01*
X30966887Y-91910000D01*
X30417736Y-92019233D01*
X29952189Y-92330302D01*
X29641120Y-92795849D01*
X29531887Y-93345000D01*
X25444397Y-93345000D01*
X25341920Y-92674827D01*
X25274854Y-92512914D01*
X24919218Y-92448284D01*
X24022502Y-93345000D01*
X22967498Y-93345000D01*
X22070782Y-92448284D01*
X21715146Y-92512914D01*
X21532204Y-93257373D01*
X18490000Y-93257373D01*
X18490000Y-91920782D01*
X22598284Y-91920782D01*
X23495000Y-92817498D01*
X24391716Y-91920782D01*
X24327086Y-91565146D01*
X23582627Y-91382204D01*
X22824827Y-91498080D01*
X22662914Y-91565146D01*
X22598284Y-91920782D01*
X18490000Y-91920782D01*
X18490000Y-77018894D01*
X21264284Y-77018894D01*
X21892474Y-78539229D01*
X23054653Y-79703438D01*
X24573889Y-80334280D01*
X26218894Y-80335716D01*
X27739229Y-79707526D01*
X28903438Y-78545347D01*
X29534280Y-77026111D01*
X29535716Y-75381106D01*
X28907526Y-73860771D01*
X27745347Y-72696562D01*
X27378462Y-72544218D01*
X33393284Y-72544218D01*
X33457914Y-72899854D01*
X34202373Y-73082796D01*
X34960173Y-72966920D01*
X35122086Y-72899854D01*
X35186716Y-72544218D01*
X34290000Y-71647502D01*
X33393284Y-72544218D01*
X27378462Y-72544218D01*
X26226111Y-72065720D01*
X24581106Y-72064284D01*
X23060771Y-72692474D01*
X21896562Y-73854653D01*
X21265720Y-75373889D01*
X21264284Y-77018894D01*
X18490000Y-77018894D01*
X18490000Y-76269931D01*
X19028844Y-73560979D01*
X20523727Y-71323727D01*
X20959769Y-71032373D01*
X32327204Y-71032373D01*
X32443080Y-71790173D01*
X32510146Y-71952086D01*
X32865782Y-72016716D01*
X33762498Y-71120000D01*
X32865782Y-70223284D01*
X32510146Y-70287914D01*
X32327204Y-71032373D01*
X20959769Y-71032373D01*
X22760979Y-69828844D01*
X25469931Y-69290000D01*
X33578978Y-69290000D01*
X33457914Y-69340146D01*
G36*
X77905145Y-91273179D02*
X77904855Y-91605363D01*
X77905000Y-91605714D01*
X77905000Y-104775000D01*
X77968561Y-105094541D01*
X78149566Y-105365434D01*
X79419566Y-106635434D01*
X79690459Y-106816439D01*
X79914704Y-106861044D01*
X79845250Y-107028309D01*
X79844752Y-107599187D01*
X80062757Y-108126800D01*
X80466077Y-108530824D01*
X80993309Y-108749750D01*
X81564187Y-108750248D01*
X82091800Y-108532243D01*
X82495824Y-108128923D01*
X82714750Y-107601691D01*
X82715248Y-107030813D01*
X82652933Y-106880000D01*
X84109132Y-106880000D01*
X85133764Y-107904632D01*
X85251393Y-108022466D01*
X85558179Y-108149855D01*
X85890363Y-108150145D01*
X86197372Y-108023292D01*
X86432466Y-107788607D01*
X86559855Y-107481821D01*
X86560145Y-107149637D01*
X86433292Y-106842628D01*
X86198607Y-106607534D01*
X86198256Y-106607388D01*
X85289005Y-105698137D01*
X85550509Y-105888754D01*
X85695844Y-105948929D01*
X85987000Y-105742410D01*
X85987000Y-104513000D01*
X84193000Y-104513000D01*
X84193000Y-104533000D01*
X83447000Y-104533000D01*
X83447000Y-104513000D01*
X83427000Y-104513000D01*
X83427000Y-103767000D01*
X83447000Y-103767000D01*
X83447000Y-102537590D01*
X84193000Y-102537590D01*
X84193000Y-103767000D01*
X85987000Y-103767000D01*
X85987000Y-102537590D01*
X85695844Y-102331071D01*
X85550509Y-102391246D01*
X85090000Y-102726923D01*
X84629491Y-102391246D01*
X84484156Y-102331071D01*
X84193000Y-102537590D01*
X83447000Y-102537590D01*
X83155844Y-102331071D01*
X83010509Y-102391246D01*
X82432683Y-102812438D01*
X82331890Y-102743569D01*
X82080000Y-102692560D01*
X80480000Y-102692560D01*
X80244683Y-102736838D01*
X80028559Y-102875910D01*
X79883569Y-103088110D01*
X79832560Y-103340000D01*
X79832560Y-104686692D01*
X79575000Y-104429132D01*
X79575000Y-100653795D01*
X80279716Y-100653795D01*
X80528106Y-101254943D01*
X80987637Y-101715278D01*
X81588352Y-101964716D01*
X82238795Y-101965284D01*
X82839943Y-101716894D01*
X83300278Y-101257363D01*
X83549716Y-100656648D01*
X83550284Y-100006205D01*
X83301894Y-99405057D01*
X82842363Y-98944722D01*
X82241648Y-98695284D01*
X81591205Y-98694716D01*
X80990057Y-98943106D01*
X80529722Y-99402637D01*
X80280284Y-100003352D01*
X80279716Y-100653795D01*
X79575000Y-100653795D01*
X79575000Y-97354388D01*
X79862909Y-97825859D01*
X80470509Y-98268754D01*
X80615844Y-98328929D01*
X80907000Y-98122410D01*
X80907000Y-96893000D01*
X80887000Y-96893000D01*
X80887000Y-96147000D01*
X80907000Y-96147000D01*
X80907000Y-96127000D01*
X81653000Y-96127000D01*
X81653000Y-96147000D01*
X81673000Y-96147000D01*
X81673000Y-96893000D01*
X81653000Y-96893000D01*
X81653000Y-98122410D01*
X81944156Y-98328929D01*
X82089491Y-98268754D01*
X82697091Y-97825859D01*
X82842533Y-97587688D01*
X83270849Y-97873880D01*
X83820000Y-97983113D01*
X84369151Y-97873880D01*
X84834698Y-97562811D01*
X85090000Y-97180725D01*
X85345302Y-97562811D01*
X85810849Y-97873880D01*
X86360000Y-97983113D01*
X86595418Y-97936286D01*
X86795000Y-98135868D01*
X86795000Y-102493613D01*
X86733000Y-102537590D01*
X86733000Y-103767000D01*
X86753000Y-103767000D01*
X86753000Y-104513000D01*
X86733000Y-104513000D01*
X86733000Y-105742410D01*
X86988030Y-105923304D01*
X87032082Y-105989233D01*
X87039566Y-106000434D01*
X87649805Y-106610673D01*
X87546120Y-106765849D01*
X87436887Y-107315000D01*
X87546120Y-107864151D01*
X87857189Y-108329698D01*
X88322736Y-108640767D01*
X88871887Y-108750000D01*
X88928113Y-108750000D01*
X89116633Y-108712501D01*
X93145000Y-112740868D01*
X93145000Y-127289132D01*
X88710172Y-131723960D01*
X88150000Y-131723960D01*
X87914683Y-131768238D01*
X87698559Y-131907310D01*
X87553569Y-132119510D01*
X87513645Y-132316662D01*
X87145564Y-131947939D01*
X86636702Y-131736641D01*
X86085715Y-131736160D01*
X85576485Y-131946569D01*
X85186539Y-132335836D01*
X85090024Y-132568270D01*
X84994831Y-132337885D01*
X84605564Y-131947939D01*
X84096702Y-131736641D01*
X83545715Y-131736160D01*
X83036485Y-131946569D01*
X82646539Y-132335836D01*
X82550024Y-132568270D01*
X82454831Y-132337885D01*
X82065564Y-131947939D01*
X81556702Y-131736641D01*
X81534247Y-131736621D01*
X81870434Y-131400434D01*
X81946416Y-131286719D01*
X82051439Y-131129541D01*
X82115000Y-130810000D01*
X82115000Y-128829083D01*
X82495824Y-128448923D01*
X82714750Y-127921691D01*
X82715248Y-127350813D01*
X82652933Y-127200000D01*
X84109132Y-127200000D01*
X85133764Y-128224632D01*
X85251393Y-128342466D01*
X85558179Y-128469855D01*
X85890363Y-128470145D01*
X86197372Y-128343292D01*
X86360039Y-128180907D01*
X86404566Y-128225434D01*
X86675459Y-128406439D01*
X86995000Y-128470000D01*
X87737118Y-128470000D01*
X87857189Y-128649698D01*
X88322736Y-128960767D01*
X88871887Y-129070000D01*
X88928113Y-129070000D01*
X89477264Y-128960767D01*
X89942811Y-128649698D01*
X90253880Y-128184151D01*
X90363113Y-127635000D01*
X90253880Y-127085849D01*
X89942811Y-126620302D01*
X89477264Y-126309233D01*
X88928113Y-126200000D01*
X88871887Y-126200000D01*
X88322736Y-126309233D01*
X87857189Y-126620302D01*
X87737118Y-126800000D01*
X87340868Y-126800000D01*
X86733002Y-126192134D01*
X86733002Y-126062411D01*
X87024156Y-126268929D01*
X87169491Y-126208754D01*
X87777091Y-125765859D01*
X87922533Y-125527688D01*
X88350849Y-125813880D01*
X88900000Y-125923113D01*
X89449151Y-125813880D01*
X89914698Y-125502811D01*
X90225767Y-125037264D01*
X90335000Y-124488113D01*
X90335000Y-124431887D01*
X90225767Y-123882736D01*
X89914698Y-123417189D01*
X89449151Y-123106120D01*
X88900000Y-122996887D01*
X88350849Y-123106120D01*
X87922533Y-123392312D01*
X87777091Y-123154141D01*
X87169491Y-122711246D01*
X87024156Y-122651071D01*
X86733000Y-122857590D01*
X86733000Y-124087000D01*
X86753000Y-124087000D01*
X86753000Y-124833000D01*
X86733000Y-124833000D01*
X86733000Y-124853000D01*
X85987000Y-124853000D01*
X85987000Y-124833000D01*
X85967000Y-124833000D01*
X85967000Y-124087000D01*
X85987000Y-124087000D01*
X85987000Y-122857590D01*
X85925000Y-122813613D01*
X85925000Y-118455868D01*
X86124582Y-118256286D01*
X86360000Y-118303113D01*
X86909151Y-118193880D01*
X87374698Y-117882811D01*
X87630000Y-117500725D01*
X87885302Y-117882811D01*
X88350849Y-118193880D01*
X88900000Y-118303113D01*
X89449151Y-118193880D01*
X89914698Y-117882811D01*
X90225767Y-117417264D01*
X90335000Y-116868113D01*
X90335000Y-116811887D01*
X90225767Y-116262736D01*
X89914698Y-115797189D01*
X89449151Y-115486120D01*
X88900000Y-115376887D01*
X88350849Y-115486120D01*
X87885302Y-115797189D01*
X87630000Y-116179275D01*
X87374698Y-115797189D01*
X86909151Y-115486120D01*
X86360000Y-115376887D01*
X85810849Y-115486120D01*
X85345302Y-115797189D01*
X85090000Y-116179275D01*
X84834698Y-115797189D01*
X84369151Y-115486120D01*
X83820000Y-115376887D01*
X83270849Y-115486120D01*
X82842533Y-115772312D01*
X82697091Y-115534141D01*
X82166188Y-115147152D01*
X82176716Y-115089218D01*
X81280000Y-114192502D01*
X80383284Y-115089218D01*
X80393812Y-115147152D01*
X79862909Y-115534141D01*
X79471048Y-116175841D01*
X79671172Y-116467000D01*
X80907000Y-116467000D01*
X80907000Y-116447000D01*
X81653000Y-116447000D01*
X81653000Y-116467000D01*
X81673000Y-116467000D01*
X81673000Y-117213000D01*
X81653000Y-117213000D01*
X81653000Y-118442410D01*
X81944156Y-118648929D01*
X82089491Y-118588754D01*
X82697091Y-118145859D01*
X82842533Y-117907688D01*
X83270849Y-118193880D01*
X83820000Y-118303113D01*
X84255000Y-118216586D01*
X84255000Y-122813613D01*
X84193000Y-122857590D01*
X84193000Y-124087000D01*
X84213000Y-124087000D01*
X84213000Y-124833000D01*
X84193000Y-124833000D01*
X84193000Y-124853000D01*
X83447000Y-124853000D01*
X83447000Y-124833000D01*
X83427000Y-124833000D01*
X83427000Y-124087000D01*
X83447000Y-124087000D01*
X83447000Y-122857590D01*
X83155844Y-122651071D01*
X83010509Y-122711246D01*
X82432683Y-123132438D01*
X82331890Y-123063569D01*
X82080000Y-123012560D01*
X80480000Y-123012560D01*
X80244683Y-123056838D01*
X80028559Y-123195910D01*
X79883569Y-123408110D01*
X79832560Y-123660000D01*
X79832560Y-125260000D01*
X79876838Y-125495317D01*
X79899156Y-125530000D01*
X79085868Y-125530000D01*
X77670000Y-124114132D01*
X77670000Y-117504159D01*
X79471048Y-117504159D01*
X79862909Y-118145859D01*
X80470509Y-118588754D01*
X80615844Y-118648929D01*
X80907000Y-118442410D01*
X80907000Y-117213000D01*
X79671172Y-117213000D01*
X79471048Y-117504159D01*
X77670000Y-117504159D01*
X77670000Y-113577373D01*
X79317204Y-113577373D01*
X79433080Y-114335173D01*
X79500146Y-114497086D01*
X79855782Y-114561716D01*
X80752498Y-113665000D01*
X81807502Y-113665000D01*
X82704218Y-114561716D01*
X83059854Y-114497086D01*
X83242796Y-113752627D01*
X83229397Y-113665000D01*
X87316887Y-113665000D01*
X87426120Y-114214151D01*
X87737189Y-114679698D01*
X88202736Y-114990767D01*
X88751887Y-115100000D01*
X88808113Y-115100000D01*
X89357264Y-114990767D01*
X89822811Y-114679698D01*
X90133880Y-114214151D01*
X90243113Y-113665000D01*
X90133880Y-113115849D01*
X89822811Y-112650302D01*
X89357264Y-112339233D01*
X88808113Y-112230000D01*
X88751887Y-112230000D01*
X88202736Y-112339233D01*
X87737189Y-112650302D01*
X87426120Y-113115849D01*
X87316887Y-113665000D01*
X83229397Y-113665000D01*
X83126920Y-112994827D01*
X83059854Y-112832914D01*
X82704218Y-112768284D01*
X81807502Y-113665000D01*
X80752498Y-113665000D01*
X79855782Y-112768284D01*
X79500146Y-112832914D01*
X79317204Y-113577373D01*
X77670000Y-113577373D01*
X77670000Y-112240782D01*
X80383284Y-112240782D01*
X81280000Y-113137498D01*
X82176716Y-112240782D01*
X82112086Y-111885146D01*
X81367627Y-111702204D01*
X80609827Y-111818080D01*
X80447914Y-111885146D01*
X80383284Y-112240782D01*
X77670000Y-112240782D01*
X77670000Y-97155000D01*
X77658516Y-97097264D01*
X77606440Y-96835460D01*
X77425435Y-96564566D01*
X72030868Y-91170000D01*
X77947989Y-91170000D01*
X77905145Y-91273179D01*
X77905145Y-91273179D01*
G37*
X77905145Y-91273179D02*
X77904855Y-91605363D01*
X77905000Y-91605714D01*
X77905000Y-104775000D01*
X77968561Y-105094541D01*
X78149566Y-105365434D01*
X79419566Y-106635434D01*
X79690459Y-106816439D01*
X79914704Y-106861044D01*
X79845250Y-107028309D01*
X79844752Y-107599187D01*
X80062757Y-108126800D01*
X80466077Y-108530824D01*
X80993309Y-108749750D01*
X81564187Y-108750248D01*
X82091800Y-108532243D01*
X82495824Y-108128923D01*
X82714750Y-107601691D01*
X82715248Y-107030813D01*
X82652933Y-106880000D01*
X84109132Y-106880000D01*
X85133764Y-107904632D01*
X85251393Y-108022466D01*
X85558179Y-108149855D01*
X85890363Y-108150145D01*
X86197372Y-108023292D01*
X86432466Y-107788607D01*
X86559855Y-107481821D01*
X86560145Y-107149637D01*
X86433292Y-106842628D01*
X86198607Y-106607534D01*
X86198256Y-106607388D01*
X85289005Y-105698137D01*
X85550509Y-105888754D01*
X85695844Y-105948929D01*
X85987000Y-105742410D01*
X85987000Y-104513000D01*
X84193000Y-104513000D01*
X84193000Y-104533000D01*
X83447000Y-104533000D01*
X83447000Y-104513000D01*
X83427000Y-104513000D01*
X83427000Y-103767000D01*
X83447000Y-103767000D01*
X83447000Y-102537590D01*
X84193000Y-102537590D01*
X84193000Y-103767000D01*
X85987000Y-103767000D01*
X85987000Y-102537590D01*
X85695844Y-102331071D01*
X85550509Y-102391246D01*
X85090000Y-102726923D01*
X84629491Y-102391246D01*
X84484156Y-102331071D01*
X84193000Y-102537590D01*
X83447000Y-102537590D01*
X83155844Y-102331071D01*
X83010509Y-102391246D01*
X82432683Y-102812438D01*
X82331890Y-102743569D01*
X82080000Y-102692560D01*
X80480000Y-102692560D01*
X80244683Y-102736838D01*
X80028559Y-102875910D01*
X79883569Y-103088110D01*
X79832560Y-103340000D01*
X79832560Y-104686692D01*
X79575000Y-104429132D01*
X79575000Y-100653795D01*
X80279716Y-100653795D01*
X80528106Y-101254943D01*
X80987637Y-101715278D01*
X81588352Y-101964716D01*
X82238795Y-101965284D01*
X82839943Y-101716894D01*
X83300278Y-101257363D01*
X83549716Y-100656648D01*
X83550284Y-100006205D01*
X83301894Y-99405057D01*
X82842363Y-98944722D01*
X82241648Y-98695284D01*
X81591205Y-98694716D01*
X80990057Y-98943106D01*
X80529722Y-99402637D01*
X80280284Y-100003352D01*
X80279716Y-100653795D01*
X79575000Y-100653795D01*
X79575000Y-97354388D01*
X79862909Y-97825859D01*
X80470509Y-98268754D01*
X80615844Y-98328929D01*
X80907000Y-98122410D01*
X80907000Y-96893000D01*
X80887000Y-96893000D01*
X80887000Y-96147000D01*
X80907000Y-96147000D01*
X80907000Y-96127000D01*
X81653000Y-96127000D01*
X81653000Y-96147000D01*
X81673000Y-96147000D01*
X81673000Y-96893000D01*
X81653000Y-96893000D01*
X81653000Y-98122410D01*
X81944156Y-98328929D01*
X82089491Y-98268754D01*
X82697091Y-97825859D01*
X82842533Y-97587688D01*
X83270849Y-97873880D01*
X83820000Y-97983113D01*
X84369151Y-97873880D01*
X84834698Y-97562811D01*
X85090000Y-97180725D01*
X85345302Y-97562811D01*
X85810849Y-97873880D01*
X86360000Y-97983113D01*
X86595418Y-97936286D01*
X86795000Y-98135868D01*
X86795000Y-102493613D01*
X86733000Y-102537590D01*
X86733000Y-103767000D01*
X86753000Y-103767000D01*
X86753000Y-104513000D01*
X86733000Y-104513000D01*
X86733000Y-105742410D01*
X86988030Y-105923304D01*
X87032082Y-105989233D01*
X87039566Y-106000434D01*
X87649805Y-106610673D01*
X87546120Y-106765849D01*
X87436887Y-107315000D01*
X87546120Y-107864151D01*
X87857189Y-108329698D01*
X88322736Y-108640767D01*
X88871887Y-108750000D01*
X88928113Y-108750000D01*
X89116633Y-108712501D01*
X93145000Y-112740868D01*
X93145000Y-127289132D01*
X88710172Y-131723960D01*
X88150000Y-131723960D01*
X87914683Y-131768238D01*
X87698559Y-131907310D01*
X87553569Y-132119510D01*
X87513645Y-132316662D01*
X87145564Y-131947939D01*
X86636702Y-131736641D01*
X86085715Y-131736160D01*
X85576485Y-131946569D01*
X85186539Y-132335836D01*
X85090024Y-132568270D01*
X84994831Y-132337885D01*
X84605564Y-131947939D01*
X84096702Y-131736641D01*
X83545715Y-131736160D01*
X83036485Y-131946569D01*
X82646539Y-132335836D01*
X82550024Y-132568270D01*
X82454831Y-132337885D01*
X82065564Y-131947939D01*
X81556702Y-131736641D01*
X81534247Y-131736621D01*
X81870434Y-131400434D01*
X81946416Y-131286719D01*
X82051439Y-131129541D01*
X82115000Y-130810000D01*
X82115000Y-128829083D01*
X82495824Y-128448923D01*
X82714750Y-127921691D01*
X82715248Y-127350813D01*
X82652933Y-127200000D01*
X84109132Y-127200000D01*
X85133764Y-128224632D01*
X85251393Y-128342466D01*
X85558179Y-128469855D01*
X85890363Y-128470145D01*
X86197372Y-128343292D01*
X86360039Y-128180907D01*
X86404566Y-128225434D01*
X86675459Y-128406439D01*
X86995000Y-128470000D01*
X87737118Y-128470000D01*
X87857189Y-128649698D01*
X88322736Y-128960767D01*
X88871887Y-129070000D01*
X88928113Y-129070000D01*
X89477264Y-128960767D01*
X89942811Y-128649698D01*
X90253880Y-128184151D01*
X90363113Y-127635000D01*
X90253880Y-127085849D01*
X89942811Y-126620302D01*
X89477264Y-126309233D01*
X88928113Y-126200000D01*
X88871887Y-126200000D01*
X88322736Y-126309233D01*
X87857189Y-126620302D01*
X87737118Y-126800000D01*
X87340868Y-126800000D01*
X86733002Y-126192134D01*
X86733002Y-126062411D01*
X87024156Y-126268929D01*
X87169491Y-126208754D01*
X87777091Y-125765859D01*
X87922533Y-125527688D01*
X88350849Y-125813880D01*
X88900000Y-125923113D01*
X89449151Y-125813880D01*
X89914698Y-125502811D01*
X90225767Y-125037264D01*
X90335000Y-124488113D01*
X90335000Y-124431887D01*
X90225767Y-123882736D01*
X89914698Y-123417189D01*
X89449151Y-123106120D01*
X88900000Y-122996887D01*
X88350849Y-123106120D01*
X87922533Y-123392312D01*
X87777091Y-123154141D01*
X87169491Y-122711246D01*
X87024156Y-122651071D01*
X86733000Y-122857590D01*
X86733000Y-124087000D01*
X86753000Y-124087000D01*
X86753000Y-124833000D01*
X86733000Y-124833000D01*
X86733000Y-124853000D01*
X85987000Y-124853000D01*
X85987000Y-124833000D01*
X85967000Y-124833000D01*
X85967000Y-124087000D01*
X85987000Y-124087000D01*
X85987000Y-122857590D01*
X85925000Y-122813613D01*
X85925000Y-118455868D01*
X86124582Y-118256286D01*
X86360000Y-118303113D01*
X86909151Y-118193880D01*
X87374698Y-117882811D01*
X87630000Y-117500725D01*
X87885302Y-117882811D01*
X88350849Y-118193880D01*
X88900000Y-118303113D01*
X89449151Y-118193880D01*
X89914698Y-117882811D01*
X90225767Y-117417264D01*
X90335000Y-116868113D01*
X90335000Y-116811887D01*
X90225767Y-116262736D01*
X89914698Y-115797189D01*
X89449151Y-115486120D01*
X88900000Y-115376887D01*
X88350849Y-115486120D01*
X87885302Y-115797189D01*
X87630000Y-116179275D01*
X87374698Y-115797189D01*
X86909151Y-115486120D01*
X86360000Y-115376887D01*
X85810849Y-115486120D01*
X85345302Y-115797189D01*
X85090000Y-116179275D01*
X84834698Y-115797189D01*
X84369151Y-115486120D01*
X83820000Y-115376887D01*
X83270849Y-115486120D01*
X82842533Y-115772312D01*
X82697091Y-115534141D01*
X82166188Y-115147152D01*
X82176716Y-115089218D01*
X81280000Y-114192502D01*
X80383284Y-115089218D01*
X80393812Y-115147152D01*
X79862909Y-115534141D01*
X79471048Y-116175841D01*
X79671172Y-116467000D01*
X80907000Y-116467000D01*
X80907000Y-116447000D01*
X81653000Y-116447000D01*
X81653000Y-116467000D01*
X81673000Y-116467000D01*
X81673000Y-117213000D01*
X81653000Y-117213000D01*
X81653000Y-118442410D01*
X81944156Y-118648929D01*
X82089491Y-118588754D01*
X82697091Y-118145859D01*
X82842533Y-117907688D01*
X83270849Y-118193880D01*
X83820000Y-118303113D01*
X84255000Y-118216586D01*
X84255000Y-122813613D01*
X84193000Y-122857590D01*
X84193000Y-124087000D01*
X84213000Y-124087000D01*
X84213000Y-124833000D01*
X84193000Y-124833000D01*
X84193000Y-124853000D01*
X83447000Y-124853000D01*
X83447000Y-124833000D01*
X83427000Y-124833000D01*
X83427000Y-124087000D01*
X83447000Y-124087000D01*
X83447000Y-122857590D01*
X83155844Y-122651071D01*
X83010509Y-122711246D01*
X82432683Y-123132438D01*
X82331890Y-123063569D01*
X82080000Y-123012560D01*
X80480000Y-123012560D01*
X80244683Y-123056838D01*
X80028559Y-123195910D01*
X79883569Y-123408110D01*
X79832560Y-123660000D01*
X79832560Y-125260000D01*
X79876838Y-125495317D01*
X79899156Y-125530000D01*
X79085868Y-125530000D01*
X77670000Y-124114132D01*
X77670000Y-117504159D01*
X79471048Y-117504159D01*
X79862909Y-118145859D01*
X80470509Y-118588754D01*
X80615844Y-118648929D01*
X80907000Y-118442410D01*
X80907000Y-117213000D01*
X79671172Y-117213000D01*
X79471048Y-117504159D01*
X77670000Y-117504159D01*
X77670000Y-113577373D01*
X79317204Y-113577373D01*
X79433080Y-114335173D01*
X79500146Y-114497086D01*
X79855782Y-114561716D01*
X80752498Y-113665000D01*
X81807502Y-113665000D01*
X82704218Y-114561716D01*
X83059854Y-114497086D01*
X83242796Y-113752627D01*
X83229397Y-113665000D01*
X87316887Y-113665000D01*
X87426120Y-114214151D01*
X87737189Y-114679698D01*
X88202736Y-114990767D01*
X88751887Y-115100000D01*
X88808113Y-115100000D01*
X89357264Y-114990767D01*
X89822811Y-114679698D01*
X90133880Y-114214151D01*
X90243113Y-113665000D01*
X90133880Y-113115849D01*
X89822811Y-112650302D01*
X89357264Y-112339233D01*
X88808113Y-112230000D01*
X88751887Y-112230000D01*
X88202736Y-112339233D01*
X87737189Y-112650302D01*
X87426120Y-113115849D01*
X87316887Y-113665000D01*
X83229397Y-113665000D01*
X83126920Y-112994827D01*
X83059854Y-112832914D01*
X82704218Y-112768284D01*
X81807502Y-113665000D01*
X80752498Y-113665000D01*
X79855782Y-112768284D01*
X79500146Y-112832914D01*
X79317204Y-113577373D01*
X77670000Y-113577373D01*
X77670000Y-112240782D01*
X80383284Y-112240782D01*
X81280000Y-113137498D01*
X82176716Y-112240782D01*
X82112086Y-111885146D01*
X81367627Y-111702204D01*
X80609827Y-111818080D01*
X80447914Y-111885146D01*
X80383284Y-112240782D01*
X77670000Y-112240782D01*
X77670000Y-97155000D01*
X77658516Y-97097264D01*
X77606440Y-96835460D01*
X77425435Y-96564566D01*
X72030868Y-91170000D01*
X77947989Y-91170000D01*
X77905145Y-91273179D01*
G36*
X57585000Y-124460000D02*
X57648561Y-124779541D01*
X57820766Y-125037264D01*
X57829566Y-125050434D01*
X59734566Y-126955434D01*
X60005459Y-127136439D01*
X60325000Y-127200000D01*
X60856833Y-127200000D01*
X60795250Y-127348309D01*
X60794752Y-127919187D01*
X61012757Y-128446800D01*
X61324265Y-128758852D01*
X61275460Y-128768560D01*
X61004566Y-128949566D01*
X60369566Y-129584566D01*
X60188561Y-129855459D01*
X60125000Y-130175000D01*
X60125000Y-130699132D01*
X53540000Y-124114132D01*
X53540000Y-120650729D01*
X53540145Y-120484637D01*
X53413292Y-120177628D01*
X53178607Y-119942534D01*
X52871821Y-119815145D01*
X52815772Y-119815096D01*
X55835435Y-116795434D01*
X56016440Y-116524540D01*
X56080000Y-116205000D01*
X56080000Y-114300729D01*
X56080145Y-114134637D01*
X55953292Y-113827628D01*
X55718607Y-113592534D01*
X55411821Y-113465145D01*
X55079637Y-113464855D01*
X54772628Y-113591708D01*
X54537534Y-113826393D01*
X54410145Y-114133179D01*
X54409855Y-114465363D01*
X54410000Y-114465714D01*
X54410000Y-115859131D01*
X48939566Y-121329566D01*
X48758561Y-121600459D01*
X48695000Y-121920000D01*
X48695000Y-123297118D01*
X48552533Y-123392312D01*
X48407091Y-123154141D01*
X47799491Y-122711246D01*
X47654156Y-122651071D01*
X47363000Y-122857590D01*
X47363000Y-124087000D01*
X47383000Y-124087000D01*
X47383000Y-124833000D01*
X47363000Y-124833000D01*
X47363000Y-124853000D01*
X46658868Y-124853000D01*
X46597000Y-124791132D01*
X46597000Y-124087000D01*
X46617000Y-124087000D01*
X46617000Y-122857590D01*
X46555000Y-122813613D01*
X46555000Y-118455868D01*
X46754582Y-118256286D01*
X46990000Y-118303113D01*
X47539151Y-118193880D01*
X48004698Y-117882811D01*
X48260000Y-117500725D01*
X48515302Y-117882811D01*
X48980849Y-118193880D01*
X49530000Y-118303113D01*
X50079151Y-118193880D01*
X50544698Y-117882811D01*
X50855767Y-117417264D01*
X50965000Y-116868113D01*
X50965000Y-116811887D01*
X50855767Y-116262736D01*
X50544698Y-115797189D01*
X50079151Y-115486120D01*
X49530000Y-115376887D01*
X48980849Y-115486120D01*
X48515302Y-115797189D01*
X48260000Y-116179275D01*
X48004698Y-115797189D01*
X47539151Y-115486120D01*
X46990000Y-115376887D01*
X46440849Y-115486120D01*
X45975302Y-115797189D01*
X45720000Y-116179275D01*
X45464698Y-115797189D01*
X44999151Y-115486120D01*
X44450000Y-115376887D01*
X43900849Y-115486120D01*
X43472533Y-115772312D01*
X43327091Y-115534141D01*
X42796188Y-115147152D01*
X42806716Y-115089218D01*
X41910000Y-114192502D01*
X41013284Y-115089218D01*
X41023812Y-115147152D01*
X40492909Y-115534141D01*
X40101048Y-116175841D01*
X40301172Y-116467000D01*
X41537000Y-116467000D01*
X41537000Y-116447000D01*
X42283000Y-116447000D01*
X42283000Y-116467000D01*
X42303000Y-116467000D01*
X42303000Y-117213000D01*
X42283000Y-117213000D01*
X42283000Y-118442410D01*
X42574156Y-118648929D01*
X42719491Y-118588754D01*
X43327091Y-118145859D01*
X43472533Y-117907688D01*
X43900849Y-118193880D01*
X44450000Y-118303113D01*
X44885000Y-118216586D01*
X44885000Y-122813613D01*
X44823000Y-122857590D01*
X44823000Y-124087000D01*
X44843000Y-124087000D01*
X44843000Y-124833000D01*
X44823000Y-124833000D01*
X44823000Y-126062410D01*
X45114156Y-126268929D01*
X45259491Y-126208754D01*
X45487028Y-126042896D01*
X47669566Y-128225434D01*
X47722997Y-128261135D01*
X47034566Y-128949566D01*
X46853561Y-129220459D01*
X46790000Y-129540000D01*
X46790000Y-131445000D01*
X46845489Y-131723960D01*
X46544828Y-131723960D01*
X44405434Y-129584566D01*
X44253907Y-129483319D01*
X44134541Y-129403561D01*
X43815000Y-129340000D01*
X40350868Y-129340000D01*
X38930055Y-127919187D01*
X40474752Y-127919187D01*
X40692757Y-128446800D01*
X41096077Y-128850824D01*
X41623309Y-129069750D01*
X42194187Y-129070248D01*
X42721800Y-128852243D01*
X43125824Y-128448923D01*
X43344750Y-127921691D01*
X43345248Y-127350813D01*
X43127243Y-126823200D01*
X42723923Y-126419176D01*
X42196691Y-126200250D01*
X41625813Y-126199752D01*
X41098200Y-126417757D01*
X40694176Y-126821077D01*
X40475250Y-127348309D01*
X40474752Y-127919187D01*
X38930055Y-127919187D01*
X38300000Y-127289132D01*
X38300000Y-123660000D01*
X40462560Y-123660000D01*
X40462560Y-125260000D01*
X40506838Y-125495317D01*
X40645910Y-125711441D01*
X40858110Y-125856431D01*
X41110000Y-125907440D01*
X42710000Y-125907440D01*
X42945317Y-125863162D01*
X43062739Y-125787603D01*
X43640509Y-126208754D01*
X43785844Y-126268929D01*
X44077000Y-126062410D01*
X44077000Y-124833000D01*
X44057000Y-124833000D01*
X44057000Y-124087000D01*
X44077000Y-124087000D01*
X44077000Y-122857590D01*
X43785844Y-122651071D01*
X43640509Y-122711246D01*
X43062683Y-123132438D01*
X42961890Y-123063569D01*
X42710000Y-123012560D01*
X41110000Y-123012560D01*
X40874683Y-123056838D01*
X40658559Y-123195910D01*
X40513569Y-123408110D01*
X40462560Y-123660000D01*
X38300000Y-123660000D01*
X38300000Y-117504159D01*
X40101048Y-117504159D01*
X40492909Y-118145859D01*
X41100509Y-118588754D01*
X41245844Y-118648929D01*
X41537000Y-118442410D01*
X41537000Y-117213000D01*
X40301172Y-117213000D01*
X40101048Y-117504159D01*
X38300000Y-117504159D01*
X38300000Y-113665000D01*
X38282570Y-113577373D01*
X39947204Y-113577373D01*
X40063080Y-114335173D01*
X40130146Y-114497086D01*
X40485782Y-114561716D01*
X41382498Y-113665000D01*
X42437502Y-113665000D01*
X43334218Y-114561716D01*
X43689854Y-114497086D01*
X43872796Y-113752627D01*
X43859397Y-113665000D01*
X47946887Y-113665000D01*
X48056120Y-114214151D01*
X48367189Y-114679698D01*
X48832736Y-114990767D01*
X49381887Y-115100000D01*
X49438113Y-115100000D01*
X49987264Y-114990767D01*
X50452811Y-114679698D01*
X50763880Y-114214151D01*
X50873113Y-113665000D01*
X50763880Y-113115849D01*
X50452811Y-112650302D01*
X49987264Y-112339233D01*
X49438113Y-112230000D01*
X49381887Y-112230000D01*
X48832736Y-112339233D01*
X48367189Y-112650302D01*
X48056120Y-113115849D01*
X47946887Y-113665000D01*
X43859397Y-113665000D01*
X43756920Y-112994827D01*
X43689854Y-112832914D01*
X43334218Y-112768284D01*
X42437502Y-113665000D01*
X41382498Y-113665000D01*
X40485782Y-112768284D01*
X40130146Y-112832914D01*
X39947204Y-113577373D01*
X38282570Y-113577373D01*
X38236439Y-113345459D01*
X38055434Y-113074566D01*
X37221650Y-112240782D01*
X41013284Y-112240782D01*
X41910000Y-113137498D01*
X42806716Y-112240782D01*
X42742086Y-111885146D01*
X41997627Y-111702204D01*
X41239827Y-111818080D01*
X41077914Y-111885146D01*
X41013284Y-112240782D01*
X37221650Y-112240782D01*
X32580055Y-107599187D01*
X41109752Y-107599187D01*
X41327757Y-108126800D01*
X41731077Y-108530824D01*
X42258309Y-108749750D01*
X42829187Y-108750248D01*
X43356800Y-108532243D01*
X43760824Y-108128923D01*
X43979750Y-107601691D01*
X43980248Y-107030813D01*
X43762243Y-106503200D01*
X43358923Y-106099176D01*
X42831691Y-105880250D01*
X42260813Y-105879752D01*
X41733200Y-106097757D01*
X41329176Y-106501077D01*
X41110250Y-107028309D01*
X41109752Y-107599187D01*
X32580055Y-107599187D01*
X32531286Y-107550418D01*
X32578113Y-107315000D01*
X32468880Y-106765849D01*
X32157811Y-106300302D01*
X31692264Y-105989233D01*
X31143113Y-105880000D01*
X31086887Y-105880000D01*
X30537736Y-105989233D01*
X30072189Y-106300302D01*
X29952118Y-106480000D01*
X29555868Y-106480000D01*
X28948002Y-105872134D01*
X28948002Y-105742411D01*
X29239156Y-105948929D01*
X29384491Y-105888754D01*
X29992091Y-105445859D01*
X30137533Y-105207688D01*
X30565849Y-105493880D01*
X31115000Y-105603113D01*
X31664151Y-105493880D01*
X32129698Y-105182811D01*
X32440767Y-104717264D01*
X32550000Y-104168113D01*
X32550000Y-104111887D01*
X32440767Y-103562736D01*
X32359603Y-103441265D01*
X32460868Y-103340000D01*
X41097560Y-103340000D01*
X41097560Y-104940000D01*
X41141838Y-105175317D01*
X41280910Y-105391441D01*
X41493110Y-105536431D01*
X41745000Y-105587440D01*
X43345000Y-105587440D01*
X43580317Y-105543162D01*
X43697739Y-105467603D01*
X44275509Y-105888754D01*
X44420844Y-105948929D01*
X44712000Y-105742410D01*
X44712000Y-104513000D01*
X44692000Y-104513000D01*
X44692000Y-103767000D01*
X44712000Y-103767000D01*
X44712000Y-102537590D01*
X44420844Y-102331071D01*
X44275509Y-102391246D01*
X43697683Y-102812438D01*
X43596890Y-102743569D01*
X43345000Y-102692560D01*
X41745000Y-102692560D01*
X41509683Y-102736838D01*
X41293559Y-102875910D01*
X41148569Y-103088110D01*
X41097560Y-103340000D01*
X32460868Y-103340000D01*
X35515434Y-100285434D01*
X35696440Y-100014540D01*
X35760000Y-99695000D01*
X35760000Y-97500868D01*
X36076709Y-97184159D01*
X40736048Y-97184159D01*
X41127909Y-97825859D01*
X41735509Y-98268754D01*
X41880844Y-98328929D01*
X42172000Y-98122410D01*
X42172000Y-96893000D01*
X40936172Y-96893000D01*
X40736048Y-97184159D01*
X36076709Y-97184159D01*
X37405027Y-95855841D01*
X40736048Y-95855841D01*
X40936172Y-96147000D01*
X42172000Y-96147000D01*
X42172000Y-96127000D01*
X42918000Y-96127000D01*
X42918000Y-96147000D01*
X42938000Y-96147000D01*
X42938000Y-96893000D01*
X42918000Y-96893000D01*
X42918000Y-98122410D01*
X43209156Y-98328929D01*
X43354491Y-98268754D01*
X43962091Y-97825859D01*
X44107533Y-97587688D01*
X44535849Y-97873880D01*
X45085000Y-97983113D01*
X45520000Y-97896586D01*
X45520000Y-102493613D01*
X45458000Y-102537590D01*
X45458000Y-103767000D01*
X45478000Y-103767000D01*
X45478000Y-104513000D01*
X45458000Y-104513000D01*
X45458000Y-105742410D01*
X45713030Y-105923304D01*
X45757082Y-105989233D01*
X45764566Y-106000434D01*
X47669566Y-107905434D01*
X47940459Y-108086439D01*
X48260000Y-108150000D01*
X49002118Y-108150000D01*
X49122189Y-108329698D01*
X49330000Y-108468553D01*
X49330000Y-110490000D01*
X49393561Y-110809541D01*
X49555372Y-111051708D01*
X49574566Y-111080434D01*
X52113764Y-113619632D01*
X52231393Y-113737466D01*
X52538179Y-113864855D01*
X52870363Y-113865145D01*
X53177372Y-113738292D01*
X53412466Y-113503607D01*
X53539855Y-113196821D01*
X53540145Y-112864637D01*
X53413292Y-112557628D01*
X53178607Y-112322534D01*
X53178256Y-112322388D01*
X51000000Y-110144132D01*
X51000000Y-108468553D01*
X51207811Y-108329698D01*
X51518880Y-107864151D01*
X51628113Y-107315000D01*
X51518880Y-106765849D01*
X51207811Y-106300302D01*
X50742264Y-105989233D01*
X50193113Y-105880000D01*
X50136887Y-105880000D01*
X49587736Y-105989233D01*
X49122189Y-106300302D01*
X49002118Y-106480000D01*
X48605868Y-106480000D01*
X47998002Y-105872134D01*
X47998002Y-105742411D01*
X48289156Y-105948929D01*
X48434491Y-105888754D01*
X49042091Y-105445859D01*
X49187533Y-105207688D01*
X49615849Y-105493880D01*
X50165000Y-105603113D01*
X50714151Y-105493880D01*
X51179698Y-105182811D01*
X51490767Y-104717264D01*
X51600000Y-104168113D01*
X51600000Y-104111887D01*
X51490767Y-103562736D01*
X51179698Y-103097189D01*
X50714151Y-102786120D01*
X50165000Y-102676887D01*
X49615849Y-102786120D01*
X49187533Y-103072312D01*
X49042091Y-102834141D01*
X48434491Y-102391246D01*
X48289156Y-102331071D01*
X47998000Y-102537590D01*
X47998000Y-103767000D01*
X48018000Y-103767000D01*
X48018000Y-104513000D01*
X47998000Y-104513000D01*
X47998000Y-104533000D01*
X47252000Y-104533000D01*
X47252000Y-104513000D01*
X47232000Y-104513000D01*
X47232000Y-103767000D01*
X47252000Y-103767000D01*
X47252000Y-102537590D01*
X47190000Y-102493613D01*
X47190000Y-98135868D01*
X47389582Y-97936286D01*
X47625000Y-97983113D01*
X48174151Y-97873880D01*
X48639698Y-97562811D01*
X48895000Y-97180725D01*
X49150302Y-97562811D01*
X49615849Y-97873880D01*
X50165000Y-97983113D01*
X50714151Y-97873880D01*
X51179698Y-97562811D01*
X51490767Y-97097264D01*
X51600000Y-96548113D01*
X51600000Y-96491887D01*
X51490767Y-95942736D01*
X51179698Y-95477189D01*
X50714151Y-95166120D01*
X50165000Y-95056887D01*
X49615849Y-95166120D01*
X49150302Y-95477189D01*
X48895000Y-95859275D01*
X48639698Y-95477189D01*
X48174151Y-95166120D01*
X47625000Y-95056887D01*
X47075849Y-95166120D01*
X46610302Y-95477189D01*
X46355000Y-95859275D01*
X46099698Y-95477189D01*
X45634151Y-95166120D01*
X45085000Y-95056887D01*
X44535849Y-95166120D01*
X44107533Y-95452312D01*
X43962091Y-95214141D01*
X43431188Y-94827152D01*
X43441716Y-94769218D01*
X42545000Y-93872502D01*
X41648284Y-94769218D01*
X41658812Y-94827152D01*
X41127909Y-95214141D01*
X40736048Y-95855841D01*
X37405027Y-95855841D01*
X40966682Y-92294186D01*
X41120780Y-92448284D01*
X40765146Y-92512914D01*
X40582204Y-93257373D01*
X40698080Y-94015173D01*
X40765146Y-94177086D01*
X41120782Y-94241716D01*
X42017498Y-93345000D01*
X43072502Y-93345000D01*
X43969218Y-94241716D01*
X44324854Y-94177086D01*
X44507796Y-93432627D01*
X44494397Y-93345000D01*
X48581887Y-93345000D01*
X48691120Y-93894151D01*
X49002189Y-94359698D01*
X49467736Y-94670767D01*
X50016887Y-94780000D01*
X50073113Y-94780000D01*
X50622264Y-94670767D01*
X51087811Y-94359698D01*
X51398880Y-93894151D01*
X51508113Y-93345000D01*
X51398880Y-92795849D01*
X51087811Y-92330302D01*
X50622264Y-92019233D01*
X50073113Y-91910000D01*
X50016887Y-91910000D01*
X49467736Y-92019233D01*
X49002189Y-92330302D01*
X48691120Y-92795849D01*
X48581887Y-93345000D01*
X44494397Y-93345000D01*
X44391920Y-92674827D01*
X44324854Y-92512914D01*
X43969218Y-92448284D01*
X43072502Y-93345000D01*
X42017498Y-93345000D01*
X42003356Y-93330858D01*
X42530858Y-92803356D01*
X42545000Y-92817498D01*
X43441716Y-91920782D01*
X43377086Y-91565146D01*
X42632627Y-91382204D01*
X41874827Y-91498080D01*
X41712914Y-91565146D01*
X41648284Y-91920780D01*
X41494186Y-91766682D01*
X42255868Y-91005000D01*
X53340000Y-91005000D01*
X53514131Y-90970363D01*
X55044855Y-90970363D01*
X55045000Y-90970714D01*
X55045000Y-111759271D01*
X55044855Y-111925363D01*
X55171708Y-112232372D01*
X55406393Y-112467466D01*
X55713179Y-112594855D01*
X56045363Y-112595145D01*
X56352372Y-112468292D01*
X56587466Y-112233607D01*
X56714855Y-111926821D01*
X56715145Y-111594637D01*
X56715000Y-111594286D01*
X56715000Y-90805729D01*
X56715145Y-90639637D01*
X56588292Y-90332628D01*
X56353607Y-90097534D01*
X56046821Y-89970145D01*
X55714637Y-89969855D01*
X55407628Y-90096708D01*
X55172534Y-90331393D01*
X55045145Y-90638179D01*
X55044855Y-90970363D01*
X53514131Y-90970363D01*
X53659541Y-90941439D01*
X53930434Y-90760434D01*
X56896089Y-87794779D01*
X57434187Y-87795248D01*
X57585000Y-87732933D01*
X57585000Y-124460000D01*
X57585000Y-124460000D01*
G37*
X57585000Y-124460000D02*
X57648561Y-124779541D01*
X57820766Y-125037264D01*
X57829566Y-125050434D01*
X59734566Y-126955434D01*
X60005459Y-127136439D01*
X60325000Y-127200000D01*
X60856833Y-127200000D01*
X60795250Y-127348309D01*
X60794752Y-127919187D01*
X61012757Y-128446800D01*
X61324265Y-128758852D01*
X61275460Y-128768560D01*
X61004566Y-128949566D01*
X60369566Y-129584566D01*
X60188561Y-129855459D01*
X60125000Y-130175000D01*
X60125000Y-130699132D01*
X53540000Y-124114132D01*
X53540000Y-120650729D01*
X53540145Y-120484637D01*
X53413292Y-120177628D01*
X53178607Y-119942534D01*
X52871821Y-119815145D01*
X52815772Y-119815096D01*
X55835435Y-116795434D01*
X56016440Y-116524540D01*
X56080000Y-116205000D01*
X56080000Y-114300729D01*
X56080145Y-114134637D01*
X55953292Y-113827628D01*
X55718607Y-113592534D01*
X55411821Y-113465145D01*
X55079637Y-113464855D01*
X54772628Y-113591708D01*
X54537534Y-113826393D01*
X54410145Y-114133179D01*
X54409855Y-114465363D01*
X54410000Y-114465714D01*
X54410000Y-115859131D01*
X48939566Y-121329566D01*
X48758561Y-121600459D01*
X48695000Y-121920000D01*
X48695000Y-123297118D01*
X48552533Y-123392312D01*
X48407091Y-123154141D01*
X47799491Y-122711246D01*
X47654156Y-122651071D01*
X47363000Y-122857590D01*
X47363000Y-124087000D01*
X47383000Y-124087000D01*
X47383000Y-124833000D01*
X47363000Y-124833000D01*
X47363000Y-124853000D01*
X46658868Y-124853000D01*
X46597000Y-124791132D01*
X46597000Y-124087000D01*
X46617000Y-124087000D01*
X46617000Y-122857590D01*
X46555000Y-122813613D01*
X46555000Y-118455868D01*
X46754582Y-118256286D01*
X46990000Y-118303113D01*
X47539151Y-118193880D01*
X48004698Y-117882811D01*
X48260000Y-117500725D01*
X48515302Y-117882811D01*
X48980849Y-118193880D01*
X49530000Y-118303113D01*
X50079151Y-118193880D01*
X50544698Y-117882811D01*
X50855767Y-117417264D01*
X50965000Y-116868113D01*
X50965000Y-116811887D01*
X50855767Y-116262736D01*
X50544698Y-115797189D01*
X50079151Y-115486120D01*
X49530000Y-115376887D01*
X48980849Y-115486120D01*
X48515302Y-115797189D01*
X48260000Y-116179275D01*
X48004698Y-115797189D01*
X47539151Y-115486120D01*
X46990000Y-115376887D01*
X46440849Y-115486120D01*
X45975302Y-115797189D01*
X45720000Y-116179275D01*
X45464698Y-115797189D01*
X44999151Y-115486120D01*
X44450000Y-115376887D01*
X43900849Y-115486120D01*
X43472533Y-115772312D01*
X43327091Y-115534141D01*
X42796188Y-115147152D01*
X42806716Y-115089218D01*
X41910000Y-114192502D01*
X41013284Y-115089218D01*
X41023812Y-115147152D01*
X40492909Y-115534141D01*
X40101048Y-116175841D01*
X40301172Y-116467000D01*
X41537000Y-116467000D01*
X41537000Y-116447000D01*
X42283000Y-116447000D01*
X42283000Y-116467000D01*
X42303000Y-116467000D01*
X42303000Y-117213000D01*
X42283000Y-117213000D01*
X42283000Y-118442410D01*
X42574156Y-118648929D01*
X42719491Y-118588754D01*
X43327091Y-118145859D01*
X43472533Y-117907688D01*
X43900849Y-118193880D01*
X44450000Y-118303113D01*
X44885000Y-118216586D01*
X44885000Y-122813613D01*
X44823000Y-122857590D01*
X44823000Y-124087000D01*
X44843000Y-124087000D01*
X44843000Y-124833000D01*
X44823000Y-124833000D01*
X44823000Y-126062410D01*
X45114156Y-126268929D01*
X45259491Y-126208754D01*
X45487028Y-126042896D01*
X47669566Y-128225434D01*
X47722997Y-128261135D01*
X47034566Y-128949566D01*
X46853561Y-129220459D01*
X46790000Y-129540000D01*
X46790000Y-131445000D01*
X46845489Y-131723960D01*
X46544828Y-131723960D01*
X44405434Y-129584566D01*
X44253907Y-129483319D01*
X44134541Y-129403561D01*
X43815000Y-129340000D01*
X40350868Y-129340000D01*
X38930055Y-127919187D01*
X40474752Y-127919187D01*
X40692757Y-128446800D01*
X41096077Y-128850824D01*
X41623309Y-129069750D01*
X42194187Y-129070248D01*
X42721800Y-128852243D01*
X43125824Y-128448923D01*
X43344750Y-127921691D01*
X43345248Y-127350813D01*
X43127243Y-126823200D01*
X42723923Y-126419176D01*
X42196691Y-126200250D01*
X41625813Y-126199752D01*
X41098200Y-126417757D01*
X40694176Y-126821077D01*
X40475250Y-127348309D01*
X40474752Y-127919187D01*
X38930055Y-127919187D01*
X38300000Y-127289132D01*
X38300000Y-123660000D01*
X40462560Y-123660000D01*
X40462560Y-125260000D01*
X40506838Y-125495317D01*
X40645910Y-125711441D01*
X40858110Y-125856431D01*
X41110000Y-125907440D01*
X42710000Y-125907440D01*
X42945317Y-125863162D01*
X43062739Y-125787603D01*
X43640509Y-126208754D01*
X43785844Y-126268929D01*
X44077000Y-126062410D01*
X44077000Y-124833000D01*
X44057000Y-124833000D01*
X44057000Y-124087000D01*
X44077000Y-124087000D01*
X44077000Y-122857590D01*
X43785844Y-122651071D01*
X43640509Y-122711246D01*
X43062683Y-123132438D01*
X42961890Y-123063569D01*
X42710000Y-123012560D01*
X41110000Y-123012560D01*
X40874683Y-123056838D01*
X40658559Y-123195910D01*
X40513569Y-123408110D01*
X40462560Y-123660000D01*
X38300000Y-123660000D01*
X38300000Y-117504159D01*
X40101048Y-117504159D01*
X40492909Y-118145859D01*
X41100509Y-118588754D01*
X41245844Y-118648929D01*
X41537000Y-118442410D01*
X41537000Y-117213000D01*
X40301172Y-117213000D01*
X40101048Y-117504159D01*
X38300000Y-117504159D01*
X38300000Y-113665000D01*
X38282570Y-113577373D01*
X39947204Y-113577373D01*
X40063080Y-114335173D01*
X40130146Y-114497086D01*
X40485782Y-114561716D01*
X41382498Y-113665000D01*
X42437502Y-113665000D01*
X43334218Y-114561716D01*
X43689854Y-114497086D01*
X43872796Y-113752627D01*
X43859397Y-113665000D01*
X47946887Y-113665000D01*
X48056120Y-114214151D01*
X48367189Y-114679698D01*
X48832736Y-114990767D01*
X49381887Y-115100000D01*
X49438113Y-115100000D01*
X49987264Y-114990767D01*
X50452811Y-114679698D01*
X50763880Y-114214151D01*
X50873113Y-113665000D01*
X50763880Y-113115849D01*
X50452811Y-112650302D01*
X49987264Y-112339233D01*
X49438113Y-112230000D01*
X49381887Y-112230000D01*
X48832736Y-112339233D01*
X48367189Y-112650302D01*
X48056120Y-113115849D01*
X47946887Y-113665000D01*
X43859397Y-113665000D01*
X43756920Y-112994827D01*
X43689854Y-112832914D01*
X43334218Y-112768284D01*
X42437502Y-113665000D01*
X41382498Y-113665000D01*
X40485782Y-112768284D01*
X40130146Y-112832914D01*
X39947204Y-113577373D01*
X38282570Y-113577373D01*
X38236439Y-113345459D01*
X38055434Y-113074566D01*
X37221650Y-112240782D01*
X41013284Y-112240782D01*
X41910000Y-113137498D01*
X42806716Y-112240782D01*
X42742086Y-111885146D01*
X41997627Y-111702204D01*
X41239827Y-111818080D01*
X41077914Y-111885146D01*
X41013284Y-112240782D01*
X37221650Y-112240782D01*
X32580055Y-107599187D01*
X41109752Y-107599187D01*
X41327757Y-108126800D01*
X41731077Y-108530824D01*
X42258309Y-108749750D01*
X42829187Y-108750248D01*
X43356800Y-108532243D01*
X43760824Y-108128923D01*
X43979750Y-107601691D01*
X43980248Y-107030813D01*
X43762243Y-106503200D01*
X43358923Y-106099176D01*
X42831691Y-105880250D01*
X42260813Y-105879752D01*
X41733200Y-106097757D01*
X41329176Y-106501077D01*
X41110250Y-107028309D01*
X41109752Y-107599187D01*
X32580055Y-107599187D01*
X32531286Y-107550418D01*
X32578113Y-107315000D01*
X32468880Y-106765849D01*
X32157811Y-106300302D01*
X31692264Y-105989233D01*
X31143113Y-105880000D01*
X31086887Y-105880000D01*
X30537736Y-105989233D01*
X30072189Y-106300302D01*
X29952118Y-106480000D01*
X29555868Y-106480000D01*
X28948002Y-105872134D01*
X28948002Y-105742411D01*
X29239156Y-105948929D01*
X29384491Y-105888754D01*
X29992091Y-105445859D01*
X30137533Y-105207688D01*
X30565849Y-105493880D01*
X31115000Y-105603113D01*
X31664151Y-105493880D01*
X32129698Y-105182811D01*
X32440767Y-104717264D01*
X32550000Y-104168113D01*
X32550000Y-104111887D01*
X32440767Y-103562736D01*
X32359603Y-103441265D01*
X32460868Y-103340000D01*
X41097560Y-103340000D01*
X41097560Y-104940000D01*
X41141838Y-105175317D01*
X41280910Y-105391441D01*
X41493110Y-105536431D01*
X41745000Y-105587440D01*
X43345000Y-105587440D01*
X43580317Y-105543162D01*
X43697739Y-105467603D01*
X44275509Y-105888754D01*
X44420844Y-105948929D01*
X44712000Y-105742410D01*
X44712000Y-104513000D01*
X44692000Y-104513000D01*
X44692000Y-103767000D01*
X44712000Y-103767000D01*
X44712000Y-102537590D01*
X44420844Y-102331071D01*
X44275509Y-102391246D01*
X43697683Y-102812438D01*
X43596890Y-102743569D01*
X43345000Y-102692560D01*
X41745000Y-102692560D01*
X41509683Y-102736838D01*
X41293559Y-102875910D01*
X41148569Y-103088110D01*
X41097560Y-103340000D01*
X32460868Y-103340000D01*
X35515434Y-100285434D01*
X35696440Y-100014540D01*
X35760000Y-99695000D01*
X35760000Y-97500868D01*
X36076709Y-97184159D01*
X40736048Y-97184159D01*
X41127909Y-97825859D01*
X41735509Y-98268754D01*
X41880844Y-98328929D01*
X42172000Y-98122410D01*
X42172000Y-96893000D01*
X40936172Y-96893000D01*
X40736048Y-97184159D01*
X36076709Y-97184159D01*
X37405027Y-95855841D01*
X40736048Y-95855841D01*
X40936172Y-96147000D01*
X42172000Y-96147000D01*
X42172000Y-96127000D01*
X42918000Y-96127000D01*
X42918000Y-96147000D01*
X42938000Y-96147000D01*
X42938000Y-96893000D01*
X42918000Y-96893000D01*
X42918000Y-98122410D01*
X43209156Y-98328929D01*
X43354491Y-98268754D01*
X43962091Y-97825859D01*
X44107533Y-97587688D01*
X44535849Y-97873880D01*
X45085000Y-97983113D01*
X45520000Y-97896586D01*
X45520000Y-102493613D01*
X45458000Y-102537590D01*
X45458000Y-103767000D01*
X45478000Y-103767000D01*
X45478000Y-104513000D01*
X45458000Y-104513000D01*
X45458000Y-105742410D01*
X45713030Y-105923304D01*
X45757082Y-105989233D01*
X45764566Y-106000434D01*
X47669566Y-107905434D01*
X47940459Y-108086439D01*
X48260000Y-108150000D01*
X49002118Y-108150000D01*
X49122189Y-108329698D01*
X49330000Y-108468553D01*
X49330000Y-110490000D01*
X49393561Y-110809541D01*
X49555372Y-111051708D01*
X49574566Y-111080434D01*
X52113764Y-113619632D01*
X52231393Y-113737466D01*
X52538179Y-113864855D01*
X52870363Y-113865145D01*
X53177372Y-113738292D01*
X53412466Y-113503607D01*
X53539855Y-113196821D01*
X53540145Y-112864637D01*
X53413292Y-112557628D01*
X53178607Y-112322534D01*
X53178256Y-112322388D01*
X51000000Y-110144132D01*
X51000000Y-108468553D01*
X51207811Y-108329698D01*
X51518880Y-107864151D01*
X51628113Y-107315000D01*
X51518880Y-106765849D01*
X51207811Y-106300302D01*
X50742264Y-105989233D01*
X50193113Y-105880000D01*
X50136887Y-105880000D01*
X49587736Y-105989233D01*
X49122189Y-106300302D01*
X49002118Y-106480000D01*
X48605868Y-106480000D01*
X47998002Y-105872134D01*
X47998002Y-105742411D01*
X48289156Y-105948929D01*
X48434491Y-105888754D01*
X49042091Y-105445859D01*
X49187533Y-105207688D01*
X49615849Y-105493880D01*
X50165000Y-105603113D01*
X50714151Y-105493880D01*
X51179698Y-105182811D01*
X51490767Y-104717264D01*
X51600000Y-104168113D01*
X51600000Y-104111887D01*
X51490767Y-103562736D01*
X51179698Y-103097189D01*
X50714151Y-102786120D01*
X50165000Y-102676887D01*
X49615849Y-102786120D01*
X49187533Y-103072312D01*
X49042091Y-102834141D01*
X48434491Y-102391246D01*
X48289156Y-102331071D01*
X47998000Y-102537590D01*
X47998000Y-103767000D01*
X48018000Y-103767000D01*
X48018000Y-104513000D01*
X47998000Y-104513000D01*
X47998000Y-104533000D01*
X47252000Y-104533000D01*
X47252000Y-104513000D01*
X47232000Y-104513000D01*
X47232000Y-103767000D01*
X47252000Y-103767000D01*
X47252000Y-102537590D01*
X47190000Y-102493613D01*
X47190000Y-98135868D01*
X47389582Y-97936286D01*
X47625000Y-97983113D01*
X48174151Y-97873880D01*
X48639698Y-97562811D01*
X48895000Y-97180725D01*
X49150302Y-97562811D01*
X49615849Y-97873880D01*
X50165000Y-97983113D01*
X50714151Y-97873880D01*
X51179698Y-97562811D01*
X51490767Y-97097264D01*
X51600000Y-96548113D01*
X51600000Y-96491887D01*
X51490767Y-95942736D01*
X51179698Y-95477189D01*
X50714151Y-95166120D01*
X50165000Y-95056887D01*
X49615849Y-95166120D01*
X49150302Y-95477189D01*
X48895000Y-95859275D01*
X48639698Y-95477189D01*
X48174151Y-95166120D01*
X47625000Y-95056887D01*
X47075849Y-95166120D01*
X46610302Y-95477189D01*
X46355000Y-95859275D01*
X46099698Y-95477189D01*
X45634151Y-95166120D01*
X45085000Y-95056887D01*
X44535849Y-95166120D01*
X44107533Y-95452312D01*
X43962091Y-95214141D01*
X43431188Y-94827152D01*
X43441716Y-94769218D01*
X42545000Y-93872502D01*
X41648284Y-94769218D01*
X41658812Y-94827152D01*
X41127909Y-95214141D01*
X40736048Y-95855841D01*
X37405027Y-95855841D01*
X40966682Y-92294186D01*
X41120780Y-92448284D01*
X40765146Y-92512914D01*
X40582204Y-93257373D01*
X40698080Y-94015173D01*
X40765146Y-94177086D01*
X41120782Y-94241716D01*
X42017498Y-93345000D01*
X43072502Y-93345000D01*
X43969218Y-94241716D01*
X44324854Y-94177086D01*
X44507796Y-93432627D01*
X44494397Y-93345000D01*
X48581887Y-93345000D01*
X48691120Y-93894151D01*
X49002189Y-94359698D01*
X49467736Y-94670767D01*
X50016887Y-94780000D01*
X50073113Y-94780000D01*
X50622264Y-94670767D01*
X51087811Y-94359698D01*
X51398880Y-93894151D01*
X51508113Y-93345000D01*
X51398880Y-92795849D01*
X51087811Y-92330302D01*
X50622264Y-92019233D01*
X50073113Y-91910000D01*
X50016887Y-91910000D01*
X49467736Y-92019233D01*
X49002189Y-92330302D01*
X48691120Y-92795849D01*
X48581887Y-93345000D01*
X44494397Y-93345000D01*
X44391920Y-92674827D01*
X44324854Y-92512914D01*
X43969218Y-92448284D01*
X43072502Y-93345000D01*
X42017498Y-93345000D01*
X42003356Y-93330858D01*
X42530858Y-92803356D01*
X42545000Y-92817498D01*
X43441716Y-91920782D01*
X43377086Y-91565146D01*
X42632627Y-91382204D01*
X41874827Y-91498080D01*
X41712914Y-91565146D01*
X41648284Y-91920780D01*
X41494186Y-91766682D01*
X42255868Y-91005000D01*
X53340000Y-91005000D01*
X53514131Y-90970363D01*
X55044855Y-90970363D01*
X55045000Y-90970714D01*
X55045000Y-111759271D01*
X55044855Y-111925363D01*
X55171708Y-112232372D01*
X55406393Y-112467466D01*
X55713179Y-112594855D01*
X56045363Y-112595145D01*
X56352372Y-112468292D01*
X56587466Y-112233607D01*
X56714855Y-111926821D01*
X56715145Y-111594637D01*
X56715000Y-111594286D01*
X56715000Y-90805729D01*
X56715145Y-90639637D01*
X56588292Y-90332628D01*
X56353607Y-90097534D01*
X56046821Y-89970145D01*
X55714637Y-89969855D01*
X55407628Y-90096708D01*
X55172534Y-90331393D01*
X55045145Y-90638179D01*
X55044855Y-90970363D01*
X53514131Y-90970363D01*
X53659541Y-90941439D01*
X53930434Y-90760434D01*
X56896089Y-87794779D01*
X57434187Y-87795248D01*
X57585000Y-87732933D01*
X57585000Y-124460000D01*
M02*
