G04 #@! TF.FileFunction,Copper,L2,Bot,Signal*
%FSLAX46Y46*%
G04 Gerber Fmt 4.6, Leading zero omitted, Abs format (unit mm)*
G04 Created by KiCad (PCBNEW 4.0.6) date Thu May  4 15:18:22 2017*
%MOMM*%
%LPD*%
G01*
G04 APERTURE LIST*
%ADD10C,0.100000*%
%ADD11C,3.650000*%
%ADD12R,1.500000X1.500000*%
%ADD13C,1.500000*%
%ADD14C,7.000000*%
%ADD15C,1.600000*%
%ADD16R,1.600000X1.600000*%
%ADD17O,1.600000X1.600000*%
%ADD18C,1.524000*%
%ADD19C,0.400000*%
%ADD20C,0.400000*%
%ADD21C,0.254000*%
G04 APERTURE END LIST*
D10*
D11*
X181600000Y-118620000D03*
X181600000Y-130490000D03*
D12*
X175250000Y-129000000D03*
D13*
X172710000Y-127730000D03*
X175250000Y-126460000D03*
X172710000Y-125190000D03*
X175250000Y-123920000D03*
X172710000Y-122650000D03*
X175250000Y-121380000D03*
X172710000Y-120110000D03*
D14*
X180250000Y-60250000D03*
X180250000Y-137250000D03*
X129000000Y-60250000D03*
D11*
X127635000Y-78960000D03*
X127635000Y-67090000D03*
D12*
X133985000Y-68580000D03*
D13*
X136525000Y-69850000D03*
X133985000Y-71120000D03*
X136525000Y-72390000D03*
X133985000Y-73660000D03*
X136525000Y-74930000D03*
X133985000Y-76200000D03*
X136525000Y-77470000D03*
D11*
X127635000Y-96105000D03*
X127635000Y-84235000D03*
D12*
X133985000Y-85725000D03*
D13*
X136525000Y-86995000D03*
X133985000Y-88265000D03*
X136525000Y-89535000D03*
X133985000Y-90805000D03*
X136525000Y-92075000D03*
X133985000Y-93345000D03*
X136525000Y-94615000D03*
D11*
X127635000Y-113250000D03*
X127635000Y-101380000D03*
D12*
X133985000Y-102870000D03*
D13*
X136525000Y-104140000D03*
X133985000Y-105410000D03*
X136525000Y-106680000D03*
X133985000Y-107950000D03*
X136525000Y-109220000D03*
X133985000Y-110490000D03*
X136525000Y-111760000D03*
D11*
X127650000Y-130380000D03*
X127650000Y-118510000D03*
D12*
X134000000Y-120000000D03*
D13*
X136540000Y-121270000D03*
X134000000Y-122540000D03*
X136540000Y-123810000D03*
X134000000Y-125080000D03*
X136540000Y-126350000D03*
X134000000Y-127620000D03*
X136540000Y-128890000D03*
D11*
X181610000Y-67090000D03*
X181610000Y-78960000D03*
D12*
X175260000Y-77470000D03*
D13*
X172720000Y-76200000D03*
X175260000Y-74930000D03*
X172720000Y-73660000D03*
X175260000Y-72390000D03*
X172720000Y-71120000D03*
X175260000Y-69850000D03*
X172720000Y-68580000D03*
D11*
X181610000Y-84235000D03*
X181610000Y-96105000D03*
D12*
X175260000Y-94615000D03*
D13*
X172720000Y-93345000D03*
X175260000Y-92075000D03*
X172720000Y-90805000D03*
X175260000Y-89535000D03*
X172720000Y-88265000D03*
X175260000Y-86995000D03*
X172720000Y-85725000D03*
D11*
X181610000Y-101380000D03*
X181610000Y-113250000D03*
D12*
X175260000Y-111760000D03*
D13*
X172720000Y-110490000D03*
X175260000Y-109220000D03*
X172720000Y-107950000D03*
X175260000Y-106680000D03*
X172720000Y-105410000D03*
X175260000Y-104140000D03*
X172720000Y-102870000D03*
D15*
X155575000Y-99060000D03*
X155575000Y-96520000D03*
X155575000Y-93980000D03*
X155575000Y-91440000D03*
X155575000Y-101600000D03*
X155575000Y-104140000D03*
X155575000Y-106680000D03*
X155575000Y-88900000D03*
X155575000Y-86360000D03*
X155575000Y-83820000D03*
X155575000Y-81280000D03*
X153035000Y-93980000D03*
X150495000Y-93980000D03*
X147955000Y-93980000D03*
X145415000Y-93980000D03*
X142875000Y-93980000D03*
X140335000Y-81280000D03*
X140335000Y-83820000D03*
X140335000Y-86360000D03*
X140335000Y-88900000D03*
X140335000Y-91440000D03*
X140335000Y-93980000D03*
X140335000Y-96520000D03*
X140335000Y-99060000D03*
X155575000Y-109220000D03*
X155575000Y-111760000D03*
X155575000Y-114300000D03*
X155575000Y-116840000D03*
X155575000Y-119380000D03*
X155575000Y-121920000D03*
X155575000Y-124460000D03*
X155575000Y-127000000D03*
X155575000Y-129540000D03*
X155575000Y-132080000D03*
X155575000Y-134620000D03*
X155575000Y-137160000D03*
D16*
X155575000Y-139700000D03*
D15*
X140335000Y-101600000D03*
X140335000Y-104140000D03*
X140335000Y-106680000D03*
X140335000Y-109220000D03*
X140335000Y-111760000D03*
X140335000Y-114300000D03*
X140335000Y-116840000D03*
X140335000Y-119380000D03*
X140335000Y-121920000D03*
X140335000Y-124460000D03*
X140335000Y-127000000D03*
X140335000Y-129540000D03*
X140335000Y-132080000D03*
X140335000Y-134620000D03*
X140335000Y-137160000D03*
X140335000Y-139700000D03*
X142875000Y-137160000D03*
X142875000Y-132080000D03*
X142875000Y-129540000D03*
X142875000Y-127000000D03*
X147955000Y-124460000D03*
X147955000Y-121920000D03*
X147955000Y-119380000D03*
X147955000Y-116840000D03*
X147955000Y-101600000D03*
X147955000Y-99060000D03*
X147955000Y-96520000D03*
X147955000Y-91440000D03*
X147955000Y-88900000D03*
X147955000Y-86360000D03*
X147955000Y-83820000D03*
X147955000Y-81280000D03*
X145415000Y-81280000D03*
X145415000Y-83820000D03*
X145415000Y-86360000D03*
X145415000Y-88900000D03*
X145415000Y-91440000D03*
X145415000Y-96520000D03*
X145415000Y-99060000D03*
X145415000Y-101600000D03*
X145415000Y-116840000D03*
X145415000Y-119380000D03*
X145415000Y-121920000D03*
X145415000Y-124460000D03*
X169545000Y-85090000D03*
D17*
X161925000Y-85090000D03*
D15*
X169545000Y-88900000D03*
D17*
X161925000Y-88900000D03*
D15*
X169545000Y-92710000D03*
D17*
X161925000Y-92710000D03*
D15*
X169545000Y-96520000D03*
D17*
X161925000Y-96520000D03*
D15*
X169545000Y-100330000D03*
D17*
X161925000Y-100330000D03*
D15*
X169545000Y-104140000D03*
D17*
X161925000Y-104140000D03*
D15*
X169545000Y-107950000D03*
D17*
X161925000Y-107950000D03*
D18*
X167640000Y-124460000D03*
X167640000Y-121920000D03*
X165100000Y-124460000D03*
X165100000Y-121920000D03*
X162560000Y-124460000D03*
X162560000Y-121920000D03*
X160020000Y-124460000D03*
X160020000Y-121920000D03*
D14*
X129000000Y-136750000D03*
D15*
X169545000Y-81280000D03*
D17*
X161925000Y-81280000D03*
D18*
X142875000Y-64135000D03*
X142875000Y-66675000D03*
X142875000Y-69215000D03*
X142875000Y-71755000D03*
X142875000Y-74295000D03*
X165735000Y-64135000D03*
X165735000Y-66675000D03*
X165735000Y-69215000D03*
X165735000Y-71755000D03*
X165735000Y-74295000D03*
X163195000Y-61595000D03*
X163195000Y-59055000D03*
X160655000Y-61595000D03*
X160655000Y-59055000D03*
X158115000Y-61595000D03*
X158115000Y-59055000D03*
X155575000Y-61595000D03*
X155575000Y-59055000D03*
X153035000Y-61595000D03*
X153035000Y-59055000D03*
X150495000Y-61595000D03*
X150495000Y-59055000D03*
X147955000Y-61595000D03*
X147955000Y-59055000D03*
X145415000Y-61595000D03*
X145415000Y-59055000D03*
D15*
X161925000Y-111760000D03*
D17*
X169545000Y-111760000D03*
D15*
X161925000Y-115570000D03*
D17*
X169545000Y-115570000D03*
D15*
X161290000Y-119380000D03*
X166290000Y-119380000D03*
D19*
X146685000Y-116739400D03*
X168015300Y-83102100D03*
X163974400Y-105883000D03*
X149056200Y-79505300D03*
X168312100Y-71993600D03*
X162401700Y-71956200D03*
X162401700Y-76289600D03*
X158649400Y-75642800D03*
X136721700Y-65996600D03*
X158286000Y-76438900D03*
X172321900Y-79958800D03*
X166972200Y-101762200D03*
X168485200Y-109677200D03*
X165947200Y-113000900D03*
X148349900Y-106026400D03*
X154309600Y-117282800D03*
X154209000Y-122266700D03*
X164142600Y-114969400D03*
X160437500Y-103536400D03*
D20*
X158576600Y-116840000D02*
X155575000Y-116840000D01*
X166088100Y-109328500D02*
X158576600Y-116840000D01*
X166088100Y-101708500D02*
X166088100Y-109328500D01*
X171566100Y-96230500D02*
X166088100Y-101708500D01*
X171566100Y-83257500D02*
X171566100Y-96230500D01*
X176410400Y-78413200D02*
X171566100Y-83257500D01*
X176410400Y-74437000D02*
X176410400Y-78413200D01*
X175633400Y-73660000D02*
X176410400Y-74437000D01*
X174856300Y-73660000D02*
X175633400Y-73660000D01*
X173925200Y-72728900D02*
X174856300Y-73660000D01*
X173925200Y-70657600D02*
X173925200Y-72728900D01*
X173117600Y-69850000D02*
X173925200Y-70657600D01*
X171450000Y-69850000D02*
X173117600Y-69850000D01*
X165735000Y-64135000D02*
X171450000Y-69850000D01*
X146685000Y-117288300D02*
X146685000Y-116739400D01*
X147437100Y-118040400D02*
X146685000Y-117288300D01*
X152692500Y-118040400D02*
X147437100Y-118040400D01*
X154032100Y-119380000D02*
X152692500Y-118040400D01*
X155575000Y-119380000D02*
X154032100Y-119380000D01*
X163974400Y-95475100D02*
X163974400Y-105883000D01*
X168015300Y-91434200D02*
X163974400Y-95475100D01*
X168015300Y-83102100D02*
X168015300Y-91434200D01*
X149056200Y-75396200D02*
X149056200Y-79505300D01*
X142875000Y-69215000D02*
X149056200Y-75396200D01*
X138295400Y-122420400D02*
X140335000Y-124460000D01*
X136051900Y-122420400D02*
X138295400Y-122420400D01*
X134781900Y-121150400D02*
X136051900Y-122420400D01*
X133020300Y-121150400D02*
X134781900Y-121150400D01*
X132227800Y-120357900D02*
X133020300Y-121150400D01*
X132227800Y-67362100D02*
X132227800Y-120357900D01*
X143592800Y-55997100D02*
X132227800Y-67362100D01*
X161817300Y-55997100D02*
X143592800Y-55997100D01*
X164504900Y-58684700D02*
X161817300Y-55997100D01*
X164504900Y-67984900D02*
X164504900Y-58684700D01*
X165735000Y-69215000D02*
X164504900Y-67984900D01*
X165973600Y-71993600D02*
X168312100Y-71993600D01*
X165735000Y-71755000D02*
X165973600Y-71993600D01*
X133985000Y-68580000D02*
X135135300Y-68580000D01*
X161925000Y-81280000D02*
X161925000Y-80079700D01*
X158618500Y-57867600D02*
X151872100Y-57867600D01*
X159385000Y-58634100D02*
X158618500Y-57867600D01*
X159385000Y-59508700D02*
X159385000Y-58634100D01*
X160093700Y-60217400D02*
X159385000Y-59508700D01*
X161817400Y-60217400D02*
X160093700Y-60217400D01*
X163195000Y-61595000D02*
X161817400Y-60217400D01*
X143390300Y-60325000D02*
X135135300Y-68580000D01*
X145869200Y-60325000D02*
X143390300Y-60325000D01*
X146792600Y-59401600D02*
X145869200Y-60325000D01*
X146792600Y-58573500D02*
X146792600Y-59401600D01*
X147498500Y-57867600D02*
X146792600Y-58573500D01*
X151872100Y-57867600D02*
X147498500Y-57867600D01*
X161801400Y-79956100D02*
X161925000Y-80079700D01*
X161801400Y-72052300D02*
X161801400Y-79956100D01*
X151872100Y-62123000D02*
X161801400Y-72052300D01*
X151872100Y-57867600D02*
X151872100Y-62123000D01*
X133179900Y-69850000D02*
X136525000Y-69850000D01*
X132834600Y-69504700D02*
X133179900Y-69850000D01*
X132834600Y-67647900D02*
X132834600Y-69504700D01*
X143866800Y-56615700D02*
X132834600Y-67647900D01*
X160755700Y-56615700D02*
X143866800Y-56615700D01*
X163195000Y-59055000D02*
X160755700Y-56615700D01*
X161925000Y-85090000D02*
X161925000Y-83889700D01*
X135770400Y-85089900D02*
X135135300Y-85725000D01*
X148485500Y-85089900D02*
X135770400Y-85089900D01*
X157932600Y-75642800D02*
X148485500Y-85089900D01*
X158649400Y-75642800D02*
X157932600Y-75642800D01*
X133985000Y-85725000D02*
X135135300Y-85725000D01*
X162401700Y-71956200D02*
X162401700Y-76289600D01*
X163125400Y-82689300D02*
X161925000Y-83889700D01*
X163125400Y-77013300D02*
X163125400Y-82689300D01*
X162401700Y-76289600D02*
X163125400Y-77013300D01*
X145451100Y-57267200D02*
X136721700Y-65996600D01*
X158867200Y-57267200D02*
X145451100Y-57267200D01*
X160655000Y-59055000D02*
X158867200Y-57267200D01*
X135135300Y-102510500D02*
X135135300Y-102870000D01*
X139855800Y-97790000D02*
X135135300Y-102510500D01*
X142401500Y-97790000D02*
X139855800Y-97790000D01*
X144941500Y-95250000D02*
X142401500Y-97790000D01*
X148401500Y-95250000D02*
X144941500Y-95250000D01*
X149155400Y-94496100D02*
X148401500Y-95250000D01*
X149155400Y-85569500D02*
X149155400Y-94496100D01*
X158286000Y-76438900D02*
X149155400Y-85569500D01*
X133985000Y-102870000D02*
X135135300Y-102870000D01*
X134000000Y-116360100D02*
X134000000Y-120000000D01*
X139870100Y-110490000D02*
X134000000Y-116360100D01*
X140856000Y-110490000D02*
X139870100Y-110490000D01*
X145976800Y-105369200D02*
X140856000Y-110490000D01*
X162409700Y-105369200D02*
X145976800Y-105369200D01*
X163204400Y-104574500D02*
X162409700Y-105369200D01*
X163204400Y-99559900D02*
X163204400Y-104574500D01*
X160692500Y-97048000D02*
X163204400Y-99559900D01*
X160692500Y-95142800D02*
X160692500Y-97048000D01*
X161925000Y-93910300D02*
X160692500Y-95142800D01*
X161925000Y-92710000D02*
X161925000Y-93910300D01*
X139700000Y-118110000D02*
X136540000Y-121270000D01*
X141713500Y-118110000D02*
X139700000Y-118110000D01*
X144323100Y-115500400D02*
X141713500Y-118110000D01*
X156074500Y-115500400D02*
X144323100Y-115500400D01*
X165292700Y-106282200D02*
X156074500Y-115500400D01*
X165292700Y-96962300D02*
X165292700Y-106282200D01*
X169545000Y-92710000D02*
X165292700Y-96962300D01*
X161925000Y-96520000D02*
X161925000Y-95319700D01*
X175260000Y-77470000D02*
X174109700Y-77470000D01*
X173838600Y-77741100D02*
X174109700Y-77470000D01*
X167191300Y-77741100D02*
X173838600Y-77741100D01*
X167191300Y-90053400D02*
X161925000Y-95319700D01*
X167191300Y-77741100D02*
X167191300Y-90053400D01*
X163002000Y-71562000D02*
X153035000Y-61595000D01*
X163002000Y-73551800D02*
X163002000Y-71562000D01*
X167191300Y-77741100D02*
X163002000Y-73551800D01*
X170832200Y-95232800D02*
X169545000Y-96520000D01*
X170832200Y-81448500D02*
X170832200Y-95232800D01*
X172321900Y-79958800D02*
X170832200Y-81448500D01*
X169545000Y-73025000D02*
X172720000Y-76200000D01*
X165361100Y-73025000D02*
X169545000Y-73025000D01*
X154305000Y-61968900D02*
X165361100Y-73025000D01*
X154305000Y-60325000D02*
X154305000Y-61968900D01*
X153035000Y-59055000D02*
X154305000Y-60325000D01*
X175260000Y-96337100D02*
X175260000Y-94615000D01*
X169834900Y-101762200D02*
X175260000Y-96337100D01*
X166972200Y-101762200D02*
X169834900Y-101762200D01*
X159881400Y-97086100D02*
X161925000Y-99129700D01*
X159881400Y-70981400D02*
X159881400Y-97086100D01*
X150495000Y-61595000D02*
X159881400Y-70981400D01*
X161925000Y-100330000D02*
X161925000Y-99129700D01*
X172720000Y-97155000D02*
X169545000Y-100330000D01*
X172720000Y-93345000D02*
X172720000Y-97155000D01*
X171606200Y-111760000D02*
X175260000Y-111760000D01*
X169523400Y-109677200D02*
X171606200Y-111760000D01*
X168485200Y-109677200D02*
X169523400Y-109677200D01*
X159281000Y-100295700D02*
X161925000Y-102939700D01*
X159281000Y-72921000D02*
X159281000Y-100295700D01*
X147955000Y-61595000D02*
X159281000Y-72921000D01*
X161925000Y-104140000D02*
X161925000Y-102939700D01*
X171330400Y-109100400D02*
X172720000Y-110490000D01*
X171330400Y-105925400D02*
X171330400Y-109100400D01*
X169545000Y-104140000D02*
X171330400Y-105925400D01*
X175250000Y-129000000D02*
X175250000Y-127849700D01*
X174459800Y-127849700D02*
X175250000Y-127849700D01*
X172950500Y-126340400D02*
X174459800Y-127849700D01*
X172233700Y-126340400D02*
X172950500Y-126340400D01*
X171559700Y-125666400D02*
X172233700Y-126340400D01*
X171559700Y-119378500D02*
X171559700Y-125666400D01*
X165947200Y-113766000D02*
X171559700Y-119378500D01*
X165947200Y-113000900D02*
X165947200Y-113766000D01*
X150273500Y-107950000D02*
X161925000Y-107950000D01*
X148349900Y-106026400D02*
X150273500Y-107950000D01*
X169303500Y-124323500D02*
X172710000Y-127730000D01*
X169303500Y-119655100D02*
X169303500Y-124323500D01*
X165340400Y-115692000D02*
X169303500Y-119655100D01*
X165340400Y-111914000D02*
X165340400Y-115692000D01*
X169304400Y-107950000D02*
X165340400Y-111914000D01*
X169545000Y-107950000D02*
X169304400Y-107950000D01*
X155206400Y-118179600D02*
X154309600Y-117282800D01*
X158357600Y-118179600D02*
X155206400Y-118179600D01*
X162098000Y-121920000D02*
X158357600Y-118179600D01*
X162560000Y-121920000D02*
X162098000Y-121920000D01*
X155132300Y-123190000D02*
X154209000Y-122266700D01*
X161290000Y-123190000D02*
X155132300Y-123190000D01*
X162560000Y-124460000D02*
X161290000Y-123190000D01*
X164142600Y-115525900D02*
X164142600Y-114969400D01*
X167640000Y-119023300D02*
X164142600Y-115525900D01*
X167640000Y-121920000D02*
X167640000Y-119023300D01*
X156914600Y-85159600D02*
X155575000Y-83820000D01*
X156914600Y-100013500D02*
X156914600Y-85159600D01*
X160437500Y-103536400D02*
X156914600Y-100013500D01*
D21*
G36*
X177910771Y-56742474D02*
X176746562Y-57904653D01*
X176115720Y-59423889D01*
X176114284Y-61068894D01*
X176742474Y-62589229D01*
X177904653Y-63753438D01*
X179423889Y-64384280D01*
X181068894Y-64385716D01*
X182589229Y-63757526D01*
X183753438Y-62595347D01*
X184290000Y-61303162D01*
X184290000Y-136199456D01*
X183757526Y-134910771D01*
X182595347Y-133746562D01*
X181076111Y-133115720D01*
X179431106Y-133114284D01*
X177910771Y-133742474D01*
X176746562Y-134904653D01*
X176115720Y-136423889D01*
X176114284Y-138068894D01*
X176742474Y-139589229D01*
X177904653Y-140753438D01*
X178594771Y-141040000D01*
X157371181Y-141040000D01*
X157502000Y-140724174D01*
X157502000Y-140354750D01*
X157220250Y-140073000D01*
X155948000Y-140073000D01*
X155948000Y-140093000D01*
X155202000Y-140093000D01*
X155202000Y-140073000D01*
X153929750Y-140073000D01*
X153648000Y-140354750D01*
X153648000Y-140724174D01*
X153778819Y-141040000D01*
X140849705Y-141040000D01*
X141146800Y-140917243D01*
X141550824Y-140513923D01*
X141769750Y-139986691D01*
X141770248Y-139415813D01*
X141552243Y-138888200D01*
X141148923Y-138484176D01*
X141018785Y-138430138D01*
X141146800Y-138377243D01*
X141550824Y-137973923D01*
X141604862Y-137843785D01*
X141657757Y-137971800D01*
X142061077Y-138375824D01*
X142588309Y-138594750D01*
X143159187Y-138595248D01*
X143686800Y-138377243D01*
X144090824Y-137973923D01*
X144309750Y-137446691D01*
X144310248Y-136875813D01*
X144092243Y-136348200D01*
X143688923Y-135944176D01*
X143161691Y-135725250D01*
X142590813Y-135724752D01*
X142063200Y-135942757D01*
X141659176Y-136346077D01*
X141605138Y-136476215D01*
X141552243Y-136348200D01*
X141148923Y-135944176D01*
X141018785Y-135890138D01*
X141146800Y-135837243D01*
X141550824Y-135433923D01*
X141769750Y-134906691D01*
X141770248Y-134335813D01*
X141552243Y-133808200D01*
X141148923Y-133404176D01*
X141018785Y-133350138D01*
X141146800Y-133297243D01*
X141550824Y-132893923D01*
X141604862Y-132763785D01*
X141657757Y-132891800D01*
X142061077Y-133295824D01*
X142588309Y-133514750D01*
X143159187Y-133515248D01*
X143686800Y-133297243D01*
X144090824Y-132893923D01*
X144309750Y-132366691D01*
X144310248Y-131795813D01*
X144092243Y-131268200D01*
X143688923Y-130864176D01*
X143558785Y-130810138D01*
X143686800Y-130757243D01*
X144090824Y-130353923D01*
X144309750Y-129826691D01*
X144310248Y-129255813D01*
X144092243Y-128728200D01*
X143688923Y-128324176D01*
X143558785Y-128270138D01*
X143686800Y-128217243D01*
X144090824Y-127813923D01*
X144309750Y-127286691D01*
X144310248Y-126715813D01*
X144092243Y-126188200D01*
X143688923Y-125784176D01*
X143161691Y-125565250D01*
X142590813Y-125564752D01*
X142063200Y-125782757D01*
X141659176Y-126186077D01*
X141605138Y-126316215D01*
X141552243Y-126188200D01*
X141148923Y-125784176D01*
X141018785Y-125730138D01*
X141146800Y-125677243D01*
X141550824Y-125273923D01*
X141769750Y-124746691D01*
X141770248Y-124175813D01*
X141552243Y-123648200D01*
X141148923Y-123244176D01*
X141018785Y-123190138D01*
X141146800Y-123137243D01*
X141550824Y-122733923D01*
X141769750Y-122206691D01*
X141770248Y-121635813D01*
X141552243Y-121108200D01*
X141148923Y-120704176D01*
X141018785Y-120650138D01*
X141146800Y-120597243D01*
X141550824Y-120193923D01*
X141769750Y-119666691D01*
X141770248Y-119095813D01*
X141552243Y-118568200D01*
X141148923Y-118164176D01*
X141018785Y-118110138D01*
X141146800Y-118057243D01*
X141550824Y-117653923D01*
X141769750Y-117126691D01*
X141769752Y-117124187D01*
X143979752Y-117124187D01*
X144197757Y-117651800D01*
X144601077Y-118055824D01*
X144731215Y-118109862D01*
X144603200Y-118162757D01*
X144199176Y-118566077D01*
X143980250Y-119093309D01*
X143979752Y-119664187D01*
X144197757Y-120191800D01*
X144601077Y-120595824D01*
X144731215Y-120649862D01*
X144603200Y-120702757D01*
X144199176Y-121106077D01*
X143980250Y-121633309D01*
X143979752Y-122204187D01*
X144197757Y-122731800D01*
X144601077Y-123135824D01*
X144731215Y-123189862D01*
X144603200Y-123242757D01*
X144199176Y-123646077D01*
X143980250Y-124173309D01*
X143979752Y-124744187D01*
X144197757Y-125271800D01*
X144601077Y-125675824D01*
X145128309Y-125894750D01*
X145699187Y-125895248D01*
X146226800Y-125677243D01*
X146630824Y-125273923D01*
X146684862Y-125143785D01*
X146737757Y-125271800D01*
X147141077Y-125675824D01*
X147668309Y-125894750D01*
X148239187Y-125895248D01*
X148766800Y-125677243D01*
X149170824Y-125273923D01*
X149389750Y-124746691D01*
X149390248Y-124175813D01*
X149172243Y-123648200D01*
X148768923Y-123244176D01*
X148638785Y-123190138D01*
X148766800Y-123137243D01*
X149170824Y-122733923D01*
X149389750Y-122206691D01*
X149390248Y-121635813D01*
X149172243Y-121108200D01*
X148768923Y-120704176D01*
X148638785Y-120650138D01*
X148766800Y-120597243D01*
X149170824Y-120193923D01*
X149389750Y-119666691D01*
X149390248Y-119095813D01*
X149172243Y-118568200D01*
X148768923Y-118164176D01*
X148638785Y-118110138D01*
X148766800Y-118057243D01*
X149170824Y-117653923D01*
X149389750Y-117126691D01*
X149390248Y-116555813D01*
X149172243Y-116028200D01*
X148768923Y-115624176D01*
X148241691Y-115405250D01*
X147670813Y-115404752D01*
X147143200Y-115622757D01*
X146739176Y-116026077D01*
X146685138Y-116156215D01*
X146632243Y-116028200D01*
X146228923Y-115624176D01*
X145701691Y-115405250D01*
X145130813Y-115404752D01*
X144603200Y-115622757D01*
X144199176Y-116026077D01*
X143980250Y-116553309D01*
X143979752Y-117124187D01*
X141769752Y-117124187D01*
X141770248Y-116555813D01*
X141552243Y-116028200D01*
X141148923Y-115624176D01*
X141018785Y-115570138D01*
X141146800Y-115517243D01*
X141550824Y-115113923D01*
X141769750Y-114586691D01*
X141770248Y-114015813D01*
X141552243Y-113488200D01*
X141148923Y-113084176D01*
X141018785Y-113030138D01*
X141146800Y-112977243D01*
X141550824Y-112573923D01*
X141769750Y-112046691D01*
X141770248Y-111475813D01*
X141552243Y-110948200D01*
X141148923Y-110544176D01*
X141018785Y-110490138D01*
X141146800Y-110437243D01*
X141550824Y-110033923D01*
X141769750Y-109506691D01*
X141770248Y-108935813D01*
X141552243Y-108408200D01*
X141148923Y-108004176D01*
X141018785Y-107950138D01*
X141146800Y-107897243D01*
X141550824Y-107493923D01*
X141769750Y-106966691D01*
X141770248Y-106395813D01*
X141552243Y-105868200D01*
X141148923Y-105464176D01*
X141018785Y-105410138D01*
X141146800Y-105357243D01*
X141550824Y-104953923D01*
X141769750Y-104426691D01*
X141770248Y-103855813D01*
X141552243Y-103328200D01*
X141148923Y-102924176D01*
X141018785Y-102870138D01*
X141146800Y-102817243D01*
X141550824Y-102413923D01*
X141769750Y-101886691D01*
X141770248Y-101315813D01*
X141552243Y-100788200D01*
X141148923Y-100384176D01*
X141018785Y-100330138D01*
X141146800Y-100277243D01*
X141550824Y-99873923D01*
X141769750Y-99346691D01*
X141770248Y-98775813D01*
X141552243Y-98248200D01*
X141148923Y-97844176D01*
X141018785Y-97790138D01*
X141146800Y-97737243D01*
X141550824Y-97333923D01*
X141769750Y-96806691D01*
X141770248Y-96235813D01*
X141552243Y-95708200D01*
X141148923Y-95304176D01*
X141018785Y-95250138D01*
X141146800Y-95197243D01*
X141550824Y-94793923D01*
X141604862Y-94663785D01*
X141657757Y-94791800D01*
X142061077Y-95195824D01*
X142588309Y-95414750D01*
X143159187Y-95415248D01*
X143686800Y-95197243D01*
X144090824Y-94793923D01*
X144144862Y-94663785D01*
X144197757Y-94791800D01*
X144601077Y-95195824D01*
X144731215Y-95249862D01*
X144603200Y-95302757D01*
X144199176Y-95706077D01*
X143980250Y-96233309D01*
X143979752Y-96804187D01*
X144197757Y-97331800D01*
X144601077Y-97735824D01*
X144731215Y-97789862D01*
X144603200Y-97842757D01*
X144199176Y-98246077D01*
X143980250Y-98773309D01*
X143979752Y-99344187D01*
X144197757Y-99871800D01*
X144601077Y-100275824D01*
X144731215Y-100329862D01*
X144603200Y-100382757D01*
X144199176Y-100786077D01*
X143980250Y-101313309D01*
X143979752Y-101884187D01*
X144197757Y-102411800D01*
X144601077Y-102815824D01*
X145128309Y-103034750D01*
X145699187Y-103035248D01*
X146226800Y-102817243D01*
X146630824Y-102413923D01*
X146684862Y-102283785D01*
X146737757Y-102411800D01*
X147141077Y-102815824D01*
X147668309Y-103034750D01*
X148239187Y-103035248D01*
X148766800Y-102817243D01*
X149170824Y-102413923D01*
X149389750Y-101886691D01*
X149390248Y-101315813D01*
X149172243Y-100788200D01*
X148768923Y-100384176D01*
X148638785Y-100330138D01*
X148766800Y-100277243D01*
X149170824Y-99873923D01*
X149389750Y-99346691D01*
X149390248Y-98775813D01*
X149172243Y-98248200D01*
X148768923Y-97844176D01*
X148638785Y-97790138D01*
X148766800Y-97737243D01*
X149170824Y-97333923D01*
X149389750Y-96806691D01*
X149390248Y-96235813D01*
X149172243Y-95708200D01*
X148768923Y-95304176D01*
X148638785Y-95250138D01*
X148766800Y-95197243D01*
X149170824Y-94793923D01*
X149224862Y-94663785D01*
X149277757Y-94791800D01*
X149681077Y-95195824D01*
X150208309Y-95414750D01*
X150779187Y-95415248D01*
X151306800Y-95197243D01*
X151710824Y-94793923D01*
X151764862Y-94663785D01*
X151817757Y-94791800D01*
X152221077Y-95195824D01*
X152748309Y-95414750D01*
X153319187Y-95415248D01*
X153846800Y-95197243D01*
X154250824Y-94793923D01*
X154304862Y-94663785D01*
X154357757Y-94791800D01*
X154761077Y-95195824D01*
X154891215Y-95249862D01*
X154763200Y-95302757D01*
X154359176Y-95706077D01*
X154140250Y-96233309D01*
X154139752Y-96804187D01*
X154357757Y-97331800D01*
X154761077Y-97735824D01*
X154891215Y-97789862D01*
X154763200Y-97842757D01*
X154359176Y-98246077D01*
X154140250Y-98773309D01*
X154139752Y-99344187D01*
X154357757Y-99871800D01*
X154761077Y-100275824D01*
X154891215Y-100329862D01*
X154763200Y-100382757D01*
X154359176Y-100786077D01*
X154140250Y-101313309D01*
X154139752Y-101884187D01*
X154357757Y-102411800D01*
X154761077Y-102815824D01*
X154891215Y-102869862D01*
X154763200Y-102922757D01*
X154359176Y-103326077D01*
X154140250Y-103853309D01*
X154139752Y-104424187D01*
X154357757Y-104951800D01*
X154761077Y-105355824D01*
X154891215Y-105409862D01*
X154763200Y-105462757D01*
X154359176Y-105866077D01*
X154140250Y-106393309D01*
X154139752Y-106964187D01*
X154357757Y-107491800D01*
X154761077Y-107895824D01*
X154891215Y-107949862D01*
X154763200Y-108002757D01*
X154359176Y-108406077D01*
X154140250Y-108933309D01*
X154139752Y-109504187D01*
X154357757Y-110031800D01*
X154761077Y-110435824D01*
X154891215Y-110489862D01*
X154763200Y-110542757D01*
X154359176Y-110946077D01*
X154140250Y-111473309D01*
X154139752Y-112044187D01*
X154357757Y-112571800D01*
X154761077Y-112975824D01*
X154891215Y-113029862D01*
X154763200Y-113082757D01*
X154359176Y-113486077D01*
X154140250Y-114013309D01*
X154139752Y-114584187D01*
X154357757Y-115111800D01*
X154761077Y-115515824D01*
X154891215Y-115569862D01*
X154763200Y-115622757D01*
X154359176Y-116026077D01*
X154140250Y-116553309D01*
X154139752Y-117124187D01*
X154357757Y-117651800D01*
X154761077Y-118055824D01*
X154891215Y-118109862D01*
X154763200Y-118162757D01*
X154359176Y-118566077D01*
X154140250Y-119093309D01*
X154139752Y-119664187D01*
X154357757Y-120191800D01*
X154761077Y-120595824D01*
X154891215Y-120649862D01*
X154763200Y-120702757D01*
X154359176Y-121106077D01*
X154140250Y-121633309D01*
X154139752Y-122204187D01*
X154357757Y-122731800D01*
X154761077Y-123135824D01*
X154891215Y-123189862D01*
X154763200Y-123242757D01*
X154359176Y-123646077D01*
X154140250Y-124173309D01*
X154139752Y-124744187D01*
X154357757Y-125271800D01*
X154761077Y-125675824D01*
X154891215Y-125729862D01*
X154763200Y-125782757D01*
X154359176Y-126186077D01*
X154140250Y-126713309D01*
X154139752Y-127284187D01*
X154357757Y-127811800D01*
X154761077Y-128215824D01*
X154891215Y-128269862D01*
X154763200Y-128322757D01*
X154359176Y-128726077D01*
X154140250Y-129253309D01*
X154139752Y-129824187D01*
X154357757Y-130351800D01*
X154761077Y-130755824D01*
X154891215Y-130809862D01*
X154763200Y-130862757D01*
X154359176Y-131266077D01*
X154140250Y-131793309D01*
X154139752Y-132364187D01*
X154357757Y-132891800D01*
X154761077Y-133295824D01*
X154891215Y-133349862D01*
X154763200Y-133402757D01*
X154359176Y-133806077D01*
X154140250Y-134333309D01*
X154139752Y-134904187D01*
X154357757Y-135431800D01*
X154761077Y-135835824D01*
X154891215Y-135889862D01*
X154763200Y-135942757D01*
X154359176Y-136346077D01*
X154140250Y-136873309D01*
X154139752Y-137444187D01*
X154315834Y-137870337D01*
X154136606Y-137944576D01*
X153819575Y-138261606D01*
X153648000Y-138675826D01*
X153648000Y-139045250D01*
X153929750Y-139327000D01*
X155202000Y-139327000D01*
X155202000Y-139307000D01*
X155948000Y-139307000D01*
X155948000Y-139327000D01*
X157220250Y-139327000D01*
X157502000Y-139045250D01*
X157502000Y-138675826D01*
X157330425Y-138261606D01*
X157013394Y-137944576D01*
X156833885Y-137870221D01*
X157009750Y-137446691D01*
X157010248Y-136875813D01*
X156792243Y-136348200D01*
X156388923Y-135944176D01*
X156258785Y-135890138D01*
X156386800Y-135837243D01*
X156790824Y-135433923D01*
X157009750Y-134906691D01*
X157010248Y-134335813D01*
X156792243Y-133808200D01*
X156388923Y-133404176D01*
X156258785Y-133350138D01*
X156386800Y-133297243D01*
X156790824Y-132893923D01*
X157009750Y-132366691D01*
X157010248Y-131795813D01*
X156792243Y-131268200D01*
X156501728Y-130977177D01*
X179139574Y-130977177D01*
X179513298Y-131881657D01*
X180204703Y-132574270D01*
X181108529Y-132949572D01*
X182087177Y-132950426D01*
X182991657Y-132576702D01*
X183684270Y-131885297D01*
X184059572Y-130981471D01*
X184060426Y-130002823D01*
X183686702Y-129098343D01*
X182995297Y-128405730D01*
X182091471Y-128030428D01*
X181112823Y-128029574D01*
X180208343Y-128403298D01*
X179515730Y-129094703D01*
X179140428Y-129998529D01*
X179139574Y-130977177D01*
X156501728Y-130977177D01*
X156388923Y-130864176D01*
X156258785Y-130810138D01*
X156386800Y-130757243D01*
X156790824Y-130353923D01*
X157009750Y-129826691D01*
X157010248Y-129255813D01*
X156792243Y-128728200D01*
X156388923Y-128324176D01*
X156258785Y-128270138D01*
X156386800Y-128217243D01*
X156790824Y-127813923D01*
X157009750Y-127286691D01*
X157010248Y-126715813D01*
X156792243Y-126188200D01*
X156388923Y-125784176D01*
X156258785Y-125730138D01*
X156386800Y-125677243D01*
X156790824Y-125273923D01*
X157009750Y-124746691D01*
X157010248Y-124175813D01*
X156792243Y-123648200D01*
X156388923Y-123244176D01*
X156258785Y-123190138D01*
X156386800Y-123137243D01*
X156790824Y-122733923D01*
X157009750Y-122206691D01*
X157009758Y-122196661D01*
X158622758Y-122196661D01*
X158834990Y-122710303D01*
X159227630Y-123103629D01*
X159435512Y-123189949D01*
X159229697Y-123274990D01*
X158836371Y-123667630D01*
X158623243Y-124180900D01*
X158622758Y-124736661D01*
X158834990Y-125250303D01*
X159227630Y-125643629D01*
X159740900Y-125856757D01*
X160296661Y-125857242D01*
X160810303Y-125645010D01*
X161203629Y-125252370D01*
X161289949Y-125044488D01*
X161374990Y-125250303D01*
X161767630Y-125643629D01*
X162280900Y-125856757D01*
X162836661Y-125857242D01*
X163350303Y-125645010D01*
X163743629Y-125252370D01*
X163829949Y-125044488D01*
X163914990Y-125250303D01*
X164307630Y-125643629D01*
X164820900Y-125856757D01*
X165376661Y-125857242D01*
X165379410Y-125856106D01*
X166771396Y-125856106D01*
X166831117Y-126207918D01*
X167561589Y-126384411D01*
X168303997Y-126267931D01*
X168448883Y-126207918D01*
X168508604Y-125856106D01*
X167640000Y-124987502D01*
X166771396Y-125856106D01*
X165379410Y-125856106D01*
X165890303Y-125645010D01*
X166212586Y-125323289D01*
X166243894Y-125328604D01*
X167112498Y-124460000D01*
X168167502Y-124460000D01*
X169036106Y-125328604D01*
X169387918Y-125268883D01*
X169564411Y-124538411D01*
X169447931Y-123796003D01*
X169387918Y-123651117D01*
X169036106Y-123591396D01*
X168167502Y-124460000D01*
X167112498Y-124460000D01*
X166243894Y-123591396D01*
X166212214Y-123596774D01*
X165892370Y-123276371D01*
X165684488Y-123190051D01*
X165890303Y-123105010D01*
X166283629Y-122712370D01*
X166369949Y-122504488D01*
X166454990Y-122710303D01*
X166776711Y-123032586D01*
X166771396Y-123063894D01*
X167640000Y-123932498D01*
X168508604Y-123063894D01*
X168503226Y-123032214D01*
X168611343Y-122924285D01*
X171324760Y-122924285D01*
X171535169Y-123433515D01*
X171924436Y-123823461D01*
X172156870Y-123919976D01*
X171926485Y-124015169D01*
X171536539Y-124404436D01*
X171325241Y-124913298D01*
X171324760Y-125464285D01*
X171535169Y-125973515D01*
X171924436Y-126363461D01*
X172156870Y-126459976D01*
X171926485Y-126555169D01*
X171536539Y-126944436D01*
X171325241Y-127453298D01*
X171324760Y-128004285D01*
X171535169Y-128513515D01*
X171924436Y-128903461D01*
X172433298Y-129114759D01*
X172984285Y-129115240D01*
X173493515Y-128904831D01*
X173852560Y-128546411D01*
X173852560Y-129750000D01*
X173896838Y-129985317D01*
X174035910Y-130201441D01*
X174248110Y-130346431D01*
X174500000Y-130397440D01*
X176000000Y-130397440D01*
X176235317Y-130353162D01*
X176451441Y-130214090D01*
X176596431Y-130001890D01*
X176647440Y-129750000D01*
X176647440Y-128250000D01*
X176603162Y-128014683D01*
X176464090Y-127798559D01*
X176251890Y-127653569D01*
X176054738Y-127613645D01*
X176423461Y-127245564D01*
X176634759Y-126736702D01*
X176635240Y-126185715D01*
X176424831Y-125676485D01*
X176035564Y-125286539D01*
X175803130Y-125190024D01*
X176033515Y-125094831D01*
X176423461Y-124705564D01*
X176634759Y-124196702D01*
X176635240Y-123645715D01*
X176424831Y-123136485D01*
X176102094Y-122813185D01*
X176109720Y-122767221D01*
X175250000Y-121907502D01*
X175235858Y-121921644D01*
X174708356Y-121394142D01*
X174722498Y-121380000D01*
X175777502Y-121380000D01*
X176637221Y-122239720D01*
X176987827Y-122181551D01*
X177162284Y-121455499D01*
X177045613Y-120717953D01*
X176987827Y-120578449D01*
X176637221Y-120520280D01*
X175777502Y-121380000D01*
X174722498Y-121380000D01*
X174708356Y-121365858D01*
X175235858Y-120838356D01*
X175250000Y-120852498D01*
X176109720Y-119992779D01*
X176051551Y-119642173D01*
X175325499Y-119467716D01*
X174587953Y-119584387D01*
X174530932Y-119608007D01*
X174505613Y-119447953D01*
X174447827Y-119308449D01*
X174097221Y-119250280D01*
X173237502Y-120110000D01*
X173251644Y-120124142D01*
X172724142Y-120651644D01*
X172710000Y-120637502D01*
X171850280Y-121497221D01*
X171857969Y-121543566D01*
X171536539Y-121864436D01*
X171325241Y-122373298D01*
X171324760Y-122924285D01*
X168611343Y-122924285D01*
X168823629Y-122712370D01*
X169036757Y-122199100D01*
X169037242Y-121643339D01*
X168825010Y-121129697D01*
X168432370Y-120736371D01*
X167921020Y-120524040D01*
X167941282Y-120503778D01*
X167714220Y-120276716D01*
X168069854Y-120212086D01*
X168113493Y-120034501D01*
X170797716Y-120034501D01*
X170914387Y-120772047D01*
X170972173Y-120911551D01*
X171322779Y-120969720D01*
X172182498Y-120110000D01*
X171322779Y-119250280D01*
X170972173Y-119308449D01*
X170797716Y-120034501D01*
X168113493Y-120034501D01*
X168252796Y-119467627D01*
X168138901Y-118722779D01*
X171850280Y-118722779D01*
X172710000Y-119582498D01*
X173185321Y-119107177D01*
X179139574Y-119107177D01*
X179513298Y-120011657D01*
X180204703Y-120704270D01*
X181108529Y-121079572D01*
X182087177Y-121080426D01*
X182991657Y-120706702D01*
X183684270Y-120015297D01*
X184059572Y-119111471D01*
X184060426Y-118132823D01*
X183686702Y-117228343D01*
X182995297Y-116535730D01*
X182091471Y-116160428D01*
X181112823Y-116159574D01*
X180208343Y-116533298D01*
X179515730Y-117224703D01*
X179140428Y-118128529D01*
X179139574Y-119107177D01*
X173185321Y-119107177D01*
X173569720Y-118722779D01*
X173511551Y-118372173D01*
X172785499Y-118197716D01*
X172047953Y-118314387D01*
X171908449Y-118372173D01*
X171850280Y-118722779D01*
X168138901Y-118722779D01*
X168136920Y-118709827D01*
X168069854Y-118547914D01*
X167714218Y-118483284D01*
X166817502Y-119380000D01*
X166831644Y-119394142D01*
X166304142Y-119921644D01*
X166290000Y-119907502D01*
X166275858Y-119921644D01*
X165748356Y-119394142D01*
X165762498Y-119380000D01*
X164865782Y-118483284D01*
X164510146Y-118547914D01*
X164327204Y-119292373D01*
X164443080Y-120050173D01*
X164510146Y-120212086D01*
X164865780Y-120276716D01*
X164638718Y-120503778D01*
X164706128Y-120571188D01*
X164309697Y-120734990D01*
X163916371Y-121127630D01*
X163830051Y-121335512D01*
X163745010Y-121129697D01*
X163352370Y-120736371D01*
X162839100Y-120523243D01*
X162283339Y-120522758D01*
X161769697Y-120734990D01*
X161376371Y-121127630D01*
X161290051Y-121335512D01*
X161205010Y-121129697D01*
X160812370Y-120736371D01*
X160299100Y-120523243D01*
X159743339Y-120522758D01*
X159229697Y-120734990D01*
X158836371Y-121127630D01*
X158623243Y-121640900D01*
X158622758Y-122196661D01*
X157009758Y-122196661D01*
X157010248Y-121635813D01*
X156792243Y-121108200D01*
X156388923Y-120704176D01*
X156258785Y-120650138D01*
X156386800Y-120597243D01*
X156790824Y-120193923D01*
X157009750Y-119666691D01*
X157009752Y-119664187D01*
X159854752Y-119664187D01*
X160072757Y-120191800D01*
X160476077Y-120595824D01*
X161003309Y-120814750D01*
X161574187Y-120815248D01*
X162101800Y-120597243D01*
X162505824Y-120193923D01*
X162724750Y-119666691D01*
X162725248Y-119095813D01*
X162507243Y-118568200D01*
X162103923Y-118164176D01*
X161602055Y-117955782D01*
X165393284Y-117955782D01*
X166290000Y-118852498D01*
X167186716Y-117955782D01*
X167122086Y-117600146D01*
X166377627Y-117417204D01*
X165619827Y-117533080D01*
X165457914Y-117600146D01*
X165393284Y-117955782D01*
X161602055Y-117955782D01*
X161576691Y-117945250D01*
X161005813Y-117944752D01*
X160478200Y-118162757D01*
X160074176Y-118566077D01*
X159855250Y-119093309D01*
X159854752Y-119664187D01*
X157009752Y-119664187D01*
X157010248Y-119095813D01*
X156792243Y-118568200D01*
X156388923Y-118164176D01*
X156258785Y-118110138D01*
X156386800Y-118057243D01*
X156790824Y-117653923D01*
X157009750Y-117126691D01*
X157010248Y-116555813D01*
X156792243Y-116028200D01*
X156618534Y-115854187D01*
X160489752Y-115854187D01*
X160707757Y-116381800D01*
X161111077Y-116785824D01*
X161638309Y-117004750D01*
X162209187Y-117005248D01*
X162736800Y-116787243D01*
X163140824Y-116383923D01*
X163359750Y-115856691D01*
X163360000Y-115570000D01*
X168081887Y-115570000D01*
X168191120Y-116119151D01*
X168502189Y-116584698D01*
X168967736Y-116895767D01*
X169516887Y-117005000D01*
X169573113Y-117005000D01*
X170122264Y-116895767D01*
X170587811Y-116584698D01*
X170898880Y-116119151D01*
X171008113Y-115570000D01*
X170898880Y-115020849D01*
X170587811Y-114555302D01*
X170122264Y-114244233D01*
X169573113Y-114135000D01*
X169516887Y-114135000D01*
X168967736Y-114244233D01*
X168502189Y-114555302D01*
X168191120Y-115020849D01*
X168081887Y-115570000D01*
X163360000Y-115570000D01*
X163360248Y-115285813D01*
X163142243Y-114758200D01*
X162738923Y-114354176D01*
X162211691Y-114135250D01*
X161640813Y-114134752D01*
X161113200Y-114352757D01*
X160709176Y-114756077D01*
X160490250Y-115283309D01*
X160489752Y-115854187D01*
X156618534Y-115854187D01*
X156388923Y-115624176D01*
X156258785Y-115570138D01*
X156386800Y-115517243D01*
X156790824Y-115113923D01*
X157009750Y-114586691D01*
X157010248Y-114015813D01*
X156895119Y-113737177D01*
X179149574Y-113737177D01*
X179523298Y-114641657D01*
X180214703Y-115334270D01*
X181118529Y-115709572D01*
X182097177Y-115710426D01*
X183001657Y-115336702D01*
X183694270Y-114645297D01*
X184069572Y-113741471D01*
X184070426Y-112762823D01*
X183696702Y-111858343D01*
X183005297Y-111165730D01*
X182101471Y-110790428D01*
X181122823Y-110789574D01*
X180218343Y-111163298D01*
X179525730Y-111854703D01*
X179150428Y-112758529D01*
X179149574Y-113737177D01*
X156895119Y-113737177D01*
X156792243Y-113488200D01*
X156388923Y-113084176D01*
X156258785Y-113030138D01*
X156386800Y-112977243D01*
X156790824Y-112573923D01*
X157009750Y-112046691D01*
X157009752Y-112044187D01*
X160489752Y-112044187D01*
X160707757Y-112571800D01*
X161111077Y-112975824D01*
X161638309Y-113194750D01*
X162209187Y-113195248D01*
X162736800Y-112977243D01*
X163140824Y-112573923D01*
X163359750Y-112046691D01*
X163360000Y-111760000D01*
X168081887Y-111760000D01*
X168191120Y-112309151D01*
X168502189Y-112774698D01*
X168967736Y-113085767D01*
X169516887Y-113195000D01*
X169573113Y-113195000D01*
X170122264Y-113085767D01*
X170587811Y-112774698D01*
X170898880Y-112309151D01*
X171008113Y-111760000D01*
X170898880Y-111210849D01*
X170587811Y-110745302D01*
X170122264Y-110434233D01*
X169573113Y-110325000D01*
X169516887Y-110325000D01*
X168967736Y-110434233D01*
X168502189Y-110745302D01*
X168191120Y-111210849D01*
X168081887Y-111760000D01*
X163360000Y-111760000D01*
X163360248Y-111475813D01*
X163142243Y-110948200D01*
X162738923Y-110544176D01*
X162211691Y-110325250D01*
X161640813Y-110324752D01*
X161113200Y-110542757D01*
X160709176Y-110946077D01*
X160490250Y-111473309D01*
X160489752Y-112044187D01*
X157009752Y-112044187D01*
X157010248Y-111475813D01*
X156792243Y-110948200D01*
X156388923Y-110544176D01*
X156258785Y-110490138D01*
X156386800Y-110437243D01*
X156790824Y-110033923D01*
X157009750Y-109506691D01*
X157010248Y-108935813D01*
X156792243Y-108408200D01*
X156388923Y-108004176D01*
X156258785Y-107950138D01*
X156259118Y-107950000D01*
X160461887Y-107950000D01*
X160571120Y-108499151D01*
X160882189Y-108964698D01*
X161347736Y-109275767D01*
X161896887Y-109385000D01*
X161953113Y-109385000D01*
X162502264Y-109275767D01*
X162967811Y-108964698D01*
X163278880Y-108499151D01*
X163331584Y-108234187D01*
X168109752Y-108234187D01*
X168327757Y-108761800D01*
X168731077Y-109165824D01*
X169258309Y-109384750D01*
X169829187Y-109385248D01*
X170356800Y-109167243D01*
X170760824Y-108763923D01*
X170979750Y-108236691D01*
X170980248Y-107665813D01*
X170762243Y-107138200D01*
X170358923Y-106734176D01*
X169831691Y-106515250D01*
X169260813Y-106514752D01*
X168733200Y-106732757D01*
X168329176Y-107136077D01*
X168110250Y-107663309D01*
X168109752Y-108234187D01*
X163331584Y-108234187D01*
X163388113Y-107950000D01*
X163278880Y-107400849D01*
X162967811Y-106935302D01*
X162502264Y-106624233D01*
X161953113Y-106515000D01*
X161896887Y-106515000D01*
X161347736Y-106624233D01*
X160882189Y-106935302D01*
X160571120Y-107400849D01*
X160461887Y-107950000D01*
X156259118Y-107950000D01*
X156386800Y-107897243D01*
X156790824Y-107493923D01*
X157009750Y-106966691D01*
X157010248Y-106395813D01*
X156792243Y-105868200D01*
X156608649Y-105684285D01*
X171334760Y-105684285D01*
X171545169Y-106193515D01*
X171934436Y-106583461D01*
X172166870Y-106679976D01*
X171936485Y-106775169D01*
X171546539Y-107164436D01*
X171335241Y-107673298D01*
X171334760Y-108224285D01*
X171545169Y-108733515D01*
X171934436Y-109123461D01*
X172166870Y-109219976D01*
X171936485Y-109315169D01*
X171546539Y-109704436D01*
X171335241Y-110213298D01*
X171334760Y-110764285D01*
X171545169Y-111273515D01*
X171934436Y-111663461D01*
X172443298Y-111874759D01*
X172994285Y-111875240D01*
X173503515Y-111664831D01*
X173862560Y-111306411D01*
X173862560Y-112510000D01*
X173906838Y-112745317D01*
X174045910Y-112961441D01*
X174258110Y-113106431D01*
X174510000Y-113157440D01*
X176010000Y-113157440D01*
X176245317Y-113113162D01*
X176461441Y-112974090D01*
X176606431Y-112761890D01*
X176657440Y-112510000D01*
X176657440Y-111010000D01*
X176613162Y-110774683D01*
X176474090Y-110558559D01*
X176261890Y-110413569D01*
X176064738Y-110373645D01*
X176433461Y-110005564D01*
X176644759Y-109496702D01*
X176645240Y-108945715D01*
X176434831Y-108436485D01*
X176045564Y-108046539D01*
X175813130Y-107950024D01*
X176043515Y-107854831D01*
X176433461Y-107465564D01*
X176644759Y-106956702D01*
X176645240Y-106405715D01*
X176434831Y-105896485D01*
X176112094Y-105573185D01*
X176119720Y-105527221D01*
X175260000Y-104667502D01*
X175245858Y-104681644D01*
X174718356Y-104154142D01*
X174732498Y-104140000D01*
X175787502Y-104140000D01*
X176647221Y-104999720D01*
X176997827Y-104941551D01*
X177172284Y-104215499D01*
X177055613Y-103477953D01*
X176997827Y-103338449D01*
X176647221Y-103280280D01*
X175787502Y-104140000D01*
X174732498Y-104140000D01*
X174718356Y-104125858D01*
X175245858Y-103598356D01*
X175260000Y-103612498D01*
X176119720Y-102752779D01*
X176061551Y-102402173D01*
X175335499Y-102227716D01*
X174597953Y-102344387D01*
X174540932Y-102368007D01*
X174515613Y-102207953D01*
X174457827Y-102068449D01*
X174107221Y-102010280D01*
X173247502Y-102870000D01*
X173261644Y-102884142D01*
X172734142Y-103411644D01*
X172720000Y-103397502D01*
X171860280Y-104257221D01*
X171867969Y-104303566D01*
X171546539Y-104624436D01*
X171335241Y-105133298D01*
X171334760Y-105684285D01*
X156608649Y-105684285D01*
X156388923Y-105464176D01*
X156258785Y-105410138D01*
X156386800Y-105357243D01*
X156790824Y-104953923D01*
X157009750Y-104426691D01*
X157010000Y-104140000D01*
X160461887Y-104140000D01*
X160571120Y-104689151D01*
X160882189Y-105154698D01*
X161347736Y-105465767D01*
X161896887Y-105575000D01*
X161953113Y-105575000D01*
X162502264Y-105465767D01*
X162967811Y-105154698D01*
X163278880Y-104689151D01*
X163331584Y-104424187D01*
X168109752Y-104424187D01*
X168327757Y-104951800D01*
X168731077Y-105355824D01*
X169258309Y-105574750D01*
X169829187Y-105575248D01*
X170356800Y-105357243D01*
X170760824Y-104953923D01*
X170979750Y-104426691D01*
X170980248Y-103855813D01*
X170762243Y-103328200D01*
X170358923Y-102924176D01*
X170046632Y-102794501D01*
X170807716Y-102794501D01*
X170924387Y-103532047D01*
X170982173Y-103671551D01*
X171332779Y-103729720D01*
X172192498Y-102870000D01*
X171332779Y-102010280D01*
X170982173Y-102068449D01*
X170807716Y-102794501D01*
X170046632Y-102794501D01*
X169831691Y-102705250D01*
X169260813Y-102704752D01*
X168733200Y-102922757D01*
X168329176Y-103326077D01*
X168110250Y-103853309D01*
X168109752Y-104424187D01*
X163331584Y-104424187D01*
X163388113Y-104140000D01*
X163278880Y-103590849D01*
X162967811Y-103125302D01*
X162502264Y-102814233D01*
X161953113Y-102705000D01*
X161896887Y-102705000D01*
X161347736Y-102814233D01*
X160882189Y-103125302D01*
X160571120Y-103590849D01*
X160461887Y-104140000D01*
X157010000Y-104140000D01*
X157010248Y-103855813D01*
X156792243Y-103328200D01*
X156388923Y-102924176D01*
X156258785Y-102870138D01*
X156386800Y-102817243D01*
X156790824Y-102413923D01*
X157009750Y-101886691D01*
X157010248Y-101315813D01*
X156792243Y-100788200D01*
X156388923Y-100384176D01*
X156258785Y-100330138D01*
X156259118Y-100330000D01*
X160461887Y-100330000D01*
X160571120Y-100879151D01*
X160882189Y-101344698D01*
X161347736Y-101655767D01*
X161896887Y-101765000D01*
X161953113Y-101765000D01*
X162502264Y-101655767D01*
X162967811Y-101344698D01*
X163278880Y-100879151D01*
X163331584Y-100614187D01*
X168109752Y-100614187D01*
X168327757Y-101141800D01*
X168731077Y-101545824D01*
X169258309Y-101764750D01*
X169829187Y-101765248D01*
X170356800Y-101547243D01*
X170421376Y-101482779D01*
X171860280Y-101482779D01*
X172720000Y-102342498D01*
X173195321Y-101867177D01*
X179149574Y-101867177D01*
X179523298Y-102771657D01*
X180214703Y-103464270D01*
X181118529Y-103839572D01*
X182097177Y-103840426D01*
X183001657Y-103466702D01*
X183694270Y-102775297D01*
X184069572Y-101871471D01*
X184070426Y-100892823D01*
X183696702Y-99988343D01*
X183005297Y-99295730D01*
X182101471Y-98920428D01*
X181122823Y-98919574D01*
X180218343Y-99293298D01*
X179525730Y-99984703D01*
X179150428Y-100888529D01*
X179149574Y-101867177D01*
X173195321Y-101867177D01*
X173579720Y-101482779D01*
X173521551Y-101132173D01*
X172795499Y-100957716D01*
X172057953Y-101074387D01*
X171918449Y-101132173D01*
X171860280Y-101482779D01*
X170421376Y-101482779D01*
X170760824Y-101143923D01*
X170979750Y-100616691D01*
X170980248Y-100045813D01*
X170762243Y-99518200D01*
X170358923Y-99114176D01*
X169831691Y-98895250D01*
X169260813Y-98894752D01*
X168733200Y-99112757D01*
X168329176Y-99516077D01*
X168110250Y-100043309D01*
X168109752Y-100614187D01*
X163331584Y-100614187D01*
X163388113Y-100330000D01*
X163278880Y-99780849D01*
X162967811Y-99315302D01*
X162502264Y-99004233D01*
X161953113Y-98895000D01*
X161896887Y-98895000D01*
X161347736Y-99004233D01*
X160882189Y-99315302D01*
X160571120Y-99780849D01*
X160461887Y-100330000D01*
X156259118Y-100330000D01*
X156386800Y-100277243D01*
X156790824Y-99873923D01*
X157009750Y-99346691D01*
X157010248Y-98775813D01*
X156792243Y-98248200D01*
X156388923Y-97844176D01*
X156258785Y-97790138D01*
X156386800Y-97737243D01*
X156790824Y-97333923D01*
X157009750Y-96806691D01*
X157010000Y-96520000D01*
X160461887Y-96520000D01*
X160571120Y-97069151D01*
X160882189Y-97534698D01*
X161347736Y-97845767D01*
X161896887Y-97955000D01*
X161953113Y-97955000D01*
X162502264Y-97845767D01*
X162967811Y-97534698D01*
X163278880Y-97069151D01*
X163331584Y-96804187D01*
X168109752Y-96804187D01*
X168327757Y-97331800D01*
X168731077Y-97735824D01*
X169258309Y-97954750D01*
X169829187Y-97955248D01*
X170356800Y-97737243D01*
X170760824Y-97333923D01*
X170979750Y-96806691D01*
X170979937Y-96592177D01*
X179149574Y-96592177D01*
X179523298Y-97496657D01*
X180214703Y-98189270D01*
X181118529Y-98564572D01*
X182097177Y-98565426D01*
X183001657Y-98191702D01*
X183694270Y-97500297D01*
X184069572Y-96596471D01*
X184070426Y-95617823D01*
X183696702Y-94713343D01*
X183005297Y-94020730D01*
X182101471Y-93645428D01*
X181122823Y-93644574D01*
X180218343Y-94018298D01*
X179525730Y-94709703D01*
X179150428Y-95613529D01*
X179149574Y-96592177D01*
X170979937Y-96592177D01*
X170980248Y-96235813D01*
X170762243Y-95708200D01*
X170358923Y-95304176D01*
X169831691Y-95085250D01*
X169260813Y-95084752D01*
X168733200Y-95302757D01*
X168329176Y-95706077D01*
X168110250Y-96233309D01*
X168109752Y-96804187D01*
X163331584Y-96804187D01*
X163388113Y-96520000D01*
X163278880Y-95970849D01*
X162967811Y-95505302D01*
X162502264Y-95194233D01*
X161953113Y-95085000D01*
X161896887Y-95085000D01*
X161347736Y-95194233D01*
X160882189Y-95505302D01*
X160571120Y-95970849D01*
X160461887Y-96520000D01*
X157010000Y-96520000D01*
X157010248Y-96235813D01*
X156792243Y-95708200D01*
X156388923Y-95304176D01*
X156258785Y-95250138D01*
X156386800Y-95197243D01*
X156790824Y-94793923D01*
X157009750Y-94266691D01*
X157010248Y-93695813D01*
X156792243Y-93168200D01*
X156388923Y-92764176D01*
X156258785Y-92710138D01*
X156259118Y-92710000D01*
X160461887Y-92710000D01*
X160571120Y-93259151D01*
X160882189Y-93724698D01*
X161347736Y-94035767D01*
X161896887Y-94145000D01*
X161953113Y-94145000D01*
X162502264Y-94035767D01*
X162967811Y-93724698D01*
X163278880Y-93259151D01*
X163331584Y-92994187D01*
X168109752Y-92994187D01*
X168327757Y-93521800D01*
X168731077Y-93925824D01*
X169258309Y-94144750D01*
X169829187Y-94145248D01*
X170356800Y-93927243D01*
X170760824Y-93523923D01*
X170979750Y-92996691D01*
X170980248Y-92425813D01*
X170762243Y-91898200D01*
X170358923Y-91494176D01*
X169831691Y-91275250D01*
X169260813Y-91274752D01*
X168733200Y-91492757D01*
X168329176Y-91896077D01*
X168110250Y-92423309D01*
X168109752Y-92994187D01*
X163331584Y-92994187D01*
X163388113Y-92710000D01*
X163278880Y-92160849D01*
X162967811Y-91695302D01*
X162502264Y-91384233D01*
X161953113Y-91275000D01*
X161896887Y-91275000D01*
X161347736Y-91384233D01*
X160882189Y-91695302D01*
X160571120Y-92160849D01*
X160461887Y-92710000D01*
X156259118Y-92710000D01*
X156386800Y-92657243D01*
X156790824Y-92253923D01*
X157009750Y-91726691D01*
X157010248Y-91155813D01*
X156792243Y-90628200D01*
X156388923Y-90224176D01*
X156258785Y-90170138D01*
X156386800Y-90117243D01*
X156790824Y-89713923D01*
X157009750Y-89186691D01*
X157010000Y-88900000D01*
X160461887Y-88900000D01*
X160571120Y-89449151D01*
X160882189Y-89914698D01*
X161347736Y-90225767D01*
X161896887Y-90335000D01*
X161953113Y-90335000D01*
X162502264Y-90225767D01*
X162967811Y-89914698D01*
X163278880Y-89449151D01*
X163331584Y-89184187D01*
X168109752Y-89184187D01*
X168327757Y-89711800D01*
X168731077Y-90115824D01*
X169258309Y-90334750D01*
X169829187Y-90335248D01*
X170356800Y-90117243D01*
X170760824Y-89713923D01*
X170979750Y-89186691D01*
X170980248Y-88615813D01*
X170948628Y-88539285D01*
X171334760Y-88539285D01*
X171545169Y-89048515D01*
X171934436Y-89438461D01*
X172166870Y-89534976D01*
X171936485Y-89630169D01*
X171546539Y-90019436D01*
X171335241Y-90528298D01*
X171334760Y-91079285D01*
X171545169Y-91588515D01*
X171934436Y-91978461D01*
X172166870Y-92074976D01*
X171936485Y-92170169D01*
X171546539Y-92559436D01*
X171335241Y-93068298D01*
X171334760Y-93619285D01*
X171545169Y-94128515D01*
X171934436Y-94518461D01*
X172443298Y-94729759D01*
X172994285Y-94730240D01*
X173503515Y-94519831D01*
X173862560Y-94161411D01*
X173862560Y-95365000D01*
X173906838Y-95600317D01*
X174045910Y-95816441D01*
X174258110Y-95961431D01*
X174510000Y-96012440D01*
X176010000Y-96012440D01*
X176245317Y-95968162D01*
X176461441Y-95829090D01*
X176606431Y-95616890D01*
X176657440Y-95365000D01*
X176657440Y-93865000D01*
X176613162Y-93629683D01*
X176474090Y-93413559D01*
X176261890Y-93268569D01*
X176064738Y-93228645D01*
X176433461Y-92860564D01*
X176644759Y-92351702D01*
X176645240Y-91800715D01*
X176434831Y-91291485D01*
X176045564Y-90901539D01*
X175813130Y-90805024D01*
X176043515Y-90709831D01*
X176433461Y-90320564D01*
X176644759Y-89811702D01*
X176645240Y-89260715D01*
X176434831Y-88751485D01*
X176112094Y-88428185D01*
X176119720Y-88382221D01*
X175260000Y-87522502D01*
X175245858Y-87536644D01*
X174718356Y-87009142D01*
X174732498Y-86995000D01*
X175787502Y-86995000D01*
X176647221Y-87854720D01*
X176997827Y-87796551D01*
X177172284Y-87070499D01*
X177055613Y-86332953D01*
X176997827Y-86193449D01*
X176647221Y-86135280D01*
X175787502Y-86995000D01*
X174732498Y-86995000D01*
X174718356Y-86980858D01*
X175245858Y-86453356D01*
X175260000Y-86467498D01*
X176119720Y-85607779D01*
X176061551Y-85257173D01*
X175335499Y-85082716D01*
X174597953Y-85199387D01*
X174540932Y-85223007D01*
X174515613Y-85062953D01*
X174457827Y-84923449D01*
X174107221Y-84865280D01*
X173247502Y-85725000D01*
X173261644Y-85739142D01*
X172734142Y-86266644D01*
X172720000Y-86252502D01*
X171860280Y-87112221D01*
X171867969Y-87158566D01*
X171546539Y-87479436D01*
X171335241Y-87988298D01*
X171334760Y-88539285D01*
X170948628Y-88539285D01*
X170762243Y-88088200D01*
X170358923Y-87684176D01*
X169831691Y-87465250D01*
X169260813Y-87464752D01*
X168733200Y-87682757D01*
X168329176Y-88086077D01*
X168110250Y-88613309D01*
X168109752Y-89184187D01*
X163331584Y-89184187D01*
X163388113Y-88900000D01*
X163278880Y-88350849D01*
X162967811Y-87885302D01*
X162502264Y-87574233D01*
X161953113Y-87465000D01*
X161896887Y-87465000D01*
X161347736Y-87574233D01*
X160882189Y-87885302D01*
X160571120Y-88350849D01*
X160461887Y-88900000D01*
X157010000Y-88900000D01*
X157010248Y-88615813D01*
X156792243Y-88088200D01*
X156388923Y-87684176D01*
X156258785Y-87630138D01*
X156386800Y-87577243D01*
X156790824Y-87173923D01*
X157009750Y-86646691D01*
X157010248Y-86075813D01*
X156792243Y-85548200D01*
X156388923Y-85144176D01*
X156258785Y-85090138D01*
X156259118Y-85090000D01*
X160461887Y-85090000D01*
X160571120Y-85639151D01*
X160882189Y-86104698D01*
X161347736Y-86415767D01*
X161896887Y-86525000D01*
X161953113Y-86525000D01*
X162502264Y-86415767D01*
X162967811Y-86104698D01*
X163278880Y-85639151D01*
X163331584Y-85374187D01*
X168109752Y-85374187D01*
X168327757Y-85901800D01*
X168731077Y-86305824D01*
X169258309Y-86524750D01*
X169829187Y-86525248D01*
X170356800Y-86307243D01*
X170760824Y-85903923D01*
X170823924Y-85751961D01*
X170924387Y-86387047D01*
X170982173Y-86526551D01*
X171332779Y-86584720D01*
X172192498Y-85725000D01*
X171332779Y-84865280D01*
X170982173Y-84923449D01*
X170980138Y-84931918D01*
X170980248Y-84805813D01*
X170786861Y-84337779D01*
X171860280Y-84337779D01*
X172720000Y-85197498D01*
X173195321Y-84722177D01*
X179149574Y-84722177D01*
X179523298Y-85626657D01*
X180214703Y-86319270D01*
X181118529Y-86694572D01*
X182097177Y-86695426D01*
X183001657Y-86321702D01*
X183694270Y-85630297D01*
X184069572Y-84726471D01*
X184070426Y-83747823D01*
X183696702Y-82843343D01*
X183005297Y-82150730D01*
X182101471Y-81775428D01*
X181122823Y-81774574D01*
X180218343Y-82148298D01*
X179525730Y-82839703D01*
X179150428Y-83743529D01*
X179149574Y-84722177D01*
X173195321Y-84722177D01*
X173579720Y-84337779D01*
X173521551Y-83987173D01*
X172795499Y-83812716D01*
X172057953Y-83929387D01*
X171918449Y-83987173D01*
X171860280Y-84337779D01*
X170786861Y-84337779D01*
X170762243Y-84278200D01*
X170358923Y-83874176D01*
X169831691Y-83655250D01*
X169260813Y-83654752D01*
X168733200Y-83872757D01*
X168329176Y-84276077D01*
X168110250Y-84803309D01*
X168109752Y-85374187D01*
X163331584Y-85374187D01*
X163388113Y-85090000D01*
X163278880Y-84540849D01*
X162967811Y-84075302D01*
X162502264Y-83764233D01*
X161953113Y-83655000D01*
X161896887Y-83655000D01*
X161347736Y-83764233D01*
X160882189Y-84075302D01*
X160571120Y-84540849D01*
X160461887Y-85090000D01*
X156259118Y-85090000D01*
X156386800Y-85037243D01*
X156790824Y-84633923D01*
X157009750Y-84106691D01*
X157010248Y-83535813D01*
X156792243Y-83008200D01*
X156388923Y-82604176D01*
X156258785Y-82550138D01*
X156386800Y-82497243D01*
X156790824Y-82093923D01*
X157009750Y-81566691D01*
X157010000Y-81280000D01*
X160461887Y-81280000D01*
X160571120Y-81829151D01*
X160882189Y-82294698D01*
X161347736Y-82605767D01*
X161896887Y-82715000D01*
X161953113Y-82715000D01*
X162502264Y-82605767D01*
X162967811Y-82294698D01*
X163278880Y-81829151D01*
X163331584Y-81564187D01*
X168109752Y-81564187D01*
X168327757Y-82091800D01*
X168731077Y-82495824D01*
X169258309Y-82714750D01*
X169829187Y-82715248D01*
X170356800Y-82497243D01*
X170760824Y-82093923D01*
X170979750Y-81566691D01*
X170980248Y-80995813D01*
X170762243Y-80468200D01*
X170358923Y-80064176D01*
X169831691Y-79845250D01*
X169260813Y-79844752D01*
X168733200Y-80062757D01*
X168329176Y-80466077D01*
X168110250Y-80993309D01*
X168109752Y-81564187D01*
X163331584Y-81564187D01*
X163388113Y-81280000D01*
X163278880Y-80730849D01*
X162967811Y-80265302D01*
X162502264Y-79954233D01*
X161953113Y-79845000D01*
X161896887Y-79845000D01*
X161347736Y-79954233D01*
X160882189Y-80265302D01*
X160571120Y-80730849D01*
X160461887Y-81280000D01*
X157010000Y-81280000D01*
X157010248Y-80995813D01*
X156792243Y-80468200D01*
X156388923Y-80064176D01*
X155861691Y-79845250D01*
X155290813Y-79844752D01*
X154763200Y-80062757D01*
X154359176Y-80466077D01*
X154140250Y-80993309D01*
X154139752Y-81564187D01*
X154357757Y-82091800D01*
X154761077Y-82495824D01*
X154891215Y-82549862D01*
X154763200Y-82602757D01*
X154359176Y-83006077D01*
X154140250Y-83533309D01*
X154139752Y-84104187D01*
X154357757Y-84631800D01*
X154761077Y-85035824D01*
X154891215Y-85089862D01*
X154763200Y-85142757D01*
X154359176Y-85546077D01*
X154140250Y-86073309D01*
X154139752Y-86644187D01*
X154357757Y-87171800D01*
X154761077Y-87575824D01*
X154891215Y-87629862D01*
X154763200Y-87682757D01*
X154359176Y-88086077D01*
X154140250Y-88613309D01*
X154139752Y-89184187D01*
X154357757Y-89711800D01*
X154761077Y-90115824D01*
X154891215Y-90169862D01*
X154763200Y-90222757D01*
X154359176Y-90626077D01*
X154140250Y-91153309D01*
X154139752Y-91724187D01*
X154357757Y-92251800D01*
X154761077Y-92655824D01*
X154891215Y-92709862D01*
X154763200Y-92762757D01*
X154359176Y-93166077D01*
X154305138Y-93296215D01*
X154252243Y-93168200D01*
X153848923Y-92764176D01*
X153321691Y-92545250D01*
X152750813Y-92544752D01*
X152223200Y-92762757D01*
X151819176Y-93166077D01*
X151765138Y-93296215D01*
X151712243Y-93168200D01*
X151308923Y-92764176D01*
X150781691Y-92545250D01*
X150210813Y-92544752D01*
X149683200Y-92762757D01*
X149279176Y-93166077D01*
X149225138Y-93296215D01*
X149172243Y-93168200D01*
X148768923Y-92764176D01*
X148638785Y-92710138D01*
X148766800Y-92657243D01*
X149170824Y-92253923D01*
X149389750Y-91726691D01*
X149390248Y-91155813D01*
X149172243Y-90628200D01*
X148768923Y-90224176D01*
X148638785Y-90170138D01*
X148766800Y-90117243D01*
X149170824Y-89713923D01*
X149389750Y-89186691D01*
X149390248Y-88615813D01*
X149172243Y-88088200D01*
X148768923Y-87684176D01*
X148638785Y-87630138D01*
X148766800Y-87577243D01*
X149170824Y-87173923D01*
X149389750Y-86646691D01*
X149390248Y-86075813D01*
X149172243Y-85548200D01*
X148768923Y-85144176D01*
X148638785Y-85090138D01*
X148766800Y-85037243D01*
X149170824Y-84633923D01*
X149389750Y-84106691D01*
X149390248Y-83535813D01*
X149172243Y-83008200D01*
X148768923Y-82604176D01*
X148638785Y-82550138D01*
X148766800Y-82497243D01*
X149170824Y-82093923D01*
X149389750Y-81566691D01*
X149390248Y-80995813D01*
X149172243Y-80468200D01*
X148768923Y-80064176D01*
X148241691Y-79845250D01*
X147670813Y-79844752D01*
X147143200Y-80062757D01*
X146739176Y-80466077D01*
X146685138Y-80596215D01*
X146632243Y-80468200D01*
X146228923Y-80064176D01*
X145701691Y-79845250D01*
X145130813Y-79844752D01*
X144603200Y-80062757D01*
X144199176Y-80466077D01*
X143980250Y-80993309D01*
X143979752Y-81564187D01*
X144197757Y-82091800D01*
X144601077Y-82495824D01*
X144731215Y-82549862D01*
X144603200Y-82602757D01*
X144199176Y-83006077D01*
X143980250Y-83533309D01*
X143979752Y-84104187D01*
X144197757Y-84631800D01*
X144601077Y-85035824D01*
X144731215Y-85089862D01*
X144603200Y-85142757D01*
X144199176Y-85546077D01*
X143980250Y-86073309D01*
X143979752Y-86644187D01*
X144197757Y-87171800D01*
X144601077Y-87575824D01*
X144731215Y-87629862D01*
X144603200Y-87682757D01*
X144199176Y-88086077D01*
X143980250Y-88613309D01*
X143979752Y-89184187D01*
X144197757Y-89711800D01*
X144601077Y-90115824D01*
X144731215Y-90169862D01*
X144603200Y-90222757D01*
X144199176Y-90626077D01*
X143980250Y-91153309D01*
X143979752Y-91724187D01*
X144197757Y-92251800D01*
X144601077Y-92655824D01*
X144731215Y-92709862D01*
X144603200Y-92762757D01*
X144199176Y-93166077D01*
X144145138Y-93296215D01*
X144092243Y-93168200D01*
X143688923Y-92764176D01*
X143161691Y-92545250D01*
X142590813Y-92544752D01*
X142063200Y-92762757D01*
X141659176Y-93166077D01*
X141605138Y-93296215D01*
X141552243Y-93168200D01*
X141148923Y-92764176D01*
X141018785Y-92710138D01*
X141146800Y-92657243D01*
X141550824Y-92253923D01*
X141769750Y-91726691D01*
X141770248Y-91155813D01*
X141552243Y-90628200D01*
X141148923Y-90224176D01*
X141018785Y-90170138D01*
X141146800Y-90117243D01*
X141550824Y-89713923D01*
X141769750Y-89186691D01*
X141770248Y-88615813D01*
X141552243Y-88088200D01*
X141148923Y-87684176D01*
X141018785Y-87630138D01*
X141146800Y-87577243D01*
X141550824Y-87173923D01*
X141769750Y-86646691D01*
X141770248Y-86075813D01*
X141552243Y-85548200D01*
X141148923Y-85144176D01*
X141018785Y-85090138D01*
X141146800Y-85037243D01*
X141550824Y-84633923D01*
X141769750Y-84106691D01*
X141770248Y-83535813D01*
X141552243Y-83008200D01*
X141148923Y-82604176D01*
X141018785Y-82550138D01*
X141146800Y-82497243D01*
X141550824Y-82093923D01*
X141769750Y-81566691D01*
X141770248Y-80995813D01*
X141552243Y-80468200D01*
X141148923Y-80064176D01*
X140621691Y-79845250D01*
X140050813Y-79844752D01*
X139523200Y-80062757D01*
X139119176Y-80466077D01*
X138900250Y-80993309D01*
X138899752Y-81564187D01*
X139117757Y-82091800D01*
X139521077Y-82495824D01*
X139651215Y-82549862D01*
X139523200Y-82602757D01*
X139119176Y-83006077D01*
X138900250Y-83533309D01*
X138899752Y-84104187D01*
X139117757Y-84631800D01*
X139521077Y-85035824D01*
X139651215Y-85089862D01*
X139523200Y-85142757D01*
X139119176Y-85546077D01*
X138900250Y-86073309D01*
X138899752Y-86644187D01*
X139117757Y-87171800D01*
X139521077Y-87575824D01*
X139651215Y-87629862D01*
X139523200Y-87682757D01*
X139119176Y-88086077D01*
X138900250Y-88613309D01*
X138899752Y-89184187D01*
X139117757Y-89711800D01*
X139521077Y-90115824D01*
X139651215Y-90169862D01*
X139523200Y-90222757D01*
X139119176Y-90626077D01*
X138900250Y-91153309D01*
X138899752Y-91724187D01*
X139117757Y-92251800D01*
X139521077Y-92655824D01*
X139651215Y-92709862D01*
X139523200Y-92762757D01*
X139119176Y-93166077D01*
X138900250Y-93693309D01*
X138899752Y-94264187D01*
X139117757Y-94791800D01*
X139521077Y-95195824D01*
X139651215Y-95249862D01*
X139523200Y-95302757D01*
X139119176Y-95706077D01*
X138900250Y-96233309D01*
X138899752Y-96804187D01*
X139117757Y-97331800D01*
X139521077Y-97735824D01*
X139651215Y-97789862D01*
X139523200Y-97842757D01*
X139119176Y-98246077D01*
X138900250Y-98773309D01*
X138899752Y-99344187D01*
X139117757Y-99871800D01*
X139521077Y-100275824D01*
X139651215Y-100329862D01*
X139523200Y-100382757D01*
X139119176Y-100786077D01*
X138900250Y-101313309D01*
X138899752Y-101884187D01*
X139117757Y-102411800D01*
X139521077Y-102815824D01*
X139651215Y-102869862D01*
X139523200Y-102922757D01*
X139119176Y-103326077D01*
X138900250Y-103853309D01*
X138899752Y-104424187D01*
X139117757Y-104951800D01*
X139521077Y-105355824D01*
X139651215Y-105409862D01*
X139523200Y-105462757D01*
X139119176Y-105866077D01*
X138900250Y-106393309D01*
X138899752Y-106964187D01*
X139117757Y-107491800D01*
X139521077Y-107895824D01*
X139651215Y-107949862D01*
X139523200Y-108002757D01*
X139119176Y-108406077D01*
X138900250Y-108933309D01*
X138899752Y-109504187D01*
X139117757Y-110031800D01*
X139521077Y-110435824D01*
X139651215Y-110489862D01*
X139523200Y-110542757D01*
X139119176Y-110946077D01*
X138900250Y-111473309D01*
X138899752Y-112044187D01*
X139117757Y-112571800D01*
X139521077Y-112975824D01*
X139651215Y-113029862D01*
X139523200Y-113082757D01*
X139119176Y-113486077D01*
X138900250Y-114013309D01*
X138899752Y-114584187D01*
X139117757Y-115111800D01*
X139521077Y-115515824D01*
X139651215Y-115569862D01*
X139523200Y-115622757D01*
X139119176Y-116026077D01*
X138900250Y-116553309D01*
X138899752Y-117124187D01*
X139117757Y-117651800D01*
X139521077Y-118055824D01*
X139651215Y-118109862D01*
X139523200Y-118162757D01*
X139119176Y-118566077D01*
X138900250Y-119093309D01*
X138899752Y-119664187D01*
X139117757Y-120191800D01*
X139521077Y-120595824D01*
X139651215Y-120649862D01*
X139523200Y-120702757D01*
X139119176Y-121106077D01*
X138900250Y-121633309D01*
X138899752Y-122204187D01*
X139117757Y-122731800D01*
X139521077Y-123135824D01*
X139651215Y-123189862D01*
X139523200Y-123242757D01*
X139119176Y-123646077D01*
X138900250Y-124173309D01*
X138899752Y-124744187D01*
X139117757Y-125271800D01*
X139521077Y-125675824D01*
X139651215Y-125729862D01*
X139523200Y-125782757D01*
X139119176Y-126186077D01*
X138900250Y-126713309D01*
X138899752Y-127284187D01*
X139117757Y-127811800D01*
X139521077Y-128215824D01*
X139651215Y-128269862D01*
X139523200Y-128322757D01*
X139119176Y-128726077D01*
X138900250Y-129253309D01*
X138899752Y-129824187D01*
X139117757Y-130351800D01*
X139521077Y-130755824D01*
X139651215Y-130809862D01*
X139523200Y-130862757D01*
X139119176Y-131266077D01*
X138900250Y-131793309D01*
X138899752Y-132364187D01*
X139117757Y-132891800D01*
X139521077Y-133295824D01*
X139651215Y-133349862D01*
X139523200Y-133402757D01*
X139119176Y-133806077D01*
X138900250Y-134333309D01*
X138899752Y-134904187D01*
X139117757Y-135431800D01*
X139521077Y-135835824D01*
X139651215Y-135889862D01*
X139523200Y-135942757D01*
X139119176Y-136346077D01*
X138900250Y-136873309D01*
X138899752Y-137444187D01*
X139117757Y-137971800D01*
X139521077Y-138375824D01*
X139651215Y-138429862D01*
X139523200Y-138482757D01*
X139119176Y-138886077D01*
X138900250Y-139413309D01*
X138899752Y-139984187D01*
X139117757Y-140511800D01*
X139521077Y-140915824D01*
X139820126Y-141040000D01*
X129569931Y-141040000D01*
X128789776Y-140884818D01*
X129818894Y-140885716D01*
X131339229Y-140257526D01*
X132503438Y-139095347D01*
X133134280Y-137576111D01*
X133135716Y-135931106D01*
X132507526Y-134410771D01*
X131345347Y-133246562D01*
X129826111Y-132615720D01*
X128683421Y-132614722D01*
X129041657Y-132466702D01*
X129734270Y-131775297D01*
X130109572Y-130871471D01*
X130110090Y-130277221D01*
X135680280Y-130277221D01*
X135738449Y-130627827D01*
X136464501Y-130802284D01*
X137202047Y-130685613D01*
X137341551Y-130627827D01*
X137399720Y-130277221D01*
X136540000Y-129417502D01*
X135680280Y-130277221D01*
X130110090Y-130277221D01*
X130110426Y-129892823D01*
X129736702Y-128988343D01*
X129045297Y-128295730D01*
X128141471Y-127920428D01*
X127162823Y-127919574D01*
X126258343Y-128293298D01*
X125565730Y-128984703D01*
X125190428Y-129888529D01*
X125189574Y-130867177D01*
X125563298Y-131771657D01*
X126254703Y-132464270D01*
X127158529Y-132839572D01*
X127634862Y-132839988D01*
X126660771Y-133242474D01*
X125496562Y-134404653D01*
X124960000Y-135696838D01*
X124960000Y-127544501D01*
X132087716Y-127544501D01*
X132204387Y-128282047D01*
X132262173Y-128421551D01*
X132612779Y-128479720D01*
X133472498Y-127620000D01*
X132612779Y-126760280D01*
X132262173Y-126818449D01*
X132087716Y-127544501D01*
X124960000Y-127544501D01*
X124960000Y-118997177D01*
X125189574Y-118997177D01*
X125563298Y-119901657D01*
X126254703Y-120594270D01*
X127158529Y-120969572D01*
X128137177Y-120970426D01*
X129041657Y-120596702D01*
X129734270Y-119905297D01*
X130006373Y-119250000D01*
X132602560Y-119250000D01*
X132602560Y-120750000D01*
X132646838Y-120985317D01*
X132785910Y-121201441D01*
X132998110Y-121346431D01*
X133195262Y-121386355D01*
X132826539Y-121754436D01*
X132615241Y-122263298D01*
X132614760Y-122814285D01*
X132825169Y-123323515D01*
X133214436Y-123713461D01*
X133446870Y-123809976D01*
X133216485Y-123905169D01*
X132826539Y-124294436D01*
X132615241Y-124803298D01*
X132614760Y-125354285D01*
X132825169Y-125863515D01*
X133147906Y-126186815D01*
X133140280Y-126232779D01*
X134000000Y-127092498D01*
X134014142Y-127078356D01*
X134541644Y-127605858D01*
X134527502Y-127620000D01*
X134541644Y-127634142D01*
X134014142Y-128161644D01*
X134000000Y-128147502D01*
X133140280Y-129007221D01*
X133198449Y-129357827D01*
X133924501Y-129532284D01*
X134662047Y-129415613D01*
X134719068Y-129391993D01*
X134744387Y-129552047D01*
X134802173Y-129691551D01*
X135152779Y-129749720D01*
X136012498Y-128890000D01*
X137067502Y-128890000D01*
X137927221Y-129749720D01*
X138277827Y-129691551D01*
X138452284Y-128965499D01*
X138335613Y-128227953D01*
X138277827Y-128088449D01*
X137927221Y-128030280D01*
X137067502Y-128890000D01*
X136012498Y-128890000D01*
X135998356Y-128875858D01*
X136525858Y-128348356D01*
X136540000Y-128362498D01*
X137399720Y-127502779D01*
X137392031Y-127456434D01*
X137713461Y-127135564D01*
X137924759Y-126626702D01*
X137925240Y-126075715D01*
X137714831Y-125566485D01*
X137325564Y-125176539D01*
X137093130Y-125080024D01*
X137323515Y-124984831D01*
X137713461Y-124595564D01*
X137924759Y-124086702D01*
X137925240Y-123535715D01*
X137714831Y-123026485D01*
X137325564Y-122636539D01*
X137093130Y-122540024D01*
X137323515Y-122444831D01*
X137713461Y-122055564D01*
X137924759Y-121546702D01*
X137925240Y-120995715D01*
X137714831Y-120486485D01*
X137325564Y-120096539D01*
X136816702Y-119885241D01*
X136265715Y-119884760D01*
X135756485Y-120095169D01*
X135397440Y-120453589D01*
X135397440Y-119250000D01*
X135353162Y-119014683D01*
X135214090Y-118798559D01*
X135001890Y-118653569D01*
X134750000Y-118602560D01*
X133250000Y-118602560D01*
X133014683Y-118646838D01*
X132798559Y-118785910D01*
X132653569Y-118998110D01*
X132602560Y-119250000D01*
X130006373Y-119250000D01*
X130109572Y-119001471D01*
X130110426Y-118022823D01*
X129736702Y-117118343D01*
X129045297Y-116425730D01*
X128141471Y-116050428D01*
X127162823Y-116049574D01*
X126258343Y-116423298D01*
X125565730Y-117114703D01*
X125190428Y-118018529D01*
X125189574Y-118997177D01*
X124960000Y-118997177D01*
X124960000Y-113737177D01*
X125174574Y-113737177D01*
X125548298Y-114641657D01*
X126239703Y-115334270D01*
X127143529Y-115709572D01*
X128122177Y-115710426D01*
X129026657Y-115336702D01*
X129719270Y-114645297D01*
X130094572Y-113741471D01*
X130095090Y-113147221D01*
X135665280Y-113147221D01*
X135723449Y-113497827D01*
X136449501Y-113672284D01*
X137187047Y-113555613D01*
X137326551Y-113497827D01*
X137384720Y-113147221D01*
X136525000Y-112287502D01*
X135665280Y-113147221D01*
X130095090Y-113147221D01*
X130095426Y-112762823D01*
X129721702Y-111858343D01*
X129030297Y-111165730D01*
X128126471Y-110790428D01*
X127147823Y-110789574D01*
X126243343Y-111163298D01*
X125550730Y-111854703D01*
X125175428Y-112758529D01*
X125174574Y-113737177D01*
X124960000Y-113737177D01*
X124960000Y-110414501D01*
X132072716Y-110414501D01*
X132189387Y-111152047D01*
X132247173Y-111291551D01*
X132597779Y-111349720D01*
X133457498Y-110490000D01*
X132597779Y-109630280D01*
X132247173Y-109688449D01*
X132072716Y-110414501D01*
X124960000Y-110414501D01*
X124960000Y-101867177D01*
X125174574Y-101867177D01*
X125548298Y-102771657D01*
X126239703Y-103464270D01*
X127143529Y-103839572D01*
X128122177Y-103840426D01*
X129026657Y-103466702D01*
X129719270Y-102775297D01*
X129991373Y-102120000D01*
X132587560Y-102120000D01*
X132587560Y-103620000D01*
X132631838Y-103855317D01*
X132770910Y-104071441D01*
X132983110Y-104216431D01*
X133180262Y-104256355D01*
X132811539Y-104624436D01*
X132600241Y-105133298D01*
X132599760Y-105684285D01*
X132810169Y-106193515D01*
X133199436Y-106583461D01*
X133431870Y-106679976D01*
X133201485Y-106775169D01*
X132811539Y-107164436D01*
X132600241Y-107673298D01*
X132599760Y-108224285D01*
X132810169Y-108733515D01*
X133132906Y-109056815D01*
X133125280Y-109102779D01*
X133985000Y-109962498D01*
X133999142Y-109948356D01*
X134526644Y-110475858D01*
X134512502Y-110490000D01*
X134526644Y-110504142D01*
X133999142Y-111031644D01*
X133985000Y-111017502D01*
X133125280Y-111877221D01*
X133183449Y-112227827D01*
X133909501Y-112402284D01*
X134647047Y-112285613D01*
X134704068Y-112261993D01*
X134729387Y-112422047D01*
X134787173Y-112561551D01*
X135137779Y-112619720D01*
X135997498Y-111760000D01*
X137052502Y-111760000D01*
X137912221Y-112619720D01*
X138262827Y-112561551D01*
X138437284Y-111835499D01*
X138320613Y-111097953D01*
X138262827Y-110958449D01*
X137912221Y-110900280D01*
X137052502Y-111760000D01*
X135997498Y-111760000D01*
X135983356Y-111745858D01*
X136510858Y-111218356D01*
X136525000Y-111232498D01*
X137384720Y-110372779D01*
X137377031Y-110326434D01*
X137698461Y-110005564D01*
X137909759Y-109496702D01*
X137910240Y-108945715D01*
X137699831Y-108436485D01*
X137310564Y-108046539D01*
X137078130Y-107950024D01*
X137308515Y-107854831D01*
X137698461Y-107465564D01*
X137909759Y-106956702D01*
X137910240Y-106405715D01*
X137699831Y-105896485D01*
X137310564Y-105506539D01*
X137078130Y-105410024D01*
X137308515Y-105314831D01*
X137698461Y-104925564D01*
X137909759Y-104416702D01*
X137910240Y-103865715D01*
X137699831Y-103356485D01*
X137310564Y-102966539D01*
X136801702Y-102755241D01*
X136250715Y-102754760D01*
X135741485Y-102965169D01*
X135382440Y-103323589D01*
X135382440Y-102120000D01*
X135338162Y-101884683D01*
X135199090Y-101668559D01*
X134986890Y-101523569D01*
X134735000Y-101472560D01*
X133235000Y-101472560D01*
X132999683Y-101516838D01*
X132783559Y-101655910D01*
X132638569Y-101868110D01*
X132587560Y-102120000D01*
X129991373Y-102120000D01*
X130094572Y-101871471D01*
X130095426Y-100892823D01*
X129721702Y-99988343D01*
X129030297Y-99295730D01*
X128126471Y-98920428D01*
X127147823Y-98919574D01*
X126243343Y-99293298D01*
X125550730Y-99984703D01*
X125175428Y-100888529D01*
X125174574Y-101867177D01*
X124960000Y-101867177D01*
X124960000Y-96592177D01*
X125174574Y-96592177D01*
X125548298Y-97496657D01*
X126239703Y-98189270D01*
X127143529Y-98564572D01*
X128122177Y-98565426D01*
X129026657Y-98191702D01*
X129719270Y-97500297D01*
X130094572Y-96596471D01*
X130095090Y-96002221D01*
X135665280Y-96002221D01*
X135723449Y-96352827D01*
X136449501Y-96527284D01*
X137187047Y-96410613D01*
X137326551Y-96352827D01*
X137384720Y-96002221D01*
X136525000Y-95142502D01*
X135665280Y-96002221D01*
X130095090Y-96002221D01*
X130095426Y-95617823D01*
X129721702Y-94713343D01*
X129030297Y-94020730D01*
X128126471Y-93645428D01*
X127147823Y-93644574D01*
X126243343Y-94018298D01*
X125550730Y-94709703D01*
X125175428Y-95613529D01*
X125174574Y-96592177D01*
X124960000Y-96592177D01*
X124960000Y-93269501D01*
X132072716Y-93269501D01*
X132189387Y-94007047D01*
X132247173Y-94146551D01*
X132597779Y-94204720D01*
X133457498Y-93345000D01*
X132597779Y-92485280D01*
X132247173Y-92543449D01*
X132072716Y-93269501D01*
X124960000Y-93269501D01*
X124960000Y-84722177D01*
X125174574Y-84722177D01*
X125548298Y-85626657D01*
X126239703Y-86319270D01*
X127143529Y-86694572D01*
X128122177Y-86695426D01*
X129026657Y-86321702D01*
X129719270Y-85630297D01*
X129991373Y-84975000D01*
X132587560Y-84975000D01*
X132587560Y-86475000D01*
X132631838Y-86710317D01*
X132770910Y-86926441D01*
X132983110Y-87071431D01*
X133180262Y-87111355D01*
X132811539Y-87479436D01*
X132600241Y-87988298D01*
X132599760Y-88539285D01*
X132810169Y-89048515D01*
X133199436Y-89438461D01*
X133431870Y-89534976D01*
X133201485Y-89630169D01*
X132811539Y-90019436D01*
X132600241Y-90528298D01*
X132599760Y-91079285D01*
X132810169Y-91588515D01*
X133132906Y-91911815D01*
X133125280Y-91957779D01*
X133985000Y-92817498D01*
X133999142Y-92803356D01*
X134526644Y-93330858D01*
X134512502Y-93345000D01*
X134526644Y-93359142D01*
X133999142Y-93886644D01*
X133985000Y-93872502D01*
X133125280Y-94732221D01*
X133183449Y-95082827D01*
X133909501Y-95257284D01*
X134647047Y-95140613D01*
X134704068Y-95116993D01*
X134729387Y-95277047D01*
X134787173Y-95416551D01*
X135137779Y-95474720D01*
X135997498Y-94615000D01*
X137052502Y-94615000D01*
X137912221Y-95474720D01*
X138262827Y-95416551D01*
X138437284Y-94690499D01*
X138320613Y-93952953D01*
X138262827Y-93813449D01*
X137912221Y-93755280D01*
X137052502Y-94615000D01*
X135997498Y-94615000D01*
X135983356Y-94600858D01*
X136510858Y-94073356D01*
X136525000Y-94087498D01*
X137384720Y-93227779D01*
X137377031Y-93181434D01*
X137698461Y-92860564D01*
X137909759Y-92351702D01*
X137910240Y-91800715D01*
X137699831Y-91291485D01*
X137310564Y-90901539D01*
X137078130Y-90805024D01*
X137308515Y-90709831D01*
X137698461Y-90320564D01*
X137909759Y-89811702D01*
X137910240Y-89260715D01*
X137699831Y-88751485D01*
X137310564Y-88361539D01*
X137078130Y-88265024D01*
X137308515Y-88169831D01*
X137698461Y-87780564D01*
X137909759Y-87271702D01*
X137910240Y-86720715D01*
X137699831Y-86211485D01*
X137310564Y-85821539D01*
X136801702Y-85610241D01*
X136250715Y-85609760D01*
X135741485Y-85820169D01*
X135382440Y-86178589D01*
X135382440Y-84975000D01*
X135338162Y-84739683D01*
X135199090Y-84523559D01*
X134986890Y-84378569D01*
X134735000Y-84327560D01*
X133235000Y-84327560D01*
X132999683Y-84371838D01*
X132783559Y-84510910D01*
X132638569Y-84723110D01*
X132587560Y-84975000D01*
X129991373Y-84975000D01*
X130094572Y-84726471D01*
X130095426Y-83747823D01*
X129721702Y-82843343D01*
X129030297Y-82150730D01*
X128126471Y-81775428D01*
X127147823Y-81774574D01*
X126243343Y-82148298D01*
X125550730Y-82839703D01*
X125175428Y-83743529D01*
X125174574Y-84722177D01*
X124960000Y-84722177D01*
X124960000Y-79447177D01*
X125174574Y-79447177D01*
X125548298Y-80351657D01*
X126239703Y-81044270D01*
X127143529Y-81419572D01*
X128122177Y-81420426D01*
X129026657Y-81046702D01*
X129719270Y-80355297D01*
X130094572Y-79451471D01*
X130094575Y-79447177D01*
X179149574Y-79447177D01*
X179523298Y-80351657D01*
X180214703Y-81044270D01*
X181118529Y-81419572D01*
X182097177Y-81420426D01*
X183001657Y-81046702D01*
X183694270Y-80355297D01*
X184069572Y-79451471D01*
X184070426Y-78472823D01*
X183696702Y-77568343D01*
X183005297Y-76875730D01*
X182101471Y-76500428D01*
X181122823Y-76499574D01*
X180218343Y-76873298D01*
X179525730Y-77564703D01*
X179150428Y-78468529D01*
X179149574Y-79447177D01*
X130094575Y-79447177D01*
X130095090Y-78857221D01*
X135665280Y-78857221D01*
X135723449Y-79207827D01*
X136449501Y-79382284D01*
X137187047Y-79265613D01*
X137326551Y-79207827D01*
X137384720Y-78857221D01*
X136525000Y-77997502D01*
X135665280Y-78857221D01*
X130095090Y-78857221D01*
X130095426Y-78472823D01*
X129721702Y-77568343D01*
X129030297Y-76875730D01*
X128126471Y-76500428D01*
X127147823Y-76499574D01*
X126243343Y-76873298D01*
X125550730Y-77564703D01*
X125175428Y-78468529D01*
X125174574Y-79447177D01*
X124960000Y-79447177D01*
X124960000Y-76124501D01*
X132072716Y-76124501D01*
X132189387Y-76862047D01*
X132247173Y-77001551D01*
X132597779Y-77059720D01*
X133457498Y-76200000D01*
X132597779Y-75340280D01*
X132247173Y-75398449D01*
X132072716Y-76124501D01*
X124960000Y-76124501D01*
X124960000Y-67577177D01*
X125174574Y-67577177D01*
X125548298Y-68481657D01*
X126239703Y-69174270D01*
X127143529Y-69549572D01*
X128122177Y-69550426D01*
X129026657Y-69176702D01*
X129719270Y-68485297D01*
X129991373Y-67830000D01*
X132587560Y-67830000D01*
X132587560Y-69330000D01*
X132631838Y-69565317D01*
X132770910Y-69781441D01*
X132983110Y-69926431D01*
X133180262Y-69966355D01*
X132811539Y-70334436D01*
X132600241Y-70843298D01*
X132599760Y-71394285D01*
X132810169Y-71903515D01*
X133199436Y-72293461D01*
X133431870Y-72389976D01*
X133201485Y-72485169D01*
X132811539Y-72874436D01*
X132600241Y-73383298D01*
X132599760Y-73934285D01*
X132810169Y-74443515D01*
X133132906Y-74766815D01*
X133125280Y-74812779D01*
X133985000Y-75672498D01*
X133999142Y-75658356D01*
X134526644Y-76185858D01*
X134512502Y-76200000D01*
X134526644Y-76214142D01*
X133999142Y-76741644D01*
X133985000Y-76727502D01*
X133125280Y-77587221D01*
X133183449Y-77937827D01*
X133909501Y-78112284D01*
X134647047Y-77995613D01*
X134704068Y-77971993D01*
X134729387Y-78132047D01*
X134787173Y-78271551D01*
X135137779Y-78329720D01*
X135997498Y-77470000D01*
X137052502Y-77470000D01*
X137912221Y-78329720D01*
X138262827Y-78271551D01*
X138437284Y-77545499D01*
X138320613Y-76807953D01*
X138262827Y-76668449D01*
X137912221Y-76610280D01*
X137052502Y-77470000D01*
X135997498Y-77470000D01*
X135983356Y-77455858D01*
X136510858Y-76928356D01*
X136525000Y-76942498D01*
X137384720Y-76082779D01*
X137377031Y-76036434D01*
X137698461Y-75715564D01*
X137909759Y-75206702D01*
X137910240Y-74655715D01*
X137699831Y-74146485D01*
X137310564Y-73756539D01*
X137078130Y-73660024D01*
X137308515Y-73564831D01*
X137698461Y-73175564D01*
X137909759Y-72666702D01*
X137910240Y-72115715D01*
X137699831Y-71606485D01*
X137310564Y-71216539D01*
X137078130Y-71120024D01*
X137308515Y-71024831D01*
X137698461Y-70635564D01*
X137909759Y-70126702D01*
X137910240Y-69575715D01*
X137875510Y-69491661D01*
X141477758Y-69491661D01*
X141689990Y-70005303D01*
X142082630Y-70398629D01*
X142290512Y-70484949D01*
X142084697Y-70569990D01*
X141691371Y-70962630D01*
X141478243Y-71475900D01*
X141477758Y-72031661D01*
X141689990Y-72545303D01*
X142082630Y-72938629D01*
X142290512Y-73024949D01*
X142084697Y-73109990D01*
X141691371Y-73502630D01*
X141478243Y-74015900D01*
X141477758Y-74571661D01*
X141689990Y-75085303D01*
X142082630Y-75478629D01*
X142595900Y-75691757D01*
X143151661Y-75692242D01*
X143665303Y-75480010D01*
X144058629Y-75087370D01*
X144271757Y-74574100D01*
X144272242Y-74018339D01*
X144060010Y-73504697D01*
X143667370Y-73111371D01*
X143459488Y-73025051D01*
X143665303Y-72940010D01*
X144058629Y-72547370D01*
X144271757Y-72034100D01*
X144272242Y-71478339D01*
X144060010Y-70964697D01*
X143667370Y-70571371D01*
X143459488Y-70485051D01*
X143665303Y-70400010D01*
X144058629Y-70007370D01*
X144271757Y-69494100D01*
X144272242Y-68938339D01*
X144060010Y-68424697D01*
X143738289Y-68102414D01*
X143743604Y-68071106D01*
X142875000Y-67202502D01*
X142006396Y-68071106D01*
X142011774Y-68102786D01*
X141691371Y-68422630D01*
X141478243Y-68935900D01*
X141477758Y-69491661D01*
X137875510Y-69491661D01*
X137699831Y-69066485D01*
X137310564Y-68676539D01*
X136801702Y-68465241D01*
X136250715Y-68464760D01*
X135741485Y-68675169D01*
X135382440Y-69033589D01*
X135382440Y-67830000D01*
X135338162Y-67594683D01*
X135199090Y-67378559D01*
X134986890Y-67233569D01*
X134735000Y-67182560D01*
X133235000Y-67182560D01*
X132999683Y-67226838D01*
X132783559Y-67365910D01*
X132638569Y-67578110D01*
X132587560Y-67830000D01*
X129991373Y-67830000D01*
X130094572Y-67581471D01*
X130095426Y-66602823D01*
X130092851Y-66596589D01*
X140950589Y-66596589D01*
X141067069Y-67338997D01*
X141127082Y-67483883D01*
X141478894Y-67543604D01*
X142347498Y-66675000D01*
X143402502Y-66675000D01*
X144271106Y-67543604D01*
X144622918Y-67483883D01*
X144799411Y-66753411D01*
X144682931Y-66011003D01*
X144622918Y-65866117D01*
X144271106Y-65806396D01*
X143402502Y-66675000D01*
X142347498Y-66675000D01*
X141478894Y-65806396D01*
X141127082Y-65866117D01*
X140950589Y-66596589D01*
X130092851Y-66596589D01*
X129721702Y-65698343D01*
X129030297Y-65005730D01*
X128126471Y-64630428D01*
X127147823Y-64629574D01*
X126243343Y-65003298D01*
X125550730Y-65694703D01*
X125175428Y-66598529D01*
X125174574Y-67577177D01*
X124960000Y-67577177D01*
X124960000Y-64411661D01*
X141477758Y-64411661D01*
X141689990Y-64925303D01*
X142011711Y-65247586D01*
X142006396Y-65278894D01*
X142875000Y-66147498D01*
X143743604Y-65278894D01*
X143738226Y-65247214D01*
X144058629Y-64927370D01*
X144271757Y-64414100D01*
X144271759Y-64411661D01*
X164337758Y-64411661D01*
X164549990Y-64925303D01*
X164942630Y-65318629D01*
X165150512Y-65404949D01*
X164944697Y-65489990D01*
X164551371Y-65882630D01*
X164338243Y-66395900D01*
X164337758Y-66951661D01*
X164549990Y-67465303D01*
X164942630Y-67858629D01*
X165150512Y-67944949D01*
X164944697Y-68029990D01*
X164551371Y-68422630D01*
X164338243Y-68935900D01*
X164337758Y-69491661D01*
X164549990Y-70005303D01*
X164942630Y-70398629D01*
X165150512Y-70484949D01*
X164944697Y-70569990D01*
X164551371Y-70962630D01*
X164338243Y-71475900D01*
X164337758Y-72031661D01*
X164549990Y-72545303D01*
X164942630Y-72938629D01*
X165150512Y-73024949D01*
X164944697Y-73109990D01*
X164551371Y-73502630D01*
X164338243Y-74015900D01*
X164337758Y-74571661D01*
X164549990Y-75085303D01*
X164942630Y-75478629D01*
X165455900Y-75691757D01*
X166011661Y-75692242D01*
X166525303Y-75480010D01*
X166918629Y-75087370D01*
X167131757Y-74574100D01*
X167132242Y-74018339D01*
X166920010Y-73504697D01*
X166527370Y-73111371D01*
X166319488Y-73025051D01*
X166525303Y-72940010D01*
X166918629Y-72547370D01*
X167131757Y-72034100D01*
X167132242Y-71478339D01*
X167097512Y-71394285D01*
X171334760Y-71394285D01*
X171545169Y-71903515D01*
X171934436Y-72293461D01*
X172166870Y-72389976D01*
X171936485Y-72485169D01*
X171546539Y-72874436D01*
X171335241Y-73383298D01*
X171334760Y-73934285D01*
X171545169Y-74443515D01*
X171934436Y-74833461D01*
X172166870Y-74929976D01*
X171936485Y-75025169D01*
X171546539Y-75414436D01*
X171335241Y-75923298D01*
X171334760Y-76474285D01*
X171545169Y-76983515D01*
X171934436Y-77373461D01*
X172443298Y-77584759D01*
X172994285Y-77585240D01*
X173503515Y-77374831D01*
X173862560Y-77016411D01*
X173862560Y-78220000D01*
X173906838Y-78455317D01*
X174045910Y-78671441D01*
X174258110Y-78816431D01*
X174510000Y-78867440D01*
X176010000Y-78867440D01*
X176245317Y-78823162D01*
X176461441Y-78684090D01*
X176606431Y-78471890D01*
X176657440Y-78220000D01*
X176657440Y-76720000D01*
X176613162Y-76484683D01*
X176474090Y-76268559D01*
X176261890Y-76123569D01*
X176064738Y-76083645D01*
X176433461Y-75715564D01*
X176644759Y-75206702D01*
X176645240Y-74655715D01*
X176434831Y-74146485D01*
X176045564Y-73756539D01*
X175813130Y-73660024D01*
X176043515Y-73564831D01*
X176433461Y-73175564D01*
X176644759Y-72666702D01*
X176645240Y-72115715D01*
X176434831Y-71606485D01*
X176112094Y-71283185D01*
X176119720Y-71237221D01*
X175260000Y-70377502D01*
X175245858Y-70391644D01*
X174718356Y-69864142D01*
X174732498Y-69850000D01*
X175787502Y-69850000D01*
X176647221Y-70709720D01*
X176997827Y-70651551D01*
X177172284Y-69925499D01*
X177055613Y-69187953D01*
X176997827Y-69048449D01*
X176647221Y-68990280D01*
X175787502Y-69850000D01*
X174732498Y-69850000D01*
X174718356Y-69835858D01*
X175245858Y-69308356D01*
X175260000Y-69322498D01*
X176119720Y-68462779D01*
X176061551Y-68112173D01*
X175335499Y-67937716D01*
X174597953Y-68054387D01*
X174540932Y-68078007D01*
X174515613Y-67917953D01*
X174457827Y-67778449D01*
X174107221Y-67720280D01*
X173247502Y-68580000D01*
X173261644Y-68594142D01*
X172734142Y-69121644D01*
X172720000Y-69107502D01*
X171860280Y-69967221D01*
X171867969Y-70013566D01*
X171546539Y-70334436D01*
X171335241Y-70843298D01*
X171334760Y-71394285D01*
X167097512Y-71394285D01*
X166920010Y-70964697D01*
X166527370Y-70571371D01*
X166319488Y-70485051D01*
X166525303Y-70400010D01*
X166918629Y-70007370D01*
X167131757Y-69494100D01*
X167132242Y-68938339D01*
X166952985Y-68504501D01*
X170807716Y-68504501D01*
X170924387Y-69242047D01*
X170982173Y-69381551D01*
X171332779Y-69439720D01*
X172192498Y-68580000D01*
X171332779Y-67720280D01*
X170982173Y-67778449D01*
X170807716Y-68504501D01*
X166952985Y-68504501D01*
X166920010Y-68424697D01*
X166527370Y-68031371D01*
X166319488Y-67945051D01*
X166525303Y-67860010D01*
X166918629Y-67467370D01*
X167032648Y-67192779D01*
X171860280Y-67192779D01*
X172720000Y-68052498D01*
X173195321Y-67577177D01*
X179149574Y-67577177D01*
X179523298Y-68481657D01*
X180214703Y-69174270D01*
X181118529Y-69549572D01*
X182097177Y-69550426D01*
X183001657Y-69176702D01*
X183694270Y-68485297D01*
X184069572Y-67581471D01*
X184070426Y-66602823D01*
X183696702Y-65698343D01*
X183005297Y-65005730D01*
X182101471Y-64630428D01*
X181122823Y-64629574D01*
X180218343Y-65003298D01*
X179525730Y-65694703D01*
X179150428Y-66598529D01*
X179149574Y-67577177D01*
X173195321Y-67577177D01*
X173579720Y-67192779D01*
X173521551Y-66842173D01*
X172795499Y-66667716D01*
X172057953Y-66784387D01*
X171918449Y-66842173D01*
X171860280Y-67192779D01*
X167032648Y-67192779D01*
X167131757Y-66954100D01*
X167132242Y-66398339D01*
X166920010Y-65884697D01*
X166527370Y-65491371D01*
X166319488Y-65405051D01*
X166525303Y-65320010D01*
X166918629Y-64927370D01*
X167131757Y-64414100D01*
X167132242Y-63858339D01*
X166920010Y-63344697D01*
X166527370Y-62951371D01*
X166014100Y-62738243D01*
X165458339Y-62737758D01*
X164944697Y-62949990D01*
X164551371Y-63342630D01*
X164338243Y-63855900D01*
X164337758Y-64411661D01*
X144271759Y-64411661D01*
X144272242Y-63858339D01*
X144060010Y-63344697D01*
X143667370Y-62951371D01*
X143154100Y-62738243D01*
X142598339Y-62737758D01*
X142084697Y-62949990D01*
X141691371Y-63342630D01*
X141478243Y-63855900D01*
X141477758Y-64411661D01*
X124960000Y-64411661D01*
X124960000Y-61300544D01*
X125492474Y-62589229D01*
X126654653Y-63753438D01*
X128173889Y-64384280D01*
X129818894Y-64385716D01*
X131339229Y-63757526D01*
X132503438Y-62595347D01*
X133134280Y-61076111D01*
X133135716Y-59431106D01*
X133094627Y-59331661D01*
X144017758Y-59331661D01*
X144229990Y-59845303D01*
X144622630Y-60238629D01*
X144830512Y-60324949D01*
X144624697Y-60409990D01*
X144231371Y-60802630D01*
X144018243Y-61315900D01*
X144017758Y-61871661D01*
X144229990Y-62385303D01*
X144622630Y-62778629D01*
X145135900Y-62991757D01*
X145691661Y-62992242D01*
X146205303Y-62780010D01*
X146598629Y-62387370D01*
X146684949Y-62179488D01*
X146769990Y-62385303D01*
X147162630Y-62778629D01*
X147675900Y-62991757D01*
X148231661Y-62992242D01*
X148745303Y-62780010D01*
X149138629Y-62387370D01*
X149224949Y-62179488D01*
X149309990Y-62385303D01*
X149702630Y-62778629D01*
X150215900Y-62991757D01*
X150771661Y-62992242D01*
X151285303Y-62780010D01*
X151678629Y-62387370D01*
X151764949Y-62179488D01*
X151849990Y-62385303D01*
X152242630Y-62778629D01*
X152755900Y-62991757D01*
X153311661Y-62992242D01*
X153825303Y-62780010D01*
X154218629Y-62387370D01*
X154304949Y-62179488D01*
X154389990Y-62385303D01*
X154782630Y-62778629D01*
X155295900Y-62991757D01*
X155851661Y-62992242D01*
X156365303Y-62780010D01*
X156758629Y-62387370D01*
X156844949Y-62179488D01*
X156929990Y-62385303D01*
X157322630Y-62778629D01*
X157835900Y-62991757D01*
X158391661Y-62992242D01*
X158905303Y-62780010D01*
X159298629Y-62387370D01*
X159384949Y-62179488D01*
X159469990Y-62385303D01*
X159862630Y-62778629D01*
X160375900Y-62991757D01*
X160931661Y-62992242D01*
X161445303Y-62780010D01*
X161838629Y-62387370D01*
X161924949Y-62179488D01*
X162009990Y-62385303D01*
X162402630Y-62778629D01*
X162915900Y-62991757D01*
X163471661Y-62992242D01*
X163985303Y-62780010D01*
X164378629Y-62387370D01*
X164591757Y-61874100D01*
X164592242Y-61318339D01*
X164380010Y-60804697D01*
X163987370Y-60411371D01*
X163779488Y-60325051D01*
X163985303Y-60240010D01*
X164378629Y-59847370D01*
X164591757Y-59334100D01*
X164592242Y-58778339D01*
X164380010Y-58264697D01*
X163987370Y-57871371D01*
X163474100Y-57658243D01*
X162918339Y-57657758D01*
X162404697Y-57869990D01*
X162011371Y-58262630D01*
X161925051Y-58470512D01*
X161840010Y-58264697D01*
X161447370Y-57871371D01*
X160934100Y-57658243D01*
X160378339Y-57657758D01*
X159864697Y-57869990D01*
X159471371Y-58262630D01*
X159385051Y-58470512D01*
X159300010Y-58264697D01*
X158907370Y-57871371D01*
X158394100Y-57658243D01*
X157838339Y-57657758D01*
X157324697Y-57869990D01*
X156931371Y-58262630D01*
X156845051Y-58470512D01*
X156760010Y-58264697D01*
X156367370Y-57871371D01*
X155854100Y-57658243D01*
X155298339Y-57657758D01*
X154784697Y-57869990D01*
X154391371Y-58262630D01*
X154305051Y-58470512D01*
X154220010Y-58264697D01*
X153827370Y-57871371D01*
X153314100Y-57658243D01*
X152758339Y-57657758D01*
X152244697Y-57869990D01*
X151851371Y-58262630D01*
X151765051Y-58470512D01*
X151680010Y-58264697D01*
X151287370Y-57871371D01*
X150774100Y-57658243D01*
X150218339Y-57657758D01*
X149704697Y-57869990D01*
X149311371Y-58262630D01*
X149225051Y-58470512D01*
X149140010Y-58264697D01*
X148747370Y-57871371D01*
X148234100Y-57658243D01*
X147678339Y-57657758D01*
X147164697Y-57869990D01*
X146771371Y-58262630D01*
X146685051Y-58470512D01*
X146600010Y-58264697D01*
X146207370Y-57871371D01*
X145694100Y-57658243D01*
X145138339Y-57657758D01*
X144624697Y-57869990D01*
X144231371Y-58262630D01*
X144018243Y-58775900D01*
X144017758Y-59331661D01*
X133094627Y-59331661D01*
X132507526Y-57910771D01*
X131345347Y-56746562D01*
X130053162Y-56210000D01*
X179199456Y-56210000D01*
X177910771Y-56742474D01*
X177910771Y-56742474D01*
G37*
X177910771Y-56742474D02*
X176746562Y-57904653D01*
X176115720Y-59423889D01*
X176114284Y-61068894D01*
X176742474Y-62589229D01*
X177904653Y-63753438D01*
X179423889Y-64384280D01*
X181068894Y-64385716D01*
X182589229Y-63757526D01*
X183753438Y-62595347D01*
X184290000Y-61303162D01*
X184290000Y-136199456D01*
X183757526Y-134910771D01*
X182595347Y-133746562D01*
X181076111Y-133115720D01*
X179431106Y-133114284D01*
X177910771Y-133742474D01*
X176746562Y-134904653D01*
X176115720Y-136423889D01*
X176114284Y-138068894D01*
X176742474Y-139589229D01*
X177904653Y-140753438D01*
X178594771Y-141040000D01*
X157371181Y-141040000D01*
X157502000Y-140724174D01*
X157502000Y-140354750D01*
X157220250Y-140073000D01*
X155948000Y-140073000D01*
X155948000Y-140093000D01*
X155202000Y-140093000D01*
X155202000Y-140073000D01*
X153929750Y-140073000D01*
X153648000Y-140354750D01*
X153648000Y-140724174D01*
X153778819Y-141040000D01*
X140849705Y-141040000D01*
X141146800Y-140917243D01*
X141550824Y-140513923D01*
X141769750Y-139986691D01*
X141770248Y-139415813D01*
X141552243Y-138888200D01*
X141148923Y-138484176D01*
X141018785Y-138430138D01*
X141146800Y-138377243D01*
X141550824Y-137973923D01*
X141604862Y-137843785D01*
X141657757Y-137971800D01*
X142061077Y-138375824D01*
X142588309Y-138594750D01*
X143159187Y-138595248D01*
X143686800Y-138377243D01*
X144090824Y-137973923D01*
X144309750Y-137446691D01*
X144310248Y-136875813D01*
X144092243Y-136348200D01*
X143688923Y-135944176D01*
X143161691Y-135725250D01*
X142590813Y-135724752D01*
X142063200Y-135942757D01*
X141659176Y-136346077D01*
X141605138Y-136476215D01*
X141552243Y-136348200D01*
X141148923Y-135944176D01*
X141018785Y-135890138D01*
X141146800Y-135837243D01*
X141550824Y-135433923D01*
X141769750Y-134906691D01*
X141770248Y-134335813D01*
X141552243Y-133808200D01*
X141148923Y-133404176D01*
X141018785Y-133350138D01*
X141146800Y-133297243D01*
X141550824Y-132893923D01*
X141604862Y-132763785D01*
X141657757Y-132891800D01*
X142061077Y-133295824D01*
X142588309Y-133514750D01*
X143159187Y-133515248D01*
X143686800Y-133297243D01*
X144090824Y-132893923D01*
X144309750Y-132366691D01*
X144310248Y-131795813D01*
X144092243Y-131268200D01*
X143688923Y-130864176D01*
X143558785Y-130810138D01*
X143686800Y-130757243D01*
X144090824Y-130353923D01*
X144309750Y-129826691D01*
X144310248Y-129255813D01*
X144092243Y-128728200D01*
X143688923Y-128324176D01*
X143558785Y-128270138D01*
X143686800Y-128217243D01*
X144090824Y-127813923D01*
X144309750Y-127286691D01*
X144310248Y-126715813D01*
X144092243Y-126188200D01*
X143688923Y-125784176D01*
X143161691Y-125565250D01*
X142590813Y-125564752D01*
X142063200Y-125782757D01*
X141659176Y-126186077D01*
X141605138Y-126316215D01*
X141552243Y-126188200D01*
X141148923Y-125784176D01*
X141018785Y-125730138D01*
X141146800Y-125677243D01*
X141550824Y-125273923D01*
X141769750Y-124746691D01*
X141770248Y-124175813D01*
X141552243Y-123648200D01*
X141148923Y-123244176D01*
X141018785Y-123190138D01*
X141146800Y-123137243D01*
X141550824Y-122733923D01*
X141769750Y-122206691D01*
X141770248Y-121635813D01*
X141552243Y-121108200D01*
X141148923Y-120704176D01*
X141018785Y-120650138D01*
X141146800Y-120597243D01*
X141550824Y-120193923D01*
X141769750Y-119666691D01*
X141770248Y-119095813D01*
X141552243Y-118568200D01*
X141148923Y-118164176D01*
X141018785Y-118110138D01*
X141146800Y-118057243D01*
X141550824Y-117653923D01*
X141769750Y-117126691D01*
X141769752Y-117124187D01*
X143979752Y-117124187D01*
X144197757Y-117651800D01*
X144601077Y-118055824D01*
X144731215Y-118109862D01*
X144603200Y-118162757D01*
X144199176Y-118566077D01*
X143980250Y-119093309D01*
X143979752Y-119664187D01*
X144197757Y-120191800D01*
X144601077Y-120595824D01*
X144731215Y-120649862D01*
X144603200Y-120702757D01*
X144199176Y-121106077D01*
X143980250Y-121633309D01*
X143979752Y-122204187D01*
X144197757Y-122731800D01*
X144601077Y-123135824D01*
X144731215Y-123189862D01*
X144603200Y-123242757D01*
X144199176Y-123646077D01*
X143980250Y-124173309D01*
X143979752Y-124744187D01*
X144197757Y-125271800D01*
X144601077Y-125675824D01*
X145128309Y-125894750D01*
X145699187Y-125895248D01*
X146226800Y-125677243D01*
X146630824Y-125273923D01*
X146684862Y-125143785D01*
X146737757Y-125271800D01*
X147141077Y-125675824D01*
X147668309Y-125894750D01*
X148239187Y-125895248D01*
X148766800Y-125677243D01*
X149170824Y-125273923D01*
X149389750Y-124746691D01*
X149390248Y-124175813D01*
X149172243Y-123648200D01*
X148768923Y-123244176D01*
X148638785Y-123190138D01*
X148766800Y-123137243D01*
X149170824Y-122733923D01*
X149389750Y-122206691D01*
X149390248Y-121635813D01*
X149172243Y-121108200D01*
X148768923Y-120704176D01*
X148638785Y-120650138D01*
X148766800Y-120597243D01*
X149170824Y-120193923D01*
X149389750Y-119666691D01*
X149390248Y-119095813D01*
X149172243Y-118568200D01*
X148768923Y-118164176D01*
X148638785Y-118110138D01*
X148766800Y-118057243D01*
X149170824Y-117653923D01*
X149389750Y-117126691D01*
X149390248Y-116555813D01*
X149172243Y-116028200D01*
X148768923Y-115624176D01*
X148241691Y-115405250D01*
X147670813Y-115404752D01*
X147143200Y-115622757D01*
X146739176Y-116026077D01*
X146685138Y-116156215D01*
X146632243Y-116028200D01*
X146228923Y-115624176D01*
X145701691Y-115405250D01*
X145130813Y-115404752D01*
X144603200Y-115622757D01*
X144199176Y-116026077D01*
X143980250Y-116553309D01*
X143979752Y-117124187D01*
X141769752Y-117124187D01*
X141770248Y-116555813D01*
X141552243Y-116028200D01*
X141148923Y-115624176D01*
X141018785Y-115570138D01*
X141146800Y-115517243D01*
X141550824Y-115113923D01*
X141769750Y-114586691D01*
X141770248Y-114015813D01*
X141552243Y-113488200D01*
X141148923Y-113084176D01*
X141018785Y-113030138D01*
X141146800Y-112977243D01*
X141550824Y-112573923D01*
X141769750Y-112046691D01*
X141770248Y-111475813D01*
X141552243Y-110948200D01*
X141148923Y-110544176D01*
X141018785Y-110490138D01*
X141146800Y-110437243D01*
X141550824Y-110033923D01*
X141769750Y-109506691D01*
X141770248Y-108935813D01*
X141552243Y-108408200D01*
X141148923Y-108004176D01*
X141018785Y-107950138D01*
X141146800Y-107897243D01*
X141550824Y-107493923D01*
X141769750Y-106966691D01*
X141770248Y-106395813D01*
X141552243Y-105868200D01*
X141148923Y-105464176D01*
X141018785Y-105410138D01*
X141146800Y-105357243D01*
X141550824Y-104953923D01*
X141769750Y-104426691D01*
X141770248Y-103855813D01*
X141552243Y-103328200D01*
X141148923Y-102924176D01*
X141018785Y-102870138D01*
X141146800Y-102817243D01*
X141550824Y-102413923D01*
X141769750Y-101886691D01*
X141770248Y-101315813D01*
X141552243Y-100788200D01*
X141148923Y-100384176D01*
X141018785Y-100330138D01*
X141146800Y-100277243D01*
X141550824Y-99873923D01*
X141769750Y-99346691D01*
X141770248Y-98775813D01*
X141552243Y-98248200D01*
X141148923Y-97844176D01*
X141018785Y-97790138D01*
X141146800Y-97737243D01*
X141550824Y-97333923D01*
X141769750Y-96806691D01*
X141770248Y-96235813D01*
X141552243Y-95708200D01*
X141148923Y-95304176D01*
X141018785Y-95250138D01*
X141146800Y-95197243D01*
X141550824Y-94793923D01*
X141604862Y-94663785D01*
X141657757Y-94791800D01*
X142061077Y-95195824D01*
X142588309Y-95414750D01*
X143159187Y-95415248D01*
X143686800Y-95197243D01*
X144090824Y-94793923D01*
X144144862Y-94663785D01*
X144197757Y-94791800D01*
X144601077Y-95195824D01*
X144731215Y-95249862D01*
X144603200Y-95302757D01*
X144199176Y-95706077D01*
X143980250Y-96233309D01*
X143979752Y-96804187D01*
X144197757Y-97331800D01*
X144601077Y-97735824D01*
X144731215Y-97789862D01*
X144603200Y-97842757D01*
X144199176Y-98246077D01*
X143980250Y-98773309D01*
X143979752Y-99344187D01*
X144197757Y-99871800D01*
X144601077Y-100275824D01*
X144731215Y-100329862D01*
X144603200Y-100382757D01*
X144199176Y-100786077D01*
X143980250Y-101313309D01*
X143979752Y-101884187D01*
X144197757Y-102411800D01*
X144601077Y-102815824D01*
X145128309Y-103034750D01*
X145699187Y-103035248D01*
X146226800Y-102817243D01*
X146630824Y-102413923D01*
X146684862Y-102283785D01*
X146737757Y-102411800D01*
X147141077Y-102815824D01*
X147668309Y-103034750D01*
X148239187Y-103035248D01*
X148766800Y-102817243D01*
X149170824Y-102413923D01*
X149389750Y-101886691D01*
X149390248Y-101315813D01*
X149172243Y-100788200D01*
X148768923Y-100384176D01*
X148638785Y-100330138D01*
X148766800Y-100277243D01*
X149170824Y-99873923D01*
X149389750Y-99346691D01*
X149390248Y-98775813D01*
X149172243Y-98248200D01*
X148768923Y-97844176D01*
X148638785Y-97790138D01*
X148766800Y-97737243D01*
X149170824Y-97333923D01*
X149389750Y-96806691D01*
X149390248Y-96235813D01*
X149172243Y-95708200D01*
X148768923Y-95304176D01*
X148638785Y-95250138D01*
X148766800Y-95197243D01*
X149170824Y-94793923D01*
X149224862Y-94663785D01*
X149277757Y-94791800D01*
X149681077Y-95195824D01*
X150208309Y-95414750D01*
X150779187Y-95415248D01*
X151306800Y-95197243D01*
X151710824Y-94793923D01*
X151764862Y-94663785D01*
X151817757Y-94791800D01*
X152221077Y-95195824D01*
X152748309Y-95414750D01*
X153319187Y-95415248D01*
X153846800Y-95197243D01*
X154250824Y-94793923D01*
X154304862Y-94663785D01*
X154357757Y-94791800D01*
X154761077Y-95195824D01*
X154891215Y-95249862D01*
X154763200Y-95302757D01*
X154359176Y-95706077D01*
X154140250Y-96233309D01*
X154139752Y-96804187D01*
X154357757Y-97331800D01*
X154761077Y-97735824D01*
X154891215Y-97789862D01*
X154763200Y-97842757D01*
X154359176Y-98246077D01*
X154140250Y-98773309D01*
X154139752Y-99344187D01*
X154357757Y-99871800D01*
X154761077Y-100275824D01*
X154891215Y-100329862D01*
X154763200Y-100382757D01*
X154359176Y-100786077D01*
X154140250Y-101313309D01*
X154139752Y-101884187D01*
X154357757Y-102411800D01*
X154761077Y-102815824D01*
X154891215Y-102869862D01*
X154763200Y-102922757D01*
X154359176Y-103326077D01*
X154140250Y-103853309D01*
X154139752Y-104424187D01*
X154357757Y-104951800D01*
X154761077Y-105355824D01*
X154891215Y-105409862D01*
X154763200Y-105462757D01*
X154359176Y-105866077D01*
X154140250Y-106393309D01*
X154139752Y-106964187D01*
X154357757Y-107491800D01*
X154761077Y-107895824D01*
X154891215Y-107949862D01*
X154763200Y-108002757D01*
X154359176Y-108406077D01*
X154140250Y-108933309D01*
X154139752Y-109504187D01*
X154357757Y-110031800D01*
X154761077Y-110435824D01*
X154891215Y-110489862D01*
X154763200Y-110542757D01*
X154359176Y-110946077D01*
X154140250Y-111473309D01*
X154139752Y-112044187D01*
X154357757Y-112571800D01*
X154761077Y-112975824D01*
X154891215Y-113029862D01*
X154763200Y-113082757D01*
X154359176Y-113486077D01*
X154140250Y-114013309D01*
X154139752Y-114584187D01*
X154357757Y-115111800D01*
X154761077Y-115515824D01*
X154891215Y-115569862D01*
X154763200Y-115622757D01*
X154359176Y-116026077D01*
X154140250Y-116553309D01*
X154139752Y-117124187D01*
X154357757Y-117651800D01*
X154761077Y-118055824D01*
X154891215Y-118109862D01*
X154763200Y-118162757D01*
X154359176Y-118566077D01*
X154140250Y-119093309D01*
X154139752Y-119664187D01*
X154357757Y-120191800D01*
X154761077Y-120595824D01*
X154891215Y-120649862D01*
X154763200Y-120702757D01*
X154359176Y-121106077D01*
X154140250Y-121633309D01*
X154139752Y-122204187D01*
X154357757Y-122731800D01*
X154761077Y-123135824D01*
X154891215Y-123189862D01*
X154763200Y-123242757D01*
X154359176Y-123646077D01*
X154140250Y-124173309D01*
X154139752Y-124744187D01*
X154357757Y-125271800D01*
X154761077Y-125675824D01*
X154891215Y-125729862D01*
X154763200Y-125782757D01*
X154359176Y-126186077D01*
X154140250Y-126713309D01*
X154139752Y-127284187D01*
X154357757Y-127811800D01*
X154761077Y-128215824D01*
X154891215Y-128269862D01*
X154763200Y-128322757D01*
X154359176Y-128726077D01*
X154140250Y-129253309D01*
X154139752Y-129824187D01*
X154357757Y-130351800D01*
X154761077Y-130755824D01*
X154891215Y-130809862D01*
X154763200Y-130862757D01*
X154359176Y-131266077D01*
X154140250Y-131793309D01*
X154139752Y-132364187D01*
X154357757Y-132891800D01*
X154761077Y-133295824D01*
X154891215Y-133349862D01*
X154763200Y-133402757D01*
X154359176Y-133806077D01*
X154140250Y-134333309D01*
X154139752Y-134904187D01*
X154357757Y-135431800D01*
X154761077Y-135835824D01*
X154891215Y-135889862D01*
X154763200Y-135942757D01*
X154359176Y-136346077D01*
X154140250Y-136873309D01*
X154139752Y-137444187D01*
X154315834Y-137870337D01*
X154136606Y-137944576D01*
X153819575Y-138261606D01*
X153648000Y-138675826D01*
X153648000Y-139045250D01*
X153929750Y-139327000D01*
X155202000Y-139327000D01*
X155202000Y-139307000D01*
X155948000Y-139307000D01*
X155948000Y-139327000D01*
X157220250Y-139327000D01*
X157502000Y-139045250D01*
X157502000Y-138675826D01*
X157330425Y-138261606D01*
X157013394Y-137944576D01*
X156833885Y-137870221D01*
X157009750Y-137446691D01*
X157010248Y-136875813D01*
X156792243Y-136348200D01*
X156388923Y-135944176D01*
X156258785Y-135890138D01*
X156386800Y-135837243D01*
X156790824Y-135433923D01*
X157009750Y-134906691D01*
X157010248Y-134335813D01*
X156792243Y-133808200D01*
X156388923Y-133404176D01*
X156258785Y-133350138D01*
X156386800Y-133297243D01*
X156790824Y-132893923D01*
X157009750Y-132366691D01*
X157010248Y-131795813D01*
X156792243Y-131268200D01*
X156501728Y-130977177D01*
X179139574Y-130977177D01*
X179513298Y-131881657D01*
X180204703Y-132574270D01*
X181108529Y-132949572D01*
X182087177Y-132950426D01*
X182991657Y-132576702D01*
X183684270Y-131885297D01*
X184059572Y-130981471D01*
X184060426Y-130002823D01*
X183686702Y-129098343D01*
X182995297Y-128405730D01*
X182091471Y-128030428D01*
X181112823Y-128029574D01*
X180208343Y-128403298D01*
X179515730Y-129094703D01*
X179140428Y-129998529D01*
X179139574Y-130977177D01*
X156501728Y-130977177D01*
X156388923Y-130864176D01*
X156258785Y-130810138D01*
X156386800Y-130757243D01*
X156790824Y-130353923D01*
X157009750Y-129826691D01*
X157010248Y-129255813D01*
X156792243Y-128728200D01*
X156388923Y-128324176D01*
X156258785Y-128270138D01*
X156386800Y-128217243D01*
X156790824Y-127813923D01*
X157009750Y-127286691D01*
X157010248Y-126715813D01*
X156792243Y-126188200D01*
X156388923Y-125784176D01*
X156258785Y-125730138D01*
X156386800Y-125677243D01*
X156790824Y-125273923D01*
X157009750Y-124746691D01*
X157010248Y-124175813D01*
X156792243Y-123648200D01*
X156388923Y-123244176D01*
X156258785Y-123190138D01*
X156386800Y-123137243D01*
X156790824Y-122733923D01*
X157009750Y-122206691D01*
X157009758Y-122196661D01*
X158622758Y-122196661D01*
X158834990Y-122710303D01*
X159227630Y-123103629D01*
X159435512Y-123189949D01*
X159229697Y-123274990D01*
X158836371Y-123667630D01*
X158623243Y-124180900D01*
X158622758Y-124736661D01*
X158834990Y-125250303D01*
X159227630Y-125643629D01*
X159740900Y-125856757D01*
X160296661Y-125857242D01*
X160810303Y-125645010D01*
X161203629Y-125252370D01*
X161289949Y-125044488D01*
X161374990Y-125250303D01*
X161767630Y-125643629D01*
X162280900Y-125856757D01*
X162836661Y-125857242D01*
X163350303Y-125645010D01*
X163743629Y-125252370D01*
X163829949Y-125044488D01*
X163914990Y-125250303D01*
X164307630Y-125643629D01*
X164820900Y-125856757D01*
X165376661Y-125857242D01*
X165379410Y-125856106D01*
X166771396Y-125856106D01*
X166831117Y-126207918D01*
X167561589Y-126384411D01*
X168303997Y-126267931D01*
X168448883Y-126207918D01*
X168508604Y-125856106D01*
X167640000Y-124987502D01*
X166771396Y-125856106D01*
X165379410Y-125856106D01*
X165890303Y-125645010D01*
X166212586Y-125323289D01*
X166243894Y-125328604D01*
X167112498Y-124460000D01*
X168167502Y-124460000D01*
X169036106Y-125328604D01*
X169387918Y-125268883D01*
X169564411Y-124538411D01*
X169447931Y-123796003D01*
X169387918Y-123651117D01*
X169036106Y-123591396D01*
X168167502Y-124460000D01*
X167112498Y-124460000D01*
X166243894Y-123591396D01*
X166212214Y-123596774D01*
X165892370Y-123276371D01*
X165684488Y-123190051D01*
X165890303Y-123105010D01*
X166283629Y-122712370D01*
X166369949Y-122504488D01*
X166454990Y-122710303D01*
X166776711Y-123032586D01*
X166771396Y-123063894D01*
X167640000Y-123932498D01*
X168508604Y-123063894D01*
X168503226Y-123032214D01*
X168611343Y-122924285D01*
X171324760Y-122924285D01*
X171535169Y-123433515D01*
X171924436Y-123823461D01*
X172156870Y-123919976D01*
X171926485Y-124015169D01*
X171536539Y-124404436D01*
X171325241Y-124913298D01*
X171324760Y-125464285D01*
X171535169Y-125973515D01*
X171924436Y-126363461D01*
X172156870Y-126459976D01*
X171926485Y-126555169D01*
X171536539Y-126944436D01*
X171325241Y-127453298D01*
X171324760Y-128004285D01*
X171535169Y-128513515D01*
X171924436Y-128903461D01*
X172433298Y-129114759D01*
X172984285Y-129115240D01*
X173493515Y-128904831D01*
X173852560Y-128546411D01*
X173852560Y-129750000D01*
X173896838Y-129985317D01*
X174035910Y-130201441D01*
X174248110Y-130346431D01*
X174500000Y-130397440D01*
X176000000Y-130397440D01*
X176235317Y-130353162D01*
X176451441Y-130214090D01*
X176596431Y-130001890D01*
X176647440Y-129750000D01*
X176647440Y-128250000D01*
X176603162Y-128014683D01*
X176464090Y-127798559D01*
X176251890Y-127653569D01*
X176054738Y-127613645D01*
X176423461Y-127245564D01*
X176634759Y-126736702D01*
X176635240Y-126185715D01*
X176424831Y-125676485D01*
X176035564Y-125286539D01*
X175803130Y-125190024D01*
X176033515Y-125094831D01*
X176423461Y-124705564D01*
X176634759Y-124196702D01*
X176635240Y-123645715D01*
X176424831Y-123136485D01*
X176102094Y-122813185D01*
X176109720Y-122767221D01*
X175250000Y-121907502D01*
X175235858Y-121921644D01*
X174708356Y-121394142D01*
X174722498Y-121380000D01*
X175777502Y-121380000D01*
X176637221Y-122239720D01*
X176987827Y-122181551D01*
X177162284Y-121455499D01*
X177045613Y-120717953D01*
X176987827Y-120578449D01*
X176637221Y-120520280D01*
X175777502Y-121380000D01*
X174722498Y-121380000D01*
X174708356Y-121365858D01*
X175235858Y-120838356D01*
X175250000Y-120852498D01*
X176109720Y-119992779D01*
X176051551Y-119642173D01*
X175325499Y-119467716D01*
X174587953Y-119584387D01*
X174530932Y-119608007D01*
X174505613Y-119447953D01*
X174447827Y-119308449D01*
X174097221Y-119250280D01*
X173237502Y-120110000D01*
X173251644Y-120124142D01*
X172724142Y-120651644D01*
X172710000Y-120637502D01*
X171850280Y-121497221D01*
X171857969Y-121543566D01*
X171536539Y-121864436D01*
X171325241Y-122373298D01*
X171324760Y-122924285D01*
X168611343Y-122924285D01*
X168823629Y-122712370D01*
X169036757Y-122199100D01*
X169037242Y-121643339D01*
X168825010Y-121129697D01*
X168432370Y-120736371D01*
X167921020Y-120524040D01*
X167941282Y-120503778D01*
X167714220Y-120276716D01*
X168069854Y-120212086D01*
X168113493Y-120034501D01*
X170797716Y-120034501D01*
X170914387Y-120772047D01*
X170972173Y-120911551D01*
X171322779Y-120969720D01*
X172182498Y-120110000D01*
X171322779Y-119250280D01*
X170972173Y-119308449D01*
X170797716Y-120034501D01*
X168113493Y-120034501D01*
X168252796Y-119467627D01*
X168138901Y-118722779D01*
X171850280Y-118722779D01*
X172710000Y-119582498D01*
X173185321Y-119107177D01*
X179139574Y-119107177D01*
X179513298Y-120011657D01*
X180204703Y-120704270D01*
X181108529Y-121079572D01*
X182087177Y-121080426D01*
X182991657Y-120706702D01*
X183684270Y-120015297D01*
X184059572Y-119111471D01*
X184060426Y-118132823D01*
X183686702Y-117228343D01*
X182995297Y-116535730D01*
X182091471Y-116160428D01*
X181112823Y-116159574D01*
X180208343Y-116533298D01*
X179515730Y-117224703D01*
X179140428Y-118128529D01*
X179139574Y-119107177D01*
X173185321Y-119107177D01*
X173569720Y-118722779D01*
X173511551Y-118372173D01*
X172785499Y-118197716D01*
X172047953Y-118314387D01*
X171908449Y-118372173D01*
X171850280Y-118722779D01*
X168138901Y-118722779D01*
X168136920Y-118709827D01*
X168069854Y-118547914D01*
X167714218Y-118483284D01*
X166817502Y-119380000D01*
X166831644Y-119394142D01*
X166304142Y-119921644D01*
X166290000Y-119907502D01*
X166275858Y-119921644D01*
X165748356Y-119394142D01*
X165762498Y-119380000D01*
X164865782Y-118483284D01*
X164510146Y-118547914D01*
X164327204Y-119292373D01*
X164443080Y-120050173D01*
X164510146Y-120212086D01*
X164865780Y-120276716D01*
X164638718Y-120503778D01*
X164706128Y-120571188D01*
X164309697Y-120734990D01*
X163916371Y-121127630D01*
X163830051Y-121335512D01*
X163745010Y-121129697D01*
X163352370Y-120736371D01*
X162839100Y-120523243D01*
X162283339Y-120522758D01*
X161769697Y-120734990D01*
X161376371Y-121127630D01*
X161290051Y-121335512D01*
X161205010Y-121129697D01*
X160812370Y-120736371D01*
X160299100Y-120523243D01*
X159743339Y-120522758D01*
X159229697Y-120734990D01*
X158836371Y-121127630D01*
X158623243Y-121640900D01*
X158622758Y-122196661D01*
X157009758Y-122196661D01*
X157010248Y-121635813D01*
X156792243Y-121108200D01*
X156388923Y-120704176D01*
X156258785Y-120650138D01*
X156386800Y-120597243D01*
X156790824Y-120193923D01*
X157009750Y-119666691D01*
X157009752Y-119664187D01*
X159854752Y-119664187D01*
X160072757Y-120191800D01*
X160476077Y-120595824D01*
X161003309Y-120814750D01*
X161574187Y-120815248D01*
X162101800Y-120597243D01*
X162505824Y-120193923D01*
X162724750Y-119666691D01*
X162725248Y-119095813D01*
X162507243Y-118568200D01*
X162103923Y-118164176D01*
X161602055Y-117955782D01*
X165393284Y-117955782D01*
X166290000Y-118852498D01*
X167186716Y-117955782D01*
X167122086Y-117600146D01*
X166377627Y-117417204D01*
X165619827Y-117533080D01*
X165457914Y-117600146D01*
X165393284Y-117955782D01*
X161602055Y-117955782D01*
X161576691Y-117945250D01*
X161005813Y-117944752D01*
X160478200Y-118162757D01*
X160074176Y-118566077D01*
X159855250Y-119093309D01*
X159854752Y-119664187D01*
X157009752Y-119664187D01*
X157010248Y-119095813D01*
X156792243Y-118568200D01*
X156388923Y-118164176D01*
X156258785Y-118110138D01*
X156386800Y-118057243D01*
X156790824Y-117653923D01*
X157009750Y-117126691D01*
X157010248Y-116555813D01*
X156792243Y-116028200D01*
X156618534Y-115854187D01*
X160489752Y-115854187D01*
X160707757Y-116381800D01*
X161111077Y-116785824D01*
X161638309Y-117004750D01*
X162209187Y-117005248D01*
X162736800Y-116787243D01*
X163140824Y-116383923D01*
X163359750Y-115856691D01*
X163360000Y-115570000D01*
X168081887Y-115570000D01*
X168191120Y-116119151D01*
X168502189Y-116584698D01*
X168967736Y-116895767D01*
X169516887Y-117005000D01*
X169573113Y-117005000D01*
X170122264Y-116895767D01*
X170587811Y-116584698D01*
X170898880Y-116119151D01*
X171008113Y-115570000D01*
X170898880Y-115020849D01*
X170587811Y-114555302D01*
X170122264Y-114244233D01*
X169573113Y-114135000D01*
X169516887Y-114135000D01*
X168967736Y-114244233D01*
X168502189Y-114555302D01*
X168191120Y-115020849D01*
X168081887Y-115570000D01*
X163360000Y-115570000D01*
X163360248Y-115285813D01*
X163142243Y-114758200D01*
X162738923Y-114354176D01*
X162211691Y-114135250D01*
X161640813Y-114134752D01*
X161113200Y-114352757D01*
X160709176Y-114756077D01*
X160490250Y-115283309D01*
X160489752Y-115854187D01*
X156618534Y-115854187D01*
X156388923Y-115624176D01*
X156258785Y-115570138D01*
X156386800Y-115517243D01*
X156790824Y-115113923D01*
X157009750Y-114586691D01*
X157010248Y-114015813D01*
X156895119Y-113737177D01*
X179149574Y-113737177D01*
X179523298Y-114641657D01*
X180214703Y-115334270D01*
X181118529Y-115709572D01*
X182097177Y-115710426D01*
X183001657Y-115336702D01*
X183694270Y-114645297D01*
X184069572Y-113741471D01*
X184070426Y-112762823D01*
X183696702Y-111858343D01*
X183005297Y-111165730D01*
X182101471Y-110790428D01*
X181122823Y-110789574D01*
X180218343Y-111163298D01*
X179525730Y-111854703D01*
X179150428Y-112758529D01*
X179149574Y-113737177D01*
X156895119Y-113737177D01*
X156792243Y-113488200D01*
X156388923Y-113084176D01*
X156258785Y-113030138D01*
X156386800Y-112977243D01*
X156790824Y-112573923D01*
X157009750Y-112046691D01*
X157009752Y-112044187D01*
X160489752Y-112044187D01*
X160707757Y-112571800D01*
X161111077Y-112975824D01*
X161638309Y-113194750D01*
X162209187Y-113195248D01*
X162736800Y-112977243D01*
X163140824Y-112573923D01*
X163359750Y-112046691D01*
X163360000Y-111760000D01*
X168081887Y-111760000D01*
X168191120Y-112309151D01*
X168502189Y-112774698D01*
X168967736Y-113085767D01*
X169516887Y-113195000D01*
X169573113Y-113195000D01*
X170122264Y-113085767D01*
X170587811Y-112774698D01*
X170898880Y-112309151D01*
X171008113Y-111760000D01*
X170898880Y-111210849D01*
X170587811Y-110745302D01*
X170122264Y-110434233D01*
X169573113Y-110325000D01*
X169516887Y-110325000D01*
X168967736Y-110434233D01*
X168502189Y-110745302D01*
X168191120Y-111210849D01*
X168081887Y-111760000D01*
X163360000Y-111760000D01*
X163360248Y-111475813D01*
X163142243Y-110948200D01*
X162738923Y-110544176D01*
X162211691Y-110325250D01*
X161640813Y-110324752D01*
X161113200Y-110542757D01*
X160709176Y-110946077D01*
X160490250Y-111473309D01*
X160489752Y-112044187D01*
X157009752Y-112044187D01*
X157010248Y-111475813D01*
X156792243Y-110948200D01*
X156388923Y-110544176D01*
X156258785Y-110490138D01*
X156386800Y-110437243D01*
X156790824Y-110033923D01*
X157009750Y-109506691D01*
X157010248Y-108935813D01*
X156792243Y-108408200D01*
X156388923Y-108004176D01*
X156258785Y-107950138D01*
X156259118Y-107950000D01*
X160461887Y-107950000D01*
X160571120Y-108499151D01*
X160882189Y-108964698D01*
X161347736Y-109275767D01*
X161896887Y-109385000D01*
X161953113Y-109385000D01*
X162502264Y-109275767D01*
X162967811Y-108964698D01*
X163278880Y-108499151D01*
X163331584Y-108234187D01*
X168109752Y-108234187D01*
X168327757Y-108761800D01*
X168731077Y-109165824D01*
X169258309Y-109384750D01*
X169829187Y-109385248D01*
X170356800Y-109167243D01*
X170760824Y-108763923D01*
X170979750Y-108236691D01*
X170980248Y-107665813D01*
X170762243Y-107138200D01*
X170358923Y-106734176D01*
X169831691Y-106515250D01*
X169260813Y-106514752D01*
X168733200Y-106732757D01*
X168329176Y-107136077D01*
X168110250Y-107663309D01*
X168109752Y-108234187D01*
X163331584Y-108234187D01*
X163388113Y-107950000D01*
X163278880Y-107400849D01*
X162967811Y-106935302D01*
X162502264Y-106624233D01*
X161953113Y-106515000D01*
X161896887Y-106515000D01*
X161347736Y-106624233D01*
X160882189Y-106935302D01*
X160571120Y-107400849D01*
X160461887Y-107950000D01*
X156259118Y-107950000D01*
X156386800Y-107897243D01*
X156790824Y-107493923D01*
X157009750Y-106966691D01*
X157010248Y-106395813D01*
X156792243Y-105868200D01*
X156608649Y-105684285D01*
X171334760Y-105684285D01*
X171545169Y-106193515D01*
X171934436Y-106583461D01*
X172166870Y-106679976D01*
X171936485Y-106775169D01*
X171546539Y-107164436D01*
X171335241Y-107673298D01*
X171334760Y-108224285D01*
X171545169Y-108733515D01*
X171934436Y-109123461D01*
X172166870Y-109219976D01*
X171936485Y-109315169D01*
X171546539Y-109704436D01*
X171335241Y-110213298D01*
X171334760Y-110764285D01*
X171545169Y-111273515D01*
X171934436Y-111663461D01*
X172443298Y-111874759D01*
X172994285Y-111875240D01*
X173503515Y-111664831D01*
X173862560Y-111306411D01*
X173862560Y-112510000D01*
X173906838Y-112745317D01*
X174045910Y-112961441D01*
X174258110Y-113106431D01*
X174510000Y-113157440D01*
X176010000Y-113157440D01*
X176245317Y-113113162D01*
X176461441Y-112974090D01*
X176606431Y-112761890D01*
X176657440Y-112510000D01*
X176657440Y-111010000D01*
X176613162Y-110774683D01*
X176474090Y-110558559D01*
X176261890Y-110413569D01*
X176064738Y-110373645D01*
X176433461Y-110005564D01*
X176644759Y-109496702D01*
X176645240Y-108945715D01*
X176434831Y-108436485D01*
X176045564Y-108046539D01*
X175813130Y-107950024D01*
X176043515Y-107854831D01*
X176433461Y-107465564D01*
X176644759Y-106956702D01*
X176645240Y-106405715D01*
X176434831Y-105896485D01*
X176112094Y-105573185D01*
X176119720Y-105527221D01*
X175260000Y-104667502D01*
X175245858Y-104681644D01*
X174718356Y-104154142D01*
X174732498Y-104140000D01*
X175787502Y-104140000D01*
X176647221Y-104999720D01*
X176997827Y-104941551D01*
X177172284Y-104215499D01*
X177055613Y-103477953D01*
X176997827Y-103338449D01*
X176647221Y-103280280D01*
X175787502Y-104140000D01*
X174732498Y-104140000D01*
X174718356Y-104125858D01*
X175245858Y-103598356D01*
X175260000Y-103612498D01*
X176119720Y-102752779D01*
X176061551Y-102402173D01*
X175335499Y-102227716D01*
X174597953Y-102344387D01*
X174540932Y-102368007D01*
X174515613Y-102207953D01*
X174457827Y-102068449D01*
X174107221Y-102010280D01*
X173247502Y-102870000D01*
X173261644Y-102884142D01*
X172734142Y-103411644D01*
X172720000Y-103397502D01*
X171860280Y-104257221D01*
X171867969Y-104303566D01*
X171546539Y-104624436D01*
X171335241Y-105133298D01*
X171334760Y-105684285D01*
X156608649Y-105684285D01*
X156388923Y-105464176D01*
X156258785Y-105410138D01*
X156386800Y-105357243D01*
X156790824Y-104953923D01*
X157009750Y-104426691D01*
X157010000Y-104140000D01*
X160461887Y-104140000D01*
X160571120Y-104689151D01*
X160882189Y-105154698D01*
X161347736Y-105465767D01*
X161896887Y-105575000D01*
X161953113Y-105575000D01*
X162502264Y-105465767D01*
X162967811Y-105154698D01*
X163278880Y-104689151D01*
X163331584Y-104424187D01*
X168109752Y-104424187D01*
X168327757Y-104951800D01*
X168731077Y-105355824D01*
X169258309Y-105574750D01*
X169829187Y-105575248D01*
X170356800Y-105357243D01*
X170760824Y-104953923D01*
X170979750Y-104426691D01*
X170980248Y-103855813D01*
X170762243Y-103328200D01*
X170358923Y-102924176D01*
X170046632Y-102794501D01*
X170807716Y-102794501D01*
X170924387Y-103532047D01*
X170982173Y-103671551D01*
X171332779Y-103729720D01*
X172192498Y-102870000D01*
X171332779Y-102010280D01*
X170982173Y-102068449D01*
X170807716Y-102794501D01*
X170046632Y-102794501D01*
X169831691Y-102705250D01*
X169260813Y-102704752D01*
X168733200Y-102922757D01*
X168329176Y-103326077D01*
X168110250Y-103853309D01*
X168109752Y-104424187D01*
X163331584Y-104424187D01*
X163388113Y-104140000D01*
X163278880Y-103590849D01*
X162967811Y-103125302D01*
X162502264Y-102814233D01*
X161953113Y-102705000D01*
X161896887Y-102705000D01*
X161347736Y-102814233D01*
X160882189Y-103125302D01*
X160571120Y-103590849D01*
X160461887Y-104140000D01*
X157010000Y-104140000D01*
X157010248Y-103855813D01*
X156792243Y-103328200D01*
X156388923Y-102924176D01*
X156258785Y-102870138D01*
X156386800Y-102817243D01*
X156790824Y-102413923D01*
X157009750Y-101886691D01*
X157010248Y-101315813D01*
X156792243Y-100788200D01*
X156388923Y-100384176D01*
X156258785Y-100330138D01*
X156259118Y-100330000D01*
X160461887Y-100330000D01*
X160571120Y-100879151D01*
X160882189Y-101344698D01*
X161347736Y-101655767D01*
X161896887Y-101765000D01*
X161953113Y-101765000D01*
X162502264Y-101655767D01*
X162967811Y-101344698D01*
X163278880Y-100879151D01*
X163331584Y-100614187D01*
X168109752Y-100614187D01*
X168327757Y-101141800D01*
X168731077Y-101545824D01*
X169258309Y-101764750D01*
X169829187Y-101765248D01*
X170356800Y-101547243D01*
X170421376Y-101482779D01*
X171860280Y-101482779D01*
X172720000Y-102342498D01*
X173195321Y-101867177D01*
X179149574Y-101867177D01*
X179523298Y-102771657D01*
X180214703Y-103464270D01*
X181118529Y-103839572D01*
X182097177Y-103840426D01*
X183001657Y-103466702D01*
X183694270Y-102775297D01*
X184069572Y-101871471D01*
X184070426Y-100892823D01*
X183696702Y-99988343D01*
X183005297Y-99295730D01*
X182101471Y-98920428D01*
X181122823Y-98919574D01*
X180218343Y-99293298D01*
X179525730Y-99984703D01*
X179150428Y-100888529D01*
X179149574Y-101867177D01*
X173195321Y-101867177D01*
X173579720Y-101482779D01*
X173521551Y-101132173D01*
X172795499Y-100957716D01*
X172057953Y-101074387D01*
X171918449Y-101132173D01*
X171860280Y-101482779D01*
X170421376Y-101482779D01*
X170760824Y-101143923D01*
X170979750Y-100616691D01*
X170980248Y-100045813D01*
X170762243Y-99518200D01*
X170358923Y-99114176D01*
X169831691Y-98895250D01*
X169260813Y-98894752D01*
X168733200Y-99112757D01*
X168329176Y-99516077D01*
X168110250Y-100043309D01*
X168109752Y-100614187D01*
X163331584Y-100614187D01*
X163388113Y-100330000D01*
X163278880Y-99780849D01*
X162967811Y-99315302D01*
X162502264Y-99004233D01*
X161953113Y-98895000D01*
X161896887Y-98895000D01*
X161347736Y-99004233D01*
X160882189Y-99315302D01*
X160571120Y-99780849D01*
X160461887Y-100330000D01*
X156259118Y-100330000D01*
X156386800Y-100277243D01*
X156790824Y-99873923D01*
X157009750Y-99346691D01*
X157010248Y-98775813D01*
X156792243Y-98248200D01*
X156388923Y-97844176D01*
X156258785Y-97790138D01*
X156386800Y-97737243D01*
X156790824Y-97333923D01*
X157009750Y-96806691D01*
X157010000Y-96520000D01*
X160461887Y-96520000D01*
X160571120Y-97069151D01*
X160882189Y-97534698D01*
X161347736Y-97845767D01*
X161896887Y-97955000D01*
X161953113Y-97955000D01*
X162502264Y-97845767D01*
X162967811Y-97534698D01*
X163278880Y-97069151D01*
X163331584Y-96804187D01*
X168109752Y-96804187D01*
X168327757Y-97331800D01*
X168731077Y-97735824D01*
X169258309Y-97954750D01*
X169829187Y-97955248D01*
X170356800Y-97737243D01*
X170760824Y-97333923D01*
X170979750Y-96806691D01*
X170979937Y-96592177D01*
X179149574Y-96592177D01*
X179523298Y-97496657D01*
X180214703Y-98189270D01*
X181118529Y-98564572D01*
X182097177Y-98565426D01*
X183001657Y-98191702D01*
X183694270Y-97500297D01*
X184069572Y-96596471D01*
X184070426Y-95617823D01*
X183696702Y-94713343D01*
X183005297Y-94020730D01*
X182101471Y-93645428D01*
X181122823Y-93644574D01*
X180218343Y-94018298D01*
X179525730Y-94709703D01*
X179150428Y-95613529D01*
X179149574Y-96592177D01*
X170979937Y-96592177D01*
X170980248Y-96235813D01*
X170762243Y-95708200D01*
X170358923Y-95304176D01*
X169831691Y-95085250D01*
X169260813Y-95084752D01*
X168733200Y-95302757D01*
X168329176Y-95706077D01*
X168110250Y-96233309D01*
X168109752Y-96804187D01*
X163331584Y-96804187D01*
X163388113Y-96520000D01*
X163278880Y-95970849D01*
X162967811Y-95505302D01*
X162502264Y-95194233D01*
X161953113Y-95085000D01*
X161896887Y-95085000D01*
X161347736Y-95194233D01*
X160882189Y-95505302D01*
X160571120Y-95970849D01*
X160461887Y-96520000D01*
X157010000Y-96520000D01*
X157010248Y-96235813D01*
X156792243Y-95708200D01*
X156388923Y-95304176D01*
X156258785Y-95250138D01*
X156386800Y-95197243D01*
X156790824Y-94793923D01*
X157009750Y-94266691D01*
X157010248Y-93695813D01*
X156792243Y-93168200D01*
X156388923Y-92764176D01*
X156258785Y-92710138D01*
X156259118Y-92710000D01*
X160461887Y-92710000D01*
X160571120Y-93259151D01*
X160882189Y-93724698D01*
X161347736Y-94035767D01*
X161896887Y-94145000D01*
X161953113Y-94145000D01*
X162502264Y-94035767D01*
X162967811Y-93724698D01*
X163278880Y-93259151D01*
X163331584Y-92994187D01*
X168109752Y-92994187D01*
X168327757Y-93521800D01*
X168731077Y-93925824D01*
X169258309Y-94144750D01*
X169829187Y-94145248D01*
X170356800Y-93927243D01*
X170760824Y-93523923D01*
X170979750Y-92996691D01*
X170980248Y-92425813D01*
X170762243Y-91898200D01*
X170358923Y-91494176D01*
X169831691Y-91275250D01*
X169260813Y-91274752D01*
X168733200Y-91492757D01*
X168329176Y-91896077D01*
X168110250Y-92423309D01*
X168109752Y-92994187D01*
X163331584Y-92994187D01*
X163388113Y-92710000D01*
X163278880Y-92160849D01*
X162967811Y-91695302D01*
X162502264Y-91384233D01*
X161953113Y-91275000D01*
X161896887Y-91275000D01*
X161347736Y-91384233D01*
X160882189Y-91695302D01*
X160571120Y-92160849D01*
X160461887Y-92710000D01*
X156259118Y-92710000D01*
X156386800Y-92657243D01*
X156790824Y-92253923D01*
X157009750Y-91726691D01*
X157010248Y-91155813D01*
X156792243Y-90628200D01*
X156388923Y-90224176D01*
X156258785Y-90170138D01*
X156386800Y-90117243D01*
X156790824Y-89713923D01*
X157009750Y-89186691D01*
X157010000Y-88900000D01*
X160461887Y-88900000D01*
X160571120Y-89449151D01*
X160882189Y-89914698D01*
X161347736Y-90225767D01*
X161896887Y-90335000D01*
X161953113Y-90335000D01*
X162502264Y-90225767D01*
X162967811Y-89914698D01*
X163278880Y-89449151D01*
X163331584Y-89184187D01*
X168109752Y-89184187D01*
X168327757Y-89711800D01*
X168731077Y-90115824D01*
X169258309Y-90334750D01*
X169829187Y-90335248D01*
X170356800Y-90117243D01*
X170760824Y-89713923D01*
X170979750Y-89186691D01*
X170980248Y-88615813D01*
X170948628Y-88539285D01*
X171334760Y-88539285D01*
X171545169Y-89048515D01*
X171934436Y-89438461D01*
X172166870Y-89534976D01*
X171936485Y-89630169D01*
X171546539Y-90019436D01*
X171335241Y-90528298D01*
X171334760Y-91079285D01*
X171545169Y-91588515D01*
X171934436Y-91978461D01*
X172166870Y-92074976D01*
X171936485Y-92170169D01*
X171546539Y-92559436D01*
X171335241Y-93068298D01*
X171334760Y-93619285D01*
X171545169Y-94128515D01*
X171934436Y-94518461D01*
X172443298Y-94729759D01*
X172994285Y-94730240D01*
X173503515Y-94519831D01*
X173862560Y-94161411D01*
X173862560Y-95365000D01*
X173906838Y-95600317D01*
X174045910Y-95816441D01*
X174258110Y-95961431D01*
X174510000Y-96012440D01*
X176010000Y-96012440D01*
X176245317Y-95968162D01*
X176461441Y-95829090D01*
X176606431Y-95616890D01*
X176657440Y-95365000D01*
X176657440Y-93865000D01*
X176613162Y-93629683D01*
X176474090Y-93413559D01*
X176261890Y-93268569D01*
X176064738Y-93228645D01*
X176433461Y-92860564D01*
X176644759Y-92351702D01*
X176645240Y-91800715D01*
X176434831Y-91291485D01*
X176045564Y-90901539D01*
X175813130Y-90805024D01*
X176043515Y-90709831D01*
X176433461Y-90320564D01*
X176644759Y-89811702D01*
X176645240Y-89260715D01*
X176434831Y-88751485D01*
X176112094Y-88428185D01*
X176119720Y-88382221D01*
X175260000Y-87522502D01*
X175245858Y-87536644D01*
X174718356Y-87009142D01*
X174732498Y-86995000D01*
X175787502Y-86995000D01*
X176647221Y-87854720D01*
X176997827Y-87796551D01*
X177172284Y-87070499D01*
X177055613Y-86332953D01*
X176997827Y-86193449D01*
X176647221Y-86135280D01*
X175787502Y-86995000D01*
X174732498Y-86995000D01*
X174718356Y-86980858D01*
X175245858Y-86453356D01*
X175260000Y-86467498D01*
X176119720Y-85607779D01*
X176061551Y-85257173D01*
X175335499Y-85082716D01*
X174597953Y-85199387D01*
X174540932Y-85223007D01*
X174515613Y-85062953D01*
X174457827Y-84923449D01*
X174107221Y-84865280D01*
X173247502Y-85725000D01*
X173261644Y-85739142D01*
X172734142Y-86266644D01*
X172720000Y-86252502D01*
X171860280Y-87112221D01*
X171867969Y-87158566D01*
X171546539Y-87479436D01*
X171335241Y-87988298D01*
X171334760Y-88539285D01*
X170948628Y-88539285D01*
X170762243Y-88088200D01*
X170358923Y-87684176D01*
X169831691Y-87465250D01*
X169260813Y-87464752D01*
X168733200Y-87682757D01*
X168329176Y-88086077D01*
X168110250Y-88613309D01*
X168109752Y-89184187D01*
X163331584Y-89184187D01*
X163388113Y-88900000D01*
X163278880Y-88350849D01*
X162967811Y-87885302D01*
X162502264Y-87574233D01*
X161953113Y-87465000D01*
X161896887Y-87465000D01*
X161347736Y-87574233D01*
X160882189Y-87885302D01*
X160571120Y-88350849D01*
X160461887Y-88900000D01*
X157010000Y-88900000D01*
X157010248Y-88615813D01*
X156792243Y-88088200D01*
X156388923Y-87684176D01*
X156258785Y-87630138D01*
X156386800Y-87577243D01*
X156790824Y-87173923D01*
X157009750Y-86646691D01*
X157010248Y-86075813D01*
X156792243Y-85548200D01*
X156388923Y-85144176D01*
X156258785Y-85090138D01*
X156259118Y-85090000D01*
X160461887Y-85090000D01*
X160571120Y-85639151D01*
X160882189Y-86104698D01*
X161347736Y-86415767D01*
X161896887Y-86525000D01*
X161953113Y-86525000D01*
X162502264Y-86415767D01*
X162967811Y-86104698D01*
X163278880Y-85639151D01*
X163331584Y-85374187D01*
X168109752Y-85374187D01*
X168327757Y-85901800D01*
X168731077Y-86305824D01*
X169258309Y-86524750D01*
X169829187Y-86525248D01*
X170356800Y-86307243D01*
X170760824Y-85903923D01*
X170823924Y-85751961D01*
X170924387Y-86387047D01*
X170982173Y-86526551D01*
X171332779Y-86584720D01*
X172192498Y-85725000D01*
X171332779Y-84865280D01*
X170982173Y-84923449D01*
X170980138Y-84931918D01*
X170980248Y-84805813D01*
X170786861Y-84337779D01*
X171860280Y-84337779D01*
X172720000Y-85197498D01*
X173195321Y-84722177D01*
X179149574Y-84722177D01*
X179523298Y-85626657D01*
X180214703Y-86319270D01*
X181118529Y-86694572D01*
X182097177Y-86695426D01*
X183001657Y-86321702D01*
X183694270Y-85630297D01*
X184069572Y-84726471D01*
X184070426Y-83747823D01*
X183696702Y-82843343D01*
X183005297Y-82150730D01*
X182101471Y-81775428D01*
X181122823Y-81774574D01*
X180218343Y-82148298D01*
X179525730Y-82839703D01*
X179150428Y-83743529D01*
X179149574Y-84722177D01*
X173195321Y-84722177D01*
X173579720Y-84337779D01*
X173521551Y-83987173D01*
X172795499Y-83812716D01*
X172057953Y-83929387D01*
X171918449Y-83987173D01*
X171860280Y-84337779D01*
X170786861Y-84337779D01*
X170762243Y-84278200D01*
X170358923Y-83874176D01*
X169831691Y-83655250D01*
X169260813Y-83654752D01*
X168733200Y-83872757D01*
X168329176Y-84276077D01*
X168110250Y-84803309D01*
X168109752Y-85374187D01*
X163331584Y-85374187D01*
X163388113Y-85090000D01*
X163278880Y-84540849D01*
X162967811Y-84075302D01*
X162502264Y-83764233D01*
X161953113Y-83655000D01*
X161896887Y-83655000D01*
X161347736Y-83764233D01*
X160882189Y-84075302D01*
X160571120Y-84540849D01*
X160461887Y-85090000D01*
X156259118Y-85090000D01*
X156386800Y-85037243D01*
X156790824Y-84633923D01*
X157009750Y-84106691D01*
X157010248Y-83535813D01*
X156792243Y-83008200D01*
X156388923Y-82604176D01*
X156258785Y-82550138D01*
X156386800Y-82497243D01*
X156790824Y-82093923D01*
X157009750Y-81566691D01*
X157010000Y-81280000D01*
X160461887Y-81280000D01*
X160571120Y-81829151D01*
X160882189Y-82294698D01*
X161347736Y-82605767D01*
X161896887Y-82715000D01*
X161953113Y-82715000D01*
X162502264Y-82605767D01*
X162967811Y-82294698D01*
X163278880Y-81829151D01*
X163331584Y-81564187D01*
X168109752Y-81564187D01*
X168327757Y-82091800D01*
X168731077Y-82495824D01*
X169258309Y-82714750D01*
X169829187Y-82715248D01*
X170356800Y-82497243D01*
X170760824Y-82093923D01*
X170979750Y-81566691D01*
X170980248Y-80995813D01*
X170762243Y-80468200D01*
X170358923Y-80064176D01*
X169831691Y-79845250D01*
X169260813Y-79844752D01*
X168733200Y-80062757D01*
X168329176Y-80466077D01*
X168110250Y-80993309D01*
X168109752Y-81564187D01*
X163331584Y-81564187D01*
X163388113Y-81280000D01*
X163278880Y-80730849D01*
X162967811Y-80265302D01*
X162502264Y-79954233D01*
X161953113Y-79845000D01*
X161896887Y-79845000D01*
X161347736Y-79954233D01*
X160882189Y-80265302D01*
X160571120Y-80730849D01*
X160461887Y-81280000D01*
X157010000Y-81280000D01*
X157010248Y-80995813D01*
X156792243Y-80468200D01*
X156388923Y-80064176D01*
X155861691Y-79845250D01*
X155290813Y-79844752D01*
X154763200Y-80062757D01*
X154359176Y-80466077D01*
X154140250Y-80993309D01*
X154139752Y-81564187D01*
X154357757Y-82091800D01*
X154761077Y-82495824D01*
X154891215Y-82549862D01*
X154763200Y-82602757D01*
X154359176Y-83006077D01*
X154140250Y-83533309D01*
X154139752Y-84104187D01*
X154357757Y-84631800D01*
X154761077Y-85035824D01*
X154891215Y-85089862D01*
X154763200Y-85142757D01*
X154359176Y-85546077D01*
X154140250Y-86073309D01*
X154139752Y-86644187D01*
X154357757Y-87171800D01*
X154761077Y-87575824D01*
X154891215Y-87629862D01*
X154763200Y-87682757D01*
X154359176Y-88086077D01*
X154140250Y-88613309D01*
X154139752Y-89184187D01*
X154357757Y-89711800D01*
X154761077Y-90115824D01*
X154891215Y-90169862D01*
X154763200Y-90222757D01*
X154359176Y-90626077D01*
X154140250Y-91153309D01*
X154139752Y-91724187D01*
X154357757Y-92251800D01*
X154761077Y-92655824D01*
X154891215Y-92709862D01*
X154763200Y-92762757D01*
X154359176Y-93166077D01*
X154305138Y-93296215D01*
X154252243Y-93168200D01*
X153848923Y-92764176D01*
X153321691Y-92545250D01*
X152750813Y-92544752D01*
X152223200Y-92762757D01*
X151819176Y-93166077D01*
X151765138Y-93296215D01*
X151712243Y-93168200D01*
X151308923Y-92764176D01*
X150781691Y-92545250D01*
X150210813Y-92544752D01*
X149683200Y-92762757D01*
X149279176Y-93166077D01*
X149225138Y-93296215D01*
X149172243Y-93168200D01*
X148768923Y-92764176D01*
X148638785Y-92710138D01*
X148766800Y-92657243D01*
X149170824Y-92253923D01*
X149389750Y-91726691D01*
X149390248Y-91155813D01*
X149172243Y-90628200D01*
X148768923Y-90224176D01*
X148638785Y-90170138D01*
X148766800Y-90117243D01*
X149170824Y-89713923D01*
X149389750Y-89186691D01*
X149390248Y-88615813D01*
X149172243Y-88088200D01*
X148768923Y-87684176D01*
X148638785Y-87630138D01*
X148766800Y-87577243D01*
X149170824Y-87173923D01*
X149389750Y-86646691D01*
X149390248Y-86075813D01*
X149172243Y-85548200D01*
X148768923Y-85144176D01*
X148638785Y-85090138D01*
X148766800Y-85037243D01*
X149170824Y-84633923D01*
X149389750Y-84106691D01*
X149390248Y-83535813D01*
X149172243Y-83008200D01*
X148768923Y-82604176D01*
X148638785Y-82550138D01*
X148766800Y-82497243D01*
X149170824Y-82093923D01*
X149389750Y-81566691D01*
X149390248Y-80995813D01*
X149172243Y-80468200D01*
X148768923Y-80064176D01*
X148241691Y-79845250D01*
X147670813Y-79844752D01*
X147143200Y-80062757D01*
X146739176Y-80466077D01*
X146685138Y-80596215D01*
X146632243Y-80468200D01*
X146228923Y-80064176D01*
X145701691Y-79845250D01*
X145130813Y-79844752D01*
X144603200Y-80062757D01*
X144199176Y-80466077D01*
X143980250Y-80993309D01*
X143979752Y-81564187D01*
X144197757Y-82091800D01*
X144601077Y-82495824D01*
X144731215Y-82549862D01*
X144603200Y-82602757D01*
X144199176Y-83006077D01*
X143980250Y-83533309D01*
X143979752Y-84104187D01*
X144197757Y-84631800D01*
X144601077Y-85035824D01*
X144731215Y-85089862D01*
X144603200Y-85142757D01*
X144199176Y-85546077D01*
X143980250Y-86073309D01*
X143979752Y-86644187D01*
X144197757Y-87171800D01*
X144601077Y-87575824D01*
X144731215Y-87629862D01*
X144603200Y-87682757D01*
X144199176Y-88086077D01*
X143980250Y-88613309D01*
X143979752Y-89184187D01*
X144197757Y-89711800D01*
X144601077Y-90115824D01*
X144731215Y-90169862D01*
X144603200Y-90222757D01*
X144199176Y-90626077D01*
X143980250Y-91153309D01*
X143979752Y-91724187D01*
X144197757Y-92251800D01*
X144601077Y-92655824D01*
X144731215Y-92709862D01*
X144603200Y-92762757D01*
X144199176Y-93166077D01*
X144145138Y-93296215D01*
X144092243Y-93168200D01*
X143688923Y-92764176D01*
X143161691Y-92545250D01*
X142590813Y-92544752D01*
X142063200Y-92762757D01*
X141659176Y-93166077D01*
X141605138Y-93296215D01*
X141552243Y-93168200D01*
X141148923Y-92764176D01*
X141018785Y-92710138D01*
X141146800Y-92657243D01*
X141550824Y-92253923D01*
X141769750Y-91726691D01*
X141770248Y-91155813D01*
X141552243Y-90628200D01*
X141148923Y-90224176D01*
X141018785Y-90170138D01*
X141146800Y-90117243D01*
X141550824Y-89713923D01*
X141769750Y-89186691D01*
X141770248Y-88615813D01*
X141552243Y-88088200D01*
X141148923Y-87684176D01*
X141018785Y-87630138D01*
X141146800Y-87577243D01*
X141550824Y-87173923D01*
X141769750Y-86646691D01*
X141770248Y-86075813D01*
X141552243Y-85548200D01*
X141148923Y-85144176D01*
X141018785Y-85090138D01*
X141146800Y-85037243D01*
X141550824Y-84633923D01*
X141769750Y-84106691D01*
X141770248Y-83535813D01*
X141552243Y-83008200D01*
X141148923Y-82604176D01*
X141018785Y-82550138D01*
X141146800Y-82497243D01*
X141550824Y-82093923D01*
X141769750Y-81566691D01*
X141770248Y-80995813D01*
X141552243Y-80468200D01*
X141148923Y-80064176D01*
X140621691Y-79845250D01*
X140050813Y-79844752D01*
X139523200Y-80062757D01*
X139119176Y-80466077D01*
X138900250Y-80993309D01*
X138899752Y-81564187D01*
X139117757Y-82091800D01*
X139521077Y-82495824D01*
X139651215Y-82549862D01*
X139523200Y-82602757D01*
X139119176Y-83006077D01*
X138900250Y-83533309D01*
X138899752Y-84104187D01*
X139117757Y-84631800D01*
X139521077Y-85035824D01*
X139651215Y-85089862D01*
X139523200Y-85142757D01*
X139119176Y-85546077D01*
X138900250Y-86073309D01*
X138899752Y-86644187D01*
X139117757Y-87171800D01*
X139521077Y-87575824D01*
X139651215Y-87629862D01*
X139523200Y-87682757D01*
X139119176Y-88086077D01*
X138900250Y-88613309D01*
X138899752Y-89184187D01*
X139117757Y-89711800D01*
X139521077Y-90115824D01*
X139651215Y-90169862D01*
X139523200Y-90222757D01*
X139119176Y-90626077D01*
X138900250Y-91153309D01*
X138899752Y-91724187D01*
X139117757Y-92251800D01*
X139521077Y-92655824D01*
X139651215Y-92709862D01*
X139523200Y-92762757D01*
X139119176Y-93166077D01*
X138900250Y-93693309D01*
X138899752Y-94264187D01*
X139117757Y-94791800D01*
X139521077Y-95195824D01*
X139651215Y-95249862D01*
X139523200Y-95302757D01*
X139119176Y-95706077D01*
X138900250Y-96233309D01*
X138899752Y-96804187D01*
X139117757Y-97331800D01*
X139521077Y-97735824D01*
X139651215Y-97789862D01*
X139523200Y-97842757D01*
X139119176Y-98246077D01*
X138900250Y-98773309D01*
X138899752Y-99344187D01*
X139117757Y-99871800D01*
X139521077Y-100275824D01*
X139651215Y-100329862D01*
X139523200Y-100382757D01*
X139119176Y-100786077D01*
X138900250Y-101313309D01*
X138899752Y-101884187D01*
X139117757Y-102411800D01*
X139521077Y-102815824D01*
X139651215Y-102869862D01*
X139523200Y-102922757D01*
X139119176Y-103326077D01*
X138900250Y-103853309D01*
X138899752Y-104424187D01*
X139117757Y-104951800D01*
X139521077Y-105355824D01*
X139651215Y-105409862D01*
X139523200Y-105462757D01*
X139119176Y-105866077D01*
X138900250Y-106393309D01*
X138899752Y-106964187D01*
X139117757Y-107491800D01*
X139521077Y-107895824D01*
X139651215Y-107949862D01*
X139523200Y-108002757D01*
X139119176Y-108406077D01*
X138900250Y-108933309D01*
X138899752Y-109504187D01*
X139117757Y-110031800D01*
X139521077Y-110435824D01*
X139651215Y-110489862D01*
X139523200Y-110542757D01*
X139119176Y-110946077D01*
X138900250Y-111473309D01*
X138899752Y-112044187D01*
X139117757Y-112571800D01*
X139521077Y-112975824D01*
X139651215Y-113029862D01*
X139523200Y-113082757D01*
X139119176Y-113486077D01*
X138900250Y-114013309D01*
X138899752Y-114584187D01*
X139117757Y-115111800D01*
X139521077Y-115515824D01*
X139651215Y-115569862D01*
X139523200Y-115622757D01*
X139119176Y-116026077D01*
X138900250Y-116553309D01*
X138899752Y-117124187D01*
X139117757Y-117651800D01*
X139521077Y-118055824D01*
X139651215Y-118109862D01*
X139523200Y-118162757D01*
X139119176Y-118566077D01*
X138900250Y-119093309D01*
X138899752Y-119664187D01*
X139117757Y-120191800D01*
X139521077Y-120595824D01*
X139651215Y-120649862D01*
X139523200Y-120702757D01*
X139119176Y-121106077D01*
X138900250Y-121633309D01*
X138899752Y-122204187D01*
X139117757Y-122731800D01*
X139521077Y-123135824D01*
X139651215Y-123189862D01*
X139523200Y-123242757D01*
X139119176Y-123646077D01*
X138900250Y-124173309D01*
X138899752Y-124744187D01*
X139117757Y-125271800D01*
X139521077Y-125675824D01*
X139651215Y-125729862D01*
X139523200Y-125782757D01*
X139119176Y-126186077D01*
X138900250Y-126713309D01*
X138899752Y-127284187D01*
X139117757Y-127811800D01*
X139521077Y-128215824D01*
X139651215Y-128269862D01*
X139523200Y-128322757D01*
X139119176Y-128726077D01*
X138900250Y-129253309D01*
X138899752Y-129824187D01*
X139117757Y-130351800D01*
X139521077Y-130755824D01*
X139651215Y-130809862D01*
X139523200Y-130862757D01*
X139119176Y-131266077D01*
X138900250Y-131793309D01*
X138899752Y-132364187D01*
X139117757Y-132891800D01*
X139521077Y-133295824D01*
X139651215Y-133349862D01*
X139523200Y-133402757D01*
X139119176Y-133806077D01*
X138900250Y-134333309D01*
X138899752Y-134904187D01*
X139117757Y-135431800D01*
X139521077Y-135835824D01*
X139651215Y-135889862D01*
X139523200Y-135942757D01*
X139119176Y-136346077D01*
X138900250Y-136873309D01*
X138899752Y-137444187D01*
X139117757Y-137971800D01*
X139521077Y-138375824D01*
X139651215Y-138429862D01*
X139523200Y-138482757D01*
X139119176Y-138886077D01*
X138900250Y-139413309D01*
X138899752Y-139984187D01*
X139117757Y-140511800D01*
X139521077Y-140915824D01*
X139820126Y-141040000D01*
X129569931Y-141040000D01*
X128789776Y-140884818D01*
X129818894Y-140885716D01*
X131339229Y-140257526D01*
X132503438Y-139095347D01*
X133134280Y-137576111D01*
X133135716Y-135931106D01*
X132507526Y-134410771D01*
X131345347Y-133246562D01*
X129826111Y-132615720D01*
X128683421Y-132614722D01*
X129041657Y-132466702D01*
X129734270Y-131775297D01*
X130109572Y-130871471D01*
X130110090Y-130277221D01*
X135680280Y-130277221D01*
X135738449Y-130627827D01*
X136464501Y-130802284D01*
X137202047Y-130685613D01*
X137341551Y-130627827D01*
X137399720Y-130277221D01*
X136540000Y-129417502D01*
X135680280Y-130277221D01*
X130110090Y-130277221D01*
X130110426Y-129892823D01*
X129736702Y-128988343D01*
X129045297Y-128295730D01*
X128141471Y-127920428D01*
X127162823Y-127919574D01*
X126258343Y-128293298D01*
X125565730Y-128984703D01*
X125190428Y-129888529D01*
X125189574Y-130867177D01*
X125563298Y-131771657D01*
X126254703Y-132464270D01*
X127158529Y-132839572D01*
X127634862Y-132839988D01*
X126660771Y-133242474D01*
X125496562Y-134404653D01*
X124960000Y-135696838D01*
X124960000Y-127544501D01*
X132087716Y-127544501D01*
X132204387Y-128282047D01*
X132262173Y-128421551D01*
X132612779Y-128479720D01*
X133472498Y-127620000D01*
X132612779Y-126760280D01*
X132262173Y-126818449D01*
X132087716Y-127544501D01*
X124960000Y-127544501D01*
X124960000Y-118997177D01*
X125189574Y-118997177D01*
X125563298Y-119901657D01*
X126254703Y-120594270D01*
X127158529Y-120969572D01*
X128137177Y-120970426D01*
X129041657Y-120596702D01*
X129734270Y-119905297D01*
X130006373Y-119250000D01*
X132602560Y-119250000D01*
X132602560Y-120750000D01*
X132646838Y-120985317D01*
X132785910Y-121201441D01*
X132998110Y-121346431D01*
X133195262Y-121386355D01*
X132826539Y-121754436D01*
X132615241Y-122263298D01*
X132614760Y-122814285D01*
X132825169Y-123323515D01*
X133214436Y-123713461D01*
X133446870Y-123809976D01*
X133216485Y-123905169D01*
X132826539Y-124294436D01*
X132615241Y-124803298D01*
X132614760Y-125354285D01*
X132825169Y-125863515D01*
X133147906Y-126186815D01*
X133140280Y-126232779D01*
X134000000Y-127092498D01*
X134014142Y-127078356D01*
X134541644Y-127605858D01*
X134527502Y-127620000D01*
X134541644Y-127634142D01*
X134014142Y-128161644D01*
X134000000Y-128147502D01*
X133140280Y-129007221D01*
X133198449Y-129357827D01*
X133924501Y-129532284D01*
X134662047Y-129415613D01*
X134719068Y-129391993D01*
X134744387Y-129552047D01*
X134802173Y-129691551D01*
X135152779Y-129749720D01*
X136012498Y-128890000D01*
X137067502Y-128890000D01*
X137927221Y-129749720D01*
X138277827Y-129691551D01*
X138452284Y-128965499D01*
X138335613Y-128227953D01*
X138277827Y-128088449D01*
X137927221Y-128030280D01*
X137067502Y-128890000D01*
X136012498Y-128890000D01*
X135998356Y-128875858D01*
X136525858Y-128348356D01*
X136540000Y-128362498D01*
X137399720Y-127502779D01*
X137392031Y-127456434D01*
X137713461Y-127135564D01*
X137924759Y-126626702D01*
X137925240Y-126075715D01*
X137714831Y-125566485D01*
X137325564Y-125176539D01*
X137093130Y-125080024D01*
X137323515Y-124984831D01*
X137713461Y-124595564D01*
X137924759Y-124086702D01*
X137925240Y-123535715D01*
X137714831Y-123026485D01*
X137325564Y-122636539D01*
X137093130Y-122540024D01*
X137323515Y-122444831D01*
X137713461Y-122055564D01*
X137924759Y-121546702D01*
X137925240Y-120995715D01*
X137714831Y-120486485D01*
X137325564Y-120096539D01*
X136816702Y-119885241D01*
X136265715Y-119884760D01*
X135756485Y-120095169D01*
X135397440Y-120453589D01*
X135397440Y-119250000D01*
X135353162Y-119014683D01*
X135214090Y-118798559D01*
X135001890Y-118653569D01*
X134750000Y-118602560D01*
X133250000Y-118602560D01*
X133014683Y-118646838D01*
X132798559Y-118785910D01*
X132653569Y-118998110D01*
X132602560Y-119250000D01*
X130006373Y-119250000D01*
X130109572Y-119001471D01*
X130110426Y-118022823D01*
X129736702Y-117118343D01*
X129045297Y-116425730D01*
X128141471Y-116050428D01*
X127162823Y-116049574D01*
X126258343Y-116423298D01*
X125565730Y-117114703D01*
X125190428Y-118018529D01*
X125189574Y-118997177D01*
X124960000Y-118997177D01*
X124960000Y-113737177D01*
X125174574Y-113737177D01*
X125548298Y-114641657D01*
X126239703Y-115334270D01*
X127143529Y-115709572D01*
X128122177Y-115710426D01*
X129026657Y-115336702D01*
X129719270Y-114645297D01*
X130094572Y-113741471D01*
X130095090Y-113147221D01*
X135665280Y-113147221D01*
X135723449Y-113497827D01*
X136449501Y-113672284D01*
X137187047Y-113555613D01*
X137326551Y-113497827D01*
X137384720Y-113147221D01*
X136525000Y-112287502D01*
X135665280Y-113147221D01*
X130095090Y-113147221D01*
X130095426Y-112762823D01*
X129721702Y-111858343D01*
X129030297Y-111165730D01*
X128126471Y-110790428D01*
X127147823Y-110789574D01*
X126243343Y-111163298D01*
X125550730Y-111854703D01*
X125175428Y-112758529D01*
X125174574Y-113737177D01*
X124960000Y-113737177D01*
X124960000Y-110414501D01*
X132072716Y-110414501D01*
X132189387Y-111152047D01*
X132247173Y-111291551D01*
X132597779Y-111349720D01*
X133457498Y-110490000D01*
X132597779Y-109630280D01*
X132247173Y-109688449D01*
X132072716Y-110414501D01*
X124960000Y-110414501D01*
X124960000Y-101867177D01*
X125174574Y-101867177D01*
X125548298Y-102771657D01*
X126239703Y-103464270D01*
X127143529Y-103839572D01*
X128122177Y-103840426D01*
X129026657Y-103466702D01*
X129719270Y-102775297D01*
X129991373Y-102120000D01*
X132587560Y-102120000D01*
X132587560Y-103620000D01*
X132631838Y-103855317D01*
X132770910Y-104071441D01*
X132983110Y-104216431D01*
X133180262Y-104256355D01*
X132811539Y-104624436D01*
X132600241Y-105133298D01*
X132599760Y-105684285D01*
X132810169Y-106193515D01*
X133199436Y-106583461D01*
X133431870Y-106679976D01*
X133201485Y-106775169D01*
X132811539Y-107164436D01*
X132600241Y-107673298D01*
X132599760Y-108224285D01*
X132810169Y-108733515D01*
X133132906Y-109056815D01*
X133125280Y-109102779D01*
X133985000Y-109962498D01*
X133999142Y-109948356D01*
X134526644Y-110475858D01*
X134512502Y-110490000D01*
X134526644Y-110504142D01*
X133999142Y-111031644D01*
X133985000Y-111017502D01*
X133125280Y-111877221D01*
X133183449Y-112227827D01*
X133909501Y-112402284D01*
X134647047Y-112285613D01*
X134704068Y-112261993D01*
X134729387Y-112422047D01*
X134787173Y-112561551D01*
X135137779Y-112619720D01*
X135997498Y-111760000D01*
X137052502Y-111760000D01*
X137912221Y-112619720D01*
X138262827Y-112561551D01*
X138437284Y-111835499D01*
X138320613Y-111097953D01*
X138262827Y-110958449D01*
X137912221Y-110900280D01*
X137052502Y-111760000D01*
X135997498Y-111760000D01*
X135983356Y-111745858D01*
X136510858Y-111218356D01*
X136525000Y-111232498D01*
X137384720Y-110372779D01*
X137377031Y-110326434D01*
X137698461Y-110005564D01*
X137909759Y-109496702D01*
X137910240Y-108945715D01*
X137699831Y-108436485D01*
X137310564Y-108046539D01*
X137078130Y-107950024D01*
X137308515Y-107854831D01*
X137698461Y-107465564D01*
X137909759Y-106956702D01*
X137910240Y-106405715D01*
X137699831Y-105896485D01*
X137310564Y-105506539D01*
X137078130Y-105410024D01*
X137308515Y-105314831D01*
X137698461Y-104925564D01*
X137909759Y-104416702D01*
X137910240Y-103865715D01*
X137699831Y-103356485D01*
X137310564Y-102966539D01*
X136801702Y-102755241D01*
X136250715Y-102754760D01*
X135741485Y-102965169D01*
X135382440Y-103323589D01*
X135382440Y-102120000D01*
X135338162Y-101884683D01*
X135199090Y-101668559D01*
X134986890Y-101523569D01*
X134735000Y-101472560D01*
X133235000Y-101472560D01*
X132999683Y-101516838D01*
X132783559Y-101655910D01*
X132638569Y-101868110D01*
X132587560Y-102120000D01*
X129991373Y-102120000D01*
X130094572Y-101871471D01*
X130095426Y-100892823D01*
X129721702Y-99988343D01*
X129030297Y-99295730D01*
X128126471Y-98920428D01*
X127147823Y-98919574D01*
X126243343Y-99293298D01*
X125550730Y-99984703D01*
X125175428Y-100888529D01*
X125174574Y-101867177D01*
X124960000Y-101867177D01*
X124960000Y-96592177D01*
X125174574Y-96592177D01*
X125548298Y-97496657D01*
X126239703Y-98189270D01*
X127143529Y-98564572D01*
X128122177Y-98565426D01*
X129026657Y-98191702D01*
X129719270Y-97500297D01*
X130094572Y-96596471D01*
X130095090Y-96002221D01*
X135665280Y-96002221D01*
X135723449Y-96352827D01*
X136449501Y-96527284D01*
X137187047Y-96410613D01*
X137326551Y-96352827D01*
X137384720Y-96002221D01*
X136525000Y-95142502D01*
X135665280Y-96002221D01*
X130095090Y-96002221D01*
X130095426Y-95617823D01*
X129721702Y-94713343D01*
X129030297Y-94020730D01*
X128126471Y-93645428D01*
X127147823Y-93644574D01*
X126243343Y-94018298D01*
X125550730Y-94709703D01*
X125175428Y-95613529D01*
X125174574Y-96592177D01*
X124960000Y-96592177D01*
X124960000Y-93269501D01*
X132072716Y-93269501D01*
X132189387Y-94007047D01*
X132247173Y-94146551D01*
X132597779Y-94204720D01*
X133457498Y-93345000D01*
X132597779Y-92485280D01*
X132247173Y-92543449D01*
X132072716Y-93269501D01*
X124960000Y-93269501D01*
X124960000Y-84722177D01*
X125174574Y-84722177D01*
X125548298Y-85626657D01*
X126239703Y-86319270D01*
X127143529Y-86694572D01*
X128122177Y-86695426D01*
X129026657Y-86321702D01*
X129719270Y-85630297D01*
X129991373Y-84975000D01*
X132587560Y-84975000D01*
X132587560Y-86475000D01*
X132631838Y-86710317D01*
X132770910Y-86926441D01*
X132983110Y-87071431D01*
X133180262Y-87111355D01*
X132811539Y-87479436D01*
X132600241Y-87988298D01*
X132599760Y-88539285D01*
X132810169Y-89048515D01*
X133199436Y-89438461D01*
X133431870Y-89534976D01*
X133201485Y-89630169D01*
X132811539Y-90019436D01*
X132600241Y-90528298D01*
X132599760Y-91079285D01*
X132810169Y-91588515D01*
X133132906Y-91911815D01*
X133125280Y-91957779D01*
X133985000Y-92817498D01*
X133999142Y-92803356D01*
X134526644Y-93330858D01*
X134512502Y-93345000D01*
X134526644Y-93359142D01*
X133999142Y-93886644D01*
X133985000Y-93872502D01*
X133125280Y-94732221D01*
X133183449Y-95082827D01*
X133909501Y-95257284D01*
X134647047Y-95140613D01*
X134704068Y-95116993D01*
X134729387Y-95277047D01*
X134787173Y-95416551D01*
X135137779Y-95474720D01*
X135997498Y-94615000D01*
X137052502Y-94615000D01*
X137912221Y-95474720D01*
X138262827Y-95416551D01*
X138437284Y-94690499D01*
X138320613Y-93952953D01*
X138262827Y-93813449D01*
X137912221Y-93755280D01*
X137052502Y-94615000D01*
X135997498Y-94615000D01*
X135983356Y-94600858D01*
X136510858Y-94073356D01*
X136525000Y-94087498D01*
X137384720Y-93227779D01*
X137377031Y-93181434D01*
X137698461Y-92860564D01*
X137909759Y-92351702D01*
X137910240Y-91800715D01*
X137699831Y-91291485D01*
X137310564Y-90901539D01*
X137078130Y-90805024D01*
X137308515Y-90709831D01*
X137698461Y-90320564D01*
X137909759Y-89811702D01*
X137910240Y-89260715D01*
X137699831Y-88751485D01*
X137310564Y-88361539D01*
X137078130Y-88265024D01*
X137308515Y-88169831D01*
X137698461Y-87780564D01*
X137909759Y-87271702D01*
X137910240Y-86720715D01*
X137699831Y-86211485D01*
X137310564Y-85821539D01*
X136801702Y-85610241D01*
X136250715Y-85609760D01*
X135741485Y-85820169D01*
X135382440Y-86178589D01*
X135382440Y-84975000D01*
X135338162Y-84739683D01*
X135199090Y-84523559D01*
X134986890Y-84378569D01*
X134735000Y-84327560D01*
X133235000Y-84327560D01*
X132999683Y-84371838D01*
X132783559Y-84510910D01*
X132638569Y-84723110D01*
X132587560Y-84975000D01*
X129991373Y-84975000D01*
X130094572Y-84726471D01*
X130095426Y-83747823D01*
X129721702Y-82843343D01*
X129030297Y-82150730D01*
X128126471Y-81775428D01*
X127147823Y-81774574D01*
X126243343Y-82148298D01*
X125550730Y-82839703D01*
X125175428Y-83743529D01*
X125174574Y-84722177D01*
X124960000Y-84722177D01*
X124960000Y-79447177D01*
X125174574Y-79447177D01*
X125548298Y-80351657D01*
X126239703Y-81044270D01*
X127143529Y-81419572D01*
X128122177Y-81420426D01*
X129026657Y-81046702D01*
X129719270Y-80355297D01*
X130094572Y-79451471D01*
X130094575Y-79447177D01*
X179149574Y-79447177D01*
X179523298Y-80351657D01*
X180214703Y-81044270D01*
X181118529Y-81419572D01*
X182097177Y-81420426D01*
X183001657Y-81046702D01*
X183694270Y-80355297D01*
X184069572Y-79451471D01*
X184070426Y-78472823D01*
X183696702Y-77568343D01*
X183005297Y-76875730D01*
X182101471Y-76500428D01*
X181122823Y-76499574D01*
X180218343Y-76873298D01*
X179525730Y-77564703D01*
X179150428Y-78468529D01*
X179149574Y-79447177D01*
X130094575Y-79447177D01*
X130095090Y-78857221D01*
X135665280Y-78857221D01*
X135723449Y-79207827D01*
X136449501Y-79382284D01*
X137187047Y-79265613D01*
X137326551Y-79207827D01*
X137384720Y-78857221D01*
X136525000Y-77997502D01*
X135665280Y-78857221D01*
X130095090Y-78857221D01*
X130095426Y-78472823D01*
X129721702Y-77568343D01*
X129030297Y-76875730D01*
X128126471Y-76500428D01*
X127147823Y-76499574D01*
X126243343Y-76873298D01*
X125550730Y-77564703D01*
X125175428Y-78468529D01*
X125174574Y-79447177D01*
X124960000Y-79447177D01*
X124960000Y-76124501D01*
X132072716Y-76124501D01*
X132189387Y-76862047D01*
X132247173Y-77001551D01*
X132597779Y-77059720D01*
X133457498Y-76200000D01*
X132597779Y-75340280D01*
X132247173Y-75398449D01*
X132072716Y-76124501D01*
X124960000Y-76124501D01*
X124960000Y-67577177D01*
X125174574Y-67577177D01*
X125548298Y-68481657D01*
X126239703Y-69174270D01*
X127143529Y-69549572D01*
X128122177Y-69550426D01*
X129026657Y-69176702D01*
X129719270Y-68485297D01*
X129991373Y-67830000D01*
X132587560Y-67830000D01*
X132587560Y-69330000D01*
X132631838Y-69565317D01*
X132770910Y-69781441D01*
X132983110Y-69926431D01*
X133180262Y-69966355D01*
X132811539Y-70334436D01*
X132600241Y-70843298D01*
X132599760Y-71394285D01*
X132810169Y-71903515D01*
X133199436Y-72293461D01*
X133431870Y-72389976D01*
X133201485Y-72485169D01*
X132811539Y-72874436D01*
X132600241Y-73383298D01*
X132599760Y-73934285D01*
X132810169Y-74443515D01*
X133132906Y-74766815D01*
X133125280Y-74812779D01*
X133985000Y-75672498D01*
X133999142Y-75658356D01*
X134526644Y-76185858D01*
X134512502Y-76200000D01*
X134526644Y-76214142D01*
X133999142Y-76741644D01*
X133985000Y-76727502D01*
X133125280Y-77587221D01*
X133183449Y-77937827D01*
X133909501Y-78112284D01*
X134647047Y-77995613D01*
X134704068Y-77971993D01*
X134729387Y-78132047D01*
X134787173Y-78271551D01*
X135137779Y-78329720D01*
X135997498Y-77470000D01*
X137052502Y-77470000D01*
X137912221Y-78329720D01*
X138262827Y-78271551D01*
X138437284Y-77545499D01*
X138320613Y-76807953D01*
X138262827Y-76668449D01*
X137912221Y-76610280D01*
X137052502Y-77470000D01*
X135997498Y-77470000D01*
X135983356Y-77455858D01*
X136510858Y-76928356D01*
X136525000Y-76942498D01*
X137384720Y-76082779D01*
X137377031Y-76036434D01*
X137698461Y-75715564D01*
X137909759Y-75206702D01*
X137910240Y-74655715D01*
X137699831Y-74146485D01*
X137310564Y-73756539D01*
X137078130Y-73660024D01*
X137308515Y-73564831D01*
X137698461Y-73175564D01*
X137909759Y-72666702D01*
X137910240Y-72115715D01*
X137699831Y-71606485D01*
X137310564Y-71216539D01*
X137078130Y-71120024D01*
X137308515Y-71024831D01*
X137698461Y-70635564D01*
X137909759Y-70126702D01*
X137910240Y-69575715D01*
X137875510Y-69491661D01*
X141477758Y-69491661D01*
X141689990Y-70005303D01*
X142082630Y-70398629D01*
X142290512Y-70484949D01*
X142084697Y-70569990D01*
X141691371Y-70962630D01*
X141478243Y-71475900D01*
X141477758Y-72031661D01*
X141689990Y-72545303D01*
X142082630Y-72938629D01*
X142290512Y-73024949D01*
X142084697Y-73109990D01*
X141691371Y-73502630D01*
X141478243Y-74015900D01*
X141477758Y-74571661D01*
X141689990Y-75085303D01*
X142082630Y-75478629D01*
X142595900Y-75691757D01*
X143151661Y-75692242D01*
X143665303Y-75480010D01*
X144058629Y-75087370D01*
X144271757Y-74574100D01*
X144272242Y-74018339D01*
X144060010Y-73504697D01*
X143667370Y-73111371D01*
X143459488Y-73025051D01*
X143665303Y-72940010D01*
X144058629Y-72547370D01*
X144271757Y-72034100D01*
X144272242Y-71478339D01*
X144060010Y-70964697D01*
X143667370Y-70571371D01*
X143459488Y-70485051D01*
X143665303Y-70400010D01*
X144058629Y-70007370D01*
X144271757Y-69494100D01*
X144272242Y-68938339D01*
X144060010Y-68424697D01*
X143738289Y-68102414D01*
X143743604Y-68071106D01*
X142875000Y-67202502D01*
X142006396Y-68071106D01*
X142011774Y-68102786D01*
X141691371Y-68422630D01*
X141478243Y-68935900D01*
X141477758Y-69491661D01*
X137875510Y-69491661D01*
X137699831Y-69066485D01*
X137310564Y-68676539D01*
X136801702Y-68465241D01*
X136250715Y-68464760D01*
X135741485Y-68675169D01*
X135382440Y-69033589D01*
X135382440Y-67830000D01*
X135338162Y-67594683D01*
X135199090Y-67378559D01*
X134986890Y-67233569D01*
X134735000Y-67182560D01*
X133235000Y-67182560D01*
X132999683Y-67226838D01*
X132783559Y-67365910D01*
X132638569Y-67578110D01*
X132587560Y-67830000D01*
X129991373Y-67830000D01*
X130094572Y-67581471D01*
X130095426Y-66602823D01*
X130092851Y-66596589D01*
X140950589Y-66596589D01*
X141067069Y-67338997D01*
X141127082Y-67483883D01*
X141478894Y-67543604D01*
X142347498Y-66675000D01*
X143402502Y-66675000D01*
X144271106Y-67543604D01*
X144622918Y-67483883D01*
X144799411Y-66753411D01*
X144682931Y-66011003D01*
X144622918Y-65866117D01*
X144271106Y-65806396D01*
X143402502Y-66675000D01*
X142347498Y-66675000D01*
X141478894Y-65806396D01*
X141127082Y-65866117D01*
X140950589Y-66596589D01*
X130092851Y-66596589D01*
X129721702Y-65698343D01*
X129030297Y-65005730D01*
X128126471Y-64630428D01*
X127147823Y-64629574D01*
X126243343Y-65003298D01*
X125550730Y-65694703D01*
X125175428Y-66598529D01*
X125174574Y-67577177D01*
X124960000Y-67577177D01*
X124960000Y-64411661D01*
X141477758Y-64411661D01*
X141689990Y-64925303D01*
X142011711Y-65247586D01*
X142006396Y-65278894D01*
X142875000Y-66147498D01*
X143743604Y-65278894D01*
X143738226Y-65247214D01*
X144058629Y-64927370D01*
X144271757Y-64414100D01*
X144271759Y-64411661D01*
X164337758Y-64411661D01*
X164549990Y-64925303D01*
X164942630Y-65318629D01*
X165150512Y-65404949D01*
X164944697Y-65489990D01*
X164551371Y-65882630D01*
X164338243Y-66395900D01*
X164337758Y-66951661D01*
X164549990Y-67465303D01*
X164942630Y-67858629D01*
X165150512Y-67944949D01*
X164944697Y-68029990D01*
X164551371Y-68422630D01*
X164338243Y-68935900D01*
X164337758Y-69491661D01*
X164549990Y-70005303D01*
X164942630Y-70398629D01*
X165150512Y-70484949D01*
X164944697Y-70569990D01*
X164551371Y-70962630D01*
X164338243Y-71475900D01*
X164337758Y-72031661D01*
X164549990Y-72545303D01*
X164942630Y-72938629D01*
X165150512Y-73024949D01*
X164944697Y-73109990D01*
X164551371Y-73502630D01*
X164338243Y-74015900D01*
X164337758Y-74571661D01*
X164549990Y-75085303D01*
X164942630Y-75478629D01*
X165455900Y-75691757D01*
X166011661Y-75692242D01*
X166525303Y-75480010D01*
X166918629Y-75087370D01*
X167131757Y-74574100D01*
X167132242Y-74018339D01*
X166920010Y-73504697D01*
X166527370Y-73111371D01*
X166319488Y-73025051D01*
X166525303Y-72940010D01*
X166918629Y-72547370D01*
X167131757Y-72034100D01*
X167132242Y-71478339D01*
X167097512Y-71394285D01*
X171334760Y-71394285D01*
X171545169Y-71903515D01*
X171934436Y-72293461D01*
X172166870Y-72389976D01*
X171936485Y-72485169D01*
X171546539Y-72874436D01*
X171335241Y-73383298D01*
X171334760Y-73934285D01*
X171545169Y-74443515D01*
X171934436Y-74833461D01*
X172166870Y-74929976D01*
X171936485Y-75025169D01*
X171546539Y-75414436D01*
X171335241Y-75923298D01*
X171334760Y-76474285D01*
X171545169Y-76983515D01*
X171934436Y-77373461D01*
X172443298Y-77584759D01*
X172994285Y-77585240D01*
X173503515Y-77374831D01*
X173862560Y-77016411D01*
X173862560Y-78220000D01*
X173906838Y-78455317D01*
X174045910Y-78671441D01*
X174258110Y-78816431D01*
X174510000Y-78867440D01*
X176010000Y-78867440D01*
X176245317Y-78823162D01*
X176461441Y-78684090D01*
X176606431Y-78471890D01*
X176657440Y-78220000D01*
X176657440Y-76720000D01*
X176613162Y-76484683D01*
X176474090Y-76268559D01*
X176261890Y-76123569D01*
X176064738Y-76083645D01*
X176433461Y-75715564D01*
X176644759Y-75206702D01*
X176645240Y-74655715D01*
X176434831Y-74146485D01*
X176045564Y-73756539D01*
X175813130Y-73660024D01*
X176043515Y-73564831D01*
X176433461Y-73175564D01*
X176644759Y-72666702D01*
X176645240Y-72115715D01*
X176434831Y-71606485D01*
X176112094Y-71283185D01*
X176119720Y-71237221D01*
X175260000Y-70377502D01*
X175245858Y-70391644D01*
X174718356Y-69864142D01*
X174732498Y-69850000D01*
X175787502Y-69850000D01*
X176647221Y-70709720D01*
X176997827Y-70651551D01*
X177172284Y-69925499D01*
X177055613Y-69187953D01*
X176997827Y-69048449D01*
X176647221Y-68990280D01*
X175787502Y-69850000D01*
X174732498Y-69850000D01*
X174718356Y-69835858D01*
X175245858Y-69308356D01*
X175260000Y-69322498D01*
X176119720Y-68462779D01*
X176061551Y-68112173D01*
X175335499Y-67937716D01*
X174597953Y-68054387D01*
X174540932Y-68078007D01*
X174515613Y-67917953D01*
X174457827Y-67778449D01*
X174107221Y-67720280D01*
X173247502Y-68580000D01*
X173261644Y-68594142D01*
X172734142Y-69121644D01*
X172720000Y-69107502D01*
X171860280Y-69967221D01*
X171867969Y-70013566D01*
X171546539Y-70334436D01*
X171335241Y-70843298D01*
X171334760Y-71394285D01*
X167097512Y-71394285D01*
X166920010Y-70964697D01*
X166527370Y-70571371D01*
X166319488Y-70485051D01*
X166525303Y-70400010D01*
X166918629Y-70007370D01*
X167131757Y-69494100D01*
X167132242Y-68938339D01*
X166952985Y-68504501D01*
X170807716Y-68504501D01*
X170924387Y-69242047D01*
X170982173Y-69381551D01*
X171332779Y-69439720D01*
X172192498Y-68580000D01*
X171332779Y-67720280D01*
X170982173Y-67778449D01*
X170807716Y-68504501D01*
X166952985Y-68504501D01*
X166920010Y-68424697D01*
X166527370Y-68031371D01*
X166319488Y-67945051D01*
X166525303Y-67860010D01*
X166918629Y-67467370D01*
X167032648Y-67192779D01*
X171860280Y-67192779D01*
X172720000Y-68052498D01*
X173195321Y-67577177D01*
X179149574Y-67577177D01*
X179523298Y-68481657D01*
X180214703Y-69174270D01*
X181118529Y-69549572D01*
X182097177Y-69550426D01*
X183001657Y-69176702D01*
X183694270Y-68485297D01*
X184069572Y-67581471D01*
X184070426Y-66602823D01*
X183696702Y-65698343D01*
X183005297Y-65005730D01*
X182101471Y-64630428D01*
X181122823Y-64629574D01*
X180218343Y-65003298D01*
X179525730Y-65694703D01*
X179150428Y-66598529D01*
X179149574Y-67577177D01*
X173195321Y-67577177D01*
X173579720Y-67192779D01*
X173521551Y-66842173D01*
X172795499Y-66667716D01*
X172057953Y-66784387D01*
X171918449Y-66842173D01*
X171860280Y-67192779D01*
X167032648Y-67192779D01*
X167131757Y-66954100D01*
X167132242Y-66398339D01*
X166920010Y-65884697D01*
X166527370Y-65491371D01*
X166319488Y-65405051D01*
X166525303Y-65320010D01*
X166918629Y-64927370D01*
X167131757Y-64414100D01*
X167132242Y-63858339D01*
X166920010Y-63344697D01*
X166527370Y-62951371D01*
X166014100Y-62738243D01*
X165458339Y-62737758D01*
X164944697Y-62949990D01*
X164551371Y-63342630D01*
X164338243Y-63855900D01*
X164337758Y-64411661D01*
X144271759Y-64411661D01*
X144272242Y-63858339D01*
X144060010Y-63344697D01*
X143667370Y-62951371D01*
X143154100Y-62738243D01*
X142598339Y-62737758D01*
X142084697Y-62949990D01*
X141691371Y-63342630D01*
X141478243Y-63855900D01*
X141477758Y-64411661D01*
X124960000Y-64411661D01*
X124960000Y-61300544D01*
X125492474Y-62589229D01*
X126654653Y-63753438D01*
X128173889Y-64384280D01*
X129818894Y-64385716D01*
X131339229Y-63757526D01*
X132503438Y-62595347D01*
X133134280Y-61076111D01*
X133135716Y-59431106D01*
X133094627Y-59331661D01*
X144017758Y-59331661D01*
X144229990Y-59845303D01*
X144622630Y-60238629D01*
X144830512Y-60324949D01*
X144624697Y-60409990D01*
X144231371Y-60802630D01*
X144018243Y-61315900D01*
X144017758Y-61871661D01*
X144229990Y-62385303D01*
X144622630Y-62778629D01*
X145135900Y-62991757D01*
X145691661Y-62992242D01*
X146205303Y-62780010D01*
X146598629Y-62387370D01*
X146684949Y-62179488D01*
X146769990Y-62385303D01*
X147162630Y-62778629D01*
X147675900Y-62991757D01*
X148231661Y-62992242D01*
X148745303Y-62780010D01*
X149138629Y-62387370D01*
X149224949Y-62179488D01*
X149309990Y-62385303D01*
X149702630Y-62778629D01*
X150215900Y-62991757D01*
X150771661Y-62992242D01*
X151285303Y-62780010D01*
X151678629Y-62387370D01*
X151764949Y-62179488D01*
X151849990Y-62385303D01*
X152242630Y-62778629D01*
X152755900Y-62991757D01*
X153311661Y-62992242D01*
X153825303Y-62780010D01*
X154218629Y-62387370D01*
X154304949Y-62179488D01*
X154389990Y-62385303D01*
X154782630Y-62778629D01*
X155295900Y-62991757D01*
X155851661Y-62992242D01*
X156365303Y-62780010D01*
X156758629Y-62387370D01*
X156844949Y-62179488D01*
X156929990Y-62385303D01*
X157322630Y-62778629D01*
X157835900Y-62991757D01*
X158391661Y-62992242D01*
X158905303Y-62780010D01*
X159298629Y-62387370D01*
X159384949Y-62179488D01*
X159469990Y-62385303D01*
X159862630Y-62778629D01*
X160375900Y-62991757D01*
X160931661Y-62992242D01*
X161445303Y-62780010D01*
X161838629Y-62387370D01*
X161924949Y-62179488D01*
X162009990Y-62385303D01*
X162402630Y-62778629D01*
X162915900Y-62991757D01*
X163471661Y-62992242D01*
X163985303Y-62780010D01*
X164378629Y-62387370D01*
X164591757Y-61874100D01*
X164592242Y-61318339D01*
X164380010Y-60804697D01*
X163987370Y-60411371D01*
X163779488Y-60325051D01*
X163985303Y-60240010D01*
X164378629Y-59847370D01*
X164591757Y-59334100D01*
X164592242Y-58778339D01*
X164380010Y-58264697D01*
X163987370Y-57871371D01*
X163474100Y-57658243D01*
X162918339Y-57657758D01*
X162404697Y-57869990D01*
X162011371Y-58262630D01*
X161925051Y-58470512D01*
X161840010Y-58264697D01*
X161447370Y-57871371D01*
X160934100Y-57658243D01*
X160378339Y-57657758D01*
X159864697Y-57869990D01*
X159471371Y-58262630D01*
X159385051Y-58470512D01*
X159300010Y-58264697D01*
X158907370Y-57871371D01*
X158394100Y-57658243D01*
X157838339Y-57657758D01*
X157324697Y-57869990D01*
X156931371Y-58262630D01*
X156845051Y-58470512D01*
X156760010Y-58264697D01*
X156367370Y-57871371D01*
X155854100Y-57658243D01*
X155298339Y-57657758D01*
X154784697Y-57869990D01*
X154391371Y-58262630D01*
X154305051Y-58470512D01*
X154220010Y-58264697D01*
X153827370Y-57871371D01*
X153314100Y-57658243D01*
X152758339Y-57657758D01*
X152244697Y-57869990D01*
X151851371Y-58262630D01*
X151765051Y-58470512D01*
X151680010Y-58264697D01*
X151287370Y-57871371D01*
X150774100Y-57658243D01*
X150218339Y-57657758D01*
X149704697Y-57869990D01*
X149311371Y-58262630D01*
X149225051Y-58470512D01*
X149140010Y-58264697D01*
X148747370Y-57871371D01*
X148234100Y-57658243D01*
X147678339Y-57657758D01*
X147164697Y-57869990D01*
X146771371Y-58262630D01*
X146685051Y-58470512D01*
X146600010Y-58264697D01*
X146207370Y-57871371D01*
X145694100Y-57658243D01*
X145138339Y-57657758D01*
X144624697Y-57869990D01*
X144231371Y-58262630D01*
X144018243Y-58775900D01*
X144017758Y-59331661D01*
X133094627Y-59331661D01*
X132507526Y-57910771D01*
X131345347Y-56746562D01*
X130053162Y-56210000D01*
X179199456Y-56210000D01*
X177910771Y-56742474D01*
M02*
