M48
INCH,TZ
T1C0.012
T2C0.030
T3C0.031
T4C0.035
T5C0.043
T6C0.138
%
G90
G05
T1
X5.3827Y-2.5983
X5.775Y-4.596
X5.8405Y-4.1743
X5.8684Y-3.1301
X6.0712Y-4.8136
X6.0752Y-4.6174
X6.2317Y-3.0094
X6.246Y-2.9781
X6.3164Y-4.0762
X6.3938Y-2.8329
X6.3938Y-3.0035
X6.4557Y-4.1686
X6.4623Y-4.5264
X6.5334Y-4.4489
X6.5737Y-4.0064
X6.6148Y-3.2717
X6.6265Y-2.8344
X6.6333Y-4.318
X6.7843Y-3.148
T2
X5.625Y-2.525
X5.625Y-2.625
X5.625Y-2.725
X5.625Y-2.825
X5.625Y-2.925
X5.725Y-2.325
X5.725Y-2.425
X5.825Y-2.325
X5.825Y-2.425
X5.925Y-2.325
X5.925Y-2.425
X6.025Y-2.325
X6.025Y-2.425
X6.125Y-2.325
X6.125Y-2.425
X6.225Y-2.325
X6.225Y-2.425
X6.3Y-4.8
X6.3Y-4.9
X6.325Y-2.325
X6.325Y-2.425
X6.4Y-4.8
X6.4Y-4.9
X6.425Y-2.325
X6.425Y-2.425
X6.5Y-4.8
X6.5Y-4.9
X6.525Y-2.525
X6.525Y-2.625
X6.525Y-2.725
X6.525Y-2.825
X6.525Y-2.925
X6.6Y-4.8
X6.6Y-4.9
T3
X6.35Y-4.7
X6.375Y-3.2
X6.375Y-3.35
X6.375Y-3.5
X6.375Y-3.65
X6.375Y-3.8
X6.375Y-3.95
X6.375Y-4.1
X6.375Y-4.25
X6.375Y-4.4
X6.375Y-4.55
X6.5469Y-4.7
X6.675Y-3.2
X6.675Y-3.35
X6.675Y-3.5
X6.675Y-3.65
X6.675Y-3.8
X6.675Y-3.95
X6.675Y-4.1
X6.675Y-4.25
X6.675Y-4.4
X6.675Y-4.55
T4
X5.275Y-2.7
X5.275Y-2.8
X5.275Y-2.9
X5.275Y-3.
X5.275Y-3.375
X5.275Y-3.475
X5.275Y-3.575
X5.275Y-3.675
X5.275Y-4.05
X5.275Y-4.15
X5.275Y-4.25
X5.275Y-4.35
X5.2756Y-4.7244
X5.2756Y-4.8244
X5.2756Y-4.9244
X5.2756Y-5.0244
X5.375Y-2.75
X5.375Y-2.85
X5.375Y-2.95
X5.375Y-3.05
X5.375Y-3.425
X5.375Y-3.525
X5.375Y-3.625
X5.375Y-3.725
X5.375Y-4.1
X5.375Y-4.2
X5.375Y-4.3
X5.375Y-4.4
X5.3756Y-4.7744
X5.3756Y-4.8744
X5.3756Y-4.9744
X5.3756Y-5.0744
X6.7996Y-4.7287
X6.7996Y-4.8287
X6.7996Y-4.9287
X6.7996Y-5.0287
X6.8Y-2.7
X6.8Y-2.8
X6.8Y-2.9
X6.8Y-3.
X6.8Y-3.375
X6.8Y-3.475
X6.8Y-3.575
X6.8Y-3.675
X6.8Y-4.05
X6.8Y-4.15
X6.8Y-4.25
X6.8Y-4.35
X6.8996Y-4.7787
X6.8996Y-4.8787
X6.8996Y-4.9787
X6.8996Y-5.0787
X6.9Y-2.75
X6.9Y-2.85
X6.9Y-2.95
X6.9Y-3.05
X6.9Y-3.425
X6.9Y-3.525
X6.9Y-3.625
X6.9Y-3.725
X6.9Y-4.1
X6.9Y-4.2
X6.9Y-4.3
X6.9Y-4.4
T5
X5.525Y-3.2
X5.525Y-3.3
X5.525Y-3.4
X5.525Y-3.5
X5.525Y-3.6
X5.525Y-3.7
X5.525Y-3.8
X5.525Y-3.9
X5.525Y-4.
X5.525Y-4.1
X5.525Y-4.2
X5.525Y-4.3
X5.525Y-4.4
X5.525Y-4.5
X5.525Y-4.6
X5.525Y-4.7
X5.525Y-4.8
X5.525Y-4.9
X5.525Y-5.
X5.525Y-5.1
X5.525Y-5.2
X5.525Y-5.3
X5.525Y-5.4
X5.525Y-5.5
X5.625Y-3.7
X5.625Y-5.
X5.625Y-5.1
X5.625Y-5.2
X5.625Y-5.4
X5.725Y-3.2
X5.725Y-3.3
X5.725Y-3.4
X5.725Y-3.5
X5.725Y-3.6
X5.725Y-3.7
X5.725Y-3.8
X5.725Y-3.9
X5.725Y-4.
X5.725Y-4.6
X5.725Y-4.7
X5.725Y-4.8
X5.725Y-4.9
X5.825Y-3.2
X5.825Y-3.3
X5.825Y-3.4
X5.825Y-3.5
X5.825Y-3.6
X5.825Y-3.7
X5.825Y-3.8
X5.825Y-3.9
X5.825Y-4.
X5.825Y-4.6
X5.825Y-4.7
X5.825Y-4.8
X5.825Y-4.9
X5.925Y-3.7
X6.025Y-3.7
X6.125Y-3.2
X6.125Y-3.3
X6.125Y-3.4
X6.125Y-3.5
X6.125Y-3.6
X6.125Y-3.7
X6.125Y-3.8
X6.125Y-3.9
X6.125Y-4.
X6.125Y-4.1
X6.125Y-4.2
X6.125Y-4.3
X6.125Y-4.4
X6.125Y-4.5
X6.125Y-4.6
X6.125Y-4.7
X6.125Y-4.8
X6.125Y-4.9
X6.125Y-5.
X6.125Y-5.1
X6.125Y-5.2
X6.125Y-5.3
X6.125Y-5.4
X6.125Y-5.5
T6
X5.0787Y-2.372
X5.0787Y-5.3839
X7.0965Y-2.372
X7.0965Y-5.4035
T0
M30
