M48
INCH,TZ
T1C0.012
T2C0.030
T3C0.031
T4C0.035
T5C0.043
%
G90
G05
T1
X6.1451Y-4.5358
T2
X6.35Y-2.3
X6.35Y-2.4
X6.35Y-2.5
X6.35Y-2.6
X6.45Y-2.3
X6.45Y-2.4
X6.45Y-2.5
X6.45Y-2.6
T3
X5.15Y-2.6
X5.15Y-2.7
X5.15Y-2.8
X5.15Y-2.9
X5.15Y-3.3
X5.15Y-3.4
X5.15Y-3.5
X5.15Y-3.6
X5.15Y-3.95
X5.15Y-4.05
X5.15Y-4.15
X5.15Y-4.25
X5.15Y-4.65
X5.15Y-4.75
X5.15Y-4.85
X5.15Y-4.95
X5.2Y-3.05
X5.2Y-4.4
X5.2Y-5.1
X5.2031Y-3.75
X5.3969Y-3.05
X5.3969Y-4.4
X5.3969Y-5.1
X5.4Y-3.75
X5.45Y-2.6
X5.45Y-2.7
X5.45Y-2.8
X5.45Y-2.9
X5.45Y-3.3
X5.45Y-3.4
X5.45Y-3.5
X5.45Y-3.6
X5.45Y-3.95
X5.45Y-4.05
X5.45Y-4.15
X5.45Y-4.25
X5.45Y-4.65
X5.45Y-4.75
X5.45Y-4.85
X5.45Y-4.95
X5.6Y-2.6
X5.6Y-2.9
X5.6Y-3.3
X5.6Y-3.6
X5.6Y-3.95
X5.6Y-4.25
X5.6Y-4.65
X5.6Y-4.95
X5.9Y-2.8
X5.9Y-3.
X6.2Y-2.8
X6.2Y-3.
X6.55Y-2.8
X6.55Y-3.1
X6.55Y-3.45
X6.55Y-3.75
X6.55Y-4.15
X6.55Y-4.45
X6.55Y-4.8
X6.55Y-5.1
X6.6Y-2.35
X6.6Y-2.5469
X6.7Y-2.8
X6.7Y-2.9
X6.7Y-3.
X6.7Y-3.1
X6.7Y-3.45
X6.7Y-3.55
X6.7Y-3.65
X6.7Y-3.75
X6.7Y-4.15
X6.7Y-4.25
X6.7Y-4.35
X6.7Y-4.45
X6.7Y-4.8
X6.7Y-4.9
X6.7Y-5.
X6.7Y-5.1
X6.7531Y-2.65
X6.7531Y-3.3
X6.7531Y-4.
X6.7531Y-4.65
X6.95Y-2.65
X6.95Y-3.3
X6.95Y-4.
X6.95Y-4.65
X7.Y-2.8
X7.Y-2.9
X7.Y-3.
X7.Y-3.1
X7.Y-3.45
X7.Y-3.55
X7.Y-3.65
X7.Y-3.75
X7.Y-4.15
X7.Y-4.25
X7.Y-4.35
X7.Y-4.45
X7.Y-4.8
X7.Y-4.9
X7.Y-5.
X7.Y-5.1
T4
X4.9Y-2.675
X4.9Y-2.775
X4.9Y-2.875
X4.9Y-2.975
X4.9Y-3.35
X4.9Y-3.45
X4.9Y-3.55
X4.9Y-3.65
X4.9Y-4.025
X4.9Y-4.125
X4.9Y-4.225
X4.9Y-4.325
X4.9Y-4.7
X4.9Y-4.8
X4.9Y-4.9
X4.9Y-5.
X5.Y-2.725
X5.Y-2.825
X5.Y-2.925
X5.Y-3.025
X5.Y-3.4
X5.Y-3.5
X5.Y-3.6
X5.Y-3.7
X5.Y-4.075
X5.Y-4.175
X5.Y-4.275
X5.Y-4.375
X5.Y-4.75
X5.Y-4.85
X5.Y-4.95
X5.Y-5.05
X7.125Y-2.675
X7.125Y-2.775
X7.125Y-2.875
X7.125Y-2.975
X7.125Y-3.35
X7.125Y-3.45
X7.125Y-3.55
X7.125Y-3.65
X7.125Y-4.025
X7.125Y-4.125
X7.125Y-4.225
X7.125Y-4.325
X7.125Y-4.7
X7.125Y-4.8
X7.125Y-4.9
X7.125Y-5.
X7.225Y-2.725
X7.225Y-2.825
X7.225Y-2.925
X7.225Y-3.025
X7.225Y-3.4
X7.225Y-3.5
X7.225Y-3.6
X7.225Y-3.7
X7.225Y-4.075
X7.225Y-4.175
X7.225Y-4.275
X7.225Y-4.375
X7.225Y-4.75
X7.225Y-4.85
X7.225Y-4.95
X7.225Y-5.05
T5
X5.75Y-3.2
X5.75Y-3.3
X5.75Y-3.4
X5.75Y-3.5
X5.75Y-3.6
X5.75Y-3.7
X5.75Y-3.8
X5.75Y-3.9
X5.75Y-4.
X5.75Y-4.1
X5.75Y-4.2
X5.75Y-4.3
X5.75Y-4.4
X5.75Y-4.5
X5.75Y-4.6
X5.75Y-4.7
X5.75Y-4.8
X5.75Y-4.9
X5.75Y-5.
X5.75Y-5.1
X5.75Y-5.2
X5.75Y-5.3
X5.75Y-5.4
X5.75Y-5.5
X5.85Y-3.7
X5.85Y-5.
X5.85Y-5.1
X5.85Y-5.2
X5.85Y-5.4
X5.95Y-3.2
X5.95Y-3.3
X5.95Y-3.4
X5.95Y-3.5
X5.95Y-3.6
X5.95Y-3.7
X5.95Y-3.8
X5.95Y-3.9
X5.95Y-4.
X5.95Y-4.6
X5.95Y-4.7
X5.95Y-4.8
X5.95Y-4.9
X6.05Y-3.2
X6.05Y-3.3
X6.05Y-3.4
X6.05Y-3.5
X6.05Y-3.6
X6.05Y-3.7
X6.05Y-3.8
X6.05Y-3.9
X6.05Y-4.
X6.05Y-4.6
X6.05Y-4.7
X6.05Y-4.8
X6.05Y-4.9
X6.15Y-3.7
X6.25Y-3.7
X6.35Y-3.2
X6.35Y-3.3
X6.35Y-3.4
X6.35Y-3.5
X6.35Y-3.6
X6.35Y-3.7
X6.35Y-3.8
X6.35Y-3.9
X6.35Y-4.
X6.35Y-4.1
X6.35Y-4.2
X6.35Y-4.3
X6.35Y-4.4
X6.35Y-4.5
X6.35Y-4.6
X6.35Y-4.7
X6.35Y-4.8
X6.35Y-4.9
X6.35Y-5.
X6.35Y-5.1
X6.35Y-5.2
X6.35Y-5.3
X6.35Y-5.4
X6.35Y-5.5
T0
M30
