G04 #@! TF.FileFunction,Copper,L2,Bot,Signal*
%FSLAX46Y46*%
G04 Gerber Fmt 4.6, Leading zero omitted, Abs format (unit mm)*
G04 Created by KiCad (PCBNEW 4.0.6) date Mon May 22 21:52:31 2017*
%MOMM*%
%LPD*%
G01*
G04 APERTURE LIST*
%ADD10C,0.100000*%
%ADD11C,1.600000*%
%ADD12O,1.600000X1.600000*%
%ADD13R,1.600000X1.600000*%
%ADD14C,1.524000*%
%ADD15C,2.400000*%
%ADD16C,3.650000*%
%ADD17C,1.500000*%
%ADD18R,1.500000X1.500000*%
%ADD19C,0.400000*%
%ADD20C,0.400000*%
%ADD21C,0.254000*%
G04 APERTURE END LIST*
D10*
D11*
X67310000Y-106680000D03*
D12*
X74930000Y-106680000D03*
D11*
X53340000Y-106680000D03*
D12*
X60960000Y-106680000D03*
D11*
X39370000Y-106680000D03*
D12*
X46990000Y-106680000D03*
D11*
X81280000Y-127000000D03*
D12*
X88900000Y-127000000D03*
D11*
X67310000Y-127000000D03*
D12*
X74930000Y-127000000D03*
D11*
X53340000Y-127000000D03*
D12*
X60960000Y-127000000D03*
D11*
X39370000Y-127000000D03*
D12*
X46990000Y-127000000D03*
D11*
X81280000Y-106680000D03*
D12*
X88900000Y-106680000D03*
D11*
X22860000Y-107950000D03*
D12*
X30480000Y-107950000D03*
D11*
X22860000Y-102870000D03*
D12*
X30480000Y-102870000D03*
D13*
X81280000Y-102870000D03*
D12*
X88900000Y-95250000D03*
X83820000Y-102870000D03*
X86360000Y-95250000D03*
X86360000Y-102870000D03*
X83820000Y-95250000D03*
X88900000Y-102870000D03*
X81280000Y-95250000D03*
D13*
X67310000Y-102870000D03*
D12*
X74930000Y-95250000D03*
X69850000Y-102870000D03*
X72390000Y-95250000D03*
X72390000Y-102870000D03*
X69850000Y-95250000D03*
X74930000Y-102870000D03*
X67310000Y-95250000D03*
D13*
X53340000Y-102870000D03*
D12*
X60960000Y-95250000D03*
X55880000Y-102870000D03*
X58420000Y-95250000D03*
X58420000Y-102870000D03*
X55880000Y-95250000D03*
X60960000Y-102870000D03*
X53340000Y-95250000D03*
D13*
X39370000Y-102870000D03*
D12*
X46990000Y-95250000D03*
X41910000Y-102870000D03*
X44450000Y-95250000D03*
X44450000Y-102870000D03*
X41910000Y-95250000D03*
X46990000Y-102870000D03*
X39370000Y-95250000D03*
D13*
X81280000Y-123190000D03*
D12*
X88900000Y-115570000D03*
X83820000Y-123190000D03*
X86360000Y-115570000D03*
X86360000Y-123190000D03*
X83820000Y-115570000D03*
X88900000Y-123190000D03*
X81280000Y-115570000D03*
D13*
X67310000Y-123190000D03*
D12*
X74930000Y-115570000D03*
X69850000Y-123190000D03*
X72390000Y-115570000D03*
X72390000Y-123190000D03*
X69850000Y-115570000D03*
X74930000Y-123190000D03*
X67310000Y-115570000D03*
D13*
X53340000Y-123190000D03*
D12*
X60960000Y-115570000D03*
X55880000Y-123190000D03*
X58420000Y-115570000D03*
X58420000Y-123190000D03*
X55880000Y-115570000D03*
X60960000Y-123190000D03*
X53340000Y-115570000D03*
D13*
X39370000Y-123190000D03*
D12*
X46990000Y-115570000D03*
X41910000Y-123190000D03*
X44450000Y-115570000D03*
X44450000Y-123190000D03*
X41910000Y-115570000D03*
X46990000Y-123190000D03*
X39370000Y-115570000D03*
D11*
X74930000Y-86360000D03*
X77470000Y-86360000D03*
X80010000Y-86360000D03*
X82550000Y-86360000D03*
X72390000Y-86360000D03*
X69850000Y-86360000D03*
X67310000Y-86360000D03*
X85090000Y-86360000D03*
X87630000Y-86360000D03*
X90170000Y-86360000D03*
X92710000Y-86360000D03*
X80010000Y-83820000D03*
X80010000Y-81280000D03*
X80010000Y-78740000D03*
X80010000Y-76200000D03*
X80010000Y-73660000D03*
X92710000Y-71120000D03*
X90170000Y-71120000D03*
X87630000Y-71120000D03*
X85090000Y-71120000D03*
X82550000Y-71120000D03*
X80010000Y-71120000D03*
X77470000Y-71120000D03*
X74930000Y-71120000D03*
X64770000Y-86360000D03*
X62230000Y-86360000D03*
X59690000Y-86360000D03*
X57150000Y-86360000D03*
X54610000Y-86360000D03*
X52070000Y-86360000D03*
X49530000Y-86360000D03*
X46990000Y-86360000D03*
X44450000Y-86360000D03*
X41910000Y-86360000D03*
X39370000Y-86360000D03*
X36830000Y-86360000D03*
D13*
X34290000Y-86360000D03*
D11*
X72390000Y-71120000D03*
X69850000Y-71120000D03*
X67310000Y-71120000D03*
X64770000Y-71120000D03*
X62230000Y-71120000D03*
X59690000Y-71120000D03*
X57150000Y-71120000D03*
X54610000Y-71120000D03*
X52070000Y-71120000D03*
X49530000Y-71120000D03*
X46990000Y-71120000D03*
X44450000Y-71120000D03*
X41910000Y-71120000D03*
X39370000Y-71120000D03*
X36830000Y-71120000D03*
X34290000Y-71120000D03*
X36830000Y-73660000D03*
X41910000Y-73660000D03*
X44450000Y-73660000D03*
X46990000Y-73660000D03*
X49530000Y-78740000D03*
X52070000Y-78740000D03*
X54610000Y-78740000D03*
X57150000Y-78740000D03*
X72390000Y-78740000D03*
X74930000Y-78740000D03*
X77470000Y-78740000D03*
X82550000Y-78740000D03*
X85090000Y-78740000D03*
X87630000Y-78740000D03*
X90170000Y-78740000D03*
X92710000Y-78740000D03*
X92710000Y-76200000D03*
X90170000Y-76200000D03*
X87630000Y-76200000D03*
X85090000Y-76200000D03*
X82550000Y-76200000D03*
X77470000Y-76200000D03*
X74930000Y-76200000D03*
X72390000Y-76200000D03*
X57150000Y-76200000D03*
X54610000Y-76200000D03*
X52070000Y-76200000D03*
X49530000Y-76200000D03*
D14*
X30480000Y-93980000D03*
X30480000Y-91440000D03*
X27940000Y-93980000D03*
X27940000Y-91440000D03*
X25400000Y-93980000D03*
X25400000Y-91440000D03*
X22860000Y-93980000D03*
X22860000Y-91440000D03*
D11*
X81280000Y-91440000D03*
D12*
X88780000Y-91440000D03*
D11*
X67310000Y-91440000D03*
D12*
X74810000Y-91440000D03*
D11*
X53340000Y-91440000D03*
D12*
X60840000Y-91440000D03*
D11*
X39370000Y-91440000D03*
D12*
X46870000Y-91440000D03*
D11*
X81280000Y-111760000D03*
D12*
X88780000Y-111760000D03*
D11*
X67310000Y-111760000D03*
D12*
X74810000Y-111760000D03*
D11*
X53340000Y-111760000D03*
D12*
X60840000Y-111760000D03*
D11*
X39370000Y-111760000D03*
D12*
X46870000Y-111760000D03*
D11*
X22860000Y-97790000D03*
D12*
X30360000Y-97790000D03*
D15*
X92964000Y-137210800D03*
X92303600Y-142722600D03*
X92964000Y-153162000D03*
D16*
X90170000Y-148590000D03*
D15*
X34036000Y-133121400D03*
X34696400Y-139446000D03*
X34036000Y-153162000D03*
X78105000Y-131318000D03*
X64135000Y-131318000D03*
D17*
X80010000Y-135661400D03*
X81280000Y-133121400D03*
X82550000Y-135661400D03*
X83820000Y-133121400D03*
X85090000Y-135661400D03*
X86360000Y-133121400D03*
X87630000Y-135661400D03*
D18*
X88900000Y-133121400D03*
X74930000Y-133121400D03*
D17*
X73660000Y-135661400D03*
X72390000Y-133121400D03*
X71120000Y-135661400D03*
X69850000Y-133121400D03*
X68580000Y-135661400D03*
X67310000Y-133121400D03*
X66040000Y-135661400D03*
X38100000Y-135661400D03*
X39370000Y-133121400D03*
X40640000Y-135661400D03*
X41910000Y-133121400D03*
X43180000Y-135661400D03*
X44450000Y-133121400D03*
X45720000Y-135661400D03*
D18*
X46990000Y-133121400D03*
X60960000Y-133121400D03*
D17*
X59690000Y-135661400D03*
X58420000Y-133121400D03*
X57150000Y-135661400D03*
X55880000Y-133121400D03*
X54610000Y-135661400D03*
X53340000Y-133121400D03*
X52070000Y-135661400D03*
X74930000Y-139700000D03*
X73660000Y-142240000D03*
X72390000Y-139700000D03*
X71120000Y-142240000D03*
X69850000Y-139700000D03*
X68580000Y-142240000D03*
X67310000Y-139700000D03*
D18*
X66040000Y-142240000D03*
X80010000Y-142240000D03*
D17*
X81280000Y-139700000D03*
X82550000Y-142240000D03*
X83820000Y-139700000D03*
X85090000Y-142240000D03*
X86360000Y-139700000D03*
X87630000Y-142240000D03*
X88900000Y-139700000D03*
X60960000Y-139700000D03*
X59690000Y-142240000D03*
X58420000Y-139700000D03*
X57150000Y-142240000D03*
X55880000Y-139700000D03*
X54610000Y-142240000D03*
X53340000Y-139700000D03*
D18*
X52070000Y-142240000D03*
D16*
X36830000Y-148590000D03*
D18*
X38100000Y-142240000D03*
D17*
X39370000Y-139700000D03*
X40640000Y-142240000D03*
X41910000Y-139700000D03*
X43180000Y-142240000D03*
X44450000Y-139700000D03*
X45720000Y-142240000D03*
X46990000Y-139700000D03*
D15*
X50165000Y-131318000D03*
D19*
X50138100Y-87780400D03*
X58378500Y-101463300D03*
X48446500Y-93643700D03*
X74801000Y-120888700D03*
X30438700Y-90022000D03*
X32621500Y-88825900D03*
D20*
X50138100Y-98521600D02*
X46990000Y-101669700D01*
X50138100Y-87780400D02*
X50138100Y-98521600D01*
X46990000Y-102870000D02*
X46990000Y-101669700D01*
X59690000Y-100399700D02*
X60960000Y-101669700D01*
X59690000Y-94719800D02*
X59690000Y-100399700D01*
X54610000Y-89639800D02*
X59690000Y-94719800D01*
X54610000Y-86360000D02*
X54610000Y-89639800D01*
X60960000Y-102870000D02*
X60960000Y-101669700D01*
X57149900Y-100234700D02*
X58378500Y-101463300D01*
X57149900Y-93028800D02*
X57149900Y-100234700D01*
X52070000Y-87948900D02*
X57149900Y-93028800D01*
X52070000Y-86360000D02*
X52070000Y-87948900D01*
X46990000Y-117509700D02*
X46990000Y-123190000D01*
X45650400Y-116170100D02*
X46990000Y-117509700D01*
X45650400Y-100244800D02*
X45650400Y-116170100D01*
X49530000Y-96365200D02*
X45650400Y-100244800D01*
X49530000Y-86360000D02*
X49530000Y-96365200D01*
X47337400Y-93643700D02*
X48446500Y-93643700D01*
X41910000Y-88216300D02*
X47337400Y-93643700D01*
X41910000Y-86360000D02*
X41910000Y-88216300D01*
X71120000Y-97859700D02*
X74930000Y-101669700D01*
X71120000Y-77470000D02*
X71120000Y-97859700D01*
X64770000Y-71120000D02*
X71120000Y-77470000D01*
X74930000Y-102870000D02*
X74930000Y-101669700D01*
X71097600Y-118157300D02*
X74930000Y-121989700D01*
X71097600Y-112180600D02*
X71097600Y-118157300D01*
X65474700Y-106557700D02*
X71097600Y-112180600D01*
X65474700Y-97790100D02*
X65474700Y-106557700D01*
X58420000Y-90735400D02*
X65474700Y-97790100D01*
X58420000Y-84262000D02*
X58420000Y-90735400D01*
X53340000Y-79182000D02*
X58420000Y-84262000D01*
X53340000Y-74930000D02*
X53340000Y-79182000D01*
X49530000Y-71120000D02*
X53340000Y-74930000D01*
X74930000Y-123190000D02*
X74930000Y-121989700D01*
X57150000Y-118179700D02*
X60960000Y-121989700D01*
X57150000Y-113872300D02*
X57150000Y-118179700D01*
X50766300Y-107488600D02*
X57150000Y-113872300D01*
X50766300Y-74896300D02*
X50766300Y-107488600D01*
X46990000Y-71120000D02*
X50766300Y-74896300D01*
X60960000Y-123190000D02*
X60960000Y-121989700D01*
X87560300Y-104140000D02*
X88900000Y-105479700D01*
X87560300Y-97650600D02*
X87560300Y-104140000D01*
X86360000Y-96450300D02*
X87560300Y-97650600D01*
X86360000Y-95250000D02*
X86360000Y-96450300D01*
X88900000Y-106680000D02*
X88900000Y-105479700D01*
X90105000Y-109085300D02*
X88900000Y-107880300D01*
X90105000Y-130766100D02*
X90105000Y-109085300D01*
X88900000Y-131971100D02*
X90105000Y-130766100D01*
X88900000Y-133121400D02*
X88900000Y-131971100D01*
X88900000Y-106680000D02*
X88900000Y-107880300D01*
X82619700Y-105340300D02*
X81280000Y-106680000D01*
X82619700Y-97650600D02*
X82619700Y-105340300D01*
X83820000Y-96450300D02*
X82619700Y-97650600D01*
X83820000Y-95250000D02*
X83820000Y-96450300D01*
X76153200Y-104256500D02*
X74930000Y-105479700D01*
X76153200Y-100213500D02*
X76153200Y-104256500D01*
X72390000Y-96450300D02*
X76153200Y-100213500D01*
X72390000Y-95250000D02*
X72390000Y-96450300D01*
X74930000Y-106680000D02*
X74930000Y-105479700D01*
X76130400Y-109080700D02*
X74930000Y-107880300D01*
X76130400Y-130770700D02*
X76130400Y-109080700D01*
X74930000Y-131971100D02*
X76130400Y-130770700D01*
X74930000Y-133121400D02*
X74930000Y-131971100D01*
X74930000Y-106680000D02*
X74930000Y-107880300D01*
X68649700Y-105340300D02*
X67310000Y-106680000D01*
X68649700Y-97650600D02*
X68649700Y-105340300D01*
X69850000Y-96450300D02*
X68649700Y-97650600D01*
X69850000Y-95250000D02*
X69850000Y-96450300D01*
X59690000Y-104209700D02*
X60960000Y-105479700D01*
X59690000Y-101545200D02*
X59690000Y-104209700D01*
X58420000Y-100275200D02*
X59690000Y-101545200D01*
X58420000Y-95250000D02*
X58420000Y-100275200D01*
X60960000Y-106680000D02*
X60960000Y-105479700D01*
X55880000Y-95250000D02*
X55880000Y-96450300D01*
X54679700Y-105340300D02*
X53340000Y-106680000D01*
X54679700Y-97650600D02*
X54679700Y-105340300D01*
X55880000Y-96450300D02*
X54679700Y-97650600D01*
X40570400Y-97789900D02*
X41910000Y-96450300D01*
X40570400Y-105479600D02*
X40570400Y-97789900D01*
X39370000Y-106680000D02*
X40570400Y-105479600D01*
X41910000Y-95250000D02*
X41910000Y-96450300D01*
X86360000Y-115570000D02*
X86360000Y-116770300D01*
X87699700Y-118110000D02*
X86360000Y-116770300D01*
X87699700Y-124599400D02*
X87699700Y-118110000D01*
X88900000Y-125799700D02*
X87699700Y-124599400D01*
X88900000Y-127000000D02*
X88900000Y-125799700D01*
X85090000Y-132010300D02*
X88900000Y-128200300D01*
X85090000Y-134031400D02*
X85090000Y-132010300D01*
X83700400Y-135421000D02*
X85090000Y-134031400D01*
X83700400Y-137399200D02*
X83700400Y-135421000D01*
X82550000Y-138549600D02*
X83700400Y-137399200D01*
X82550000Y-140155000D02*
X82550000Y-138549600D01*
X81160300Y-141544700D02*
X82550000Y-140155000D01*
X81160300Y-142240000D02*
X81160300Y-141544700D01*
X80010000Y-142240000D02*
X81160300Y-142240000D01*
X88900000Y-127000000D02*
X88900000Y-128200300D01*
X82470600Y-128190600D02*
X81280000Y-127000000D01*
X82470600Y-134110800D02*
X82470600Y-128190600D01*
X81280000Y-135301400D02*
X82470600Y-134110800D01*
X81280000Y-139700000D02*
X81280000Y-135301400D01*
X82619700Y-125660300D02*
X81280000Y-127000000D01*
X82619700Y-117970600D02*
X82619700Y-125660300D01*
X83820000Y-116770300D02*
X82619700Y-117970600D01*
X83820000Y-115570000D02*
X83820000Y-116770300D01*
X74801000Y-119181300D02*
X72390000Y-116770300D01*
X74801000Y-120888700D02*
X74801000Y-119181300D01*
X72390000Y-115570000D02*
X72390000Y-116770300D01*
X71120000Y-132010300D02*
X74930000Y-128200300D01*
X71120000Y-134031400D02*
X71120000Y-132010300D01*
X69730400Y-135421000D02*
X71120000Y-134031400D01*
X69730400Y-137399200D02*
X69730400Y-135421000D01*
X68580000Y-138549600D02*
X69730400Y-137399200D01*
X68580000Y-140155000D02*
X68580000Y-138549600D01*
X67190300Y-141544700D02*
X68580000Y-140155000D01*
X67190300Y-142240000D02*
X67190300Y-141544700D01*
X66040000Y-142240000D02*
X67190300Y-142240000D01*
X74930000Y-127000000D02*
X74930000Y-128200300D01*
X57150000Y-132010300D02*
X60960000Y-128200300D01*
X57150000Y-134031400D02*
X57150000Y-132010300D01*
X55760400Y-135421000D02*
X57150000Y-134031400D01*
X55760400Y-137399200D02*
X55760400Y-135421000D01*
X54610000Y-138549600D02*
X55760400Y-137399200D01*
X54610000Y-140155000D02*
X54610000Y-138549600D01*
X53220300Y-141544700D02*
X54610000Y-140155000D01*
X53220300Y-142240000D02*
X53220300Y-141544700D01*
X52070000Y-142240000D02*
X53220300Y-142240000D01*
X60960000Y-127000000D02*
X60960000Y-128200300D01*
X53340000Y-130411900D02*
X53340000Y-127000000D01*
X50881300Y-132870600D02*
X53340000Y-130411900D01*
X50881300Y-137241300D02*
X50881300Y-132870600D01*
X53340000Y-139700000D02*
X50881300Y-137241300D01*
X44450000Y-118758100D02*
X44450000Y-115570000D01*
X45789700Y-120097800D02*
X44450000Y-118758100D01*
X45789700Y-124599400D02*
X45789700Y-120097800D01*
X46990000Y-125799700D02*
X45789700Y-124599400D01*
X46990000Y-127000000D02*
X46990000Y-125799700D01*
X43180000Y-132010300D02*
X46990000Y-128200300D01*
X43180000Y-134031400D02*
X43180000Y-132010300D01*
X41790400Y-135421000D02*
X43180000Y-134031400D01*
X41790400Y-137399200D02*
X41790400Y-135421000D01*
X40640000Y-138549600D02*
X41790400Y-137399200D01*
X40640000Y-140155000D02*
X40640000Y-138549600D01*
X39250300Y-141544700D02*
X40640000Y-140155000D01*
X39250300Y-142240000D02*
X39250300Y-141544700D01*
X38100000Y-142240000D02*
X39250300Y-142240000D01*
X46990000Y-127000000D02*
X46990000Y-128200300D01*
X40560600Y-128190600D02*
X39370000Y-127000000D01*
X40560600Y-134110800D02*
X40560600Y-128190600D01*
X39370000Y-135301400D02*
X40560600Y-134110800D01*
X39370000Y-139700000D02*
X39370000Y-135301400D01*
X40709700Y-125660300D02*
X39370000Y-127000000D01*
X40709700Y-117970600D02*
X40709700Y-125660300D01*
X41910000Y-116770300D02*
X40709700Y-117970600D01*
X41910000Y-115570000D02*
X41910000Y-116770300D01*
X26749400Y-103019100D02*
X30480000Y-106749700D01*
X26749400Y-92630600D02*
X26749400Y-103019100D01*
X27940000Y-91440000D02*
X26749400Y-92630600D01*
X30480000Y-107950000D02*
X30480000Y-106749700D01*
X27940000Y-99129700D02*
X30480000Y-101669700D01*
X27940000Y-93980000D02*
X27940000Y-99129700D01*
X30480000Y-102870000D02*
X30480000Y-101669700D01*
X27705400Y-90022000D02*
X30438700Y-90022000D01*
X26670000Y-91057400D02*
X27705400Y-90022000D01*
X26670000Y-91837400D02*
X26670000Y-91057400D01*
X25400000Y-93107400D02*
X26670000Y-91837400D01*
X25400000Y-93980000D02*
X25400000Y-93107400D01*
X32621500Y-89298500D02*
X32621500Y-88825900D01*
X30480000Y-91440000D02*
X32621500Y-89298500D01*
D21*
G36*
X104239021Y-69828844D02*
X106476273Y-71323727D01*
X107971156Y-73560979D01*
X108510000Y-76269931D01*
X108510000Y-152330069D01*
X107971156Y-155039021D01*
X106476273Y-157276273D01*
X104239021Y-158771156D01*
X101530069Y-159310000D01*
X25469931Y-159310000D01*
X22760979Y-158771156D01*
X20523727Y-157276273D01*
X19028844Y-155039021D01*
X18997309Y-154880481D01*
X32845021Y-154880481D01*
X32960532Y-155276840D01*
X33851711Y-155527421D01*
X34770946Y-155417888D01*
X35111468Y-155276840D01*
X35226979Y-154880481D01*
X91773021Y-154880481D01*
X91888532Y-155276840D01*
X92779711Y-155527421D01*
X93698946Y-155417888D01*
X94039468Y-155276840D01*
X94154979Y-154880481D01*
X92964000Y-153689502D01*
X91773021Y-154880481D01*
X35226979Y-154880481D01*
X34036000Y-153689502D01*
X32845021Y-154880481D01*
X18997309Y-154880481D01*
X18597862Y-152872325D01*
X23014587Y-152872325D01*
X23376916Y-153749229D01*
X24047242Y-154420726D01*
X24923513Y-154784585D01*
X25872325Y-154785413D01*
X26749229Y-154423084D01*
X27420726Y-153752758D01*
X27742553Y-152977711D01*
X31670579Y-152977711D01*
X31780112Y-153896946D01*
X31921160Y-154237468D01*
X32317519Y-154352979D01*
X33508498Y-153162000D01*
X34563502Y-153162000D01*
X35754481Y-154352979D01*
X36150840Y-154237468D01*
X36401421Y-153346289D01*
X36357503Y-152977711D01*
X90598579Y-152977711D01*
X90708112Y-153896946D01*
X90849160Y-154237468D01*
X91245519Y-154352979D01*
X92436498Y-153162000D01*
X93491502Y-153162000D01*
X94682481Y-154352979D01*
X95078840Y-154237468D01*
X95329421Y-153346289D01*
X95272946Y-152872325D01*
X99214587Y-152872325D01*
X99576916Y-153749229D01*
X100247242Y-154420726D01*
X101123513Y-154784585D01*
X102072325Y-154785413D01*
X102949229Y-154423084D01*
X103620726Y-153752758D01*
X103984585Y-152876487D01*
X103985413Y-151927675D01*
X103623084Y-151050771D01*
X102952758Y-150379274D01*
X102076487Y-150015415D01*
X101127675Y-150014587D01*
X100250771Y-150376916D01*
X99579274Y-151047242D01*
X99215415Y-151923513D01*
X99214587Y-152872325D01*
X95272946Y-152872325D01*
X95219888Y-152427054D01*
X95078840Y-152086532D01*
X94682481Y-151971021D01*
X93491502Y-153162000D01*
X92436498Y-153162000D01*
X91245519Y-151971021D01*
X90849160Y-152086532D01*
X90598579Y-152977711D01*
X36357503Y-152977711D01*
X36291888Y-152427054D01*
X36150840Y-152086532D01*
X35754481Y-151971021D01*
X34563502Y-153162000D01*
X33508498Y-153162000D01*
X32317519Y-151971021D01*
X31921160Y-152086532D01*
X31670579Y-152977711D01*
X27742553Y-152977711D01*
X27784585Y-152876487D01*
X27785413Y-151927675D01*
X27585365Y-151443519D01*
X32845021Y-151443519D01*
X34036000Y-152634498D01*
X35226979Y-151443519D01*
X91773021Y-151443519D01*
X92964000Y-152634498D01*
X94154979Y-151443519D01*
X94039468Y-151047160D01*
X93148289Y-150796579D01*
X92229054Y-150906112D01*
X91888532Y-151047160D01*
X91773021Y-151443519D01*
X35226979Y-151443519D01*
X35111468Y-151047160D01*
X34220289Y-150796579D01*
X33301054Y-150906112D01*
X32960532Y-151047160D01*
X32845021Y-151443519D01*
X27585365Y-151443519D01*
X27423084Y-151050771D01*
X26752758Y-150379274D01*
X25876487Y-150015415D01*
X24927675Y-150014587D01*
X24050771Y-150376916D01*
X23379274Y-151047242D01*
X23015415Y-151923513D01*
X23014587Y-152872325D01*
X18597862Y-152872325D01*
X18490000Y-152330069D01*
X18490000Y-149077177D01*
X34369574Y-149077177D01*
X34743298Y-149981657D01*
X35434703Y-150674270D01*
X36338529Y-151049572D01*
X37317177Y-151050426D01*
X38221657Y-150676702D01*
X38914270Y-149985297D01*
X39289572Y-149081471D01*
X39289575Y-149077177D01*
X87709574Y-149077177D01*
X88083298Y-149981657D01*
X88774703Y-150674270D01*
X89678529Y-151049572D01*
X90657177Y-151050426D01*
X91561657Y-150676702D01*
X92254270Y-149985297D01*
X92629572Y-149081471D01*
X92630426Y-148102823D01*
X92256702Y-147198343D01*
X91565297Y-146505730D01*
X90661471Y-146130428D01*
X89682823Y-146129574D01*
X88778343Y-146503298D01*
X88085730Y-147194703D01*
X87710428Y-148098529D01*
X87709574Y-149077177D01*
X39289575Y-149077177D01*
X39290426Y-148102823D01*
X38916702Y-147198343D01*
X38225297Y-146505730D01*
X37321471Y-146130428D01*
X36342823Y-146129574D01*
X35438343Y-146503298D01*
X34745730Y-147194703D01*
X34370428Y-148098529D01*
X34369574Y-149077177D01*
X18490000Y-149077177D01*
X18490000Y-144441081D01*
X91112621Y-144441081D01*
X91228132Y-144837440D01*
X92119311Y-145088021D01*
X93038546Y-144978488D01*
X93379068Y-144837440D01*
X93494579Y-144441081D01*
X92303600Y-143250102D01*
X91112621Y-144441081D01*
X18490000Y-144441081D01*
X18490000Y-141164481D01*
X33505421Y-141164481D01*
X33620932Y-141560840D01*
X34512111Y-141811421D01*
X35431346Y-141701888D01*
X35771868Y-141560840D01*
X35887379Y-141164481D01*
X34696400Y-139973502D01*
X33505421Y-141164481D01*
X18490000Y-141164481D01*
X18490000Y-139261711D01*
X32330979Y-139261711D01*
X32440512Y-140180946D01*
X32581560Y-140521468D01*
X32977919Y-140636979D01*
X34168898Y-139446000D01*
X35223902Y-139446000D01*
X36414881Y-140636979D01*
X36811240Y-140521468D01*
X37061821Y-139630289D01*
X36952288Y-138711054D01*
X36811240Y-138370532D01*
X36414881Y-138255021D01*
X35223902Y-139446000D01*
X34168898Y-139446000D01*
X32977919Y-138255021D01*
X32581560Y-138370532D01*
X32330979Y-139261711D01*
X18490000Y-139261711D01*
X18490000Y-137727519D01*
X33505421Y-137727519D01*
X34696400Y-138918498D01*
X35887379Y-137727519D01*
X35771868Y-137331160D01*
X34880689Y-137080579D01*
X33961454Y-137190112D01*
X33620932Y-137331160D01*
X33505421Y-137727519D01*
X18490000Y-137727519D01*
X18490000Y-135585901D01*
X36187716Y-135585901D01*
X36304387Y-136323447D01*
X36362173Y-136462951D01*
X36712779Y-136521120D01*
X37572498Y-135661400D01*
X36712779Y-134801680D01*
X36362173Y-134859849D01*
X36187716Y-135585901D01*
X18490000Y-135585901D01*
X18490000Y-134839881D01*
X32845021Y-134839881D01*
X32960532Y-135236240D01*
X33851711Y-135486821D01*
X34770946Y-135377288D01*
X35111468Y-135236240D01*
X35226979Y-134839881D01*
X34036000Y-133648902D01*
X32845021Y-134839881D01*
X18490000Y-134839881D01*
X18490000Y-132937111D01*
X31670579Y-132937111D01*
X31780112Y-133856346D01*
X31921160Y-134196868D01*
X32317519Y-134312379D01*
X33508498Y-133121400D01*
X34563502Y-133121400D01*
X35754481Y-134312379D01*
X36150840Y-134196868D01*
X36401421Y-133305689D01*
X36291888Y-132386454D01*
X36150840Y-132045932D01*
X35754481Y-131930421D01*
X34563502Y-133121400D01*
X33508498Y-133121400D01*
X32317519Y-131930421D01*
X31921160Y-132045932D01*
X31670579Y-132937111D01*
X18490000Y-132937111D01*
X18490000Y-131402919D01*
X32845021Y-131402919D01*
X34036000Y-132593898D01*
X35226979Y-131402919D01*
X35111468Y-131006560D01*
X34220289Y-130755979D01*
X33301054Y-130865512D01*
X32960532Y-131006560D01*
X32845021Y-131402919D01*
X18490000Y-131402919D01*
X18490000Y-112044187D01*
X37934752Y-112044187D01*
X38152757Y-112571800D01*
X38556077Y-112975824D01*
X39083309Y-113194750D01*
X39654187Y-113195248D01*
X40181800Y-112977243D01*
X40585824Y-112573923D01*
X40804750Y-112046691D01*
X40805248Y-111475813D01*
X40587243Y-110948200D01*
X40183923Y-110544176D01*
X39656691Y-110325250D01*
X39085813Y-110324752D01*
X38558200Y-110542757D01*
X38154176Y-110946077D01*
X37935250Y-111473309D01*
X37934752Y-112044187D01*
X18490000Y-112044187D01*
X18490000Y-108234187D01*
X21424752Y-108234187D01*
X21642757Y-108761800D01*
X22046077Y-109165824D01*
X22573309Y-109384750D01*
X23144187Y-109385248D01*
X23671800Y-109167243D01*
X24075824Y-108763923D01*
X24294750Y-108236691D01*
X24295248Y-107665813D01*
X24077243Y-107138200D01*
X23673923Y-106734176D01*
X23146691Y-106515250D01*
X22575813Y-106514752D01*
X22048200Y-106732757D01*
X21644176Y-107136077D01*
X21425250Y-107663309D01*
X21424752Y-108234187D01*
X18490000Y-108234187D01*
X18490000Y-103154187D01*
X21424752Y-103154187D01*
X21642757Y-103681800D01*
X22046077Y-104085824D01*
X22573309Y-104304750D01*
X23144187Y-104305248D01*
X23671800Y-104087243D01*
X24075824Y-103683923D01*
X24294750Y-103156691D01*
X24295248Y-102585813D01*
X24077243Y-102058200D01*
X23673923Y-101654176D01*
X23146691Y-101435250D01*
X22575813Y-101434752D01*
X22048200Y-101652757D01*
X21644176Y-102056077D01*
X21425250Y-102583309D01*
X21424752Y-103154187D01*
X18490000Y-103154187D01*
X18490000Y-98074187D01*
X21424752Y-98074187D01*
X21642757Y-98601800D01*
X22046077Y-99005824D01*
X22573309Y-99224750D01*
X23144187Y-99225248D01*
X23671800Y-99007243D01*
X24075824Y-98603923D01*
X24294750Y-98076691D01*
X24295248Y-97505813D01*
X24077243Y-96978200D01*
X23673923Y-96574176D01*
X23146691Y-96355250D01*
X22575813Y-96354752D01*
X22048200Y-96572757D01*
X21644176Y-96976077D01*
X21425250Y-97503309D01*
X21424752Y-98074187D01*
X18490000Y-98074187D01*
X18490000Y-91716661D01*
X21462758Y-91716661D01*
X21674990Y-92230303D01*
X22067630Y-92623629D01*
X22275512Y-92709949D01*
X22069697Y-92794990D01*
X21676371Y-93187630D01*
X21463243Y-93700900D01*
X21462758Y-94256661D01*
X21674990Y-94770303D01*
X22067630Y-95163629D01*
X22580900Y-95376757D01*
X23136661Y-95377242D01*
X23650303Y-95165010D01*
X24043629Y-94772370D01*
X24129949Y-94564488D01*
X24214990Y-94770303D01*
X24607630Y-95163629D01*
X25120900Y-95376757D01*
X25676661Y-95377242D01*
X25914400Y-95279011D01*
X25914400Y-103019100D01*
X25977961Y-103338641D01*
X26033326Y-103421500D01*
X26158966Y-103609534D01*
X29465690Y-106916258D01*
X29437189Y-106935302D01*
X29126120Y-107400849D01*
X29016887Y-107950000D01*
X29126120Y-108499151D01*
X29437189Y-108964698D01*
X29902736Y-109275767D01*
X30451887Y-109385000D01*
X30508113Y-109385000D01*
X31057264Y-109275767D01*
X31522811Y-108964698D01*
X31833880Y-108499151D01*
X31943113Y-107950000D01*
X31833880Y-107400849D01*
X31522811Y-106935302D01*
X31315000Y-106796447D01*
X31315000Y-106749700D01*
X31251439Y-106430159D01*
X31070434Y-106159266D01*
X27584400Y-102673232D01*
X27584400Y-99954968D01*
X29465690Y-101836258D01*
X29437189Y-101855302D01*
X29126120Y-102320849D01*
X29016887Y-102870000D01*
X29126120Y-103419151D01*
X29437189Y-103884698D01*
X29902736Y-104195767D01*
X30451887Y-104305000D01*
X30508113Y-104305000D01*
X31057264Y-104195767D01*
X31522811Y-103884698D01*
X31833880Y-103419151D01*
X31943113Y-102870000D01*
X31833880Y-102320849D01*
X31522811Y-101855302D01*
X31315000Y-101716447D01*
X31315000Y-101669700D01*
X31251439Y-101350159D01*
X31070434Y-101079266D01*
X29424301Y-99433133D01*
X29695841Y-99598952D01*
X29987000Y-99398828D01*
X29987000Y-98163000D01*
X30733000Y-98163000D01*
X30733000Y-99398828D01*
X31024159Y-99598952D01*
X31665859Y-99207091D01*
X32108754Y-98599491D01*
X32168929Y-98454156D01*
X31962410Y-98163000D01*
X30733000Y-98163000D01*
X29987000Y-98163000D01*
X29967000Y-98163000D01*
X29967000Y-97417000D01*
X29987000Y-97417000D01*
X29987000Y-97397000D01*
X30733000Y-97397000D01*
X30733000Y-97417000D01*
X31962410Y-97417000D01*
X32168929Y-97125844D01*
X32108754Y-96980509D01*
X31665859Y-96372909D01*
X31024159Y-95981048D01*
X30733002Y-96181171D01*
X30733002Y-95863000D01*
X30665530Y-95863000D01*
X31143997Y-95787931D01*
X31288883Y-95727918D01*
X31348604Y-95376106D01*
X30480000Y-94507502D01*
X29611396Y-95376106D01*
X29671117Y-95727918D01*
X30230197Y-95863000D01*
X29986998Y-95863000D01*
X29986998Y-96181171D01*
X29695841Y-95981048D01*
X29054141Y-96372909D01*
X28775000Y-96755858D01*
X28775000Y-95120391D01*
X29052586Y-94843289D01*
X29083894Y-94848604D01*
X29952498Y-93980000D01*
X31007502Y-93980000D01*
X31876106Y-94848604D01*
X32227918Y-94788883D01*
X32404411Y-94058411D01*
X32287931Y-93316003D01*
X32227918Y-93171117D01*
X31876106Y-93111396D01*
X31007502Y-93980000D01*
X29952498Y-93980000D01*
X29083894Y-93111396D01*
X29052214Y-93116774D01*
X28732370Y-92796371D01*
X28524488Y-92710051D01*
X28730303Y-92625010D01*
X29123629Y-92232370D01*
X29209949Y-92024488D01*
X29294990Y-92230303D01*
X29616711Y-92552586D01*
X29611396Y-92583894D01*
X30480000Y-93452498D01*
X31348604Y-92583894D01*
X31343226Y-92552214D01*
X31663629Y-92232370D01*
X31874644Y-91724187D01*
X37934752Y-91724187D01*
X38152757Y-92251800D01*
X38556077Y-92655824D01*
X39083309Y-92874750D01*
X39654187Y-92875248D01*
X40181800Y-92657243D01*
X40585824Y-92253923D01*
X40804750Y-91726691D01*
X40805248Y-91155813D01*
X40587243Y-90628200D01*
X40183923Y-90224176D01*
X39656691Y-90005250D01*
X39085813Y-90004752D01*
X38558200Y-90222757D01*
X38154176Y-90626077D01*
X37935250Y-91153309D01*
X37934752Y-91724187D01*
X31874644Y-91724187D01*
X31876757Y-91719100D01*
X31877189Y-91223679D01*
X33211934Y-89888934D01*
X33336532Y-89702460D01*
X33392939Y-89618041D01*
X33456500Y-89298500D01*
X33456500Y-88826629D01*
X33456645Y-88660537D01*
X33329792Y-88353528D01*
X33261655Y-88285272D01*
X33265826Y-88287000D01*
X33635250Y-88287000D01*
X33917000Y-88005250D01*
X33917000Y-86733000D01*
X32644750Y-86733000D01*
X32363000Y-87014750D01*
X32363000Y-87384174D01*
X32534576Y-87798394D01*
X32727173Y-87990992D01*
X32456137Y-87990755D01*
X32149128Y-88117608D01*
X31914034Y-88352293D01*
X31786645Y-88659079D01*
X31786389Y-88952743D01*
X31159422Y-89579710D01*
X31146992Y-89549628D01*
X30912307Y-89314534D01*
X30605521Y-89187145D01*
X30273337Y-89186855D01*
X30272986Y-89187000D01*
X27705400Y-89187000D01*
X27385860Y-89250560D01*
X27114966Y-89431566D01*
X26241223Y-90305309D01*
X26192370Y-90256371D01*
X25679100Y-90043243D01*
X25123339Y-90042758D01*
X24609697Y-90254990D01*
X24216371Y-90647630D01*
X24130051Y-90855512D01*
X24045010Y-90649697D01*
X23652370Y-90256371D01*
X23139100Y-90043243D01*
X22583339Y-90042758D01*
X22069697Y-90254990D01*
X21676371Y-90647630D01*
X21463243Y-91160900D01*
X21462758Y-91716661D01*
X18490000Y-91716661D01*
X18490000Y-85335826D01*
X32363000Y-85335826D01*
X32363000Y-85705250D01*
X32644750Y-85987000D01*
X33917000Y-85987000D01*
X33917000Y-84714750D01*
X33635250Y-84433000D01*
X33265826Y-84433000D01*
X32851606Y-84604575D01*
X32534576Y-84921606D01*
X32363000Y-85335826D01*
X18490000Y-85335826D01*
X18490000Y-76672325D01*
X23014587Y-76672325D01*
X23376916Y-77549229D01*
X24047242Y-78220726D01*
X24923513Y-78584585D01*
X25872325Y-78585413D01*
X26749229Y-78223084D01*
X27420726Y-77552758D01*
X27784585Y-76676487D01*
X27785413Y-75727675D01*
X27423084Y-74850771D01*
X26752758Y-74179274D01*
X25876487Y-73815415D01*
X24927675Y-73814587D01*
X24050771Y-74176916D01*
X23379274Y-74847242D01*
X23015415Y-75723513D01*
X23014587Y-76672325D01*
X18490000Y-76672325D01*
X18490000Y-76269931D01*
X19028844Y-73560979D01*
X20469965Y-71404187D01*
X32854752Y-71404187D01*
X33072757Y-71931800D01*
X33476077Y-72335824D01*
X34003309Y-72554750D01*
X34574187Y-72555248D01*
X35101800Y-72337243D01*
X35505824Y-71933923D01*
X35559862Y-71803785D01*
X35612757Y-71931800D01*
X36016077Y-72335824D01*
X36146215Y-72389862D01*
X36018200Y-72442757D01*
X35614176Y-72846077D01*
X35395250Y-73373309D01*
X35394752Y-73944187D01*
X35612757Y-74471800D01*
X36016077Y-74875824D01*
X36543309Y-75094750D01*
X37114187Y-75095248D01*
X37641800Y-74877243D01*
X38045824Y-74473923D01*
X38264750Y-73946691D01*
X38265248Y-73375813D01*
X38047243Y-72848200D01*
X37643923Y-72444176D01*
X37513785Y-72390138D01*
X37641800Y-72337243D01*
X38045824Y-71933923D01*
X38099862Y-71803785D01*
X38152757Y-71931800D01*
X38556077Y-72335824D01*
X39083309Y-72554750D01*
X39654187Y-72555248D01*
X40181800Y-72337243D01*
X40585824Y-71933923D01*
X40639862Y-71803785D01*
X40692757Y-71931800D01*
X41096077Y-72335824D01*
X41226215Y-72389862D01*
X41098200Y-72442757D01*
X40694176Y-72846077D01*
X40475250Y-73373309D01*
X40474752Y-73944187D01*
X40692757Y-74471800D01*
X41096077Y-74875824D01*
X41623309Y-75094750D01*
X42194187Y-75095248D01*
X42721800Y-74877243D01*
X43125824Y-74473923D01*
X43179862Y-74343785D01*
X43232757Y-74471800D01*
X43636077Y-74875824D01*
X44163309Y-75094750D01*
X44734187Y-75095248D01*
X45261800Y-74877243D01*
X45665824Y-74473923D01*
X45719862Y-74343785D01*
X45772757Y-74471800D01*
X46176077Y-74875824D01*
X46703309Y-75094750D01*
X47274187Y-75095248D01*
X47801800Y-74877243D01*
X48205824Y-74473923D01*
X48424750Y-73946691D01*
X48424934Y-73735802D01*
X49454066Y-74764934D01*
X49245813Y-74764752D01*
X48718200Y-74982757D01*
X48314176Y-75386077D01*
X48095250Y-75913309D01*
X48094752Y-76484187D01*
X48312757Y-77011800D01*
X48716077Y-77415824D01*
X48846215Y-77469862D01*
X48718200Y-77522757D01*
X48314176Y-77926077D01*
X48095250Y-78453309D01*
X48094752Y-79024187D01*
X48312757Y-79551800D01*
X48716077Y-79955824D01*
X49243309Y-80174750D01*
X49814187Y-80175248D01*
X49931300Y-80126858D01*
X49931300Y-84972840D01*
X49816691Y-84925250D01*
X49245813Y-84924752D01*
X48718200Y-85142757D01*
X48314176Y-85546077D01*
X48260138Y-85676215D01*
X48207243Y-85548200D01*
X47803923Y-85144176D01*
X47276691Y-84925250D01*
X46705813Y-84924752D01*
X46178200Y-85142757D01*
X45774176Y-85546077D01*
X45720138Y-85676215D01*
X45667243Y-85548200D01*
X45263923Y-85144176D01*
X44736691Y-84925250D01*
X44165813Y-84924752D01*
X43638200Y-85142757D01*
X43234176Y-85546077D01*
X43180138Y-85676215D01*
X43127243Y-85548200D01*
X42723923Y-85144176D01*
X42196691Y-84925250D01*
X41625813Y-84924752D01*
X41098200Y-85142757D01*
X40694176Y-85546077D01*
X40640138Y-85676215D01*
X40587243Y-85548200D01*
X40183923Y-85144176D01*
X39656691Y-84925250D01*
X39085813Y-84924752D01*
X38558200Y-85142757D01*
X38154176Y-85546077D01*
X38100138Y-85676215D01*
X38047243Y-85548200D01*
X37643923Y-85144176D01*
X37116691Y-84925250D01*
X36545813Y-84924752D01*
X36119663Y-85100834D01*
X36045424Y-84921606D01*
X35728394Y-84604575D01*
X35314174Y-84433000D01*
X34944750Y-84433000D01*
X34663000Y-84714750D01*
X34663000Y-85987000D01*
X34683000Y-85987000D01*
X34683000Y-86733000D01*
X34663000Y-86733000D01*
X34663000Y-88005250D01*
X34944750Y-88287000D01*
X35314174Y-88287000D01*
X35728394Y-88115425D01*
X36045424Y-87798394D01*
X36119779Y-87618885D01*
X36543309Y-87794750D01*
X37114187Y-87795248D01*
X37641800Y-87577243D01*
X38045824Y-87173923D01*
X38099862Y-87043785D01*
X38152757Y-87171800D01*
X38556077Y-87575824D01*
X39083309Y-87794750D01*
X39654187Y-87795248D01*
X40181800Y-87577243D01*
X40585824Y-87173923D01*
X40639862Y-87043785D01*
X40692757Y-87171800D01*
X41075000Y-87554710D01*
X41075000Y-88216300D01*
X41138561Y-88535841D01*
X41253638Y-88708066D01*
X41319566Y-88806734D01*
X46084246Y-93571414D01*
X45572909Y-93944141D01*
X45427467Y-94182312D01*
X44999151Y-93896120D01*
X44450000Y-93786887D01*
X43900849Y-93896120D01*
X43435302Y-94207189D01*
X43180000Y-94589275D01*
X42924698Y-94207189D01*
X42459151Y-93896120D01*
X41910000Y-93786887D01*
X41360849Y-93896120D01*
X40895302Y-94207189D01*
X40640000Y-94589275D01*
X40384698Y-94207189D01*
X39919151Y-93896120D01*
X39370000Y-93786887D01*
X38820849Y-93896120D01*
X38355302Y-94207189D01*
X38044233Y-94672736D01*
X37935000Y-95221887D01*
X37935000Y-95278113D01*
X38044233Y-95827264D01*
X38355302Y-96292811D01*
X38820849Y-96603880D01*
X39370000Y-96713113D01*
X39919151Y-96603880D01*
X40384698Y-96292811D01*
X40640000Y-95910725D01*
X40891825Y-96287607D01*
X39979966Y-97199466D01*
X39798961Y-97470359D01*
X39735400Y-97789900D01*
X39735400Y-101422560D01*
X38570000Y-101422560D01*
X38334683Y-101466838D01*
X38118559Y-101605910D01*
X37973569Y-101818110D01*
X37922560Y-102070000D01*
X37922560Y-103670000D01*
X37966838Y-103905317D01*
X38105910Y-104121441D01*
X38318110Y-104266431D01*
X38570000Y-104317440D01*
X39735400Y-104317440D01*
X39735400Y-105133732D01*
X39623911Y-105245221D01*
X39085813Y-105244752D01*
X38558200Y-105462757D01*
X38154176Y-105866077D01*
X37935250Y-106393309D01*
X37934752Y-106964187D01*
X38152757Y-107491800D01*
X38556077Y-107895824D01*
X39083309Y-108114750D01*
X39654187Y-108115248D01*
X40181800Y-107897243D01*
X40585824Y-107493923D01*
X40804750Y-106966691D01*
X40805222Y-106425646D01*
X41160834Y-106070034D01*
X41264625Y-105914700D01*
X41341839Y-105799141D01*
X41405400Y-105479600D01*
X41405400Y-104232742D01*
X41910000Y-104333113D01*
X42459151Y-104223880D01*
X42924698Y-103912811D01*
X43180000Y-103530725D01*
X43435302Y-103912811D01*
X43900849Y-104223880D01*
X44450000Y-104333113D01*
X44815400Y-104260430D01*
X44815400Y-114179570D01*
X44450000Y-114106887D01*
X43900849Y-114216120D01*
X43435302Y-114527189D01*
X43180000Y-114909275D01*
X42924698Y-114527189D01*
X42459151Y-114216120D01*
X41910000Y-114106887D01*
X41360849Y-114216120D01*
X40895302Y-114527189D01*
X40640000Y-114909275D01*
X40384698Y-114527189D01*
X39919151Y-114216120D01*
X39370000Y-114106887D01*
X38820849Y-114216120D01*
X38355302Y-114527189D01*
X38044233Y-114992736D01*
X37935000Y-115541887D01*
X37935000Y-115598113D01*
X38044233Y-116147264D01*
X38355302Y-116612811D01*
X38820849Y-116923880D01*
X39370000Y-117033113D01*
X39919151Y-116923880D01*
X40384698Y-116612811D01*
X40640000Y-116230725D01*
X40891825Y-116607607D01*
X40119266Y-117380166D01*
X39938261Y-117651059D01*
X39874700Y-117970600D01*
X39874700Y-121742560D01*
X38570000Y-121742560D01*
X38334683Y-121786838D01*
X38118559Y-121925910D01*
X37973569Y-122138110D01*
X37922560Y-122390000D01*
X37922560Y-123990000D01*
X37966838Y-124225317D01*
X38105910Y-124441441D01*
X38318110Y-124586431D01*
X38570000Y-124637440D01*
X39874700Y-124637440D01*
X39874700Y-125314432D01*
X39623911Y-125565221D01*
X39085813Y-125564752D01*
X38558200Y-125782757D01*
X38154176Y-126186077D01*
X37935250Y-126713309D01*
X37934752Y-127284187D01*
X38152757Y-127811800D01*
X38556077Y-128215824D01*
X39083309Y-128434750D01*
X39624354Y-128435222D01*
X39725600Y-128536468D01*
X39725600Y-131276419D01*
X39445499Y-131209116D01*
X38707953Y-131325787D01*
X38568449Y-131383573D01*
X38510280Y-131734179D01*
X39370000Y-132593898D01*
X39384142Y-132579756D01*
X39725600Y-132921214D01*
X39725600Y-133321586D01*
X39384142Y-133663044D01*
X39370000Y-133648902D01*
X39355858Y-133663044D01*
X38828356Y-133135542D01*
X38842498Y-133121400D01*
X37982779Y-132261680D01*
X37632173Y-132319849D01*
X37457716Y-133045901D01*
X37574387Y-133783447D01*
X37598007Y-133840468D01*
X37437953Y-133865787D01*
X37298449Y-133923573D01*
X37240280Y-134274179D01*
X38100000Y-135133898D01*
X38114142Y-135119756D01*
X38535000Y-135540614D01*
X38535000Y-135782186D01*
X38114142Y-136203044D01*
X38100000Y-136188902D01*
X37240280Y-137048621D01*
X37298449Y-137399227D01*
X38024501Y-137573684D01*
X38535000Y-137492929D01*
X38535000Y-138576564D01*
X38196539Y-138914436D01*
X37985241Y-139423298D01*
X37984760Y-139974285D01*
X38195169Y-140483515D01*
X38553589Y-140842560D01*
X37350000Y-140842560D01*
X37114683Y-140886838D01*
X36898559Y-141025910D01*
X36753569Y-141238110D01*
X36702560Y-141490000D01*
X36702560Y-142990000D01*
X36746838Y-143225317D01*
X36885910Y-143441441D01*
X37098110Y-143586431D01*
X37350000Y-143637440D01*
X38850000Y-143637440D01*
X38904309Y-143627221D01*
X44860280Y-143627221D01*
X44918449Y-143977827D01*
X45644501Y-144152284D01*
X46382047Y-144035613D01*
X46521551Y-143977827D01*
X46579720Y-143627221D01*
X45720000Y-142767502D01*
X44860280Y-143627221D01*
X38904309Y-143627221D01*
X39085317Y-143593162D01*
X39301441Y-143454090D01*
X39446431Y-143241890D01*
X39486355Y-143044738D01*
X39854436Y-143413461D01*
X40363298Y-143624759D01*
X40914285Y-143625240D01*
X41423515Y-143414831D01*
X41813461Y-143025564D01*
X41909976Y-142793130D01*
X42005169Y-143023515D01*
X42394436Y-143413461D01*
X42903298Y-143624759D01*
X43454285Y-143625240D01*
X43963515Y-143414831D01*
X44286815Y-143092094D01*
X44332779Y-143099720D01*
X45192498Y-142240000D01*
X45178356Y-142225858D01*
X45705858Y-141698356D01*
X45720000Y-141712498D01*
X45734142Y-141698356D01*
X46261644Y-142225858D01*
X46247502Y-142240000D01*
X47107221Y-143099720D01*
X47457827Y-143041551D01*
X47632284Y-142315499D01*
X47515613Y-141577953D01*
X47491993Y-141520932D01*
X47652047Y-141495613D01*
X47791551Y-141437827D01*
X47849720Y-141087221D01*
X46990000Y-140227502D01*
X46975858Y-140241644D01*
X46448356Y-139714142D01*
X46462498Y-139700000D01*
X47517502Y-139700000D01*
X48377221Y-140559720D01*
X48727827Y-140501551D01*
X48902284Y-139775499D01*
X48785613Y-139037953D01*
X48727827Y-138898449D01*
X48377221Y-138840280D01*
X47517502Y-139700000D01*
X46462498Y-139700000D01*
X45602779Y-138840280D01*
X45556434Y-138847969D01*
X45235564Y-138526539D01*
X44726702Y-138315241D01*
X44175715Y-138314760D01*
X43666485Y-138525169D01*
X43276539Y-138914436D01*
X43180024Y-139146870D01*
X43084831Y-138916485D01*
X42695564Y-138526539D01*
X42186702Y-138315241D01*
X42055342Y-138315126D01*
X42057689Y-138312779D01*
X46130280Y-138312779D01*
X46990000Y-139172498D01*
X47849720Y-138312779D01*
X47791551Y-137962173D01*
X47065499Y-137787716D01*
X46327953Y-137904387D01*
X46188449Y-137962173D01*
X46130280Y-138312779D01*
X42057689Y-138312779D01*
X42380834Y-137989634D01*
X42515751Y-137787716D01*
X42561839Y-137718741D01*
X42625400Y-137399200D01*
X42625400Y-136930766D01*
X42903298Y-137046159D01*
X43454285Y-137046640D01*
X43963515Y-136836231D01*
X44353461Y-136446964D01*
X44449976Y-136214530D01*
X44545169Y-136444915D01*
X44934436Y-136834861D01*
X45443298Y-137046159D01*
X45994285Y-137046640D01*
X46503515Y-136836231D01*
X46893461Y-136446964D01*
X47104759Y-135938102D01*
X47105240Y-135387115D01*
X46894831Y-134877885D01*
X46536411Y-134518840D01*
X47740000Y-134518840D01*
X47975317Y-134474562D01*
X48191441Y-134335490D01*
X48336431Y-134123290D01*
X48387440Y-133871400D01*
X48387440Y-133036481D01*
X48974021Y-133036481D01*
X49089532Y-133432840D01*
X49980711Y-133683421D01*
X50046300Y-133675606D01*
X50046300Y-137241300D01*
X50109861Y-137560841D01*
X50221232Y-137727519D01*
X50290866Y-137831734D01*
X51955177Y-139496045D01*
X51954760Y-139974285D01*
X52165169Y-140483515D01*
X52523589Y-140842560D01*
X51320000Y-140842560D01*
X51084683Y-140886838D01*
X50868559Y-141025910D01*
X50723569Y-141238110D01*
X50672560Y-141490000D01*
X50672560Y-142990000D01*
X50716838Y-143225317D01*
X50855910Y-143441441D01*
X51068110Y-143586431D01*
X51320000Y-143637440D01*
X52820000Y-143637440D01*
X52874309Y-143627221D01*
X58830280Y-143627221D01*
X58888449Y-143977827D01*
X59614501Y-144152284D01*
X60352047Y-144035613D01*
X60491551Y-143977827D01*
X60549720Y-143627221D01*
X59690000Y-142767502D01*
X58830280Y-143627221D01*
X52874309Y-143627221D01*
X53055317Y-143593162D01*
X53271441Y-143454090D01*
X53416431Y-143241890D01*
X53456355Y-143044738D01*
X53824436Y-143413461D01*
X54333298Y-143624759D01*
X54884285Y-143625240D01*
X55393515Y-143414831D01*
X55783461Y-143025564D01*
X55879976Y-142793130D01*
X55975169Y-143023515D01*
X56364436Y-143413461D01*
X56873298Y-143624759D01*
X57424285Y-143625240D01*
X57933515Y-143414831D01*
X58256815Y-143092094D01*
X58302779Y-143099720D01*
X59162498Y-142240000D01*
X59148356Y-142225858D01*
X59675858Y-141698356D01*
X59690000Y-141712498D01*
X59704142Y-141698356D01*
X60231644Y-142225858D01*
X60217502Y-142240000D01*
X61077221Y-143099720D01*
X61427827Y-143041551D01*
X61602284Y-142315499D01*
X61485613Y-141577953D01*
X61461993Y-141520932D01*
X61622047Y-141495613D01*
X61761551Y-141437827D01*
X61819720Y-141087221D01*
X60960000Y-140227502D01*
X60945858Y-140241644D01*
X60418356Y-139714142D01*
X60432498Y-139700000D01*
X61487502Y-139700000D01*
X62347221Y-140559720D01*
X62697827Y-140501551D01*
X62872284Y-139775499D01*
X62755613Y-139037953D01*
X62697827Y-138898449D01*
X62347221Y-138840280D01*
X61487502Y-139700000D01*
X60432498Y-139700000D01*
X59572779Y-138840280D01*
X59526434Y-138847969D01*
X59205564Y-138526539D01*
X58696702Y-138315241D01*
X58145715Y-138314760D01*
X57636485Y-138525169D01*
X57246539Y-138914436D01*
X57150024Y-139146870D01*
X57054831Y-138916485D01*
X56665564Y-138526539D01*
X56156702Y-138315241D01*
X56025342Y-138315126D01*
X56027689Y-138312779D01*
X60100280Y-138312779D01*
X60960000Y-139172498D01*
X61819720Y-138312779D01*
X61761551Y-137962173D01*
X61035499Y-137787716D01*
X60297953Y-137904387D01*
X60158449Y-137962173D01*
X60100280Y-138312779D01*
X56027689Y-138312779D01*
X56350834Y-137989634D01*
X56485751Y-137787716D01*
X56531839Y-137718741D01*
X56595400Y-137399200D01*
X56595400Y-137048621D01*
X65180280Y-137048621D01*
X65238449Y-137399227D01*
X65964501Y-137573684D01*
X66702047Y-137457013D01*
X66841551Y-137399227D01*
X66899720Y-137048621D01*
X66040000Y-136188902D01*
X65180280Y-137048621D01*
X56595400Y-137048621D01*
X56595400Y-136930766D01*
X56873298Y-137046159D01*
X57424285Y-137046640D01*
X57933515Y-136836231D01*
X58323461Y-136446964D01*
X58419976Y-136214530D01*
X58515169Y-136444915D01*
X58904436Y-136834861D01*
X59413298Y-137046159D01*
X59964285Y-137046640D01*
X60473515Y-136836231D01*
X60863461Y-136446964D01*
X61074759Y-135938102D01*
X61075066Y-135585901D01*
X64127716Y-135585901D01*
X64244387Y-136323447D01*
X64302173Y-136462951D01*
X64652779Y-136521120D01*
X65512498Y-135661400D01*
X64652779Y-134801680D01*
X64302173Y-134859849D01*
X64127716Y-135585901D01*
X61075066Y-135585901D01*
X61075240Y-135387115D01*
X60864831Y-134877885D01*
X60506411Y-134518840D01*
X61710000Y-134518840D01*
X61945317Y-134474562D01*
X62161441Y-134335490D01*
X62306431Y-134123290D01*
X62357440Y-133871400D01*
X62357440Y-132491762D01*
X62416519Y-132508979D01*
X63607498Y-131318000D01*
X62416519Y-130127021D01*
X62020160Y-130242532D01*
X61769579Y-131133711D01*
X61843123Y-131750918D01*
X61710000Y-131723960D01*
X60210000Y-131723960D01*
X59974683Y-131768238D01*
X59758559Y-131907310D01*
X59613569Y-132119510D01*
X59573645Y-132316662D01*
X59205564Y-131947939D01*
X58696702Y-131736641D01*
X58604607Y-131736561D01*
X60741649Y-129599519D01*
X62944021Y-129599519D01*
X64135000Y-130790498D01*
X65325979Y-129599519D01*
X65210468Y-129203160D01*
X64319289Y-128952579D01*
X63400054Y-129062112D01*
X63059532Y-129203160D01*
X62944021Y-129599519D01*
X60741649Y-129599519D01*
X61550434Y-128790734D01*
X61731440Y-128519840D01*
X61795000Y-128200300D01*
X61795000Y-128153553D01*
X62002811Y-128014698D01*
X62313880Y-127549151D01*
X62366584Y-127284187D01*
X65874752Y-127284187D01*
X66092757Y-127811800D01*
X66496077Y-128215824D01*
X67023309Y-128434750D01*
X67594187Y-128435248D01*
X68121800Y-128217243D01*
X68525824Y-127813923D01*
X68744750Y-127286691D01*
X68745248Y-126715813D01*
X68527243Y-126188200D01*
X68123923Y-125784176D01*
X67596691Y-125565250D01*
X67025813Y-125564752D01*
X66498200Y-125782757D01*
X66094176Y-126186077D01*
X65875250Y-126713309D01*
X65874752Y-127284187D01*
X62366584Y-127284187D01*
X62423113Y-127000000D01*
X62313880Y-126450849D01*
X62002811Y-125985302D01*
X61537264Y-125674233D01*
X60988113Y-125565000D01*
X60931887Y-125565000D01*
X60382736Y-125674233D01*
X59917189Y-125985302D01*
X59606120Y-126450849D01*
X59496887Y-127000000D01*
X59606120Y-127549151D01*
X59917189Y-128014698D01*
X59945690Y-128033742D01*
X56559566Y-131419866D01*
X56378561Y-131690759D01*
X56353204Y-131818236D01*
X56156702Y-131736641D01*
X55605715Y-131736160D01*
X55096485Y-131946569D01*
X54773185Y-132269306D01*
X54727221Y-132261680D01*
X53867502Y-133121400D01*
X53881644Y-133135542D01*
X53354142Y-133663044D01*
X53340000Y-133648902D01*
X53325858Y-133663044D01*
X52798356Y-133135542D01*
X52812498Y-133121400D01*
X52798356Y-133107258D01*
X53325858Y-132579756D01*
X53340000Y-132593898D01*
X54199720Y-131734179D01*
X54141551Y-131383573D01*
X53663953Y-131268815D01*
X53930434Y-131002334D01*
X54111439Y-130731441D01*
X54175000Y-130411900D01*
X54175000Y-128194083D01*
X54555824Y-127813923D01*
X54774750Y-127286691D01*
X54775248Y-126715813D01*
X54557243Y-126188200D01*
X54153923Y-125784176D01*
X53626691Y-125565250D01*
X53055813Y-125564752D01*
X52528200Y-125782757D01*
X52124176Y-126186077D01*
X51905250Y-126713309D01*
X51904752Y-127284187D01*
X52122757Y-127811800D01*
X52505000Y-128194710D01*
X52505000Y-130066032D01*
X52294092Y-130276940D01*
X52279840Y-130242532D01*
X51883481Y-130127021D01*
X50692502Y-131318000D01*
X50706644Y-131332142D01*
X50179142Y-131859644D01*
X50165000Y-131845502D01*
X48974021Y-133036481D01*
X48387440Y-133036481D01*
X48387440Y-132491762D01*
X48446519Y-132508979D01*
X49637498Y-131318000D01*
X48446519Y-130127021D01*
X48050160Y-130242532D01*
X47799579Y-131133711D01*
X47873123Y-131750918D01*
X47740000Y-131723960D01*
X46240000Y-131723960D01*
X46004683Y-131768238D01*
X45788559Y-131907310D01*
X45643569Y-132119510D01*
X45603645Y-132316662D01*
X45235564Y-131947939D01*
X44726702Y-131736641D01*
X44634607Y-131736561D01*
X46771649Y-129599519D01*
X48974021Y-129599519D01*
X50165000Y-130790498D01*
X51355979Y-129599519D01*
X51240468Y-129203160D01*
X50349289Y-128952579D01*
X49430054Y-129062112D01*
X49089532Y-129203160D01*
X48974021Y-129599519D01*
X46771649Y-129599519D01*
X47580434Y-128790734D01*
X47761440Y-128519840D01*
X47825000Y-128200300D01*
X47825000Y-128153553D01*
X48032811Y-128014698D01*
X48343880Y-127549151D01*
X48453113Y-127000000D01*
X48343880Y-126450849D01*
X48032811Y-125985302D01*
X47825000Y-125846447D01*
X47825000Y-125799700D01*
X47800043Y-125674233D01*
X47761440Y-125480160D01*
X47580434Y-125209266D01*
X47018593Y-124647425D01*
X47539151Y-124543880D01*
X48004698Y-124232811D01*
X48315767Y-123767264D01*
X48425000Y-123218113D01*
X48425000Y-123161887D01*
X48315767Y-122612736D01*
X48004698Y-122147189D01*
X47825000Y-122027118D01*
X47825000Y-117509700D01*
X47787967Y-117323525D01*
X47799491Y-117318754D01*
X48407091Y-116875859D01*
X48798952Y-116234159D01*
X48598828Y-115943000D01*
X47363000Y-115943000D01*
X47363000Y-115963000D01*
X46624168Y-115963000D01*
X46617000Y-115955832D01*
X46617000Y-115943000D01*
X46604168Y-115943000D01*
X46597000Y-115935832D01*
X46597000Y-115197000D01*
X46617000Y-115197000D01*
X46617000Y-113967590D01*
X47363000Y-113967590D01*
X47363000Y-115197000D01*
X48598828Y-115197000D01*
X48798952Y-114905841D01*
X48407091Y-114264141D01*
X47799491Y-113821246D01*
X47654156Y-113761071D01*
X47363000Y-113967590D01*
X46617000Y-113967590D01*
X46485400Y-113874245D01*
X46485400Y-113376801D01*
X46497000Y-113368828D01*
X46497000Y-112133000D01*
X47243000Y-112133000D01*
X47243000Y-113368828D01*
X47534159Y-113568952D01*
X48175859Y-113177091D01*
X48618754Y-112569491D01*
X48678929Y-112424156D01*
X48472410Y-112133000D01*
X47243000Y-112133000D01*
X46497000Y-112133000D01*
X46485400Y-112133000D01*
X46485400Y-111387000D01*
X46497000Y-111387000D01*
X46497000Y-110151172D01*
X47243000Y-110151172D01*
X47243000Y-111387000D01*
X48472410Y-111387000D01*
X48678929Y-111095844D01*
X48618754Y-110950509D01*
X48175859Y-110342909D01*
X47534159Y-109951048D01*
X47243000Y-110151172D01*
X46497000Y-110151172D01*
X46485400Y-110143199D01*
X46485400Y-108020221D01*
X46961887Y-108115000D01*
X47018113Y-108115000D01*
X47567264Y-108005767D01*
X48032811Y-107694698D01*
X48343880Y-107229151D01*
X48453113Y-106680000D01*
X48343880Y-106130849D01*
X48032811Y-105665302D01*
X47567264Y-105354233D01*
X47018113Y-105245000D01*
X46961887Y-105245000D01*
X46485400Y-105339779D01*
X46485400Y-104232742D01*
X46990000Y-104333113D01*
X47539151Y-104223880D01*
X48004698Y-103912811D01*
X48315767Y-103447264D01*
X48425000Y-102898113D01*
X48425000Y-102841887D01*
X48315767Y-102292736D01*
X48008175Y-101832393D01*
X49931300Y-99909268D01*
X49931300Y-107488600D01*
X49994861Y-107808141D01*
X50126911Y-108005767D01*
X50175866Y-108079034D01*
X52607021Y-110510189D01*
X52528200Y-110542757D01*
X52124176Y-110946077D01*
X51905250Y-111473309D01*
X51904752Y-112044187D01*
X52122757Y-112571800D01*
X52526077Y-112975824D01*
X53053309Y-113194750D01*
X53624187Y-113195248D01*
X54151800Y-112977243D01*
X54555824Y-112573923D01*
X54589545Y-112492713D01*
X56284099Y-114187267D01*
X55880000Y-114106887D01*
X55330849Y-114216120D01*
X54865302Y-114527189D01*
X54610000Y-114909275D01*
X54354698Y-114527189D01*
X53889151Y-114216120D01*
X53340000Y-114106887D01*
X52790849Y-114216120D01*
X52325302Y-114527189D01*
X52014233Y-114992736D01*
X51905000Y-115541887D01*
X51905000Y-115598113D01*
X52014233Y-116147264D01*
X52325302Y-116612811D01*
X52790849Y-116923880D01*
X53340000Y-117033113D01*
X53889151Y-116923880D01*
X54354698Y-116612811D01*
X54610000Y-116230725D01*
X54865302Y-116612811D01*
X55330849Y-116923880D01*
X55880000Y-117033113D01*
X56315000Y-116946586D01*
X56315000Y-118179700D01*
X56378561Y-118499241D01*
X56419850Y-118561034D01*
X56559566Y-118770134D01*
X59941825Y-122152393D01*
X59690000Y-122529275D01*
X59434698Y-122147189D01*
X58969151Y-121836120D01*
X58420000Y-121726887D01*
X57870849Y-121836120D01*
X57405302Y-122147189D01*
X57150000Y-122529275D01*
X56894698Y-122147189D01*
X56429151Y-121836120D01*
X55880000Y-121726887D01*
X55330849Y-121836120D01*
X54865302Y-122147189D01*
X54768899Y-122291465D01*
X54743162Y-122154683D01*
X54604090Y-121938559D01*
X54391890Y-121793569D01*
X54140000Y-121742560D01*
X52540000Y-121742560D01*
X52304683Y-121786838D01*
X52088559Y-121925910D01*
X51943569Y-122138110D01*
X51892560Y-122390000D01*
X51892560Y-123990000D01*
X51936838Y-124225317D01*
X52075910Y-124441441D01*
X52288110Y-124586431D01*
X52540000Y-124637440D01*
X54140000Y-124637440D01*
X54375317Y-124593162D01*
X54591441Y-124454090D01*
X54736431Y-124241890D01*
X54767815Y-124086911D01*
X54865302Y-124232811D01*
X55330849Y-124543880D01*
X55880000Y-124653113D01*
X56429151Y-124543880D01*
X56894698Y-124232811D01*
X57150000Y-123850725D01*
X57405302Y-124232811D01*
X57870849Y-124543880D01*
X58420000Y-124653113D01*
X58969151Y-124543880D01*
X59434698Y-124232811D01*
X59690000Y-123850725D01*
X59945302Y-124232811D01*
X60410849Y-124543880D01*
X60960000Y-124653113D01*
X61509151Y-124543880D01*
X61974698Y-124232811D01*
X62285767Y-123767264D01*
X62395000Y-123218113D01*
X62395000Y-123161887D01*
X62285767Y-122612736D01*
X61974698Y-122147189D01*
X61795000Y-122027118D01*
X61795000Y-121989700D01*
X61755987Y-121793569D01*
X61731440Y-121670160D01*
X61550434Y-121399266D01*
X57985000Y-117833832D01*
X57985000Y-116946586D01*
X58420000Y-117033113D01*
X58969151Y-116923880D01*
X59397467Y-116637688D01*
X59542909Y-116875859D01*
X60150509Y-117318754D01*
X60295844Y-117378929D01*
X60587000Y-117172410D01*
X60587000Y-115943000D01*
X61333000Y-115943000D01*
X61333000Y-117172410D01*
X61624156Y-117378929D01*
X61769491Y-117318754D01*
X62377091Y-116875859D01*
X62768952Y-116234159D01*
X62568828Y-115943000D01*
X61333000Y-115943000D01*
X60587000Y-115943000D01*
X60567000Y-115943000D01*
X60567000Y-115197000D01*
X60587000Y-115197000D01*
X60587000Y-113967590D01*
X61333000Y-113967590D01*
X61333000Y-115197000D01*
X62568828Y-115197000D01*
X62768952Y-114905841D01*
X62377091Y-114264141D01*
X61769491Y-113821246D01*
X61624156Y-113761071D01*
X61333000Y-113967590D01*
X60587000Y-113967590D01*
X60295844Y-113761071D01*
X60150509Y-113821246D01*
X59542909Y-114264141D01*
X59397467Y-114502312D01*
X58969151Y-114216120D01*
X58420000Y-114106887D01*
X57985000Y-114193414D01*
X57985000Y-113872300D01*
X57921439Y-113552759D01*
X57740434Y-113281866D01*
X56882724Y-112424156D01*
X59031071Y-112424156D01*
X59091246Y-112569491D01*
X59534141Y-113177091D01*
X60175841Y-113568952D01*
X60467000Y-113368828D01*
X60467000Y-112133000D01*
X61213000Y-112133000D01*
X61213000Y-113368828D01*
X61504159Y-113568952D01*
X62145859Y-113177091D01*
X62588754Y-112569491D01*
X62648929Y-112424156D01*
X62442410Y-112133000D01*
X61213000Y-112133000D01*
X60467000Y-112133000D01*
X59237590Y-112133000D01*
X59031071Y-112424156D01*
X56882724Y-112424156D01*
X56502755Y-112044187D01*
X65874752Y-112044187D01*
X66092757Y-112571800D01*
X66496077Y-112975824D01*
X67023309Y-113194750D01*
X67594187Y-113195248D01*
X68121800Y-112977243D01*
X68525824Y-112573923D01*
X68744750Y-112046691D01*
X68745248Y-111475813D01*
X68527243Y-110948200D01*
X68123923Y-110544176D01*
X67596691Y-110325250D01*
X67025813Y-110324752D01*
X66498200Y-110542757D01*
X66094176Y-110946077D01*
X65875250Y-111473309D01*
X65874752Y-112044187D01*
X56502755Y-112044187D01*
X55554412Y-111095844D01*
X59031071Y-111095844D01*
X59237590Y-111387000D01*
X60467000Y-111387000D01*
X60467000Y-110151172D01*
X61213000Y-110151172D01*
X61213000Y-111387000D01*
X62442410Y-111387000D01*
X62648929Y-111095844D01*
X62588754Y-110950509D01*
X62145859Y-110342909D01*
X61504159Y-109951048D01*
X61213000Y-110151172D01*
X60467000Y-110151172D01*
X60175841Y-109951048D01*
X59534141Y-110342909D01*
X59091246Y-110950509D01*
X59031071Y-111095844D01*
X55554412Y-111095844D01*
X51601300Y-107142732D01*
X51601300Y-88661068D01*
X52977388Y-90037156D01*
X52528200Y-90222757D01*
X52124176Y-90626077D01*
X51905250Y-91153309D01*
X51904752Y-91724187D01*
X52122757Y-92251800D01*
X52526077Y-92655824D01*
X53053309Y-92874750D01*
X53624187Y-92875248D01*
X54151800Y-92657243D01*
X54555824Y-92253923D01*
X54743113Y-91802881D01*
X56314900Y-93374668D01*
X56314900Y-93873394D01*
X55880000Y-93786887D01*
X55330849Y-93896120D01*
X54865302Y-94207189D01*
X54610000Y-94589275D01*
X54354698Y-94207189D01*
X53889151Y-93896120D01*
X53340000Y-93786887D01*
X52790849Y-93896120D01*
X52325302Y-94207189D01*
X52014233Y-94672736D01*
X51905000Y-95221887D01*
X51905000Y-95278113D01*
X52014233Y-95827264D01*
X52325302Y-96292811D01*
X52790849Y-96603880D01*
X53340000Y-96713113D01*
X53889151Y-96603880D01*
X54354698Y-96292811D01*
X54610000Y-95910725D01*
X54861825Y-96287607D01*
X54089266Y-97060166D01*
X53908261Y-97331059D01*
X53844700Y-97650600D01*
X53844700Y-101422560D01*
X52540000Y-101422560D01*
X52304683Y-101466838D01*
X52088559Y-101605910D01*
X51943569Y-101818110D01*
X51892560Y-102070000D01*
X51892560Y-103670000D01*
X51936838Y-103905317D01*
X52075910Y-104121441D01*
X52288110Y-104266431D01*
X52540000Y-104317440D01*
X53844700Y-104317440D01*
X53844700Y-104994432D01*
X53593911Y-105245221D01*
X53055813Y-105244752D01*
X52528200Y-105462757D01*
X52124176Y-105866077D01*
X51905250Y-106393309D01*
X51904752Y-106964187D01*
X52122757Y-107491800D01*
X52526077Y-107895824D01*
X53053309Y-108114750D01*
X53624187Y-108115248D01*
X54151800Y-107897243D01*
X54555824Y-107493923D01*
X54774750Y-106966691D01*
X54775222Y-106425646D01*
X55270134Y-105930734D01*
X55280848Y-105914700D01*
X55451139Y-105659841D01*
X55514700Y-105340300D01*
X55514700Y-104260450D01*
X55880000Y-104333113D01*
X56429151Y-104223880D01*
X56894698Y-103912811D01*
X57150000Y-103530725D01*
X57405302Y-103912811D01*
X57870849Y-104223880D01*
X58420000Y-104333113D01*
X58862058Y-104245182D01*
X58918561Y-104529241D01*
X59052994Y-104730434D01*
X59099566Y-104800134D01*
X59945690Y-105646258D01*
X59917189Y-105665302D01*
X59606120Y-106130849D01*
X59496887Y-106680000D01*
X59606120Y-107229151D01*
X59917189Y-107694698D01*
X60382736Y-108005767D01*
X60931887Y-108115000D01*
X60988113Y-108115000D01*
X61537264Y-108005767D01*
X62002811Y-107694698D01*
X62313880Y-107229151D01*
X62423113Y-106680000D01*
X62313880Y-106130849D01*
X62002811Y-105665302D01*
X61795000Y-105526447D01*
X61795000Y-105479700D01*
X61731439Y-105160159D01*
X61550434Y-104889266D01*
X60988593Y-104327425D01*
X61509151Y-104223880D01*
X61974698Y-103912811D01*
X62285767Y-103447264D01*
X62395000Y-102898113D01*
X62395000Y-102841887D01*
X62285767Y-102292736D01*
X61974698Y-101827189D01*
X61795000Y-101707118D01*
X61795000Y-101669700D01*
X61731439Y-101350159D01*
X61550434Y-101079266D01*
X60525000Y-100053832D01*
X60525000Y-96896387D01*
X60587000Y-96852410D01*
X60587000Y-95623000D01*
X60567000Y-95623000D01*
X60567000Y-94877000D01*
X60587000Y-94877000D01*
X60587000Y-94857000D01*
X61333000Y-94857000D01*
X61333000Y-94877000D01*
X61353000Y-94877000D01*
X61353000Y-95623000D01*
X61333000Y-95623000D01*
X61333000Y-96852410D01*
X61624156Y-97058929D01*
X61769491Y-96998754D01*
X62377091Y-96555859D01*
X62635852Y-96132120D01*
X64639700Y-98135968D01*
X64639700Y-106557700D01*
X64703261Y-106877241D01*
X64831551Y-107069240D01*
X64884266Y-107148134D01*
X70262600Y-112526468D01*
X70262600Y-114188958D01*
X69850000Y-114106887D01*
X69300849Y-114216120D01*
X68835302Y-114527189D01*
X68580000Y-114909275D01*
X68324698Y-114527189D01*
X67859151Y-114216120D01*
X67310000Y-114106887D01*
X66760849Y-114216120D01*
X66295302Y-114527189D01*
X65984233Y-114992736D01*
X65875000Y-115541887D01*
X65875000Y-115598113D01*
X65984233Y-116147264D01*
X66295302Y-116612811D01*
X66760849Y-116923880D01*
X67310000Y-117033113D01*
X67859151Y-116923880D01*
X68324698Y-116612811D01*
X68580000Y-116230725D01*
X68835302Y-116612811D01*
X69300849Y-116923880D01*
X69850000Y-117033113D01*
X70262600Y-116951042D01*
X70262600Y-118157300D01*
X70326161Y-118476841D01*
X70382417Y-118561034D01*
X70507166Y-118747734D01*
X73911825Y-122152393D01*
X73660000Y-122529275D01*
X73404698Y-122147189D01*
X72939151Y-121836120D01*
X72390000Y-121726887D01*
X71840849Y-121836120D01*
X71375302Y-122147189D01*
X71120000Y-122529275D01*
X70864698Y-122147189D01*
X70399151Y-121836120D01*
X69850000Y-121726887D01*
X69300849Y-121836120D01*
X68835302Y-122147189D01*
X68738899Y-122291465D01*
X68713162Y-122154683D01*
X68574090Y-121938559D01*
X68361890Y-121793569D01*
X68110000Y-121742560D01*
X66510000Y-121742560D01*
X66274683Y-121786838D01*
X66058559Y-121925910D01*
X65913569Y-122138110D01*
X65862560Y-122390000D01*
X65862560Y-123990000D01*
X65906838Y-124225317D01*
X66045910Y-124441441D01*
X66258110Y-124586431D01*
X66510000Y-124637440D01*
X68110000Y-124637440D01*
X68345317Y-124593162D01*
X68561441Y-124454090D01*
X68706431Y-124241890D01*
X68737815Y-124086911D01*
X68835302Y-124232811D01*
X69300849Y-124543880D01*
X69850000Y-124653113D01*
X70399151Y-124543880D01*
X70864698Y-124232811D01*
X71120000Y-123850725D01*
X71375302Y-124232811D01*
X71840849Y-124543880D01*
X72390000Y-124653113D01*
X72939151Y-124543880D01*
X73404698Y-124232811D01*
X73660000Y-123850725D01*
X73915302Y-124232811D01*
X74380849Y-124543880D01*
X74930000Y-124653113D01*
X75295400Y-124580430D01*
X75295400Y-125632091D01*
X74958113Y-125565000D01*
X74901887Y-125565000D01*
X74352736Y-125674233D01*
X73887189Y-125985302D01*
X73576120Y-126450849D01*
X73466887Y-127000000D01*
X73576120Y-127549151D01*
X73887189Y-128014698D01*
X73915690Y-128033742D01*
X70529566Y-131419866D01*
X70348561Y-131690759D01*
X70323204Y-131818236D01*
X70126702Y-131736641D01*
X69575715Y-131736160D01*
X69066485Y-131946569D01*
X68743185Y-132269306D01*
X68697221Y-132261680D01*
X67837502Y-133121400D01*
X67851644Y-133135542D01*
X67324142Y-133663044D01*
X67310000Y-133648902D01*
X67295858Y-133663044D01*
X66768356Y-133135542D01*
X66782498Y-133121400D01*
X66768356Y-133107258D01*
X67295858Y-132579756D01*
X67310000Y-132593898D01*
X68169720Y-131734179D01*
X68111551Y-131383573D01*
X67385499Y-131209116D01*
X66647953Y-131325787D01*
X66508449Y-131383573D01*
X66495544Y-131461358D01*
X66390888Y-130583054D01*
X66249840Y-130242532D01*
X65853481Y-130127021D01*
X64662502Y-131318000D01*
X64676644Y-131332142D01*
X64149142Y-131859644D01*
X64135000Y-131845502D01*
X62944021Y-133036481D01*
X63059532Y-133432840D01*
X63950711Y-133683421D01*
X64869946Y-133573888D01*
X65210468Y-133432840D01*
X65325978Y-133036483D01*
X65409427Y-133119932D01*
X65514387Y-133783447D01*
X65538007Y-133840468D01*
X65377953Y-133865787D01*
X65238449Y-133923573D01*
X65180280Y-134274179D01*
X66040000Y-135133898D01*
X66054142Y-135119756D01*
X66581644Y-135647258D01*
X66567502Y-135661400D01*
X67427221Y-136521120D01*
X67473566Y-136513431D01*
X67794436Y-136834861D01*
X68303298Y-137046159D01*
X68854285Y-137046640D01*
X68895400Y-137029652D01*
X68895400Y-137053332D01*
X67989566Y-137959166D01*
X67808561Y-138230059D01*
X67775983Y-138393837D01*
X67586702Y-138315241D01*
X67035715Y-138314760D01*
X66526485Y-138525169D01*
X66136539Y-138914436D01*
X65925241Y-139423298D01*
X65924760Y-139974285D01*
X66135169Y-140483515D01*
X66493589Y-140842560D01*
X65290000Y-140842560D01*
X65054683Y-140886838D01*
X64838559Y-141025910D01*
X64693569Y-141238110D01*
X64642560Y-141490000D01*
X64642560Y-142990000D01*
X64686838Y-143225317D01*
X64825910Y-143441441D01*
X65038110Y-143586431D01*
X65290000Y-143637440D01*
X66790000Y-143637440D01*
X66844309Y-143627221D01*
X72800280Y-143627221D01*
X72858449Y-143977827D01*
X73584501Y-144152284D01*
X74322047Y-144035613D01*
X74461551Y-143977827D01*
X74519720Y-143627221D01*
X73660000Y-142767502D01*
X72800280Y-143627221D01*
X66844309Y-143627221D01*
X67025317Y-143593162D01*
X67241441Y-143454090D01*
X67386431Y-143241890D01*
X67426355Y-143044738D01*
X67794436Y-143413461D01*
X68303298Y-143624759D01*
X68854285Y-143625240D01*
X69363515Y-143414831D01*
X69753461Y-143025564D01*
X69849976Y-142793130D01*
X69945169Y-143023515D01*
X70334436Y-143413461D01*
X70843298Y-143624759D01*
X71394285Y-143625240D01*
X71903515Y-143414831D01*
X72226815Y-143092094D01*
X72272779Y-143099720D01*
X73132498Y-142240000D01*
X73118356Y-142225858D01*
X73645858Y-141698356D01*
X73660000Y-141712498D01*
X73674142Y-141698356D01*
X74201644Y-142225858D01*
X74187502Y-142240000D01*
X75047221Y-143099720D01*
X75397827Y-143041551D01*
X75572284Y-142315499D01*
X75455613Y-141577953D01*
X75431993Y-141520932D01*
X75592047Y-141495613D01*
X75731551Y-141437827D01*
X75789720Y-141087221D01*
X74930000Y-140227502D01*
X74915858Y-140241644D01*
X74388356Y-139714142D01*
X74402498Y-139700000D01*
X75457502Y-139700000D01*
X76317221Y-140559720D01*
X76667827Y-140501551D01*
X76842284Y-139775499D01*
X76725613Y-139037953D01*
X76667827Y-138898449D01*
X76317221Y-138840280D01*
X75457502Y-139700000D01*
X74402498Y-139700000D01*
X73542779Y-138840280D01*
X73496434Y-138847969D01*
X73175564Y-138526539D01*
X72666702Y-138315241D01*
X72115715Y-138314760D01*
X71606485Y-138525169D01*
X71216539Y-138914436D01*
X71120024Y-139146870D01*
X71024831Y-138916485D01*
X70635564Y-138526539D01*
X70126702Y-138315241D01*
X69995342Y-138315126D01*
X69997689Y-138312779D01*
X74070280Y-138312779D01*
X74930000Y-139172498D01*
X75789720Y-138312779D01*
X75731551Y-137962173D01*
X75005499Y-137787716D01*
X74267953Y-137904387D01*
X74128449Y-137962173D01*
X74070280Y-138312779D01*
X69997689Y-138312779D01*
X70320834Y-137989634D01*
X70455751Y-137787716D01*
X70501839Y-137718741D01*
X70565400Y-137399200D01*
X70565400Y-136930766D01*
X70843298Y-137046159D01*
X71394285Y-137046640D01*
X71903515Y-136836231D01*
X72293461Y-136446964D01*
X72389976Y-136214530D01*
X72485169Y-136444915D01*
X72874436Y-136834861D01*
X73383298Y-137046159D01*
X73934285Y-137046640D01*
X74443515Y-136836231D01*
X74833461Y-136446964D01*
X75044759Y-135938102D01*
X75045066Y-135585901D01*
X78097716Y-135585901D01*
X78214387Y-136323447D01*
X78272173Y-136462951D01*
X78622779Y-136521120D01*
X79482498Y-135661400D01*
X78622779Y-134801680D01*
X78272173Y-134859849D01*
X78097716Y-135585901D01*
X75045066Y-135585901D01*
X75045240Y-135387115D01*
X74834831Y-134877885D01*
X74476411Y-134518840D01*
X75680000Y-134518840D01*
X75915317Y-134474562D01*
X76131441Y-134335490D01*
X76276431Y-134123290D01*
X76327440Y-133871400D01*
X76327440Y-133036481D01*
X76914021Y-133036481D01*
X77029532Y-133432840D01*
X77920711Y-133683421D01*
X78839946Y-133573888D01*
X79180468Y-133432840D01*
X79295978Y-133036483D01*
X79379427Y-133119932D01*
X79484387Y-133783447D01*
X79508007Y-133840468D01*
X79347953Y-133865787D01*
X79208449Y-133923573D01*
X79150280Y-134274179D01*
X80010000Y-135133898D01*
X80024142Y-135119756D01*
X80445000Y-135540614D01*
X80445000Y-135782186D01*
X80024142Y-136203044D01*
X80010000Y-136188902D01*
X79150280Y-137048621D01*
X79208449Y-137399227D01*
X79934501Y-137573684D01*
X80445000Y-137492929D01*
X80445000Y-138576564D01*
X80106539Y-138914436D01*
X79895241Y-139423298D01*
X79894760Y-139974285D01*
X80105169Y-140483515D01*
X80463589Y-140842560D01*
X79260000Y-140842560D01*
X79024683Y-140886838D01*
X78808559Y-141025910D01*
X78663569Y-141238110D01*
X78612560Y-141490000D01*
X78612560Y-142990000D01*
X78656838Y-143225317D01*
X78795910Y-143441441D01*
X79008110Y-143586431D01*
X79260000Y-143637440D01*
X80760000Y-143637440D01*
X80814309Y-143627221D01*
X86770280Y-143627221D01*
X86828449Y-143977827D01*
X87554501Y-144152284D01*
X88292047Y-144035613D01*
X88431551Y-143977827D01*
X88489720Y-143627221D01*
X87630000Y-142767502D01*
X86770280Y-143627221D01*
X80814309Y-143627221D01*
X80995317Y-143593162D01*
X81211441Y-143454090D01*
X81356431Y-143241890D01*
X81396355Y-143044738D01*
X81764436Y-143413461D01*
X82273298Y-143624759D01*
X82824285Y-143625240D01*
X83333515Y-143414831D01*
X83723461Y-143025564D01*
X83819976Y-142793130D01*
X83915169Y-143023515D01*
X84304436Y-143413461D01*
X84813298Y-143624759D01*
X85364285Y-143625240D01*
X85873515Y-143414831D01*
X86196815Y-143092094D01*
X86242779Y-143099720D01*
X87102498Y-142240000D01*
X87088356Y-142225858D01*
X87615858Y-141698356D01*
X87630000Y-141712498D01*
X87644142Y-141698356D01*
X88171644Y-142225858D01*
X88157502Y-142240000D01*
X89017221Y-143099720D01*
X89367827Y-143041551D01*
X89488746Y-142538311D01*
X89938179Y-142538311D01*
X90047712Y-143457546D01*
X90188760Y-143798068D01*
X90585119Y-143913579D01*
X91776098Y-142722600D01*
X92831102Y-142722600D01*
X94022081Y-143913579D01*
X94418440Y-143798068D01*
X94669021Y-142906889D01*
X94559488Y-141987654D01*
X94418440Y-141647132D01*
X94022081Y-141531621D01*
X92831102Y-142722600D01*
X91776098Y-142722600D01*
X90585119Y-141531621D01*
X90188760Y-141647132D01*
X89938179Y-142538311D01*
X89488746Y-142538311D01*
X89542284Y-142315499D01*
X89425613Y-141577953D01*
X89401993Y-141520932D01*
X89562047Y-141495613D01*
X89701551Y-141437827D01*
X89759720Y-141087221D01*
X89676618Y-141004119D01*
X91112621Y-141004119D01*
X92303600Y-142195098D01*
X93494579Y-141004119D01*
X93379068Y-140607760D01*
X92487889Y-140357179D01*
X91568654Y-140466712D01*
X91228132Y-140607760D01*
X91112621Y-141004119D01*
X89676618Y-141004119D01*
X88900000Y-140227502D01*
X88885858Y-140241644D01*
X88358356Y-139714142D01*
X88372498Y-139700000D01*
X89427502Y-139700000D01*
X90287221Y-140559720D01*
X90637827Y-140501551D01*
X90812284Y-139775499D01*
X90695613Y-139037953D01*
X90650599Y-138929281D01*
X91773021Y-138929281D01*
X91888532Y-139325640D01*
X92779711Y-139576221D01*
X93698946Y-139466688D01*
X94039468Y-139325640D01*
X94154979Y-138929281D01*
X92964000Y-137738302D01*
X91773021Y-138929281D01*
X90650599Y-138929281D01*
X90637827Y-138898449D01*
X90287221Y-138840280D01*
X89427502Y-139700000D01*
X88372498Y-139700000D01*
X87512779Y-138840280D01*
X87466434Y-138847969D01*
X87145564Y-138526539D01*
X86636702Y-138315241D01*
X86085715Y-138314760D01*
X85576485Y-138525169D01*
X85186539Y-138914436D01*
X85090024Y-139146870D01*
X84994831Y-138916485D01*
X84605564Y-138526539D01*
X84096702Y-138315241D01*
X83965342Y-138315126D01*
X83967689Y-138312779D01*
X88040280Y-138312779D01*
X88900000Y-139172498D01*
X89759720Y-138312779D01*
X89701551Y-137962173D01*
X88975499Y-137787716D01*
X88237953Y-137904387D01*
X88098449Y-137962173D01*
X88040280Y-138312779D01*
X83967689Y-138312779D01*
X84290834Y-137989634D01*
X84425751Y-137787716D01*
X84471839Y-137718741D01*
X84535400Y-137399200D01*
X84535400Y-136930766D01*
X84813298Y-137046159D01*
X85364285Y-137046640D01*
X85873515Y-136836231D01*
X86263461Y-136446964D01*
X86359976Y-136214530D01*
X86455169Y-136444915D01*
X86844436Y-136834861D01*
X87353298Y-137046159D01*
X87904285Y-137046640D01*
X87953001Y-137026511D01*
X90598579Y-137026511D01*
X90708112Y-137945746D01*
X90849160Y-138286268D01*
X91245519Y-138401779D01*
X92436498Y-137210800D01*
X93491502Y-137210800D01*
X94682481Y-138401779D01*
X95078840Y-138286268D01*
X95329421Y-137395089D01*
X95219888Y-136475854D01*
X95078840Y-136135332D01*
X94682481Y-136019821D01*
X93491502Y-137210800D01*
X92436498Y-137210800D01*
X91245519Y-136019821D01*
X90849160Y-136135332D01*
X90598579Y-137026511D01*
X87953001Y-137026511D01*
X88413515Y-136836231D01*
X88803461Y-136446964D01*
X89014759Y-135938102D01*
X89015148Y-135492319D01*
X91773021Y-135492319D01*
X92964000Y-136683298D01*
X94154979Y-135492319D01*
X94039468Y-135095960D01*
X93148289Y-134845379D01*
X92229054Y-134954912D01*
X91888532Y-135095960D01*
X91773021Y-135492319D01*
X89015148Y-135492319D01*
X89015240Y-135387115D01*
X88804831Y-134877885D01*
X88446411Y-134518840D01*
X89650000Y-134518840D01*
X89885317Y-134474562D01*
X90101441Y-134335490D01*
X90246431Y-134123290D01*
X90297440Y-133871400D01*
X90297440Y-132371400D01*
X90253162Y-132136083D01*
X90121106Y-131930862D01*
X90695434Y-131356534D01*
X90768689Y-131246900D01*
X90876439Y-131085641D01*
X90940000Y-130766100D01*
X90940000Y-109085300D01*
X90876439Y-108765759D01*
X90695434Y-108494866D01*
X89914310Y-107713742D01*
X89942811Y-107694698D01*
X90253880Y-107229151D01*
X90363113Y-106680000D01*
X90253880Y-106130849D01*
X89942811Y-105665302D01*
X89735000Y-105526447D01*
X89735000Y-105479700D01*
X89671439Y-105160159D01*
X89490434Y-104889266D01*
X88928593Y-104327425D01*
X89449151Y-104223880D01*
X89914698Y-103912811D01*
X90225767Y-103447264D01*
X90335000Y-102898113D01*
X90335000Y-102841887D01*
X90225767Y-102292736D01*
X89914698Y-101827189D01*
X89449151Y-101516120D01*
X88900000Y-101406887D01*
X88395300Y-101507278D01*
X88395300Y-97650600D01*
X88359488Y-97470560D01*
X88331740Y-97331060D01*
X88150734Y-97060166D01*
X88086131Y-96995563D01*
X88090509Y-96998754D01*
X88235844Y-97058929D01*
X88527000Y-96852410D01*
X88527000Y-95623000D01*
X89273000Y-95623000D01*
X89273000Y-96852410D01*
X89564156Y-97058929D01*
X89709491Y-96998754D01*
X90317091Y-96555859D01*
X90708952Y-95914159D01*
X90508828Y-95623000D01*
X89273000Y-95623000D01*
X88527000Y-95623000D01*
X88507000Y-95623000D01*
X88507000Y-94877000D01*
X88527000Y-94877000D01*
X88527000Y-93647590D01*
X89273000Y-93647590D01*
X89273000Y-94877000D01*
X90508828Y-94877000D01*
X90708952Y-94585841D01*
X90317091Y-93944141D01*
X89709491Y-93501246D01*
X89564156Y-93441071D01*
X89273000Y-93647590D01*
X88527000Y-93647590D01*
X88235844Y-93441071D01*
X88090509Y-93501246D01*
X87482909Y-93944141D01*
X87337467Y-94182312D01*
X86909151Y-93896120D01*
X86360000Y-93786887D01*
X85810849Y-93896120D01*
X85345302Y-94207189D01*
X85090000Y-94589275D01*
X84834698Y-94207189D01*
X84369151Y-93896120D01*
X83820000Y-93786887D01*
X83270849Y-93896120D01*
X82805302Y-94207189D01*
X82550000Y-94589275D01*
X82294698Y-94207189D01*
X81829151Y-93896120D01*
X81280000Y-93786887D01*
X80730849Y-93896120D01*
X80265302Y-94207189D01*
X79954233Y-94672736D01*
X79845000Y-95221887D01*
X79845000Y-95278113D01*
X79954233Y-95827264D01*
X80265302Y-96292811D01*
X80730849Y-96603880D01*
X81280000Y-96713113D01*
X81829151Y-96603880D01*
X82294698Y-96292811D01*
X82550000Y-95910725D01*
X82801825Y-96287607D01*
X82029266Y-97060166D01*
X81848261Y-97331059D01*
X81784700Y-97650600D01*
X81784700Y-101422560D01*
X80480000Y-101422560D01*
X80244683Y-101466838D01*
X80028559Y-101605910D01*
X79883569Y-101818110D01*
X79832560Y-102070000D01*
X79832560Y-103670000D01*
X79876838Y-103905317D01*
X80015910Y-104121441D01*
X80228110Y-104266431D01*
X80480000Y-104317440D01*
X81784700Y-104317440D01*
X81784700Y-104994432D01*
X81533911Y-105245221D01*
X80995813Y-105244752D01*
X80468200Y-105462757D01*
X80064176Y-105866077D01*
X79845250Y-106393309D01*
X79844752Y-106964187D01*
X80062757Y-107491800D01*
X80466077Y-107895824D01*
X80993309Y-108114750D01*
X81564187Y-108115248D01*
X82091800Y-107897243D01*
X82495824Y-107493923D01*
X82714750Y-106966691D01*
X82715222Y-106425646D01*
X83210134Y-105930734D01*
X83220848Y-105914700D01*
X83391139Y-105659841D01*
X83454700Y-105340300D01*
X83454700Y-104260450D01*
X83820000Y-104333113D01*
X84369151Y-104223880D01*
X84834698Y-103912811D01*
X85090000Y-103530725D01*
X85345302Y-103912811D01*
X85810849Y-104223880D01*
X86360000Y-104333113D01*
X86748347Y-104255866D01*
X86788861Y-104459541D01*
X86969866Y-104730434D01*
X87885690Y-105646258D01*
X87857189Y-105665302D01*
X87546120Y-106130849D01*
X87436887Y-106680000D01*
X87546120Y-107229151D01*
X87857189Y-107694698D01*
X88065000Y-107833553D01*
X88065000Y-107880300D01*
X88128561Y-108199841D01*
X88309566Y-108470734D01*
X89270000Y-109431168D01*
X89270000Y-110070754D01*
X89153000Y-110151172D01*
X89153000Y-111387000D01*
X89173000Y-111387000D01*
X89173000Y-112133000D01*
X89153000Y-112133000D01*
X89153000Y-113368828D01*
X89270000Y-113449246D01*
X89270000Y-121800485D01*
X88900000Y-121726887D01*
X88534700Y-121799550D01*
X88534700Y-118110000D01*
X88471139Y-117790459D01*
X88290134Y-117519566D01*
X88086130Y-117315562D01*
X88090509Y-117318754D01*
X88235844Y-117378929D01*
X88527000Y-117172410D01*
X88527000Y-115943000D01*
X88507000Y-115943000D01*
X88507000Y-115197000D01*
X88527000Y-115197000D01*
X88527000Y-113967590D01*
X88235844Y-113761071D01*
X88090509Y-113821246D01*
X87482909Y-114264141D01*
X87337467Y-114502312D01*
X86909151Y-114216120D01*
X86360000Y-114106887D01*
X85810849Y-114216120D01*
X85345302Y-114527189D01*
X85090000Y-114909275D01*
X84834698Y-114527189D01*
X84369151Y-114216120D01*
X83820000Y-114106887D01*
X83270849Y-114216120D01*
X82805302Y-114527189D01*
X82550000Y-114909275D01*
X82294698Y-114527189D01*
X81829151Y-114216120D01*
X81280000Y-114106887D01*
X80730849Y-114216120D01*
X80265302Y-114527189D01*
X79954233Y-114992736D01*
X79845000Y-115541887D01*
X79845000Y-115598113D01*
X79954233Y-116147264D01*
X80265302Y-116612811D01*
X80730849Y-116923880D01*
X81280000Y-117033113D01*
X81829151Y-116923880D01*
X82294698Y-116612811D01*
X82550000Y-116230725D01*
X82801825Y-116607607D01*
X82029266Y-117380166D01*
X81848261Y-117651059D01*
X81784700Y-117970600D01*
X81784700Y-121742560D01*
X80480000Y-121742560D01*
X80244683Y-121786838D01*
X80028559Y-121925910D01*
X79883569Y-122138110D01*
X79832560Y-122390000D01*
X79832560Y-123990000D01*
X79876838Y-124225317D01*
X80015910Y-124441441D01*
X80228110Y-124586431D01*
X80480000Y-124637440D01*
X81784700Y-124637440D01*
X81784700Y-125314432D01*
X81533911Y-125565221D01*
X80995813Y-125564752D01*
X80468200Y-125782757D01*
X80064176Y-126186077D01*
X79845250Y-126713309D01*
X79844752Y-127284187D01*
X80062757Y-127811800D01*
X80466077Y-128215824D01*
X80993309Y-128434750D01*
X81534354Y-128435222D01*
X81635600Y-128536468D01*
X81635600Y-131276419D01*
X81355499Y-131209116D01*
X80617953Y-131325787D01*
X80478449Y-131383573D01*
X80465544Y-131461358D01*
X80360888Y-130583054D01*
X80219840Y-130242532D01*
X79823481Y-130127021D01*
X78632502Y-131318000D01*
X78646644Y-131332142D01*
X78119142Y-131859644D01*
X78105000Y-131845502D01*
X76914021Y-133036481D01*
X76327440Y-133036481D01*
X76327440Y-132491762D01*
X76386519Y-132508979D01*
X77577498Y-131318000D01*
X77563356Y-131303858D01*
X78090858Y-130776356D01*
X78105000Y-130790498D01*
X79295979Y-129599519D01*
X79180468Y-129203160D01*
X78289289Y-128952579D01*
X77370054Y-129062112D01*
X77029532Y-129203160D01*
X76965400Y-129423220D01*
X76965400Y-112044187D01*
X79844752Y-112044187D01*
X80062757Y-112571800D01*
X80466077Y-112975824D01*
X80993309Y-113194750D01*
X81564187Y-113195248D01*
X82091800Y-112977243D01*
X82495824Y-112573923D01*
X82558012Y-112424156D01*
X86971071Y-112424156D01*
X87031246Y-112569491D01*
X87474141Y-113177091D01*
X88115841Y-113568952D01*
X88407000Y-113368828D01*
X88407000Y-112133000D01*
X87177590Y-112133000D01*
X86971071Y-112424156D01*
X82558012Y-112424156D01*
X82714750Y-112046691D01*
X82715248Y-111475813D01*
X82558249Y-111095844D01*
X86971071Y-111095844D01*
X87177590Y-111387000D01*
X88407000Y-111387000D01*
X88407000Y-110151172D01*
X88115841Y-109951048D01*
X87474141Y-110342909D01*
X87031246Y-110950509D01*
X86971071Y-111095844D01*
X82558249Y-111095844D01*
X82497243Y-110948200D01*
X82093923Y-110544176D01*
X81566691Y-110325250D01*
X80995813Y-110324752D01*
X80468200Y-110542757D01*
X80064176Y-110946077D01*
X79845250Y-111473309D01*
X79844752Y-112044187D01*
X76965400Y-112044187D01*
X76965400Y-109080700D01*
X76901839Y-108761159D01*
X76720834Y-108490266D01*
X75944310Y-107713742D01*
X75972811Y-107694698D01*
X76283880Y-107229151D01*
X76393113Y-106680000D01*
X76283880Y-106130849D01*
X75972811Y-105665302D01*
X75944310Y-105646258D01*
X76743634Y-104846934D01*
X76836359Y-104708161D01*
X76924639Y-104576041D01*
X76988200Y-104256500D01*
X76988200Y-100213500D01*
X76924639Y-99893959D01*
X76784861Y-99684766D01*
X76743634Y-99623065D01*
X74116131Y-96995563D01*
X74120509Y-96998754D01*
X74265844Y-97058929D01*
X74557000Y-96852410D01*
X74557000Y-95623000D01*
X75303000Y-95623000D01*
X75303000Y-96852410D01*
X75594156Y-97058929D01*
X75739491Y-96998754D01*
X76347091Y-96555859D01*
X76738952Y-95914159D01*
X76538828Y-95623000D01*
X75303000Y-95623000D01*
X74557000Y-95623000D01*
X74537000Y-95623000D01*
X74537000Y-94877000D01*
X74557000Y-94877000D01*
X74557000Y-93647590D01*
X75303000Y-93647590D01*
X75303000Y-94877000D01*
X76538828Y-94877000D01*
X76738952Y-94585841D01*
X76347091Y-93944141D01*
X75739491Y-93501246D01*
X75594156Y-93441071D01*
X75303000Y-93647590D01*
X74557000Y-93647590D01*
X74265844Y-93441071D01*
X74120509Y-93501246D01*
X73512909Y-93944141D01*
X73367467Y-94182312D01*
X72939151Y-93896120D01*
X72390000Y-93786887D01*
X71955000Y-93873414D01*
X71955000Y-92104156D01*
X73001071Y-92104156D01*
X73061246Y-92249491D01*
X73504141Y-92857091D01*
X74145841Y-93248952D01*
X74437000Y-93048828D01*
X74437000Y-91813000D01*
X75183000Y-91813000D01*
X75183000Y-93048828D01*
X75474159Y-93248952D01*
X76115859Y-92857091D01*
X76558754Y-92249491D01*
X76618929Y-92104156D01*
X76412410Y-91813000D01*
X75183000Y-91813000D01*
X74437000Y-91813000D01*
X73207590Y-91813000D01*
X73001071Y-92104156D01*
X71955000Y-92104156D01*
X71955000Y-91724187D01*
X79844752Y-91724187D01*
X80062757Y-92251800D01*
X80466077Y-92655824D01*
X80993309Y-92874750D01*
X81564187Y-92875248D01*
X82091800Y-92657243D01*
X82495824Y-92253923D01*
X82558012Y-92104156D01*
X86971071Y-92104156D01*
X87031246Y-92249491D01*
X87474141Y-92857091D01*
X88115841Y-93248952D01*
X88407000Y-93048828D01*
X88407000Y-91813000D01*
X89153000Y-91813000D01*
X89153000Y-93048828D01*
X89444159Y-93248952D01*
X90085859Y-92857091D01*
X90528754Y-92249491D01*
X90588929Y-92104156D01*
X90382410Y-91813000D01*
X89153000Y-91813000D01*
X88407000Y-91813000D01*
X87177590Y-91813000D01*
X86971071Y-92104156D01*
X82558012Y-92104156D01*
X82714750Y-91726691D01*
X82715248Y-91155813D01*
X82558249Y-90775844D01*
X86971071Y-90775844D01*
X87177590Y-91067000D01*
X88407000Y-91067000D01*
X88407000Y-89831172D01*
X89153000Y-89831172D01*
X89153000Y-91067000D01*
X90382410Y-91067000D01*
X90588929Y-90775844D01*
X90528754Y-90630509D01*
X90085859Y-90022909D01*
X89444159Y-89631048D01*
X89153000Y-89831172D01*
X88407000Y-89831172D01*
X88115841Y-89631048D01*
X87474141Y-90022909D01*
X87031246Y-90630509D01*
X86971071Y-90775844D01*
X82558249Y-90775844D01*
X82497243Y-90628200D01*
X82093923Y-90224176D01*
X81566691Y-90005250D01*
X80995813Y-90004752D01*
X80468200Y-90222757D01*
X80064176Y-90626077D01*
X79845250Y-91153309D01*
X79844752Y-91724187D01*
X71955000Y-91724187D01*
X71955000Y-90775844D01*
X73001071Y-90775844D01*
X73207590Y-91067000D01*
X74437000Y-91067000D01*
X74437000Y-89831172D01*
X75183000Y-89831172D01*
X75183000Y-91067000D01*
X76412410Y-91067000D01*
X76618929Y-90775844D01*
X76558754Y-90630509D01*
X76115859Y-90022909D01*
X75474159Y-89631048D01*
X75183000Y-89831172D01*
X74437000Y-89831172D01*
X74145841Y-89631048D01*
X73504141Y-90022909D01*
X73061246Y-90630509D01*
X73001071Y-90775844D01*
X71955000Y-90775844D01*
X71955000Y-87733167D01*
X72103309Y-87794750D01*
X72674187Y-87795248D01*
X73201800Y-87577243D01*
X73605824Y-87173923D01*
X73659862Y-87043785D01*
X73712757Y-87171800D01*
X74116077Y-87575824D01*
X74643309Y-87794750D01*
X75214187Y-87795248D01*
X75741800Y-87577243D01*
X76145824Y-87173923D01*
X76199862Y-87043785D01*
X76252757Y-87171800D01*
X76656077Y-87575824D01*
X77183309Y-87794750D01*
X77754187Y-87795248D01*
X78281800Y-87577243D01*
X78685824Y-87173923D01*
X78739862Y-87043785D01*
X78792757Y-87171800D01*
X79196077Y-87575824D01*
X79723309Y-87794750D01*
X80294187Y-87795248D01*
X80821800Y-87577243D01*
X81225824Y-87173923D01*
X81279862Y-87043785D01*
X81332757Y-87171800D01*
X81736077Y-87575824D01*
X82263309Y-87794750D01*
X82834187Y-87795248D01*
X83361800Y-87577243D01*
X83765824Y-87173923D01*
X83819862Y-87043785D01*
X83872757Y-87171800D01*
X84276077Y-87575824D01*
X84803309Y-87794750D01*
X85374187Y-87795248D01*
X85901800Y-87577243D01*
X86305824Y-87173923D01*
X86359862Y-87043785D01*
X86412757Y-87171800D01*
X86816077Y-87575824D01*
X87343309Y-87794750D01*
X87914187Y-87795248D01*
X88441800Y-87577243D01*
X88845824Y-87173923D01*
X88899862Y-87043785D01*
X88952757Y-87171800D01*
X89356077Y-87575824D01*
X89883309Y-87794750D01*
X90454187Y-87795248D01*
X90981800Y-87577243D01*
X91385824Y-87173923D01*
X91439862Y-87043785D01*
X91492757Y-87171800D01*
X91896077Y-87575824D01*
X92423309Y-87794750D01*
X92994187Y-87795248D01*
X93521800Y-87577243D01*
X93925824Y-87173923D01*
X94144750Y-86646691D01*
X94145248Y-86075813D01*
X93927243Y-85548200D01*
X93523923Y-85144176D01*
X92996691Y-84925250D01*
X92425813Y-84924752D01*
X91898200Y-85142757D01*
X91494176Y-85546077D01*
X91440138Y-85676215D01*
X91387243Y-85548200D01*
X90983923Y-85144176D01*
X90456691Y-84925250D01*
X89885813Y-84924752D01*
X89358200Y-85142757D01*
X88954176Y-85546077D01*
X88900138Y-85676215D01*
X88847243Y-85548200D01*
X88443923Y-85144176D01*
X87916691Y-84925250D01*
X87345813Y-84924752D01*
X86818200Y-85142757D01*
X86414176Y-85546077D01*
X86360138Y-85676215D01*
X86307243Y-85548200D01*
X85903923Y-85144176D01*
X85376691Y-84925250D01*
X84805813Y-84924752D01*
X84278200Y-85142757D01*
X83874176Y-85546077D01*
X83820138Y-85676215D01*
X83767243Y-85548200D01*
X83363923Y-85144176D01*
X82836691Y-84925250D01*
X82265813Y-84924752D01*
X81738200Y-85142757D01*
X81334176Y-85546077D01*
X81280138Y-85676215D01*
X81227243Y-85548200D01*
X80823923Y-85144176D01*
X80693785Y-85090138D01*
X80821800Y-85037243D01*
X81225824Y-84633923D01*
X81444750Y-84106691D01*
X81445248Y-83535813D01*
X81227243Y-83008200D01*
X80823923Y-82604176D01*
X80693785Y-82550138D01*
X80821800Y-82497243D01*
X81225824Y-82093923D01*
X81444750Y-81566691D01*
X81445248Y-80995813D01*
X81227243Y-80468200D01*
X80823923Y-80064176D01*
X80693785Y-80010138D01*
X80821800Y-79957243D01*
X81225824Y-79553923D01*
X81279862Y-79423785D01*
X81332757Y-79551800D01*
X81736077Y-79955824D01*
X82263309Y-80174750D01*
X82834187Y-80175248D01*
X83361800Y-79957243D01*
X83765824Y-79553923D01*
X83819862Y-79423785D01*
X83872757Y-79551800D01*
X84276077Y-79955824D01*
X84803309Y-80174750D01*
X85374187Y-80175248D01*
X85901800Y-79957243D01*
X86305824Y-79553923D01*
X86359862Y-79423785D01*
X86412757Y-79551800D01*
X86816077Y-79955824D01*
X87343309Y-80174750D01*
X87914187Y-80175248D01*
X88441800Y-79957243D01*
X88845824Y-79553923D01*
X88899862Y-79423785D01*
X88952757Y-79551800D01*
X89356077Y-79955824D01*
X89883309Y-80174750D01*
X90454187Y-80175248D01*
X90981800Y-79957243D01*
X91385824Y-79553923D01*
X91439862Y-79423785D01*
X91492757Y-79551800D01*
X91896077Y-79955824D01*
X92423309Y-80174750D01*
X92994187Y-80175248D01*
X93521800Y-79957243D01*
X93925824Y-79553923D01*
X94144750Y-79026691D01*
X94145248Y-78455813D01*
X93927243Y-77928200D01*
X93523923Y-77524176D01*
X93393785Y-77470138D01*
X93521800Y-77417243D01*
X93925824Y-77013923D01*
X94067667Y-76672325D01*
X99214587Y-76672325D01*
X99576916Y-77549229D01*
X100247242Y-78220726D01*
X101123513Y-78584585D01*
X102072325Y-78585413D01*
X102949229Y-78223084D01*
X103620726Y-77552758D01*
X103984585Y-76676487D01*
X103985413Y-75727675D01*
X103623084Y-74850771D01*
X102952758Y-74179274D01*
X102076487Y-73815415D01*
X101127675Y-73814587D01*
X100250771Y-74176916D01*
X99579274Y-74847242D01*
X99215415Y-75723513D01*
X99214587Y-76672325D01*
X94067667Y-76672325D01*
X94144750Y-76486691D01*
X94145248Y-75915813D01*
X93927243Y-75388200D01*
X93523923Y-74984176D01*
X92996691Y-74765250D01*
X92425813Y-74764752D01*
X91898200Y-74982757D01*
X91494176Y-75386077D01*
X91440138Y-75516215D01*
X91387243Y-75388200D01*
X90983923Y-74984176D01*
X90456691Y-74765250D01*
X89885813Y-74764752D01*
X89358200Y-74982757D01*
X88954176Y-75386077D01*
X88900138Y-75516215D01*
X88847243Y-75388200D01*
X88443923Y-74984176D01*
X87916691Y-74765250D01*
X87345813Y-74764752D01*
X86818200Y-74982757D01*
X86414176Y-75386077D01*
X86360138Y-75516215D01*
X86307243Y-75388200D01*
X85903923Y-74984176D01*
X85376691Y-74765250D01*
X84805813Y-74764752D01*
X84278200Y-74982757D01*
X83874176Y-75386077D01*
X83820138Y-75516215D01*
X83767243Y-75388200D01*
X83363923Y-74984176D01*
X82836691Y-74765250D01*
X82265813Y-74764752D01*
X81738200Y-74982757D01*
X81334176Y-75386077D01*
X81280138Y-75516215D01*
X81227243Y-75388200D01*
X80823923Y-74984176D01*
X80693785Y-74930138D01*
X80821800Y-74877243D01*
X81225824Y-74473923D01*
X81444750Y-73946691D01*
X81445248Y-73375813D01*
X81227243Y-72848200D01*
X80823923Y-72444176D01*
X80693785Y-72390138D01*
X80821800Y-72337243D01*
X81225824Y-71933923D01*
X81279862Y-71803785D01*
X81332757Y-71931800D01*
X81736077Y-72335824D01*
X82263309Y-72554750D01*
X82834187Y-72555248D01*
X83361800Y-72337243D01*
X83765824Y-71933923D01*
X83819862Y-71803785D01*
X83872757Y-71931800D01*
X84276077Y-72335824D01*
X84803309Y-72554750D01*
X85374187Y-72555248D01*
X85901800Y-72337243D01*
X86305824Y-71933923D01*
X86359862Y-71803785D01*
X86412757Y-71931800D01*
X86816077Y-72335824D01*
X87343309Y-72554750D01*
X87914187Y-72555248D01*
X88441800Y-72337243D01*
X88845824Y-71933923D01*
X88899862Y-71803785D01*
X88952757Y-71931800D01*
X89356077Y-72335824D01*
X89883309Y-72554750D01*
X90454187Y-72555248D01*
X90981800Y-72337243D01*
X91385824Y-71933923D01*
X91439862Y-71803785D01*
X91492757Y-71931800D01*
X91896077Y-72335824D01*
X92423309Y-72554750D01*
X92994187Y-72555248D01*
X93521800Y-72337243D01*
X93925824Y-71933923D01*
X94144750Y-71406691D01*
X94145248Y-70835813D01*
X93927243Y-70308200D01*
X93523923Y-69904176D01*
X92996691Y-69685250D01*
X92425813Y-69684752D01*
X91898200Y-69902757D01*
X91494176Y-70306077D01*
X91440138Y-70436215D01*
X91387243Y-70308200D01*
X90983923Y-69904176D01*
X90456691Y-69685250D01*
X89885813Y-69684752D01*
X89358200Y-69902757D01*
X88954176Y-70306077D01*
X88900138Y-70436215D01*
X88847243Y-70308200D01*
X88443923Y-69904176D01*
X87916691Y-69685250D01*
X87345813Y-69684752D01*
X86818200Y-69902757D01*
X86414176Y-70306077D01*
X86360138Y-70436215D01*
X86307243Y-70308200D01*
X85903923Y-69904176D01*
X85376691Y-69685250D01*
X84805813Y-69684752D01*
X84278200Y-69902757D01*
X83874176Y-70306077D01*
X83820138Y-70436215D01*
X83767243Y-70308200D01*
X83363923Y-69904176D01*
X82836691Y-69685250D01*
X82265813Y-69684752D01*
X81738200Y-69902757D01*
X81334176Y-70306077D01*
X81280138Y-70436215D01*
X81227243Y-70308200D01*
X80823923Y-69904176D01*
X80296691Y-69685250D01*
X79725813Y-69684752D01*
X79198200Y-69902757D01*
X78794176Y-70306077D01*
X78740138Y-70436215D01*
X78687243Y-70308200D01*
X78283923Y-69904176D01*
X77756691Y-69685250D01*
X77185813Y-69684752D01*
X76658200Y-69902757D01*
X76254176Y-70306077D01*
X76200138Y-70436215D01*
X76147243Y-70308200D01*
X75743923Y-69904176D01*
X75216691Y-69685250D01*
X74645813Y-69684752D01*
X74118200Y-69902757D01*
X73714176Y-70306077D01*
X73660138Y-70436215D01*
X73607243Y-70308200D01*
X73203923Y-69904176D01*
X72676691Y-69685250D01*
X72105813Y-69684752D01*
X71578200Y-69902757D01*
X71174176Y-70306077D01*
X71120138Y-70436215D01*
X71067243Y-70308200D01*
X70663923Y-69904176D01*
X70136691Y-69685250D01*
X69565813Y-69684752D01*
X69038200Y-69902757D01*
X68634176Y-70306077D01*
X68580138Y-70436215D01*
X68527243Y-70308200D01*
X68123923Y-69904176D01*
X67596691Y-69685250D01*
X67025813Y-69684752D01*
X66498200Y-69902757D01*
X66094176Y-70306077D01*
X66040138Y-70436215D01*
X65987243Y-70308200D01*
X65583923Y-69904176D01*
X65056691Y-69685250D01*
X64485813Y-69684752D01*
X63958200Y-69902757D01*
X63554176Y-70306077D01*
X63500138Y-70436215D01*
X63447243Y-70308200D01*
X63043923Y-69904176D01*
X62516691Y-69685250D01*
X61945813Y-69684752D01*
X61418200Y-69902757D01*
X61014176Y-70306077D01*
X60960138Y-70436215D01*
X60907243Y-70308200D01*
X60503923Y-69904176D01*
X59976691Y-69685250D01*
X59405813Y-69684752D01*
X58878200Y-69902757D01*
X58474176Y-70306077D01*
X58420138Y-70436215D01*
X58367243Y-70308200D01*
X57963923Y-69904176D01*
X57436691Y-69685250D01*
X56865813Y-69684752D01*
X56338200Y-69902757D01*
X55934176Y-70306077D01*
X55880138Y-70436215D01*
X55827243Y-70308200D01*
X55423923Y-69904176D01*
X54896691Y-69685250D01*
X54325813Y-69684752D01*
X53798200Y-69902757D01*
X53394176Y-70306077D01*
X53340138Y-70436215D01*
X53287243Y-70308200D01*
X52883923Y-69904176D01*
X52356691Y-69685250D01*
X51785813Y-69684752D01*
X51258200Y-69902757D01*
X50854176Y-70306077D01*
X50800138Y-70436215D01*
X50747243Y-70308200D01*
X50343923Y-69904176D01*
X49816691Y-69685250D01*
X49245813Y-69684752D01*
X48718200Y-69902757D01*
X48314176Y-70306077D01*
X48260138Y-70436215D01*
X48207243Y-70308200D01*
X47803923Y-69904176D01*
X47276691Y-69685250D01*
X46705813Y-69684752D01*
X46178200Y-69902757D01*
X45774176Y-70306077D01*
X45720138Y-70436215D01*
X45667243Y-70308200D01*
X45263923Y-69904176D01*
X44736691Y-69685250D01*
X44165813Y-69684752D01*
X43638200Y-69902757D01*
X43234176Y-70306077D01*
X43180138Y-70436215D01*
X43127243Y-70308200D01*
X42723923Y-69904176D01*
X42196691Y-69685250D01*
X41625813Y-69684752D01*
X41098200Y-69902757D01*
X40694176Y-70306077D01*
X40640138Y-70436215D01*
X40587243Y-70308200D01*
X40183923Y-69904176D01*
X39656691Y-69685250D01*
X39085813Y-69684752D01*
X38558200Y-69902757D01*
X38154176Y-70306077D01*
X38100138Y-70436215D01*
X38047243Y-70308200D01*
X37643923Y-69904176D01*
X37116691Y-69685250D01*
X36545813Y-69684752D01*
X36018200Y-69902757D01*
X35614176Y-70306077D01*
X35560138Y-70436215D01*
X35507243Y-70308200D01*
X35103923Y-69904176D01*
X34576691Y-69685250D01*
X34005813Y-69684752D01*
X33478200Y-69902757D01*
X33074176Y-70306077D01*
X32855250Y-70833309D01*
X32854752Y-71404187D01*
X20469965Y-71404187D01*
X20523727Y-71323727D01*
X22760979Y-69828844D01*
X25469931Y-69290000D01*
X101530069Y-69290000D01*
X104239021Y-69828844D01*
X104239021Y-69828844D01*
G37*
X104239021Y-69828844D02*
X106476273Y-71323727D01*
X107971156Y-73560979D01*
X108510000Y-76269931D01*
X108510000Y-152330069D01*
X107971156Y-155039021D01*
X106476273Y-157276273D01*
X104239021Y-158771156D01*
X101530069Y-159310000D01*
X25469931Y-159310000D01*
X22760979Y-158771156D01*
X20523727Y-157276273D01*
X19028844Y-155039021D01*
X18997309Y-154880481D01*
X32845021Y-154880481D01*
X32960532Y-155276840D01*
X33851711Y-155527421D01*
X34770946Y-155417888D01*
X35111468Y-155276840D01*
X35226979Y-154880481D01*
X91773021Y-154880481D01*
X91888532Y-155276840D01*
X92779711Y-155527421D01*
X93698946Y-155417888D01*
X94039468Y-155276840D01*
X94154979Y-154880481D01*
X92964000Y-153689502D01*
X91773021Y-154880481D01*
X35226979Y-154880481D01*
X34036000Y-153689502D01*
X32845021Y-154880481D01*
X18997309Y-154880481D01*
X18597862Y-152872325D01*
X23014587Y-152872325D01*
X23376916Y-153749229D01*
X24047242Y-154420726D01*
X24923513Y-154784585D01*
X25872325Y-154785413D01*
X26749229Y-154423084D01*
X27420726Y-153752758D01*
X27742553Y-152977711D01*
X31670579Y-152977711D01*
X31780112Y-153896946D01*
X31921160Y-154237468D01*
X32317519Y-154352979D01*
X33508498Y-153162000D01*
X34563502Y-153162000D01*
X35754481Y-154352979D01*
X36150840Y-154237468D01*
X36401421Y-153346289D01*
X36357503Y-152977711D01*
X90598579Y-152977711D01*
X90708112Y-153896946D01*
X90849160Y-154237468D01*
X91245519Y-154352979D01*
X92436498Y-153162000D01*
X93491502Y-153162000D01*
X94682481Y-154352979D01*
X95078840Y-154237468D01*
X95329421Y-153346289D01*
X95272946Y-152872325D01*
X99214587Y-152872325D01*
X99576916Y-153749229D01*
X100247242Y-154420726D01*
X101123513Y-154784585D01*
X102072325Y-154785413D01*
X102949229Y-154423084D01*
X103620726Y-153752758D01*
X103984585Y-152876487D01*
X103985413Y-151927675D01*
X103623084Y-151050771D01*
X102952758Y-150379274D01*
X102076487Y-150015415D01*
X101127675Y-150014587D01*
X100250771Y-150376916D01*
X99579274Y-151047242D01*
X99215415Y-151923513D01*
X99214587Y-152872325D01*
X95272946Y-152872325D01*
X95219888Y-152427054D01*
X95078840Y-152086532D01*
X94682481Y-151971021D01*
X93491502Y-153162000D01*
X92436498Y-153162000D01*
X91245519Y-151971021D01*
X90849160Y-152086532D01*
X90598579Y-152977711D01*
X36357503Y-152977711D01*
X36291888Y-152427054D01*
X36150840Y-152086532D01*
X35754481Y-151971021D01*
X34563502Y-153162000D01*
X33508498Y-153162000D01*
X32317519Y-151971021D01*
X31921160Y-152086532D01*
X31670579Y-152977711D01*
X27742553Y-152977711D01*
X27784585Y-152876487D01*
X27785413Y-151927675D01*
X27585365Y-151443519D01*
X32845021Y-151443519D01*
X34036000Y-152634498D01*
X35226979Y-151443519D01*
X91773021Y-151443519D01*
X92964000Y-152634498D01*
X94154979Y-151443519D01*
X94039468Y-151047160D01*
X93148289Y-150796579D01*
X92229054Y-150906112D01*
X91888532Y-151047160D01*
X91773021Y-151443519D01*
X35226979Y-151443519D01*
X35111468Y-151047160D01*
X34220289Y-150796579D01*
X33301054Y-150906112D01*
X32960532Y-151047160D01*
X32845021Y-151443519D01*
X27585365Y-151443519D01*
X27423084Y-151050771D01*
X26752758Y-150379274D01*
X25876487Y-150015415D01*
X24927675Y-150014587D01*
X24050771Y-150376916D01*
X23379274Y-151047242D01*
X23015415Y-151923513D01*
X23014587Y-152872325D01*
X18597862Y-152872325D01*
X18490000Y-152330069D01*
X18490000Y-149077177D01*
X34369574Y-149077177D01*
X34743298Y-149981657D01*
X35434703Y-150674270D01*
X36338529Y-151049572D01*
X37317177Y-151050426D01*
X38221657Y-150676702D01*
X38914270Y-149985297D01*
X39289572Y-149081471D01*
X39289575Y-149077177D01*
X87709574Y-149077177D01*
X88083298Y-149981657D01*
X88774703Y-150674270D01*
X89678529Y-151049572D01*
X90657177Y-151050426D01*
X91561657Y-150676702D01*
X92254270Y-149985297D01*
X92629572Y-149081471D01*
X92630426Y-148102823D01*
X92256702Y-147198343D01*
X91565297Y-146505730D01*
X90661471Y-146130428D01*
X89682823Y-146129574D01*
X88778343Y-146503298D01*
X88085730Y-147194703D01*
X87710428Y-148098529D01*
X87709574Y-149077177D01*
X39289575Y-149077177D01*
X39290426Y-148102823D01*
X38916702Y-147198343D01*
X38225297Y-146505730D01*
X37321471Y-146130428D01*
X36342823Y-146129574D01*
X35438343Y-146503298D01*
X34745730Y-147194703D01*
X34370428Y-148098529D01*
X34369574Y-149077177D01*
X18490000Y-149077177D01*
X18490000Y-144441081D01*
X91112621Y-144441081D01*
X91228132Y-144837440D01*
X92119311Y-145088021D01*
X93038546Y-144978488D01*
X93379068Y-144837440D01*
X93494579Y-144441081D01*
X92303600Y-143250102D01*
X91112621Y-144441081D01*
X18490000Y-144441081D01*
X18490000Y-141164481D01*
X33505421Y-141164481D01*
X33620932Y-141560840D01*
X34512111Y-141811421D01*
X35431346Y-141701888D01*
X35771868Y-141560840D01*
X35887379Y-141164481D01*
X34696400Y-139973502D01*
X33505421Y-141164481D01*
X18490000Y-141164481D01*
X18490000Y-139261711D01*
X32330979Y-139261711D01*
X32440512Y-140180946D01*
X32581560Y-140521468D01*
X32977919Y-140636979D01*
X34168898Y-139446000D01*
X35223902Y-139446000D01*
X36414881Y-140636979D01*
X36811240Y-140521468D01*
X37061821Y-139630289D01*
X36952288Y-138711054D01*
X36811240Y-138370532D01*
X36414881Y-138255021D01*
X35223902Y-139446000D01*
X34168898Y-139446000D01*
X32977919Y-138255021D01*
X32581560Y-138370532D01*
X32330979Y-139261711D01*
X18490000Y-139261711D01*
X18490000Y-137727519D01*
X33505421Y-137727519D01*
X34696400Y-138918498D01*
X35887379Y-137727519D01*
X35771868Y-137331160D01*
X34880689Y-137080579D01*
X33961454Y-137190112D01*
X33620932Y-137331160D01*
X33505421Y-137727519D01*
X18490000Y-137727519D01*
X18490000Y-135585901D01*
X36187716Y-135585901D01*
X36304387Y-136323447D01*
X36362173Y-136462951D01*
X36712779Y-136521120D01*
X37572498Y-135661400D01*
X36712779Y-134801680D01*
X36362173Y-134859849D01*
X36187716Y-135585901D01*
X18490000Y-135585901D01*
X18490000Y-134839881D01*
X32845021Y-134839881D01*
X32960532Y-135236240D01*
X33851711Y-135486821D01*
X34770946Y-135377288D01*
X35111468Y-135236240D01*
X35226979Y-134839881D01*
X34036000Y-133648902D01*
X32845021Y-134839881D01*
X18490000Y-134839881D01*
X18490000Y-132937111D01*
X31670579Y-132937111D01*
X31780112Y-133856346D01*
X31921160Y-134196868D01*
X32317519Y-134312379D01*
X33508498Y-133121400D01*
X34563502Y-133121400D01*
X35754481Y-134312379D01*
X36150840Y-134196868D01*
X36401421Y-133305689D01*
X36291888Y-132386454D01*
X36150840Y-132045932D01*
X35754481Y-131930421D01*
X34563502Y-133121400D01*
X33508498Y-133121400D01*
X32317519Y-131930421D01*
X31921160Y-132045932D01*
X31670579Y-132937111D01*
X18490000Y-132937111D01*
X18490000Y-131402919D01*
X32845021Y-131402919D01*
X34036000Y-132593898D01*
X35226979Y-131402919D01*
X35111468Y-131006560D01*
X34220289Y-130755979D01*
X33301054Y-130865512D01*
X32960532Y-131006560D01*
X32845021Y-131402919D01*
X18490000Y-131402919D01*
X18490000Y-112044187D01*
X37934752Y-112044187D01*
X38152757Y-112571800D01*
X38556077Y-112975824D01*
X39083309Y-113194750D01*
X39654187Y-113195248D01*
X40181800Y-112977243D01*
X40585824Y-112573923D01*
X40804750Y-112046691D01*
X40805248Y-111475813D01*
X40587243Y-110948200D01*
X40183923Y-110544176D01*
X39656691Y-110325250D01*
X39085813Y-110324752D01*
X38558200Y-110542757D01*
X38154176Y-110946077D01*
X37935250Y-111473309D01*
X37934752Y-112044187D01*
X18490000Y-112044187D01*
X18490000Y-108234187D01*
X21424752Y-108234187D01*
X21642757Y-108761800D01*
X22046077Y-109165824D01*
X22573309Y-109384750D01*
X23144187Y-109385248D01*
X23671800Y-109167243D01*
X24075824Y-108763923D01*
X24294750Y-108236691D01*
X24295248Y-107665813D01*
X24077243Y-107138200D01*
X23673923Y-106734176D01*
X23146691Y-106515250D01*
X22575813Y-106514752D01*
X22048200Y-106732757D01*
X21644176Y-107136077D01*
X21425250Y-107663309D01*
X21424752Y-108234187D01*
X18490000Y-108234187D01*
X18490000Y-103154187D01*
X21424752Y-103154187D01*
X21642757Y-103681800D01*
X22046077Y-104085824D01*
X22573309Y-104304750D01*
X23144187Y-104305248D01*
X23671800Y-104087243D01*
X24075824Y-103683923D01*
X24294750Y-103156691D01*
X24295248Y-102585813D01*
X24077243Y-102058200D01*
X23673923Y-101654176D01*
X23146691Y-101435250D01*
X22575813Y-101434752D01*
X22048200Y-101652757D01*
X21644176Y-102056077D01*
X21425250Y-102583309D01*
X21424752Y-103154187D01*
X18490000Y-103154187D01*
X18490000Y-98074187D01*
X21424752Y-98074187D01*
X21642757Y-98601800D01*
X22046077Y-99005824D01*
X22573309Y-99224750D01*
X23144187Y-99225248D01*
X23671800Y-99007243D01*
X24075824Y-98603923D01*
X24294750Y-98076691D01*
X24295248Y-97505813D01*
X24077243Y-96978200D01*
X23673923Y-96574176D01*
X23146691Y-96355250D01*
X22575813Y-96354752D01*
X22048200Y-96572757D01*
X21644176Y-96976077D01*
X21425250Y-97503309D01*
X21424752Y-98074187D01*
X18490000Y-98074187D01*
X18490000Y-91716661D01*
X21462758Y-91716661D01*
X21674990Y-92230303D01*
X22067630Y-92623629D01*
X22275512Y-92709949D01*
X22069697Y-92794990D01*
X21676371Y-93187630D01*
X21463243Y-93700900D01*
X21462758Y-94256661D01*
X21674990Y-94770303D01*
X22067630Y-95163629D01*
X22580900Y-95376757D01*
X23136661Y-95377242D01*
X23650303Y-95165010D01*
X24043629Y-94772370D01*
X24129949Y-94564488D01*
X24214990Y-94770303D01*
X24607630Y-95163629D01*
X25120900Y-95376757D01*
X25676661Y-95377242D01*
X25914400Y-95279011D01*
X25914400Y-103019100D01*
X25977961Y-103338641D01*
X26033326Y-103421500D01*
X26158966Y-103609534D01*
X29465690Y-106916258D01*
X29437189Y-106935302D01*
X29126120Y-107400849D01*
X29016887Y-107950000D01*
X29126120Y-108499151D01*
X29437189Y-108964698D01*
X29902736Y-109275767D01*
X30451887Y-109385000D01*
X30508113Y-109385000D01*
X31057264Y-109275767D01*
X31522811Y-108964698D01*
X31833880Y-108499151D01*
X31943113Y-107950000D01*
X31833880Y-107400849D01*
X31522811Y-106935302D01*
X31315000Y-106796447D01*
X31315000Y-106749700D01*
X31251439Y-106430159D01*
X31070434Y-106159266D01*
X27584400Y-102673232D01*
X27584400Y-99954968D01*
X29465690Y-101836258D01*
X29437189Y-101855302D01*
X29126120Y-102320849D01*
X29016887Y-102870000D01*
X29126120Y-103419151D01*
X29437189Y-103884698D01*
X29902736Y-104195767D01*
X30451887Y-104305000D01*
X30508113Y-104305000D01*
X31057264Y-104195767D01*
X31522811Y-103884698D01*
X31833880Y-103419151D01*
X31943113Y-102870000D01*
X31833880Y-102320849D01*
X31522811Y-101855302D01*
X31315000Y-101716447D01*
X31315000Y-101669700D01*
X31251439Y-101350159D01*
X31070434Y-101079266D01*
X29424301Y-99433133D01*
X29695841Y-99598952D01*
X29987000Y-99398828D01*
X29987000Y-98163000D01*
X30733000Y-98163000D01*
X30733000Y-99398828D01*
X31024159Y-99598952D01*
X31665859Y-99207091D01*
X32108754Y-98599491D01*
X32168929Y-98454156D01*
X31962410Y-98163000D01*
X30733000Y-98163000D01*
X29987000Y-98163000D01*
X29967000Y-98163000D01*
X29967000Y-97417000D01*
X29987000Y-97417000D01*
X29987000Y-97397000D01*
X30733000Y-97397000D01*
X30733000Y-97417000D01*
X31962410Y-97417000D01*
X32168929Y-97125844D01*
X32108754Y-96980509D01*
X31665859Y-96372909D01*
X31024159Y-95981048D01*
X30733002Y-96181171D01*
X30733002Y-95863000D01*
X30665530Y-95863000D01*
X31143997Y-95787931D01*
X31288883Y-95727918D01*
X31348604Y-95376106D01*
X30480000Y-94507502D01*
X29611396Y-95376106D01*
X29671117Y-95727918D01*
X30230197Y-95863000D01*
X29986998Y-95863000D01*
X29986998Y-96181171D01*
X29695841Y-95981048D01*
X29054141Y-96372909D01*
X28775000Y-96755858D01*
X28775000Y-95120391D01*
X29052586Y-94843289D01*
X29083894Y-94848604D01*
X29952498Y-93980000D01*
X31007502Y-93980000D01*
X31876106Y-94848604D01*
X32227918Y-94788883D01*
X32404411Y-94058411D01*
X32287931Y-93316003D01*
X32227918Y-93171117D01*
X31876106Y-93111396D01*
X31007502Y-93980000D01*
X29952498Y-93980000D01*
X29083894Y-93111396D01*
X29052214Y-93116774D01*
X28732370Y-92796371D01*
X28524488Y-92710051D01*
X28730303Y-92625010D01*
X29123629Y-92232370D01*
X29209949Y-92024488D01*
X29294990Y-92230303D01*
X29616711Y-92552586D01*
X29611396Y-92583894D01*
X30480000Y-93452498D01*
X31348604Y-92583894D01*
X31343226Y-92552214D01*
X31663629Y-92232370D01*
X31874644Y-91724187D01*
X37934752Y-91724187D01*
X38152757Y-92251800D01*
X38556077Y-92655824D01*
X39083309Y-92874750D01*
X39654187Y-92875248D01*
X40181800Y-92657243D01*
X40585824Y-92253923D01*
X40804750Y-91726691D01*
X40805248Y-91155813D01*
X40587243Y-90628200D01*
X40183923Y-90224176D01*
X39656691Y-90005250D01*
X39085813Y-90004752D01*
X38558200Y-90222757D01*
X38154176Y-90626077D01*
X37935250Y-91153309D01*
X37934752Y-91724187D01*
X31874644Y-91724187D01*
X31876757Y-91719100D01*
X31877189Y-91223679D01*
X33211934Y-89888934D01*
X33336532Y-89702460D01*
X33392939Y-89618041D01*
X33456500Y-89298500D01*
X33456500Y-88826629D01*
X33456645Y-88660537D01*
X33329792Y-88353528D01*
X33261655Y-88285272D01*
X33265826Y-88287000D01*
X33635250Y-88287000D01*
X33917000Y-88005250D01*
X33917000Y-86733000D01*
X32644750Y-86733000D01*
X32363000Y-87014750D01*
X32363000Y-87384174D01*
X32534576Y-87798394D01*
X32727173Y-87990992D01*
X32456137Y-87990755D01*
X32149128Y-88117608D01*
X31914034Y-88352293D01*
X31786645Y-88659079D01*
X31786389Y-88952743D01*
X31159422Y-89579710D01*
X31146992Y-89549628D01*
X30912307Y-89314534D01*
X30605521Y-89187145D01*
X30273337Y-89186855D01*
X30272986Y-89187000D01*
X27705400Y-89187000D01*
X27385860Y-89250560D01*
X27114966Y-89431566D01*
X26241223Y-90305309D01*
X26192370Y-90256371D01*
X25679100Y-90043243D01*
X25123339Y-90042758D01*
X24609697Y-90254990D01*
X24216371Y-90647630D01*
X24130051Y-90855512D01*
X24045010Y-90649697D01*
X23652370Y-90256371D01*
X23139100Y-90043243D01*
X22583339Y-90042758D01*
X22069697Y-90254990D01*
X21676371Y-90647630D01*
X21463243Y-91160900D01*
X21462758Y-91716661D01*
X18490000Y-91716661D01*
X18490000Y-85335826D01*
X32363000Y-85335826D01*
X32363000Y-85705250D01*
X32644750Y-85987000D01*
X33917000Y-85987000D01*
X33917000Y-84714750D01*
X33635250Y-84433000D01*
X33265826Y-84433000D01*
X32851606Y-84604575D01*
X32534576Y-84921606D01*
X32363000Y-85335826D01*
X18490000Y-85335826D01*
X18490000Y-76672325D01*
X23014587Y-76672325D01*
X23376916Y-77549229D01*
X24047242Y-78220726D01*
X24923513Y-78584585D01*
X25872325Y-78585413D01*
X26749229Y-78223084D01*
X27420726Y-77552758D01*
X27784585Y-76676487D01*
X27785413Y-75727675D01*
X27423084Y-74850771D01*
X26752758Y-74179274D01*
X25876487Y-73815415D01*
X24927675Y-73814587D01*
X24050771Y-74176916D01*
X23379274Y-74847242D01*
X23015415Y-75723513D01*
X23014587Y-76672325D01*
X18490000Y-76672325D01*
X18490000Y-76269931D01*
X19028844Y-73560979D01*
X20469965Y-71404187D01*
X32854752Y-71404187D01*
X33072757Y-71931800D01*
X33476077Y-72335824D01*
X34003309Y-72554750D01*
X34574187Y-72555248D01*
X35101800Y-72337243D01*
X35505824Y-71933923D01*
X35559862Y-71803785D01*
X35612757Y-71931800D01*
X36016077Y-72335824D01*
X36146215Y-72389862D01*
X36018200Y-72442757D01*
X35614176Y-72846077D01*
X35395250Y-73373309D01*
X35394752Y-73944187D01*
X35612757Y-74471800D01*
X36016077Y-74875824D01*
X36543309Y-75094750D01*
X37114187Y-75095248D01*
X37641800Y-74877243D01*
X38045824Y-74473923D01*
X38264750Y-73946691D01*
X38265248Y-73375813D01*
X38047243Y-72848200D01*
X37643923Y-72444176D01*
X37513785Y-72390138D01*
X37641800Y-72337243D01*
X38045824Y-71933923D01*
X38099862Y-71803785D01*
X38152757Y-71931800D01*
X38556077Y-72335824D01*
X39083309Y-72554750D01*
X39654187Y-72555248D01*
X40181800Y-72337243D01*
X40585824Y-71933923D01*
X40639862Y-71803785D01*
X40692757Y-71931800D01*
X41096077Y-72335824D01*
X41226215Y-72389862D01*
X41098200Y-72442757D01*
X40694176Y-72846077D01*
X40475250Y-73373309D01*
X40474752Y-73944187D01*
X40692757Y-74471800D01*
X41096077Y-74875824D01*
X41623309Y-75094750D01*
X42194187Y-75095248D01*
X42721800Y-74877243D01*
X43125824Y-74473923D01*
X43179862Y-74343785D01*
X43232757Y-74471800D01*
X43636077Y-74875824D01*
X44163309Y-75094750D01*
X44734187Y-75095248D01*
X45261800Y-74877243D01*
X45665824Y-74473923D01*
X45719862Y-74343785D01*
X45772757Y-74471800D01*
X46176077Y-74875824D01*
X46703309Y-75094750D01*
X47274187Y-75095248D01*
X47801800Y-74877243D01*
X48205824Y-74473923D01*
X48424750Y-73946691D01*
X48424934Y-73735802D01*
X49454066Y-74764934D01*
X49245813Y-74764752D01*
X48718200Y-74982757D01*
X48314176Y-75386077D01*
X48095250Y-75913309D01*
X48094752Y-76484187D01*
X48312757Y-77011800D01*
X48716077Y-77415824D01*
X48846215Y-77469862D01*
X48718200Y-77522757D01*
X48314176Y-77926077D01*
X48095250Y-78453309D01*
X48094752Y-79024187D01*
X48312757Y-79551800D01*
X48716077Y-79955824D01*
X49243309Y-80174750D01*
X49814187Y-80175248D01*
X49931300Y-80126858D01*
X49931300Y-84972840D01*
X49816691Y-84925250D01*
X49245813Y-84924752D01*
X48718200Y-85142757D01*
X48314176Y-85546077D01*
X48260138Y-85676215D01*
X48207243Y-85548200D01*
X47803923Y-85144176D01*
X47276691Y-84925250D01*
X46705813Y-84924752D01*
X46178200Y-85142757D01*
X45774176Y-85546077D01*
X45720138Y-85676215D01*
X45667243Y-85548200D01*
X45263923Y-85144176D01*
X44736691Y-84925250D01*
X44165813Y-84924752D01*
X43638200Y-85142757D01*
X43234176Y-85546077D01*
X43180138Y-85676215D01*
X43127243Y-85548200D01*
X42723923Y-85144176D01*
X42196691Y-84925250D01*
X41625813Y-84924752D01*
X41098200Y-85142757D01*
X40694176Y-85546077D01*
X40640138Y-85676215D01*
X40587243Y-85548200D01*
X40183923Y-85144176D01*
X39656691Y-84925250D01*
X39085813Y-84924752D01*
X38558200Y-85142757D01*
X38154176Y-85546077D01*
X38100138Y-85676215D01*
X38047243Y-85548200D01*
X37643923Y-85144176D01*
X37116691Y-84925250D01*
X36545813Y-84924752D01*
X36119663Y-85100834D01*
X36045424Y-84921606D01*
X35728394Y-84604575D01*
X35314174Y-84433000D01*
X34944750Y-84433000D01*
X34663000Y-84714750D01*
X34663000Y-85987000D01*
X34683000Y-85987000D01*
X34683000Y-86733000D01*
X34663000Y-86733000D01*
X34663000Y-88005250D01*
X34944750Y-88287000D01*
X35314174Y-88287000D01*
X35728394Y-88115425D01*
X36045424Y-87798394D01*
X36119779Y-87618885D01*
X36543309Y-87794750D01*
X37114187Y-87795248D01*
X37641800Y-87577243D01*
X38045824Y-87173923D01*
X38099862Y-87043785D01*
X38152757Y-87171800D01*
X38556077Y-87575824D01*
X39083309Y-87794750D01*
X39654187Y-87795248D01*
X40181800Y-87577243D01*
X40585824Y-87173923D01*
X40639862Y-87043785D01*
X40692757Y-87171800D01*
X41075000Y-87554710D01*
X41075000Y-88216300D01*
X41138561Y-88535841D01*
X41253638Y-88708066D01*
X41319566Y-88806734D01*
X46084246Y-93571414D01*
X45572909Y-93944141D01*
X45427467Y-94182312D01*
X44999151Y-93896120D01*
X44450000Y-93786887D01*
X43900849Y-93896120D01*
X43435302Y-94207189D01*
X43180000Y-94589275D01*
X42924698Y-94207189D01*
X42459151Y-93896120D01*
X41910000Y-93786887D01*
X41360849Y-93896120D01*
X40895302Y-94207189D01*
X40640000Y-94589275D01*
X40384698Y-94207189D01*
X39919151Y-93896120D01*
X39370000Y-93786887D01*
X38820849Y-93896120D01*
X38355302Y-94207189D01*
X38044233Y-94672736D01*
X37935000Y-95221887D01*
X37935000Y-95278113D01*
X38044233Y-95827264D01*
X38355302Y-96292811D01*
X38820849Y-96603880D01*
X39370000Y-96713113D01*
X39919151Y-96603880D01*
X40384698Y-96292811D01*
X40640000Y-95910725D01*
X40891825Y-96287607D01*
X39979966Y-97199466D01*
X39798961Y-97470359D01*
X39735400Y-97789900D01*
X39735400Y-101422560D01*
X38570000Y-101422560D01*
X38334683Y-101466838D01*
X38118559Y-101605910D01*
X37973569Y-101818110D01*
X37922560Y-102070000D01*
X37922560Y-103670000D01*
X37966838Y-103905317D01*
X38105910Y-104121441D01*
X38318110Y-104266431D01*
X38570000Y-104317440D01*
X39735400Y-104317440D01*
X39735400Y-105133732D01*
X39623911Y-105245221D01*
X39085813Y-105244752D01*
X38558200Y-105462757D01*
X38154176Y-105866077D01*
X37935250Y-106393309D01*
X37934752Y-106964187D01*
X38152757Y-107491800D01*
X38556077Y-107895824D01*
X39083309Y-108114750D01*
X39654187Y-108115248D01*
X40181800Y-107897243D01*
X40585824Y-107493923D01*
X40804750Y-106966691D01*
X40805222Y-106425646D01*
X41160834Y-106070034D01*
X41264625Y-105914700D01*
X41341839Y-105799141D01*
X41405400Y-105479600D01*
X41405400Y-104232742D01*
X41910000Y-104333113D01*
X42459151Y-104223880D01*
X42924698Y-103912811D01*
X43180000Y-103530725D01*
X43435302Y-103912811D01*
X43900849Y-104223880D01*
X44450000Y-104333113D01*
X44815400Y-104260430D01*
X44815400Y-114179570D01*
X44450000Y-114106887D01*
X43900849Y-114216120D01*
X43435302Y-114527189D01*
X43180000Y-114909275D01*
X42924698Y-114527189D01*
X42459151Y-114216120D01*
X41910000Y-114106887D01*
X41360849Y-114216120D01*
X40895302Y-114527189D01*
X40640000Y-114909275D01*
X40384698Y-114527189D01*
X39919151Y-114216120D01*
X39370000Y-114106887D01*
X38820849Y-114216120D01*
X38355302Y-114527189D01*
X38044233Y-114992736D01*
X37935000Y-115541887D01*
X37935000Y-115598113D01*
X38044233Y-116147264D01*
X38355302Y-116612811D01*
X38820849Y-116923880D01*
X39370000Y-117033113D01*
X39919151Y-116923880D01*
X40384698Y-116612811D01*
X40640000Y-116230725D01*
X40891825Y-116607607D01*
X40119266Y-117380166D01*
X39938261Y-117651059D01*
X39874700Y-117970600D01*
X39874700Y-121742560D01*
X38570000Y-121742560D01*
X38334683Y-121786838D01*
X38118559Y-121925910D01*
X37973569Y-122138110D01*
X37922560Y-122390000D01*
X37922560Y-123990000D01*
X37966838Y-124225317D01*
X38105910Y-124441441D01*
X38318110Y-124586431D01*
X38570000Y-124637440D01*
X39874700Y-124637440D01*
X39874700Y-125314432D01*
X39623911Y-125565221D01*
X39085813Y-125564752D01*
X38558200Y-125782757D01*
X38154176Y-126186077D01*
X37935250Y-126713309D01*
X37934752Y-127284187D01*
X38152757Y-127811800D01*
X38556077Y-128215824D01*
X39083309Y-128434750D01*
X39624354Y-128435222D01*
X39725600Y-128536468D01*
X39725600Y-131276419D01*
X39445499Y-131209116D01*
X38707953Y-131325787D01*
X38568449Y-131383573D01*
X38510280Y-131734179D01*
X39370000Y-132593898D01*
X39384142Y-132579756D01*
X39725600Y-132921214D01*
X39725600Y-133321586D01*
X39384142Y-133663044D01*
X39370000Y-133648902D01*
X39355858Y-133663044D01*
X38828356Y-133135542D01*
X38842498Y-133121400D01*
X37982779Y-132261680D01*
X37632173Y-132319849D01*
X37457716Y-133045901D01*
X37574387Y-133783447D01*
X37598007Y-133840468D01*
X37437953Y-133865787D01*
X37298449Y-133923573D01*
X37240280Y-134274179D01*
X38100000Y-135133898D01*
X38114142Y-135119756D01*
X38535000Y-135540614D01*
X38535000Y-135782186D01*
X38114142Y-136203044D01*
X38100000Y-136188902D01*
X37240280Y-137048621D01*
X37298449Y-137399227D01*
X38024501Y-137573684D01*
X38535000Y-137492929D01*
X38535000Y-138576564D01*
X38196539Y-138914436D01*
X37985241Y-139423298D01*
X37984760Y-139974285D01*
X38195169Y-140483515D01*
X38553589Y-140842560D01*
X37350000Y-140842560D01*
X37114683Y-140886838D01*
X36898559Y-141025910D01*
X36753569Y-141238110D01*
X36702560Y-141490000D01*
X36702560Y-142990000D01*
X36746838Y-143225317D01*
X36885910Y-143441441D01*
X37098110Y-143586431D01*
X37350000Y-143637440D01*
X38850000Y-143637440D01*
X38904309Y-143627221D01*
X44860280Y-143627221D01*
X44918449Y-143977827D01*
X45644501Y-144152284D01*
X46382047Y-144035613D01*
X46521551Y-143977827D01*
X46579720Y-143627221D01*
X45720000Y-142767502D01*
X44860280Y-143627221D01*
X38904309Y-143627221D01*
X39085317Y-143593162D01*
X39301441Y-143454090D01*
X39446431Y-143241890D01*
X39486355Y-143044738D01*
X39854436Y-143413461D01*
X40363298Y-143624759D01*
X40914285Y-143625240D01*
X41423515Y-143414831D01*
X41813461Y-143025564D01*
X41909976Y-142793130D01*
X42005169Y-143023515D01*
X42394436Y-143413461D01*
X42903298Y-143624759D01*
X43454285Y-143625240D01*
X43963515Y-143414831D01*
X44286815Y-143092094D01*
X44332779Y-143099720D01*
X45192498Y-142240000D01*
X45178356Y-142225858D01*
X45705858Y-141698356D01*
X45720000Y-141712498D01*
X45734142Y-141698356D01*
X46261644Y-142225858D01*
X46247502Y-142240000D01*
X47107221Y-143099720D01*
X47457827Y-143041551D01*
X47632284Y-142315499D01*
X47515613Y-141577953D01*
X47491993Y-141520932D01*
X47652047Y-141495613D01*
X47791551Y-141437827D01*
X47849720Y-141087221D01*
X46990000Y-140227502D01*
X46975858Y-140241644D01*
X46448356Y-139714142D01*
X46462498Y-139700000D01*
X47517502Y-139700000D01*
X48377221Y-140559720D01*
X48727827Y-140501551D01*
X48902284Y-139775499D01*
X48785613Y-139037953D01*
X48727827Y-138898449D01*
X48377221Y-138840280D01*
X47517502Y-139700000D01*
X46462498Y-139700000D01*
X45602779Y-138840280D01*
X45556434Y-138847969D01*
X45235564Y-138526539D01*
X44726702Y-138315241D01*
X44175715Y-138314760D01*
X43666485Y-138525169D01*
X43276539Y-138914436D01*
X43180024Y-139146870D01*
X43084831Y-138916485D01*
X42695564Y-138526539D01*
X42186702Y-138315241D01*
X42055342Y-138315126D01*
X42057689Y-138312779D01*
X46130280Y-138312779D01*
X46990000Y-139172498D01*
X47849720Y-138312779D01*
X47791551Y-137962173D01*
X47065499Y-137787716D01*
X46327953Y-137904387D01*
X46188449Y-137962173D01*
X46130280Y-138312779D01*
X42057689Y-138312779D01*
X42380834Y-137989634D01*
X42515751Y-137787716D01*
X42561839Y-137718741D01*
X42625400Y-137399200D01*
X42625400Y-136930766D01*
X42903298Y-137046159D01*
X43454285Y-137046640D01*
X43963515Y-136836231D01*
X44353461Y-136446964D01*
X44449976Y-136214530D01*
X44545169Y-136444915D01*
X44934436Y-136834861D01*
X45443298Y-137046159D01*
X45994285Y-137046640D01*
X46503515Y-136836231D01*
X46893461Y-136446964D01*
X47104759Y-135938102D01*
X47105240Y-135387115D01*
X46894831Y-134877885D01*
X46536411Y-134518840D01*
X47740000Y-134518840D01*
X47975317Y-134474562D01*
X48191441Y-134335490D01*
X48336431Y-134123290D01*
X48387440Y-133871400D01*
X48387440Y-133036481D01*
X48974021Y-133036481D01*
X49089532Y-133432840D01*
X49980711Y-133683421D01*
X50046300Y-133675606D01*
X50046300Y-137241300D01*
X50109861Y-137560841D01*
X50221232Y-137727519D01*
X50290866Y-137831734D01*
X51955177Y-139496045D01*
X51954760Y-139974285D01*
X52165169Y-140483515D01*
X52523589Y-140842560D01*
X51320000Y-140842560D01*
X51084683Y-140886838D01*
X50868559Y-141025910D01*
X50723569Y-141238110D01*
X50672560Y-141490000D01*
X50672560Y-142990000D01*
X50716838Y-143225317D01*
X50855910Y-143441441D01*
X51068110Y-143586431D01*
X51320000Y-143637440D01*
X52820000Y-143637440D01*
X52874309Y-143627221D01*
X58830280Y-143627221D01*
X58888449Y-143977827D01*
X59614501Y-144152284D01*
X60352047Y-144035613D01*
X60491551Y-143977827D01*
X60549720Y-143627221D01*
X59690000Y-142767502D01*
X58830280Y-143627221D01*
X52874309Y-143627221D01*
X53055317Y-143593162D01*
X53271441Y-143454090D01*
X53416431Y-143241890D01*
X53456355Y-143044738D01*
X53824436Y-143413461D01*
X54333298Y-143624759D01*
X54884285Y-143625240D01*
X55393515Y-143414831D01*
X55783461Y-143025564D01*
X55879976Y-142793130D01*
X55975169Y-143023515D01*
X56364436Y-143413461D01*
X56873298Y-143624759D01*
X57424285Y-143625240D01*
X57933515Y-143414831D01*
X58256815Y-143092094D01*
X58302779Y-143099720D01*
X59162498Y-142240000D01*
X59148356Y-142225858D01*
X59675858Y-141698356D01*
X59690000Y-141712498D01*
X59704142Y-141698356D01*
X60231644Y-142225858D01*
X60217502Y-142240000D01*
X61077221Y-143099720D01*
X61427827Y-143041551D01*
X61602284Y-142315499D01*
X61485613Y-141577953D01*
X61461993Y-141520932D01*
X61622047Y-141495613D01*
X61761551Y-141437827D01*
X61819720Y-141087221D01*
X60960000Y-140227502D01*
X60945858Y-140241644D01*
X60418356Y-139714142D01*
X60432498Y-139700000D01*
X61487502Y-139700000D01*
X62347221Y-140559720D01*
X62697827Y-140501551D01*
X62872284Y-139775499D01*
X62755613Y-139037953D01*
X62697827Y-138898449D01*
X62347221Y-138840280D01*
X61487502Y-139700000D01*
X60432498Y-139700000D01*
X59572779Y-138840280D01*
X59526434Y-138847969D01*
X59205564Y-138526539D01*
X58696702Y-138315241D01*
X58145715Y-138314760D01*
X57636485Y-138525169D01*
X57246539Y-138914436D01*
X57150024Y-139146870D01*
X57054831Y-138916485D01*
X56665564Y-138526539D01*
X56156702Y-138315241D01*
X56025342Y-138315126D01*
X56027689Y-138312779D01*
X60100280Y-138312779D01*
X60960000Y-139172498D01*
X61819720Y-138312779D01*
X61761551Y-137962173D01*
X61035499Y-137787716D01*
X60297953Y-137904387D01*
X60158449Y-137962173D01*
X60100280Y-138312779D01*
X56027689Y-138312779D01*
X56350834Y-137989634D01*
X56485751Y-137787716D01*
X56531839Y-137718741D01*
X56595400Y-137399200D01*
X56595400Y-137048621D01*
X65180280Y-137048621D01*
X65238449Y-137399227D01*
X65964501Y-137573684D01*
X66702047Y-137457013D01*
X66841551Y-137399227D01*
X66899720Y-137048621D01*
X66040000Y-136188902D01*
X65180280Y-137048621D01*
X56595400Y-137048621D01*
X56595400Y-136930766D01*
X56873298Y-137046159D01*
X57424285Y-137046640D01*
X57933515Y-136836231D01*
X58323461Y-136446964D01*
X58419976Y-136214530D01*
X58515169Y-136444915D01*
X58904436Y-136834861D01*
X59413298Y-137046159D01*
X59964285Y-137046640D01*
X60473515Y-136836231D01*
X60863461Y-136446964D01*
X61074759Y-135938102D01*
X61075066Y-135585901D01*
X64127716Y-135585901D01*
X64244387Y-136323447D01*
X64302173Y-136462951D01*
X64652779Y-136521120D01*
X65512498Y-135661400D01*
X64652779Y-134801680D01*
X64302173Y-134859849D01*
X64127716Y-135585901D01*
X61075066Y-135585901D01*
X61075240Y-135387115D01*
X60864831Y-134877885D01*
X60506411Y-134518840D01*
X61710000Y-134518840D01*
X61945317Y-134474562D01*
X62161441Y-134335490D01*
X62306431Y-134123290D01*
X62357440Y-133871400D01*
X62357440Y-132491762D01*
X62416519Y-132508979D01*
X63607498Y-131318000D01*
X62416519Y-130127021D01*
X62020160Y-130242532D01*
X61769579Y-131133711D01*
X61843123Y-131750918D01*
X61710000Y-131723960D01*
X60210000Y-131723960D01*
X59974683Y-131768238D01*
X59758559Y-131907310D01*
X59613569Y-132119510D01*
X59573645Y-132316662D01*
X59205564Y-131947939D01*
X58696702Y-131736641D01*
X58604607Y-131736561D01*
X60741649Y-129599519D01*
X62944021Y-129599519D01*
X64135000Y-130790498D01*
X65325979Y-129599519D01*
X65210468Y-129203160D01*
X64319289Y-128952579D01*
X63400054Y-129062112D01*
X63059532Y-129203160D01*
X62944021Y-129599519D01*
X60741649Y-129599519D01*
X61550434Y-128790734D01*
X61731440Y-128519840D01*
X61795000Y-128200300D01*
X61795000Y-128153553D01*
X62002811Y-128014698D01*
X62313880Y-127549151D01*
X62366584Y-127284187D01*
X65874752Y-127284187D01*
X66092757Y-127811800D01*
X66496077Y-128215824D01*
X67023309Y-128434750D01*
X67594187Y-128435248D01*
X68121800Y-128217243D01*
X68525824Y-127813923D01*
X68744750Y-127286691D01*
X68745248Y-126715813D01*
X68527243Y-126188200D01*
X68123923Y-125784176D01*
X67596691Y-125565250D01*
X67025813Y-125564752D01*
X66498200Y-125782757D01*
X66094176Y-126186077D01*
X65875250Y-126713309D01*
X65874752Y-127284187D01*
X62366584Y-127284187D01*
X62423113Y-127000000D01*
X62313880Y-126450849D01*
X62002811Y-125985302D01*
X61537264Y-125674233D01*
X60988113Y-125565000D01*
X60931887Y-125565000D01*
X60382736Y-125674233D01*
X59917189Y-125985302D01*
X59606120Y-126450849D01*
X59496887Y-127000000D01*
X59606120Y-127549151D01*
X59917189Y-128014698D01*
X59945690Y-128033742D01*
X56559566Y-131419866D01*
X56378561Y-131690759D01*
X56353204Y-131818236D01*
X56156702Y-131736641D01*
X55605715Y-131736160D01*
X55096485Y-131946569D01*
X54773185Y-132269306D01*
X54727221Y-132261680D01*
X53867502Y-133121400D01*
X53881644Y-133135542D01*
X53354142Y-133663044D01*
X53340000Y-133648902D01*
X53325858Y-133663044D01*
X52798356Y-133135542D01*
X52812498Y-133121400D01*
X52798356Y-133107258D01*
X53325858Y-132579756D01*
X53340000Y-132593898D01*
X54199720Y-131734179D01*
X54141551Y-131383573D01*
X53663953Y-131268815D01*
X53930434Y-131002334D01*
X54111439Y-130731441D01*
X54175000Y-130411900D01*
X54175000Y-128194083D01*
X54555824Y-127813923D01*
X54774750Y-127286691D01*
X54775248Y-126715813D01*
X54557243Y-126188200D01*
X54153923Y-125784176D01*
X53626691Y-125565250D01*
X53055813Y-125564752D01*
X52528200Y-125782757D01*
X52124176Y-126186077D01*
X51905250Y-126713309D01*
X51904752Y-127284187D01*
X52122757Y-127811800D01*
X52505000Y-128194710D01*
X52505000Y-130066032D01*
X52294092Y-130276940D01*
X52279840Y-130242532D01*
X51883481Y-130127021D01*
X50692502Y-131318000D01*
X50706644Y-131332142D01*
X50179142Y-131859644D01*
X50165000Y-131845502D01*
X48974021Y-133036481D01*
X48387440Y-133036481D01*
X48387440Y-132491762D01*
X48446519Y-132508979D01*
X49637498Y-131318000D01*
X48446519Y-130127021D01*
X48050160Y-130242532D01*
X47799579Y-131133711D01*
X47873123Y-131750918D01*
X47740000Y-131723960D01*
X46240000Y-131723960D01*
X46004683Y-131768238D01*
X45788559Y-131907310D01*
X45643569Y-132119510D01*
X45603645Y-132316662D01*
X45235564Y-131947939D01*
X44726702Y-131736641D01*
X44634607Y-131736561D01*
X46771649Y-129599519D01*
X48974021Y-129599519D01*
X50165000Y-130790498D01*
X51355979Y-129599519D01*
X51240468Y-129203160D01*
X50349289Y-128952579D01*
X49430054Y-129062112D01*
X49089532Y-129203160D01*
X48974021Y-129599519D01*
X46771649Y-129599519D01*
X47580434Y-128790734D01*
X47761440Y-128519840D01*
X47825000Y-128200300D01*
X47825000Y-128153553D01*
X48032811Y-128014698D01*
X48343880Y-127549151D01*
X48453113Y-127000000D01*
X48343880Y-126450849D01*
X48032811Y-125985302D01*
X47825000Y-125846447D01*
X47825000Y-125799700D01*
X47800043Y-125674233D01*
X47761440Y-125480160D01*
X47580434Y-125209266D01*
X47018593Y-124647425D01*
X47539151Y-124543880D01*
X48004698Y-124232811D01*
X48315767Y-123767264D01*
X48425000Y-123218113D01*
X48425000Y-123161887D01*
X48315767Y-122612736D01*
X48004698Y-122147189D01*
X47825000Y-122027118D01*
X47825000Y-117509700D01*
X47787967Y-117323525D01*
X47799491Y-117318754D01*
X48407091Y-116875859D01*
X48798952Y-116234159D01*
X48598828Y-115943000D01*
X47363000Y-115943000D01*
X47363000Y-115963000D01*
X46624168Y-115963000D01*
X46617000Y-115955832D01*
X46617000Y-115943000D01*
X46604168Y-115943000D01*
X46597000Y-115935832D01*
X46597000Y-115197000D01*
X46617000Y-115197000D01*
X46617000Y-113967590D01*
X47363000Y-113967590D01*
X47363000Y-115197000D01*
X48598828Y-115197000D01*
X48798952Y-114905841D01*
X48407091Y-114264141D01*
X47799491Y-113821246D01*
X47654156Y-113761071D01*
X47363000Y-113967590D01*
X46617000Y-113967590D01*
X46485400Y-113874245D01*
X46485400Y-113376801D01*
X46497000Y-113368828D01*
X46497000Y-112133000D01*
X47243000Y-112133000D01*
X47243000Y-113368828D01*
X47534159Y-113568952D01*
X48175859Y-113177091D01*
X48618754Y-112569491D01*
X48678929Y-112424156D01*
X48472410Y-112133000D01*
X47243000Y-112133000D01*
X46497000Y-112133000D01*
X46485400Y-112133000D01*
X46485400Y-111387000D01*
X46497000Y-111387000D01*
X46497000Y-110151172D01*
X47243000Y-110151172D01*
X47243000Y-111387000D01*
X48472410Y-111387000D01*
X48678929Y-111095844D01*
X48618754Y-110950509D01*
X48175859Y-110342909D01*
X47534159Y-109951048D01*
X47243000Y-110151172D01*
X46497000Y-110151172D01*
X46485400Y-110143199D01*
X46485400Y-108020221D01*
X46961887Y-108115000D01*
X47018113Y-108115000D01*
X47567264Y-108005767D01*
X48032811Y-107694698D01*
X48343880Y-107229151D01*
X48453113Y-106680000D01*
X48343880Y-106130849D01*
X48032811Y-105665302D01*
X47567264Y-105354233D01*
X47018113Y-105245000D01*
X46961887Y-105245000D01*
X46485400Y-105339779D01*
X46485400Y-104232742D01*
X46990000Y-104333113D01*
X47539151Y-104223880D01*
X48004698Y-103912811D01*
X48315767Y-103447264D01*
X48425000Y-102898113D01*
X48425000Y-102841887D01*
X48315767Y-102292736D01*
X48008175Y-101832393D01*
X49931300Y-99909268D01*
X49931300Y-107488600D01*
X49994861Y-107808141D01*
X50126911Y-108005767D01*
X50175866Y-108079034D01*
X52607021Y-110510189D01*
X52528200Y-110542757D01*
X52124176Y-110946077D01*
X51905250Y-111473309D01*
X51904752Y-112044187D01*
X52122757Y-112571800D01*
X52526077Y-112975824D01*
X53053309Y-113194750D01*
X53624187Y-113195248D01*
X54151800Y-112977243D01*
X54555824Y-112573923D01*
X54589545Y-112492713D01*
X56284099Y-114187267D01*
X55880000Y-114106887D01*
X55330849Y-114216120D01*
X54865302Y-114527189D01*
X54610000Y-114909275D01*
X54354698Y-114527189D01*
X53889151Y-114216120D01*
X53340000Y-114106887D01*
X52790849Y-114216120D01*
X52325302Y-114527189D01*
X52014233Y-114992736D01*
X51905000Y-115541887D01*
X51905000Y-115598113D01*
X52014233Y-116147264D01*
X52325302Y-116612811D01*
X52790849Y-116923880D01*
X53340000Y-117033113D01*
X53889151Y-116923880D01*
X54354698Y-116612811D01*
X54610000Y-116230725D01*
X54865302Y-116612811D01*
X55330849Y-116923880D01*
X55880000Y-117033113D01*
X56315000Y-116946586D01*
X56315000Y-118179700D01*
X56378561Y-118499241D01*
X56419850Y-118561034D01*
X56559566Y-118770134D01*
X59941825Y-122152393D01*
X59690000Y-122529275D01*
X59434698Y-122147189D01*
X58969151Y-121836120D01*
X58420000Y-121726887D01*
X57870849Y-121836120D01*
X57405302Y-122147189D01*
X57150000Y-122529275D01*
X56894698Y-122147189D01*
X56429151Y-121836120D01*
X55880000Y-121726887D01*
X55330849Y-121836120D01*
X54865302Y-122147189D01*
X54768899Y-122291465D01*
X54743162Y-122154683D01*
X54604090Y-121938559D01*
X54391890Y-121793569D01*
X54140000Y-121742560D01*
X52540000Y-121742560D01*
X52304683Y-121786838D01*
X52088559Y-121925910D01*
X51943569Y-122138110D01*
X51892560Y-122390000D01*
X51892560Y-123990000D01*
X51936838Y-124225317D01*
X52075910Y-124441441D01*
X52288110Y-124586431D01*
X52540000Y-124637440D01*
X54140000Y-124637440D01*
X54375317Y-124593162D01*
X54591441Y-124454090D01*
X54736431Y-124241890D01*
X54767815Y-124086911D01*
X54865302Y-124232811D01*
X55330849Y-124543880D01*
X55880000Y-124653113D01*
X56429151Y-124543880D01*
X56894698Y-124232811D01*
X57150000Y-123850725D01*
X57405302Y-124232811D01*
X57870849Y-124543880D01*
X58420000Y-124653113D01*
X58969151Y-124543880D01*
X59434698Y-124232811D01*
X59690000Y-123850725D01*
X59945302Y-124232811D01*
X60410849Y-124543880D01*
X60960000Y-124653113D01*
X61509151Y-124543880D01*
X61974698Y-124232811D01*
X62285767Y-123767264D01*
X62395000Y-123218113D01*
X62395000Y-123161887D01*
X62285767Y-122612736D01*
X61974698Y-122147189D01*
X61795000Y-122027118D01*
X61795000Y-121989700D01*
X61755987Y-121793569D01*
X61731440Y-121670160D01*
X61550434Y-121399266D01*
X57985000Y-117833832D01*
X57985000Y-116946586D01*
X58420000Y-117033113D01*
X58969151Y-116923880D01*
X59397467Y-116637688D01*
X59542909Y-116875859D01*
X60150509Y-117318754D01*
X60295844Y-117378929D01*
X60587000Y-117172410D01*
X60587000Y-115943000D01*
X61333000Y-115943000D01*
X61333000Y-117172410D01*
X61624156Y-117378929D01*
X61769491Y-117318754D01*
X62377091Y-116875859D01*
X62768952Y-116234159D01*
X62568828Y-115943000D01*
X61333000Y-115943000D01*
X60587000Y-115943000D01*
X60567000Y-115943000D01*
X60567000Y-115197000D01*
X60587000Y-115197000D01*
X60587000Y-113967590D01*
X61333000Y-113967590D01*
X61333000Y-115197000D01*
X62568828Y-115197000D01*
X62768952Y-114905841D01*
X62377091Y-114264141D01*
X61769491Y-113821246D01*
X61624156Y-113761071D01*
X61333000Y-113967590D01*
X60587000Y-113967590D01*
X60295844Y-113761071D01*
X60150509Y-113821246D01*
X59542909Y-114264141D01*
X59397467Y-114502312D01*
X58969151Y-114216120D01*
X58420000Y-114106887D01*
X57985000Y-114193414D01*
X57985000Y-113872300D01*
X57921439Y-113552759D01*
X57740434Y-113281866D01*
X56882724Y-112424156D01*
X59031071Y-112424156D01*
X59091246Y-112569491D01*
X59534141Y-113177091D01*
X60175841Y-113568952D01*
X60467000Y-113368828D01*
X60467000Y-112133000D01*
X61213000Y-112133000D01*
X61213000Y-113368828D01*
X61504159Y-113568952D01*
X62145859Y-113177091D01*
X62588754Y-112569491D01*
X62648929Y-112424156D01*
X62442410Y-112133000D01*
X61213000Y-112133000D01*
X60467000Y-112133000D01*
X59237590Y-112133000D01*
X59031071Y-112424156D01*
X56882724Y-112424156D01*
X56502755Y-112044187D01*
X65874752Y-112044187D01*
X66092757Y-112571800D01*
X66496077Y-112975824D01*
X67023309Y-113194750D01*
X67594187Y-113195248D01*
X68121800Y-112977243D01*
X68525824Y-112573923D01*
X68744750Y-112046691D01*
X68745248Y-111475813D01*
X68527243Y-110948200D01*
X68123923Y-110544176D01*
X67596691Y-110325250D01*
X67025813Y-110324752D01*
X66498200Y-110542757D01*
X66094176Y-110946077D01*
X65875250Y-111473309D01*
X65874752Y-112044187D01*
X56502755Y-112044187D01*
X55554412Y-111095844D01*
X59031071Y-111095844D01*
X59237590Y-111387000D01*
X60467000Y-111387000D01*
X60467000Y-110151172D01*
X61213000Y-110151172D01*
X61213000Y-111387000D01*
X62442410Y-111387000D01*
X62648929Y-111095844D01*
X62588754Y-110950509D01*
X62145859Y-110342909D01*
X61504159Y-109951048D01*
X61213000Y-110151172D01*
X60467000Y-110151172D01*
X60175841Y-109951048D01*
X59534141Y-110342909D01*
X59091246Y-110950509D01*
X59031071Y-111095844D01*
X55554412Y-111095844D01*
X51601300Y-107142732D01*
X51601300Y-88661068D01*
X52977388Y-90037156D01*
X52528200Y-90222757D01*
X52124176Y-90626077D01*
X51905250Y-91153309D01*
X51904752Y-91724187D01*
X52122757Y-92251800D01*
X52526077Y-92655824D01*
X53053309Y-92874750D01*
X53624187Y-92875248D01*
X54151800Y-92657243D01*
X54555824Y-92253923D01*
X54743113Y-91802881D01*
X56314900Y-93374668D01*
X56314900Y-93873394D01*
X55880000Y-93786887D01*
X55330849Y-93896120D01*
X54865302Y-94207189D01*
X54610000Y-94589275D01*
X54354698Y-94207189D01*
X53889151Y-93896120D01*
X53340000Y-93786887D01*
X52790849Y-93896120D01*
X52325302Y-94207189D01*
X52014233Y-94672736D01*
X51905000Y-95221887D01*
X51905000Y-95278113D01*
X52014233Y-95827264D01*
X52325302Y-96292811D01*
X52790849Y-96603880D01*
X53340000Y-96713113D01*
X53889151Y-96603880D01*
X54354698Y-96292811D01*
X54610000Y-95910725D01*
X54861825Y-96287607D01*
X54089266Y-97060166D01*
X53908261Y-97331059D01*
X53844700Y-97650600D01*
X53844700Y-101422560D01*
X52540000Y-101422560D01*
X52304683Y-101466838D01*
X52088559Y-101605910D01*
X51943569Y-101818110D01*
X51892560Y-102070000D01*
X51892560Y-103670000D01*
X51936838Y-103905317D01*
X52075910Y-104121441D01*
X52288110Y-104266431D01*
X52540000Y-104317440D01*
X53844700Y-104317440D01*
X53844700Y-104994432D01*
X53593911Y-105245221D01*
X53055813Y-105244752D01*
X52528200Y-105462757D01*
X52124176Y-105866077D01*
X51905250Y-106393309D01*
X51904752Y-106964187D01*
X52122757Y-107491800D01*
X52526077Y-107895824D01*
X53053309Y-108114750D01*
X53624187Y-108115248D01*
X54151800Y-107897243D01*
X54555824Y-107493923D01*
X54774750Y-106966691D01*
X54775222Y-106425646D01*
X55270134Y-105930734D01*
X55280848Y-105914700D01*
X55451139Y-105659841D01*
X55514700Y-105340300D01*
X55514700Y-104260450D01*
X55880000Y-104333113D01*
X56429151Y-104223880D01*
X56894698Y-103912811D01*
X57150000Y-103530725D01*
X57405302Y-103912811D01*
X57870849Y-104223880D01*
X58420000Y-104333113D01*
X58862058Y-104245182D01*
X58918561Y-104529241D01*
X59052994Y-104730434D01*
X59099566Y-104800134D01*
X59945690Y-105646258D01*
X59917189Y-105665302D01*
X59606120Y-106130849D01*
X59496887Y-106680000D01*
X59606120Y-107229151D01*
X59917189Y-107694698D01*
X60382736Y-108005767D01*
X60931887Y-108115000D01*
X60988113Y-108115000D01*
X61537264Y-108005767D01*
X62002811Y-107694698D01*
X62313880Y-107229151D01*
X62423113Y-106680000D01*
X62313880Y-106130849D01*
X62002811Y-105665302D01*
X61795000Y-105526447D01*
X61795000Y-105479700D01*
X61731439Y-105160159D01*
X61550434Y-104889266D01*
X60988593Y-104327425D01*
X61509151Y-104223880D01*
X61974698Y-103912811D01*
X62285767Y-103447264D01*
X62395000Y-102898113D01*
X62395000Y-102841887D01*
X62285767Y-102292736D01*
X61974698Y-101827189D01*
X61795000Y-101707118D01*
X61795000Y-101669700D01*
X61731439Y-101350159D01*
X61550434Y-101079266D01*
X60525000Y-100053832D01*
X60525000Y-96896387D01*
X60587000Y-96852410D01*
X60587000Y-95623000D01*
X60567000Y-95623000D01*
X60567000Y-94877000D01*
X60587000Y-94877000D01*
X60587000Y-94857000D01*
X61333000Y-94857000D01*
X61333000Y-94877000D01*
X61353000Y-94877000D01*
X61353000Y-95623000D01*
X61333000Y-95623000D01*
X61333000Y-96852410D01*
X61624156Y-97058929D01*
X61769491Y-96998754D01*
X62377091Y-96555859D01*
X62635852Y-96132120D01*
X64639700Y-98135968D01*
X64639700Y-106557700D01*
X64703261Y-106877241D01*
X64831551Y-107069240D01*
X64884266Y-107148134D01*
X70262600Y-112526468D01*
X70262600Y-114188958D01*
X69850000Y-114106887D01*
X69300849Y-114216120D01*
X68835302Y-114527189D01*
X68580000Y-114909275D01*
X68324698Y-114527189D01*
X67859151Y-114216120D01*
X67310000Y-114106887D01*
X66760849Y-114216120D01*
X66295302Y-114527189D01*
X65984233Y-114992736D01*
X65875000Y-115541887D01*
X65875000Y-115598113D01*
X65984233Y-116147264D01*
X66295302Y-116612811D01*
X66760849Y-116923880D01*
X67310000Y-117033113D01*
X67859151Y-116923880D01*
X68324698Y-116612811D01*
X68580000Y-116230725D01*
X68835302Y-116612811D01*
X69300849Y-116923880D01*
X69850000Y-117033113D01*
X70262600Y-116951042D01*
X70262600Y-118157300D01*
X70326161Y-118476841D01*
X70382417Y-118561034D01*
X70507166Y-118747734D01*
X73911825Y-122152393D01*
X73660000Y-122529275D01*
X73404698Y-122147189D01*
X72939151Y-121836120D01*
X72390000Y-121726887D01*
X71840849Y-121836120D01*
X71375302Y-122147189D01*
X71120000Y-122529275D01*
X70864698Y-122147189D01*
X70399151Y-121836120D01*
X69850000Y-121726887D01*
X69300849Y-121836120D01*
X68835302Y-122147189D01*
X68738899Y-122291465D01*
X68713162Y-122154683D01*
X68574090Y-121938559D01*
X68361890Y-121793569D01*
X68110000Y-121742560D01*
X66510000Y-121742560D01*
X66274683Y-121786838D01*
X66058559Y-121925910D01*
X65913569Y-122138110D01*
X65862560Y-122390000D01*
X65862560Y-123990000D01*
X65906838Y-124225317D01*
X66045910Y-124441441D01*
X66258110Y-124586431D01*
X66510000Y-124637440D01*
X68110000Y-124637440D01*
X68345317Y-124593162D01*
X68561441Y-124454090D01*
X68706431Y-124241890D01*
X68737815Y-124086911D01*
X68835302Y-124232811D01*
X69300849Y-124543880D01*
X69850000Y-124653113D01*
X70399151Y-124543880D01*
X70864698Y-124232811D01*
X71120000Y-123850725D01*
X71375302Y-124232811D01*
X71840849Y-124543880D01*
X72390000Y-124653113D01*
X72939151Y-124543880D01*
X73404698Y-124232811D01*
X73660000Y-123850725D01*
X73915302Y-124232811D01*
X74380849Y-124543880D01*
X74930000Y-124653113D01*
X75295400Y-124580430D01*
X75295400Y-125632091D01*
X74958113Y-125565000D01*
X74901887Y-125565000D01*
X74352736Y-125674233D01*
X73887189Y-125985302D01*
X73576120Y-126450849D01*
X73466887Y-127000000D01*
X73576120Y-127549151D01*
X73887189Y-128014698D01*
X73915690Y-128033742D01*
X70529566Y-131419866D01*
X70348561Y-131690759D01*
X70323204Y-131818236D01*
X70126702Y-131736641D01*
X69575715Y-131736160D01*
X69066485Y-131946569D01*
X68743185Y-132269306D01*
X68697221Y-132261680D01*
X67837502Y-133121400D01*
X67851644Y-133135542D01*
X67324142Y-133663044D01*
X67310000Y-133648902D01*
X67295858Y-133663044D01*
X66768356Y-133135542D01*
X66782498Y-133121400D01*
X66768356Y-133107258D01*
X67295858Y-132579756D01*
X67310000Y-132593898D01*
X68169720Y-131734179D01*
X68111551Y-131383573D01*
X67385499Y-131209116D01*
X66647953Y-131325787D01*
X66508449Y-131383573D01*
X66495544Y-131461358D01*
X66390888Y-130583054D01*
X66249840Y-130242532D01*
X65853481Y-130127021D01*
X64662502Y-131318000D01*
X64676644Y-131332142D01*
X64149142Y-131859644D01*
X64135000Y-131845502D01*
X62944021Y-133036481D01*
X63059532Y-133432840D01*
X63950711Y-133683421D01*
X64869946Y-133573888D01*
X65210468Y-133432840D01*
X65325978Y-133036483D01*
X65409427Y-133119932D01*
X65514387Y-133783447D01*
X65538007Y-133840468D01*
X65377953Y-133865787D01*
X65238449Y-133923573D01*
X65180280Y-134274179D01*
X66040000Y-135133898D01*
X66054142Y-135119756D01*
X66581644Y-135647258D01*
X66567502Y-135661400D01*
X67427221Y-136521120D01*
X67473566Y-136513431D01*
X67794436Y-136834861D01*
X68303298Y-137046159D01*
X68854285Y-137046640D01*
X68895400Y-137029652D01*
X68895400Y-137053332D01*
X67989566Y-137959166D01*
X67808561Y-138230059D01*
X67775983Y-138393837D01*
X67586702Y-138315241D01*
X67035715Y-138314760D01*
X66526485Y-138525169D01*
X66136539Y-138914436D01*
X65925241Y-139423298D01*
X65924760Y-139974285D01*
X66135169Y-140483515D01*
X66493589Y-140842560D01*
X65290000Y-140842560D01*
X65054683Y-140886838D01*
X64838559Y-141025910D01*
X64693569Y-141238110D01*
X64642560Y-141490000D01*
X64642560Y-142990000D01*
X64686838Y-143225317D01*
X64825910Y-143441441D01*
X65038110Y-143586431D01*
X65290000Y-143637440D01*
X66790000Y-143637440D01*
X66844309Y-143627221D01*
X72800280Y-143627221D01*
X72858449Y-143977827D01*
X73584501Y-144152284D01*
X74322047Y-144035613D01*
X74461551Y-143977827D01*
X74519720Y-143627221D01*
X73660000Y-142767502D01*
X72800280Y-143627221D01*
X66844309Y-143627221D01*
X67025317Y-143593162D01*
X67241441Y-143454090D01*
X67386431Y-143241890D01*
X67426355Y-143044738D01*
X67794436Y-143413461D01*
X68303298Y-143624759D01*
X68854285Y-143625240D01*
X69363515Y-143414831D01*
X69753461Y-143025564D01*
X69849976Y-142793130D01*
X69945169Y-143023515D01*
X70334436Y-143413461D01*
X70843298Y-143624759D01*
X71394285Y-143625240D01*
X71903515Y-143414831D01*
X72226815Y-143092094D01*
X72272779Y-143099720D01*
X73132498Y-142240000D01*
X73118356Y-142225858D01*
X73645858Y-141698356D01*
X73660000Y-141712498D01*
X73674142Y-141698356D01*
X74201644Y-142225858D01*
X74187502Y-142240000D01*
X75047221Y-143099720D01*
X75397827Y-143041551D01*
X75572284Y-142315499D01*
X75455613Y-141577953D01*
X75431993Y-141520932D01*
X75592047Y-141495613D01*
X75731551Y-141437827D01*
X75789720Y-141087221D01*
X74930000Y-140227502D01*
X74915858Y-140241644D01*
X74388356Y-139714142D01*
X74402498Y-139700000D01*
X75457502Y-139700000D01*
X76317221Y-140559720D01*
X76667827Y-140501551D01*
X76842284Y-139775499D01*
X76725613Y-139037953D01*
X76667827Y-138898449D01*
X76317221Y-138840280D01*
X75457502Y-139700000D01*
X74402498Y-139700000D01*
X73542779Y-138840280D01*
X73496434Y-138847969D01*
X73175564Y-138526539D01*
X72666702Y-138315241D01*
X72115715Y-138314760D01*
X71606485Y-138525169D01*
X71216539Y-138914436D01*
X71120024Y-139146870D01*
X71024831Y-138916485D01*
X70635564Y-138526539D01*
X70126702Y-138315241D01*
X69995342Y-138315126D01*
X69997689Y-138312779D01*
X74070280Y-138312779D01*
X74930000Y-139172498D01*
X75789720Y-138312779D01*
X75731551Y-137962173D01*
X75005499Y-137787716D01*
X74267953Y-137904387D01*
X74128449Y-137962173D01*
X74070280Y-138312779D01*
X69997689Y-138312779D01*
X70320834Y-137989634D01*
X70455751Y-137787716D01*
X70501839Y-137718741D01*
X70565400Y-137399200D01*
X70565400Y-136930766D01*
X70843298Y-137046159D01*
X71394285Y-137046640D01*
X71903515Y-136836231D01*
X72293461Y-136446964D01*
X72389976Y-136214530D01*
X72485169Y-136444915D01*
X72874436Y-136834861D01*
X73383298Y-137046159D01*
X73934285Y-137046640D01*
X74443515Y-136836231D01*
X74833461Y-136446964D01*
X75044759Y-135938102D01*
X75045066Y-135585901D01*
X78097716Y-135585901D01*
X78214387Y-136323447D01*
X78272173Y-136462951D01*
X78622779Y-136521120D01*
X79482498Y-135661400D01*
X78622779Y-134801680D01*
X78272173Y-134859849D01*
X78097716Y-135585901D01*
X75045066Y-135585901D01*
X75045240Y-135387115D01*
X74834831Y-134877885D01*
X74476411Y-134518840D01*
X75680000Y-134518840D01*
X75915317Y-134474562D01*
X76131441Y-134335490D01*
X76276431Y-134123290D01*
X76327440Y-133871400D01*
X76327440Y-133036481D01*
X76914021Y-133036481D01*
X77029532Y-133432840D01*
X77920711Y-133683421D01*
X78839946Y-133573888D01*
X79180468Y-133432840D01*
X79295978Y-133036483D01*
X79379427Y-133119932D01*
X79484387Y-133783447D01*
X79508007Y-133840468D01*
X79347953Y-133865787D01*
X79208449Y-133923573D01*
X79150280Y-134274179D01*
X80010000Y-135133898D01*
X80024142Y-135119756D01*
X80445000Y-135540614D01*
X80445000Y-135782186D01*
X80024142Y-136203044D01*
X80010000Y-136188902D01*
X79150280Y-137048621D01*
X79208449Y-137399227D01*
X79934501Y-137573684D01*
X80445000Y-137492929D01*
X80445000Y-138576564D01*
X80106539Y-138914436D01*
X79895241Y-139423298D01*
X79894760Y-139974285D01*
X80105169Y-140483515D01*
X80463589Y-140842560D01*
X79260000Y-140842560D01*
X79024683Y-140886838D01*
X78808559Y-141025910D01*
X78663569Y-141238110D01*
X78612560Y-141490000D01*
X78612560Y-142990000D01*
X78656838Y-143225317D01*
X78795910Y-143441441D01*
X79008110Y-143586431D01*
X79260000Y-143637440D01*
X80760000Y-143637440D01*
X80814309Y-143627221D01*
X86770280Y-143627221D01*
X86828449Y-143977827D01*
X87554501Y-144152284D01*
X88292047Y-144035613D01*
X88431551Y-143977827D01*
X88489720Y-143627221D01*
X87630000Y-142767502D01*
X86770280Y-143627221D01*
X80814309Y-143627221D01*
X80995317Y-143593162D01*
X81211441Y-143454090D01*
X81356431Y-143241890D01*
X81396355Y-143044738D01*
X81764436Y-143413461D01*
X82273298Y-143624759D01*
X82824285Y-143625240D01*
X83333515Y-143414831D01*
X83723461Y-143025564D01*
X83819976Y-142793130D01*
X83915169Y-143023515D01*
X84304436Y-143413461D01*
X84813298Y-143624759D01*
X85364285Y-143625240D01*
X85873515Y-143414831D01*
X86196815Y-143092094D01*
X86242779Y-143099720D01*
X87102498Y-142240000D01*
X87088356Y-142225858D01*
X87615858Y-141698356D01*
X87630000Y-141712498D01*
X87644142Y-141698356D01*
X88171644Y-142225858D01*
X88157502Y-142240000D01*
X89017221Y-143099720D01*
X89367827Y-143041551D01*
X89488746Y-142538311D01*
X89938179Y-142538311D01*
X90047712Y-143457546D01*
X90188760Y-143798068D01*
X90585119Y-143913579D01*
X91776098Y-142722600D01*
X92831102Y-142722600D01*
X94022081Y-143913579D01*
X94418440Y-143798068D01*
X94669021Y-142906889D01*
X94559488Y-141987654D01*
X94418440Y-141647132D01*
X94022081Y-141531621D01*
X92831102Y-142722600D01*
X91776098Y-142722600D01*
X90585119Y-141531621D01*
X90188760Y-141647132D01*
X89938179Y-142538311D01*
X89488746Y-142538311D01*
X89542284Y-142315499D01*
X89425613Y-141577953D01*
X89401993Y-141520932D01*
X89562047Y-141495613D01*
X89701551Y-141437827D01*
X89759720Y-141087221D01*
X89676618Y-141004119D01*
X91112621Y-141004119D01*
X92303600Y-142195098D01*
X93494579Y-141004119D01*
X93379068Y-140607760D01*
X92487889Y-140357179D01*
X91568654Y-140466712D01*
X91228132Y-140607760D01*
X91112621Y-141004119D01*
X89676618Y-141004119D01*
X88900000Y-140227502D01*
X88885858Y-140241644D01*
X88358356Y-139714142D01*
X88372498Y-139700000D01*
X89427502Y-139700000D01*
X90287221Y-140559720D01*
X90637827Y-140501551D01*
X90812284Y-139775499D01*
X90695613Y-139037953D01*
X90650599Y-138929281D01*
X91773021Y-138929281D01*
X91888532Y-139325640D01*
X92779711Y-139576221D01*
X93698946Y-139466688D01*
X94039468Y-139325640D01*
X94154979Y-138929281D01*
X92964000Y-137738302D01*
X91773021Y-138929281D01*
X90650599Y-138929281D01*
X90637827Y-138898449D01*
X90287221Y-138840280D01*
X89427502Y-139700000D01*
X88372498Y-139700000D01*
X87512779Y-138840280D01*
X87466434Y-138847969D01*
X87145564Y-138526539D01*
X86636702Y-138315241D01*
X86085715Y-138314760D01*
X85576485Y-138525169D01*
X85186539Y-138914436D01*
X85090024Y-139146870D01*
X84994831Y-138916485D01*
X84605564Y-138526539D01*
X84096702Y-138315241D01*
X83965342Y-138315126D01*
X83967689Y-138312779D01*
X88040280Y-138312779D01*
X88900000Y-139172498D01*
X89759720Y-138312779D01*
X89701551Y-137962173D01*
X88975499Y-137787716D01*
X88237953Y-137904387D01*
X88098449Y-137962173D01*
X88040280Y-138312779D01*
X83967689Y-138312779D01*
X84290834Y-137989634D01*
X84425751Y-137787716D01*
X84471839Y-137718741D01*
X84535400Y-137399200D01*
X84535400Y-136930766D01*
X84813298Y-137046159D01*
X85364285Y-137046640D01*
X85873515Y-136836231D01*
X86263461Y-136446964D01*
X86359976Y-136214530D01*
X86455169Y-136444915D01*
X86844436Y-136834861D01*
X87353298Y-137046159D01*
X87904285Y-137046640D01*
X87953001Y-137026511D01*
X90598579Y-137026511D01*
X90708112Y-137945746D01*
X90849160Y-138286268D01*
X91245519Y-138401779D01*
X92436498Y-137210800D01*
X93491502Y-137210800D01*
X94682481Y-138401779D01*
X95078840Y-138286268D01*
X95329421Y-137395089D01*
X95219888Y-136475854D01*
X95078840Y-136135332D01*
X94682481Y-136019821D01*
X93491502Y-137210800D01*
X92436498Y-137210800D01*
X91245519Y-136019821D01*
X90849160Y-136135332D01*
X90598579Y-137026511D01*
X87953001Y-137026511D01*
X88413515Y-136836231D01*
X88803461Y-136446964D01*
X89014759Y-135938102D01*
X89015148Y-135492319D01*
X91773021Y-135492319D01*
X92964000Y-136683298D01*
X94154979Y-135492319D01*
X94039468Y-135095960D01*
X93148289Y-134845379D01*
X92229054Y-134954912D01*
X91888532Y-135095960D01*
X91773021Y-135492319D01*
X89015148Y-135492319D01*
X89015240Y-135387115D01*
X88804831Y-134877885D01*
X88446411Y-134518840D01*
X89650000Y-134518840D01*
X89885317Y-134474562D01*
X90101441Y-134335490D01*
X90246431Y-134123290D01*
X90297440Y-133871400D01*
X90297440Y-132371400D01*
X90253162Y-132136083D01*
X90121106Y-131930862D01*
X90695434Y-131356534D01*
X90768689Y-131246900D01*
X90876439Y-131085641D01*
X90940000Y-130766100D01*
X90940000Y-109085300D01*
X90876439Y-108765759D01*
X90695434Y-108494866D01*
X89914310Y-107713742D01*
X89942811Y-107694698D01*
X90253880Y-107229151D01*
X90363113Y-106680000D01*
X90253880Y-106130849D01*
X89942811Y-105665302D01*
X89735000Y-105526447D01*
X89735000Y-105479700D01*
X89671439Y-105160159D01*
X89490434Y-104889266D01*
X88928593Y-104327425D01*
X89449151Y-104223880D01*
X89914698Y-103912811D01*
X90225767Y-103447264D01*
X90335000Y-102898113D01*
X90335000Y-102841887D01*
X90225767Y-102292736D01*
X89914698Y-101827189D01*
X89449151Y-101516120D01*
X88900000Y-101406887D01*
X88395300Y-101507278D01*
X88395300Y-97650600D01*
X88359488Y-97470560D01*
X88331740Y-97331060D01*
X88150734Y-97060166D01*
X88086131Y-96995563D01*
X88090509Y-96998754D01*
X88235844Y-97058929D01*
X88527000Y-96852410D01*
X88527000Y-95623000D01*
X89273000Y-95623000D01*
X89273000Y-96852410D01*
X89564156Y-97058929D01*
X89709491Y-96998754D01*
X90317091Y-96555859D01*
X90708952Y-95914159D01*
X90508828Y-95623000D01*
X89273000Y-95623000D01*
X88527000Y-95623000D01*
X88507000Y-95623000D01*
X88507000Y-94877000D01*
X88527000Y-94877000D01*
X88527000Y-93647590D01*
X89273000Y-93647590D01*
X89273000Y-94877000D01*
X90508828Y-94877000D01*
X90708952Y-94585841D01*
X90317091Y-93944141D01*
X89709491Y-93501246D01*
X89564156Y-93441071D01*
X89273000Y-93647590D01*
X88527000Y-93647590D01*
X88235844Y-93441071D01*
X88090509Y-93501246D01*
X87482909Y-93944141D01*
X87337467Y-94182312D01*
X86909151Y-93896120D01*
X86360000Y-93786887D01*
X85810849Y-93896120D01*
X85345302Y-94207189D01*
X85090000Y-94589275D01*
X84834698Y-94207189D01*
X84369151Y-93896120D01*
X83820000Y-93786887D01*
X83270849Y-93896120D01*
X82805302Y-94207189D01*
X82550000Y-94589275D01*
X82294698Y-94207189D01*
X81829151Y-93896120D01*
X81280000Y-93786887D01*
X80730849Y-93896120D01*
X80265302Y-94207189D01*
X79954233Y-94672736D01*
X79845000Y-95221887D01*
X79845000Y-95278113D01*
X79954233Y-95827264D01*
X80265302Y-96292811D01*
X80730849Y-96603880D01*
X81280000Y-96713113D01*
X81829151Y-96603880D01*
X82294698Y-96292811D01*
X82550000Y-95910725D01*
X82801825Y-96287607D01*
X82029266Y-97060166D01*
X81848261Y-97331059D01*
X81784700Y-97650600D01*
X81784700Y-101422560D01*
X80480000Y-101422560D01*
X80244683Y-101466838D01*
X80028559Y-101605910D01*
X79883569Y-101818110D01*
X79832560Y-102070000D01*
X79832560Y-103670000D01*
X79876838Y-103905317D01*
X80015910Y-104121441D01*
X80228110Y-104266431D01*
X80480000Y-104317440D01*
X81784700Y-104317440D01*
X81784700Y-104994432D01*
X81533911Y-105245221D01*
X80995813Y-105244752D01*
X80468200Y-105462757D01*
X80064176Y-105866077D01*
X79845250Y-106393309D01*
X79844752Y-106964187D01*
X80062757Y-107491800D01*
X80466077Y-107895824D01*
X80993309Y-108114750D01*
X81564187Y-108115248D01*
X82091800Y-107897243D01*
X82495824Y-107493923D01*
X82714750Y-106966691D01*
X82715222Y-106425646D01*
X83210134Y-105930734D01*
X83220848Y-105914700D01*
X83391139Y-105659841D01*
X83454700Y-105340300D01*
X83454700Y-104260450D01*
X83820000Y-104333113D01*
X84369151Y-104223880D01*
X84834698Y-103912811D01*
X85090000Y-103530725D01*
X85345302Y-103912811D01*
X85810849Y-104223880D01*
X86360000Y-104333113D01*
X86748347Y-104255866D01*
X86788861Y-104459541D01*
X86969866Y-104730434D01*
X87885690Y-105646258D01*
X87857189Y-105665302D01*
X87546120Y-106130849D01*
X87436887Y-106680000D01*
X87546120Y-107229151D01*
X87857189Y-107694698D01*
X88065000Y-107833553D01*
X88065000Y-107880300D01*
X88128561Y-108199841D01*
X88309566Y-108470734D01*
X89270000Y-109431168D01*
X89270000Y-110070754D01*
X89153000Y-110151172D01*
X89153000Y-111387000D01*
X89173000Y-111387000D01*
X89173000Y-112133000D01*
X89153000Y-112133000D01*
X89153000Y-113368828D01*
X89270000Y-113449246D01*
X89270000Y-121800485D01*
X88900000Y-121726887D01*
X88534700Y-121799550D01*
X88534700Y-118110000D01*
X88471139Y-117790459D01*
X88290134Y-117519566D01*
X88086130Y-117315562D01*
X88090509Y-117318754D01*
X88235844Y-117378929D01*
X88527000Y-117172410D01*
X88527000Y-115943000D01*
X88507000Y-115943000D01*
X88507000Y-115197000D01*
X88527000Y-115197000D01*
X88527000Y-113967590D01*
X88235844Y-113761071D01*
X88090509Y-113821246D01*
X87482909Y-114264141D01*
X87337467Y-114502312D01*
X86909151Y-114216120D01*
X86360000Y-114106887D01*
X85810849Y-114216120D01*
X85345302Y-114527189D01*
X85090000Y-114909275D01*
X84834698Y-114527189D01*
X84369151Y-114216120D01*
X83820000Y-114106887D01*
X83270849Y-114216120D01*
X82805302Y-114527189D01*
X82550000Y-114909275D01*
X82294698Y-114527189D01*
X81829151Y-114216120D01*
X81280000Y-114106887D01*
X80730849Y-114216120D01*
X80265302Y-114527189D01*
X79954233Y-114992736D01*
X79845000Y-115541887D01*
X79845000Y-115598113D01*
X79954233Y-116147264D01*
X80265302Y-116612811D01*
X80730849Y-116923880D01*
X81280000Y-117033113D01*
X81829151Y-116923880D01*
X82294698Y-116612811D01*
X82550000Y-116230725D01*
X82801825Y-116607607D01*
X82029266Y-117380166D01*
X81848261Y-117651059D01*
X81784700Y-117970600D01*
X81784700Y-121742560D01*
X80480000Y-121742560D01*
X80244683Y-121786838D01*
X80028559Y-121925910D01*
X79883569Y-122138110D01*
X79832560Y-122390000D01*
X79832560Y-123990000D01*
X79876838Y-124225317D01*
X80015910Y-124441441D01*
X80228110Y-124586431D01*
X80480000Y-124637440D01*
X81784700Y-124637440D01*
X81784700Y-125314432D01*
X81533911Y-125565221D01*
X80995813Y-125564752D01*
X80468200Y-125782757D01*
X80064176Y-126186077D01*
X79845250Y-126713309D01*
X79844752Y-127284187D01*
X80062757Y-127811800D01*
X80466077Y-128215824D01*
X80993309Y-128434750D01*
X81534354Y-128435222D01*
X81635600Y-128536468D01*
X81635600Y-131276419D01*
X81355499Y-131209116D01*
X80617953Y-131325787D01*
X80478449Y-131383573D01*
X80465544Y-131461358D01*
X80360888Y-130583054D01*
X80219840Y-130242532D01*
X79823481Y-130127021D01*
X78632502Y-131318000D01*
X78646644Y-131332142D01*
X78119142Y-131859644D01*
X78105000Y-131845502D01*
X76914021Y-133036481D01*
X76327440Y-133036481D01*
X76327440Y-132491762D01*
X76386519Y-132508979D01*
X77577498Y-131318000D01*
X77563356Y-131303858D01*
X78090858Y-130776356D01*
X78105000Y-130790498D01*
X79295979Y-129599519D01*
X79180468Y-129203160D01*
X78289289Y-128952579D01*
X77370054Y-129062112D01*
X77029532Y-129203160D01*
X76965400Y-129423220D01*
X76965400Y-112044187D01*
X79844752Y-112044187D01*
X80062757Y-112571800D01*
X80466077Y-112975824D01*
X80993309Y-113194750D01*
X81564187Y-113195248D01*
X82091800Y-112977243D01*
X82495824Y-112573923D01*
X82558012Y-112424156D01*
X86971071Y-112424156D01*
X87031246Y-112569491D01*
X87474141Y-113177091D01*
X88115841Y-113568952D01*
X88407000Y-113368828D01*
X88407000Y-112133000D01*
X87177590Y-112133000D01*
X86971071Y-112424156D01*
X82558012Y-112424156D01*
X82714750Y-112046691D01*
X82715248Y-111475813D01*
X82558249Y-111095844D01*
X86971071Y-111095844D01*
X87177590Y-111387000D01*
X88407000Y-111387000D01*
X88407000Y-110151172D01*
X88115841Y-109951048D01*
X87474141Y-110342909D01*
X87031246Y-110950509D01*
X86971071Y-111095844D01*
X82558249Y-111095844D01*
X82497243Y-110948200D01*
X82093923Y-110544176D01*
X81566691Y-110325250D01*
X80995813Y-110324752D01*
X80468200Y-110542757D01*
X80064176Y-110946077D01*
X79845250Y-111473309D01*
X79844752Y-112044187D01*
X76965400Y-112044187D01*
X76965400Y-109080700D01*
X76901839Y-108761159D01*
X76720834Y-108490266D01*
X75944310Y-107713742D01*
X75972811Y-107694698D01*
X76283880Y-107229151D01*
X76393113Y-106680000D01*
X76283880Y-106130849D01*
X75972811Y-105665302D01*
X75944310Y-105646258D01*
X76743634Y-104846934D01*
X76836359Y-104708161D01*
X76924639Y-104576041D01*
X76988200Y-104256500D01*
X76988200Y-100213500D01*
X76924639Y-99893959D01*
X76784861Y-99684766D01*
X76743634Y-99623065D01*
X74116131Y-96995563D01*
X74120509Y-96998754D01*
X74265844Y-97058929D01*
X74557000Y-96852410D01*
X74557000Y-95623000D01*
X75303000Y-95623000D01*
X75303000Y-96852410D01*
X75594156Y-97058929D01*
X75739491Y-96998754D01*
X76347091Y-96555859D01*
X76738952Y-95914159D01*
X76538828Y-95623000D01*
X75303000Y-95623000D01*
X74557000Y-95623000D01*
X74537000Y-95623000D01*
X74537000Y-94877000D01*
X74557000Y-94877000D01*
X74557000Y-93647590D01*
X75303000Y-93647590D01*
X75303000Y-94877000D01*
X76538828Y-94877000D01*
X76738952Y-94585841D01*
X76347091Y-93944141D01*
X75739491Y-93501246D01*
X75594156Y-93441071D01*
X75303000Y-93647590D01*
X74557000Y-93647590D01*
X74265844Y-93441071D01*
X74120509Y-93501246D01*
X73512909Y-93944141D01*
X73367467Y-94182312D01*
X72939151Y-93896120D01*
X72390000Y-93786887D01*
X71955000Y-93873414D01*
X71955000Y-92104156D01*
X73001071Y-92104156D01*
X73061246Y-92249491D01*
X73504141Y-92857091D01*
X74145841Y-93248952D01*
X74437000Y-93048828D01*
X74437000Y-91813000D01*
X75183000Y-91813000D01*
X75183000Y-93048828D01*
X75474159Y-93248952D01*
X76115859Y-92857091D01*
X76558754Y-92249491D01*
X76618929Y-92104156D01*
X76412410Y-91813000D01*
X75183000Y-91813000D01*
X74437000Y-91813000D01*
X73207590Y-91813000D01*
X73001071Y-92104156D01*
X71955000Y-92104156D01*
X71955000Y-91724187D01*
X79844752Y-91724187D01*
X80062757Y-92251800D01*
X80466077Y-92655824D01*
X80993309Y-92874750D01*
X81564187Y-92875248D01*
X82091800Y-92657243D01*
X82495824Y-92253923D01*
X82558012Y-92104156D01*
X86971071Y-92104156D01*
X87031246Y-92249491D01*
X87474141Y-92857091D01*
X88115841Y-93248952D01*
X88407000Y-93048828D01*
X88407000Y-91813000D01*
X89153000Y-91813000D01*
X89153000Y-93048828D01*
X89444159Y-93248952D01*
X90085859Y-92857091D01*
X90528754Y-92249491D01*
X90588929Y-92104156D01*
X90382410Y-91813000D01*
X89153000Y-91813000D01*
X88407000Y-91813000D01*
X87177590Y-91813000D01*
X86971071Y-92104156D01*
X82558012Y-92104156D01*
X82714750Y-91726691D01*
X82715248Y-91155813D01*
X82558249Y-90775844D01*
X86971071Y-90775844D01*
X87177590Y-91067000D01*
X88407000Y-91067000D01*
X88407000Y-89831172D01*
X89153000Y-89831172D01*
X89153000Y-91067000D01*
X90382410Y-91067000D01*
X90588929Y-90775844D01*
X90528754Y-90630509D01*
X90085859Y-90022909D01*
X89444159Y-89631048D01*
X89153000Y-89831172D01*
X88407000Y-89831172D01*
X88115841Y-89631048D01*
X87474141Y-90022909D01*
X87031246Y-90630509D01*
X86971071Y-90775844D01*
X82558249Y-90775844D01*
X82497243Y-90628200D01*
X82093923Y-90224176D01*
X81566691Y-90005250D01*
X80995813Y-90004752D01*
X80468200Y-90222757D01*
X80064176Y-90626077D01*
X79845250Y-91153309D01*
X79844752Y-91724187D01*
X71955000Y-91724187D01*
X71955000Y-90775844D01*
X73001071Y-90775844D01*
X73207590Y-91067000D01*
X74437000Y-91067000D01*
X74437000Y-89831172D01*
X75183000Y-89831172D01*
X75183000Y-91067000D01*
X76412410Y-91067000D01*
X76618929Y-90775844D01*
X76558754Y-90630509D01*
X76115859Y-90022909D01*
X75474159Y-89631048D01*
X75183000Y-89831172D01*
X74437000Y-89831172D01*
X74145841Y-89631048D01*
X73504141Y-90022909D01*
X73061246Y-90630509D01*
X73001071Y-90775844D01*
X71955000Y-90775844D01*
X71955000Y-87733167D01*
X72103309Y-87794750D01*
X72674187Y-87795248D01*
X73201800Y-87577243D01*
X73605824Y-87173923D01*
X73659862Y-87043785D01*
X73712757Y-87171800D01*
X74116077Y-87575824D01*
X74643309Y-87794750D01*
X75214187Y-87795248D01*
X75741800Y-87577243D01*
X76145824Y-87173923D01*
X76199862Y-87043785D01*
X76252757Y-87171800D01*
X76656077Y-87575824D01*
X77183309Y-87794750D01*
X77754187Y-87795248D01*
X78281800Y-87577243D01*
X78685824Y-87173923D01*
X78739862Y-87043785D01*
X78792757Y-87171800D01*
X79196077Y-87575824D01*
X79723309Y-87794750D01*
X80294187Y-87795248D01*
X80821800Y-87577243D01*
X81225824Y-87173923D01*
X81279862Y-87043785D01*
X81332757Y-87171800D01*
X81736077Y-87575824D01*
X82263309Y-87794750D01*
X82834187Y-87795248D01*
X83361800Y-87577243D01*
X83765824Y-87173923D01*
X83819862Y-87043785D01*
X83872757Y-87171800D01*
X84276077Y-87575824D01*
X84803309Y-87794750D01*
X85374187Y-87795248D01*
X85901800Y-87577243D01*
X86305824Y-87173923D01*
X86359862Y-87043785D01*
X86412757Y-87171800D01*
X86816077Y-87575824D01*
X87343309Y-87794750D01*
X87914187Y-87795248D01*
X88441800Y-87577243D01*
X88845824Y-87173923D01*
X88899862Y-87043785D01*
X88952757Y-87171800D01*
X89356077Y-87575824D01*
X89883309Y-87794750D01*
X90454187Y-87795248D01*
X90981800Y-87577243D01*
X91385824Y-87173923D01*
X91439862Y-87043785D01*
X91492757Y-87171800D01*
X91896077Y-87575824D01*
X92423309Y-87794750D01*
X92994187Y-87795248D01*
X93521800Y-87577243D01*
X93925824Y-87173923D01*
X94144750Y-86646691D01*
X94145248Y-86075813D01*
X93927243Y-85548200D01*
X93523923Y-85144176D01*
X92996691Y-84925250D01*
X92425813Y-84924752D01*
X91898200Y-85142757D01*
X91494176Y-85546077D01*
X91440138Y-85676215D01*
X91387243Y-85548200D01*
X90983923Y-85144176D01*
X90456691Y-84925250D01*
X89885813Y-84924752D01*
X89358200Y-85142757D01*
X88954176Y-85546077D01*
X88900138Y-85676215D01*
X88847243Y-85548200D01*
X88443923Y-85144176D01*
X87916691Y-84925250D01*
X87345813Y-84924752D01*
X86818200Y-85142757D01*
X86414176Y-85546077D01*
X86360138Y-85676215D01*
X86307243Y-85548200D01*
X85903923Y-85144176D01*
X85376691Y-84925250D01*
X84805813Y-84924752D01*
X84278200Y-85142757D01*
X83874176Y-85546077D01*
X83820138Y-85676215D01*
X83767243Y-85548200D01*
X83363923Y-85144176D01*
X82836691Y-84925250D01*
X82265813Y-84924752D01*
X81738200Y-85142757D01*
X81334176Y-85546077D01*
X81280138Y-85676215D01*
X81227243Y-85548200D01*
X80823923Y-85144176D01*
X80693785Y-85090138D01*
X80821800Y-85037243D01*
X81225824Y-84633923D01*
X81444750Y-84106691D01*
X81445248Y-83535813D01*
X81227243Y-83008200D01*
X80823923Y-82604176D01*
X80693785Y-82550138D01*
X80821800Y-82497243D01*
X81225824Y-82093923D01*
X81444750Y-81566691D01*
X81445248Y-80995813D01*
X81227243Y-80468200D01*
X80823923Y-80064176D01*
X80693785Y-80010138D01*
X80821800Y-79957243D01*
X81225824Y-79553923D01*
X81279862Y-79423785D01*
X81332757Y-79551800D01*
X81736077Y-79955824D01*
X82263309Y-80174750D01*
X82834187Y-80175248D01*
X83361800Y-79957243D01*
X83765824Y-79553923D01*
X83819862Y-79423785D01*
X83872757Y-79551800D01*
X84276077Y-79955824D01*
X84803309Y-80174750D01*
X85374187Y-80175248D01*
X85901800Y-79957243D01*
X86305824Y-79553923D01*
X86359862Y-79423785D01*
X86412757Y-79551800D01*
X86816077Y-79955824D01*
X87343309Y-80174750D01*
X87914187Y-80175248D01*
X88441800Y-79957243D01*
X88845824Y-79553923D01*
X88899862Y-79423785D01*
X88952757Y-79551800D01*
X89356077Y-79955824D01*
X89883309Y-80174750D01*
X90454187Y-80175248D01*
X90981800Y-79957243D01*
X91385824Y-79553923D01*
X91439862Y-79423785D01*
X91492757Y-79551800D01*
X91896077Y-79955824D01*
X92423309Y-80174750D01*
X92994187Y-80175248D01*
X93521800Y-79957243D01*
X93925824Y-79553923D01*
X94144750Y-79026691D01*
X94145248Y-78455813D01*
X93927243Y-77928200D01*
X93523923Y-77524176D01*
X93393785Y-77470138D01*
X93521800Y-77417243D01*
X93925824Y-77013923D01*
X94067667Y-76672325D01*
X99214587Y-76672325D01*
X99576916Y-77549229D01*
X100247242Y-78220726D01*
X101123513Y-78584585D01*
X102072325Y-78585413D01*
X102949229Y-78223084D01*
X103620726Y-77552758D01*
X103984585Y-76676487D01*
X103985413Y-75727675D01*
X103623084Y-74850771D01*
X102952758Y-74179274D01*
X102076487Y-73815415D01*
X101127675Y-73814587D01*
X100250771Y-74176916D01*
X99579274Y-74847242D01*
X99215415Y-75723513D01*
X99214587Y-76672325D01*
X94067667Y-76672325D01*
X94144750Y-76486691D01*
X94145248Y-75915813D01*
X93927243Y-75388200D01*
X93523923Y-74984176D01*
X92996691Y-74765250D01*
X92425813Y-74764752D01*
X91898200Y-74982757D01*
X91494176Y-75386077D01*
X91440138Y-75516215D01*
X91387243Y-75388200D01*
X90983923Y-74984176D01*
X90456691Y-74765250D01*
X89885813Y-74764752D01*
X89358200Y-74982757D01*
X88954176Y-75386077D01*
X88900138Y-75516215D01*
X88847243Y-75388200D01*
X88443923Y-74984176D01*
X87916691Y-74765250D01*
X87345813Y-74764752D01*
X86818200Y-74982757D01*
X86414176Y-75386077D01*
X86360138Y-75516215D01*
X86307243Y-75388200D01*
X85903923Y-74984176D01*
X85376691Y-74765250D01*
X84805813Y-74764752D01*
X84278200Y-74982757D01*
X83874176Y-75386077D01*
X83820138Y-75516215D01*
X83767243Y-75388200D01*
X83363923Y-74984176D01*
X82836691Y-74765250D01*
X82265813Y-74764752D01*
X81738200Y-74982757D01*
X81334176Y-75386077D01*
X81280138Y-75516215D01*
X81227243Y-75388200D01*
X80823923Y-74984176D01*
X80693785Y-74930138D01*
X80821800Y-74877243D01*
X81225824Y-74473923D01*
X81444750Y-73946691D01*
X81445248Y-73375813D01*
X81227243Y-72848200D01*
X80823923Y-72444176D01*
X80693785Y-72390138D01*
X80821800Y-72337243D01*
X81225824Y-71933923D01*
X81279862Y-71803785D01*
X81332757Y-71931800D01*
X81736077Y-72335824D01*
X82263309Y-72554750D01*
X82834187Y-72555248D01*
X83361800Y-72337243D01*
X83765824Y-71933923D01*
X83819862Y-71803785D01*
X83872757Y-71931800D01*
X84276077Y-72335824D01*
X84803309Y-72554750D01*
X85374187Y-72555248D01*
X85901800Y-72337243D01*
X86305824Y-71933923D01*
X86359862Y-71803785D01*
X86412757Y-71931800D01*
X86816077Y-72335824D01*
X87343309Y-72554750D01*
X87914187Y-72555248D01*
X88441800Y-72337243D01*
X88845824Y-71933923D01*
X88899862Y-71803785D01*
X88952757Y-71931800D01*
X89356077Y-72335824D01*
X89883309Y-72554750D01*
X90454187Y-72555248D01*
X90981800Y-72337243D01*
X91385824Y-71933923D01*
X91439862Y-71803785D01*
X91492757Y-71931800D01*
X91896077Y-72335824D01*
X92423309Y-72554750D01*
X92994187Y-72555248D01*
X93521800Y-72337243D01*
X93925824Y-71933923D01*
X94144750Y-71406691D01*
X94145248Y-70835813D01*
X93927243Y-70308200D01*
X93523923Y-69904176D01*
X92996691Y-69685250D01*
X92425813Y-69684752D01*
X91898200Y-69902757D01*
X91494176Y-70306077D01*
X91440138Y-70436215D01*
X91387243Y-70308200D01*
X90983923Y-69904176D01*
X90456691Y-69685250D01*
X89885813Y-69684752D01*
X89358200Y-69902757D01*
X88954176Y-70306077D01*
X88900138Y-70436215D01*
X88847243Y-70308200D01*
X88443923Y-69904176D01*
X87916691Y-69685250D01*
X87345813Y-69684752D01*
X86818200Y-69902757D01*
X86414176Y-70306077D01*
X86360138Y-70436215D01*
X86307243Y-70308200D01*
X85903923Y-69904176D01*
X85376691Y-69685250D01*
X84805813Y-69684752D01*
X84278200Y-69902757D01*
X83874176Y-70306077D01*
X83820138Y-70436215D01*
X83767243Y-70308200D01*
X83363923Y-69904176D01*
X82836691Y-69685250D01*
X82265813Y-69684752D01*
X81738200Y-69902757D01*
X81334176Y-70306077D01*
X81280138Y-70436215D01*
X81227243Y-70308200D01*
X80823923Y-69904176D01*
X80296691Y-69685250D01*
X79725813Y-69684752D01*
X79198200Y-69902757D01*
X78794176Y-70306077D01*
X78740138Y-70436215D01*
X78687243Y-70308200D01*
X78283923Y-69904176D01*
X77756691Y-69685250D01*
X77185813Y-69684752D01*
X76658200Y-69902757D01*
X76254176Y-70306077D01*
X76200138Y-70436215D01*
X76147243Y-70308200D01*
X75743923Y-69904176D01*
X75216691Y-69685250D01*
X74645813Y-69684752D01*
X74118200Y-69902757D01*
X73714176Y-70306077D01*
X73660138Y-70436215D01*
X73607243Y-70308200D01*
X73203923Y-69904176D01*
X72676691Y-69685250D01*
X72105813Y-69684752D01*
X71578200Y-69902757D01*
X71174176Y-70306077D01*
X71120138Y-70436215D01*
X71067243Y-70308200D01*
X70663923Y-69904176D01*
X70136691Y-69685250D01*
X69565813Y-69684752D01*
X69038200Y-69902757D01*
X68634176Y-70306077D01*
X68580138Y-70436215D01*
X68527243Y-70308200D01*
X68123923Y-69904176D01*
X67596691Y-69685250D01*
X67025813Y-69684752D01*
X66498200Y-69902757D01*
X66094176Y-70306077D01*
X66040138Y-70436215D01*
X65987243Y-70308200D01*
X65583923Y-69904176D01*
X65056691Y-69685250D01*
X64485813Y-69684752D01*
X63958200Y-69902757D01*
X63554176Y-70306077D01*
X63500138Y-70436215D01*
X63447243Y-70308200D01*
X63043923Y-69904176D01*
X62516691Y-69685250D01*
X61945813Y-69684752D01*
X61418200Y-69902757D01*
X61014176Y-70306077D01*
X60960138Y-70436215D01*
X60907243Y-70308200D01*
X60503923Y-69904176D01*
X59976691Y-69685250D01*
X59405813Y-69684752D01*
X58878200Y-69902757D01*
X58474176Y-70306077D01*
X58420138Y-70436215D01*
X58367243Y-70308200D01*
X57963923Y-69904176D01*
X57436691Y-69685250D01*
X56865813Y-69684752D01*
X56338200Y-69902757D01*
X55934176Y-70306077D01*
X55880138Y-70436215D01*
X55827243Y-70308200D01*
X55423923Y-69904176D01*
X54896691Y-69685250D01*
X54325813Y-69684752D01*
X53798200Y-69902757D01*
X53394176Y-70306077D01*
X53340138Y-70436215D01*
X53287243Y-70308200D01*
X52883923Y-69904176D01*
X52356691Y-69685250D01*
X51785813Y-69684752D01*
X51258200Y-69902757D01*
X50854176Y-70306077D01*
X50800138Y-70436215D01*
X50747243Y-70308200D01*
X50343923Y-69904176D01*
X49816691Y-69685250D01*
X49245813Y-69684752D01*
X48718200Y-69902757D01*
X48314176Y-70306077D01*
X48260138Y-70436215D01*
X48207243Y-70308200D01*
X47803923Y-69904176D01*
X47276691Y-69685250D01*
X46705813Y-69684752D01*
X46178200Y-69902757D01*
X45774176Y-70306077D01*
X45720138Y-70436215D01*
X45667243Y-70308200D01*
X45263923Y-69904176D01*
X44736691Y-69685250D01*
X44165813Y-69684752D01*
X43638200Y-69902757D01*
X43234176Y-70306077D01*
X43180138Y-70436215D01*
X43127243Y-70308200D01*
X42723923Y-69904176D01*
X42196691Y-69685250D01*
X41625813Y-69684752D01*
X41098200Y-69902757D01*
X40694176Y-70306077D01*
X40640138Y-70436215D01*
X40587243Y-70308200D01*
X40183923Y-69904176D01*
X39656691Y-69685250D01*
X39085813Y-69684752D01*
X38558200Y-69902757D01*
X38154176Y-70306077D01*
X38100138Y-70436215D01*
X38047243Y-70308200D01*
X37643923Y-69904176D01*
X37116691Y-69685250D01*
X36545813Y-69684752D01*
X36018200Y-69902757D01*
X35614176Y-70306077D01*
X35560138Y-70436215D01*
X35507243Y-70308200D01*
X35103923Y-69904176D01*
X34576691Y-69685250D01*
X34005813Y-69684752D01*
X33478200Y-69902757D01*
X33074176Y-70306077D01*
X32855250Y-70833309D01*
X32854752Y-71404187D01*
X20469965Y-71404187D01*
X20523727Y-71323727D01*
X22760979Y-69828844D01*
X25469931Y-69290000D01*
X101530069Y-69290000D01*
X104239021Y-69828844D01*
G36*
X81635600Y-132921214D02*
X81635600Y-133321586D01*
X81294142Y-133663044D01*
X81280000Y-133648902D01*
X81265858Y-133663044D01*
X80738356Y-133135542D01*
X80752498Y-133121400D01*
X80738356Y-133107258D01*
X81265858Y-132579756D01*
X81280000Y-132593898D01*
X81294142Y-132579756D01*
X81635600Y-132921214D01*
X81635600Y-132921214D01*
G37*
X81635600Y-132921214D02*
X81635600Y-133321586D01*
X81294142Y-133663044D01*
X81280000Y-133648902D01*
X81265858Y-133663044D01*
X80738356Y-133135542D01*
X80752498Y-133121400D01*
X80738356Y-133107258D01*
X81265858Y-132579756D01*
X81280000Y-132593898D01*
X81294142Y-132579756D01*
X81635600Y-132921214D01*
G36*
X73915302Y-103912811D02*
X74380849Y-104223880D01*
X74901407Y-104327425D01*
X74339566Y-104889266D01*
X74158561Y-105160159D01*
X74095000Y-105479700D01*
X74095000Y-105526447D01*
X73887189Y-105665302D01*
X73576120Y-106130849D01*
X73466887Y-106680000D01*
X73576120Y-107229151D01*
X73887189Y-107694698D01*
X74095000Y-107833553D01*
X74095000Y-107880300D01*
X74158561Y-108199841D01*
X74339566Y-108470734D01*
X75295400Y-109426568D01*
X75295400Y-110073915D01*
X75183000Y-110151172D01*
X75183000Y-111387000D01*
X75203000Y-111387000D01*
X75203000Y-112133000D01*
X75183000Y-112133000D01*
X75183000Y-113368828D01*
X75295400Y-113446085D01*
X75295400Y-118494832D01*
X74116130Y-117315562D01*
X74120509Y-117318754D01*
X74265844Y-117378929D01*
X74557000Y-117172410D01*
X74557000Y-115943000D01*
X74537000Y-115943000D01*
X74537000Y-115197000D01*
X74557000Y-115197000D01*
X74557000Y-113967590D01*
X74265844Y-113761071D01*
X74120509Y-113821246D01*
X73512909Y-114264141D01*
X73367467Y-114502312D01*
X72939151Y-114216120D01*
X72390000Y-114106887D01*
X71932600Y-114197870D01*
X71932600Y-112424156D01*
X73001071Y-112424156D01*
X73061246Y-112569491D01*
X73504141Y-113177091D01*
X74145841Y-113568952D01*
X74437000Y-113368828D01*
X74437000Y-112133000D01*
X73207590Y-112133000D01*
X73001071Y-112424156D01*
X71932600Y-112424156D01*
X71932600Y-112180600D01*
X71869039Y-111861059D01*
X71688034Y-111590166D01*
X71193712Y-111095844D01*
X73001071Y-111095844D01*
X73207590Y-111387000D01*
X74437000Y-111387000D01*
X74437000Y-110151172D01*
X74145841Y-109951048D01*
X73504141Y-110342909D01*
X73061246Y-110950509D01*
X73001071Y-111095844D01*
X71193712Y-111095844D01*
X68032153Y-107934285D01*
X68121800Y-107897243D01*
X68525824Y-107493923D01*
X68744750Y-106966691D01*
X68745222Y-106425646D01*
X69240134Y-105930734D01*
X69250848Y-105914700D01*
X69421139Y-105659841D01*
X69484700Y-105340300D01*
X69484700Y-104260450D01*
X69850000Y-104333113D01*
X70399151Y-104223880D01*
X70864698Y-103912811D01*
X71120000Y-103530725D01*
X71375302Y-103912811D01*
X71840849Y-104223880D01*
X72390000Y-104333113D01*
X72939151Y-104223880D01*
X73404698Y-103912811D01*
X73660000Y-103530725D01*
X73915302Y-103912811D01*
X73915302Y-103912811D01*
G37*
X73915302Y-103912811D02*
X74380849Y-104223880D01*
X74901407Y-104327425D01*
X74339566Y-104889266D01*
X74158561Y-105160159D01*
X74095000Y-105479700D01*
X74095000Y-105526447D01*
X73887189Y-105665302D01*
X73576120Y-106130849D01*
X73466887Y-106680000D01*
X73576120Y-107229151D01*
X73887189Y-107694698D01*
X74095000Y-107833553D01*
X74095000Y-107880300D01*
X74158561Y-108199841D01*
X74339566Y-108470734D01*
X75295400Y-109426568D01*
X75295400Y-110073915D01*
X75183000Y-110151172D01*
X75183000Y-111387000D01*
X75203000Y-111387000D01*
X75203000Y-112133000D01*
X75183000Y-112133000D01*
X75183000Y-113368828D01*
X75295400Y-113446085D01*
X75295400Y-118494832D01*
X74116130Y-117315562D01*
X74120509Y-117318754D01*
X74265844Y-117378929D01*
X74557000Y-117172410D01*
X74557000Y-115943000D01*
X74537000Y-115943000D01*
X74537000Y-115197000D01*
X74557000Y-115197000D01*
X74557000Y-113967590D01*
X74265844Y-113761071D01*
X74120509Y-113821246D01*
X73512909Y-114264141D01*
X73367467Y-114502312D01*
X72939151Y-114216120D01*
X72390000Y-114106887D01*
X71932600Y-114197870D01*
X71932600Y-112424156D01*
X73001071Y-112424156D01*
X73061246Y-112569491D01*
X73504141Y-113177091D01*
X74145841Y-113568952D01*
X74437000Y-113368828D01*
X74437000Y-112133000D01*
X73207590Y-112133000D01*
X73001071Y-112424156D01*
X71932600Y-112424156D01*
X71932600Y-112180600D01*
X71869039Y-111861059D01*
X71688034Y-111590166D01*
X71193712Y-111095844D01*
X73001071Y-111095844D01*
X73207590Y-111387000D01*
X74437000Y-111387000D01*
X74437000Y-110151172D01*
X74145841Y-109951048D01*
X73504141Y-110342909D01*
X73061246Y-110950509D01*
X73001071Y-111095844D01*
X71193712Y-111095844D01*
X68032153Y-107934285D01*
X68121800Y-107897243D01*
X68525824Y-107493923D01*
X68744750Y-106966691D01*
X68745222Y-106425646D01*
X69240134Y-105930734D01*
X69250848Y-105914700D01*
X69421139Y-105659841D01*
X69484700Y-105340300D01*
X69484700Y-104260450D01*
X69850000Y-104333113D01*
X70399151Y-104223880D01*
X70864698Y-103912811D01*
X71120000Y-103530725D01*
X71375302Y-103912811D01*
X71840849Y-104223880D01*
X72390000Y-104333113D01*
X72939151Y-104223880D01*
X73404698Y-103912811D01*
X73660000Y-103530725D01*
X73915302Y-103912811D01*
G36*
X47363000Y-94877000D02*
X47383000Y-94877000D01*
X47383000Y-95623000D01*
X47363000Y-95623000D01*
X47363000Y-96852410D01*
X47654156Y-97058929D01*
X47656284Y-97058048D01*
X45059966Y-99654366D01*
X44878961Y-99925259D01*
X44815400Y-100244800D01*
X44815400Y-101479570D01*
X44450000Y-101406887D01*
X43900849Y-101516120D01*
X43435302Y-101827189D01*
X43180000Y-102209275D01*
X42924698Y-101827189D01*
X42459151Y-101516120D01*
X41910000Y-101406887D01*
X41405400Y-101507258D01*
X41405400Y-98135768D01*
X42500434Y-97040735D01*
X42626268Y-96852410D01*
X42681439Y-96769841D01*
X42745000Y-96450300D01*
X42745000Y-96412882D01*
X42924698Y-96292811D01*
X43180000Y-95910725D01*
X43435302Y-96292811D01*
X43900849Y-96603880D01*
X44450000Y-96713113D01*
X44999151Y-96603880D01*
X45427467Y-96317688D01*
X45572909Y-96555859D01*
X46180509Y-96998754D01*
X46325844Y-97058929D01*
X46617000Y-96852410D01*
X46617000Y-95623000D01*
X46597000Y-95623000D01*
X46597000Y-94877000D01*
X46617000Y-94877000D01*
X46617000Y-94857000D01*
X47363000Y-94857000D01*
X47363000Y-94877000D01*
X47363000Y-94877000D01*
G37*
X47363000Y-94877000D02*
X47383000Y-94877000D01*
X47383000Y-95623000D01*
X47363000Y-95623000D01*
X47363000Y-96852410D01*
X47654156Y-97058929D01*
X47656284Y-97058048D01*
X45059966Y-99654366D01*
X44878961Y-99925259D01*
X44815400Y-100244800D01*
X44815400Y-101479570D01*
X44450000Y-101406887D01*
X43900849Y-101516120D01*
X43435302Y-101827189D01*
X43180000Y-102209275D01*
X42924698Y-101827189D01*
X42459151Y-101516120D01*
X41910000Y-101406887D01*
X41405400Y-101507258D01*
X41405400Y-98135768D01*
X42500434Y-97040735D01*
X42626268Y-96852410D01*
X42681439Y-96769841D01*
X42745000Y-96450300D01*
X42745000Y-96412882D01*
X42924698Y-96292811D01*
X43180000Y-95910725D01*
X43435302Y-96292811D01*
X43900849Y-96603880D01*
X44450000Y-96713113D01*
X44999151Y-96603880D01*
X45427467Y-96317688D01*
X45572909Y-96555859D01*
X46180509Y-96998754D01*
X46325844Y-97058929D01*
X46617000Y-96852410D01*
X46617000Y-95623000D01*
X46597000Y-95623000D01*
X46597000Y-94877000D01*
X46617000Y-94877000D01*
X46617000Y-94857000D01*
X47363000Y-94857000D01*
X47363000Y-94877000D01*
G36*
X68632757Y-87171800D02*
X69036077Y-87575824D01*
X69563309Y-87794750D01*
X70134187Y-87795248D01*
X70285000Y-87732933D01*
X70285000Y-93873414D01*
X69850000Y-93786887D01*
X69300849Y-93896120D01*
X68835302Y-94207189D01*
X68580000Y-94589275D01*
X68324698Y-94207189D01*
X67859151Y-93896120D01*
X67310000Y-93786887D01*
X66760849Y-93896120D01*
X66295302Y-94207189D01*
X65984233Y-94672736D01*
X65875000Y-95221887D01*
X65875000Y-95278113D01*
X65984233Y-95827264D01*
X66295302Y-96292811D01*
X66760849Y-96603880D01*
X67310000Y-96713113D01*
X67859151Y-96603880D01*
X68324698Y-96292811D01*
X68580000Y-95910725D01*
X68831825Y-96287607D01*
X68059266Y-97060166D01*
X67878261Y-97331059D01*
X67814700Y-97650600D01*
X67814700Y-101422560D01*
X66510000Y-101422560D01*
X66309700Y-101460249D01*
X66309700Y-97790100D01*
X66246139Y-97470559D01*
X66065134Y-97199666D01*
X61883048Y-93017580D01*
X62145859Y-92857091D01*
X62588754Y-92249491D01*
X62648929Y-92104156D01*
X62442410Y-91813000D01*
X61213000Y-91813000D01*
X61213000Y-91833000D01*
X60698468Y-91833000D01*
X60589655Y-91724187D01*
X65874752Y-91724187D01*
X66092757Y-92251800D01*
X66496077Y-92655824D01*
X67023309Y-92874750D01*
X67594187Y-92875248D01*
X68121800Y-92657243D01*
X68525824Y-92253923D01*
X68744750Y-91726691D01*
X68745248Y-91155813D01*
X68527243Y-90628200D01*
X68123923Y-90224176D01*
X67596691Y-90005250D01*
X67025813Y-90004752D01*
X66498200Y-90222757D01*
X66094176Y-90626077D01*
X65875250Y-91153309D01*
X65874752Y-91724187D01*
X60589655Y-91724187D01*
X60447000Y-91581532D01*
X60447000Y-91067000D01*
X60467000Y-91067000D01*
X60467000Y-89831172D01*
X61213000Y-89831172D01*
X61213000Y-91067000D01*
X62442410Y-91067000D01*
X62648929Y-90775844D01*
X62588754Y-90630509D01*
X62145859Y-90022909D01*
X61504159Y-89631048D01*
X61213000Y-89831172D01*
X60467000Y-89831172D01*
X60175841Y-89631048D01*
X59534141Y-90022909D01*
X59261883Y-90396415D01*
X59255000Y-90389532D01*
X59255000Y-87733167D01*
X59403309Y-87794750D01*
X59974187Y-87795248D01*
X60501800Y-87577243D01*
X60905824Y-87173923D01*
X60959862Y-87043785D01*
X61012757Y-87171800D01*
X61416077Y-87575824D01*
X61943309Y-87794750D01*
X62514187Y-87795248D01*
X63041800Y-87577243D01*
X63445824Y-87173923D01*
X63499862Y-87043785D01*
X63552757Y-87171800D01*
X63956077Y-87575824D01*
X64483309Y-87794750D01*
X65054187Y-87795248D01*
X65581800Y-87577243D01*
X65985824Y-87173923D01*
X66039862Y-87043785D01*
X66092757Y-87171800D01*
X66496077Y-87575824D01*
X67023309Y-87794750D01*
X67594187Y-87795248D01*
X68121800Y-87577243D01*
X68525824Y-87173923D01*
X68579862Y-87043785D01*
X68632757Y-87171800D01*
X68632757Y-87171800D01*
G37*
X68632757Y-87171800D02*
X69036077Y-87575824D01*
X69563309Y-87794750D01*
X70134187Y-87795248D01*
X70285000Y-87732933D01*
X70285000Y-93873414D01*
X69850000Y-93786887D01*
X69300849Y-93896120D01*
X68835302Y-94207189D01*
X68580000Y-94589275D01*
X68324698Y-94207189D01*
X67859151Y-93896120D01*
X67310000Y-93786887D01*
X66760849Y-93896120D01*
X66295302Y-94207189D01*
X65984233Y-94672736D01*
X65875000Y-95221887D01*
X65875000Y-95278113D01*
X65984233Y-95827264D01*
X66295302Y-96292811D01*
X66760849Y-96603880D01*
X67310000Y-96713113D01*
X67859151Y-96603880D01*
X68324698Y-96292811D01*
X68580000Y-95910725D01*
X68831825Y-96287607D01*
X68059266Y-97060166D01*
X67878261Y-97331059D01*
X67814700Y-97650600D01*
X67814700Y-101422560D01*
X66510000Y-101422560D01*
X66309700Y-101460249D01*
X66309700Y-97790100D01*
X66246139Y-97470559D01*
X66065134Y-97199666D01*
X61883048Y-93017580D01*
X62145859Y-92857091D01*
X62588754Y-92249491D01*
X62648929Y-92104156D01*
X62442410Y-91813000D01*
X61213000Y-91813000D01*
X61213000Y-91833000D01*
X60698468Y-91833000D01*
X60589655Y-91724187D01*
X65874752Y-91724187D01*
X66092757Y-92251800D01*
X66496077Y-92655824D01*
X67023309Y-92874750D01*
X67594187Y-92875248D01*
X68121800Y-92657243D01*
X68525824Y-92253923D01*
X68744750Y-91726691D01*
X68745248Y-91155813D01*
X68527243Y-90628200D01*
X68123923Y-90224176D01*
X67596691Y-90005250D01*
X67025813Y-90004752D01*
X66498200Y-90222757D01*
X66094176Y-90626077D01*
X65875250Y-91153309D01*
X65874752Y-91724187D01*
X60589655Y-91724187D01*
X60447000Y-91581532D01*
X60447000Y-91067000D01*
X60467000Y-91067000D01*
X60467000Y-89831172D01*
X61213000Y-89831172D01*
X61213000Y-91067000D01*
X62442410Y-91067000D01*
X62648929Y-90775844D01*
X62588754Y-90630509D01*
X62145859Y-90022909D01*
X61504159Y-89631048D01*
X61213000Y-89831172D01*
X60467000Y-89831172D01*
X60175841Y-89631048D01*
X59534141Y-90022909D01*
X59261883Y-90396415D01*
X59255000Y-90389532D01*
X59255000Y-87733167D01*
X59403309Y-87794750D01*
X59974187Y-87795248D01*
X60501800Y-87577243D01*
X60905824Y-87173923D01*
X60959862Y-87043785D01*
X61012757Y-87171800D01*
X61416077Y-87575824D01*
X61943309Y-87794750D01*
X62514187Y-87795248D01*
X63041800Y-87577243D01*
X63445824Y-87173923D01*
X63499862Y-87043785D01*
X63552757Y-87171800D01*
X63956077Y-87575824D01*
X64483309Y-87794750D01*
X65054187Y-87795248D01*
X65581800Y-87577243D01*
X65985824Y-87173923D01*
X66039862Y-87043785D01*
X66092757Y-87171800D01*
X66496077Y-87575824D01*
X67023309Y-87794750D01*
X67594187Y-87795248D01*
X68121800Y-87577243D01*
X68525824Y-87173923D01*
X68579862Y-87043785D01*
X68632757Y-87171800D01*
G36*
X48312757Y-87171800D02*
X48695000Y-87554710D01*
X48695000Y-91066998D01*
X48472411Y-91066998D01*
X48678929Y-90775844D01*
X48618754Y-90630509D01*
X48175859Y-90022909D01*
X47534159Y-89631048D01*
X47243000Y-89831172D01*
X47243000Y-91067000D01*
X47263000Y-91067000D01*
X47263000Y-91813000D01*
X47243000Y-91813000D01*
X47243000Y-91833000D01*
X46707568Y-91833000D01*
X46477000Y-91602432D01*
X46477000Y-91067000D01*
X46497000Y-91067000D01*
X46497000Y-89831172D01*
X46205841Y-89631048D01*
X45564141Y-90022909D01*
X45283071Y-90408503D01*
X42745000Y-87870432D01*
X42745000Y-87554083D01*
X43125824Y-87173923D01*
X43179862Y-87043785D01*
X43232757Y-87171800D01*
X43636077Y-87575824D01*
X44163309Y-87794750D01*
X44734187Y-87795248D01*
X45261800Y-87577243D01*
X45665824Y-87173923D01*
X45719862Y-87043785D01*
X45772757Y-87171800D01*
X46176077Y-87575824D01*
X46703309Y-87794750D01*
X47274187Y-87795248D01*
X47801800Y-87577243D01*
X48205824Y-87173923D01*
X48259862Y-87043785D01*
X48312757Y-87171800D01*
X48312757Y-87171800D01*
G37*
X48312757Y-87171800D02*
X48695000Y-87554710D01*
X48695000Y-91066998D01*
X48472411Y-91066998D01*
X48678929Y-90775844D01*
X48618754Y-90630509D01*
X48175859Y-90022909D01*
X47534159Y-89631048D01*
X47243000Y-89831172D01*
X47243000Y-91067000D01*
X47263000Y-91067000D01*
X47263000Y-91813000D01*
X47243000Y-91813000D01*
X47243000Y-91833000D01*
X46707568Y-91833000D01*
X46477000Y-91602432D01*
X46477000Y-91067000D01*
X46497000Y-91067000D01*
X46497000Y-89831172D01*
X46205841Y-89631048D01*
X45564141Y-90022909D01*
X45283071Y-90408503D01*
X42745000Y-87870432D01*
X42745000Y-87554083D01*
X43125824Y-87173923D01*
X43179862Y-87043785D01*
X43232757Y-87171800D01*
X43636077Y-87575824D01*
X44163309Y-87794750D01*
X44734187Y-87795248D01*
X45261800Y-87577243D01*
X45665824Y-87173923D01*
X45719862Y-87043785D01*
X45772757Y-87171800D01*
X46176077Y-87575824D01*
X46703309Y-87794750D01*
X47274187Y-87795248D01*
X47801800Y-87577243D01*
X48205824Y-87173923D01*
X48259862Y-87043785D01*
X48312757Y-87171800D01*
G36*
X52611644Y-135647258D02*
X52597502Y-135661400D01*
X53457221Y-136521120D01*
X53503566Y-136513431D01*
X53824436Y-136834861D01*
X54333298Y-137046159D01*
X54884285Y-137046640D01*
X54925400Y-137029652D01*
X54925400Y-137053332D01*
X54019566Y-137959166D01*
X53838561Y-138230059D01*
X53805983Y-138393837D01*
X53616702Y-138315241D01*
X53135689Y-138314821D01*
X52339912Y-137519044D01*
X52732047Y-137457013D01*
X52871551Y-137399227D01*
X52929720Y-137048621D01*
X52070000Y-136188902D01*
X52055858Y-136203044D01*
X51716300Y-135863486D01*
X51716300Y-135459314D01*
X52055858Y-135119756D01*
X52070000Y-135133898D01*
X52084142Y-135119756D01*
X52611644Y-135647258D01*
X52611644Y-135647258D01*
G37*
X52611644Y-135647258D02*
X52597502Y-135661400D01*
X53457221Y-136521120D01*
X53503566Y-136513431D01*
X53824436Y-136834861D01*
X54333298Y-137046159D01*
X54884285Y-137046640D01*
X54925400Y-137029652D01*
X54925400Y-137053332D01*
X54019566Y-137959166D01*
X53838561Y-138230059D01*
X53805983Y-138393837D01*
X53616702Y-138315241D01*
X53135689Y-138314821D01*
X52339912Y-137519044D01*
X52732047Y-137457013D01*
X52871551Y-137399227D01*
X52929720Y-137048621D01*
X52070000Y-136188902D01*
X52055858Y-136203044D01*
X51716300Y-135863486D01*
X51716300Y-135459314D01*
X52055858Y-135119756D01*
X52070000Y-135133898D01*
X52084142Y-135119756D01*
X52611644Y-135647258D01*
M02*
