G04 #@! TF.FileFunction,Copper,L1,Top,Signal*
%FSLAX46Y46*%
G04 Gerber Fmt 4.6, Leading zero omitted, Abs format (unit mm)*
G04 Created by KiCad (PCBNEW 4.0.6) date Sun May 21 15:13:16 2017*
%MOMM*%
%LPD*%
G01*
G04 APERTURE LIST*
%ADD10C,0.100000*%
%ADD11C,3.650000*%
%ADD12R,1.500000X1.500000*%
%ADD13C,1.500000*%
%ADD14C,1.600000*%
%ADD15O,1.600000X1.600000*%
%ADD16R,1.600000X1.600000*%
%ADD17C,1.524000*%
%ADD18C,0.400000*%
%ADD19C,0.400000*%
%ADD20C,2.000000*%
%ADD21C,0.254000*%
G04 APERTURE END LIST*
D10*
D11*
X174210000Y-113030000D03*
X162340000Y-113030000D03*
D12*
X163830000Y-106680000D03*
D13*
X165100000Y-104140000D03*
X166370000Y-106680000D03*
X167640000Y-104140000D03*
X168910000Y-106680000D03*
X170180000Y-104140000D03*
X171450000Y-106680000D03*
X172720000Y-104140000D03*
D11*
X58640000Y-113030000D03*
X46770000Y-113030000D03*
D12*
X48260000Y-106680000D03*
D13*
X49530000Y-104140000D03*
X50800000Y-106680000D03*
X52070000Y-104140000D03*
X53340000Y-106680000D03*
X54610000Y-104140000D03*
X55880000Y-106680000D03*
X57150000Y-104140000D03*
D11*
X75150000Y-113030000D03*
X63280000Y-113030000D03*
D12*
X64770000Y-106680000D03*
D13*
X66040000Y-104140000D03*
X67310000Y-106680000D03*
X68580000Y-104140000D03*
X69850000Y-106680000D03*
X71120000Y-104140000D03*
X72390000Y-106680000D03*
X73660000Y-104140000D03*
D11*
X91660000Y-113030000D03*
X79790000Y-113030000D03*
D12*
X81280000Y-106680000D03*
D13*
X82550000Y-104140000D03*
X83820000Y-106680000D03*
X85090000Y-104140000D03*
X86360000Y-106680000D03*
X87630000Y-104140000D03*
X88900000Y-106680000D03*
X90170000Y-104140000D03*
D11*
X108170000Y-113030000D03*
X96300000Y-113030000D03*
D12*
X97790000Y-106680000D03*
D13*
X99060000Y-104140000D03*
X100330000Y-106680000D03*
X101600000Y-104140000D03*
X102870000Y-106680000D03*
X104140000Y-104140000D03*
X105410000Y-106680000D03*
X106680000Y-104140000D03*
D11*
X124680000Y-113030000D03*
X112810000Y-113030000D03*
D12*
X114300000Y-106680000D03*
D13*
X115570000Y-104140000D03*
X116840000Y-106680000D03*
X118110000Y-104140000D03*
X119380000Y-106680000D03*
X120650000Y-104140000D03*
X121920000Y-106680000D03*
X123190000Y-104140000D03*
D11*
X141190000Y-113030000D03*
X129320000Y-113030000D03*
D12*
X130810000Y-106680000D03*
D13*
X132080000Y-104140000D03*
X133350000Y-106680000D03*
X134620000Y-104140000D03*
X135890000Y-106680000D03*
X137160000Y-104140000D03*
X138430000Y-106680000D03*
X139700000Y-104140000D03*
D11*
X157700000Y-113030000D03*
X145830000Y-113030000D03*
D12*
X147320000Y-106680000D03*
D13*
X148590000Y-104140000D03*
X149860000Y-106680000D03*
X151130000Y-104140000D03*
X152400000Y-106680000D03*
X153670000Y-104140000D03*
X154940000Y-106680000D03*
X156210000Y-104140000D03*
D14*
X66675000Y-100330000D03*
D15*
X74295000Y-100330000D03*
D14*
X83185000Y-100330000D03*
D15*
X90805000Y-100330000D03*
D14*
X99695000Y-100330000D03*
D15*
X107315000Y-100330000D03*
D14*
X116205000Y-100330000D03*
D15*
X123825000Y-100330000D03*
D14*
X132715000Y-100330000D03*
D15*
X140335000Y-100330000D03*
D14*
X147320000Y-100330000D03*
D15*
X154940000Y-100330000D03*
D14*
X167640000Y-98425000D03*
D15*
X175260000Y-98425000D03*
D14*
X53340000Y-100330000D03*
D15*
X45720000Y-100330000D03*
D14*
X146050000Y-77470000D03*
D15*
X138430000Y-77470000D03*
D14*
X146050000Y-73660000D03*
D15*
X138430000Y-73660000D03*
D14*
X47625000Y-85725000D03*
X52625000Y-85725000D03*
X67945000Y-85725000D03*
X72945000Y-85725000D03*
X84455000Y-85725000D03*
X89455000Y-85725000D03*
X100965000Y-85725000D03*
X105965000Y-85725000D03*
X117475000Y-85725000D03*
X122475000Y-85725000D03*
X133985000Y-85725000D03*
X138985000Y-85725000D03*
X148590000Y-85725000D03*
X153590000Y-85725000D03*
X168910000Y-84455000D03*
X173910000Y-84455000D03*
X139065000Y-67310000D03*
X139065000Y-62310000D03*
D16*
X46355000Y-96520000D03*
D15*
X53975000Y-88900000D03*
X48895000Y-96520000D03*
X51435000Y-88900000D03*
X51435000Y-96520000D03*
X48895000Y-88900000D03*
X53975000Y-96520000D03*
X46355000Y-88900000D03*
D16*
X66675000Y-96520000D03*
D15*
X74295000Y-88900000D03*
X69215000Y-96520000D03*
X71755000Y-88900000D03*
X71755000Y-96520000D03*
X69215000Y-88900000D03*
X74295000Y-96520000D03*
X66675000Y-88900000D03*
D16*
X83185000Y-96520000D03*
D15*
X90805000Y-88900000D03*
X85725000Y-96520000D03*
X88265000Y-88900000D03*
X88265000Y-96520000D03*
X85725000Y-88900000D03*
X90805000Y-96520000D03*
X83185000Y-88900000D03*
D16*
X99695000Y-96520000D03*
D15*
X107315000Y-88900000D03*
X102235000Y-96520000D03*
X104775000Y-88900000D03*
X104775000Y-96520000D03*
X102235000Y-88900000D03*
X107315000Y-96520000D03*
X99695000Y-88900000D03*
D16*
X116205000Y-96520000D03*
D15*
X123825000Y-88900000D03*
X118745000Y-96520000D03*
X121285000Y-88900000D03*
X121285000Y-96520000D03*
X118745000Y-88900000D03*
X123825000Y-96520000D03*
X116205000Y-88900000D03*
D16*
X132715000Y-96520000D03*
D15*
X140335000Y-88900000D03*
X135255000Y-96520000D03*
X137795000Y-88900000D03*
X137795000Y-96520000D03*
X135255000Y-88900000D03*
X140335000Y-96520000D03*
X132715000Y-88900000D03*
D16*
X147320000Y-96520000D03*
D15*
X154940000Y-88900000D03*
X149860000Y-96520000D03*
X152400000Y-88900000D03*
X152400000Y-96520000D03*
X149860000Y-88900000D03*
X154940000Y-96520000D03*
X147320000Y-88900000D03*
D16*
X167640000Y-95250000D03*
D15*
X175260000Y-87630000D03*
X170180000Y-95250000D03*
X172720000Y-87630000D03*
X172720000Y-95250000D03*
X170180000Y-87630000D03*
X175260000Y-95250000D03*
X167640000Y-87630000D03*
D14*
X107950000Y-72390000D03*
X110490000Y-72390000D03*
X113030000Y-72390000D03*
X115570000Y-72390000D03*
X105410000Y-72390000D03*
X102870000Y-72390000D03*
X100330000Y-72390000D03*
X118110000Y-72390000D03*
X120650000Y-72390000D03*
X123190000Y-72390000D03*
X125730000Y-72390000D03*
X113030000Y-69850000D03*
X113030000Y-67310000D03*
X113030000Y-64770000D03*
X113030000Y-62230000D03*
X113030000Y-59690000D03*
X125730000Y-57150000D03*
X123190000Y-57150000D03*
X120650000Y-57150000D03*
X118110000Y-57150000D03*
X115570000Y-57150000D03*
X113030000Y-57150000D03*
X110490000Y-57150000D03*
X107950000Y-57150000D03*
X97790000Y-72390000D03*
X95250000Y-72390000D03*
X92710000Y-72390000D03*
X90170000Y-72390000D03*
X87630000Y-72390000D03*
X85090000Y-72390000D03*
X82550000Y-72390000D03*
X80010000Y-72390000D03*
X77470000Y-72390000D03*
X74930000Y-72390000D03*
X72390000Y-72390000D03*
X69850000Y-72390000D03*
D16*
X67310000Y-72390000D03*
D14*
X105410000Y-57150000D03*
X102870000Y-57150000D03*
X100330000Y-57150000D03*
X97790000Y-57150000D03*
X95250000Y-57150000D03*
X92710000Y-57150000D03*
X90170000Y-57150000D03*
X87630000Y-57150000D03*
X85090000Y-57150000D03*
X82550000Y-57150000D03*
X80010000Y-57150000D03*
X77470000Y-57150000D03*
X74930000Y-57150000D03*
X72390000Y-57150000D03*
X69850000Y-57150000D03*
X67310000Y-57150000D03*
X69850000Y-59690000D03*
X74930000Y-59690000D03*
X77470000Y-59690000D03*
X80010000Y-59690000D03*
X82550000Y-64770000D03*
X85090000Y-64770000D03*
X87630000Y-64770000D03*
X90170000Y-64770000D03*
X105410000Y-64770000D03*
X107950000Y-64770000D03*
X110490000Y-64770000D03*
X115570000Y-64770000D03*
X118110000Y-64770000D03*
X120650000Y-64770000D03*
X123190000Y-64770000D03*
X125730000Y-64770000D03*
X125730000Y-62230000D03*
X123190000Y-62230000D03*
X120650000Y-62230000D03*
X118110000Y-62230000D03*
X115570000Y-62230000D03*
X110490000Y-62230000D03*
X107950000Y-62230000D03*
X105410000Y-62230000D03*
X90170000Y-62230000D03*
X87630000Y-62230000D03*
X85090000Y-62230000D03*
X82550000Y-62230000D03*
D17*
X135890000Y-60960000D03*
X133350000Y-60960000D03*
X135890000Y-63500000D03*
X133350000Y-63500000D03*
X135890000Y-66040000D03*
X133350000Y-66040000D03*
X135890000Y-68580000D03*
X133350000Y-68580000D03*
D18*
X87690800Y-60116200D03*
D19*
X174059700Y-94877000D02*
X174059700Y-95250000D01*
X171962300Y-92779600D02*
X174059700Y-94877000D01*
X147446500Y-92779600D02*
X171962300Y-92779600D01*
X141592300Y-86925400D02*
X147446500Y-92779600D01*
X97085400Y-86925400D02*
X141592300Y-86925400D01*
X82550000Y-72390000D02*
X97085400Y-86925400D01*
X175260000Y-95250000D02*
X174059700Y-95250000D01*
X53975000Y-93345000D02*
X53975000Y-96520000D01*
X74930000Y-72390000D02*
X53975000Y-93345000D01*
X81280000Y-88334700D02*
X74295000Y-95319700D01*
X81280000Y-71926400D02*
X81280000Y-88334700D01*
X83511200Y-69695200D02*
X81280000Y-71926400D01*
X86989400Y-69695200D02*
X83511200Y-69695200D01*
X97790000Y-58894600D02*
X86989400Y-69695200D01*
X97790000Y-57150000D02*
X97790000Y-58894600D01*
X74295000Y-96520000D02*
X74295000Y-95319700D01*
X85516200Y-60116200D02*
X87690800Y-60116200D01*
X82550000Y-57150000D02*
X85516200Y-60116200D01*
X45968700Y-99129700D02*
X45720000Y-99129700D01*
X47555400Y-97543000D02*
X45968700Y-99129700D01*
X47555400Y-93979900D02*
X47555400Y-97543000D01*
X51435000Y-90100300D02*
X47555400Y-93979900D01*
X51435000Y-88900000D02*
X51435000Y-90100300D01*
X45720000Y-100330000D02*
X45720000Y-99129700D01*
X90805000Y-100330000D02*
X90805000Y-99729800D01*
X81280000Y-106680000D02*
X82430300Y-106680000D01*
X89535000Y-91370300D02*
X89535000Y-99729800D01*
X88265000Y-90100300D02*
X89535000Y-91370300D01*
X90805000Y-99729800D02*
X89535000Y-99729800D01*
X82430300Y-105889800D02*
X82430300Y-106680000D01*
X83939600Y-104380500D02*
X82430300Y-105889800D01*
X83939600Y-103663500D02*
X83939600Y-104380500D01*
X87873300Y-99729800D02*
X83939600Y-103663500D01*
X89535000Y-99729800D02*
X87873300Y-99729800D01*
X88265000Y-88900000D02*
X88265000Y-90100300D01*
X107315000Y-100330000D02*
X107315000Y-99729800D01*
X97790000Y-106680000D02*
X98940300Y-106680000D01*
X106045000Y-91370300D02*
X106045000Y-99729800D01*
X104775000Y-90100300D02*
X106045000Y-91370300D01*
X107315000Y-99729800D02*
X106045000Y-99729800D01*
X98940300Y-105889800D02*
X98940300Y-106680000D01*
X100449600Y-104380500D02*
X98940300Y-105889800D01*
X100449600Y-103663500D02*
X100449600Y-104380500D01*
X104383300Y-99729800D02*
X100449600Y-103663500D01*
X106045000Y-99729800D02*
X104383300Y-99729800D01*
X104775000Y-88900000D02*
X104775000Y-90100300D01*
X123825000Y-100330000D02*
X123825000Y-99729800D01*
X114300000Y-106680000D02*
X115450300Y-106680000D01*
X122555000Y-91370300D02*
X122555000Y-99729800D01*
X121285000Y-90100300D02*
X122555000Y-91370300D01*
X123825000Y-99729800D02*
X122555000Y-99729800D01*
X115450300Y-105889800D02*
X115450300Y-106680000D01*
X116959600Y-104380500D02*
X115450300Y-105889800D01*
X116959600Y-103663500D02*
X116959600Y-104380500D01*
X120893300Y-99729800D02*
X116959600Y-103663500D01*
X122555000Y-99729800D02*
X120893300Y-99729800D01*
X121285000Y-88900000D02*
X121285000Y-90100300D01*
X117544700Y-98990300D02*
X116205000Y-100330000D01*
X117544700Y-91300600D02*
X117544700Y-98990300D01*
X118745000Y-90100300D02*
X117544700Y-91300600D01*
X118745000Y-88900000D02*
X118745000Y-90100300D01*
X140335000Y-100330000D02*
X140335000Y-99729800D01*
X130810000Y-106680000D02*
X131960300Y-106680000D01*
X139065000Y-91370300D02*
X139065000Y-99729800D01*
X137795000Y-90100300D02*
X139065000Y-91370300D01*
X140335000Y-99729800D02*
X139065000Y-99729800D01*
X131960300Y-105889800D02*
X131960300Y-106680000D01*
X133469600Y-104380500D02*
X131960300Y-105889800D01*
X133469600Y-103663500D02*
X133469600Y-104380500D01*
X137403300Y-99729800D02*
X133469600Y-103663500D01*
X139065000Y-99729800D02*
X137403300Y-99729800D01*
X137795000Y-88900000D02*
X137795000Y-90100300D01*
X134054700Y-98990300D02*
X132715000Y-100330000D01*
X134054700Y-91300600D02*
X134054700Y-98990300D01*
X135255000Y-90100300D02*
X134054700Y-91300600D01*
X135255000Y-88900000D02*
X135255000Y-90100300D01*
X148470300Y-106392300D02*
X148470300Y-106680000D01*
X149332900Y-105529700D02*
X148470300Y-106392300D01*
X151408000Y-105529700D02*
X149332900Y-105529700D01*
X152400000Y-104537700D02*
X151408000Y-105529700D01*
X152400000Y-103770200D02*
X152400000Y-104537700D01*
X154639900Y-101530300D02*
X152400000Y-103770200D01*
X154940000Y-101530300D02*
X154639900Y-101530300D01*
X154940000Y-100330000D02*
X154940000Y-101530300D01*
X147320000Y-106680000D02*
X148470300Y-106680000D01*
D20*
X139065000Y-69215000D02*
X139065000Y-67310000D01*
X138430000Y-69850000D02*
X139065000Y-69215000D01*
X137795000Y-69850000D02*
X138430000Y-69850000D01*
X135255000Y-72390000D02*
X137795000Y-69850000D01*
X133350000Y-72390000D02*
X135255000Y-72390000D01*
X133350000Y-72390000D02*
X133350000Y-68580000D01*
X130175000Y-75565000D02*
X133350000Y-72390000D01*
X104140000Y-75565000D02*
X130175000Y-75565000D01*
X102870000Y-74295000D02*
X104140000Y-75565000D01*
X102870000Y-72390000D02*
X102870000Y-74295000D01*
X146050000Y-77470000D02*
X146050000Y-73660000D01*
X145415000Y-73660000D02*
X139065000Y-67310000D01*
X146050000Y-73660000D02*
X145415000Y-73660000D01*
D19*
X123190000Y-71120000D02*
X123190000Y-72390000D01*
X133350000Y-60960000D02*
X123190000Y-71120000D01*
D21*
G36*
X174387005Y-54395498D02*
X175800221Y-55339779D01*
X176744502Y-56752997D01*
X177090000Y-58489931D01*
X177090000Y-116770069D01*
X176744502Y-118507003D01*
X175800221Y-119920221D01*
X174387005Y-120864502D01*
X172650069Y-121210000D01*
X48329931Y-121210000D01*
X46592997Y-120864502D01*
X45179779Y-119920221D01*
X44235498Y-118507005D01*
X43890000Y-116770069D01*
X43890000Y-113517177D01*
X44309574Y-113517177D01*
X44683298Y-114421657D01*
X45374703Y-115114270D01*
X46278529Y-115489572D01*
X47257177Y-115490426D01*
X48161657Y-115116702D01*
X48854270Y-114425297D01*
X49229572Y-113521471D01*
X49229575Y-113517177D01*
X56179574Y-113517177D01*
X56553298Y-114421657D01*
X57244703Y-115114270D01*
X58148529Y-115489572D01*
X59127177Y-115490426D01*
X60031657Y-115116702D01*
X60724270Y-114425297D01*
X60960117Y-113857316D01*
X61193298Y-114421657D01*
X61884703Y-115114270D01*
X62788529Y-115489572D01*
X63767177Y-115490426D01*
X64671657Y-115116702D01*
X65364270Y-114425297D01*
X65739572Y-113521471D01*
X65739575Y-113517177D01*
X72689574Y-113517177D01*
X73063298Y-114421657D01*
X73754703Y-115114270D01*
X74658529Y-115489572D01*
X75637177Y-115490426D01*
X76541657Y-115116702D01*
X77234270Y-114425297D01*
X77470117Y-113857316D01*
X77703298Y-114421657D01*
X78394703Y-115114270D01*
X79298529Y-115489572D01*
X80277177Y-115490426D01*
X81181657Y-115116702D01*
X81874270Y-114425297D01*
X82249572Y-113521471D01*
X82249575Y-113517177D01*
X89199574Y-113517177D01*
X89573298Y-114421657D01*
X90264703Y-115114270D01*
X91168529Y-115489572D01*
X92147177Y-115490426D01*
X93051657Y-115116702D01*
X93744270Y-114425297D01*
X93980117Y-113857316D01*
X94213298Y-114421657D01*
X94904703Y-115114270D01*
X95808529Y-115489572D01*
X96787177Y-115490426D01*
X97691657Y-115116702D01*
X98384270Y-114425297D01*
X98759572Y-113521471D01*
X98759575Y-113517177D01*
X105709574Y-113517177D01*
X106083298Y-114421657D01*
X106774703Y-115114270D01*
X107678529Y-115489572D01*
X108657177Y-115490426D01*
X109561657Y-115116702D01*
X110254270Y-114425297D01*
X110490117Y-113857316D01*
X110723298Y-114421657D01*
X111414703Y-115114270D01*
X112318529Y-115489572D01*
X113297177Y-115490426D01*
X114201657Y-115116702D01*
X114894270Y-114425297D01*
X115269572Y-113521471D01*
X115269575Y-113517177D01*
X122219574Y-113517177D01*
X122593298Y-114421657D01*
X123284703Y-115114270D01*
X124188529Y-115489572D01*
X125167177Y-115490426D01*
X126071657Y-115116702D01*
X126764270Y-114425297D01*
X127000117Y-113857316D01*
X127233298Y-114421657D01*
X127924703Y-115114270D01*
X128828529Y-115489572D01*
X129807177Y-115490426D01*
X130711657Y-115116702D01*
X131404270Y-114425297D01*
X131779572Y-113521471D01*
X131779575Y-113517177D01*
X138729574Y-113517177D01*
X139103298Y-114421657D01*
X139794703Y-115114270D01*
X140698529Y-115489572D01*
X141677177Y-115490426D01*
X142581657Y-115116702D01*
X143274270Y-114425297D01*
X143510117Y-113857316D01*
X143743298Y-114421657D01*
X144434703Y-115114270D01*
X145338529Y-115489572D01*
X146317177Y-115490426D01*
X147221657Y-115116702D01*
X147914270Y-114425297D01*
X148289572Y-113521471D01*
X148289575Y-113517177D01*
X155239574Y-113517177D01*
X155613298Y-114421657D01*
X156304703Y-115114270D01*
X157208529Y-115489572D01*
X158187177Y-115490426D01*
X159091657Y-115116702D01*
X159784270Y-114425297D01*
X160020117Y-113857316D01*
X160253298Y-114421657D01*
X160944703Y-115114270D01*
X161848529Y-115489572D01*
X162827177Y-115490426D01*
X163731657Y-115116702D01*
X164424270Y-114425297D01*
X164799572Y-113521471D01*
X164799575Y-113517177D01*
X171749574Y-113517177D01*
X172123298Y-114421657D01*
X172814703Y-115114270D01*
X173718529Y-115489572D01*
X174697177Y-115490426D01*
X175601657Y-115116702D01*
X176294270Y-114425297D01*
X176669572Y-113521471D01*
X176670426Y-112542823D01*
X176296702Y-111638343D01*
X175605297Y-110945730D01*
X174701471Y-110570428D01*
X173722823Y-110569574D01*
X172818343Y-110943298D01*
X172125730Y-111634703D01*
X171750428Y-112538529D01*
X171749574Y-113517177D01*
X164799575Y-113517177D01*
X164800426Y-112542823D01*
X164426702Y-111638343D01*
X163735297Y-110945730D01*
X162831471Y-110570428D01*
X161852823Y-110569574D01*
X160948343Y-110943298D01*
X160255730Y-111634703D01*
X160019883Y-112202684D01*
X159786702Y-111638343D01*
X159095297Y-110945730D01*
X158191471Y-110570428D01*
X157212823Y-110569574D01*
X156308343Y-110943298D01*
X155615730Y-111634703D01*
X155240428Y-112538529D01*
X155239574Y-113517177D01*
X148289575Y-113517177D01*
X148290426Y-112542823D01*
X147916702Y-111638343D01*
X147225297Y-110945730D01*
X146321471Y-110570428D01*
X145342823Y-110569574D01*
X144438343Y-110943298D01*
X143745730Y-111634703D01*
X143509883Y-112202684D01*
X143276702Y-111638343D01*
X142585297Y-110945730D01*
X141681471Y-110570428D01*
X140702823Y-110569574D01*
X139798343Y-110943298D01*
X139105730Y-111634703D01*
X138730428Y-112538529D01*
X138729574Y-113517177D01*
X131779575Y-113517177D01*
X131780426Y-112542823D01*
X131406702Y-111638343D01*
X130715297Y-110945730D01*
X129811471Y-110570428D01*
X128832823Y-110569574D01*
X127928343Y-110943298D01*
X127235730Y-111634703D01*
X126999883Y-112202684D01*
X126766702Y-111638343D01*
X126075297Y-110945730D01*
X125171471Y-110570428D01*
X124192823Y-110569574D01*
X123288343Y-110943298D01*
X122595730Y-111634703D01*
X122220428Y-112538529D01*
X122219574Y-113517177D01*
X115269575Y-113517177D01*
X115270426Y-112542823D01*
X114896702Y-111638343D01*
X114205297Y-110945730D01*
X113301471Y-110570428D01*
X112322823Y-110569574D01*
X111418343Y-110943298D01*
X110725730Y-111634703D01*
X110489883Y-112202684D01*
X110256702Y-111638343D01*
X109565297Y-110945730D01*
X108661471Y-110570428D01*
X107682823Y-110569574D01*
X106778343Y-110943298D01*
X106085730Y-111634703D01*
X105710428Y-112538529D01*
X105709574Y-113517177D01*
X98759575Y-113517177D01*
X98760426Y-112542823D01*
X98386702Y-111638343D01*
X97695297Y-110945730D01*
X96791471Y-110570428D01*
X95812823Y-110569574D01*
X94908343Y-110943298D01*
X94215730Y-111634703D01*
X93979883Y-112202684D01*
X93746702Y-111638343D01*
X93055297Y-110945730D01*
X92151471Y-110570428D01*
X91172823Y-110569574D01*
X90268343Y-110943298D01*
X89575730Y-111634703D01*
X89200428Y-112538529D01*
X89199574Y-113517177D01*
X82249575Y-113517177D01*
X82250426Y-112542823D01*
X81876702Y-111638343D01*
X81185297Y-110945730D01*
X80281471Y-110570428D01*
X79302823Y-110569574D01*
X78398343Y-110943298D01*
X77705730Y-111634703D01*
X77469883Y-112202684D01*
X77236702Y-111638343D01*
X76545297Y-110945730D01*
X75641471Y-110570428D01*
X74662823Y-110569574D01*
X73758343Y-110943298D01*
X73065730Y-111634703D01*
X72690428Y-112538529D01*
X72689574Y-113517177D01*
X65739575Y-113517177D01*
X65740426Y-112542823D01*
X65366702Y-111638343D01*
X64675297Y-110945730D01*
X63771471Y-110570428D01*
X62792823Y-110569574D01*
X61888343Y-110943298D01*
X61195730Y-111634703D01*
X60959883Y-112202684D01*
X60726702Y-111638343D01*
X60035297Y-110945730D01*
X59131471Y-110570428D01*
X58152823Y-110569574D01*
X57248343Y-110943298D01*
X56555730Y-111634703D01*
X56180428Y-112538529D01*
X56179574Y-113517177D01*
X49229575Y-113517177D01*
X49230426Y-112542823D01*
X48856702Y-111638343D01*
X48165297Y-110945730D01*
X47261471Y-110570428D01*
X46282823Y-110569574D01*
X45378343Y-110943298D01*
X44685730Y-111634703D01*
X44310428Y-112538529D01*
X44309574Y-113517177D01*
X43890000Y-113517177D01*
X43890000Y-105930000D01*
X46862560Y-105930000D01*
X46862560Y-107430000D01*
X46906838Y-107665317D01*
X47045910Y-107881441D01*
X47258110Y-108026431D01*
X47510000Y-108077440D01*
X49010000Y-108077440D01*
X49245317Y-108033162D01*
X49461441Y-107894090D01*
X49606431Y-107681890D01*
X49646355Y-107484738D01*
X50014436Y-107853461D01*
X50523298Y-108064759D01*
X51074285Y-108065240D01*
X51583515Y-107854831D01*
X51973461Y-107465564D01*
X52069976Y-107233130D01*
X52165169Y-107463515D01*
X52554436Y-107853461D01*
X53063298Y-108064759D01*
X53614285Y-108065240D01*
X54123515Y-107854831D01*
X54513461Y-107465564D01*
X54609976Y-107233130D01*
X54705169Y-107463515D01*
X55094436Y-107853461D01*
X55603298Y-108064759D01*
X56154285Y-108065240D01*
X56663515Y-107854831D01*
X57053461Y-107465564D01*
X57264759Y-106956702D01*
X57265240Y-106405715D01*
X57068680Y-105930000D01*
X63372560Y-105930000D01*
X63372560Y-107430000D01*
X63416838Y-107665317D01*
X63555910Y-107881441D01*
X63768110Y-108026431D01*
X64020000Y-108077440D01*
X65520000Y-108077440D01*
X65755317Y-108033162D01*
X65971441Y-107894090D01*
X66116431Y-107681890D01*
X66156355Y-107484738D01*
X66524436Y-107853461D01*
X67033298Y-108064759D01*
X67584285Y-108065240D01*
X68093515Y-107854831D01*
X68483461Y-107465564D01*
X68579976Y-107233130D01*
X68675169Y-107463515D01*
X69064436Y-107853461D01*
X69573298Y-108064759D01*
X70124285Y-108065240D01*
X70633515Y-107854831D01*
X71023461Y-107465564D01*
X71119976Y-107233130D01*
X71215169Y-107463515D01*
X71604436Y-107853461D01*
X72113298Y-108064759D01*
X72664285Y-108065240D01*
X73173515Y-107854831D01*
X73563461Y-107465564D01*
X73774759Y-106956702D01*
X73775240Y-106405715D01*
X73578680Y-105930000D01*
X79882560Y-105930000D01*
X79882560Y-107430000D01*
X79926838Y-107665317D01*
X80065910Y-107881441D01*
X80278110Y-108026431D01*
X80530000Y-108077440D01*
X82030000Y-108077440D01*
X82265317Y-108033162D01*
X82481441Y-107894090D01*
X82626431Y-107681890D01*
X82666355Y-107484738D01*
X83034436Y-107853461D01*
X83543298Y-108064759D01*
X84094285Y-108065240D01*
X84603515Y-107854831D01*
X84993461Y-107465564D01*
X85089976Y-107233130D01*
X85185169Y-107463515D01*
X85574436Y-107853461D01*
X86083298Y-108064759D01*
X86634285Y-108065240D01*
X87143515Y-107854831D01*
X87533461Y-107465564D01*
X87629976Y-107233130D01*
X87725169Y-107463515D01*
X88114436Y-107853461D01*
X88623298Y-108064759D01*
X89174285Y-108065240D01*
X89683515Y-107854831D01*
X90073461Y-107465564D01*
X90284759Y-106956702D01*
X90285240Y-106405715D01*
X90074831Y-105896485D01*
X89685564Y-105506539D01*
X89176702Y-105295241D01*
X88625715Y-105294760D01*
X88116485Y-105505169D01*
X87726539Y-105894436D01*
X87630024Y-106126870D01*
X87534831Y-105896485D01*
X87145564Y-105506539D01*
X86636702Y-105295241D01*
X86085715Y-105294760D01*
X85576485Y-105505169D01*
X85186539Y-105894436D01*
X85090024Y-106126870D01*
X84994831Y-105896485D01*
X84605564Y-105506539D01*
X84173739Y-105327229D01*
X84246022Y-105254946D01*
X84304436Y-105313461D01*
X84813298Y-105524759D01*
X85364285Y-105525240D01*
X85873515Y-105314831D01*
X86263461Y-104925564D01*
X86359976Y-104693130D01*
X86455169Y-104923515D01*
X86844436Y-105313461D01*
X87353298Y-105524759D01*
X87904285Y-105525240D01*
X88413515Y-105314831D01*
X88803461Y-104925564D01*
X88899976Y-104693130D01*
X88995169Y-104923515D01*
X89384436Y-105313461D01*
X89893298Y-105524759D01*
X90444285Y-105525240D01*
X90953515Y-105314831D01*
X91343461Y-104925564D01*
X91554759Y-104416702D01*
X91555240Y-103865715D01*
X91344831Y-103356485D01*
X90955564Y-102966539D01*
X90446702Y-102755241D01*
X89895715Y-102754760D01*
X89386485Y-102965169D01*
X88996539Y-103354436D01*
X88900024Y-103586870D01*
X88804831Y-103356485D01*
X88415564Y-102966539D01*
X87906702Y-102755241D01*
X87355715Y-102754760D01*
X86846485Y-102965169D01*
X86456539Y-103354436D01*
X86360024Y-103586870D01*
X86264831Y-103356485D01*
X85875564Y-102966539D01*
X85834486Y-102949482D01*
X88219168Y-100564800D01*
X89388592Y-100564800D01*
X89451120Y-100879151D01*
X89762189Y-101344698D01*
X90227736Y-101655767D01*
X90776887Y-101765000D01*
X90833113Y-101765000D01*
X91382264Y-101655767D01*
X91847811Y-101344698D01*
X92158880Y-100879151D01*
X92211584Y-100614187D01*
X98259752Y-100614187D01*
X98477757Y-101141800D01*
X98881077Y-101545824D01*
X99408309Y-101764750D01*
X99979187Y-101765248D01*
X100506800Y-101547243D01*
X100910824Y-101143923D01*
X101129750Y-100616691D01*
X101130248Y-100045813D01*
X100912243Y-99518200D01*
X100508923Y-99114176D01*
X99981691Y-98895250D01*
X99410813Y-98894752D01*
X98883200Y-99112757D01*
X98479176Y-99516077D01*
X98260250Y-100043309D01*
X98259752Y-100614187D01*
X92211584Y-100614187D01*
X92268113Y-100330000D01*
X92158880Y-99780849D01*
X91847811Y-99315302D01*
X91382264Y-99004233D01*
X90833113Y-98895000D01*
X90806005Y-98895000D01*
X90805000Y-98894800D01*
X90370000Y-98894800D01*
X90370000Y-97896586D01*
X90805000Y-97983113D01*
X91354151Y-97873880D01*
X91819698Y-97562811D01*
X92130767Y-97097264D01*
X92240000Y-96548113D01*
X92240000Y-96491887D01*
X92130767Y-95942736D01*
X91981940Y-95720000D01*
X98247560Y-95720000D01*
X98247560Y-97320000D01*
X98291838Y-97555317D01*
X98430910Y-97771441D01*
X98643110Y-97916431D01*
X98895000Y-97967440D01*
X100495000Y-97967440D01*
X100730317Y-97923162D01*
X100847739Y-97847603D01*
X101425509Y-98268754D01*
X101570844Y-98328929D01*
X101862000Y-98122410D01*
X101862000Y-96893000D01*
X102608000Y-96893000D01*
X102608000Y-98122410D01*
X102899156Y-98328929D01*
X103044491Y-98268754D01*
X103505000Y-97933077D01*
X103965509Y-98268754D01*
X104110844Y-98328929D01*
X104402000Y-98122410D01*
X104402000Y-96893000D01*
X102608000Y-96893000D01*
X101862000Y-96893000D01*
X101842000Y-96893000D01*
X101842000Y-96147000D01*
X101862000Y-96147000D01*
X101862000Y-94917590D01*
X102608000Y-94917590D01*
X102608000Y-96147000D01*
X104402000Y-96147000D01*
X104402000Y-94917590D01*
X104110844Y-94711071D01*
X103965509Y-94771246D01*
X103505000Y-95106923D01*
X103044491Y-94771246D01*
X102899156Y-94711071D01*
X102608000Y-94917590D01*
X101862000Y-94917590D01*
X101570844Y-94711071D01*
X101425509Y-94771246D01*
X100847683Y-95192438D01*
X100746890Y-95123569D01*
X100495000Y-95072560D01*
X98895000Y-95072560D01*
X98659683Y-95116838D01*
X98443559Y-95255910D01*
X98298569Y-95468110D01*
X98247560Y-95720000D01*
X91981940Y-95720000D01*
X91819698Y-95477189D01*
X91354151Y-95166120D01*
X90805000Y-95056887D01*
X90370000Y-95143414D01*
X90370000Y-91370300D01*
X90306439Y-91050759D01*
X90125434Y-90779866D01*
X89283175Y-89937607D01*
X89535000Y-89560725D01*
X89790302Y-89942811D01*
X90255849Y-90253880D01*
X90805000Y-90363113D01*
X91354151Y-90253880D01*
X91819698Y-89942811D01*
X92072705Y-89564159D01*
X97886048Y-89564159D01*
X98277909Y-90205859D01*
X98885509Y-90648754D01*
X99030844Y-90708929D01*
X99322000Y-90502410D01*
X99322000Y-89273000D01*
X98086172Y-89273000D01*
X97886048Y-89564159D01*
X92072705Y-89564159D01*
X92130767Y-89477264D01*
X92240000Y-88928113D01*
X92240000Y-88871887D01*
X92130767Y-88322736D01*
X91819698Y-87857189D01*
X91354151Y-87546120D01*
X90805000Y-87436887D01*
X90255849Y-87546120D01*
X89790302Y-87857189D01*
X89535000Y-88239275D01*
X89279698Y-87857189D01*
X88814151Y-87546120D01*
X88265000Y-87436887D01*
X87715849Y-87546120D01*
X87250302Y-87857189D01*
X86995000Y-88239275D01*
X86739698Y-87857189D01*
X86274151Y-87546120D01*
X85725000Y-87436887D01*
X85198188Y-87541677D01*
X85287086Y-87504854D01*
X85351716Y-87149218D01*
X84455000Y-86252502D01*
X83558284Y-87149218D01*
X83582136Y-87280470D01*
X83558000Y-87297590D01*
X83558000Y-88527000D01*
X83578000Y-88527000D01*
X83578000Y-89273000D01*
X83558000Y-89273000D01*
X83558000Y-90502410D01*
X83849156Y-90708929D01*
X83994491Y-90648754D01*
X84602091Y-90205859D01*
X84747533Y-89967688D01*
X85175849Y-90253880D01*
X85725000Y-90363113D01*
X86274151Y-90253880D01*
X86739698Y-89942811D01*
X86995000Y-89560725D01*
X87250302Y-89942811D01*
X87430000Y-90062882D01*
X87430000Y-90100300D01*
X87493561Y-90419841D01*
X87646516Y-90648754D01*
X87674566Y-90690734D01*
X88700000Y-91716168D01*
X88700000Y-94873613D01*
X88638000Y-94917590D01*
X88638000Y-96147000D01*
X88658000Y-96147000D01*
X88658000Y-96893000D01*
X88638000Y-96893000D01*
X88638000Y-98122410D01*
X88700000Y-98166387D01*
X88700000Y-98894800D01*
X87873300Y-98894800D01*
X87553759Y-98958361D01*
X87297332Y-99129700D01*
X87282866Y-99139366D01*
X83395576Y-103026656D01*
X83335564Y-102966539D01*
X82826702Y-102755241D01*
X82275715Y-102754760D01*
X81766485Y-102965169D01*
X81376539Y-103354436D01*
X81165241Y-103863298D01*
X81164760Y-104414285D01*
X81375169Y-104923515D01*
X81733589Y-105282560D01*
X80530000Y-105282560D01*
X80294683Y-105326838D01*
X80078559Y-105465910D01*
X79933569Y-105678110D01*
X79882560Y-105930000D01*
X73578680Y-105930000D01*
X73564831Y-105896485D01*
X73175564Y-105506539D01*
X72666702Y-105295241D01*
X72115715Y-105294760D01*
X71606485Y-105505169D01*
X71216539Y-105894436D01*
X71120024Y-106126870D01*
X71024831Y-105896485D01*
X70635564Y-105506539D01*
X70126702Y-105295241D01*
X69575715Y-105294760D01*
X69066485Y-105505169D01*
X68676539Y-105894436D01*
X68580024Y-106126870D01*
X68484831Y-105896485D01*
X68095564Y-105506539D01*
X67586702Y-105295241D01*
X67035715Y-105294760D01*
X66526485Y-105505169D01*
X66156920Y-105874091D01*
X66123162Y-105694683D01*
X66013960Y-105524978D01*
X66314285Y-105525240D01*
X66823515Y-105314831D01*
X67213461Y-104925564D01*
X67309976Y-104693130D01*
X67405169Y-104923515D01*
X67794436Y-105313461D01*
X68303298Y-105524759D01*
X68854285Y-105525240D01*
X69363515Y-105314831D01*
X69753461Y-104925564D01*
X69849976Y-104693130D01*
X69945169Y-104923515D01*
X70334436Y-105313461D01*
X70843298Y-105524759D01*
X71394285Y-105525240D01*
X71903515Y-105314831D01*
X72293461Y-104925564D01*
X72389976Y-104693130D01*
X72485169Y-104923515D01*
X72874436Y-105313461D01*
X73383298Y-105524759D01*
X73934285Y-105525240D01*
X74443515Y-105314831D01*
X74833461Y-104925564D01*
X75044759Y-104416702D01*
X75045240Y-103865715D01*
X74834831Y-103356485D01*
X74445564Y-102966539D01*
X73936702Y-102755241D01*
X73385715Y-102754760D01*
X72876485Y-102965169D01*
X72486539Y-103354436D01*
X72390024Y-103586870D01*
X72294831Y-103356485D01*
X71905564Y-102966539D01*
X71396702Y-102755241D01*
X70845715Y-102754760D01*
X70336485Y-102965169D01*
X69946539Y-103354436D01*
X69850024Y-103586870D01*
X69754831Y-103356485D01*
X69365564Y-102966539D01*
X68856702Y-102755241D01*
X68305715Y-102754760D01*
X67796485Y-102965169D01*
X67406539Y-103354436D01*
X67310024Y-103586870D01*
X67214831Y-103356485D01*
X66825564Y-102966539D01*
X66316702Y-102755241D01*
X65765715Y-102754760D01*
X65256485Y-102965169D01*
X64866539Y-103354436D01*
X64655241Y-103863298D01*
X64654760Y-104414285D01*
X64865169Y-104923515D01*
X65223589Y-105282560D01*
X64020000Y-105282560D01*
X63784683Y-105326838D01*
X63568559Y-105465910D01*
X63423569Y-105678110D01*
X63372560Y-105930000D01*
X57068680Y-105930000D01*
X57054831Y-105896485D01*
X56665564Y-105506539D01*
X56156702Y-105295241D01*
X55605715Y-105294760D01*
X55096485Y-105505169D01*
X54706539Y-105894436D01*
X54610024Y-106126870D01*
X54514831Y-105896485D01*
X54125564Y-105506539D01*
X53616702Y-105295241D01*
X53065715Y-105294760D01*
X52556485Y-105505169D01*
X52166539Y-105894436D01*
X52070024Y-106126870D01*
X51974831Y-105896485D01*
X51585564Y-105506539D01*
X51076702Y-105295241D01*
X50525715Y-105294760D01*
X50016485Y-105505169D01*
X49646920Y-105874091D01*
X49613162Y-105694683D01*
X49503960Y-105524978D01*
X49804285Y-105525240D01*
X50313515Y-105314831D01*
X50703461Y-104925564D01*
X50799976Y-104693130D01*
X50895169Y-104923515D01*
X51284436Y-105313461D01*
X51793298Y-105524759D01*
X52344285Y-105525240D01*
X52853515Y-105314831D01*
X53243461Y-104925564D01*
X53339976Y-104693130D01*
X53435169Y-104923515D01*
X53824436Y-105313461D01*
X54333298Y-105524759D01*
X54884285Y-105525240D01*
X55393515Y-105314831D01*
X55783461Y-104925564D01*
X55879976Y-104693130D01*
X55975169Y-104923515D01*
X56364436Y-105313461D01*
X56873298Y-105524759D01*
X57424285Y-105525240D01*
X57933515Y-105314831D01*
X58323461Y-104925564D01*
X58534759Y-104416702D01*
X58535240Y-103865715D01*
X58324831Y-103356485D01*
X57935564Y-102966539D01*
X57426702Y-102755241D01*
X56875715Y-102754760D01*
X56366485Y-102965169D01*
X55976539Y-103354436D01*
X55880024Y-103586870D01*
X55784831Y-103356485D01*
X55395564Y-102966539D01*
X54886702Y-102755241D01*
X54335715Y-102754760D01*
X53826485Y-102965169D01*
X53436539Y-103354436D01*
X53340024Y-103586870D01*
X53244831Y-103356485D01*
X52855564Y-102966539D01*
X52346702Y-102755241D01*
X51795715Y-102754760D01*
X51286485Y-102965169D01*
X50896539Y-103354436D01*
X50800024Y-103586870D01*
X50704831Y-103356485D01*
X50315564Y-102966539D01*
X49806702Y-102755241D01*
X49255715Y-102754760D01*
X48746485Y-102965169D01*
X48356539Y-103354436D01*
X48145241Y-103863298D01*
X48144760Y-104414285D01*
X48355169Y-104923515D01*
X48713589Y-105282560D01*
X47510000Y-105282560D01*
X47274683Y-105326838D01*
X47058559Y-105465910D01*
X46913569Y-105678110D01*
X46862560Y-105930000D01*
X43890000Y-105930000D01*
X43890000Y-100330000D01*
X44256887Y-100330000D01*
X44366120Y-100879151D01*
X44677189Y-101344698D01*
X45142736Y-101655767D01*
X45691887Y-101765000D01*
X45748113Y-101765000D01*
X46297264Y-101655767D01*
X46762811Y-101344698D01*
X47073880Y-100879151D01*
X47126584Y-100614187D01*
X51904752Y-100614187D01*
X52122757Y-101141800D01*
X52526077Y-101545824D01*
X53053309Y-101764750D01*
X53624187Y-101765248D01*
X54151800Y-101547243D01*
X54555824Y-101143923D01*
X54774750Y-100616691D01*
X54774752Y-100614187D01*
X65239752Y-100614187D01*
X65457757Y-101141800D01*
X65861077Y-101545824D01*
X66388309Y-101764750D01*
X66959187Y-101765248D01*
X67486800Y-101547243D01*
X67890824Y-101143923D01*
X68109750Y-100616691D01*
X68110000Y-100330000D01*
X72831887Y-100330000D01*
X72941120Y-100879151D01*
X73252189Y-101344698D01*
X73717736Y-101655767D01*
X74266887Y-101765000D01*
X74323113Y-101765000D01*
X74872264Y-101655767D01*
X75337811Y-101344698D01*
X75648880Y-100879151D01*
X75701584Y-100614187D01*
X81749752Y-100614187D01*
X81967757Y-101141800D01*
X82371077Y-101545824D01*
X82898309Y-101764750D01*
X83469187Y-101765248D01*
X83996800Y-101547243D01*
X84400824Y-101143923D01*
X84619750Y-100616691D01*
X84620248Y-100045813D01*
X84402243Y-99518200D01*
X83998923Y-99114176D01*
X83471691Y-98895250D01*
X82900813Y-98894752D01*
X82373200Y-99112757D01*
X81969176Y-99516077D01*
X81750250Y-100043309D01*
X81749752Y-100614187D01*
X75701584Y-100614187D01*
X75758113Y-100330000D01*
X75648880Y-99780849D01*
X75337811Y-99315302D01*
X74872264Y-99004233D01*
X74323113Y-98895000D01*
X74266887Y-98895000D01*
X73717736Y-99004233D01*
X73252189Y-99315302D01*
X72941120Y-99780849D01*
X72831887Y-100330000D01*
X68110000Y-100330000D01*
X68110248Y-100045813D01*
X67892243Y-99518200D01*
X67488923Y-99114176D01*
X66961691Y-98895250D01*
X66390813Y-98894752D01*
X65863200Y-99112757D01*
X65459176Y-99516077D01*
X65240250Y-100043309D01*
X65239752Y-100614187D01*
X54774752Y-100614187D01*
X54775248Y-100045813D01*
X54557243Y-99518200D01*
X54153923Y-99114176D01*
X53626691Y-98895250D01*
X53055813Y-98894752D01*
X52528200Y-99112757D01*
X52124176Y-99516077D01*
X51905250Y-100043309D01*
X51904752Y-100614187D01*
X47126584Y-100614187D01*
X47183113Y-100330000D01*
X47073880Y-99780849D01*
X46843382Y-99435886D01*
X48042132Y-98237136D01*
X48085509Y-98268754D01*
X48230844Y-98328929D01*
X48522000Y-98122410D01*
X48522000Y-96893000D01*
X49268000Y-96893000D01*
X49268000Y-98122410D01*
X49559156Y-98328929D01*
X49704491Y-98268754D01*
X50165000Y-97933077D01*
X50625509Y-98268754D01*
X50770844Y-98328929D01*
X51062000Y-98122410D01*
X51062000Y-96893000D01*
X49268000Y-96893000D01*
X48522000Y-96893000D01*
X48502000Y-96893000D01*
X48502000Y-96147000D01*
X48522000Y-96147000D01*
X48522000Y-94917590D01*
X49268000Y-94917590D01*
X49268000Y-96147000D01*
X51062000Y-96147000D01*
X51062000Y-94917590D01*
X51808000Y-94917590D01*
X51808000Y-96147000D01*
X51828000Y-96147000D01*
X51828000Y-96893000D01*
X51808000Y-96893000D01*
X51808000Y-98122410D01*
X52099156Y-98328929D01*
X52244491Y-98268754D01*
X52253310Y-98262325D01*
X58574587Y-98262325D01*
X58936916Y-99139229D01*
X59607242Y-99810726D01*
X60483513Y-100174585D01*
X61432325Y-100175413D01*
X62309229Y-99813084D01*
X62980726Y-99142758D01*
X63344585Y-98266487D01*
X63345413Y-97317675D01*
X62983084Y-96440771D01*
X62312758Y-95769274D01*
X62194093Y-95720000D01*
X65227560Y-95720000D01*
X65227560Y-97320000D01*
X65271838Y-97555317D01*
X65410910Y-97771441D01*
X65623110Y-97916431D01*
X65875000Y-97967440D01*
X67475000Y-97967440D01*
X67710317Y-97923162D01*
X67827739Y-97847603D01*
X68405509Y-98268754D01*
X68550844Y-98328929D01*
X68842000Y-98122410D01*
X68842000Y-96893000D01*
X69588000Y-96893000D01*
X69588000Y-98122410D01*
X69879156Y-98328929D01*
X70024491Y-98268754D01*
X70485000Y-97933077D01*
X70945509Y-98268754D01*
X71090844Y-98328929D01*
X71382000Y-98122410D01*
X71382000Y-96893000D01*
X69588000Y-96893000D01*
X68842000Y-96893000D01*
X68822000Y-96893000D01*
X68822000Y-96147000D01*
X68842000Y-96147000D01*
X68842000Y-94917590D01*
X69588000Y-94917590D01*
X69588000Y-96147000D01*
X71382000Y-96147000D01*
X71382000Y-94917590D01*
X71090844Y-94711071D01*
X70945509Y-94771246D01*
X70485000Y-95106923D01*
X70024491Y-94771246D01*
X69879156Y-94711071D01*
X69588000Y-94917590D01*
X68842000Y-94917590D01*
X68550844Y-94711071D01*
X68405509Y-94771246D01*
X67827683Y-95192438D01*
X67726890Y-95123569D01*
X67475000Y-95072560D01*
X65875000Y-95072560D01*
X65639683Y-95116838D01*
X65423559Y-95255910D01*
X65278569Y-95468110D01*
X65227560Y-95720000D01*
X62194093Y-95720000D01*
X61436487Y-95405415D01*
X60487675Y-95404587D01*
X59610771Y-95766916D01*
X58939274Y-96437242D01*
X58575415Y-97313513D01*
X58574587Y-98262325D01*
X52253310Y-98262325D01*
X52852091Y-97825859D01*
X52997533Y-97587688D01*
X53425849Y-97873880D01*
X53975000Y-97983113D01*
X54524151Y-97873880D01*
X54989698Y-97562811D01*
X55300767Y-97097264D01*
X55410000Y-96548113D01*
X55410000Y-96491887D01*
X55300767Y-95942736D01*
X54989698Y-95477189D01*
X54810000Y-95357118D01*
X54810000Y-93690868D01*
X58936709Y-89564159D01*
X64866048Y-89564159D01*
X65257909Y-90205859D01*
X65865509Y-90648754D01*
X66010844Y-90708929D01*
X66302000Y-90502410D01*
X66302000Y-89273000D01*
X65066172Y-89273000D01*
X64866048Y-89564159D01*
X58936709Y-89564159D01*
X60265027Y-88235841D01*
X64866048Y-88235841D01*
X65066172Y-88527000D01*
X66302000Y-88527000D01*
X66302000Y-87297590D01*
X67048000Y-87297590D01*
X67048000Y-88527000D01*
X67068000Y-88527000D01*
X67068000Y-89273000D01*
X67048000Y-89273000D01*
X67048000Y-90502410D01*
X67339156Y-90708929D01*
X67484491Y-90648754D01*
X68092091Y-90205859D01*
X68237533Y-89967688D01*
X68665849Y-90253880D01*
X69215000Y-90363113D01*
X69764151Y-90253880D01*
X70229698Y-89942811D01*
X70485000Y-89560725D01*
X70740302Y-89942811D01*
X71205849Y-90253880D01*
X71755000Y-90363113D01*
X72304151Y-90253880D01*
X72769698Y-89942811D01*
X73025000Y-89560725D01*
X73280302Y-89942811D01*
X73745849Y-90253880D01*
X74295000Y-90363113D01*
X74844151Y-90253880D01*
X75309698Y-89942811D01*
X75620767Y-89477264D01*
X75730000Y-88928113D01*
X75730000Y-88871887D01*
X75620767Y-88322736D01*
X75309698Y-87857189D01*
X74844151Y-87546120D01*
X74295000Y-87436887D01*
X73745849Y-87546120D01*
X73280302Y-87857189D01*
X73025000Y-88239275D01*
X72769698Y-87857189D01*
X72304151Y-87546120D01*
X71755000Y-87436887D01*
X71205849Y-87546120D01*
X70740302Y-87857189D01*
X70485000Y-88239275D01*
X70229698Y-87857189D01*
X69764151Y-87546120D01*
X69215000Y-87436887D01*
X68688188Y-87541677D01*
X68777086Y-87504854D01*
X68841716Y-87149218D01*
X67945000Y-86252502D01*
X67048284Y-87149218D01*
X67072136Y-87280470D01*
X67048000Y-87297590D01*
X66302000Y-87297590D01*
X66010844Y-87091071D01*
X65865509Y-87151246D01*
X65257909Y-87594141D01*
X64866048Y-88235841D01*
X60265027Y-88235841D01*
X62863495Y-85637373D01*
X65982204Y-85637373D01*
X66098080Y-86395173D01*
X66165146Y-86557086D01*
X66520782Y-86621716D01*
X67417498Y-85725000D01*
X68472502Y-85725000D01*
X69369218Y-86621716D01*
X69724854Y-86557086D01*
X69859493Y-86009187D01*
X71509752Y-86009187D01*
X71727757Y-86536800D01*
X72131077Y-86940824D01*
X72658309Y-87159750D01*
X73229187Y-87160248D01*
X73756800Y-86942243D01*
X74160824Y-86538923D01*
X74379750Y-86011691D01*
X74380248Y-85440813D01*
X74162243Y-84913200D01*
X73758923Y-84509176D01*
X73231691Y-84290250D01*
X72660813Y-84289752D01*
X72133200Y-84507757D01*
X71729176Y-84911077D01*
X71510250Y-85438309D01*
X71509752Y-86009187D01*
X69859493Y-86009187D01*
X69907796Y-85812627D01*
X69791920Y-85054827D01*
X69724854Y-84892914D01*
X69369218Y-84828284D01*
X68472502Y-85725000D01*
X67417498Y-85725000D01*
X66520782Y-84828284D01*
X66165146Y-84892914D01*
X65982204Y-85637373D01*
X62863495Y-85637373D01*
X64200086Y-84300782D01*
X67048284Y-84300782D01*
X67945000Y-85197498D01*
X68841716Y-84300782D01*
X68777086Y-83945146D01*
X68032627Y-83762204D01*
X67274827Y-83878080D01*
X67112914Y-83945146D01*
X67048284Y-84300782D01*
X64200086Y-84300782D01*
X74676089Y-73824779D01*
X75214187Y-73825248D01*
X75741800Y-73607243D01*
X76145824Y-73203923D01*
X76199862Y-73073785D01*
X76252757Y-73201800D01*
X76656077Y-73605824D01*
X77183309Y-73824750D01*
X77754187Y-73825248D01*
X78281800Y-73607243D01*
X78685824Y-73203923D01*
X78739862Y-73073785D01*
X78792757Y-73201800D01*
X79196077Y-73605824D01*
X79723309Y-73824750D01*
X80294187Y-73825248D01*
X80445000Y-73762933D01*
X80445000Y-87988832D01*
X73704566Y-94729266D01*
X73523561Y-95000159D01*
X73460000Y-95319700D01*
X73460000Y-95357118D01*
X73317533Y-95452312D01*
X73172091Y-95214141D01*
X72564491Y-94771246D01*
X72419156Y-94711071D01*
X72128000Y-94917590D01*
X72128000Y-96147000D01*
X72148000Y-96147000D01*
X72148000Y-96893000D01*
X72128000Y-96893000D01*
X72128000Y-98122410D01*
X72419156Y-98328929D01*
X72564491Y-98268754D01*
X73172091Y-97825859D01*
X73317533Y-97587688D01*
X73745849Y-97873880D01*
X74295000Y-97983113D01*
X74844151Y-97873880D01*
X75309698Y-97562811D01*
X75620767Y-97097264D01*
X75730000Y-96548113D01*
X75730000Y-96491887D01*
X75620767Y-95942736D01*
X75471940Y-95720000D01*
X81737560Y-95720000D01*
X81737560Y-97320000D01*
X81781838Y-97555317D01*
X81920910Y-97771441D01*
X82133110Y-97916431D01*
X82385000Y-97967440D01*
X83985000Y-97967440D01*
X84220317Y-97923162D01*
X84337739Y-97847603D01*
X84915509Y-98268754D01*
X85060844Y-98328929D01*
X85352000Y-98122410D01*
X85352000Y-96893000D01*
X86098000Y-96893000D01*
X86098000Y-98122410D01*
X86389156Y-98328929D01*
X86534491Y-98268754D01*
X86995000Y-97933077D01*
X87455509Y-98268754D01*
X87600844Y-98328929D01*
X87892000Y-98122410D01*
X87892000Y-96893000D01*
X86098000Y-96893000D01*
X85352000Y-96893000D01*
X85332000Y-96893000D01*
X85332000Y-96147000D01*
X85352000Y-96147000D01*
X85352000Y-94917590D01*
X86098000Y-94917590D01*
X86098000Y-96147000D01*
X87892000Y-96147000D01*
X87892000Y-94917590D01*
X87600844Y-94711071D01*
X87455509Y-94771246D01*
X86995000Y-95106923D01*
X86534491Y-94771246D01*
X86389156Y-94711071D01*
X86098000Y-94917590D01*
X85352000Y-94917590D01*
X85060844Y-94711071D01*
X84915509Y-94771246D01*
X84337683Y-95192438D01*
X84236890Y-95123569D01*
X83985000Y-95072560D01*
X82385000Y-95072560D01*
X82149683Y-95116838D01*
X81933559Y-95255910D01*
X81788569Y-95468110D01*
X81737560Y-95720000D01*
X75471940Y-95720000D01*
X75313175Y-95482393D01*
X81522566Y-89273002D01*
X81576171Y-89273002D01*
X81376048Y-89564159D01*
X81767909Y-90205859D01*
X82375509Y-90648754D01*
X82520844Y-90708929D01*
X82812000Y-90502410D01*
X82812000Y-89273000D01*
X82792000Y-89273000D01*
X82792000Y-88527000D01*
X82812000Y-88527000D01*
X82812000Y-87297590D01*
X82520844Y-87091071D01*
X82375509Y-87151246D01*
X82115000Y-87341138D01*
X82115000Y-85637373D01*
X82492204Y-85637373D01*
X82608080Y-86395173D01*
X82675146Y-86557086D01*
X83030782Y-86621716D01*
X83927498Y-85725000D01*
X84982502Y-85725000D01*
X85879218Y-86621716D01*
X86234854Y-86557086D01*
X86369493Y-86009187D01*
X88019752Y-86009187D01*
X88237757Y-86536800D01*
X88641077Y-86940824D01*
X89168309Y-87159750D01*
X89739187Y-87160248D01*
X90266800Y-86942243D01*
X90670824Y-86538923D01*
X90889750Y-86011691D01*
X90890248Y-85440813D01*
X90672243Y-84913200D01*
X90268923Y-84509176D01*
X89741691Y-84290250D01*
X89170813Y-84289752D01*
X88643200Y-84507757D01*
X88239176Y-84911077D01*
X88020250Y-85438309D01*
X88019752Y-86009187D01*
X86369493Y-86009187D01*
X86417796Y-85812627D01*
X86301920Y-85054827D01*
X86234854Y-84892914D01*
X85879218Y-84828284D01*
X84982502Y-85725000D01*
X83927498Y-85725000D01*
X83030782Y-84828284D01*
X82675146Y-84892914D01*
X82492204Y-85637373D01*
X82115000Y-85637373D01*
X82115000Y-84300782D01*
X83558284Y-84300782D01*
X84455000Y-85197498D01*
X85351716Y-84300782D01*
X85287086Y-83945146D01*
X84542627Y-83762204D01*
X83784827Y-83878080D01*
X83622914Y-83945146D01*
X83558284Y-84300782D01*
X82115000Y-84300782D01*
X82115000Y-73763167D01*
X82263309Y-73824750D01*
X82804354Y-73825222D01*
X96494966Y-87515834D01*
X96765859Y-87696839D01*
X97085400Y-87760400D01*
X98176381Y-87760400D01*
X97886048Y-88235841D01*
X98086172Y-88527000D01*
X99322000Y-88527000D01*
X99322000Y-88507000D01*
X100068000Y-88507000D01*
X100068000Y-88527000D01*
X100088000Y-88527000D01*
X100088000Y-89273000D01*
X100068000Y-89273000D01*
X100068000Y-90502410D01*
X100359156Y-90708929D01*
X100504491Y-90648754D01*
X101112091Y-90205859D01*
X101257533Y-89967688D01*
X101685849Y-90253880D01*
X102235000Y-90363113D01*
X102784151Y-90253880D01*
X103249698Y-89942811D01*
X103505000Y-89560725D01*
X103760302Y-89942811D01*
X103940000Y-90062882D01*
X103940000Y-90100300D01*
X104003561Y-90419841D01*
X104156516Y-90648754D01*
X104184566Y-90690734D01*
X105210000Y-91716168D01*
X105210000Y-94873613D01*
X105148000Y-94917590D01*
X105148000Y-96147000D01*
X105168000Y-96147000D01*
X105168000Y-96893000D01*
X105148000Y-96893000D01*
X105148000Y-98122410D01*
X105210000Y-98166387D01*
X105210000Y-98894800D01*
X104383300Y-98894800D01*
X104063759Y-98958361D01*
X103807332Y-99129700D01*
X103792866Y-99139366D01*
X99905576Y-103026656D01*
X99845564Y-102966539D01*
X99336702Y-102755241D01*
X98785715Y-102754760D01*
X98276485Y-102965169D01*
X97886539Y-103354436D01*
X97675241Y-103863298D01*
X97674760Y-104414285D01*
X97885169Y-104923515D01*
X98243589Y-105282560D01*
X97040000Y-105282560D01*
X96804683Y-105326838D01*
X96588559Y-105465910D01*
X96443569Y-105678110D01*
X96392560Y-105930000D01*
X96392560Y-107430000D01*
X96436838Y-107665317D01*
X96575910Y-107881441D01*
X96788110Y-108026431D01*
X97040000Y-108077440D01*
X98540000Y-108077440D01*
X98775317Y-108033162D01*
X98991441Y-107894090D01*
X99136431Y-107681890D01*
X99176355Y-107484738D01*
X99544436Y-107853461D01*
X100053298Y-108064759D01*
X100604285Y-108065240D01*
X101113515Y-107854831D01*
X101503461Y-107465564D01*
X101599976Y-107233130D01*
X101695169Y-107463515D01*
X102084436Y-107853461D01*
X102593298Y-108064759D01*
X103144285Y-108065240D01*
X103653515Y-107854831D01*
X104043461Y-107465564D01*
X104139976Y-107233130D01*
X104235169Y-107463515D01*
X104624436Y-107853461D01*
X105133298Y-108064759D01*
X105684285Y-108065240D01*
X106193515Y-107854831D01*
X106583461Y-107465564D01*
X106794759Y-106956702D01*
X106795240Y-106405715D01*
X106584831Y-105896485D01*
X106195564Y-105506539D01*
X105686702Y-105295241D01*
X105135715Y-105294760D01*
X104626485Y-105505169D01*
X104236539Y-105894436D01*
X104140024Y-106126870D01*
X104044831Y-105896485D01*
X103655564Y-105506539D01*
X103146702Y-105295241D01*
X102595715Y-105294760D01*
X102086485Y-105505169D01*
X101696539Y-105894436D01*
X101600024Y-106126870D01*
X101504831Y-105896485D01*
X101115564Y-105506539D01*
X100683739Y-105327229D01*
X100756022Y-105254946D01*
X100814436Y-105313461D01*
X101323298Y-105524759D01*
X101874285Y-105525240D01*
X102383515Y-105314831D01*
X102773461Y-104925564D01*
X102869976Y-104693130D01*
X102965169Y-104923515D01*
X103354436Y-105313461D01*
X103863298Y-105524759D01*
X104414285Y-105525240D01*
X104923515Y-105314831D01*
X105313461Y-104925564D01*
X105409976Y-104693130D01*
X105505169Y-104923515D01*
X105894436Y-105313461D01*
X106403298Y-105524759D01*
X106954285Y-105525240D01*
X107463515Y-105314831D01*
X107853461Y-104925564D01*
X108064759Y-104416702D01*
X108065240Y-103865715D01*
X107854831Y-103356485D01*
X107465564Y-102966539D01*
X106956702Y-102755241D01*
X106405715Y-102754760D01*
X105896485Y-102965169D01*
X105506539Y-103354436D01*
X105410024Y-103586870D01*
X105314831Y-103356485D01*
X104925564Y-102966539D01*
X104416702Y-102755241D01*
X103865715Y-102754760D01*
X103356485Y-102965169D01*
X102966539Y-103354436D01*
X102870024Y-103586870D01*
X102774831Y-103356485D01*
X102385564Y-102966539D01*
X102344486Y-102949482D01*
X104729168Y-100564800D01*
X105898592Y-100564800D01*
X105961120Y-100879151D01*
X106272189Y-101344698D01*
X106737736Y-101655767D01*
X107286887Y-101765000D01*
X107343113Y-101765000D01*
X107892264Y-101655767D01*
X108357811Y-101344698D01*
X108668880Y-100879151D01*
X108778113Y-100330000D01*
X108668880Y-99780849D01*
X108357811Y-99315302D01*
X107892264Y-99004233D01*
X107343113Y-98895000D01*
X107316005Y-98895000D01*
X107315000Y-98894800D01*
X106880000Y-98894800D01*
X106880000Y-97896586D01*
X107315000Y-97983113D01*
X107864151Y-97873880D01*
X108329698Y-97562811D01*
X108640767Y-97097264D01*
X108750000Y-96548113D01*
X108750000Y-96491887D01*
X108640767Y-95942736D01*
X108329698Y-95477189D01*
X107864151Y-95166120D01*
X107315000Y-95056887D01*
X106880000Y-95143414D01*
X106880000Y-91370300D01*
X106816439Y-91050759D01*
X106635434Y-90779866D01*
X105793175Y-89937607D01*
X106045000Y-89560725D01*
X106300302Y-89942811D01*
X106765849Y-90253880D01*
X107315000Y-90363113D01*
X107864151Y-90253880D01*
X108329698Y-89942811D01*
X108582705Y-89564159D01*
X114396048Y-89564159D01*
X114787909Y-90205859D01*
X115395509Y-90648754D01*
X115540844Y-90708929D01*
X115832000Y-90502410D01*
X115832000Y-89273000D01*
X114596172Y-89273000D01*
X114396048Y-89564159D01*
X108582705Y-89564159D01*
X108640767Y-89477264D01*
X108750000Y-88928113D01*
X108750000Y-88871887D01*
X108640767Y-88322736D01*
X108329698Y-87857189D01*
X108184843Y-87760400D01*
X114686381Y-87760400D01*
X114396048Y-88235841D01*
X114596172Y-88527000D01*
X115832000Y-88527000D01*
X115832000Y-88507000D01*
X116578000Y-88507000D01*
X116578000Y-88527000D01*
X116598000Y-88527000D01*
X116598000Y-89273000D01*
X116578000Y-89273000D01*
X116578000Y-90502410D01*
X116869156Y-90708929D01*
X117014491Y-90648754D01*
X117018870Y-90645562D01*
X116954266Y-90710166D01*
X116773261Y-90981059D01*
X116709700Y-91300600D01*
X116709700Y-95072560D01*
X115405000Y-95072560D01*
X115169683Y-95116838D01*
X114953559Y-95255910D01*
X114808569Y-95468110D01*
X114757560Y-95720000D01*
X114757560Y-97320000D01*
X114801838Y-97555317D01*
X114940910Y-97771441D01*
X115153110Y-97916431D01*
X115405000Y-97967440D01*
X116709700Y-97967440D01*
X116709700Y-98644432D01*
X116458911Y-98895221D01*
X115920813Y-98894752D01*
X115393200Y-99112757D01*
X114989176Y-99516077D01*
X114770250Y-100043309D01*
X114769752Y-100614187D01*
X114987757Y-101141800D01*
X115391077Y-101545824D01*
X115918309Y-101764750D01*
X116489187Y-101765248D01*
X117016800Y-101547243D01*
X117420824Y-101143923D01*
X117639750Y-100616691D01*
X117640222Y-100075646D01*
X118135134Y-99580734D01*
X118316139Y-99309841D01*
X118379700Y-98990300D01*
X118379700Y-96893000D01*
X119118000Y-96893000D01*
X119118000Y-98122410D01*
X119409156Y-98328929D01*
X119554491Y-98268754D01*
X120015000Y-97933077D01*
X120475509Y-98268754D01*
X120620844Y-98328929D01*
X120912000Y-98122410D01*
X120912000Y-96893000D01*
X119118000Y-96893000D01*
X118379700Y-96893000D01*
X118379700Y-94917590D01*
X119118000Y-94917590D01*
X119118000Y-96147000D01*
X120912000Y-96147000D01*
X120912000Y-94917590D01*
X120620844Y-94711071D01*
X120475509Y-94771246D01*
X120015000Y-95106923D01*
X119554491Y-94771246D01*
X119409156Y-94711071D01*
X119118000Y-94917590D01*
X118379700Y-94917590D01*
X118379700Y-91646468D01*
X119335434Y-90690734D01*
X119516440Y-90419840D01*
X119580000Y-90100300D01*
X119580000Y-90062882D01*
X119759698Y-89942811D01*
X120015000Y-89560725D01*
X120270302Y-89942811D01*
X120450000Y-90062882D01*
X120450000Y-90100300D01*
X120513561Y-90419841D01*
X120666516Y-90648754D01*
X120694566Y-90690734D01*
X121720000Y-91716168D01*
X121720000Y-94873613D01*
X121658000Y-94917590D01*
X121658000Y-96147000D01*
X121678000Y-96147000D01*
X121678000Y-96893000D01*
X121658000Y-96893000D01*
X121658000Y-98122410D01*
X121720000Y-98166387D01*
X121720000Y-98894800D01*
X120893300Y-98894800D01*
X120573759Y-98958361D01*
X120317332Y-99129700D01*
X120302866Y-99139366D01*
X116415576Y-103026656D01*
X116355564Y-102966539D01*
X115846702Y-102755241D01*
X115295715Y-102754760D01*
X114786485Y-102965169D01*
X114396539Y-103354436D01*
X114185241Y-103863298D01*
X114184760Y-104414285D01*
X114395169Y-104923515D01*
X114753589Y-105282560D01*
X113550000Y-105282560D01*
X113314683Y-105326838D01*
X113098559Y-105465910D01*
X112953569Y-105678110D01*
X112902560Y-105930000D01*
X112902560Y-107430000D01*
X112946838Y-107665317D01*
X113085910Y-107881441D01*
X113298110Y-108026431D01*
X113550000Y-108077440D01*
X115050000Y-108077440D01*
X115285317Y-108033162D01*
X115501441Y-107894090D01*
X115646431Y-107681890D01*
X115686355Y-107484738D01*
X116054436Y-107853461D01*
X116563298Y-108064759D01*
X117114285Y-108065240D01*
X117623515Y-107854831D01*
X118013461Y-107465564D01*
X118109976Y-107233130D01*
X118205169Y-107463515D01*
X118594436Y-107853461D01*
X119103298Y-108064759D01*
X119654285Y-108065240D01*
X120163515Y-107854831D01*
X120553461Y-107465564D01*
X120649976Y-107233130D01*
X120745169Y-107463515D01*
X121134436Y-107853461D01*
X121643298Y-108064759D01*
X122194285Y-108065240D01*
X122703515Y-107854831D01*
X123093461Y-107465564D01*
X123304759Y-106956702D01*
X123305240Y-106405715D01*
X123094831Y-105896485D01*
X122705564Y-105506539D01*
X122196702Y-105295241D01*
X121645715Y-105294760D01*
X121136485Y-105505169D01*
X120746539Y-105894436D01*
X120650024Y-106126870D01*
X120554831Y-105896485D01*
X120165564Y-105506539D01*
X119656702Y-105295241D01*
X119105715Y-105294760D01*
X118596485Y-105505169D01*
X118206539Y-105894436D01*
X118110024Y-106126870D01*
X118014831Y-105896485D01*
X117625564Y-105506539D01*
X117193739Y-105327229D01*
X117266022Y-105254946D01*
X117324436Y-105313461D01*
X117833298Y-105524759D01*
X118384285Y-105525240D01*
X118893515Y-105314831D01*
X119283461Y-104925564D01*
X119379976Y-104693130D01*
X119475169Y-104923515D01*
X119864436Y-105313461D01*
X120373298Y-105524759D01*
X120924285Y-105525240D01*
X121433515Y-105314831D01*
X121823461Y-104925564D01*
X121919976Y-104693130D01*
X122015169Y-104923515D01*
X122404436Y-105313461D01*
X122913298Y-105524759D01*
X123464285Y-105525240D01*
X123973515Y-105314831D01*
X124363461Y-104925564D01*
X124574759Y-104416702D01*
X124575240Y-103865715D01*
X124364831Y-103356485D01*
X123975564Y-102966539D01*
X123466702Y-102755241D01*
X122915715Y-102754760D01*
X122406485Y-102965169D01*
X122016539Y-103354436D01*
X121920024Y-103586870D01*
X121824831Y-103356485D01*
X121435564Y-102966539D01*
X120926702Y-102755241D01*
X120375715Y-102754760D01*
X119866485Y-102965169D01*
X119476539Y-103354436D01*
X119380024Y-103586870D01*
X119284831Y-103356485D01*
X118895564Y-102966539D01*
X118854486Y-102949482D01*
X121239168Y-100564800D01*
X122408592Y-100564800D01*
X122471120Y-100879151D01*
X122782189Y-101344698D01*
X123247736Y-101655767D01*
X123796887Y-101765000D01*
X123853113Y-101765000D01*
X124402264Y-101655767D01*
X124867811Y-101344698D01*
X125178880Y-100879151D01*
X125288113Y-100330000D01*
X125178880Y-99780849D01*
X124867811Y-99315302D01*
X124402264Y-99004233D01*
X123853113Y-98895000D01*
X123826005Y-98895000D01*
X123825000Y-98894800D01*
X123390000Y-98894800D01*
X123390000Y-97896586D01*
X123825000Y-97983113D01*
X124374151Y-97873880D01*
X124839698Y-97562811D01*
X125150767Y-97097264D01*
X125260000Y-96548113D01*
X125260000Y-96491887D01*
X125150767Y-95942736D01*
X124839698Y-95477189D01*
X124374151Y-95166120D01*
X123825000Y-95056887D01*
X123390000Y-95143414D01*
X123390000Y-91370300D01*
X123326439Y-91050759D01*
X123145434Y-90779866D01*
X122303175Y-89937607D01*
X122555000Y-89560725D01*
X122810302Y-89942811D01*
X123275849Y-90253880D01*
X123825000Y-90363113D01*
X124374151Y-90253880D01*
X124839698Y-89942811D01*
X125092705Y-89564159D01*
X130906048Y-89564159D01*
X131297909Y-90205859D01*
X131905509Y-90648754D01*
X132050844Y-90708929D01*
X132342000Y-90502410D01*
X132342000Y-89273000D01*
X131106172Y-89273000D01*
X130906048Y-89564159D01*
X125092705Y-89564159D01*
X125150767Y-89477264D01*
X125260000Y-88928113D01*
X125260000Y-88871887D01*
X125150767Y-88322736D01*
X124839698Y-87857189D01*
X124694843Y-87760400D01*
X131196381Y-87760400D01*
X130906048Y-88235841D01*
X131106172Y-88527000D01*
X132342000Y-88527000D01*
X132342000Y-88507000D01*
X133088000Y-88507000D01*
X133088000Y-88527000D01*
X133108000Y-88527000D01*
X133108000Y-89273000D01*
X133088000Y-89273000D01*
X133088000Y-90502410D01*
X133379156Y-90708929D01*
X133524491Y-90648754D01*
X133528870Y-90645562D01*
X133464266Y-90710166D01*
X133283261Y-90981059D01*
X133219700Y-91300600D01*
X133219700Y-95072560D01*
X131915000Y-95072560D01*
X131679683Y-95116838D01*
X131463559Y-95255910D01*
X131318569Y-95468110D01*
X131267560Y-95720000D01*
X131267560Y-97320000D01*
X131311838Y-97555317D01*
X131450910Y-97771441D01*
X131663110Y-97916431D01*
X131915000Y-97967440D01*
X133219700Y-97967440D01*
X133219700Y-98644432D01*
X132968911Y-98895221D01*
X132430813Y-98894752D01*
X131903200Y-99112757D01*
X131499176Y-99516077D01*
X131280250Y-100043309D01*
X131279752Y-100614187D01*
X131497757Y-101141800D01*
X131901077Y-101545824D01*
X132428309Y-101764750D01*
X132999187Y-101765248D01*
X133526800Y-101547243D01*
X133930824Y-101143923D01*
X134149750Y-100616691D01*
X134150222Y-100075646D01*
X134645134Y-99580734D01*
X134826139Y-99309841D01*
X134889700Y-98990300D01*
X134889700Y-96893000D01*
X135628000Y-96893000D01*
X135628000Y-98122410D01*
X135919156Y-98328929D01*
X136064491Y-98268754D01*
X136525000Y-97933077D01*
X136985509Y-98268754D01*
X137130844Y-98328929D01*
X137422000Y-98122410D01*
X137422000Y-96893000D01*
X135628000Y-96893000D01*
X134889700Y-96893000D01*
X134889700Y-94917590D01*
X135628000Y-94917590D01*
X135628000Y-96147000D01*
X137422000Y-96147000D01*
X137422000Y-94917590D01*
X137130844Y-94711071D01*
X136985509Y-94771246D01*
X136525000Y-95106923D01*
X136064491Y-94771246D01*
X135919156Y-94711071D01*
X135628000Y-94917590D01*
X134889700Y-94917590D01*
X134889700Y-91646468D01*
X135845434Y-90690734D01*
X136026440Y-90419840D01*
X136090000Y-90100300D01*
X136090000Y-90062882D01*
X136269698Y-89942811D01*
X136525000Y-89560725D01*
X136780302Y-89942811D01*
X136960000Y-90062882D01*
X136960000Y-90100300D01*
X137023561Y-90419841D01*
X137176516Y-90648754D01*
X137204566Y-90690734D01*
X138230000Y-91716168D01*
X138230000Y-94873613D01*
X138168000Y-94917590D01*
X138168000Y-96147000D01*
X138188000Y-96147000D01*
X138188000Y-96893000D01*
X138168000Y-96893000D01*
X138168000Y-98122410D01*
X138230000Y-98166387D01*
X138230000Y-98894800D01*
X137403300Y-98894800D01*
X137083759Y-98958361D01*
X136827332Y-99129700D01*
X136812866Y-99139366D01*
X132925576Y-103026656D01*
X132865564Y-102966539D01*
X132356702Y-102755241D01*
X131805715Y-102754760D01*
X131296485Y-102965169D01*
X130906539Y-103354436D01*
X130695241Y-103863298D01*
X130694760Y-104414285D01*
X130905169Y-104923515D01*
X131263589Y-105282560D01*
X130060000Y-105282560D01*
X129824683Y-105326838D01*
X129608559Y-105465910D01*
X129463569Y-105678110D01*
X129412560Y-105930000D01*
X129412560Y-107430000D01*
X129456838Y-107665317D01*
X129595910Y-107881441D01*
X129808110Y-108026431D01*
X130060000Y-108077440D01*
X131560000Y-108077440D01*
X131795317Y-108033162D01*
X132011441Y-107894090D01*
X132156431Y-107681890D01*
X132196355Y-107484738D01*
X132564436Y-107853461D01*
X133073298Y-108064759D01*
X133624285Y-108065240D01*
X134133515Y-107854831D01*
X134523461Y-107465564D01*
X134619976Y-107233130D01*
X134715169Y-107463515D01*
X135104436Y-107853461D01*
X135613298Y-108064759D01*
X136164285Y-108065240D01*
X136673515Y-107854831D01*
X137063461Y-107465564D01*
X137159976Y-107233130D01*
X137255169Y-107463515D01*
X137644436Y-107853461D01*
X138153298Y-108064759D01*
X138704285Y-108065240D01*
X139213515Y-107854831D01*
X139603461Y-107465564D01*
X139814759Y-106956702D01*
X139815240Y-106405715D01*
X139618680Y-105930000D01*
X145922560Y-105930000D01*
X145922560Y-107430000D01*
X145966838Y-107665317D01*
X146105910Y-107881441D01*
X146318110Y-108026431D01*
X146570000Y-108077440D01*
X148070000Y-108077440D01*
X148305317Y-108033162D01*
X148521441Y-107894090D01*
X148666431Y-107681890D01*
X148706355Y-107484738D01*
X149074436Y-107853461D01*
X149583298Y-108064759D01*
X150134285Y-108065240D01*
X150643515Y-107854831D01*
X151033461Y-107465564D01*
X151129976Y-107233130D01*
X151225169Y-107463515D01*
X151614436Y-107853461D01*
X152123298Y-108064759D01*
X152674285Y-108065240D01*
X153183515Y-107854831D01*
X153573461Y-107465564D01*
X153669976Y-107233130D01*
X153765169Y-107463515D01*
X154154436Y-107853461D01*
X154663298Y-108064759D01*
X155214285Y-108065240D01*
X155723515Y-107854831D01*
X156113461Y-107465564D01*
X156324759Y-106956702D01*
X156325240Y-106405715D01*
X156128680Y-105930000D01*
X162432560Y-105930000D01*
X162432560Y-107430000D01*
X162476838Y-107665317D01*
X162615910Y-107881441D01*
X162828110Y-108026431D01*
X163080000Y-108077440D01*
X164580000Y-108077440D01*
X164815317Y-108033162D01*
X165031441Y-107894090D01*
X165176431Y-107681890D01*
X165216355Y-107484738D01*
X165584436Y-107853461D01*
X166093298Y-108064759D01*
X166644285Y-108065240D01*
X167153515Y-107854831D01*
X167543461Y-107465564D01*
X167639976Y-107233130D01*
X167735169Y-107463515D01*
X168124436Y-107853461D01*
X168633298Y-108064759D01*
X169184285Y-108065240D01*
X169693515Y-107854831D01*
X170083461Y-107465564D01*
X170179976Y-107233130D01*
X170275169Y-107463515D01*
X170664436Y-107853461D01*
X171173298Y-108064759D01*
X171724285Y-108065240D01*
X172233515Y-107854831D01*
X172623461Y-107465564D01*
X172834759Y-106956702D01*
X172835240Y-106405715D01*
X172624831Y-105896485D01*
X172235564Y-105506539D01*
X171726702Y-105295241D01*
X171175715Y-105294760D01*
X170666485Y-105505169D01*
X170276539Y-105894436D01*
X170180024Y-106126870D01*
X170084831Y-105896485D01*
X169695564Y-105506539D01*
X169186702Y-105295241D01*
X168635715Y-105294760D01*
X168126485Y-105505169D01*
X167736539Y-105894436D01*
X167640024Y-106126870D01*
X167544831Y-105896485D01*
X167155564Y-105506539D01*
X166646702Y-105295241D01*
X166095715Y-105294760D01*
X165586485Y-105505169D01*
X165216920Y-105874091D01*
X165183162Y-105694683D01*
X165073960Y-105524978D01*
X165374285Y-105525240D01*
X165883515Y-105314831D01*
X166273461Y-104925564D01*
X166369976Y-104693130D01*
X166465169Y-104923515D01*
X166854436Y-105313461D01*
X167363298Y-105524759D01*
X167914285Y-105525240D01*
X168423515Y-105314831D01*
X168813461Y-104925564D01*
X168909976Y-104693130D01*
X169005169Y-104923515D01*
X169394436Y-105313461D01*
X169903298Y-105524759D01*
X170454285Y-105525240D01*
X170963515Y-105314831D01*
X171353461Y-104925564D01*
X171449976Y-104693130D01*
X171545169Y-104923515D01*
X171934436Y-105313461D01*
X172443298Y-105524759D01*
X172994285Y-105525240D01*
X173503515Y-105314831D01*
X173893461Y-104925564D01*
X174104759Y-104416702D01*
X174105240Y-103865715D01*
X173894831Y-103356485D01*
X173505564Y-102966539D01*
X172996702Y-102755241D01*
X172445715Y-102754760D01*
X171936485Y-102965169D01*
X171546539Y-103354436D01*
X171450024Y-103586870D01*
X171354831Y-103356485D01*
X170965564Y-102966539D01*
X170456702Y-102755241D01*
X169905715Y-102754760D01*
X169396485Y-102965169D01*
X169006539Y-103354436D01*
X168910024Y-103586870D01*
X168814831Y-103356485D01*
X168425564Y-102966539D01*
X167916702Y-102755241D01*
X167365715Y-102754760D01*
X166856485Y-102965169D01*
X166466539Y-103354436D01*
X166370024Y-103586870D01*
X166274831Y-103356485D01*
X165885564Y-102966539D01*
X165376702Y-102755241D01*
X164825715Y-102754760D01*
X164316485Y-102965169D01*
X163926539Y-103354436D01*
X163715241Y-103863298D01*
X163714760Y-104414285D01*
X163925169Y-104923515D01*
X164283589Y-105282560D01*
X163080000Y-105282560D01*
X162844683Y-105326838D01*
X162628559Y-105465910D01*
X162483569Y-105678110D01*
X162432560Y-105930000D01*
X156128680Y-105930000D01*
X156114831Y-105896485D01*
X155725564Y-105506539D01*
X155216702Y-105295241D01*
X154665715Y-105294760D01*
X154156485Y-105505169D01*
X153766539Y-105894436D01*
X153670024Y-106126870D01*
X153574831Y-105896485D01*
X153185564Y-105506539D01*
X152780307Y-105338261D01*
X152844806Y-105273762D01*
X152884436Y-105313461D01*
X153393298Y-105524759D01*
X153944285Y-105525240D01*
X154453515Y-105314831D01*
X154843461Y-104925564D01*
X154939976Y-104693130D01*
X155035169Y-104923515D01*
X155424436Y-105313461D01*
X155933298Y-105524759D01*
X156484285Y-105525240D01*
X156993515Y-105314831D01*
X157383461Y-104925564D01*
X157594759Y-104416702D01*
X157595240Y-103865715D01*
X157384831Y-103356485D01*
X156995564Y-102966539D01*
X156486702Y-102755241D01*
X155935715Y-102754760D01*
X155426485Y-102965169D01*
X155036539Y-103354436D01*
X154940024Y-103586870D01*
X154844831Y-103356485D01*
X154455564Y-102966539D01*
X154405371Y-102945697D01*
X154997132Y-102353936D01*
X155259541Y-102301739D01*
X155530434Y-102120734D01*
X155711439Y-101849841D01*
X155775000Y-101530300D01*
X155775000Y-101483553D01*
X155982811Y-101344698D01*
X156293880Y-100879151D01*
X156403113Y-100330000D01*
X156293880Y-99780849D01*
X155982811Y-99315302D01*
X155517264Y-99004233D01*
X154968113Y-98895000D01*
X154911887Y-98895000D01*
X154362736Y-99004233D01*
X153897189Y-99315302D01*
X153586120Y-99780849D01*
X153476887Y-100330000D01*
X153586120Y-100879151D01*
X153796030Y-101193302D01*
X151969132Y-103020200D01*
X151915564Y-102966539D01*
X151406702Y-102755241D01*
X150855715Y-102754760D01*
X150346485Y-102965169D01*
X149956539Y-103354436D01*
X149860024Y-103586870D01*
X149764831Y-103356485D01*
X149375564Y-102966539D01*
X148866702Y-102755241D01*
X148315715Y-102754760D01*
X147806485Y-102965169D01*
X147416539Y-103354436D01*
X147205241Y-103863298D01*
X147204760Y-104414285D01*
X147415169Y-104923515D01*
X147773589Y-105282560D01*
X146570000Y-105282560D01*
X146334683Y-105326838D01*
X146118559Y-105465910D01*
X145973569Y-105678110D01*
X145922560Y-105930000D01*
X139618680Y-105930000D01*
X139604831Y-105896485D01*
X139215564Y-105506539D01*
X138706702Y-105295241D01*
X138155715Y-105294760D01*
X137646485Y-105505169D01*
X137256539Y-105894436D01*
X137160024Y-106126870D01*
X137064831Y-105896485D01*
X136675564Y-105506539D01*
X136166702Y-105295241D01*
X135615715Y-105294760D01*
X135106485Y-105505169D01*
X134716539Y-105894436D01*
X134620024Y-106126870D01*
X134524831Y-105896485D01*
X134135564Y-105506539D01*
X133703739Y-105327229D01*
X133776022Y-105254946D01*
X133834436Y-105313461D01*
X134343298Y-105524759D01*
X134894285Y-105525240D01*
X135403515Y-105314831D01*
X135793461Y-104925564D01*
X135889976Y-104693130D01*
X135985169Y-104923515D01*
X136374436Y-105313461D01*
X136883298Y-105524759D01*
X137434285Y-105525240D01*
X137943515Y-105314831D01*
X138333461Y-104925564D01*
X138429976Y-104693130D01*
X138525169Y-104923515D01*
X138914436Y-105313461D01*
X139423298Y-105524759D01*
X139974285Y-105525240D01*
X140483515Y-105314831D01*
X140873461Y-104925564D01*
X141084759Y-104416702D01*
X141085240Y-103865715D01*
X140874831Y-103356485D01*
X140485564Y-102966539D01*
X139976702Y-102755241D01*
X139425715Y-102754760D01*
X138916485Y-102965169D01*
X138526539Y-103354436D01*
X138430024Y-103586870D01*
X138334831Y-103356485D01*
X137945564Y-102966539D01*
X137436702Y-102755241D01*
X136885715Y-102754760D01*
X136376485Y-102965169D01*
X135986539Y-103354436D01*
X135890024Y-103586870D01*
X135794831Y-103356485D01*
X135405564Y-102966539D01*
X135364486Y-102949482D01*
X137749168Y-100564800D01*
X138918592Y-100564800D01*
X138981120Y-100879151D01*
X139292189Y-101344698D01*
X139757736Y-101655767D01*
X140306887Y-101765000D01*
X140363113Y-101765000D01*
X140912264Y-101655767D01*
X141377811Y-101344698D01*
X141688880Y-100879151D01*
X141741584Y-100614187D01*
X145884752Y-100614187D01*
X146102757Y-101141800D01*
X146506077Y-101545824D01*
X147033309Y-101764750D01*
X147604187Y-101765248D01*
X148131800Y-101547243D01*
X148535824Y-101143923D01*
X148754750Y-100616691D01*
X148755248Y-100045813D01*
X148537243Y-99518200D01*
X148133923Y-99114176D01*
X147606691Y-98895250D01*
X147035813Y-98894752D01*
X146508200Y-99112757D01*
X146104176Y-99516077D01*
X145885250Y-100043309D01*
X145884752Y-100614187D01*
X141741584Y-100614187D01*
X141798113Y-100330000D01*
X141688880Y-99780849D01*
X141377811Y-99315302D01*
X140912264Y-99004233D01*
X140363113Y-98895000D01*
X140336005Y-98895000D01*
X140335000Y-98894800D01*
X139900000Y-98894800D01*
X139900000Y-97896586D01*
X140335000Y-97983113D01*
X140884151Y-97873880D01*
X141349698Y-97562811D01*
X141660767Y-97097264D01*
X141770000Y-96548113D01*
X141770000Y-96491887D01*
X141660767Y-95942736D01*
X141511940Y-95720000D01*
X145872560Y-95720000D01*
X145872560Y-97320000D01*
X145916838Y-97555317D01*
X146055910Y-97771441D01*
X146268110Y-97916431D01*
X146520000Y-97967440D01*
X148120000Y-97967440D01*
X148355317Y-97923162D01*
X148472739Y-97847603D01*
X149050509Y-98268754D01*
X149195844Y-98328929D01*
X149487000Y-98122410D01*
X149487000Y-96893000D01*
X150233000Y-96893000D01*
X150233000Y-98122410D01*
X150524156Y-98328929D01*
X150669491Y-98268754D01*
X151130000Y-97933077D01*
X151590509Y-98268754D01*
X151735844Y-98328929D01*
X152027000Y-98122410D01*
X152027000Y-96893000D01*
X150233000Y-96893000D01*
X149487000Y-96893000D01*
X149467000Y-96893000D01*
X149467000Y-96147000D01*
X149487000Y-96147000D01*
X149487000Y-94917590D01*
X150233000Y-94917590D01*
X150233000Y-96147000D01*
X152027000Y-96147000D01*
X152027000Y-94917590D01*
X152773000Y-94917590D01*
X152773000Y-96147000D01*
X152793000Y-96147000D01*
X152793000Y-96893000D01*
X152773000Y-96893000D01*
X152773000Y-98122410D01*
X153064156Y-98328929D01*
X153209491Y-98268754D01*
X153218310Y-98262325D01*
X159920587Y-98262325D01*
X160282916Y-99139229D01*
X160953242Y-99810726D01*
X161829513Y-100174585D01*
X162778325Y-100175413D01*
X163655229Y-99813084D01*
X164326726Y-99142758D01*
X164506760Y-98709187D01*
X166204752Y-98709187D01*
X166422757Y-99236800D01*
X166826077Y-99640824D01*
X167353309Y-99859750D01*
X167924187Y-99860248D01*
X168451800Y-99642243D01*
X168855824Y-99238923D01*
X169074750Y-98711691D01*
X169075000Y-98425000D01*
X173796887Y-98425000D01*
X173906120Y-98974151D01*
X174217189Y-99439698D01*
X174682736Y-99750767D01*
X175231887Y-99860000D01*
X175288113Y-99860000D01*
X175837264Y-99750767D01*
X176302811Y-99439698D01*
X176613880Y-98974151D01*
X176723113Y-98425000D01*
X176613880Y-97875849D01*
X176302811Y-97410302D01*
X175837264Y-97099233D01*
X175288113Y-96990000D01*
X175231887Y-96990000D01*
X174682736Y-97099233D01*
X174217189Y-97410302D01*
X173906120Y-97875849D01*
X173796887Y-98425000D01*
X169075000Y-98425000D01*
X169075248Y-98140813D01*
X168857243Y-97613200D01*
X168453923Y-97209176D01*
X167926691Y-96990250D01*
X167355813Y-96989752D01*
X166828200Y-97207757D01*
X166424176Y-97611077D01*
X166205250Y-98138309D01*
X166204752Y-98709187D01*
X164506760Y-98709187D01*
X164690585Y-98266487D01*
X164691413Y-97317675D01*
X164329084Y-96440771D01*
X163658758Y-95769274D01*
X162782487Y-95405415D01*
X161833675Y-95404587D01*
X160956771Y-95766916D01*
X160285274Y-96437242D01*
X159921415Y-97313513D01*
X159920587Y-98262325D01*
X153218310Y-98262325D01*
X153817091Y-97825859D01*
X153962533Y-97587688D01*
X154390849Y-97873880D01*
X154940000Y-97983113D01*
X155489151Y-97873880D01*
X155954698Y-97562811D01*
X156265767Y-97097264D01*
X156375000Y-96548113D01*
X156375000Y-96491887D01*
X156265767Y-95942736D01*
X155954698Y-95477189D01*
X155489151Y-95166120D01*
X154940000Y-95056887D01*
X154390849Y-95166120D01*
X153962533Y-95452312D01*
X153817091Y-95214141D01*
X153209491Y-94771246D01*
X153064156Y-94711071D01*
X152773000Y-94917590D01*
X152027000Y-94917590D01*
X151735844Y-94711071D01*
X151590509Y-94771246D01*
X151130000Y-95106923D01*
X150669491Y-94771246D01*
X150524156Y-94711071D01*
X150233000Y-94917590D01*
X149487000Y-94917590D01*
X149195844Y-94711071D01*
X149050509Y-94771246D01*
X148472683Y-95192438D01*
X148371890Y-95123569D01*
X148120000Y-95072560D01*
X146520000Y-95072560D01*
X146284683Y-95116838D01*
X146068559Y-95255910D01*
X145923569Y-95468110D01*
X145872560Y-95720000D01*
X141511940Y-95720000D01*
X141349698Y-95477189D01*
X140884151Y-95166120D01*
X140335000Y-95056887D01*
X139900000Y-95143414D01*
X139900000Y-91370300D01*
X139836439Y-91050759D01*
X139655434Y-90779866D01*
X138813175Y-89937607D01*
X139065000Y-89560725D01*
X139320302Y-89942811D01*
X139785849Y-90253880D01*
X140335000Y-90363113D01*
X140884151Y-90253880D01*
X141349698Y-89942811D01*
X141660767Y-89477264D01*
X141770000Y-88928113D01*
X141770000Y-88871887D01*
X141660767Y-88322736D01*
X141362741Y-87876709D01*
X146856066Y-93370034D01*
X147126959Y-93551039D01*
X147446500Y-93614600D01*
X169215001Y-93614600D01*
X168792683Y-93922438D01*
X168691890Y-93853569D01*
X168440000Y-93802560D01*
X166840000Y-93802560D01*
X166604683Y-93846838D01*
X166388559Y-93985910D01*
X166243569Y-94198110D01*
X166192560Y-94450000D01*
X166192560Y-96050000D01*
X166236838Y-96285317D01*
X166375910Y-96501441D01*
X166588110Y-96646431D01*
X166840000Y-96697440D01*
X168440000Y-96697440D01*
X168675317Y-96653162D01*
X168792739Y-96577603D01*
X169370509Y-96998754D01*
X169515844Y-97058929D01*
X169807000Y-96852410D01*
X169807000Y-95623000D01*
X170553000Y-95623000D01*
X170553000Y-96852410D01*
X170844156Y-97058929D01*
X170989491Y-96998754D01*
X171450000Y-96663077D01*
X171910509Y-96998754D01*
X172055844Y-97058929D01*
X172347000Y-96852410D01*
X172347000Y-95623000D01*
X170553000Y-95623000D01*
X169807000Y-95623000D01*
X169787000Y-95623000D01*
X169787000Y-94877000D01*
X169807000Y-94877000D01*
X169807000Y-94857000D01*
X170553000Y-94857000D01*
X170553000Y-94877000D01*
X172347000Y-94877000D01*
X172347000Y-94857000D01*
X172858832Y-94857000D01*
X173113000Y-95111168D01*
X173113000Y-95623000D01*
X173093000Y-95623000D01*
X173093000Y-96852410D01*
X173384156Y-97058929D01*
X173529491Y-96998754D01*
X174137091Y-96555859D01*
X174282533Y-96317688D01*
X174710849Y-96603880D01*
X175260000Y-96713113D01*
X175809151Y-96603880D01*
X176274698Y-96292811D01*
X176585767Y-95827264D01*
X176695000Y-95278113D01*
X176695000Y-95221887D01*
X176585767Y-94672736D01*
X176274698Y-94207189D01*
X175809151Y-93896120D01*
X175260000Y-93786887D01*
X174710849Y-93896120D01*
X174440398Y-94076830D01*
X172552734Y-92189166D01*
X172281841Y-92008161D01*
X171962300Y-91944600D01*
X147792368Y-91944600D01*
X146458911Y-90611143D01*
X146510509Y-90648754D01*
X146655844Y-90708929D01*
X146947000Y-90502410D01*
X146947000Y-89273000D01*
X145711172Y-89273000D01*
X145511048Y-89564159D01*
X145666515Y-89818747D01*
X144083609Y-88235841D01*
X145511048Y-88235841D01*
X145711172Y-88527000D01*
X146947000Y-88527000D01*
X146947000Y-87297590D01*
X147693000Y-87297590D01*
X147693000Y-88527000D01*
X147713000Y-88527000D01*
X147713000Y-89273000D01*
X147693000Y-89273000D01*
X147693000Y-90502410D01*
X147984156Y-90708929D01*
X148129491Y-90648754D01*
X148737091Y-90205859D01*
X148882533Y-89967688D01*
X149310849Y-90253880D01*
X149860000Y-90363113D01*
X150409151Y-90253880D01*
X150874698Y-89942811D01*
X151130000Y-89560725D01*
X151385302Y-89942811D01*
X151850849Y-90253880D01*
X152400000Y-90363113D01*
X152949151Y-90253880D01*
X153414698Y-89942811D01*
X153670000Y-89560725D01*
X153925302Y-89942811D01*
X154390849Y-90253880D01*
X154940000Y-90363113D01*
X155489151Y-90253880D01*
X155954698Y-89942811D01*
X156265767Y-89477264D01*
X156375000Y-88928113D01*
X156375000Y-88871887D01*
X156265767Y-88322736D01*
X156246673Y-88294159D01*
X165831048Y-88294159D01*
X166222909Y-88935859D01*
X166830509Y-89378754D01*
X166975844Y-89438929D01*
X167267000Y-89232410D01*
X167267000Y-88003000D01*
X166031172Y-88003000D01*
X165831048Y-88294159D01*
X156246673Y-88294159D01*
X155954698Y-87857189D01*
X155489151Y-87546120D01*
X154940000Y-87436887D01*
X154390849Y-87546120D01*
X153925302Y-87857189D01*
X153670000Y-88239275D01*
X153414698Y-87857189D01*
X152949151Y-87546120D01*
X152400000Y-87436887D01*
X151850849Y-87546120D01*
X151385302Y-87857189D01*
X151130000Y-88239275D01*
X150874698Y-87857189D01*
X150409151Y-87546120D01*
X149860000Y-87436887D01*
X149333188Y-87541677D01*
X149422086Y-87504854D01*
X149486716Y-87149218D01*
X148590000Y-86252502D01*
X147693284Y-87149218D01*
X147717136Y-87280470D01*
X147693000Y-87297590D01*
X146947000Y-87297590D01*
X146655844Y-87091071D01*
X146510509Y-87151246D01*
X145902909Y-87594141D01*
X145511048Y-88235841D01*
X144083609Y-88235841D01*
X142182734Y-86334966D01*
X142133277Y-86301920D01*
X141911841Y-86153961D01*
X141592300Y-86090400D01*
X140387067Y-86090400D01*
X140419750Y-86011691D01*
X140420076Y-85637373D01*
X146627204Y-85637373D01*
X146743080Y-86395173D01*
X146810146Y-86557086D01*
X147165782Y-86621716D01*
X148062498Y-85725000D01*
X149117502Y-85725000D01*
X150014218Y-86621716D01*
X150369854Y-86557086D01*
X150504493Y-86009187D01*
X152154752Y-86009187D01*
X152372757Y-86536800D01*
X152776077Y-86940824D01*
X153303309Y-87159750D01*
X153874187Y-87160248D01*
X154344688Y-86965841D01*
X165831048Y-86965841D01*
X166031172Y-87257000D01*
X167267000Y-87257000D01*
X167267000Y-86027590D01*
X168013000Y-86027590D01*
X168013000Y-87257000D01*
X168033000Y-87257000D01*
X168033000Y-88003000D01*
X168013000Y-88003000D01*
X168013000Y-89232410D01*
X168304156Y-89438929D01*
X168449491Y-89378754D01*
X169057091Y-88935859D01*
X169202533Y-88697688D01*
X169630849Y-88983880D01*
X170180000Y-89093113D01*
X170729151Y-88983880D01*
X171194698Y-88672811D01*
X171450000Y-88290725D01*
X171705302Y-88672811D01*
X172170849Y-88983880D01*
X172720000Y-89093113D01*
X173269151Y-88983880D01*
X173734698Y-88672811D01*
X173990000Y-88290725D01*
X174245302Y-88672811D01*
X174710849Y-88983880D01*
X175260000Y-89093113D01*
X175809151Y-88983880D01*
X176274698Y-88672811D01*
X176585767Y-88207264D01*
X176695000Y-87658113D01*
X176695000Y-87601887D01*
X176585767Y-87052736D01*
X176274698Y-86587189D01*
X175809151Y-86276120D01*
X175260000Y-86166887D01*
X174710849Y-86276120D01*
X174245302Y-86587189D01*
X173990000Y-86969275D01*
X173734698Y-86587189D01*
X173269151Y-86276120D01*
X172720000Y-86166887D01*
X172170849Y-86276120D01*
X171705302Y-86587189D01*
X171450000Y-86969275D01*
X171194698Y-86587189D01*
X170729151Y-86276120D01*
X170180000Y-86166887D01*
X169653188Y-86271677D01*
X169742086Y-86234854D01*
X169806716Y-85879218D01*
X168910000Y-84982502D01*
X168013284Y-85879218D01*
X168037136Y-86010470D01*
X168013000Y-86027590D01*
X167267000Y-86027590D01*
X166975844Y-85821071D01*
X166830509Y-85881246D01*
X166222909Y-86324141D01*
X165831048Y-86965841D01*
X154344688Y-86965841D01*
X154401800Y-86942243D01*
X154805824Y-86538923D01*
X155024750Y-86011691D01*
X155025248Y-85440813D01*
X154807243Y-84913200D01*
X154403923Y-84509176D01*
X154062424Y-84367373D01*
X166947204Y-84367373D01*
X167063080Y-85125173D01*
X167130146Y-85287086D01*
X167485782Y-85351716D01*
X168382498Y-84455000D01*
X169437502Y-84455000D01*
X170334218Y-85351716D01*
X170689854Y-85287086D01*
X170824493Y-84739187D01*
X172474752Y-84739187D01*
X172692757Y-85266800D01*
X173096077Y-85670824D01*
X173623309Y-85889750D01*
X174194187Y-85890248D01*
X174721800Y-85672243D01*
X175125824Y-85268923D01*
X175344750Y-84741691D01*
X175345248Y-84170813D01*
X175127243Y-83643200D01*
X174723923Y-83239176D01*
X174196691Y-83020250D01*
X173625813Y-83019752D01*
X173098200Y-83237757D01*
X172694176Y-83641077D01*
X172475250Y-84168309D01*
X172474752Y-84739187D01*
X170824493Y-84739187D01*
X170872796Y-84542627D01*
X170756920Y-83784827D01*
X170689854Y-83622914D01*
X170334218Y-83558284D01*
X169437502Y-84455000D01*
X168382498Y-84455000D01*
X167485782Y-83558284D01*
X167130146Y-83622914D01*
X166947204Y-84367373D01*
X154062424Y-84367373D01*
X153876691Y-84290250D01*
X153305813Y-84289752D01*
X152778200Y-84507757D01*
X152374176Y-84911077D01*
X152155250Y-85438309D01*
X152154752Y-86009187D01*
X150504493Y-86009187D01*
X150552796Y-85812627D01*
X150436920Y-85054827D01*
X150369854Y-84892914D01*
X150014218Y-84828284D01*
X149117502Y-85725000D01*
X148062498Y-85725000D01*
X147165782Y-84828284D01*
X146810146Y-84892914D01*
X146627204Y-85637373D01*
X140420076Y-85637373D01*
X140420248Y-85440813D01*
X140202243Y-84913200D01*
X139798923Y-84509176D01*
X139297055Y-84300782D01*
X147693284Y-84300782D01*
X148590000Y-85197498D01*
X149486716Y-84300782D01*
X149422086Y-83945146D01*
X148677627Y-83762204D01*
X147919827Y-83878080D01*
X147757914Y-83945146D01*
X147693284Y-84300782D01*
X139297055Y-84300782D01*
X139271691Y-84290250D01*
X138700813Y-84289752D01*
X138173200Y-84507757D01*
X137769176Y-84911077D01*
X137550250Y-85438309D01*
X137549752Y-86009187D01*
X137583308Y-86090400D01*
X135879537Y-86090400D01*
X135947796Y-85812627D01*
X135831920Y-85054827D01*
X135764854Y-84892914D01*
X135409218Y-84828284D01*
X134512502Y-85725000D01*
X134526644Y-85739142D01*
X134175386Y-86090400D01*
X133794614Y-86090400D01*
X133443356Y-85739142D01*
X133457498Y-85725000D01*
X132560782Y-84828284D01*
X132205146Y-84892914D01*
X132022204Y-85637373D01*
X132091477Y-86090400D01*
X123877067Y-86090400D01*
X123909750Y-86011691D01*
X123910248Y-85440813D01*
X123692243Y-84913200D01*
X123288923Y-84509176D01*
X122787055Y-84300782D01*
X133088284Y-84300782D01*
X133985000Y-85197498D01*
X134881716Y-84300782D01*
X134817086Y-83945146D01*
X134072627Y-83762204D01*
X133314827Y-83878080D01*
X133152914Y-83945146D01*
X133088284Y-84300782D01*
X122787055Y-84300782D01*
X122761691Y-84290250D01*
X122190813Y-84289752D01*
X121663200Y-84507757D01*
X121259176Y-84911077D01*
X121040250Y-85438309D01*
X121039752Y-86009187D01*
X121073308Y-86090400D01*
X119369537Y-86090400D01*
X119437796Y-85812627D01*
X119321920Y-85054827D01*
X119254854Y-84892914D01*
X118899218Y-84828284D01*
X118002502Y-85725000D01*
X118016644Y-85739142D01*
X117665386Y-86090400D01*
X117284614Y-86090400D01*
X116933356Y-85739142D01*
X116947498Y-85725000D01*
X116050782Y-84828284D01*
X115695146Y-84892914D01*
X115512204Y-85637373D01*
X115581477Y-86090400D01*
X107367067Y-86090400D01*
X107399750Y-86011691D01*
X107400248Y-85440813D01*
X107182243Y-84913200D01*
X106778923Y-84509176D01*
X106277055Y-84300782D01*
X116578284Y-84300782D01*
X117475000Y-85197498D01*
X118371716Y-84300782D01*
X118307086Y-83945146D01*
X117562627Y-83762204D01*
X116804827Y-83878080D01*
X116642914Y-83945146D01*
X116578284Y-84300782D01*
X106277055Y-84300782D01*
X106251691Y-84290250D01*
X105680813Y-84289752D01*
X105153200Y-84507757D01*
X104749176Y-84911077D01*
X104530250Y-85438309D01*
X104529752Y-86009187D01*
X104563308Y-86090400D01*
X102859537Y-86090400D01*
X102927796Y-85812627D01*
X102811920Y-85054827D01*
X102744854Y-84892914D01*
X102389218Y-84828284D01*
X101492502Y-85725000D01*
X101506644Y-85739142D01*
X101155386Y-86090400D01*
X100774614Y-86090400D01*
X100423356Y-85739142D01*
X100437498Y-85725000D01*
X99540782Y-84828284D01*
X99185146Y-84892914D01*
X99002204Y-85637373D01*
X99071477Y-86090400D01*
X97431268Y-86090400D01*
X95641650Y-84300782D01*
X100068284Y-84300782D01*
X100965000Y-85197498D01*
X101861716Y-84300782D01*
X101797086Y-83945146D01*
X101052627Y-83762204D01*
X100294827Y-83878080D01*
X100132914Y-83945146D01*
X100068284Y-84300782D01*
X95641650Y-84300782D01*
X94371650Y-83030782D01*
X168013284Y-83030782D01*
X168910000Y-83927498D01*
X169806716Y-83030782D01*
X169742086Y-82675146D01*
X168997627Y-82492204D01*
X168239827Y-82608080D01*
X168077914Y-82675146D01*
X168013284Y-83030782D01*
X94371650Y-83030782D01*
X88810868Y-77470000D01*
X136966887Y-77470000D01*
X137076120Y-78019151D01*
X137387189Y-78484698D01*
X137852736Y-78795767D01*
X138401887Y-78905000D01*
X138458113Y-78905000D01*
X139007264Y-78795767D01*
X139472811Y-78484698D01*
X139783880Y-78019151D01*
X139893113Y-77470000D01*
X139783880Y-76920849D01*
X139472811Y-76455302D01*
X139007264Y-76144233D01*
X138458113Y-76035000D01*
X138401887Y-76035000D01*
X137852736Y-76144233D01*
X137387189Y-76455302D01*
X137076120Y-76920849D01*
X136966887Y-77470000D01*
X88810868Y-77470000D01*
X85165934Y-73825066D01*
X85374187Y-73825248D01*
X85901800Y-73607243D01*
X86305824Y-73203923D01*
X86359862Y-73073785D01*
X86412757Y-73201800D01*
X86816077Y-73605824D01*
X87343309Y-73824750D01*
X87914187Y-73825248D01*
X88441800Y-73607243D01*
X88845824Y-73203923D01*
X88899862Y-73073785D01*
X88952757Y-73201800D01*
X89356077Y-73605824D01*
X89883309Y-73824750D01*
X90454187Y-73825248D01*
X90981800Y-73607243D01*
X91385824Y-73203923D01*
X91439862Y-73073785D01*
X91492757Y-73201800D01*
X91896077Y-73605824D01*
X92423309Y-73824750D01*
X92994187Y-73825248D01*
X93521800Y-73607243D01*
X93925824Y-73203923D01*
X93979862Y-73073785D01*
X94032757Y-73201800D01*
X94436077Y-73605824D01*
X94963309Y-73824750D01*
X95534187Y-73825248D01*
X96061800Y-73607243D01*
X96465824Y-73203923D01*
X96519862Y-73073785D01*
X96572757Y-73201800D01*
X96976077Y-73605824D01*
X97503309Y-73824750D01*
X98074187Y-73825248D01*
X98601800Y-73607243D01*
X99005824Y-73203923D01*
X99059862Y-73073785D01*
X99112757Y-73201800D01*
X99516077Y-73605824D01*
X100043309Y-73824750D01*
X100614187Y-73825248D01*
X101141800Y-73607243D01*
X101235000Y-73514205D01*
X101235000Y-74294995D01*
X101234999Y-74295000D01*
X101359457Y-74920688D01*
X101713880Y-75451120D01*
X102983878Y-76721117D01*
X102983880Y-76721120D01*
X103301851Y-76933581D01*
X103514312Y-77075543D01*
X104140000Y-77200000D01*
X130174995Y-77200000D01*
X130175000Y-77200001D01*
X130800688Y-77075543D01*
X131331120Y-76721120D01*
X134027240Y-74025000D01*
X135254995Y-74025000D01*
X135255000Y-74025001D01*
X135880688Y-73900543D01*
X136240686Y-73660000D01*
X136966887Y-73660000D01*
X137076120Y-74209151D01*
X137387189Y-74674698D01*
X137852736Y-74985767D01*
X138401887Y-75095000D01*
X138458113Y-75095000D01*
X139007264Y-74985767D01*
X139472811Y-74674698D01*
X139783880Y-74209151D01*
X139893113Y-73660000D01*
X139783880Y-73110849D01*
X139472811Y-72645302D01*
X139007264Y-72334233D01*
X138458113Y-72225000D01*
X138401887Y-72225000D01*
X137852736Y-72334233D01*
X137387189Y-72645302D01*
X137076120Y-73110849D01*
X136966887Y-73660000D01*
X136240686Y-73660000D01*
X136411120Y-73546120D01*
X138482726Y-71474513D01*
X139055688Y-71360543D01*
X139586120Y-71006120D01*
X140017500Y-70574740D01*
X144258880Y-74816120D01*
X144415000Y-74920436D01*
X144415000Y-77470000D01*
X144539457Y-78095687D01*
X144893880Y-78626120D01*
X145424313Y-78980543D01*
X146050000Y-79105000D01*
X146675687Y-78980543D01*
X147206120Y-78626120D01*
X147560543Y-78095687D01*
X147685000Y-77470000D01*
X147685000Y-73660000D01*
X147560543Y-73034313D01*
X147488054Y-72925825D01*
X159920587Y-72925825D01*
X160282916Y-73802729D01*
X160953242Y-74474226D01*
X161829513Y-74838085D01*
X162778325Y-74838913D01*
X163655229Y-74476584D01*
X164326726Y-73806258D01*
X164690585Y-72929987D01*
X164691413Y-71981175D01*
X164329084Y-71104271D01*
X163658758Y-70432774D01*
X162782487Y-70068915D01*
X161833675Y-70068087D01*
X160956771Y-70430416D01*
X160285274Y-71100742D01*
X159921415Y-71977013D01*
X159920587Y-72925825D01*
X147488054Y-72925825D01*
X147206120Y-72503880D01*
X146675687Y-72149457D01*
X146102728Y-72035488D01*
X140221120Y-66153880D01*
X139690688Y-65799457D01*
X139065000Y-65674999D01*
X138439312Y-65799457D01*
X137908880Y-66153880D01*
X137554457Y-66684312D01*
X137429999Y-67310000D01*
X137430000Y-67310005D01*
X137430000Y-68287603D01*
X137287231Y-68316002D01*
X137287242Y-68303339D01*
X137075010Y-67789697D01*
X136682370Y-67396371D01*
X136474488Y-67310051D01*
X136680303Y-67225010D01*
X137073629Y-66832370D01*
X137286757Y-66319100D01*
X137287242Y-65763339D01*
X137075010Y-65249697D01*
X136682370Y-64856371D01*
X136474488Y-64770051D01*
X136680303Y-64685010D01*
X137073629Y-64292370D01*
X137286757Y-63779100D01*
X137287242Y-63223339D01*
X137075010Y-62709697D01*
X136959702Y-62594187D01*
X137629752Y-62594187D01*
X137847757Y-63121800D01*
X138251077Y-63525824D01*
X138778309Y-63744750D01*
X139349187Y-63745248D01*
X139876800Y-63527243D01*
X140280824Y-63123923D01*
X140499750Y-62596691D01*
X140500248Y-62025813D01*
X140282243Y-61498200D01*
X139878923Y-61094176D01*
X139351691Y-60875250D01*
X138780813Y-60874752D01*
X138253200Y-61092757D01*
X137849176Y-61496077D01*
X137630250Y-62023309D01*
X137629752Y-62594187D01*
X136959702Y-62594187D01*
X136682370Y-62316371D01*
X136474488Y-62230051D01*
X136680303Y-62145010D01*
X137073629Y-61752370D01*
X137286757Y-61239100D01*
X137287242Y-60683339D01*
X137075010Y-60169697D01*
X136682370Y-59776371D01*
X136169100Y-59563243D01*
X135613339Y-59562758D01*
X135099697Y-59774990D01*
X134706371Y-60167630D01*
X134620051Y-60375512D01*
X134535010Y-60169697D01*
X134142370Y-59776371D01*
X133629100Y-59563243D01*
X133073339Y-59562758D01*
X132559697Y-59774990D01*
X132166371Y-60167630D01*
X131953243Y-60680900D01*
X131952811Y-61176321D01*
X122599566Y-70529566D01*
X122418561Y-70800459D01*
X122355000Y-71120000D01*
X122355000Y-71195917D01*
X121974176Y-71576077D01*
X121920138Y-71706215D01*
X121867243Y-71578200D01*
X121463923Y-71174176D01*
X120936691Y-70955250D01*
X120365813Y-70954752D01*
X119838200Y-71172757D01*
X119434176Y-71576077D01*
X119380138Y-71706215D01*
X119327243Y-71578200D01*
X118923923Y-71174176D01*
X118396691Y-70955250D01*
X117825813Y-70954752D01*
X117298200Y-71172757D01*
X116894176Y-71576077D01*
X116840138Y-71706215D01*
X116787243Y-71578200D01*
X116383923Y-71174176D01*
X115856691Y-70955250D01*
X115285813Y-70954752D01*
X114758200Y-71172757D01*
X114354176Y-71576077D01*
X114300138Y-71706215D01*
X114247243Y-71578200D01*
X113843923Y-71174176D01*
X113713785Y-71120138D01*
X113841800Y-71067243D01*
X114245824Y-70663923D01*
X114464750Y-70136691D01*
X114465248Y-69565813D01*
X114247243Y-69038200D01*
X113843923Y-68634176D01*
X113713785Y-68580138D01*
X113841800Y-68527243D01*
X114245824Y-68123923D01*
X114464750Y-67596691D01*
X114465248Y-67025813D01*
X114247243Y-66498200D01*
X113843923Y-66094176D01*
X113713785Y-66040138D01*
X113841800Y-65987243D01*
X114245824Y-65583923D01*
X114299862Y-65453785D01*
X114352757Y-65581800D01*
X114756077Y-65985824D01*
X115283309Y-66204750D01*
X115854187Y-66205248D01*
X116381800Y-65987243D01*
X116785824Y-65583923D01*
X116839862Y-65453785D01*
X116892757Y-65581800D01*
X117296077Y-65985824D01*
X117823309Y-66204750D01*
X118394187Y-66205248D01*
X118921800Y-65987243D01*
X119325824Y-65583923D01*
X119379862Y-65453785D01*
X119432757Y-65581800D01*
X119836077Y-65985824D01*
X120363309Y-66204750D01*
X120934187Y-66205248D01*
X121461800Y-65987243D01*
X121865824Y-65583923D01*
X121919862Y-65453785D01*
X121972757Y-65581800D01*
X122376077Y-65985824D01*
X122903309Y-66204750D01*
X123474187Y-66205248D01*
X124001800Y-65987243D01*
X124405824Y-65583923D01*
X124459862Y-65453785D01*
X124512757Y-65581800D01*
X124916077Y-65985824D01*
X125443309Y-66204750D01*
X126014187Y-66205248D01*
X126541800Y-65987243D01*
X126945824Y-65583923D01*
X127164750Y-65056691D01*
X127165248Y-64485813D01*
X126947243Y-63958200D01*
X126543923Y-63554176D01*
X126413785Y-63500138D01*
X126541800Y-63447243D01*
X126945824Y-63043923D01*
X127164750Y-62516691D01*
X127165248Y-61945813D01*
X126947243Y-61418200D01*
X126543923Y-61014176D01*
X126016691Y-60795250D01*
X125445813Y-60794752D01*
X124918200Y-61012757D01*
X124514176Y-61416077D01*
X124460138Y-61546215D01*
X124407243Y-61418200D01*
X124003923Y-61014176D01*
X123476691Y-60795250D01*
X122905813Y-60794752D01*
X122378200Y-61012757D01*
X121974176Y-61416077D01*
X121920138Y-61546215D01*
X121867243Y-61418200D01*
X121463923Y-61014176D01*
X120936691Y-60795250D01*
X120365813Y-60794752D01*
X119838200Y-61012757D01*
X119434176Y-61416077D01*
X119380138Y-61546215D01*
X119327243Y-61418200D01*
X118923923Y-61014176D01*
X118396691Y-60795250D01*
X117825813Y-60794752D01*
X117298200Y-61012757D01*
X116894176Y-61416077D01*
X116840138Y-61546215D01*
X116787243Y-61418200D01*
X116383923Y-61014176D01*
X115856691Y-60795250D01*
X115285813Y-60794752D01*
X114758200Y-61012757D01*
X114354176Y-61416077D01*
X114300138Y-61546215D01*
X114247243Y-61418200D01*
X113843923Y-61014176D01*
X113713785Y-60960138D01*
X113841800Y-60907243D01*
X114245824Y-60503923D01*
X114464750Y-59976691D01*
X114465248Y-59405813D01*
X114247243Y-58878200D01*
X113843923Y-58474176D01*
X113713785Y-58420138D01*
X113841800Y-58367243D01*
X114245824Y-57963923D01*
X114299862Y-57833785D01*
X114352757Y-57961800D01*
X114756077Y-58365824D01*
X115283309Y-58584750D01*
X115854187Y-58585248D01*
X116381800Y-58367243D01*
X116785824Y-57963923D01*
X116839862Y-57833785D01*
X116892757Y-57961800D01*
X117296077Y-58365824D01*
X117823309Y-58584750D01*
X118394187Y-58585248D01*
X118921800Y-58367243D01*
X119325824Y-57963923D01*
X119379862Y-57833785D01*
X119432757Y-57961800D01*
X119836077Y-58365824D01*
X120363309Y-58584750D01*
X120934187Y-58585248D01*
X121461800Y-58367243D01*
X121865824Y-57963923D01*
X121919862Y-57833785D01*
X121972757Y-57961800D01*
X122376077Y-58365824D01*
X122903309Y-58584750D01*
X123474187Y-58585248D01*
X124001800Y-58367243D01*
X124405824Y-57963923D01*
X124459862Y-57833785D01*
X124512757Y-57961800D01*
X124916077Y-58365824D01*
X125443309Y-58584750D01*
X126014187Y-58585248D01*
X126541800Y-58367243D01*
X126945824Y-57963923D01*
X127164750Y-57436691D01*
X127165248Y-56865813D01*
X126947243Y-56338200D01*
X126543923Y-55934176D01*
X126016691Y-55715250D01*
X125445813Y-55714752D01*
X124918200Y-55932757D01*
X124514176Y-56336077D01*
X124460138Y-56466215D01*
X124407243Y-56338200D01*
X124003923Y-55934176D01*
X123476691Y-55715250D01*
X122905813Y-55714752D01*
X122378200Y-55932757D01*
X121974176Y-56336077D01*
X121920138Y-56466215D01*
X121867243Y-56338200D01*
X121463923Y-55934176D01*
X120936691Y-55715250D01*
X120365813Y-55714752D01*
X119838200Y-55932757D01*
X119434176Y-56336077D01*
X119380138Y-56466215D01*
X119327243Y-56338200D01*
X118923923Y-55934176D01*
X118396691Y-55715250D01*
X117825813Y-55714752D01*
X117298200Y-55932757D01*
X116894176Y-56336077D01*
X116840138Y-56466215D01*
X116787243Y-56338200D01*
X116383923Y-55934176D01*
X115856691Y-55715250D01*
X115285813Y-55714752D01*
X114758200Y-55932757D01*
X114354176Y-56336077D01*
X114300138Y-56466215D01*
X114247243Y-56338200D01*
X113843923Y-55934176D01*
X113316691Y-55715250D01*
X112745813Y-55714752D01*
X112218200Y-55932757D01*
X111814176Y-56336077D01*
X111760138Y-56466215D01*
X111707243Y-56338200D01*
X111303923Y-55934176D01*
X110776691Y-55715250D01*
X110205813Y-55714752D01*
X109678200Y-55932757D01*
X109274176Y-56336077D01*
X109220138Y-56466215D01*
X109167243Y-56338200D01*
X108763923Y-55934176D01*
X108236691Y-55715250D01*
X107665813Y-55714752D01*
X107138200Y-55932757D01*
X106734176Y-56336077D01*
X106680138Y-56466215D01*
X106627243Y-56338200D01*
X106223923Y-55934176D01*
X105696691Y-55715250D01*
X105125813Y-55714752D01*
X104598200Y-55932757D01*
X104194176Y-56336077D01*
X104140138Y-56466215D01*
X104087243Y-56338200D01*
X103683923Y-55934176D01*
X103156691Y-55715250D01*
X102585813Y-55714752D01*
X102058200Y-55932757D01*
X101654176Y-56336077D01*
X101600138Y-56466215D01*
X101547243Y-56338200D01*
X101143923Y-55934176D01*
X100616691Y-55715250D01*
X100045813Y-55714752D01*
X99518200Y-55932757D01*
X99114176Y-56336077D01*
X99060138Y-56466215D01*
X99007243Y-56338200D01*
X98603923Y-55934176D01*
X98076691Y-55715250D01*
X97505813Y-55714752D01*
X96978200Y-55932757D01*
X96574176Y-56336077D01*
X96520138Y-56466215D01*
X96467243Y-56338200D01*
X96063923Y-55934176D01*
X95536691Y-55715250D01*
X94965813Y-55714752D01*
X94438200Y-55932757D01*
X94034176Y-56336077D01*
X93980138Y-56466215D01*
X93927243Y-56338200D01*
X93523923Y-55934176D01*
X92996691Y-55715250D01*
X92425813Y-55714752D01*
X91898200Y-55932757D01*
X91494176Y-56336077D01*
X91440138Y-56466215D01*
X91387243Y-56338200D01*
X90983923Y-55934176D01*
X90456691Y-55715250D01*
X89885813Y-55714752D01*
X89358200Y-55932757D01*
X88954176Y-56336077D01*
X88900138Y-56466215D01*
X88847243Y-56338200D01*
X88443923Y-55934176D01*
X87916691Y-55715250D01*
X87345813Y-55714752D01*
X86818200Y-55932757D01*
X86414176Y-56336077D01*
X86360138Y-56466215D01*
X86307243Y-56338200D01*
X85903923Y-55934176D01*
X85376691Y-55715250D01*
X84805813Y-55714752D01*
X84278200Y-55932757D01*
X83874176Y-56336077D01*
X83820138Y-56466215D01*
X83767243Y-56338200D01*
X83363923Y-55934176D01*
X82836691Y-55715250D01*
X82265813Y-55714752D01*
X81738200Y-55932757D01*
X81334176Y-56336077D01*
X81280138Y-56466215D01*
X81227243Y-56338200D01*
X80823923Y-55934176D01*
X80296691Y-55715250D01*
X79725813Y-55714752D01*
X79198200Y-55932757D01*
X78794176Y-56336077D01*
X78740138Y-56466215D01*
X78687243Y-56338200D01*
X78283923Y-55934176D01*
X77756691Y-55715250D01*
X77185813Y-55714752D01*
X76658200Y-55932757D01*
X76254176Y-56336077D01*
X76200138Y-56466215D01*
X76147243Y-56338200D01*
X75743923Y-55934176D01*
X75216691Y-55715250D01*
X74645813Y-55714752D01*
X74118200Y-55932757D01*
X73714176Y-56336077D01*
X73660138Y-56466215D01*
X73607243Y-56338200D01*
X73203923Y-55934176D01*
X72676691Y-55715250D01*
X72105813Y-55714752D01*
X71578200Y-55932757D01*
X71174176Y-56336077D01*
X71120138Y-56466215D01*
X71067243Y-56338200D01*
X70663923Y-55934176D01*
X70136691Y-55715250D01*
X69565813Y-55714752D01*
X69038200Y-55932757D01*
X68634176Y-56336077D01*
X68621928Y-56365574D01*
X67837502Y-57150000D01*
X68621107Y-57933605D01*
X68632757Y-57961800D01*
X69036077Y-58365824D01*
X69166215Y-58419862D01*
X69038200Y-58472757D01*
X68634176Y-58876077D01*
X68415250Y-59403309D01*
X68414752Y-59974187D01*
X68632757Y-60501800D01*
X69036077Y-60905824D01*
X69563309Y-61124750D01*
X70134187Y-61125248D01*
X70661800Y-60907243D01*
X71065824Y-60503923D01*
X71284750Y-59976691D01*
X71285248Y-59405813D01*
X71067243Y-58878200D01*
X70663923Y-58474176D01*
X70533785Y-58420138D01*
X70661800Y-58367243D01*
X71065824Y-57963923D01*
X71119862Y-57833785D01*
X71172757Y-57961800D01*
X71576077Y-58365824D01*
X72103309Y-58584750D01*
X72674187Y-58585248D01*
X73201800Y-58367243D01*
X73605824Y-57963923D01*
X73659862Y-57833785D01*
X73712757Y-57961800D01*
X74116077Y-58365824D01*
X74246215Y-58419862D01*
X74118200Y-58472757D01*
X73714176Y-58876077D01*
X73495250Y-59403309D01*
X73494752Y-59974187D01*
X73712757Y-60501800D01*
X74116077Y-60905824D01*
X74643309Y-61124750D01*
X75214187Y-61125248D01*
X75741800Y-60907243D01*
X76145824Y-60503923D01*
X76199862Y-60373785D01*
X76252757Y-60501800D01*
X76656077Y-60905824D01*
X77183309Y-61124750D01*
X77754187Y-61125248D01*
X78281800Y-60907243D01*
X78685824Y-60503923D01*
X78739862Y-60373785D01*
X78792757Y-60501800D01*
X79196077Y-60905824D01*
X79723309Y-61124750D01*
X80294187Y-61125248D01*
X80821800Y-60907243D01*
X81225824Y-60503923D01*
X81444750Y-59976691D01*
X81445248Y-59405813D01*
X81227243Y-58878200D01*
X80823923Y-58474176D01*
X80693785Y-58420138D01*
X80821800Y-58367243D01*
X81225824Y-57963923D01*
X81279862Y-57833785D01*
X81332757Y-57961800D01*
X81736077Y-58365824D01*
X82263309Y-58584750D01*
X82804354Y-58585222D01*
X84925766Y-60706634D01*
X85057973Y-60794972D01*
X84805813Y-60794752D01*
X84278200Y-61012757D01*
X83874176Y-61416077D01*
X83820138Y-61546215D01*
X83767243Y-61418200D01*
X83363923Y-61014176D01*
X82836691Y-60795250D01*
X82265813Y-60794752D01*
X81738200Y-61012757D01*
X81334176Y-61416077D01*
X81115250Y-61943309D01*
X81114752Y-62514187D01*
X81332757Y-63041800D01*
X81736077Y-63445824D01*
X81866215Y-63499862D01*
X81738200Y-63552757D01*
X81334176Y-63956077D01*
X81115250Y-64483309D01*
X81114752Y-65054187D01*
X81332757Y-65581800D01*
X81736077Y-65985824D01*
X82263309Y-66204750D01*
X82834187Y-66205248D01*
X83361800Y-65987243D01*
X83765824Y-65583923D01*
X83819862Y-65453785D01*
X83872757Y-65581800D01*
X84276077Y-65985824D01*
X84803309Y-66204750D01*
X85374187Y-66205248D01*
X85901800Y-65987243D01*
X86305824Y-65583923D01*
X86359862Y-65453785D01*
X86412757Y-65581800D01*
X86816077Y-65985824D01*
X87343309Y-66204750D01*
X87914187Y-66205248D01*
X88441800Y-65987243D01*
X88845824Y-65583923D01*
X88899862Y-65453785D01*
X88952757Y-65581800D01*
X89356077Y-65985824D01*
X89470426Y-66033306D01*
X86643532Y-68860200D01*
X83511200Y-68860200D01*
X83191659Y-68923761D01*
X83020389Y-69038200D01*
X82920766Y-69104766D01*
X80837628Y-71187904D01*
X80823923Y-71174176D01*
X80296691Y-70955250D01*
X79725813Y-70954752D01*
X79198200Y-71172757D01*
X78794176Y-71576077D01*
X78740138Y-71706215D01*
X78687243Y-71578200D01*
X78283923Y-71174176D01*
X77756691Y-70955250D01*
X77185813Y-70954752D01*
X76658200Y-71172757D01*
X76254176Y-71576077D01*
X76200138Y-71706215D01*
X76147243Y-71578200D01*
X75743923Y-71174176D01*
X75216691Y-70955250D01*
X74645813Y-70954752D01*
X74118200Y-71172757D01*
X73714176Y-71576077D01*
X73660138Y-71706215D01*
X73607243Y-71578200D01*
X73203923Y-71174176D01*
X72676691Y-70955250D01*
X72105813Y-70954752D01*
X71578200Y-71172757D01*
X71174176Y-71576077D01*
X71120138Y-71706215D01*
X71067243Y-71578200D01*
X70663923Y-71174176D01*
X70136691Y-70955250D01*
X69565813Y-70954752D01*
X69038200Y-71172757D01*
X68735742Y-71474688D01*
X68713162Y-71354683D01*
X68574090Y-71138559D01*
X68361890Y-70993569D01*
X68110000Y-70942560D01*
X66510000Y-70942560D01*
X66274683Y-70986838D01*
X66058559Y-71125910D01*
X65913569Y-71338110D01*
X65862560Y-71590000D01*
X65862560Y-73190000D01*
X65906838Y-73425317D01*
X66045910Y-73641441D01*
X66258110Y-73786431D01*
X66510000Y-73837440D01*
X68110000Y-73837440D01*
X68345317Y-73793162D01*
X68561441Y-73654090D01*
X68706431Y-73441890D01*
X68734426Y-73303646D01*
X69036077Y-73605824D01*
X69563309Y-73824750D01*
X70134187Y-73825248D01*
X70661800Y-73607243D01*
X71065824Y-73203923D01*
X71119862Y-73073785D01*
X71172757Y-73201800D01*
X71576077Y-73605824D01*
X72103309Y-73824750D01*
X72314198Y-73824934D01*
X53384566Y-92754566D01*
X53203561Y-93025459D01*
X53140000Y-93345000D01*
X53140000Y-95357118D01*
X52997533Y-95452312D01*
X52852091Y-95214141D01*
X52244491Y-94771246D01*
X52099156Y-94711071D01*
X51808000Y-94917590D01*
X51062000Y-94917590D01*
X50770844Y-94711071D01*
X50625509Y-94771246D01*
X50165000Y-95106923D01*
X49704491Y-94771246D01*
X49559156Y-94711071D01*
X49268000Y-94917590D01*
X48522000Y-94917590D01*
X48390400Y-94824245D01*
X48390400Y-94325768D01*
X52025434Y-90690734D01*
X52053484Y-90648754D01*
X52206439Y-90419841D01*
X52270000Y-90100300D01*
X52270000Y-90062882D01*
X52449698Y-89942811D01*
X52705000Y-89560725D01*
X52960302Y-89942811D01*
X53425849Y-90253880D01*
X53975000Y-90363113D01*
X54524151Y-90253880D01*
X54989698Y-89942811D01*
X55300767Y-89477264D01*
X55410000Y-88928113D01*
X55410000Y-88871887D01*
X55300767Y-88322736D01*
X54989698Y-87857189D01*
X54524151Y-87546120D01*
X53975000Y-87436887D01*
X53425849Y-87546120D01*
X52960302Y-87857189D01*
X52705000Y-88239275D01*
X52449698Y-87857189D01*
X51984151Y-87546120D01*
X51435000Y-87436887D01*
X50885849Y-87546120D01*
X50420302Y-87857189D01*
X50165000Y-88239275D01*
X49909698Y-87857189D01*
X49444151Y-87546120D01*
X48895000Y-87436887D01*
X48368188Y-87541677D01*
X48457086Y-87504854D01*
X48521716Y-87149218D01*
X47625000Y-86252502D01*
X46728284Y-87149218D01*
X46752136Y-87280470D01*
X46728000Y-87297590D01*
X46728000Y-88527000D01*
X46748000Y-88527000D01*
X46748000Y-89273000D01*
X46728000Y-89273000D01*
X46728000Y-90502410D01*
X47019156Y-90708929D01*
X47164491Y-90648754D01*
X47772091Y-90205859D01*
X47917533Y-89967688D01*
X48345849Y-90253880D01*
X48895000Y-90363113D01*
X49444151Y-90253880D01*
X49909698Y-89942811D01*
X50165000Y-89560725D01*
X50416825Y-89937607D01*
X46964966Y-93389466D01*
X46783961Y-93660359D01*
X46720400Y-93979900D01*
X46720400Y-95072560D01*
X45555000Y-95072560D01*
X45319683Y-95116838D01*
X45103559Y-95255910D01*
X44958569Y-95468110D01*
X44907560Y-95720000D01*
X44907560Y-97320000D01*
X44951838Y-97555317D01*
X45090910Y-97771441D01*
X45303110Y-97916431D01*
X45555000Y-97967440D01*
X45950092Y-97967440D01*
X45598705Y-98318827D01*
X45400459Y-98358261D01*
X45129566Y-98539266D01*
X44948561Y-98810159D01*
X44885000Y-99129700D01*
X44885000Y-99176447D01*
X44677189Y-99315302D01*
X44366120Y-99780849D01*
X44256887Y-100330000D01*
X43890000Y-100330000D01*
X43890000Y-89564159D01*
X44546048Y-89564159D01*
X44937909Y-90205859D01*
X45545509Y-90648754D01*
X45690844Y-90708929D01*
X45982000Y-90502410D01*
X45982000Y-89273000D01*
X44746172Y-89273000D01*
X44546048Y-89564159D01*
X43890000Y-89564159D01*
X43890000Y-88235841D01*
X44546048Y-88235841D01*
X44746172Y-88527000D01*
X45982000Y-88527000D01*
X45982000Y-87297590D01*
X45690844Y-87091071D01*
X45545509Y-87151246D01*
X44937909Y-87594141D01*
X44546048Y-88235841D01*
X43890000Y-88235841D01*
X43890000Y-85637373D01*
X45662204Y-85637373D01*
X45778080Y-86395173D01*
X45845146Y-86557086D01*
X46200782Y-86621716D01*
X47097498Y-85725000D01*
X48152502Y-85725000D01*
X49049218Y-86621716D01*
X49404854Y-86557086D01*
X49539493Y-86009187D01*
X51189752Y-86009187D01*
X51407757Y-86536800D01*
X51811077Y-86940824D01*
X52338309Y-87159750D01*
X52909187Y-87160248D01*
X53436800Y-86942243D01*
X53840824Y-86538923D01*
X54059750Y-86011691D01*
X54060248Y-85440813D01*
X53842243Y-84913200D01*
X53438923Y-84509176D01*
X52911691Y-84290250D01*
X52340813Y-84289752D01*
X51813200Y-84507757D01*
X51409176Y-84911077D01*
X51190250Y-85438309D01*
X51189752Y-86009187D01*
X49539493Y-86009187D01*
X49587796Y-85812627D01*
X49471920Y-85054827D01*
X49404854Y-84892914D01*
X49049218Y-84828284D01*
X48152502Y-85725000D01*
X47097498Y-85725000D01*
X46200782Y-84828284D01*
X45845146Y-84892914D01*
X45662204Y-85637373D01*
X43890000Y-85637373D01*
X43890000Y-84300782D01*
X46728284Y-84300782D01*
X47625000Y-85197498D01*
X48521716Y-84300782D01*
X48457086Y-83945146D01*
X47712627Y-83762204D01*
X46954827Y-83878080D01*
X46792914Y-83945146D01*
X46728284Y-84300782D01*
X43890000Y-84300782D01*
X43890000Y-72925825D01*
X58574587Y-72925825D01*
X58936916Y-73802729D01*
X59607242Y-74474226D01*
X60483513Y-74838085D01*
X61432325Y-74838913D01*
X62309229Y-74476584D01*
X62980726Y-73806258D01*
X63344585Y-72929987D01*
X63345413Y-71981175D01*
X62983084Y-71104271D01*
X62312758Y-70432774D01*
X61436487Y-70068915D01*
X60487675Y-70068087D01*
X59610771Y-70430416D01*
X58939274Y-71100742D01*
X58575415Y-71977013D01*
X58574587Y-72925825D01*
X43890000Y-72925825D01*
X43890000Y-58574218D01*
X66413284Y-58574218D01*
X66477914Y-58929854D01*
X67222373Y-59112796D01*
X67980173Y-58996920D01*
X68142086Y-58929854D01*
X68206716Y-58574218D01*
X67310000Y-57677502D01*
X66413284Y-58574218D01*
X43890000Y-58574218D01*
X43890000Y-58489931D01*
X44173958Y-57062373D01*
X65347204Y-57062373D01*
X65463080Y-57820173D01*
X65530146Y-57982086D01*
X65885782Y-58046716D01*
X66782498Y-57150000D01*
X65885782Y-56253284D01*
X65530146Y-56317914D01*
X65347204Y-57062373D01*
X44173958Y-57062373D01*
X44235498Y-56752995D01*
X44921859Y-55725782D01*
X66413284Y-55725782D01*
X67310000Y-56622498D01*
X68206716Y-55725782D01*
X68142086Y-55370146D01*
X67397627Y-55187204D01*
X66639827Y-55303080D01*
X66477914Y-55370146D01*
X66413284Y-55725782D01*
X44921859Y-55725782D01*
X45179779Y-55339779D01*
X46592997Y-54395498D01*
X48329931Y-54050000D01*
X172650069Y-54050000D01*
X174387005Y-54395498D01*
X174387005Y-54395498D01*
G37*
X174387005Y-54395498D02*
X175800221Y-55339779D01*
X176744502Y-56752997D01*
X177090000Y-58489931D01*
X177090000Y-116770069D01*
X176744502Y-118507003D01*
X175800221Y-119920221D01*
X174387005Y-120864502D01*
X172650069Y-121210000D01*
X48329931Y-121210000D01*
X46592997Y-120864502D01*
X45179779Y-119920221D01*
X44235498Y-118507005D01*
X43890000Y-116770069D01*
X43890000Y-113517177D01*
X44309574Y-113517177D01*
X44683298Y-114421657D01*
X45374703Y-115114270D01*
X46278529Y-115489572D01*
X47257177Y-115490426D01*
X48161657Y-115116702D01*
X48854270Y-114425297D01*
X49229572Y-113521471D01*
X49229575Y-113517177D01*
X56179574Y-113517177D01*
X56553298Y-114421657D01*
X57244703Y-115114270D01*
X58148529Y-115489572D01*
X59127177Y-115490426D01*
X60031657Y-115116702D01*
X60724270Y-114425297D01*
X60960117Y-113857316D01*
X61193298Y-114421657D01*
X61884703Y-115114270D01*
X62788529Y-115489572D01*
X63767177Y-115490426D01*
X64671657Y-115116702D01*
X65364270Y-114425297D01*
X65739572Y-113521471D01*
X65739575Y-113517177D01*
X72689574Y-113517177D01*
X73063298Y-114421657D01*
X73754703Y-115114270D01*
X74658529Y-115489572D01*
X75637177Y-115490426D01*
X76541657Y-115116702D01*
X77234270Y-114425297D01*
X77470117Y-113857316D01*
X77703298Y-114421657D01*
X78394703Y-115114270D01*
X79298529Y-115489572D01*
X80277177Y-115490426D01*
X81181657Y-115116702D01*
X81874270Y-114425297D01*
X82249572Y-113521471D01*
X82249575Y-113517177D01*
X89199574Y-113517177D01*
X89573298Y-114421657D01*
X90264703Y-115114270D01*
X91168529Y-115489572D01*
X92147177Y-115490426D01*
X93051657Y-115116702D01*
X93744270Y-114425297D01*
X93980117Y-113857316D01*
X94213298Y-114421657D01*
X94904703Y-115114270D01*
X95808529Y-115489572D01*
X96787177Y-115490426D01*
X97691657Y-115116702D01*
X98384270Y-114425297D01*
X98759572Y-113521471D01*
X98759575Y-113517177D01*
X105709574Y-113517177D01*
X106083298Y-114421657D01*
X106774703Y-115114270D01*
X107678529Y-115489572D01*
X108657177Y-115490426D01*
X109561657Y-115116702D01*
X110254270Y-114425297D01*
X110490117Y-113857316D01*
X110723298Y-114421657D01*
X111414703Y-115114270D01*
X112318529Y-115489572D01*
X113297177Y-115490426D01*
X114201657Y-115116702D01*
X114894270Y-114425297D01*
X115269572Y-113521471D01*
X115269575Y-113517177D01*
X122219574Y-113517177D01*
X122593298Y-114421657D01*
X123284703Y-115114270D01*
X124188529Y-115489572D01*
X125167177Y-115490426D01*
X126071657Y-115116702D01*
X126764270Y-114425297D01*
X127000117Y-113857316D01*
X127233298Y-114421657D01*
X127924703Y-115114270D01*
X128828529Y-115489572D01*
X129807177Y-115490426D01*
X130711657Y-115116702D01*
X131404270Y-114425297D01*
X131779572Y-113521471D01*
X131779575Y-113517177D01*
X138729574Y-113517177D01*
X139103298Y-114421657D01*
X139794703Y-115114270D01*
X140698529Y-115489572D01*
X141677177Y-115490426D01*
X142581657Y-115116702D01*
X143274270Y-114425297D01*
X143510117Y-113857316D01*
X143743298Y-114421657D01*
X144434703Y-115114270D01*
X145338529Y-115489572D01*
X146317177Y-115490426D01*
X147221657Y-115116702D01*
X147914270Y-114425297D01*
X148289572Y-113521471D01*
X148289575Y-113517177D01*
X155239574Y-113517177D01*
X155613298Y-114421657D01*
X156304703Y-115114270D01*
X157208529Y-115489572D01*
X158187177Y-115490426D01*
X159091657Y-115116702D01*
X159784270Y-114425297D01*
X160020117Y-113857316D01*
X160253298Y-114421657D01*
X160944703Y-115114270D01*
X161848529Y-115489572D01*
X162827177Y-115490426D01*
X163731657Y-115116702D01*
X164424270Y-114425297D01*
X164799572Y-113521471D01*
X164799575Y-113517177D01*
X171749574Y-113517177D01*
X172123298Y-114421657D01*
X172814703Y-115114270D01*
X173718529Y-115489572D01*
X174697177Y-115490426D01*
X175601657Y-115116702D01*
X176294270Y-114425297D01*
X176669572Y-113521471D01*
X176670426Y-112542823D01*
X176296702Y-111638343D01*
X175605297Y-110945730D01*
X174701471Y-110570428D01*
X173722823Y-110569574D01*
X172818343Y-110943298D01*
X172125730Y-111634703D01*
X171750428Y-112538529D01*
X171749574Y-113517177D01*
X164799575Y-113517177D01*
X164800426Y-112542823D01*
X164426702Y-111638343D01*
X163735297Y-110945730D01*
X162831471Y-110570428D01*
X161852823Y-110569574D01*
X160948343Y-110943298D01*
X160255730Y-111634703D01*
X160019883Y-112202684D01*
X159786702Y-111638343D01*
X159095297Y-110945730D01*
X158191471Y-110570428D01*
X157212823Y-110569574D01*
X156308343Y-110943298D01*
X155615730Y-111634703D01*
X155240428Y-112538529D01*
X155239574Y-113517177D01*
X148289575Y-113517177D01*
X148290426Y-112542823D01*
X147916702Y-111638343D01*
X147225297Y-110945730D01*
X146321471Y-110570428D01*
X145342823Y-110569574D01*
X144438343Y-110943298D01*
X143745730Y-111634703D01*
X143509883Y-112202684D01*
X143276702Y-111638343D01*
X142585297Y-110945730D01*
X141681471Y-110570428D01*
X140702823Y-110569574D01*
X139798343Y-110943298D01*
X139105730Y-111634703D01*
X138730428Y-112538529D01*
X138729574Y-113517177D01*
X131779575Y-113517177D01*
X131780426Y-112542823D01*
X131406702Y-111638343D01*
X130715297Y-110945730D01*
X129811471Y-110570428D01*
X128832823Y-110569574D01*
X127928343Y-110943298D01*
X127235730Y-111634703D01*
X126999883Y-112202684D01*
X126766702Y-111638343D01*
X126075297Y-110945730D01*
X125171471Y-110570428D01*
X124192823Y-110569574D01*
X123288343Y-110943298D01*
X122595730Y-111634703D01*
X122220428Y-112538529D01*
X122219574Y-113517177D01*
X115269575Y-113517177D01*
X115270426Y-112542823D01*
X114896702Y-111638343D01*
X114205297Y-110945730D01*
X113301471Y-110570428D01*
X112322823Y-110569574D01*
X111418343Y-110943298D01*
X110725730Y-111634703D01*
X110489883Y-112202684D01*
X110256702Y-111638343D01*
X109565297Y-110945730D01*
X108661471Y-110570428D01*
X107682823Y-110569574D01*
X106778343Y-110943298D01*
X106085730Y-111634703D01*
X105710428Y-112538529D01*
X105709574Y-113517177D01*
X98759575Y-113517177D01*
X98760426Y-112542823D01*
X98386702Y-111638343D01*
X97695297Y-110945730D01*
X96791471Y-110570428D01*
X95812823Y-110569574D01*
X94908343Y-110943298D01*
X94215730Y-111634703D01*
X93979883Y-112202684D01*
X93746702Y-111638343D01*
X93055297Y-110945730D01*
X92151471Y-110570428D01*
X91172823Y-110569574D01*
X90268343Y-110943298D01*
X89575730Y-111634703D01*
X89200428Y-112538529D01*
X89199574Y-113517177D01*
X82249575Y-113517177D01*
X82250426Y-112542823D01*
X81876702Y-111638343D01*
X81185297Y-110945730D01*
X80281471Y-110570428D01*
X79302823Y-110569574D01*
X78398343Y-110943298D01*
X77705730Y-111634703D01*
X77469883Y-112202684D01*
X77236702Y-111638343D01*
X76545297Y-110945730D01*
X75641471Y-110570428D01*
X74662823Y-110569574D01*
X73758343Y-110943298D01*
X73065730Y-111634703D01*
X72690428Y-112538529D01*
X72689574Y-113517177D01*
X65739575Y-113517177D01*
X65740426Y-112542823D01*
X65366702Y-111638343D01*
X64675297Y-110945730D01*
X63771471Y-110570428D01*
X62792823Y-110569574D01*
X61888343Y-110943298D01*
X61195730Y-111634703D01*
X60959883Y-112202684D01*
X60726702Y-111638343D01*
X60035297Y-110945730D01*
X59131471Y-110570428D01*
X58152823Y-110569574D01*
X57248343Y-110943298D01*
X56555730Y-111634703D01*
X56180428Y-112538529D01*
X56179574Y-113517177D01*
X49229575Y-113517177D01*
X49230426Y-112542823D01*
X48856702Y-111638343D01*
X48165297Y-110945730D01*
X47261471Y-110570428D01*
X46282823Y-110569574D01*
X45378343Y-110943298D01*
X44685730Y-111634703D01*
X44310428Y-112538529D01*
X44309574Y-113517177D01*
X43890000Y-113517177D01*
X43890000Y-105930000D01*
X46862560Y-105930000D01*
X46862560Y-107430000D01*
X46906838Y-107665317D01*
X47045910Y-107881441D01*
X47258110Y-108026431D01*
X47510000Y-108077440D01*
X49010000Y-108077440D01*
X49245317Y-108033162D01*
X49461441Y-107894090D01*
X49606431Y-107681890D01*
X49646355Y-107484738D01*
X50014436Y-107853461D01*
X50523298Y-108064759D01*
X51074285Y-108065240D01*
X51583515Y-107854831D01*
X51973461Y-107465564D01*
X52069976Y-107233130D01*
X52165169Y-107463515D01*
X52554436Y-107853461D01*
X53063298Y-108064759D01*
X53614285Y-108065240D01*
X54123515Y-107854831D01*
X54513461Y-107465564D01*
X54609976Y-107233130D01*
X54705169Y-107463515D01*
X55094436Y-107853461D01*
X55603298Y-108064759D01*
X56154285Y-108065240D01*
X56663515Y-107854831D01*
X57053461Y-107465564D01*
X57264759Y-106956702D01*
X57265240Y-106405715D01*
X57068680Y-105930000D01*
X63372560Y-105930000D01*
X63372560Y-107430000D01*
X63416838Y-107665317D01*
X63555910Y-107881441D01*
X63768110Y-108026431D01*
X64020000Y-108077440D01*
X65520000Y-108077440D01*
X65755317Y-108033162D01*
X65971441Y-107894090D01*
X66116431Y-107681890D01*
X66156355Y-107484738D01*
X66524436Y-107853461D01*
X67033298Y-108064759D01*
X67584285Y-108065240D01*
X68093515Y-107854831D01*
X68483461Y-107465564D01*
X68579976Y-107233130D01*
X68675169Y-107463515D01*
X69064436Y-107853461D01*
X69573298Y-108064759D01*
X70124285Y-108065240D01*
X70633515Y-107854831D01*
X71023461Y-107465564D01*
X71119976Y-107233130D01*
X71215169Y-107463515D01*
X71604436Y-107853461D01*
X72113298Y-108064759D01*
X72664285Y-108065240D01*
X73173515Y-107854831D01*
X73563461Y-107465564D01*
X73774759Y-106956702D01*
X73775240Y-106405715D01*
X73578680Y-105930000D01*
X79882560Y-105930000D01*
X79882560Y-107430000D01*
X79926838Y-107665317D01*
X80065910Y-107881441D01*
X80278110Y-108026431D01*
X80530000Y-108077440D01*
X82030000Y-108077440D01*
X82265317Y-108033162D01*
X82481441Y-107894090D01*
X82626431Y-107681890D01*
X82666355Y-107484738D01*
X83034436Y-107853461D01*
X83543298Y-108064759D01*
X84094285Y-108065240D01*
X84603515Y-107854831D01*
X84993461Y-107465564D01*
X85089976Y-107233130D01*
X85185169Y-107463515D01*
X85574436Y-107853461D01*
X86083298Y-108064759D01*
X86634285Y-108065240D01*
X87143515Y-107854831D01*
X87533461Y-107465564D01*
X87629976Y-107233130D01*
X87725169Y-107463515D01*
X88114436Y-107853461D01*
X88623298Y-108064759D01*
X89174285Y-108065240D01*
X89683515Y-107854831D01*
X90073461Y-107465564D01*
X90284759Y-106956702D01*
X90285240Y-106405715D01*
X90074831Y-105896485D01*
X89685564Y-105506539D01*
X89176702Y-105295241D01*
X88625715Y-105294760D01*
X88116485Y-105505169D01*
X87726539Y-105894436D01*
X87630024Y-106126870D01*
X87534831Y-105896485D01*
X87145564Y-105506539D01*
X86636702Y-105295241D01*
X86085715Y-105294760D01*
X85576485Y-105505169D01*
X85186539Y-105894436D01*
X85090024Y-106126870D01*
X84994831Y-105896485D01*
X84605564Y-105506539D01*
X84173739Y-105327229D01*
X84246022Y-105254946D01*
X84304436Y-105313461D01*
X84813298Y-105524759D01*
X85364285Y-105525240D01*
X85873515Y-105314831D01*
X86263461Y-104925564D01*
X86359976Y-104693130D01*
X86455169Y-104923515D01*
X86844436Y-105313461D01*
X87353298Y-105524759D01*
X87904285Y-105525240D01*
X88413515Y-105314831D01*
X88803461Y-104925564D01*
X88899976Y-104693130D01*
X88995169Y-104923515D01*
X89384436Y-105313461D01*
X89893298Y-105524759D01*
X90444285Y-105525240D01*
X90953515Y-105314831D01*
X91343461Y-104925564D01*
X91554759Y-104416702D01*
X91555240Y-103865715D01*
X91344831Y-103356485D01*
X90955564Y-102966539D01*
X90446702Y-102755241D01*
X89895715Y-102754760D01*
X89386485Y-102965169D01*
X88996539Y-103354436D01*
X88900024Y-103586870D01*
X88804831Y-103356485D01*
X88415564Y-102966539D01*
X87906702Y-102755241D01*
X87355715Y-102754760D01*
X86846485Y-102965169D01*
X86456539Y-103354436D01*
X86360024Y-103586870D01*
X86264831Y-103356485D01*
X85875564Y-102966539D01*
X85834486Y-102949482D01*
X88219168Y-100564800D01*
X89388592Y-100564800D01*
X89451120Y-100879151D01*
X89762189Y-101344698D01*
X90227736Y-101655767D01*
X90776887Y-101765000D01*
X90833113Y-101765000D01*
X91382264Y-101655767D01*
X91847811Y-101344698D01*
X92158880Y-100879151D01*
X92211584Y-100614187D01*
X98259752Y-100614187D01*
X98477757Y-101141800D01*
X98881077Y-101545824D01*
X99408309Y-101764750D01*
X99979187Y-101765248D01*
X100506800Y-101547243D01*
X100910824Y-101143923D01*
X101129750Y-100616691D01*
X101130248Y-100045813D01*
X100912243Y-99518200D01*
X100508923Y-99114176D01*
X99981691Y-98895250D01*
X99410813Y-98894752D01*
X98883200Y-99112757D01*
X98479176Y-99516077D01*
X98260250Y-100043309D01*
X98259752Y-100614187D01*
X92211584Y-100614187D01*
X92268113Y-100330000D01*
X92158880Y-99780849D01*
X91847811Y-99315302D01*
X91382264Y-99004233D01*
X90833113Y-98895000D01*
X90806005Y-98895000D01*
X90805000Y-98894800D01*
X90370000Y-98894800D01*
X90370000Y-97896586D01*
X90805000Y-97983113D01*
X91354151Y-97873880D01*
X91819698Y-97562811D01*
X92130767Y-97097264D01*
X92240000Y-96548113D01*
X92240000Y-96491887D01*
X92130767Y-95942736D01*
X91981940Y-95720000D01*
X98247560Y-95720000D01*
X98247560Y-97320000D01*
X98291838Y-97555317D01*
X98430910Y-97771441D01*
X98643110Y-97916431D01*
X98895000Y-97967440D01*
X100495000Y-97967440D01*
X100730317Y-97923162D01*
X100847739Y-97847603D01*
X101425509Y-98268754D01*
X101570844Y-98328929D01*
X101862000Y-98122410D01*
X101862000Y-96893000D01*
X102608000Y-96893000D01*
X102608000Y-98122410D01*
X102899156Y-98328929D01*
X103044491Y-98268754D01*
X103505000Y-97933077D01*
X103965509Y-98268754D01*
X104110844Y-98328929D01*
X104402000Y-98122410D01*
X104402000Y-96893000D01*
X102608000Y-96893000D01*
X101862000Y-96893000D01*
X101842000Y-96893000D01*
X101842000Y-96147000D01*
X101862000Y-96147000D01*
X101862000Y-94917590D01*
X102608000Y-94917590D01*
X102608000Y-96147000D01*
X104402000Y-96147000D01*
X104402000Y-94917590D01*
X104110844Y-94711071D01*
X103965509Y-94771246D01*
X103505000Y-95106923D01*
X103044491Y-94771246D01*
X102899156Y-94711071D01*
X102608000Y-94917590D01*
X101862000Y-94917590D01*
X101570844Y-94711071D01*
X101425509Y-94771246D01*
X100847683Y-95192438D01*
X100746890Y-95123569D01*
X100495000Y-95072560D01*
X98895000Y-95072560D01*
X98659683Y-95116838D01*
X98443559Y-95255910D01*
X98298569Y-95468110D01*
X98247560Y-95720000D01*
X91981940Y-95720000D01*
X91819698Y-95477189D01*
X91354151Y-95166120D01*
X90805000Y-95056887D01*
X90370000Y-95143414D01*
X90370000Y-91370300D01*
X90306439Y-91050759D01*
X90125434Y-90779866D01*
X89283175Y-89937607D01*
X89535000Y-89560725D01*
X89790302Y-89942811D01*
X90255849Y-90253880D01*
X90805000Y-90363113D01*
X91354151Y-90253880D01*
X91819698Y-89942811D01*
X92072705Y-89564159D01*
X97886048Y-89564159D01*
X98277909Y-90205859D01*
X98885509Y-90648754D01*
X99030844Y-90708929D01*
X99322000Y-90502410D01*
X99322000Y-89273000D01*
X98086172Y-89273000D01*
X97886048Y-89564159D01*
X92072705Y-89564159D01*
X92130767Y-89477264D01*
X92240000Y-88928113D01*
X92240000Y-88871887D01*
X92130767Y-88322736D01*
X91819698Y-87857189D01*
X91354151Y-87546120D01*
X90805000Y-87436887D01*
X90255849Y-87546120D01*
X89790302Y-87857189D01*
X89535000Y-88239275D01*
X89279698Y-87857189D01*
X88814151Y-87546120D01*
X88265000Y-87436887D01*
X87715849Y-87546120D01*
X87250302Y-87857189D01*
X86995000Y-88239275D01*
X86739698Y-87857189D01*
X86274151Y-87546120D01*
X85725000Y-87436887D01*
X85198188Y-87541677D01*
X85287086Y-87504854D01*
X85351716Y-87149218D01*
X84455000Y-86252502D01*
X83558284Y-87149218D01*
X83582136Y-87280470D01*
X83558000Y-87297590D01*
X83558000Y-88527000D01*
X83578000Y-88527000D01*
X83578000Y-89273000D01*
X83558000Y-89273000D01*
X83558000Y-90502410D01*
X83849156Y-90708929D01*
X83994491Y-90648754D01*
X84602091Y-90205859D01*
X84747533Y-89967688D01*
X85175849Y-90253880D01*
X85725000Y-90363113D01*
X86274151Y-90253880D01*
X86739698Y-89942811D01*
X86995000Y-89560725D01*
X87250302Y-89942811D01*
X87430000Y-90062882D01*
X87430000Y-90100300D01*
X87493561Y-90419841D01*
X87646516Y-90648754D01*
X87674566Y-90690734D01*
X88700000Y-91716168D01*
X88700000Y-94873613D01*
X88638000Y-94917590D01*
X88638000Y-96147000D01*
X88658000Y-96147000D01*
X88658000Y-96893000D01*
X88638000Y-96893000D01*
X88638000Y-98122410D01*
X88700000Y-98166387D01*
X88700000Y-98894800D01*
X87873300Y-98894800D01*
X87553759Y-98958361D01*
X87297332Y-99129700D01*
X87282866Y-99139366D01*
X83395576Y-103026656D01*
X83335564Y-102966539D01*
X82826702Y-102755241D01*
X82275715Y-102754760D01*
X81766485Y-102965169D01*
X81376539Y-103354436D01*
X81165241Y-103863298D01*
X81164760Y-104414285D01*
X81375169Y-104923515D01*
X81733589Y-105282560D01*
X80530000Y-105282560D01*
X80294683Y-105326838D01*
X80078559Y-105465910D01*
X79933569Y-105678110D01*
X79882560Y-105930000D01*
X73578680Y-105930000D01*
X73564831Y-105896485D01*
X73175564Y-105506539D01*
X72666702Y-105295241D01*
X72115715Y-105294760D01*
X71606485Y-105505169D01*
X71216539Y-105894436D01*
X71120024Y-106126870D01*
X71024831Y-105896485D01*
X70635564Y-105506539D01*
X70126702Y-105295241D01*
X69575715Y-105294760D01*
X69066485Y-105505169D01*
X68676539Y-105894436D01*
X68580024Y-106126870D01*
X68484831Y-105896485D01*
X68095564Y-105506539D01*
X67586702Y-105295241D01*
X67035715Y-105294760D01*
X66526485Y-105505169D01*
X66156920Y-105874091D01*
X66123162Y-105694683D01*
X66013960Y-105524978D01*
X66314285Y-105525240D01*
X66823515Y-105314831D01*
X67213461Y-104925564D01*
X67309976Y-104693130D01*
X67405169Y-104923515D01*
X67794436Y-105313461D01*
X68303298Y-105524759D01*
X68854285Y-105525240D01*
X69363515Y-105314831D01*
X69753461Y-104925564D01*
X69849976Y-104693130D01*
X69945169Y-104923515D01*
X70334436Y-105313461D01*
X70843298Y-105524759D01*
X71394285Y-105525240D01*
X71903515Y-105314831D01*
X72293461Y-104925564D01*
X72389976Y-104693130D01*
X72485169Y-104923515D01*
X72874436Y-105313461D01*
X73383298Y-105524759D01*
X73934285Y-105525240D01*
X74443515Y-105314831D01*
X74833461Y-104925564D01*
X75044759Y-104416702D01*
X75045240Y-103865715D01*
X74834831Y-103356485D01*
X74445564Y-102966539D01*
X73936702Y-102755241D01*
X73385715Y-102754760D01*
X72876485Y-102965169D01*
X72486539Y-103354436D01*
X72390024Y-103586870D01*
X72294831Y-103356485D01*
X71905564Y-102966539D01*
X71396702Y-102755241D01*
X70845715Y-102754760D01*
X70336485Y-102965169D01*
X69946539Y-103354436D01*
X69850024Y-103586870D01*
X69754831Y-103356485D01*
X69365564Y-102966539D01*
X68856702Y-102755241D01*
X68305715Y-102754760D01*
X67796485Y-102965169D01*
X67406539Y-103354436D01*
X67310024Y-103586870D01*
X67214831Y-103356485D01*
X66825564Y-102966539D01*
X66316702Y-102755241D01*
X65765715Y-102754760D01*
X65256485Y-102965169D01*
X64866539Y-103354436D01*
X64655241Y-103863298D01*
X64654760Y-104414285D01*
X64865169Y-104923515D01*
X65223589Y-105282560D01*
X64020000Y-105282560D01*
X63784683Y-105326838D01*
X63568559Y-105465910D01*
X63423569Y-105678110D01*
X63372560Y-105930000D01*
X57068680Y-105930000D01*
X57054831Y-105896485D01*
X56665564Y-105506539D01*
X56156702Y-105295241D01*
X55605715Y-105294760D01*
X55096485Y-105505169D01*
X54706539Y-105894436D01*
X54610024Y-106126870D01*
X54514831Y-105896485D01*
X54125564Y-105506539D01*
X53616702Y-105295241D01*
X53065715Y-105294760D01*
X52556485Y-105505169D01*
X52166539Y-105894436D01*
X52070024Y-106126870D01*
X51974831Y-105896485D01*
X51585564Y-105506539D01*
X51076702Y-105295241D01*
X50525715Y-105294760D01*
X50016485Y-105505169D01*
X49646920Y-105874091D01*
X49613162Y-105694683D01*
X49503960Y-105524978D01*
X49804285Y-105525240D01*
X50313515Y-105314831D01*
X50703461Y-104925564D01*
X50799976Y-104693130D01*
X50895169Y-104923515D01*
X51284436Y-105313461D01*
X51793298Y-105524759D01*
X52344285Y-105525240D01*
X52853515Y-105314831D01*
X53243461Y-104925564D01*
X53339976Y-104693130D01*
X53435169Y-104923515D01*
X53824436Y-105313461D01*
X54333298Y-105524759D01*
X54884285Y-105525240D01*
X55393515Y-105314831D01*
X55783461Y-104925564D01*
X55879976Y-104693130D01*
X55975169Y-104923515D01*
X56364436Y-105313461D01*
X56873298Y-105524759D01*
X57424285Y-105525240D01*
X57933515Y-105314831D01*
X58323461Y-104925564D01*
X58534759Y-104416702D01*
X58535240Y-103865715D01*
X58324831Y-103356485D01*
X57935564Y-102966539D01*
X57426702Y-102755241D01*
X56875715Y-102754760D01*
X56366485Y-102965169D01*
X55976539Y-103354436D01*
X55880024Y-103586870D01*
X55784831Y-103356485D01*
X55395564Y-102966539D01*
X54886702Y-102755241D01*
X54335715Y-102754760D01*
X53826485Y-102965169D01*
X53436539Y-103354436D01*
X53340024Y-103586870D01*
X53244831Y-103356485D01*
X52855564Y-102966539D01*
X52346702Y-102755241D01*
X51795715Y-102754760D01*
X51286485Y-102965169D01*
X50896539Y-103354436D01*
X50800024Y-103586870D01*
X50704831Y-103356485D01*
X50315564Y-102966539D01*
X49806702Y-102755241D01*
X49255715Y-102754760D01*
X48746485Y-102965169D01*
X48356539Y-103354436D01*
X48145241Y-103863298D01*
X48144760Y-104414285D01*
X48355169Y-104923515D01*
X48713589Y-105282560D01*
X47510000Y-105282560D01*
X47274683Y-105326838D01*
X47058559Y-105465910D01*
X46913569Y-105678110D01*
X46862560Y-105930000D01*
X43890000Y-105930000D01*
X43890000Y-100330000D01*
X44256887Y-100330000D01*
X44366120Y-100879151D01*
X44677189Y-101344698D01*
X45142736Y-101655767D01*
X45691887Y-101765000D01*
X45748113Y-101765000D01*
X46297264Y-101655767D01*
X46762811Y-101344698D01*
X47073880Y-100879151D01*
X47126584Y-100614187D01*
X51904752Y-100614187D01*
X52122757Y-101141800D01*
X52526077Y-101545824D01*
X53053309Y-101764750D01*
X53624187Y-101765248D01*
X54151800Y-101547243D01*
X54555824Y-101143923D01*
X54774750Y-100616691D01*
X54774752Y-100614187D01*
X65239752Y-100614187D01*
X65457757Y-101141800D01*
X65861077Y-101545824D01*
X66388309Y-101764750D01*
X66959187Y-101765248D01*
X67486800Y-101547243D01*
X67890824Y-101143923D01*
X68109750Y-100616691D01*
X68110000Y-100330000D01*
X72831887Y-100330000D01*
X72941120Y-100879151D01*
X73252189Y-101344698D01*
X73717736Y-101655767D01*
X74266887Y-101765000D01*
X74323113Y-101765000D01*
X74872264Y-101655767D01*
X75337811Y-101344698D01*
X75648880Y-100879151D01*
X75701584Y-100614187D01*
X81749752Y-100614187D01*
X81967757Y-101141800D01*
X82371077Y-101545824D01*
X82898309Y-101764750D01*
X83469187Y-101765248D01*
X83996800Y-101547243D01*
X84400824Y-101143923D01*
X84619750Y-100616691D01*
X84620248Y-100045813D01*
X84402243Y-99518200D01*
X83998923Y-99114176D01*
X83471691Y-98895250D01*
X82900813Y-98894752D01*
X82373200Y-99112757D01*
X81969176Y-99516077D01*
X81750250Y-100043309D01*
X81749752Y-100614187D01*
X75701584Y-100614187D01*
X75758113Y-100330000D01*
X75648880Y-99780849D01*
X75337811Y-99315302D01*
X74872264Y-99004233D01*
X74323113Y-98895000D01*
X74266887Y-98895000D01*
X73717736Y-99004233D01*
X73252189Y-99315302D01*
X72941120Y-99780849D01*
X72831887Y-100330000D01*
X68110000Y-100330000D01*
X68110248Y-100045813D01*
X67892243Y-99518200D01*
X67488923Y-99114176D01*
X66961691Y-98895250D01*
X66390813Y-98894752D01*
X65863200Y-99112757D01*
X65459176Y-99516077D01*
X65240250Y-100043309D01*
X65239752Y-100614187D01*
X54774752Y-100614187D01*
X54775248Y-100045813D01*
X54557243Y-99518200D01*
X54153923Y-99114176D01*
X53626691Y-98895250D01*
X53055813Y-98894752D01*
X52528200Y-99112757D01*
X52124176Y-99516077D01*
X51905250Y-100043309D01*
X51904752Y-100614187D01*
X47126584Y-100614187D01*
X47183113Y-100330000D01*
X47073880Y-99780849D01*
X46843382Y-99435886D01*
X48042132Y-98237136D01*
X48085509Y-98268754D01*
X48230844Y-98328929D01*
X48522000Y-98122410D01*
X48522000Y-96893000D01*
X49268000Y-96893000D01*
X49268000Y-98122410D01*
X49559156Y-98328929D01*
X49704491Y-98268754D01*
X50165000Y-97933077D01*
X50625509Y-98268754D01*
X50770844Y-98328929D01*
X51062000Y-98122410D01*
X51062000Y-96893000D01*
X49268000Y-96893000D01*
X48522000Y-96893000D01*
X48502000Y-96893000D01*
X48502000Y-96147000D01*
X48522000Y-96147000D01*
X48522000Y-94917590D01*
X49268000Y-94917590D01*
X49268000Y-96147000D01*
X51062000Y-96147000D01*
X51062000Y-94917590D01*
X51808000Y-94917590D01*
X51808000Y-96147000D01*
X51828000Y-96147000D01*
X51828000Y-96893000D01*
X51808000Y-96893000D01*
X51808000Y-98122410D01*
X52099156Y-98328929D01*
X52244491Y-98268754D01*
X52253310Y-98262325D01*
X58574587Y-98262325D01*
X58936916Y-99139229D01*
X59607242Y-99810726D01*
X60483513Y-100174585D01*
X61432325Y-100175413D01*
X62309229Y-99813084D01*
X62980726Y-99142758D01*
X63344585Y-98266487D01*
X63345413Y-97317675D01*
X62983084Y-96440771D01*
X62312758Y-95769274D01*
X62194093Y-95720000D01*
X65227560Y-95720000D01*
X65227560Y-97320000D01*
X65271838Y-97555317D01*
X65410910Y-97771441D01*
X65623110Y-97916431D01*
X65875000Y-97967440D01*
X67475000Y-97967440D01*
X67710317Y-97923162D01*
X67827739Y-97847603D01*
X68405509Y-98268754D01*
X68550844Y-98328929D01*
X68842000Y-98122410D01*
X68842000Y-96893000D01*
X69588000Y-96893000D01*
X69588000Y-98122410D01*
X69879156Y-98328929D01*
X70024491Y-98268754D01*
X70485000Y-97933077D01*
X70945509Y-98268754D01*
X71090844Y-98328929D01*
X71382000Y-98122410D01*
X71382000Y-96893000D01*
X69588000Y-96893000D01*
X68842000Y-96893000D01*
X68822000Y-96893000D01*
X68822000Y-96147000D01*
X68842000Y-96147000D01*
X68842000Y-94917590D01*
X69588000Y-94917590D01*
X69588000Y-96147000D01*
X71382000Y-96147000D01*
X71382000Y-94917590D01*
X71090844Y-94711071D01*
X70945509Y-94771246D01*
X70485000Y-95106923D01*
X70024491Y-94771246D01*
X69879156Y-94711071D01*
X69588000Y-94917590D01*
X68842000Y-94917590D01*
X68550844Y-94711071D01*
X68405509Y-94771246D01*
X67827683Y-95192438D01*
X67726890Y-95123569D01*
X67475000Y-95072560D01*
X65875000Y-95072560D01*
X65639683Y-95116838D01*
X65423559Y-95255910D01*
X65278569Y-95468110D01*
X65227560Y-95720000D01*
X62194093Y-95720000D01*
X61436487Y-95405415D01*
X60487675Y-95404587D01*
X59610771Y-95766916D01*
X58939274Y-96437242D01*
X58575415Y-97313513D01*
X58574587Y-98262325D01*
X52253310Y-98262325D01*
X52852091Y-97825859D01*
X52997533Y-97587688D01*
X53425849Y-97873880D01*
X53975000Y-97983113D01*
X54524151Y-97873880D01*
X54989698Y-97562811D01*
X55300767Y-97097264D01*
X55410000Y-96548113D01*
X55410000Y-96491887D01*
X55300767Y-95942736D01*
X54989698Y-95477189D01*
X54810000Y-95357118D01*
X54810000Y-93690868D01*
X58936709Y-89564159D01*
X64866048Y-89564159D01*
X65257909Y-90205859D01*
X65865509Y-90648754D01*
X66010844Y-90708929D01*
X66302000Y-90502410D01*
X66302000Y-89273000D01*
X65066172Y-89273000D01*
X64866048Y-89564159D01*
X58936709Y-89564159D01*
X60265027Y-88235841D01*
X64866048Y-88235841D01*
X65066172Y-88527000D01*
X66302000Y-88527000D01*
X66302000Y-87297590D01*
X67048000Y-87297590D01*
X67048000Y-88527000D01*
X67068000Y-88527000D01*
X67068000Y-89273000D01*
X67048000Y-89273000D01*
X67048000Y-90502410D01*
X67339156Y-90708929D01*
X67484491Y-90648754D01*
X68092091Y-90205859D01*
X68237533Y-89967688D01*
X68665849Y-90253880D01*
X69215000Y-90363113D01*
X69764151Y-90253880D01*
X70229698Y-89942811D01*
X70485000Y-89560725D01*
X70740302Y-89942811D01*
X71205849Y-90253880D01*
X71755000Y-90363113D01*
X72304151Y-90253880D01*
X72769698Y-89942811D01*
X73025000Y-89560725D01*
X73280302Y-89942811D01*
X73745849Y-90253880D01*
X74295000Y-90363113D01*
X74844151Y-90253880D01*
X75309698Y-89942811D01*
X75620767Y-89477264D01*
X75730000Y-88928113D01*
X75730000Y-88871887D01*
X75620767Y-88322736D01*
X75309698Y-87857189D01*
X74844151Y-87546120D01*
X74295000Y-87436887D01*
X73745849Y-87546120D01*
X73280302Y-87857189D01*
X73025000Y-88239275D01*
X72769698Y-87857189D01*
X72304151Y-87546120D01*
X71755000Y-87436887D01*
X71205849Y-87546120D01*
X70740302Y-87857189D01*
X70485000Y-88239275D01*
X70229698Y-87857189D01*
X69764151Y-87546120D01*
X69215000Y-87436887D01*
X68688188Y-87541677D01*
X68777086Y-87504854D01*
X68841716Y-87149218D01*
X67945000Y-86252502D01*
X67048284Y-87149218D01*
X67072136Y-87280470D01*
X67048000Y-87297590D01*
X66302000Y-87297590D01*
X66010844Y-87091071D01*
X65865509Y-87151246D01*
X65257909Y-87594141D01*
X64866048Y-88235841D01*
X60265027Y-88235841D01*
X62863495Y-85637373D01*
X65982204Y-85637373D01*
X66098080Y-86395173D01*
X66165146Y-86557086D01*
X66520782Y-86621716D01*
X67417498Y-85725000D01*
X68472502Y-85725000D01*
X69369218Y-86621716D01*
X69724854Y-86557086D01*
X69859493Y-86009187D01*
X71509752Y-86009187D01*
X71727757Y-86536800D01*
X72131077Y-86940824D01*
X72658309Y-87159750D01*
X73229187Y-87160248D01*
X73756800Y-86942243D01*
X74160824Y-86538923D01*
X74379750Y-86011691D01*
X74380248Y-85440813D01*
X74162243Y-84913200D01*
X73758923Y-84509176D01*
X73231691Y-84290250D01*
X72660813Y-84289752D01*
X72133200Y-84507757D01*
X71729176Y-84911077D01*
X71510250Y-85438309D01*
X71509752Y-86009187D01*
X69859493Y-86009187D01*
X69907796Y-85812627D01*
X69791920Y-85054827D01*
X69724854Y-84892914D01*
X69369218Y-84828284D01*
X68472502Y-85725000D01*
X67417498Y-85725000D01*
X66520782Y-84828284D01*
X66165146Y-84892914D01*
X65982204Y-85637373D01*
X62863495Y-85637373D01*
X64200086Y-84300782D01*
X67048284Y-84300782D01*
X67945000Y-85197498D01*
X68841716Y-84300782D01*
X68777086Y-83945146D01*
X68032627Y-83762204D01*
X67274827Y-83878080D01*
X67112914Y-83945146D01*
X67048284Y-84300782D01*
X64200086Y-84300782D01*
X74676089Y-73824779D01*
X75214187Y-73825248D01*
X75741800Y-73607243D01*
X76145824Y-73203923D01*
X76199862Y-73073785D01*
X76252757Y-73201800D01*
X76656077Y-73605824D01*
X77183309Y-73824750D01*
X77754187Y-73825248D01*
X78281800Y-73607243D01*
X78685824Y-73203923D01*
X78739862Y-73073785D01*
X78792757Y-73201800D01*
X79196077Y-73605824D01*
X79723309Y-73824750D01*
X80294187Y-73825248D01*
X80445000Y-73762933D01*
X80445000Y-87988832D01*
X73704566Y-94729266D01*
X73523561Y-95000159D01*
X73460000Y-95319700D01*
X73460000Y-95357118D01*
X73317533Y-95452312D01*
X73172091Y-95214141D01*
X72564491Y-94771246D01*
X72419156Y-94711071D01*
X72128000Y-94917590D01*
X72128000Y-96147000D01*
X72148000Y-96147000D01*
X72148000Y-96893000D01*
X72128000Y-96893000D01*
X72128000Y-98122410D01*
X72419156Y-98328929D01*
X72564491Y-98268754D01*
X73172091Y-97825859D01*
X73317533Y-97587688D01*
X73745849Y-97873880D01*
X74295000Y-97983113D01*
X74844151Y-97873880D01*
X75309698Y-97562811D01*
X75620767Y-97097264D01*
X75730000Y-96548113D01*
X75730000Y-96491887D01*
X75620767Y-95942736D01*
X75471940Y-95720000D01*
X81737560Y-95720000D01*
X81737560Y-97320000D01*
X81781838Y-97555317D01*
X81920910Y-97771441D01*
X82133110Y-97916431D01*
X82385000Y-97967440D01*
X83985000Y-97967440D01*
X84220317Y-97923162D01*
X84337739Y-97847603D01*
X84915509Y-98268754D01*
X85060844Y-98328929D01*
X85352000Y-98122410D01*
X85352000Y-96893000D01*
X86098000Y-96893000D01*
X86098000Y-98122410D01*
X86389156Y-98328929D01*
X86534491Y-98268754D01*
X86995000Y-97933077D01*
X87455509Y-98268754D01*
X87600844Y-98328929D01*
X87892000Y-98122410D01*
X87892000Y-96893000D01*
X86098000Y-96893000D01*
X85352000Y-96893000D01*
X85332000Y-96893000D01*
X85332000Y-96147000D01*
X85352000Y-96147000D01*
X85352000Y-94917590D01*
X86098000Y-94917590D01*
X86098000Y-96147000D01*
X87892000Y-96147000D01*
X87892000Y-94917590D01*
X87600844Y-94711071D01*
X87455509Y-94771246D01*
X86995000Y-95106923D01*
X86534491Y-94771246D01*
X86389156Y-94711071D01*
X86098000Y-94917590D01*
X85352000Y-94917590D01*
X85060844Y-94711071D01*
X84915509Y-94771246D01*
X84337683Y-95192438D01*
X84236890Y-95123569D01*
X83985000Y-95072560D01*
X82385000Y-95072560D01*
X82149683Y-95116838D01*
X81933559Y-95255910D01*
X81788569Y-95468110D01*
X81737560Y-95720000D01*
X75471940Y-95720000D01*
X75313175Y-95482393D01*
X81522566Y-89273002D01*
X81576171Y-89273002D01*
X81376048Y-89564159D01*
X81767909Y-90205859D01*
X82375509Y-90648754D01*
X82520844Y-90708929D01*
X82812000Y-90502410D01*
X82812000Y-89273000D01*
X82792000Y-89273000D01*
X82792000Y-88527000D01*
X82812000Y-88527000D01*
X82812000Y-87297590D01*
X82520844Y-87091071D01*
X82375509Y-87151246D01*
X82115000Y-87341138D01*
X82115000Y-85637373D01*
X82492204Y-85637373D01*
X82608080Y-86395173D01*
X82675146Y-86557086D01*
X83030782Y-86621716D01*
X83927498Y-85725000D01*
X84982502Y-85725000D01*
X85879218Y-86621716D01*
X86234854Y-86557086D01*
X86369493Y-86009187D01*
X88019752Y-86009187D01*
X88237757Y-86536800D01*
X88641077Y-86940824D01*
X89168309Y-87159750D01*
X89739187Y-87160248D01*
X90266800Y-86942243D01*
X90670824Y-86538923D01*
X90889750Y-86011691D01*
X90890248Y-85440813D01*
X90672243Y-84913200D01*
X90268923Y-84509176D01*
X89741691Y-84290250D01*
X89170813Y-84289752D01*
X88643200Y-84507757D01*
X88239176Y-84911077D01*
X88020250Y-85438309D01*
X88019752Y-86009187D01*
X86369493Y-86009187D01*
X86417796Y-85812627D01*
X86301920Y-85054827D01*
X86234854Y-84892914D01*
X85879218Y-84828284D01*
X84982502Y-85725000D01*
X83927498Y-85725000D01*
X83030782Y-84828284D01*
X82675146Y-84892914D01*
X82492204Y-85637373D01*
X82115000Y-85637373D01*
X82115000Y-84300782D01*
X83558284Y-84300782D01*
X84455000Y-85197498D01*
X85351716Y-84300782D01*
X85287086Y-83945146D01*
X84542627Y-83762204D01*
X83784827Y-83878080D01*
X83622914Y-83945146D01*
X83558284Y-84300782D01*
X82115000Y-84300782D01*
X82115000Y-73763167D01*
X82263309Y-73824750D01*
X82804354Y-73825222D01*
X96494966Y-87515834D01*
X96765859Y-87696839D01*
X97085400Y-87760400D01*
X98176381Y-87760400D01*
X97886048Y-88235841D01*
X98086172Y-88527000D01*
X99322000Y-88527000D01*
X99322000Y-88507000D01*
X100068000Y-88507000D01*
X100068000Y-88527000D01*
X100088000Y-88527000D01*
X100088000Y-89273000D01*
X100068000Y-89273000D01*
X100068000Y-90502410D01*
X100359156Y-90708929D01*
X100504491Y-90648754D01*
X101112091Y-90205859D01*
X101257533Y-89967688D01*
X101685849Y-90253880D01*
X102235000Y-90363113D01*
X102784151Y-90253880D01*
X103249698Y-89942811D01*
X103505000Y-89560725D01*
X103760302Y-89942811D01*
X103940000Y-90062882D01*
X103940000Y-90100300D01*
X104003561Y-90419841D01*
X104156516Y-90648754D01*
X104184566Y-90690734D01*
X105210000Y-91716168D01*
X105210000Y-94873613D01*
X105148000Y-94917590D01*
X105148000Y-96147000D01*
X105168000Y-96147000D01*
X105168000Y-96893000D01*
X105148000Y-96893000D01*
X105148000Y-98122410D01*
X105210000Y-98166387D01*
X105210000Y-98894800D01*
X104383300Y-98894800D01*
X104063759Y-98958361D01*
X103807332Y-99129700D01*
X103792866Y-99139366D01*
X99905576Y-103026656D01*
X99845564Y-102966539D01*
X99336702Y-102755241D01*
X98785715Y-102754760D01*
X98276485Y-102965169D01*
X97886539Y-103354436D01*
X97675241Y-103863298D01*
X97674760Y-104414285D01*
X97885169Y-104923515D01*
X98243589Y-105282560D01*
X97040000Y-105282560D01*
X96804683Y-105326838D01*
X96588559Y-105465910D01*
X96443569Y-105678110D01*
X96392560Y-105930000D01*
X96392560Y-107430000D01*
X96436838Y-107665317D01*
X96575910Y-107881441D01*
X96788110Y-108026431D01*
X97040000Y-108077440D01*
X98540000Y-108077440D01*
X98775317Y-108033162D01*
X98991441Y-107894090D01*
X99136431Y-107681890D01*
X99176355Y-107484738D01*
X99544436Y-107853461D01*
X100053298Y-108064759D01*
X100604285Y-108065240D01*
X101113515Y-107854831D01*
X101503461Y-107465564D01*
X101599976Y-107233130D01*
X101695169Y-107463515D01*
X102084436Y-107853461D01*
X102593298Y-108064759D01*
X103144285Y-108065240D01*
X103653515Y-107854831D01*
X104043461Y-107465564D01*
X104139976Y-107233130D01*
X104235169Y-107463515D01*
X104624436Y-107853461D01*
X105133298Y-108064759D01*
X105684285Y-108065240D01*
X106193515Y-107854831D01*
X106583461Y-107465564D01*
X106794759Y-106956702D01*
X106795240Y-106405715D01*
X106584831Y-105896485D01*
X106195564Y-105506539D01*
X105686702Y-105295241D01*
X105135715Y-105294760D01*
X104626485Y-105505169D01*
X104236539Y-105894436D01*
X104140024Y-106126870D01*
X104044831Y-105896485D01*
X103655564Y-105506539D01*
X103146702Y-105295241D01*
X102595715Y-105294760D01*
X102086485Y-105505169D01*
X101696539Y-105894436D01*
X101600024Y-106126870D01*
X101504831Y-105896485D01*
X101115564Y-105506539D01*
X100683739Y-105327229D01*
X100756022Y-105254946D01*
X100814436Y-105313461D01*
X101323298Y-105524759D01*
X101874285Y-105525240D01*
X102383515Y-105314831D01*
X102773461Y-104925564D01*
X102869976Y-104693130D01*
X102965169Y-104923515D01*
X103354436Y-105313461D01*
X103863298Y-105524759D01*
X104414285Y-105525240D01*
X104923515Y-105314831D01*
X105313461Y-104925564D01*
X105409976Y-104693130D01*
X105505169Y-104923515D01*
X105894436Y-105313461D01*
X106403298Y-105524759D01*
X106954285Y-105525240D01*
X107463515Y-105314831D01*
X107853461Y-104925564D01*
X108064759Y-104416702D01*
X108065240Y-103865715D01*
X107854831Y-103356485D01*
X107465564Y-102966539D01*
X106956702Y-102755241D01*
X106405715Y-102754760D01*
X105896485Y-102965169D01*
X105506539Y-103354436D01*
X105410024Y-103586870D01*
X105314831Y-103356485D01*
X104925564Y-102966539D01*
X104416702Y-102755241D01*
X103865715Y-102754760D01*
X103356485Y-102965169D01*
X102966539Y-103354436D01*
X102870024Y-103586870D01*
X102774831Y-103356485D01*
X102385564Y-102966539D01*
X102344486Y-102949482D01*
X104729168Y-100564800D01*
X105898592Y-100564800D01*
X105961120Y-100879151D01*
X106272189Y-101344698D01*
X106737736Y-101655767D01*
X107286887Y-101765000D01*
X107343113Y-101765000D01*
X107892264Y-101655767D01*
X108357811Y-101344698D01*
X108668880Y-100879151D01*
X108778113Y-100330000D01*
X108668880Y-99780849D01*
X108357811Y-99315302D01*
X107892264Y-99004233D01*
X107343113Y-98895000D01*
X107316005Y-98895000D01*
X107315000Y-98894800D01*
X106880000Y-98894800D01*
X106880000Y-97896586D01*
X107315000Y-97983113D01*
X107864151Y-97873880D01*
X108329698Y-97562811D01*
X108640767Y-97097264D01*
X108750000Y-96548113D01*
X108750000Y-96491887D01*
X108640767Y-95942736D01*
X108329698Y-95477189D01*
X107864151Y-95166120D01*
X107315000Y-95056887D01*
X106880000Y-95143414D01*
X106880000Y-91370300D01*
X106816439Y-91050759D01*
X106635434Y-90779866D01*
X105793175Y-89937607D01*
X106045000Y-89560725D01*
X106300302Y-89942811D01*
X106765849Y-90253880D01*
X107315000Y-90363113D01*
X107864151Y-90253880D01*
X108329698Y-89942811D01*
X108582705Y-89564159D01*
X114396048Y-89564159D01*
X114787909Y-90205859D01*
X115395509Y-90648754D01*
X115540844Y-90708929D01*
X115832000Y-90502410D01*
X115832000Y-89273000D01*
X114596172Y-89273000D01*
X114396048Y-89564159D01*
X108582705Y-89564159D01*
X108640767Y-89477264D01*
X108750000Y-88928113D01*
X108750000Y-88871887D01*
X108640767Y-88322736D01*
X108329698Y-87857189D01*
X108184843Y-87760400D01*
X114686381Y-87760400D01*
X114396048Y-88235841D01*
X114596172Y-88527000D01*
X115832000Y-88527000D01*
X115832000Y-88507000D01*
X116578000Y-88507000D01*
X116578000Y-88527000D01*
X116598000Y-88527000D01*
X116598000Y-89273000D01*
X116578000Y-89273000D01*
X116578000Y-90502410D01*
X116869156Y-90708929D01*
X117014491Y-90648754D01*
X117018870Y-90645562D01*
X116954266Y-90710166D01*
X116773261Y-90981059D01*
X116709700Y-91300600D01*
X116709700Y-95072560D01*
X115405000Y-95072560D01*
X115169683Y-95116838D01*
X114953559Y-95255910D01*
X114808569Y-95468110D01*
X114757560Y-95720000D01*
X114757560Y-97320000D01*
X114801838Y-97555317D01*
X114940910Y-97771441D01*
X115153110Y-97916431D01*
X115405000Y-97967440D01*
X116709700Y-97967440D01*
X116709700Y-98644432D01*
X116458911Y-98895221D01*
X115920813Y-98894752D01*
X115393200Y-99112757D01*
X114989176Y-99516077D01*
X114770250Y-100043309D01*
X114769752Y-100614187D01*
X114987757Y-101141800D01*
X115391077Y-101545824D01*
X115918309Y-101764750D01*
X116489187Y-101765248D01*
X117016800Y-101547243D01*
X117420824Y-101143923D01*
X117639750Y-100616691D01*
X117640222Y-100075646D01*
X118135134Y-99580734D01*
X118316139Y-99309841D01*
X118379700Y-98990300D01*
X118379700Y-96893000D01*
X119118000Y-96893000D01*
X119118000Y-98122410D01*
X119409156Y-98328929D01*
X119554491Y-98268754D01*
X120015000Y-97933077D01*
X120475509Y-98268754D01*
X120620844Y-98328929D01*
X120912000Y-98122410D01*
X120912000Y-96893000D01*
X119118000Y-96893000D01*
X118379700Y-96893000D01*
X118379700Y-94917590D01*
X119118000Y-94917590D01*
X119118000Y-96147000D01*
X120912000Y-96147000D01*
X120912000Y-94917590D01*
X120620844Y-94711071D01*
X120475509Y-94771246D01*
X120015000Y-95106923D01*
X119554491Y-94771246D01*
X119409156Y-94711071D01*
X119118000Y-94917590D01*
X118379700Y-94917590D01*
X118379700Y-91646468D01*
X119335434Y-90690734D01*
X119516440Y-90419840D01*
X119580000Y-90100300D01*
X119580000Y-90062882D01*
X119759698Y-89942811D01*
X120015000Y-89560725D01*
X120270302Y-89942811D01*
X120450000Y-90062882D01*
X120450000Y-90100300D01*
X120513561Y-90419841D01*
X120666516Y-90648754D01*
X120694566Y-90690734D01*
X121720000Y-91716168D01*
X121720000Y-94873613D01*
X121658000Y-94917590D01*
X121658000Y-96147000D01*
X121678000Y-96147000D01*
X121678000Y-96893000D01*
X121658000Y-96893000D01*
X121658000Y-98122410D01*
X121720000Y-98166387D01*
X121720000Y-98894800D01*
X120893300Y-98894800D01*
X120573759Y-98958361D01*
X120317332Y-99129700D01*
X120302866Y-99139366D01*
X116415576Y-103026656D01*
X116355564Y-102966539D01*
X115846702Y-102755241D01*
X115295715Y-102754760D01*
X114786485Y-102965169D01*
X114396539Y-103354436D01*
X114185241Y-103863298D01*
X114184760Y-104414285D01*
X114395169Y-104923515D01*
X114753589Y-105282560D01*
X113550000Y-105282560D01*
X113314683Y-105326838D01*
X113098559Y-105465910D01*
X112953569Y-105678110D01*
X112902560Y-105930000D01*
X112902560Y-107430000D01*
X112946838Y-107665317D01*
X113085910Y-107881441D01*
X113298110Y-108026431D01*
X113550000Y-108077440D01*
X115050000Y-108077440D01*
X115285317Y-108033162D01*
X115501441Y-107894090D01*
X115646431Y-107681890D01*
X115686355Y-107484738D01*
X116054436Y-107853461D01*
X116563298Y-108064759D01*
X117114285Y-108065240D01*
X117623515Y-107854831D01*
X118013461Y-107465564D01*
X118109976Y-107233130D01*
X118205169Y-107463515D01*
X118594436Y-107853461D01*
X119103298Y-108064759D01*
X119654285Y-108065240D01*
X120163515Y-107854831D01*
X120553461Y-107465564D01*
X120649976Y-107233130D01*
X120745169Y-107463515D01*
X121134436Y-107853461D01*
X121643298Y-108064759D01*
X122194285Y-108065240D01*
X122703515Y-107854831D01*
X123093461Y-107465564D01*
X123304759Y-106956702D01*
X123305240Y-106405715D01*
X123094831Y-105896485D01*
X122705564Y-105506539D01*
X122196702Y-105295241D01*
X121645715Y-105294760D01*
X121136485Y-105505169D01*
X120746539Y-105894436D01*
X120650024Y-106126870D01*
X120554831Y-105896485D01*
X120165564Y-105506539D01*
X119656702Y-105295241D01*
X119105715Y-105294760D01*
X118596485Y-105505169D01*
X118206539Y-105894436D01*
X118110024Y-106126870D01*
X118014831Y-105896485D01*
X117625564Y-105506539D01*
X117193739Y-105327229D01*
X117266022Y-105254946D01*
X117324436Y-105313461D01*
X117833298Y-105524759D01*
X118384285Y-105525240D01*
X118893515Y-105314831D01*
X119283461Y-104925564D01*
X119379976Y-104693130D01*
X119475169Y-104923515D01*
X119864436Y-105313461D01*
X120373298Y-105524759D01*
X120924285Y-105525240D01*
X121433515Y-105314831D01*
X121823461Y-104925564D01*
X121919976Y-104693130D01*
X122015169Y-104923515D01*
X122404436Y-105313461D01*
X122913298Y-105524759D01*
X123464285Y-105525240D01*
X123973515Y-105314831D01*
X124363461Y-104925564D01*
X124574759Y-104416702D01*
X124575240Y-103865715D01*
X124364831Y-103356485D01*
X123975564Y-102966539D01*
X123466702Y-102755241D01*
X122915715Y-102754760D01*
X122406485Y-102965169D01*
X122016539Y-103354436D01*
X121920024Y-103586870D01*
X121824831Y-103356485D01*
X121435564Y-102966539D01*
X120926702Y-102755241D01*
X120375715Y-102754760D01*
X119866485Y-102965169D01*
X119476539Y-103354436D01*
X119380024Y-103586870D01*
X119284831Y-103356485D01*
X118895564Y-102966539D01*
X118854486Y-102949482D01*
X121239168Y-100564800D01*
X122408592Y-100564800D01*
X122471120Y-100879151D01*
X122782189Y-101344698D01*
X123247736Y-101655767D01*
X123796887Y-101765000D01*
X123853113Y-101765000D01*
X124402264Y-101655767D01*
X124867811Y-101344698D01*
X125178880Y-100879151D01*
X125288113Y-100330000D01*
X125178880Y-99780849D01*
X124867811Y-99315302D01*
X124402264Y-99004233D01*
X123853113Y-98895000D01*
X123826005Y-98895000D01*
X123825000Y-98894800D01*
X123390000Y-98894800D01*
X123390000Y-97896586D01*
X123825000Y-97983113D01*
X124374151Y-97873880D01*
X124839698Y-97562811D01*
X125150767Y-97097264D01*
X125260000Y-96548113D01*
X125260000Y-96491887D01*
X125150767Y-95942736D01*
X124839698Y-95477189D01*
X124374151Y-95166120D01*
X123825000Y-95056887D01*
X123390000Y-95143414D01*
X123390000Y-91370300D01*
X123326439Y-91050759D01*
X123145434Y-90779866D01*
X122303175Y-89937607D01*
X122555000Y-89560725D01*
X122810302Y-89942811D01*
X123275849Y-90253880D01*
X123825000Y-90363113D01*
X124374151Y-90253880D01*
X124839698Y-89942811D01*
X125092705Y-89564159D01*
X130906048Y-89564159D01*
X131297909Y-90205859D01*
X131905509Y-90648754D01*
X132050844Y-90708929D01*
X132342000Y-90502410D01*
X132342000Y-89273000D01*
X131106172Y-89273000D01*
X130906048Y-89564159D01*
X125092705Y-89564159D01*
X125150767Y-89477264D01*
X125260000Y-88928113D01*
X125260000Y-88871887D01*
X125150767Y-88322736D01*
X124839698Y-87857189D01*
X124694843Y-87760400D01*
X131196381Y-87760400D01*
X130906048Y-88235841D01*
X131106172Y-88527000D01*
X132342000Y-88527000D01*
X132342000Y-88507000D01*
X133088000Y-88507000D01*
X133088000Y-88527000D01*
X133108000Y-88527000D01*
X133108000Y-89273000D01*
X133088000Y-89273000D01*
X133088000Y-90502410D01*
X133379156Y-90708929D01*
X133524491Y-90648754D01*
X133528870Y-90645562D01*
X133464266Y-90710166D01*
X133283261Y-90981059D01*
X133219700Y-91300600D01*
X133219700Y-95072560D01*
X131915000Y-95072560D01*
X131679683Y-95116838D01*
X131463559Y-95255910D01*
X131318569Y-95468110D01*
X131267560Y-95720000D01*
X131267560Y-97320000D01*
X131311838Y-97555317D01*
X131450910Y-97771441D01*
X131663110Y-97916431D01*
X131915000Y-97967440D01*
X133219700Y-97967440D01*
X133219700Y-98644432D01*
X132968911Y-98895221D01*
X132430813Y-98894752D01*
X131903200Y-99112757D01*
X131499176Y-99516077D01*
X131280250Y-100043309D01*
X131279752Y-100614187D01*
X131497757Y-101141800D01*
X131901077Y-101545824D01*
X132428309Y-101764750D01*
X132999187Y-101765248D01*
X133526800Y-101547243D01*
X133930824Y-101143923D01*
X134149750Y-100616691D01*
X134150222Y-100075646D01*
X134645134Y-99580734D01*
X134826139Y-99309841D01*
X134889700Y-98990300D01*
X134889700Y-96893000D01*
X135628000Y-96893000D01*
X135628000Y-98122410D01*
X135919156Y-98328929D01*
X136064491Y-98268754D01*
X136525000Y-97933077D01*
X136985509Y-98268754D01*
X137130844Y-98328929D01*
X137422000Y-98122410D01*
X137422000Y-96893000D01*
X135628000Y-96893000D01*
X134889700Y-96893000D01*
X134889700Y-94917590D01*
X135628000Y-94917590D01*
X135628000Y-96147000D01*
X137422000Y-96147000D01*
X137422000Y-94917590D01*
X137130844Y-94711071D01*
X136985509Y-94771246D01*
X136525000Y-95106923D01*
X136064491Y-94771246D01*
X135919156Y-94711071D01*
X135628000Y-94917590D01*
X134889700Y-94917590D01*
X134889700Y-91646468D01*
X135845434Y-90690734D01*
X136026440Y-90419840D01*
X136090000Y-90100300D01*
X136090000Y-90062882D01*
X136269698Y-89942811D01*
X136525000Y-89560725D01*
X136780302Y-89942811D01*
X136960000Y-90062882D01*
X136960000Y-90100300D01*
X137023561Y-90419841D01*
X137176516Y-90648754D01*
X137204566Y-90690734D01*
X138230000Y-91716168D01*
X138230000Y-94873613D01*
X138168000Y-94917590D01*
X138168000Y-96147000D01*
X138188000Y-96147000D01*
X138188000Y-96893000D01*
X138168000Y-96893000D01*
X138168000Y-98122410D01*
X138230000Y-98166387D01*
X138230000Y-98894800D01*
X137403300Y-98894800D01*
X137083759Y-98958361D01*
X136827332Y-99129700D01*
X136812866Y-99139366D01*
X132925576Y-103026656D01*
X132865564Y-102966539D01*
X132356702Y-102755241D01*
X131805715Y-102754760D01*
X131296485Y-102965169D01*
X130906539Y-103354436D01*
X130695241Y-103863298D01*
X130694760Y-104414285D01*
X130905169Y-104923515D01*
X131263589Y-105282560D01*
X130060000Y-105282560D01*
X129824683Y-105326838D01*
X129608559Y-105465910D01*
X129463569Y-105678110D01*
X129412560Y-105930000D01*
X129412560Y-107430000D01*
X129456838Y-107665317D01*
X129595910Y-107881441D01*
X129808110Y-108026431D01*
X130060000Y-108077440D01*
X131560000Y-108077440D01*
X131795317Y-108033162D01*
X132011441Y-107894090D01*
X132156431Y-107681890D01*
X132196355Y-107484738D01*
X132564436Y-107853461D01*
X133073298Y-108064759D01*
X133624285Y-108065240D01*
X134133515Y-107854831D01*
X134523461Y-107465564D01*
X134619976Y-107233130D01*
X134715169Y-107463515D01*
X135104436Y-107853461D01*
X135613298Y-108064759D01*
X136164285Y-108065240D01*
X136673515Y-107854831D01*
X137063461Y-107465564D01*
X137159976Y-107233130D01*
X137255169Y-107463515D01*
X137644436Y-107853461D01*
X138153298Y-108064759D01*
X138704285Y-108065240D01*
X139213515Y-107854831D01*
X139603461Y-107465564D01*
X139814759Y-106956702D01*
X139815240Y-106405715D01*
X139618680Y-105930000D01*
X145922560Y-105930000D01*
X145922560Y-107430000D01*
X145966838Y-107665317D01*
X146105910Y-107881441D01*
X146318110Y-108026431D01*
X146570000Y-108077440D01*
X148070000Y-108077440D01*
X148305317Y-108033162D01*
X148521441Y-107894090D01*
X148666431Y-107681890D01*
X148706355Y-107484738D01*
X149074436Y-107853461D01*
X149583298Y-108064759D01*
X150134285Y-108065240D01*
X150643515Y-107854831D01*
X151033461Y-107465564D01*
X151129976Y-107233130D01*
X151225169Y-107463515D01*
X151614436Y-107853461D01*
X152123298Y-108064759D01*
X152674285Y-108065240D01*
X153183515Y-107854831D01*
X153573461Y-107465564D01*
X153669976Y-107233130D01*
X153765169Y-107463515D01*
X154154436Y-107853461D01*
X154663298Y-108064759D01*
X155214285Y-108065240D01*
X155723515Y-107854831D01*
X156113461Y-107465564D01*
X156324759Y-106956702D01*
X156325240Y-106405715D01*
X156128680Y-105930000D01*
X162432560Y-105930000D01*
X162432560Y-107430000D01*
X162476838Y-107665317D01*
X162615910Y-107881441D01*
X162828110Y-108026431D01*
X163080000Y-108077440D01*
X164580000Y-108077440D01*
X164815317Y-108033162D01*
X165031441Y-107894090D01*
X165176431Y-107681890D01*
X165216355Y-107484738D01*
X165584436Y-107853461D01*
X166093298Y-108064759D01*
X166644285Y-108065240D01*
X167153515Y-107854831D01*
X167543461Y-107465564D01*
X167639976Y-107233130D01*
X167735169Y-107463515D01*
X168124436Y-107853461D01*
X168633298Y-108064759D01*
X169184285Y-108065240D01*
X169693515Y-107854831D01*
X170083461Y-107465564D01*
X170179976Y-107233130D01*
X170275169Y-107463515D01*
X170664436Y-107853461D01*
X171173298Y-108064759D01*
X171724285Y-108065240D01*
X172233515Y-107854831D01*
X172623461Y-107465564D01*
X172834759Y-106956702D01*
X172835240Y-106405715D01*
X172624831Y-105896485D01*
X172235564Y-105506539D01*
X171726702Y-105295241D01*
X171175715Y-105294760D01*
X170666485Y-105505169D01*
X170276539Y-105894436D01*
X170180024Y-106126870D01*
X170084831Y-105896485D01*
X169695564Y-105506539D01*
X169186702Y-105295241D01*
X168635715Y-105294760D01*
X168126485Y-105505169D01*
X167736539Y-105894436D01*
X167640024Y-106126870D01*
X167544831Y-105896485D01*
X167155564Y-105506539D01*
X166646702Y-105295241D01*
X166095715Y-105294760D01*
X165586485Y-105505169D01*
X165216920Y-105874091D01*
X165183162Y-105694683D01*
X165073960Y-105524978D01*
X165374285Y-105525240D01*
X165883515Y-105314831D01*
X166273461Y-104925564D01*
X166369976Y-104693130D01*
X166465169Y-104923515D01*
X166854436Y-105313461D01*
X167363298Y-105524759D01*
X167914285Y-105525240D01*
X168423515Y-105314831D01*
X168813461Y-104925564D01*
X168909976Y-104693130D01*
X169005169Y-104923515D01*
X169394436Y-105313461D01*
X169903298Y-105524759D01*
X170454285Y-105525240D01*
X170963515Y-105314831D01*
X171353461Y-104925564D01*
X171449976Y-104693130D01*
X171545169Y-104923515D01*
X171934436Y-105313461D01*
X172443298Y-105524759D01*
X172994285Y-105525240D01*
X173503515Y-105314831D01*
X173893461Y-104925564D01*
X174104759Y-104416702D01*
X174105240Y-103865715D01*
X173894831Y-103356485D01*
X173505564Y-102966539D01*
X172996702Y-102755241D01*
X172445715Y-102754760D01*
X171936485Y-102965169D01*
X171546539Y-103354436D01*
X171450024Y-103586870D01*
X171354831Y-103356485D01*
X170965564Y-102966539D01*
X170456702Y-102755241D01*
X169905715Y-102754760D01*
X169396485Y-102965169D01*
X169006539Y-103354436D01*
X168910024Y-103586870D01*
X168814831Y-103356485D01*
X168425564Y-102966539D01*
X167916702Y-102755241D01*
X167365715Y-102754760D01*
X166856485Y-102965169D01*
X166466539Y-103354436D01*
X166370024Y-103586870D01*
X166274831Y-103356485D01*
X165885564Y-102966539D01*
X165376702Y-102755241D01*
X164825715Y-102754760D01*
X164316485Y-102965169D01*
X163926539Y-103354436D01*
X163715241Y-103863298D01*
X163714760Y-104414285D01*
X163925169Y-104923515D01*
X164283589Y-105282560D01*
X163080000Y-105282560D01*
X162844683Y-105326838D01*
X162628559Y-105465910D01*
X162483569Y-105678110D01*
X162432560Y-105930000D01*
X156128680Y-105930000D01*
X156114831Y-105896485D01*
X155725564Y-105506539D01*
X155216702Y-105295241D01*
X154665715Y-105294760D01*
X154156485Y-105505169D01*
X153766539Y-105894436D01*
X153670024Y-106126870D01*
X153574831Y-105896485D01*
X153185564Y-105506539D01*
X152780307Y-105338261D01*
X152844806Y-105273762D01*
X152884436Y-105313461D01*
X153393298Y-105524759D01*
X153944285Y-105525240D01*
X154453515Y-105314831D01*
X154843461Y-104925564D01*
X154939976Y-104693130D01*
X155035169Y-104923515D01*
X155424436Y-105313461D01*
X155933298Y-105524759D01*
X156484285Y-105525240D01*
X156993515Y-105314831D01*
X157383461Y-104925564D01*
X157594759Y-104416702D01*
X157595240Y-103865715D01*
X157384831Y-103356485D01*
X156995564Y-102966539D01*
X156486702Y-102755241D01*
X155935715Y-102754760D01*
X155426485Y-102965169D01*
X155036539Y-103354436D01*
X154940024Y-103586870D01*
X154844831Y-103356485D01*
X154455564Y-102966539D01*
X154405371Y-102945697D01*
X154997132Y-102353936D01*
X155259541Y-102301739D01*
X155530434Y-102120734D01*
X155711439Y-101849841D01*
X155775000Y-101530300D01*
X155775000Y-101483553D01*
X155982811Y-101344698D01*
X156293880Y-100879151D01*
X156403113Y-100330000D01*
X156293880Y-99780849D01*
X155982811Y-99315302D01*
X155517264Y-99004233D01*
X154968113Y-98895000D01*
X154911887Y-98895000D01*
X154362736Y-99004233D01*
X153897189Y-99315302D01*
X153586120Y-99780849D01*
X153476887Y-100330000D01*
X153586120Y-100879151D01*
X153796030Y-101193302D01*
X151969132Y-103020200D01*
X151915564Y-102966539D01*
X151406702Y-102755241D01*
X150855715Y-102754760D01*
X150346485Y-102965169D01*
X149956539Y-103354436D01*
X149860024Y-103586870D01*
X149764831Y-103356485D01*
X149375564Y-102966539D01*
X148866702Y-102755241D01*
X148315715Y-102754760D01*
X147806485Y-102965169D01*
X147416539Y-103354436D01*
X147205241Y-103863298D01*
X147204760Y-104414285D01*
X147415169Y-104923515D01*
X147773589Y-105282560D01*
X146570000Y-105282560D01*
X146334683Y-105326838D01*
X146118559Y-105465910D01*
X145973569Y-105678110D01*
X145922560Y-105930000D01*
X139618680Y-105930000D01*
X139604831Y-105896485D01*
X139215564Y-105506539D01*
X138706702Y-105295241D01*
X138155715Y-105294760D01*
X137646485Y-105505169D01*
X137256539Y-105894436D01*
X137160024Y-106126870D01*
X137064831Y-105896485D01*
X136675564Y-105506539D01*
X136166702Y-105295241D01*
X135615715Y-105294760D01*
X135106485Y-105505169D01*
X134716539Y-105894436D01*
X134620024Y-106126870D01*
X134524831Y-105896485D01*
X134135564Y-105506539D01*
X133703739Y-105327229D01*
X133776022Y-105254946D01*
X133834436Y-105313461D01*
X134343298Y-105524759D01*
X134894285Y-105525240D01*
X135403515Y-105314831D01*
X135793461Y-104925564D01*
X135889976Y-104693130D01*
X135985169Y-104923515D01*
X136374436Y-105313461D01*
X136883298Y-105524759D01*
X137434285Y-105525240D01*
X137943515Y-105314831D01*
X138333461Y-104925564D01*
X138429976Y-104693130D01*
X138525169Y-104923515D01*
X138914436Y-105313461D01*
X139423298Y-105524759D01*
X139974285Y-105525240D01*
X140483515Y-105314831D01*
X140873461Y-104925564D01*
X141084759Y-104416702D01*
X141085240Y-103865715D01*
X140874831Y-103356485D01*
X140485564Y-102966539D01*
X139976702Y-102755241D01*
X139425715Y-102754760D01*
X138916485Y-102965169D01*
X138526539Y-103354436D01*
X138430024Y-103586870D01*
X138334831Y-103356485D01*
X137945564Y-102966539D01*
X137436702Y-102755241D01*
X136885715Y-102754760D01*
X136376485Y-102965169D01*
X135986539Y-103354436D01*
X135890024Y-103586870D01*
X135794831Y-103356485D01*
X135405564Y-102966539D01*
X135364486Y-102949482D01*
X137749168Y-100564800D01*
X138918592Y-100564800D01*
X138981120Y-100879151D01*
X139292189Y-101344698D01*
X139757736Y-101655767D01*
X140306887Y-101765000D01*
X140363113Y-101765000D01*
X140912264Y-101655767D01*
X141377811Y-101344698D01*
X141688880Y-100879151D01*
X141741584Y-100614187D01*
X145884752Y-100614187D01*
X146102757Y-101141800D01*
X146506077Y-101545824D01*
X147033309Y-101764750D01*
X147604187Y-101765248D01*
X148131800Y-101547243D01*
X148535824Y-101143923D01*
X148754750Y-100616691D01*
X148755248Y-100045813D01*
X148537243Y-99518200D01*
X148133923Y-99114176D01*
X147606691Y-98895250D01*
X147035813Y-98894752D01*
X146508200Y-99112757D01*
X146104176Y-99516077D01*
X145885250Y-100043309D01*
X145884752Y-100614187D01*
X141741584Y-100614187D01*
X141798113Y-100330000D01*
X141688880Y-99780849D01*
X141377811Y-99315302D01*
X140912264Y-99004233D01*
X140363113Y-98895000D01*
X140336005Y-98895000D01*
X140335000Y-98894800D01*
X139900000Y-98894800D01*
X139900000Y-97896586D01*
X140335000Y-97983113D01*
X140884151Y-97873880D01*
X141349698Y-97562811D01*
X141660767Y-97097264D01*
X141770000Y-96548113D01*
X141770000Y-96491887D01*
X141660767Y-95942736D01*
X141511940Y-95720000D01*
X145872560Y-95720000D01*
X145872560Y-97320000D01*
X145916838Y-97555317D01*
X146055910Y-97771441D01*
X146268110Y-97916431D01*
X146520000Y-97967440D01*
X148120000Y-97967440D01*
X148355317Y-97923162D01*
X148472739Y-97847603D01*
X149050509Y-98268754D01*
X149195844Y-98328929D01*
X149487000Y-98122410D01*
X149487000Y-96893000D01*
X150233000Y-96893000D01*
X150233000Y-98122410D01*
X150524156Y-98328929D01*
X150669491Y-98268754D01*
X151130000Y-97933077D01*
X151590509Y-98268754D01*
X151735844Y-98328929D01*
X152027000Y-98122410D01*
X152027000Y-96893000D01*
X150233000Y-96893000D01*
X149487000Y-96893000D01*
X149467000Y-96893000D01*
X149467000Y-96147000D01*
X149487000Y-96147000D01*
X149487000Y-94917590D01*
X150233000Y-94917590D01*
X150233000Y-96147000D01*
X152027000Y-96147000D01*
X152027000Y-94917590D01*
X152773000Y-94917590D01*
X152773000Y-96147000D01*
X152793000Y-96147000D01*
X152793000Y-96893000D01*
X152773000Y-96893000D01*
X152773000Y-98122410D01*
X153064156Y-98328929D01*
X153209491Y-98268754D01*
X153218310Y-98262325D01*
X159920587Y-98262325D01*
X160282916Y-99139229D01*
X160953242Y-99810726D01*
X161829513Y-100174585D01*
X162778325Y-100175413D01*
X163655229Y-99813084D01*
X164326726Y-99142758D01*
X164506760Y-98709187D01*
X166204752Y-98709187D01*
X166422757Y-99236800D01*
X166826077Y-99640824D01*
X167353309Y-99859750D01*
X167924187Y-99860248D01*
X168451800Y-99642243D01*
X168855824Y-99238923D01*
X169074750Y-98711691D01*
X169075000Y-98425000D01*
X173796887Y-98425000D01*
X173906120Y-98974151D01*
X174217189Y-99439698D01*
X174682736Y-99750767D01*
X175231887Y-99860000D01*
X175288113Y-99860000D01*
X175837264Y-99750767D01*
X176302811Y-99439698D01*
X176613880Y-98974151D01*
X176723113Y-98425000D01*
X176613880Y-97875849D01*
X176302811Y-97410302D01*
X175837264Y-97099233D01*
X175288113Y-96990000D01*
X175231887Y-96990000D01*
X174682736Y-97099233D01*
X174217189Y-97410302D01*
X173906120Y-97875849D01*
X173796887Y-98425000D01*
X169075000Y-98425000D01*
X169075248Y-98140813D01*
X168857243Y-97613200D01*
X168453923Y-97209176D01*
X167926691Y-96990250D01*
X167355813Y-96989752D01*
X166828200Y-97207757D01*
X166424176Y-97611077D01*
X166205250Y-98138309D01*
X166204752Y-98709187D01*
X164506760Y-98709187D01*
X164690585Y-98266487D01*
X164691413Y-97317675D01*
X164329084Y-96440771D01*
X163658758Y-95769274D01*
X162782487Y-95405415D01*
X161833675Y-95404587D01*
X160956771Y-95766916D01*
X160285274Y-96437242D01*
X159921415Y-97313513D01*
X159920587Y-98262325D01*
X153218310Y-98262325D01*
X153817091Y-97825859D01*
X153962533Y-97587688D01*
X154390849Y-97873880D01*
X154940000Y-97983113D01*
X155489151Y-97873880D01*
X155954698Y-97562811D01*
X156265767Y-97097264D01*
X156375000Y-96548113D01*
X156375000Y-96491887D01*
X156265767Y-95942736D01*
X155954698Y-95477189D01*
X155489151Y-95166120D01*
X154940000Y-95056887D01*
X154390849Y-95166120D01*
X153962533Y-95452312D01*
X153817091Y-95214141D01*
X153209491Y-94771246D01*
X153064156Y-94711071D01*
X152773000Y-94917590D01*
X152027000Y-94917590D01*
X151735844Y-94711071D01*
X151590509Y-94771246D01*
X151130000Y-95106923D01*
X150669491Y-94771246D01*
X150524156Y-94711071D01*
X150233000Y-94917590D01*
X149487000Y-94917590D01*
X149195844Y-94711071D01*
X149050509Y-94771246D01*
X148472683Y-95192438D01*
X148371890Y-95123569D01*
X148120000Y-95072560D01*
X146520000Y-95072560D01*
X146284683Y-95116838D01*
X146068559Y-95255910D01*
X145923569Y-95468110D01*
X145872560Y-95720000D01*
X141511940Y-95720000D01*
X141349698Y-95477189D01*
X140884151Y-95166120D01*
X140335000Y-95056887D01*
X139900000Y-95143414D01*
X139900000Y-91370300D01*
X139836439Y-91050759D01*
X139655434Y-90779866D01*
X138813175Y-89937607D01*
X139065000Y-89560725D01*
X139320302Y-89942811D01*
X139785849Y-90253880D01*
X140335000Y-90363113D01*
X140884151Y-90253880D01*
X141349698Y-89942811D01*
X141660767Y-89477264D01*
X141770000Y-88928113D01*
X141770000Y-88871887D01*
X141660767Y-88322736D01*
X141362741Y-87876709D01*
X146856066Y-93370034D01*
X147126959Y-93551039D01*
X147446500Y-93614600D01*
X169215001Y-93614600D01*
X168792683Y-93922438D01*
X168691890Y-93853569D01*
X168440000Y-93802560D01*
X166840000Y-93802560D01*
X166604683Y-93846838D01*
X166388559Y-93985910D01*
X166243569Y-94198110D01*
X166192560Y-94450000D01*
X166192560Y-96050000D01*
X166236838Y-96285317D01*
X166375910Y-96501441D01*
X166588110Y-96646431D01*
X166840000Y-96697440D01*
X168440000Y-96697440D01*
X168675317Y-96653162D01*
X168792739Y-96577603D01*
X169370509Y-96998754D01*
X169515844Y-97058929D01*
X169807000Y-96852410D01*
X169807000Y-95623000D01*
X170553000Y-95623000D01*
X170553000Y-96852410D01*
X170844156Y-97058929D01*
X170989491Y-96998754D01*
X171450000Y-96663077D01*
X171910509Y-96998754D01*
X172055844Y-97058929D01*
X172347000Y-96852410D01*
X172347000Y-95623000D01*
X170553000Y-95623000D01*
X169807000Y-95623000D01*
X169787000Y-95623000D01*
X169787000Y-94877000D01*
X169807000Y-94877000D01*
X169807000Y-94857000D01*
X170553000Y-94857000D01*
X170553000Y-94877000D01*
X172347000Y-94877000D01*
X172347000Y-94857000D01*
X172858832Y-94857000D01*
X173113000Y-95111168D01*
X173113000Y-95623000D01*
X173093000Y-95623000D01*
X173093000Y-96852410D01*
X173384156Y-97058929D01*
X173529491Y-96998754D01*
X174137091Y-96555859D01*
X174282533Y-96317688D01*
X174710849Y-96603880D01*
X175260000Y-96713113D01*
X175809151Y-96603880D01*
X176274698Y-96292811D01*
X176585767Y-95827264D01*
X176695000Y-95278113D01*
X176695000Y-95221887D01*
X176585767Y-94672736D01*
X176274698Y-94207189D01*
X175809151Y-93896120D01*
X175260000Y-93786887D01*
X174710849Y-93896120D01*
X174440398Y-94076830D01*
X172552734Y-92189166D01*
X172281841Y-92008161D01*
X171962300Y-91944600D01*
X147792368Y-91944600D01*
X146458911Y-90611143D01*
X146510509Y-90648754D01*
X146655844Y-90708929D01*
X146947000Y-90502410D01*
X146947000Y-89273000D01*
X145711172Y-89273000D01*
X145511048Y-89564159D01*
X145666515Y-89818747D01*
X144083609Y-88235841D01*
X145511048Y-88235841D01*
X145711172Y-88527000D01*
X146947000Y-88527000D01*
X146947000Y-87297590D01*
X147693000Y-87297590D01*
X147693000Y-88527000D01*
X147713000Y-88527000D01*
X147713000Y-89273000D01*
X147693000Y-89273000D01*
X147693000Y-90502410D01*
X147984156Y-90708929D01*
X148129491Y-90648754D01*
X148737091Y-90205859D01*
X148882533Y-89967688D01*
X149310849Y-90253880D01*
X149860000Y-90363113D01*
X150409151Y-90253880D01*
X150874698Y-89942811D01*
X151130000Y-89560725D01*
X151385302Y-89942811D01*
X151850849Y-90253880D01*
X152400000Y-90363113D01*
X152949151Y-90253880D01*
X153414698Y-89942811D01*
X153670000Y-89560725D01*
X153925302Y-89942811D01*
X154390849Y-90253880D01*
X154940000Y-90363113D01*
X155489151Y-90253880D01*
X155954698Y-89942811D01*
X156265767Y-89477264D01*
X156375000Y-88928113D01*
X156375000Y-88871887D01*
X156265767Y-88322736D01*
X156246673Y-88294159D01*
X165831048Y-88294159D01*
X166222909Y-88935859D01*
X166830509Y-89378754D01*
X166975844Y-89438929D01*
X167267000Y-89232410D01*
X167267000Y-88003000D01*
X166031172Y-88003000D01*
X165831048Y-88294159D01*
X156246673Y-88294159D01*
X155954698Y-87857189D01*
X155489151Y-87546120D01*
X154940000Y-87436887D01*
X154390849Y-87546120D01*
X153925302Y-87857189D01*
X153670000Y-88239275D01*
X153414698Y-87857189D01*
X152949151Y-87546120D01*
X152400000Y-87436887D01*
X151850849Y-87546120D01*
X151385302Y-87857189D01*
X151130000Y-88239275D01*
X150874698Y-87857189D01*
X150409151Y-87546120D01*
X149860000Y-87436887D01*
X149333188Y-87541677D01*
X149422086Y-87504854D01*
X149486716Y-87149218D01*
X148590000Y-86252502D01*
X147693284Y-87149218D01*
X147717136Y-87280470D01*
X147693000Y-87297590D01*
X146947000Y-87297590D01*
X146655844Y-87091071D01*
X146510509Y-87151246D01*
X145902909Y-87594141D01*
X145511048Y-88235841D01*
X144083609Y-88235841D01*
X142182734Y-86334966D01*
X142133277Y-86301920D01*
X141911841Y-86153961D01*
X141592300Y-86090400D01*
X140387067Y-86090400D01*
X140419750Y-86011691D01*
X140420076Y-85637373D01*
X146627204Y-85637373D01*
X146743080Y-86395173D01*
X146810146Y-86557086D01*
X147165782Y-86621716D01*
X148062498Y-85725000D01*
X149117502Y-85725000D01*
X150014218Y-86621716D01*
X150369854Y-86557086D01*
X150504493Y-86009187D01*
X152154752Y-86009187D01*
X152372757Y-86536800D01*
X152776077Y-86940824D01*
X153303309Y-87159750D01*
X153874187Y-87160248D01*
X154344688Y-86965841D01*
X165831048Y-86965841D01*
X166031172Y-87257000D01*
X167267000Y-87257000D01*
X167267000Y-86027590D01*
X168013000Y-86027590D01*
X168013000Y-87257000D01*
X168033000Y-87257000D01*
X168033000Y-88003000D01*
X168013000Y-88003000D01*
X168013000Y-89232410D01*
X168304156Y-89438929D01*
X168449491Y-89378754D01*
X169057091Y-88935859D01*
X169202533Y-88697688D01*
X169630849Y-88983880D01*
X170180000Y-89093113D01*
X170729151Y-88983880D01*
X171194698Y-88672811D01*
X171450000Y-88290725D01*
X171705302Y-88672811D01*
X172170849Y-88983880D01*
X172720000Y-89093113D01*
X173269151Y-88983880D01*
X173734698Y-88672811D01*
X173990000Y-88290725D01*
X174245302Y-88672811D01*
X174710849Y-88983880D01*
X175260000Y-89093113D01*
X175809151Y-88983880D01*
X176274698Y-88672811D01*
X176585767Y-88207264D01*
X176695000Y-87658113D01*
X176695000Y-87601887D01*
X176585767Y-87052736D01*
X176274698Y-86587189D01*
X175809151Y-86276120D01*
X175260000Y-86166887D01*
X174710849Y-86276120D01*
X174245302Y-86587189D01*
X173990000Y-86969275D01*
X173734698Y-86587189D01*
X173269151Y-86276120D01*
X172720000Y-86166887D01*
X172170849Y-86276120D01*
X171705302Y-86587189D01*
X171450000Y-86969275D01*
X171194698Y-86587189D01*
X170729151Y-86276120D01*
X170180000Y-86166887D01*
X169653188Y-86271677D01*
X169742086Y-86234854D01*
X169806716Y-85879218D01*
X168910000Y-84982502D01*
X168013284Y-85879218D01*
X168037136Y-86010470D01*
X168013000Y-86027590D01*
X167267000Y-86027590D01*
X166975844Y-85821071D01*
X166830509Y-85881246D01*
X166222909Y-86324141D01*
X165831048Y-86965841D01*
X154344688Y-86965841D01*
X154401800Y-86942243D01*
X154805824Y-86538923D01*
X155024750Y-86011691D01*
X155025248Y-85440813D01*
X154807243Y-84913200D01*
X154403923Y-84509176D01*
X154062424Y-84367373D01*
X166947204Y-84367373D01*
X167063080Y-85125173D01*
X167130146Y-85287086D01*
X167485782Y-85351716D01*
X168382498Y-84455000D01*
X169437502Y-84455000D01*
X170334218Y-85351716D01*
X170689854Y-85287086D01*
X170824493Y-84739187D01*
X172474752Y-84739187D01*
X172692757Y-85266800D01*
X173096077Y-85670824D01*
X173623309Y-85889750D01*
X174194187Y-85890248D01*
X174721800Y-85672243D01*
X175125824Y-85268923D01*
X175344750Y-84741691D01*
X175345248Y-84170813D01*
X175127243Y-83643200D01*
X174723923Y-83239176D01*
X174196691Y-83020250D01*
X173625813Y-83019752D01*
X173098200Y-83237757D01*
X172694176Y-83641077D01*
X172475250Y-84168309D01*
X172474752Y-84739187D01*
X170824493Y-84739187D01*
X170872796Y-84542627D01*
X170756920Y-83784827D01*
X170689854Y-83622914D01*
X170334218Y-83558284D01*
X169437502Y-84455000D01*
X168382498Y-84455000D01*
X167485782Y-83558284D01*
X167130146Y-83622914D01*
X166947204Y-84367373D01*
X154062424Y-84367373D01*
X153876691Y-84290250D01*
X153305813Y-84289752D01*
X152778200Y-84507757D01*
X152374176Y-84911077D01*
X152155250Y-85438309D01*
X152154752Y-86009187D01*
X150504493Y-86009187D01*
X150552796Y-85812627D01*
X150436920Y-85054827D01*
X150369854Y-84892914D01*
X150014218Y-84828284D01*
X149117502Y-85725000D01*
X148062498Y-85725000D01*
X147165782Y-84828284D01*
X146810146Y-84892914D01*
X146627204Y-85637373D01*
X140420076Y-85637373D01*
X140420248Y-85440813D01*
X140202243Y-84913200D01*
X139798923Y-84509176D01*
X139297055Y-84300782D01*
X147693284Y-84300782D01*
X148590000Y-85197498D01*
X149486716Y-84300782D01*
X149422086Y-83945146D01*
X148677627Y-83762204D01*
X147919827Y-83878080D01*
X147757914Y-83945146D01*
X147693284Y-84300782D01*
X139297055Y-84300782D01*
X139271691Y-84290250D01*
X138700813Y-84289752D01*
X138173200Y-84507757D01*
X137769176Y-84911077D01*
X137550250Y-85438309D01*
X137549752Y-86009187D01*
X137583308Y-86090400D01*
X135879537Y-86090400D01*
X135947796Y-85812627D01*
X135831920Y-85054827D01*
X135764854Y-84892914D01*
X135409218Y-84828284D01*
X134512502Y-85725000D01*
X134526644Y-85739142D01*
X134175386Y-86090400D01*
X133794614Y-86090400D01*
X133443356Y-85739142D01*
X133457498Y-85725000D01*
X132560782Y-84828284D01*
X132205146Y-84892914D01*
X132022204Y-85637373D01*
X132091477Y-86090400D01*
X123877067Y-86090400D01*
X123909750Y-86011691D01*
X123910248Y-85440813D01*
X123692243Y-84913200D01*
X123288923Y-84509176D01*
X122787055Y-84300782D01*
X133088284Y-84300782D01*
X133985000Y-85197498D01*
X134881716Y-84300782D01*
X134817086Y-83945146D01*
X134072627Y-83762204D01*
X133314827Y-83878080D01*
X133152914Y-83945146D01*
X133088284Y-84300782D01*
X122787055Y-84300782D01*
X122761691Y-84290250D01*
X122190813Y-84289752D01*
X121663200Y-84507757D01*
X121259176Y-84911077D01*
X121040250Y-85438309D01*
X121039752Y-86009187D01*
X121073308Y-86090400D01*
X119369537Y-86090400D01*
X119437796Y-85812627D01*
X119321920Y-85054827D01*
X119254854Y-84892914D01*
X118899218Y-84828284D01*
X118002502Y-85725000D01*
X118016644Y-85739142D01*
X117665386Y-86090400D01*
X117284614Y-86090400D01*
X116933356Y-85739142D01*
X116947498Y-85725000D01*
X116050782Y-84828284D01*
X115695146Y-84892914D01*
X115512204Y-85637373D01*
X115581477Y-86090400D01*
X107367067Y-86090400D01*
X107399750Y-86011691D01*
X107400248Y-85440813D01*
X107182243Y-84913200D01*
X106778923Y-84509176D01*
X106277055Y-84300782D01*
X116578284Y-84300782D01*
X117475000Y-85197498D01*
X118371716Y-84300782D01*
X118307086Y-83945146D01*
X117562627Y-83762204D01*
X116804827Y-83878080D01*
X116642914Y-83945146D01*
X116578284Y-84300782D01*
X106277055Y-84300782D01*
X106251691Y-84290250D01*
X105680813Y-84289752D01*
X105153200Y-84507757D01*
X104749176Y-84911077D01*
X104530250Y-85438309D01*
X104529752Y-86009187D01*
X104563308Y-86090400D01*
X102859537Y-86090400D01*
X102927796Y-85812627D01*
X102811920Y-85054827D01*
X102744854Y-84892914D01*
X102389218Y-84828284D01*
X101492502Y-85725000D01*
X101506644Y-85739142D01*
X101155386Y-86090400D01*
X100774614Y-86090400D01*
X100423356Y-85739142D01*
X100437498Y-85725000D01*
X99540782Y-84828284D01*
X99185146Y-84892914D01*
X99002204Y-85637373D01*
X99071477Y-86090400D01*
X97431268Y-86090400D01*
X95641650Y-84300782D01*
X100068284Y-84300782D01*
X100965000Y-85197498D01*
X101861716Y-84300782D01*
X101797086Y-83945146D01*
X101052627Y-83762204D01*
X100294827Y-83878080D01*
X100132914Y-83945146D01*
X100068284Y-84300782D01*
X95641650Y-84300782D01*
X94371650Y-83030782D01*
X168013284Y-83030782D01*
X168910000Y-83927498D01*
X169806716Y-83030782D01*
X169742086Y-82675146D01*
X168997627Y-82492204D01*
X168239827Y-82608080D01*
X168077914Y-82675146D01*
X168013284Y-83030782D01*
X94371650Y-83030782D01*
X88810868Y-77470000D01*
X136966887Y-77470000D01*
X137076120Y-78019151D01*
X137387189Y-78484698D01*
X137852736Y-78795767D01*
X138401887Y-78905000D01*
X138458113Y-78905000D01*
X139007264Y-78795767D01*
X139472811Y-78484698D01*
X139783880Y-78019151D01*
X139893113Y-77470000D01*
X139783880Y-76920849D01*
X139472811Y-76455302D01*
X139007264Y-76144233D01*
X138458113Y-76035000D01*
X138401887Y-76035000D01*
X137852736Y-76144233D01*
X137387189Y-76455302D01*
X137076120Y-76920849D01*
X136966887Y-77470000D01*
X88810868Y-77470000D01*
X85165934Y-73825066D01*
X85374187Y-73825248D01*
X85901800Y-73607243D01*
X86305824Y-73203923D01*
X86359862Y-73073785D01*
X86412757Y-73201800D01*
X86816077Y-73605824D01*
X87343309Y-73824750D01*
X87914187Y-73825248D01*
X88441800Y-73607243D01*
X88845824Y-73203923D01*
X88899862Y-73073785D01*
X88952757Y-73201800D01*
X89356077Y-73605824D01*
X89883309Y-73824750D01*
X90454187Y-73825248D01*
X90981800Y-73607243D01*
X91385824Y-73203923D01*
X91439862Y-73073785D01*
X91492757Y-73201800D01*
X91896077Y-73605824D01*
X92423309Y-73824750D01*
X92994187Y-73825248D01*
X93521800Y-73607243D01*
X93925824Y-73203923D01*
X93979862Y-73073785D01*
X94032757Y-73201800D01*
X94436077Y-73605824D01*
X94963309Y-73824750D01*
X95534187Y-73825248D01*
X96061800Y-73607243D01*
X96465824Y-73203923D01*
X96519862Y-73073785D01*
X96572757Y-73201800D01*
X96976077Y-73605824D01*
X97503309Y-73824750D01*
X98074187Y-73825248D01*
X98601800Y-73607243D01*
X99005824Y-73203923D01*
X99059862Y-73073785D01*
X99112757Y-73201800D01*
X99516077Y-73605824D01*
X100043309Y-73824750D01*
X100614187Y-73825248D01*
X101141800Y-73607243D01*
X101235000Y-73514205D01*
X101235000Y-74294995D01*
X101234999Y-74295000D01*
X101359457Y-74920688D01*
X101713880Y-75451120D01*
X102983878Y-76721117D01*
X102983880Y-76721120D01*
X103301851Y-76933581D01*
X103514312Y-77075543D01*
X104140000Y-77200000D01*
X130174995Y-77200000D01*
X130175000Y-77200001D01*
X130800688Y-77075543D01*
X131331120Y-76721120D01*
X134027240Y-74025000D01*
X135254995Y-74025000D01*
X135255000Y-74025001D01*
X135880688Y-73900543D01*
X136240686Y-73660000D01*
X136966887Y-73660000D01*
X137076120Y-74209151D01*
X137387189Y-74674698D01*
X137852736Y-74985767D01*
X138401887Y-75095000D01*
X138458113Y-75095000D01*
X139007264Y-74985767D01*
X139472811Y-74674698D01*
X139783880Y-74209151D01*
X139893113Y-73660000D01*
X139783880Y-73110849D01*
X139472811Y-72645302D01*
X139007264Y-72334233D01*
X138458113Y-72225000D01*
X138401887Y-72225000D01*
X137852736Y-72334233D01*
X137387189Y-72645302D01*
X137076120Y-73110849D01*
X136966887Y-73660000D01*
X136240686Y-73660000D01*
X136411120Y-73546120D01*
X138482726Y-71474513D01*
X139055688Y-71360543D01*
X139586120Y-71006120D01*
X140017500Y-70574740D01*
X144258880Y-74816120D01*
X144415000Y-74920436D01*
X144415000Y-77470000D01*
X144539457Y-78095687D01*
X144893880Y-78626120D01*
X145424313Y-78980543D01*
X146050000Y-79105000D01*
X146675687Y-78980543D01*
X147206120Y-78626120D01*
X147560543Y-78095687D01*
X147685000Y-77470000D01*
X147685000Y-73660000D01*
X147560543Y-73034313D01*
X147488054Y-72925825D01*
X159920587Y-72925825D01*
X160282916Y-73802729D01*
X160953242Y-74474226D01*
X161829513Y-74838085D01*
X162778325Y-74838913D01*
X163655229Y-74476584D01*
X164326726Y-73806258D01*
X164690585Y-72929987D01*
X164691413Y-71981175D01*
X164329084Y-71104271D01*
X163658758Y-70432774D01*
X162782487Y-70068915D01*
X161833675Y-70068087D01*
X160956771Y-70430416D01*
X160285274Y-71100742D01*
X159921415Y-71977013D01*
X159920587Y-72925825D01*
X147488054Y-72925825D01*
X147206120Y-72503880D01*
X146675687Y-72149457D01*
X146102728Y-72035488D01*
X140221120Y-66153880D01*
X139690688Y-65799457D01*
X139065000Y-65674999D01*
X138439312Y-65799457D01*
X137908880Y-66153880D01*
X137554457Y-66684312D01*
X137429999Y-67310000D01*
X137430000Y-67310005D01*
X137430000Y-68287603D01*
X137287231Y-68316002D01*
X137287242Y-68303339D01*
X137075010Y-67789697D01*
X136682370Y-67396371D01*
X136474488Y-67310051D01*
X136680303Y-67225010D01*
X137073629Y-66832370D01*
X137286757Y-66319100D01*
X137287242Y-65763339D01*
X137075010Y-65249697D01*
X136682370Y-64856371D01*
X136474488Y-64770051D01*
X136680303Y-64685010D01*
X137073629Y-64292370D01*
X137286757Y-63779100D01*
X137287242Y-63223339D01*
X137075010Y-62709697D01*
X136959702Y-62594187D01*
X137629752Y-62594187D01*
X137847757Y-63121800D01*
X138251077Y-63525824D01*
X138778309Y-63744750D01*
X139349187Y-63745248D01*
X139876800Y-63527243D01*
X140280824Y-63123923D01*
X140499750Y-62596691D01*
X140500248Y-62025813D01*
X140282243Y-61498200D01*
X139878923Y-61094176D01*
X139351691Y-60875250D01*
X138780813Y-60874752D01*
X138253200Y-61092757D01*
X137849176Y-61496077D01*
X137630250Y-62023309D01*
X137629752Y-62594187D01*
X136959702Y-62594187D01*
X136682370Y-62316371D01*
X136474488Y-62230051D01*
X136680303Y-62145010D01*
X137073629Y-61752370D01*
X137286757Y-61239100D01*
X137287242Y-60683339D01*
X137075010Y-60169697D01*
X136682370Y-59776371D01*
X136169100Y-59563243D01*
X135613339Y-59562758D01*
X135099697Y-59774990D01*
X134706371Y-60167630D01*
X134620051Y-60375512D01*
X134535010Y-60169697D01*
X134142370Y-59776371D01*
X133629100Y-59563243D01*
X133073339Y-59562758D01*
X132559697Y-59774990D01*
X132166371Y-60167630D01*
X131953243Y-60680900D01*
X131952811Y-61176321D01*
X122599566Y-70529566D01*
X122418561Y-70800459D01*
X122355000Y-71120000D01*
X122355000Y-71195917D01*
X121974176Y-71576077D01*
X121920138Y-71706215D01*
X121867243Y-71578200D01*
X121463923Y-71174176D01*
X120936691Y-70955250D01*
X120365813Y-70954752D01*
X119838200Y-71172757D01*
X119434176Y-71576077D01*
X119380138Y-71706215D01*
X119327243Y-71578200D01*
X118923923Y-71174176D01*
X118396691Y-70955250D01*
X117825813Y-70954752D01*
X117298200Y-71172757D01*
X116894176Y-71576077D01*
X116840138Y-71706215D01*
X116787243Y-71578200D01*
X116383923Y-71174176D01*
X115856691Y-70955250D01*
X115285813Y-70954752D01*
X114758200Y-71172757D01*
X114354176Y-71576077D01*
X114300138Y-71706215D01*
X114247243Y-71578200D01*
X113843923Y-71174176D01*
X113713785Y-71120138D01*
X113841800Y-71067243D01*
X114245824Y-70663923D01*
X114464750Y-70136691D01*
X114465248Y-69565813D01*
X114247243Y-69038200D01*
X113843923Y-68634176D01*
X113713785Y-68580138D01*
X113841800Y-68527243D01*
X114245824Y-68123923D01*
X114464750Y-67596691D01*
X114465248Y-67025813D01*
X114247243Y-66498200D01*
X113843923Y-66094176D01*
X113713785Y-66040138D01*
X113841800Y-65987243D01*
X114245824Y-65583923D01*
X114299862Y-65453785D01*
X114352757Y-65581800D01*
X114756077Y-65985824D01*
X115283309Y-66204750D01*
X115854187Y-66205248D01*
X116381800Y-65987243D01*
X116785824Y-65583923D01*
X116839862Y-65453785D01*
X116892757Y-65581800D01*
X117296077Y-65985824D01*
X117823309Y-66204750D01*
X118394187Y-66205248D01*
X118921800Y-65987243D01*
X119325824Y-65583923D01*
X119379862Y-65453785D01*
X119432757Y-65581800D01*
X119836077Y-65985824D01*
X120363309Y-66204750D01*
X120934187Y-66205248D01*
X121461800Y-65987243D01*
X121865824Y-65583923D01*
X121919862Y-65453785D01*
X121972757Y-65581800D01*
X122376077Y-65985824D01*
X122903309Y-66204750D01*
X123474187Y-66205248D01*
X124001800Y-65987243D01*
X124405824Y-65583923D01*
X124459862Y-65453785D01*
X124512757Y-65581800D01*
X124916077Y-65985824D01*
X125443309Y-66204750D01*
X126014187Y-66205248D01*
X126541800Y-65987243D01*
X126945824Y-65583923D01*
X127164750Y-65056691D01*
X127165248Y-64485813D01*
X126947243Y-63958200D01*
X126543923Y-63554176D01*
X126413785Y-63500138D01*
X126541800Y-63447243D01*
X126945824Y-63043923D01*
X127164750Y-62516691D01*
X127165248Y-61945813D01*
X126947243Y-61418200D01*
X126543923Y-61014176D01*
X126016691Y-60795250D01*
X125445813Y-60794752D01*
X124918200Y-61012757D01*
X124514176Y-61416077D01*
X124460138Y-61546215D01*
X124407243Y-61418200D01*
X124003923Y-61014176D01*
X123476691Y-60795250D01*
X122905813Y-60794752D01*
X122378200Y-61012757D01*
X121974176Y-61416077D01*
X121920138Y-61546215D01*
X121867243Y-61418200D01*
X121463923Y-61014176D01*
X120936691Y-60795250D01*
X120365813Y-60794752D01*
X119838200Y-61012757D01*
X119434176Y-61416077D01*
X119380138Y-61546215D01*
X119327243Y-61418200D01*
X118923923Y-61014176D01*
X118396691Y-60795250D01*
X117825813Y-60794752D01*
X117298200Y-61012757D01*
X116894176Y-61416077D01*
X116840138Y-61546215D01*
X116787243Y-61418200D01*
X116383923Y-61014176D01*
X115856691Y-60795250D01*
X115285813Y-60794752D01*
X114758200Y-61012757D01*
X114354176Y-61416077D01*
X114300138Y-61546215D01*
X114247243Y-61418200D01*
X113843923Y-61014176D01*
X113713785Y-60960138D01*
X113841800Y-60907243D01*
X114245824Y-60503923D01*
X114464750Y-59976691D01*
X114465248Y-59405813D01*
X114247243Y-58878200D01*
X113843923Y-58474176D01*
X113713785Y-58420138D01*
X113841800Y-58367243D01*
X114245824Y-57963923D01*
X114299862Y-57833785D01*
X114352757Y-57961800D01*
X114756077Y-58365824D01*
X115283309Y-58584750D01*
X115854187Y-58585248D01*
X116381800Y-58367243D01*
X116785824Y-57963923D01*
X116839862Y-57833785D01*
X116892757Y-57961800D01*
X117296077Y-58365824D01*
X117823309Y-58584750D01*
X118394187Y-58585248D01*
X118921800Y-58367243D01*
X119325824Y-57963923D01*
X119379862Y-57833785D01*
X119432757Y-57961800D01*
X119836077Y-58365824D01*
X120363309Y-58584750D01*
X120934187Y-58585248D01*
X121461800Y-58367243D01*
X121865824Y-57963923D01*
X121919862Y-57833785D01*
X121972757Y-57961800D01*
X122376077Y-58365824D01*
X122903309Y-58584750D01*
X123474187Y-58585248D01*
X124001800Y-58367243D01*
X124405824Y-57963923D01*
X124459862Y-57833785D01*
X124512757Y-57961800D01*
X124916077Y-58365824D01*
X125443309Y-58584750D01*
X126014187Y-58585248D01*
X126541800Y-58367243D01*
X126945824Y-57963923D01*
X127164750Y-57436691D01*
X127165248Y-56865813D01*
X126947243Y-56338200D01*
X126543923Y-55934176D01*
X126016691Y-55715250D01*
X125445813Y-55714752D01*
X124918200Y-55932757D01*
X124514176Y-56336077D01*
X124460138Y-56466215D01*
X124407243Y-56338200D01*
X124003923Y-55934176D01*
X123476691Y-55715250D01*
X122905813Y-55714752D01*
X122378200Y-55932757D01*
X121974176Y-56336077D01*
X121920138Y-56466215D01*
X121867243Y-56338200D01*
X121463923Y-55934176D01*
X120936691Y-55715250D01*
X120365813Y-55714752D01*
X119838200Y-55932757D01*
X119434176Y-56336077D01*
X119380138Y-56466215D01*
X119327243Y-56338200D01*
X118923923Y-55934176D01*
X118396691Y-55715250D01*
X117825813Y-55714752D01*
X117298200Y-55932757D01*
X116894176Y-56336077D01*
X116840138Y-56466215D01*
X116787243Y-56338200D01*
X116383923Y-55934176D01*
X115856691Y-55715250D01*
X115285813Y-55714752D01*
X114758200Y-55932757D01*
X114354176Y-56336077D01*
X114300138Y-56466215D01*
X114247243Y-56338200D01*
X113843923Y-55934176D01*
X113316691Y-55715250D01*
X112745813Y-55714752D01*
X112218200Y-55932757D01*
X111814176Y-56336077D01*
X111760138Y-56466215D01*
X111707243Y-56338200D01*
X111303923Y-55934176D01*
X110776691Y-55715250D01*
X110205813Y-55714752D01*
X109678200Y-55932757D01*
X109274176Y-56336077D01*
X109220138Y-56466215D01*
X109167243Y-56338200D01*
X108763923Y-55934176D01*
X108236691Y-55715250D01*
X107665813Y-55714752D01*
X107138200Y-55932757D01*
X106734176Y-56336077D01*
X106680138Y-56466215D01*
X106627243Y-56338200D01*
X106223923Y-55934176D01*
X105696691Y-55715250D01*
X105125813Y-55714752D01*
X104598200Y-55932757D01*
X104194176Y-56336077D01*
X104140138Y-56466215D01*
X104087243Y-56338200D01*
X103683923Y-55934176D01*
X103156691Y-55715250D01*
X102585813Y-55714752D01*
X102058200Y-55932757D01*
X101654176Y-56336077D01*
X101600138Y-56466215D01*
X101547243Y-56338200D01*
X101143923Y-55934176D01*
X100616691Y-55715250D01*
X100045813Y-55714752D01*
X99518200Y-55932757D01*
X99114176Y-56336077D01*
X99060138Y-56466215D01*
X99007243Y-56338200D01*
X98603923Y-55934176D01*
X98076691Y-55715250D01*
X97505813Y-55714752D01*
X96978200Y-55932757D01*
X96574176Y-56336077D01*
X96520138Y-56466215D01*
X96467243Y-56338200D01*
X96063923Y-55934176D01*
X95536691Y-55715250D01*
X94965813Y-55714752D01*
X94438200Y-55932757D01*
X94034176Y-56336077D01*
X93980138Y-56466215D01*
X93927243Y-56338200D01*
X93523923Y-55934176D01*
X92996691Y-55715250D01*
X92425813Y-55714752D01*
X91898200Y-55932757D01*
X91494176Y-56336077D01*
X91440138Y-56466215D01*
X91387243Y-56338200D01*
X90983923Y-55934176D01*
X90456691Y-55715250D01*
X89885813Y-55714752D01*
X89358200Y-55932757D01*
X88954176Y-56336077D01*
X88900138Y-56466215D01*
X88847243Y-56338200D01*
X88443923Y-55934176D01*
X87916691Y-55715250D01*
X87345813Y-55714752D01*
X86818200Y-55932757D01*
X86414176Y-56336077D01*
X86360138Y-56466215D01*
X86307243Y-56338200D01*
X85903923Y-55934176D01*
X85376691Y-55715250D01*
X84805813Y-55714752D01*
X84278200Y-55932757D01*
X83874176Y-56336077D01*
X83820138Y-56466215D01*
X83767243Y-56338200D01*
X83363923Y-55934176D01*
X82836691Y-55715250D01*
X82265813Y-55714752D01*
X81738200Y-55932757D01*
X81334176Y-56336077D01*
X81280138Y-56466215D01*
X81227243Y-56338200D01*
X80823923Y-55934176D01*
X80296691Y-55715250D01*
X79725813Y-55714752D01*
X79198200Y-55932757D01*
X78794176Y-56336077D01*
X78740138Y-56466215D01*
X78687243Y-56338200D01*
X78283923Y-55934176D01*
X77756691Y-55715250D01*
X77185813Y-55714752D01*
X76658200Y-55932757D01*
X76254176Y-56336077D01*
X76200138Y-56466215D01*
X76147243Y-56338200D01*
X75743923Y-55934176D01*
X75216691Y-55715250D01*
X74645813Y-55714752D01*
X74118200Y-55932757D01*
X73714176Y-56336077D01*
X73660138Y-56466215D01*
X73607243Y-56338200D01*
X73203923Y-55934176D01*
X72676691Y-55715250D01*
X72105813Y-55714752D01*
X71578200Y-55932757D01*
X71174176Y-56336077D01*
X71120138Y-56466215D01*
X71067243Y-56338200D01*
X70663923Y-55934176D01*
X70136691Y-55715250D01*
X69565813Y-55714752D01*
X69038200Y-55932757D01*
X68634176Y-56336077D01*
X68621928Y-56365574D01*
X67837502Y-57150000D01*
X68621107Y-57933605D01*
X68632757Y-57961800D01*
X69036077Y-58365824D01*
X69166215Y-58419862D01*
X69038200Y-58472757D01*
X68634176Y-58876077D01*
X68415250Y-59403309D01*
X68414752Y-59974187D01*
X68632757Y-60501800D01*
X69036077Y-60905824D01*
X69563309Y-61124750D01*
X70134187Y-61125248D01*
X70661800Y-60907243D01*
X71065824Y-60503923D01*
X71284750Y-59976691D01*
X71285248Y-59405813D01*
X71067243Y-58878200D01*
X70663923Y-58474176D01*
X70533785Y-58420138D01*
X70661800Y-58367243D01*
X71065824Y-57963923D01*
X71119862Y-57833785D01*
X71172757Y-57961800D01*
X71576077Y-58365824D01*
X72103309Y-58584750D01*
X72674187Y-58585248D01*
X73201800Y-58367243D01*
X73605824Y-57963923D01*
X73659862Y-57833785D01*
X73712757Y-57961800D01*
X74116077Y-58365824D01*
X74246215Y-58419862D01*
X74118200Y-58472757D01*
X73714176Y-58876077D01*
X73495250Y-59403309D01*
X73494752Y-59974187D01*
X73712757Y-60501800D01*
X74116077Y-60905824D01*
X74643309Y-61124750D01*
X75214187Y-61125248D01*
X75741800Y-60907243D01*
X76145824Y-60503923D01*
X76199862Y-60373785D01*
X76252757Y-60501800D01*
X76656077Y-60905824D01*
X77183309Y-61124750D01*
X77754187Y-61125248D01*
X78281800Y-60907243D01*
X78685824Y-60503923D01*
X78739862Y-60373785D01*
X78792757Y-60501800D01*
X79196077Y-60905824D01*
X79723309Y-61124750D01*
X80294187Y-61125248D01*
X80821800Y-60907243D01*
X81225824Y-60503923D01*
X81444750Y-59976691D01*
X81445248Y-59405813D01*
X81227243Y-58878200D01*
X80823923Y-58474176D01*
X80693785Y-58420138D01*
X80821800Y-58367243D01*
X81225824Y-57963923D01*
X81279862Y-57833785D01*
X81332757Y-57961800D01*
X81736077Y-58365824D01*
X82263309Y-58584750D01*
X82804354Y-58585222D01*
X84925766Y-60706634D01*
X85057973Y-60794972D01*
X84805813Y-60794752D01*
X84278200Y-61012757D01*
X83874176Y-61416077D01*
X83820138Y-61546215D01*
X83767243Y-61418200D01*
X83363923Y-61014176D01*
X82836691Y-60795250D01*
X82265813Y-60794752D01*
X81738200Y-61012757D01*
X81334176Y-61416077D01*
X81115250Y-61943309D01*
X81114752Y-62514187D01*
X81332757Y-63041800D01*
X81736077Y-63445824D01*
X81866215Y-63499862D01*
X81738200Y-63552757D01*
X81334176Y-63956077D01*
X81115250Y-64483309D01*
X81114752Y-65054187D01*
X81332757Y-65581800D01*
X81736077Y-65985824D01*
X82263309Y-66204750D01*
X82834187Y-66205248D01*
X83361800Y-65987243D01*
X83765824Y-65583923D01*
X83819862Y-65453785D01*
X83872757Y-65581800D01*
X84276077Y-65985824D01*
X84803309Y-66204750D01*
X85374187Y-66205248D01*
X85901800Y-65987243D01*
X86305824Y-65583923D01*
X86359862Y-65453785D01*
X86412757Y-65581800D01*
X86816077Y-65985824D01*
X87343309Y-66204750D01*
X87914187Y-66205248D01*
X88441800Y-65987243D01*
X88845824Y-65583923D01*
X88899862Y-65453785D01*
X88952757Y-65581800D01*
X89356077Y-65985824D01*
X89470426Y-66033306D01*
X86643532Y-68860200D01*
X83511200Y-68860200D01*
X83191659Y-68923761D01*
X83020389Y-69038200D01*
X82920766Y-69104766D01*
X80837628Y-71187904D01*
X80823923Y-71174176D01*
X80296691Y-70955250D01*
X79725813Y-70954752D01*
X79198200Y-71172757D01*
X78794176Y-71576077D01*
X78740138Y-71706215D01*
X78687243Y-71578200D01*
X78283923Y-71174176D01*
X77756691Y-70955250D01*
X77185813Y-70954752D01*
X76658200Y-71172757D01*
X76254176Y-71576077D01*
X76200138Y-71706215D01*
X76147243Y-71578200D01*
X75743923Y-71174176D01*
X75216691Y-70955250D01*
X74645813Y-70954752D01*
X74118200Y-71172757D01*
X73714176Y-71576077D01*
X73660138Y-71706215D01*
X73607243Y-71578200D01*
X73203923Y-71174176D01*
X72676691Y-70955250D01*
X72105813Y-70954752D01*
X71578200Y-71172757D01*
X71174176Y-71576077D01*
X71120138Y-71706215D01*
X71067243Y-71578200D01*
X70663923Y-71174176D01*
X70136691Y-70955250D01*
X69565813Y-70954752D01*
X69038200Y-71172757D01*
X68735742Y-71474688D01*
X68713162Y-71354683D01*
X68574090Y-71138559D01*
X68361890Y-70993569D01*
X68110000Y-70942560D01*
X66510000Y-70942560D01*
X66274683Y-70986838D01*
X66058559Y-71125910D01*
X65913569Y-71338110D01*
X65862560Y-71590000D01*
X65862560Y-73190000D01*
X65906838Y-73425317D01*
X66045910Y-73641441D01*
X66258110Y-73786431D01*
X66510000Y-73837440D01*
X68110000Y-73837440D01*
X68345317Y-73793162D01*
X68561441Y-73654090D01*
X68706431Y-73441890D01*
X68734426Y-73303646D01*
X69036077Y-73605824D01*
X69563309Y-73824750D01*
X70134187Y-73825248D01*
X70661800Y-73607243D01*
X71065824Y-73203923D01*
X71119862Y-73073785D01*
X71172757Y-73201800D01*
X71576077Y-73605824D01*
X72103309Y-73824750D01*
X72314198Y-73824934D01*
X53384566Y-92754566D01*
X53203561Y-93025459D01*
X53140000Y-93345000D01*
X53140000Y-95357118D01*
X52997533Y-95452312D01*
X52852091Y-95214141D01*
X52244491Y-94771246D01*
X52099156Y-94711071D01*
X51808000Y-94917590D01*
X51062000Y-94917590D01*
X50770844Y-94711071D01*
X50625509Y-94771246D01*
X50165000Y-95106923D01*
X49704491Y-94771246D01*
X49559156Y-94711071D01*
X49268000Y-94917590D01*
X48522000Y-94917590D01*
X48390400Y-94824245D01*
X48390400Y-94325768D01*
X52025434Y-90690734D01*
X52053484Y-90648754D01*
X52206439Y-90419841D01*
X52270000Y-90100300D01*
X52270000Y-90062882D01*
X52449698Y-89942811D01*
X52705000Y-89560725D01*
X52960302Y-89942811D01*
X53425849Y-90253880D01*
X53975000Y-90363113D01*
X54524151Y-90253880D01*
X54989698Y-89942811D01*
X55300767Y-89477264D01*
X55410000Y-88928113D01*
X55410000Y-88871887D01*
X55300767Y-88322736D01*
X54989698Y-87857189D01*
X54524151Y-87546120D01*
X53975000Y-87436887D01*
X53425849Y-87546120D01*
X52960302Y-87857189D01*
X52705000Y-88239275D01*
X52449698Y-87857189D01*
X51984151Y-87546120D01*
X51435000Y-87436887D01*
X50885849Y-87546120D01*
X50420302Y-87857189D01*
X50165000Y-88239275D01*
X49909698Y-87857189D01*
X49444151Y-87546120D01*
X48895000Y-87436887D01*
X48368188Y-87541677D01*
X48457086Y-87504854D01*
X48521716Y-87149218D01*
X47625000Y-86252502D01*
X46728284Y-87149218D01*
X46752136Y-87280470D01*
X46728000Y-87297590D01*
X46728000Y-88527000D01*
X46748000Y-88527000D01*
X46748000Y-89273000D01*
X46728000Y-89273000D01*
X46728000Y-90502410D01*
X47019156Y-90708929D01*
X47164491Y-90648754D01*
X47772091Y-90205859D01*
X47917533Y-89967688D01*
X48345849Y-90253880D01*
X48895000Y-90363113D01*
X49444151Y-90253880D01*
X49909698Y-89942811D01*
X50165000Y-89560725D01*
X50416825Y-89937607D01*
X46964966Y-93389466D01*
X46783961Y-93660359D01*
X46720400Y-93979900D01*
X46720400Y-95072560D01*
X45555000Y-95072560D01*
X45319683Y-95116838D01*
X45103559Y-95255910D01*
X44958569Y-95468110D01*
X44907560Y-95720000D01*
X44907560Y-97320000D01*
X44951838Y-97555317D01*
X45090910Y-97771441D01*
X45303110Y-97916431D01*
X45555000Y-97967440D01*
X45950092Y-97967440D01*
X45598705Y-98318827D01*
X45400459Y-98358261D01*
X45129566Y-98539266D01*
X44948561Y-98810159D01*
X44885000Y-99129700D01*
X44885000Y-99176447D01*
X44677189Y-99315302D01*
X44366120Y-99780849D01*
X44256887Y-100330000D01*
X43890000Y-100330000D01*
X43890000Y-89564159D01*
X44546048Y-89564159D01*
X44937909Y-90205859D01*
X45545509Y-90648754D01*
X45690844Y-90708929D01*
X45982000Y-90502410D01*
X45982000Y-89273000D01*
X44746172Y-89273000D01*
X44546048Y-89564159D01*
X43890000Y-89564159D01*
X43890000Y-88235841D01*
X44546048Y-88235841D01*
X44746172Y-88527000D01*
X45982000Y-88527000D01*
X45982000Y-87297590D01*
X45690844Y-87091071D01*
X45545509Y-87151246D01*
X44937909Y-87594141D01*
X44546048Y-88235841D01*
X43890000Y-88235841D01*
X43890000Y-85637373D01*
X45662204Y-85637373D01*
X45778080Y-86395173D01*
X45845146Y-86557086D01*
X46200782Y-86621716D01*
X47097498Y-85725000D01*
X48152502Y-85725000D01*
X49049218Y-86621716D01*
X49404854Y-86557086D01*
X49539493Y-86009187D01*
X51189752Y-86009187D01*
X51407757Y-86536800D01*
X51811077Y-86940824D01*
X52338309Y-87159750D01*
X52909187Y-87160248D01*
X53436800Y-86942243D01*
X53840824Y-86538923D01*
X54059750Y-86011691D01*
X54060248Y-85440813D01*
X53842243Y-84913200D01*
X53438923Y-84509176D01*
X52911691Y-84290250D01*
X52340813Y-84289752D01*
X51813200Y-84507757D01*
X51409176Y-84911077D01*
X51190250Y-85438309D01*
X51189752Y-86009187D01*
X49539493Y-86009187D01*
X49587796Y-85812627D01*
X49471920Y-85054827D01*
X49404854Y-84892914D01*
X49049218Y-84828284D01*
X48152502Y-85725000D01*
X47097498Y-85725000D01*
X46200782Y-84828284D01*
X45845146Y-84892914D01*
X45662204Y-85637373D01*
X43890000Y-85637373D01*
X43890000Y-84300782D01*
X46728284Y-84300782D01*
X47625000Y-85197498D01*
X48521716Y-84300782D01*
X48457086Y-83945146D01*
X47712627Y-83762204D01*
X46954827Y-83878080D01*
X46792914Y-83945146D01*
X46728284Y-84300782D01*
X43890000Y-84300782D01*
X43890000Y-72925825D01*
X58574587Y-72925825D01*
X58936916Y-73802729D01*
X59607242Y-74474226D01*
X60483513Y-74838085D01*
X61432325Y-74838913D01*
X62309229Y-74476584D01*
X62980726Y-73806258D01*
X63344585Y-72929987D01*
X63345413Y-71981175D01*
X62983084Y-71104271D01*
X62312758Y-70432774D01*
X61436487Y-70068915D01*
X60487675Y-70068087D01*
X59610771Y-70430416D01*
X58939274Y-71100742D01*
X58575415Y-71977013D01*
X58574587Y-72925825D01*
X43890000Y-72925825D01*
X43890000Y-58574218D01*
X66413284Y-58574218D01*
X66477914Y-58929854D01*
X67222373Y-59112796D01*
X67980173Y-58996920D01*
X68142086Y-58929854D01*
X68206716Y-58574218D01*
X67310000Y-57677502D01*
X66413284Y-58574218D01*
X43890000Y-58574218D01*
X43890000Y-58489931D01*
X44173958Y-57062373D01*
X65347204Y-57062373D01*
X65463080Y-57820173D01*
X65530146Y-57982086D01*
X65885782Y-58046716D01*
X66782498Y-57150000D01*
X65885782Y-56253284D01*
X65530146Y-56317914D01*
X65347204Y-57062373D01*
X44173958Y-57062373D01*
X44235498Y-56752995D01*
X44921859Y-55725782D01*
X66413284Y-55725782D01*
X67310000Y-56622498D01*
X68206716Y-55725782D01*
X68142086Y-55370146D01*
X67397627Y-55187204D01*
X66639827Y-55303080D01*
X66477914Y-55370146D01*
X66413284Y-55725782D01*
X44921859Y-55725782D01*
X45179779Y-55339779D01*
X46592997Y-54395498D01*
X48329931Y-54050000D01*
X172650069Y-54050000D01*
X174387005Y-54395498D01*
M02*
