G04 #@! TF.FileFunction,Soldermask,Bot*
%FSLAX46Y46*%
G04 Gerber Fmt 4.6, Leading zero omitted, Abs format (unit mm)*
G04 Created by KiCad (PCBNEW 4.0.5) date Sun Apr  9 10:36:56 2017*
%MOMM*%
%LPD*%
G01*
G04 APERTURE LIST*
%ADD10C,0.100000*%
%ADD11C,7.400000*%
%ADD12C,4.050000*%
%ADD13R,1.900000X1.900000*%
%ADD14C,1.900000*%
%ADD15C,2.000000*%
%ADD16R,2.000000X2.000000*%
%ADD17O,2.000000X2.000000*%
%ADD18R,1.700000X1.700000*%
%ADD19C,1.700000*%
%ADD20C,2.398980*%
%ADD21C,1.924000*%
G04 APERTURE END LIST*
D10*
D11*
X175000000Y-120000000D03*
X175000000Y-70000000D03*
D12*
X104620000Y-56150000D03*
X116490000Y-56150000D03*
D13*
X115000000Y-62500000D03*
D14*
X113730000Y-65040000D03*
X112460000Y-62500000D03*
X111190000Y-65040000D03*
X109920000Y-62500000D03*
X108650000Y-65040000D03*
X107380000Y-62500000D03*
X106110000Y-65040000D03*
D12*
X116380000Y-133850000D03*
X104510000Y-133850000D03*
D13*
X106000000Y-127500000D03*
D14*
X107270000Y-124960000D03*
X108540000Y-127500000D03*
X109810000Y-124960000D03*
X111080000Y-127500000D03*
X112350000Y-124960000D03*
X113620000Y-127500000D03*
X114890000Y-124960000D03*
D12*
X133380000Y-133850000D03*
X121510000Y-133850000D03*
D13*
X123000000Y-127500000D03*
D14*
X124270000Y-124960000D03*
X125540000Y-127500000D03*
X126810000Y-124960000D03*
X128080000Y-127500000D03*
X129350000Y-124960000D03*
X130620000Y-127500000D03*
X131890000Y-124960000D03*
D12*
X150380000Y-133850000D03*
X138510000Y-133850000D03*
D13*
X140000000Y-127500000D03*
D14*
X141270000Y-124960000D03*
X142540000Y-127500000D03*
X143810000Y-124960000D03*
X145080000Y-127500000D03*
X146350000Y-124960000D03*
X147620000Y-127500000D03*
X148890000Y-124960000D03*
D12*
X167380000Y-133850000D03*
X155510000Y-133850000D03*
D13*
X157000000Y-127500000D03*
D14*
X158270000Y-124960000D03*
X159540000Y-127500000D03*
X160810000Y-124960000D03*
X162080000Y-127500000D03*
X163350000Y-124960000D03*
X164620000Y-127500000D03*
X165890000Y-124960000D03*
D12*
X155620000Y-56150000D03*
X167490000Y-56150000D03*
D13*
X166000000Y-62500000D03*
D14*
X164730000Y-65040000D03*
X163460000Y-62500000D03*
X162190000Y-65040000D03*
X160920000Y-62500000D03*
X159650000Y-65040000D03*
X158380000Y-62500000D03*
X157110000Y-65040000D03*
D12*
X138620000Y-56150000D03*
X150490000Y-56150000D03*
D13*
X149000000Y-62500000D03*
D14*
X147730000Y-65040000D03*
X146460000Y-62500000D03*
X145190000Y-65040000D03*
X143920000Y-62500000D03*
X142650000Y-65040000D03*
X141380000Y-62500000D03*
X140110000Y-65040000D03*
D12*
X121620000Y-56150000D03*
X133490000Y-56150000D03*
D13*
X132000000Y-62500000D03*
D14*
X130730000Y-65040000D03*
X129460000Y-62500000D03*
X128190000Y-65040000D03*
X126920000Y-62500000D03*
X125650000Y-65040000D03*
X124380000Y-62500000D03*
X123110000Y-65040000D03*
D15*
X141430000Y-102620000D03*
X143970000Y-102620000D03*
X146510000Y-102620000D03*
X149050000Y-102620000D03*
X138890000Y-102620000D03*
X136350000Y-102620000D03*
X133810000Y-102620000D03*
X151590000Y-102620000D03*
X154130000Y-102620000D03*
X156670000Y-102620000D03*
X159210000Y-102620000D03*
X146510000Y-100080000D03*
X146510000Y-97540000D03*
X146510000Y-95000000D03*
X146510000Y-92460000D03*
X146510000Y-89920000D03*
X159210000Y-87380000D03*
X156670000Y-87380000D03*
X154130000Y-87380000D03*
X151590000Y-87380000D03*
X149050000Y-87380000D03*
X146510000Y-87380000D03*
X143970000Y-87380000D03*
X141430000Y-87380000D03*
X131270000Y-102620000D03*
X128730000Y-102620000D03*
X126190000Y-102620000D03*
X123650000Y-102620000D03*
X121110000Y-102620000D03*
X118570000Y-102620000D03*
X116030000Y-102620000D03*
X113490000Y-102620000D03*
X110950000Y-102620000D03*
X108410000Y-102620000D03*
X105870000Y-102620000D03*
X103330000Y-102620000D03*
D16*
X100790000Y-102620000D03*
D15*
X138890000Y-87380000D03*
X136350000Y-87380000D03*
X133810000Y-87380000D03*
X131270000Y-87380000D03*
X128730000Y-87380000D03*
X126190000Y-87380000D03*
X123650000Y-87380000D03*
X121110000Y-87380000D03*
X118570000Y-87380000D03*
X116030000Y-87380000D03*
X113490000Y-87380000D03*
X110950000Y-87380000D03*
X108410000Y-87380000D03*
X105870000Y-87380000D03*
X103330000Y-87380000D03*
X100790000Y-87380000D03*
X103330000Y-89920000D03*
X108410000Y-89920000D03*
X110950000Y-89920000D03*
X113490000Y-89920000D03*
X116030000Y-95000000D03*
X118570000Y-95000000D03*
X121110000Y-95000000D03*
X123650000Y-95000000D03*
X138890000Y-95000000D03*
X141430000Y-95000000D03*
X143970000Y-95000000D03*
X149050000Y-95000000D03*
X151590000Y-95000000D03*
X154130000Y-95000000D03*
X156670000Y-95000000D03*
X159210000Y-95000000D03*
X159210000Y-92460000D03*
X156670000Y-92460000D03*
X154130000Y-92460000D03*
X151590000Y-92460000D03*
X149050000Y-92460000D03*
X143970000Y-92460000D03*
X141430000Y-92460000D03*
X138890000Y-92460000D03*
X123650000Y-92460000D03*
X121110000Y-92460000D03*
X118570000Y-92460000D03*
X116030000Y-92460000D03*
D16*
X115000000Y-107500000D03*
D17*
X107380000Y-115120000D03*
X112460000Y-107500000D03*
X109920000Y-115120000D03*
X109920000Y-107500000D03*
X112460000Y-115120000D03*
X107380000Y-107500000D03*
X115000000Y-115120000D03*
D16*
X132500000Y-108000000D03*
D17*
X124880000Y-115620000D03*
X129960000Y-108000000D03*
X127420000Y-115620000D03*
X127420000Y-108000000D03*
X129960000Y-115620000D03*
X124880000Y-108000000D03*
X132500000Y-115620000D03*
D16*
X150500000Y-107500000D03*
D17*
X142880000Y-115120000D03*
X147960000Y-107500000D03*
X145420000Y-115120000D03*
X145420000Y-107500000D03*
X147960000Y-115120000D03*
X142880000Y-107500000D03*
X150500000Y-115120000D03*
D16*
X167500000Y-107000000D03*
D17*
X159880000Y-114620000D03*
X164960000Y-107000000D03*
X162420000Y-114620000D03*
X162420000Y-107000000D03*
X164960000Y-114620000D03*
X159880000Y-107000000D03*
X167500000Y-114620000D03*
D16*
X155500000Y-82500000D03*
D17*
X163120000Y-74880000D03*
X158040000Y-82500000D03*
X160580000Y-74880000D03*
X160580000Y-82500000D03*
X158040000Y-74880000D03*
X163120000Y-82500000D03*
X155500000Y-74880000D03*
D16*
X139500000Y-82500000D03*
D17*
X147120000Y-74880000D03*
X142040000Y-82500000D03*
X144580000Y-74880000D03*
X144580000Y-82500000D03*
X142040000Y-74880000D03*
X147120000Y-82500000D03*
X139500000Y-74880000D03*
D16*
X122500000Y-82500000D03*
D17*
X130120000Y-74880000D03*
X125040000Y-82500000D03*
X127580000Y-74880000D03*
X127580000Y-82500000D03*
X125040000Y-74880000D03*
X130120000Y-82500000D03*
X122500000Y-74880000D03*
D16*
X107500000Y-82500000D03*
D17*
X115120000Y-74880000D03*
X110040000Y-82500000D03*
X112580000Y-74880000D03*
X112580000Y-82500000D03*
X110040000Y-74880000D03*
X115120000Y-82500000D03*
X107500000Y-74880000D03*
D18*
X104250000Y-110000000D03*
D19*
X104250000Y-112500000D03*
D18*
X133500000Y-80000000D03*
D19*
X133500000Y-77500000D03*
D18*
X150500000Y-80000000D03*
D19*
X150500000Y-77500000D03*
D18*
X118250000Y-79750000D03*
D19*
X118250000Y-77250000D03*
D18*
X156500000Y-110000000D03*
D19*
X156500000Y-112500000D03*
D18*
X139500000Y-110500000D03*
D19*
X139500000Y-113000000D03*
D18*
X121500000Y-110000000D03*
D19*
X121500000Y-112500000D03*
D18*
X166500000Y-80000000D03*
D19*
X166500000Y-77500000D03*
D20*
X106000000Y-120500000D03*
X113620000Y-120500000D03*
X121500000Y-120500000D03*
X129120000Y-120500000D03*
X139500000Y-120500000D03*
X147120000Y-120500000D03*
X156500000Y-120500000D03*
X164120000Y-120500000D03*
X163000000Y-69500000D03*
X155380000Y-69500000D03*
X147000000Y-69500000D03*
X139380000Y-69500000D03*
X130000000Y-69500000D03*
X122380000Y-69500000D03*
X116000000Y-69500000D03*
X108380000Y-69500000D03*
D11*
X100000000Y-70000000D03*
X100000000Y-120000000D03*
D21*
X174500000Y-94000000D03*
X179500000Y-94000000D03*
X174500000Y-97000000D03*
X179500000Y-97000000D03*
M02*
