G04 #@! TF.FileFunction,Soldermask,Top*
%FSLAX46Y46*%
G04 Gerber Fmt 4.6, Leading zero omitted, Abs format (unit mm)*
G04 Created by KiCad (PCBNEW 4.0.6) date Sun May 21 15:35:52 2017*
%MOMM*%
%LPD*%
G01*
G04 APERTURE LIST*
%ADD10C,0.100000*%
%ADD11C,4.050000*%
%ADD12R,1.900000X1.900000*%
%ADD13C,1.900000*%
%ADD14C,2.000000*%
%ADD15O,2.000000X2.000000*%
%ADD16R,2.000000X2.000000*%
%ADD17C,1.924000*%
%ADD18C,3.900000*%
G04 APERTURE END LIST*
D10*
D11*
X174210000Y-113030000D03*
X162340000Y-113030000D03*
D12*
X163830000Y-106680000D03*
D13*
X165100000Y-104140000D03*
X166370000Y-106680000D03*
X167640000Y-104140000D03*
X168910000Y-106680000D03*
X170180000Y-104140000D03*
X171450000Y-106680000D03*
X172720000Y-104140000D03*
D11*
X58640000Y-113030000D03*
X46770000Y-113030000D03*
D12*
X48260000Y-106680000D03*
D13*
X49530000Y-104140000D03*
X50800000Y-106680000D03*
X52070000Y-104140000D03*
X53340000Y-106680000D03*
X54610000Y-104140000D03*
X55880000Y-106680000D03*
X57150000Y-104140000D03*
D11*
X75150000Y-113030000D03*
X63280000Y-113030000D03*
D12*
X64770000Y-106680000D03*
D13*
X66040000Y-104140000D03*
X67310000Y-106680000D03*
X68580000Y-104140000D03*
X69850000Y-106680000D03*
X71120000Y-104140000D03*
X72390000Y-106680000D03*
X73660000Y-104140000D03*
D11*
X91660000Y-113030000D03*
X79790000Y-113030000D03*
D12*
X81280000Y-106680000D03*
D13*
X82550000Y-104140000D03*
X83820000Y-106680000D03*
X85090000Y-104140000D03*
X86360000Y-106680000D03*
X87630000Y-104140000D03*
X88900000Y-106680000D03*
X90170000Y-104140000D03*
D11*
X108170000Y-113030000D03*
X96300000Y-113030000D03*
D12*
X97790000Y-106680000D03*
D13*
X99060000Y-104140000D03*
X100330000Y-106680000D03*
X101600000Y-104140000D03*
X102870000Y-106680000D03*
X104140000Y-104140000D03*
X105410000Y-106680000D03*
X106680000Y-104140000D03*
D11*
X124680000Y-113030000D03*
X112810000Y-113030000D03*
D12*
X114300000Y-106680000D03*
D13*
X115570000Y-104140000D03*
X116840000Y-106680000D03*
X118110000Y-104140000D03*
X119380000Y-106680000D03*
X120650000Y-104140000D03*
X121920000Y-106680000D03*
X123190000Y-104140000D03*
D11*
X141190000Y-113030000D03*
X129320000Y-113030000D03*
D12*
X130810000Y-106680000D03*
D13*
X132080000Y-104140000D03*
X133350000Y-106680000D03*
X134620000Y-104140000D03*
X135890000Y-106680000D03*
X137160000Y-104140000D03*
X138430000Y-106680000D03*
X139700000Y-104140000D03*
D11*
X157700000Y-113030000D03*
X145830000Y-113030000D03*
D12*
X147320000Y-106680000D03*
D13*
X148590000Y-104140000D03*
X149860000Y-106680000D03*
X151130000Y-104140000D03*
X152400000Y-106680000D03*
X153670000Y-104140000D03*
X154940000Y-106680000D03*
X156210000Y-104140000D03*
D14*
X66675000Y-100330000D03*
D15*
X74295000Y-100330000D03*
D14*
X83185000Y-100330000D03*
D15*
X90805000Y-100330000D03*
D14*
X99695000Y-100330000D03*
D15*
X107315000Y-100330000D03*
D14*
X116205000Y-100330000D03*
D15*
X123825000Y-100330000D03*
D14*
X132715000Y-100330000D03*
D15*
X140335000Y-100330000D03*
D14*
X147320000Y-100330000D03*
D15*
X154940000Y-100330000D03*
D14*
X167640000Y-98425000D03*
D15*
X175260000Y-98425000D03*
D14*
X53340000Y-100330000D03*
D15*
X45720000Y-100330000D03*
D14*
X146050000Y-77470000D03*
D15*
X138430000Y-77470000D03*
D14*
X146050000Y-73660000D03*
D15*
X138430000Y-73660000D03*
D16*
X46355000Y-96520000D03*
D15*
X53975000Y-88900000D03*
X48895000Y-96520000D03*
X51435000Y-88900000D03*
X51435000Y-96520000D03*
X48895000Y-88900000D03*
X53975000Y-96520000D03*
X46355000Y-88900000D03*
D16*
X66675000Y-96520000D03*
D15*
X74295000Y-88900000D03*
X69215000Y-96520000D03*
X71755000Y-88900000D03*
X71755000Y-96520000D03*
X69215000Y-88900000D03*
X74295000Y-96520000D03*
X66675000Y-88900000D03*
D16*
X83185000Y-96520000D03*
D15*
X90805000Y-88900000D03*
X85725000Y-96520000D03*
X88265000Y-88900000D03*
X88265000Y-96520000D03*
X85725000Y-88900000D03*
X90805000Y-96520000D03*
X83185000Y-88900000D03*
D16*
X99695000Y-96520000D03*
D15*
X107315000Y-88900000D03*
X102235000Y-96520000D03*
X104775000Y-88900000D03*
X104775000Y-96520000D03*
X102235000Y-88900000D03*
X107315000Y-96520000D03*
X99695000Y-88900000D03*
D16*
X116205000Y-96520000D03*
D15*
X123825000Y-88900000D03*
X118745000Y-96520000D03*
X121285000Y-88900000D03*
X121285000Y-96520000D03*
X118745000Y-88900000D03*
X123825000Y-96520000D03*
X116205000Y-88900000D03*
D16*
X132715000Y-96520000D03*
D15*
X140335000Y-88900000D03*
X135255000Y-96520000D03*
X137795000Y-88900000D03*
X137795000Y-96520000D03*
X135255000Y-88900000D03*
X140335000Y-96520000D03*
X132715000Y-88900000D03*
D16*
X147320000Y-96520000D03*
D15*
X154940000Y-88900000D03*
X149860000Y-96520000D03*
X152400000Y-88900000D03*
X152400000Y-96520000D03*
X149860000Y-88900000D03*
X154940000Y-96520000D03*
X147320000Y-88900000D03*
D16*
X167640000Y-95250000D03*
D15*
X175260000Y-87630000D03*
X170180000Y-95250000D03*
X172720000Y-87630000D03*
X172720000Y-95250000D03*
X170180000Y-87630000D03*
X175260000Y-95250000D03*
X167640000Y-87630000D03*
D14*
X107950000Y-72390000D03*
X110490000Y-72390000D03*
X113030000Y-72390000D03*
X115570000Y-72390000D03*
X105410000Y-72390000D03*
X102870000Y-72390000D03*
X100330000Y-72390000D03*
X118110000Y-72390000D03*
X120650000Y-72390000D03*
X123190000Y-72390000D03*
X125730000Y-72390000D03*
X113030000Y-69850000D03*
X113030000Y-67310000D03*
X113030000Y-64770000D03*
X113030000Y-62230000D03*
X113030000Y-59690000D03*
X125730000Y-57150000D03*
X123190000Y-57150000D03*
X120650000Y-57150000D03*
X118110000Y-57150000D03*
X115570000Y-57150000D03*
X113030000Y-57150000D03*
X110490000Y-57150000D03*
X107950000Y-57150000D03*
X97790000Y-72390000D03*
X95250000Y-72390000D03*
X92710000Y-72390000D03*
X90170000Y-72390000D03*
X87630000Y-72390000D03*
X85090000Y-72390000D03*
X82550000Y-72390000D03*
X80010000Y-72390000D03*
X77470000Y-72390000D03*
X74930000Y-72390000D03*
X72390000Y-72390000D03*
X69850000Y-72390000D03*
D16*
X67310000Y-72390000D03*
D14*
X105410000Y-57150000D03*
X102870000Y-57150000D03*
X100330000Y-57150000D03*
X97790000Y-57150000D03*
X95250000Y-57150000D03*
X92710000Y-57150000D03*
X90170000Y-57150000D03*
X87630000Y-57150000D03*
X85090000Y-57150000D03*
X82550000Y-57150000D03*
X80010000Y-57150000D03*
X77470000Y-57150000D03*
X74930000Y-57150000D03*
X72390000Y-57150000D03*
X69850000Y-57150000D03*
X67310000Y-57150000D03*
X69850000Y-59690000D03*
X74930000Y-59690000D03*
X77470000Y-59690000D03*
X80010000Y-59690000D03*
X82550000Y-64770000D03*
X85090000Y-64770000D03*
X87630000Y-64770000D03*
X90170000Y-64770000D03*
X105410000Y-64770000D03*
X107950000Y-64770000D03*
X110490000Y-64770000D03*
X115570000Y-64770000D03*
X118110000Y-64770000D03*
X120650000Y-64770000D03*
X123190000Y-64770000D03*
X125730000Y-64770000D03*
X125730000Y-62230000D03*
X123190000Y-62230000D03*
X120650000Y-62230000D03*
X118110000Y-62230000D03*
X115570000Y-62230000D03*
X110490000Y-62230000D03*
X107950000Y-62230000D03*
X105410000Y-62230000D03*
X90170000Y-62230000D03*
X87630000Y-62230000D03*
X85090000Y-62230000D03*
X82550000Y-62230000D03*
D17*
X135890000Y-60960000D03*
X133350000Y-60960000D03*
X135890000Y-63500000D03*
X133350000Y-63500000D03*
X135890000Y-66040000D03*
X133350000Y-66040000D03*
X135890000Y-68580000D03*
X133350000Y-68580000D03*
D18*
X60960000Y-97790000D03*
X162306000Y-97790000D03*
X60960000Y-72453500D03*
X162306000Y-72453500D03*
D14*
X47000000Y-86000000D03*
D15*
X54500000Y-86000000D03*
D14*
X67000000Y-86000000D03*
D15*
X74500000Y-86000000D03*
D14*
X83000000Y-86000000D03*
D15*
X90500000Y-86000000D03*
D14*
X100000000Y-86000000D03*
D15*
X107500000Y-86000000D03*
D14*
X116000000Y-86000000D03*
D15*
X123500000Y-86000000D03*
D14*
X133000000Y-86000000D03*
D15*
X140500000Y-86000000D03*
D14*
X147000000Y-86000000D03*
D15*
X154500000Y-86000000D03*
D14*
X168000000Y-84500000D03*
D15*
X175500000Y-84500000D03*
D14*
X139000000Y-68500000D03*
D15*
X139000000Y-61000000D03*
M02*
