G04 #@! TF.FileFunction,Copper,L2,Bot,Signal*
%FSLAX46Y46*%
G04 Gerber Fmt 4.6, Leading zero omitted, Abs format (unit mm)*
G04 Created by KiCad (PCBNEW 4.0.5) date Sun Apr  9 14:12:13 2017*
%MOMM*%
%LPD*%
G01*
G04 APERTURE LIST*
%ADD10C,0.100000*%
%ADD11C,7.000000*%
%ADD12C,3.650000*%
%ADD13R,1.500000X1.500000*%
%ADD14C,1.500000*%
%ADD15C,1.600000*%
%ADD16R,1.600000X1.600000*%
%ADD17O,1.600000X1.600000*%
%ADD18R,1.300000X1.300000*%
%ADD19C,1.300000*%
%ADD20C,1.998980*%
%ADD21C,1.524000*%
%ADD22C,0.250000*%
%ADD23C,0.254000*%
G04 APERTURE END LIST*
D10*
D11*
X175000000Y-120000000D03*
X175000000Y-70000000D03*
D12*
X104620000Y-56150000D03*
X116490000Y-56150000D03*
D13*
X115000000Y-62500000D03*
D14*
X113730000Y-65040000D03*
X112460000Y-62500000D03*
X111190000Y-65040000D03*
X109920000Y-62500000D03*
X108650000Y-65040000D03*
X107380000Y-62500000D03*
X106110000Y-65040000D03*
D12*
X116380000Y-133850000D03*
X104510000Y-133850000D03*
D13*
X106000000Y-127500000D03*
D14*
X107270000Y-124960000D03*
X108540000Y-127500000D03*
X109810000Y-124960000D03*
X111080000Y-127500000D03*
X112350000Y-124960000D03*
X113620000Y-127500000D03*
X114890000Y-124960000D03*
D12*
X133380000Y-133850000D03*
X121510000Y-133850000D03*
D13*
X123000000Y-127500000D03*
D14*
X124270000Y-124960000D03*
X125540000Y-127500000D03*
X126810000Y-124960000D03*
X128080000Y-127500000D03*
X129350000Y-124960000D03*
X130620000Y-127500000D03*
X131890000Y-124960000D03*
D12*
X150380000Y-133850000D03*
X138510000Y-133850000D03*
D13*
X140000000Y-127500000D03*
D14*
X141270000Y-124960000D03*
X142540000Y-127500000D03*
X143810000Y-124960000D03*
X145080000Y-127500000D03*
X146350000Y-124960000D03*
X147620000Y-127500000D03*
X148890000Y-124960000D03*
D12*
X167380000Y-133850000D03*
X155510000Y-133850000D03*
D13*
X157000000Y-127500000D03*
D14*
X158270000Y-124960000D03*
X159540000Y-127500000D03*
X160810000Y-124960000D03*
X162080000Y-127500000D03*
X163350000Y-124960000D03*
X164620000Y-127500000D03*
X165890000Y-124960000D03*
D12*
X155620000Y-56150000D03*
X167490000Y-56150000D03*
D13*
X166000000Y-62500000D03*
D14*
X164730000Y-65040000D03*
X163460000Y-62500000D03*
X162190000Y-65040000D03*
X160920000Y-62500000D03*
X159650000Y-65040000D03*
X158380000Y-62500000D03*
X157110000Y-65040000D03*
D12*
X138620000Y-56150000D03*
X150490000Y-56150000D03*
D13*
X149000000Y-62500000D03*
D14*
X147730000Y-65040000D03*
X146460000Y-62500000D03*
X145190000Y-65040000D03*
X143920000Y-62500000D03*
X142650000Y-65040000D03*
X141380000Y-62500000D03*
X140110000Y-65040000D03*
D12*
X121620000Y-56150000D03*
X133490000Y-56150000D03*
D13*
X132000000Y-62500000D03*
D14*
X130730000Y-65040000D03*
X129460000Y-62500000D03*
X128190000Y-65040000D03*
X126920000Y-62500000D03*
X125650000Y-65040000D03*
X124380000Y-62500000D03*
X123110000Y-65040000D03*
D15*
X141430000Y-102620000D03*
X143970000Y-102620000D03*
X146510000Y-102620000D03*
X149050000Y-102620000D03*
X138890000Y-102620000D03*
X136350000Y-102620000D03*
X133810000Y-102620000D03*
X151590000Y-102620000D03*
X154130000Y-102620000D03*
X156670000Y-102620000D03*
X159210000Y-102620000D03*
X146510000Y-100080000D03*
X146510000Y-97540000D03*
X146510000Y-95000000D03*
X146510000Y-92460000D03*
X146510000Y-89920000D03*
X159210000Y-87380000D03*
X156670000Y-87380000D03*
X154130000Y-87380000D03*
X151590000Y-87380000D03*
X149050000Y-87380000D03*
X146510000Y-87380000D03*
X143970000Y-87380000D03*
X141430000Y-87380000D03*
X131270000Y-102620000D03*
X128730000Y-102620000D03*
X126190000Y-102620000D03*
X123650000Y-102620000D03*
X121110000Y-102620000D03*
X118570000Y-102620000D03*
X116030000Y-102620000D03*
X113490000Y-102620000D03*
X110950000Y-102620000D03*
X108410000Y-102620000D03*
X105870000Y-102620000D03*
X103330000Y-102620000D03*
D16*
X100790000Y-102620000D03*
D15*
X138890000Y-87380000D03*
X136350000Y-87380000D03*
X133810000Y-87380000D03*
X131270000Y-87380000D03*
X128730000Y-87380000D03*
X126190000Y-87380000D03*
X123650000Y-87380000D03*
X121110000Y-87380000D03*
X118570000Y-87380000D03*
X116030000Y-87380000D03*
X113490000Y-87380000D03*
X110950000Y-87380000D03*
X108410000Y-87380000D03*
X105870000Y-87380000D03*
X103330000Y-87380000D03*
X100790000Y-87380000D03*
X103330000Y-89920000D03*
X108410000Y-89920000D03*
X110950000Y-89920000D03*
X113490000Y-89920000D03*
X116030000Y-95000000D03*
X118570000Y-95000000D03*
X121110000Y-95000000D03*
X123650000Y-95000000D03*
X138890000Y-95000000D03*
X141430000Y-95000000D03*
X143970000Y-95000000D03*
X149050000Y-95000000D03*
X151590000Y-95000000D03*
X154130000Y-95000000D03*
X156670000Y-95000000D03*
X159210000Y-95000000D03*
X159210000Y-92460000D03*
X156670000Y-92460000D03*
X154130000Y-92460000D03*
X151590000Y-92460000D03*
X149050000Y-92460000D03*
X143970000Y-92460000D03*
X141430000Y-92460000D03*
X138890000Y-92460000D03*
X123650000Y-92460000D03*
X121110000Y-92460000D03*
X118570000Y-92460000D03*
X116030000Y-92460000D03*
D16*
X115000000Y-107500000D03*
D17*
X107380000Y-115120000D03*
X112460000Y-107500000D03*
X109920000Y-115120000D03*
X109920000Y-107500000D03*
X112460000Y-115120000D03*
X107380000Y-107500000D03*
X115000000Y-115120000D03*
D16*
X132500000Y-108000000D03*
D17*
X124880000Y-115620000D03*
X129960000Y-108000000D03*
X127420000Y-115620000D03*
X127420000Y-108000000D03*
X129960000Y-115620000D03*
X124880000Y-108000000D03*
X132500000Y-115620000D03*
D16*
X150500000Y-107500000D03*
D17*
X142880000Y-115120000D03*
X147960000Y-107500000D03*
X145420000Y-115120000D03*
X145420000Y-107500000D03*
X147960000Y-115120000D03*
X142880000Y-107500000D03*
X150500000Y-115120000D03*
D16*
X167500000Y-107000000D03*
D17*
X159880000Y-114620000D03*
X164960000Y-107000000D03*
X162420000Y-114620000D03*
X162420000Y-107000000D03*
X164960000Y-114620000D03*
X159880000Y-107000000D03*
X167500000Y-114620000D03*
D16*
X155500000Y-82500000D03*
D17*
X163120000Y-74880000D03*
X158040000Y-82500000D03*
X160580000Y-74880000D03*
X160580000Y-82500000D03*
X158040000Y-74880000D03*
X163120000Y-82500000D03*
X155500000Y-74880000D03*
D16*
X139500000Y-82500000D03*
D17*
X147120000Y-74880000D03*
X142040000Y-82500000D03*
X144580000Y-74880000D03*
X144580000Y-82500000D03*
X142040000Y-74880000D03*
X147120000Y-82500000D03*
X139500000Y-74880000D03*
D16*
X122500000Y-82500000D03*
D17*
X130120000Y-74880000D03*
X125040000Y-82500000D03*
X127580000Y-74880000D03*
X127580000Y-82500000D03*
X125040000Y-74880000D03*
X130120000Y-82500000D03*
X122500000Y-74880000D03*
D16*
X107500000Y-82500000D03*
D17*
X115120000Y-74880000D03*
X110040000Y-82500000D03*
X112580000Y-74880000D03*
X112580000Y-82500000D03*
X110040000Y-74880000D03*
X115120000Y-82500000D03*
X107500000Y-74880000D03*
D18*
X104250000Y-110000000D03*
D19*
X104250000Y-112500000D03*
D18*
X133500000Y-80000000D03*
D19*
X133500000Y-77500000D03*
D18*
X150500000Y-80000000D03*
D19*
X150500000Y-77500000D03*
D18*
X118250000Y-79750000D03*
D19*
X118250000Y-77250000D03*
D18*
X156500000Y-110000000D03*
D19*
X156500000Y-112500000D03*
D18*
X139500000Y-110500000D03*
D19*
X139500000Y-113000000D03*
D18*
X121500000Y-110000000D03*
D19*
X121500000Y-112500000D03*
D18*
X166500000Y-80000000D03*
D19*
X166500000Y-77500000D03*
D20*
X106000000Y-120500000D03*
X113620000Y-120500000D03*
X121500000Y-120500000D03*
X129120000Y-120500000D03*
X139500000Y-120500000D03*
X147120000Y-120500000D03*
X156500000Y-120500000D03*
X164120000Y-120500000D03*
X163000000Y-69500000D03*
X155380000Y-69500000D03*
X147000000Y-69500000D03*
X139380000Y-69500000D03*
X130000000Y-69500000D03*
X122380000Y-69500000D03*
X116000000Y-69500000D03*
X108380000Y-69500000D03*
D11*
X100000000Y-70000000D03*
X100000000Y-120000000D03*
D21*
X174500000Y-94000000D03*
X179500000Y-94000000D03*
X174500000Y-97000000D03*
X179500000Y-97000000D03*
D22*
X121630000Y-120500000D02*
X121500000Y-120500000D01*
X126294700Y-115835300D02*
X121630000Y-120500000D01*
X126294700Y-115620000D02*
X126294700Y-115835300D01*
X127420000Y-115620000D02*
X126294700Y-115620000D01*
X161294700Y-115705300D02*
X156500000Y-120500000D01*
X161294700Y-114620000D02*
X161294700Y-115705300D01*
X162420000Y-114620000D02*
X161294700Y-114620000D01*
X162730000Y-120500000D02*
X158270000Y-124960000D01*
X164120000Y-120500000D02*
X162730000Y-120500000D01*
X158040000Y-69500000D02*
X158040000Y-74880000D01*
X155380000Y-69500000D02*
X158040000Y-69500000D01*
X160270000Y-69500000D02*
X164730000Y-65040000D01*
X158040000Y-69500000D02*
X160270000Y-69500000D01*
X109270000Y-72984700D02*
X110040000Y-73754700D01*
X109270000Y-69500000D02*
X109270000Y-72984700D01*
X108380000Y-69500000D02*
X109270000Y-69500000D01*
X109270000Y-69500000D02*
X113730000Y-65040000D01*
X110040000Y-74880000D02*
X110040000Y-73754700D01*
X126904700Y-105874700D02*
X123650000Y-102620000D01*
X157629400Y-105874700D02*
X126904700Y-105874700D01*
X158754700Y-107000000D02*
X157629400Y-105874700D01*
X159880000Y-107000000D02*
X158754700Y-107000000D01*
X125300700Y-106810700D02*
X121110000Y-102620000D01*
X141065400Y-106810700D02*
X125300700Y-106810700D01*
X141754700Y-107500000D02*
X141065400Y-106810700D01*
X142880000Y-107500000D02*
X141754700Y-107500000D01*
X132540000Y-88650000D02*
X118570000Y-102620000D01*
X151959400Y-88650000D02*
X132540000Y-88650000D01*
X152715400Y-87894000D02*
X151959400Y-88650000D01*
X152715400Y-87137900D02*
X152715400Y-87894000D01*
X156228000Y-83625300D02*
X152715400Y-87137900D01*
X161150800Y-83625300D02*
X156228000Y-83625300D01*
X161994700Y-82781400D02*
X161150800Y-83625300D01*
X161994700Y-82500000D02*
X161994700Y-82781400D01*
X163120000Y-82500000D02*
X161994700Y-82500000D01*
X117981200Y-85428800D02*
X116030000Y-87380000D01*
X143347200Y-85428800D02*
X117981200Y-85428800D01*
X145994700Y-82781300D02*
X143347200Y-85428800D01*
X145994700Y-82500000D02*
X145994700Y-82781300D01*
X147120000Y-82500000D02*
X145994700Y-82500000D01*
X117244700Y-83625300D02*
X113490000Y-87380000D01*
X128150800Y-83625300D02*
X117244700Y-83625300D01*
X128994700Y-82781400D02*
X128150800Y-83625300D01*
X128994700Y-82500000D02*
X128994700Y-82781400D01*
X130120000Y-82500000D02*
X128994700Y-82500000D01*
D23*
G36*
X176049805Y-46430010D02*
X179059187Y-48440814D01*
X181069989Y-51450193D01*
X181790000Y-55069931D01*
X181790000Y-134930069D01*
X181069989Y-138549807D01*
X179059187Y-141559186D01*
X176049805Y-143569990D01*
X172430069Y-144290000D01*
X105069931Y-144290000D01*
X101450193Y-143569989D01*
X98440814Y-141559187D01*
X96430010Y-138549805D01*
X95710000Y-134930069D01*
X95710000Y-134337177D01*
X102049574Y-134337177D01*
X102423298Y-135241657D01*
X103114703Y-135934270D01*
X104018529Y-136309572D01*
X104997177Y-136310426D01*
X105901657Y-135936702D01*
X106594270Y-135245297D01*
X106969572Y-134341471D01*
X106969575Y-134337177D01*
X113919574Y-134337177D01*
X114293298Y-135241657D01*
X114984703Y-135934270D01*
X115888529Y-136309572D01*
X116867177Y-136310426D01*
X117771657Y-135936702D01*
X118464270Y-135245297D01*
X118839572Y-134341471D01*
X118839575Y-134337177D01*
X119049574Y-134337177D01*
X119423298Y-135241657D01*
X120114703Y-135934270D01*
X121018529Y-136309572D01*
X121997177Y-136310426D01*
X122901657Y-135936702D01*
X123594270Y-135245297D01*
X123969572Y-134341471D01*
X123969575Y-134337177D01*
X130919574Y-134337177D01*
X131293298Y-135241657D01*
X131984703Y-135934270D01*
X132888529Y-136309572D01*
X133867177Y-136310426D01*
X134771657Y-135936702D01*
X135464270Y-135245297D01*
X135839572Y-134341471D01*
X135839575Y-134337177D01*
X136049574Y-134337177D01*
X136423298Y-135241657D01*
X137114703Y-135934270D01*
X138018529Y-136309572D01*
X138997177Y-136310426D01*
X139901657Y-135936702D01*
X140594270Y-135245297D01*
X140969572Y-134341471D01*
X140969575Y-134337177D01*
X147919574Y-134337177D01*
X148293298Y-135241657D01*
X148984703Y-135934270D01*
X149888529Y-136309572D01*
X150867177Y-136310426D01*
X151771657Y-135936702D01*
X152464270Y-135245297D01*
X152839572Y-134341471D01*
X152839575Y-134337177D01*
X153049574Y-134337177D01*
X153423298Y-135241657D01*
X154114703Y-135934270D01*
X155018529Y-136309572D01*
X155997177Y-136310426D01*
X156901657Y-135936702D01*
X157594270Y-135245297D01*
X157969572Y-134341471D01*
X157969575Y-134337177D01*
X164919574Y-134337177D01*
X165293298Y-135241657D01*
X165984703Y-135934270D01*
X166888529Y-136309572D01*
X167867177Y-136310426D01*
X168771657Y-135936702D01*
X169464270Y-135245297D01*
X169839572Y-134341471D01*
X169840426Y-133362823D01*
X169466702Y-132458343D01*
X168775297Y-131765730D01*
X167871471Y-131390428D01*
X166892823Y-131389574D01*
X165988343Y-131763298D01*
X165295730Y-132454703D01*
X164920428Y-133358529D01*
X164919574Y-134337177D01*
X157969575Y-134337177D01*
X157970426Y-133362823D01*
X157596702Y-132458343D01*
X156905297Y-131765730D01*
X156001471Y-131390428D01*
X155022823Y-131389574D01*
X154118343Y-131763298D01*
X153425730Y-132454703D01*
X153050428Y-133358529D01*
X153049574Y-134337177D01*
X152839575Y-134337177D01*
X152840426Y-133362823D01*
X152466702Y-132458343D01*
X151775297Y-131765730D01*
X150871471Y-131390428D01*
X149892823Y-131389574D01*
X148988343Y-131763298D01*
X148295730Y-132454703D01*
X147920428Y-133358529D01*
X147919574Y-134337177D01*
X140969575Y-134337177D01*
X140970426Y-133362823D01*
X140596702Y-132458343D01*
X139905297Y-131765730D01*
X139001471Y-131390428D01*
X138022823Y-131389574D01*
X137118343Y-131763298D01*
X136425730Y-132454703D01*
X136050428Y-133358529D01*
X136049574Y-134337177D01*
X135839575Y-134337177D01*
X135840426Y-133362823D01*
X135466702Y-132458343D01*
X134775297Y-131765730D01*
X133871471Y-131390428D01*
X132892823Y-131389574D01*
X131988343Y-131763298D01*
X131295730Y-132454703D01*
X130920428Y-133358529D01*
X130919574Y-134337177D01*
X123969575Y-134337177D01*
X123970426Y-133362823D01*
X123596702Y-132458343D01*
X122905297Y-131765730D01*
X122001471Y-131390428D01*
X121022823Y-131389574D01*
X120118343Y-131763298D01*
X119425730Y-132454703D01*
X119050428Y-133358529D01*
X119049574Y-134337177D01*
X118839575Y-134337177D01*
X118840426Y-133362823D01*
X118466702Y-132458343D01*
X117775297Y-131765730D01*
X116871471Y-131390428D01*
X115892823Y-131389574D01*
X114988343Y-131763298D01*
X114295730Y-132454703D01*
X113920428Y-133358529D01*
X113919574Y-134337177D01*
X106969575Y-134337177D01*
X106970426Y-133362823D01*
X106596702Y-132458343D01*
X105905297Y-131765730D01*
X105001471Y-131390428D01*
X104022823Y-131389574D01*
X103118343Y-131763298D01*
X102425730Y-132454703D01*
X102050428Y-133358529D01*
X102049574Y-134337177D01*
X95710000Y-134337177D01*
X95710000Y-126750000D01*
X104602560Y-126750000D01*
X104602560Y-128250000D01*
X104646838Y-128485317D01*
X104785910Y-128701441D01*
X104998110Y-128846431D01*
X105250000Y-128897440D01*
X106750000Y-128897440D01*
X106804309Y-128887221D01*
X112760280Y-128887221D01*
X112818449Y-129237827D01*
X113544501Y-129412284D01*
X114282047Y-129295613D01*
X114421551Y-129237827D01*
X114479720Y-128887221D01*
X113620000Y-128027502D01*
X112760280Y-128887221D01*
X106804309Y-128887221D01*
X106985317Y-128853162D01*
X107201441Y-128714090D01*
X107346431Y-128501890D01*
X107386355Y-128304738D01*
X107754436Y-128673461D01*
X108263298Y-128884759D01*
X108814285Y-128885240D01*
X109323515Y-128674831D01*
X109713461Y-128285564D01*
X109809976Y-128053130D01*
X109905169Y-128283515D01*
X110294436Y-128673461D01*
X110803298Y-128884759D01*
X111354285Y-128885240D01*
X111863515Y-128674831D01*
X112186815Y-128352094D01*
X112232779Y-128359720D01*
X113092498Y-127500000D01*
X113078356Y-127485858D01*
X113605858Y-126958356D01*
X113620000Y-126972498D01*
X113634142Y-126958356D01*
X114161644Y-127485858D01*
X114147502Y-127500000D01*
X115007221Y-128359720D01*
X115357827Y-128301551D01*
X115532284Y-127575499D01*
X115415613Y-126837953D01*
X115391993Y-126780932D01*
X115552047Y-126755613D01*
X115565597Y-126750000D01*
X121602560Y-126750000D01*
X121602560Y-128250000D01*
X121646838Y-128485317D01*
X121785910Y-128701441D01*
X121998110Y-128846431D01*
X122250000Y-128897440D01*
X123750000Y-128897440D01*
X123804309Y-128887221D01*
X129760280Y-128887221D01*
X129818449Y-129237827D01*
X130544501Y-129412284D01*
X131282047Y-129295613D01*
X131421551Y-129237827D01*
X131479720Y-128887221D01*
X130620000Y-128027502D01*
X129760280Y-128887221D01*
X123804309Y-128887221D01*
X123985317Y-128853162D01*
X124201441Y-128714090D01*
X124346431Y-128501890D01*
X124386355Y-128304738D01*
X124754436Y-128673461D01*
X125263298Y-128884759D01*
X125814285Y-128885240D01*
X126323515Y-128674831D01*
X126713461Y-128285564D01*
X126809976Y-128053130D01*
X126905169Y-128283515D01*
X127294436Y-128673461D01*
X127803298Y-128884759D01*
X128354285Y-128885240D01*
X128863515Y-128674831D01*
X129186815Y-128352094D01*
X129232779Y-128359720D01*
X130092498Y-127500000D01*
X130078356Y-127485858D01*
X130605858Y-126958356D01*
X130620000Y-126972498D01*
X130634142Y-126958356D01*
X131161644Y-127485858D01*
X131147502Y-127500000D01*
X132007221Y-128359720D01*
X132357827Y-128301551D01*
X132532284Y-127575499D01*
X132415613Y-126837953D01*
X132391993Y-126780932D01*
X132552047Y-126755613D01*
X132565597Y-126750000D01*
X138602560Y-126750000D01*
X138602560Y-128250000D01*
X138646838Y-128485317D01*
X138785910Y-128701441D01*
X138998110Y-128846431D01*
X139250000Y-128897440D01*
X140750000Y-128897440D01*
X140804309Y-128887221D01*
X146760280Y-128887221D01*
X146818449Y-129237827D01*
X147544501Y-129412284D01*
X148282047Y-129295613D01*
X148421551Y-129237827D01*
X148479720Y-128887221D01*
X147620000Y-128027502D01*
X146760280Y-128887221D01*
X140804309Y-128887221D01*
X140985317Y-128853162D01*
X141201441Y-128714090D01*
X141346431Y-128501890D01*
X141386355Y-128304738D01*
X141754436Y-128673461D01*
X142263298Y-128884759D01*
X142814285Y-128885240D01*
X143323515Y-128674831D01*
X143713461Y-128285564D01*
X143809976Y-128053130D01*
X143905169Y-128283515D01*
X144294436Y-128673461D01*
X144803298Y-128884759D01*
X145354285Y-128885240D01*
X145863515Y-128674831D01*
X146186815Y-128352094D01*
X146232779Y-128359720D01*
X147092498Y-127500000D01*
X147078356Y-127485858D01*
X147605858Y-126958356D01*
X147620000Y-126972498D01*
X147634142Y-126958356D01*
X148161644Y-127485858D01*
X148147502Y-127500000D01*
X149007221Y-128359720D01*
X149357827Y-128301551D01*
X149532284Y-127575499D01*
X149415613Y-126837953D01*
X149391993Y-126780932D01*
X149552047Y-126755613D01*
X149565597Y-126750000D01*
X155602560Y-126750000D01*
X155602560Y-128250000D01*
X155646838Y-128485317D01*
X155785910Y-128701441D01*
X155998110Y-128846431D01*
X156250000Y-128897440D01*
X157750000Y-128897440D01*
X157804309Y-128887221D01*
X163760280Y-128887221D01*
X163818449Y-129237827D01*
X164544501Y-129412284D01*
X165282047Y-129295613D01*
X165421551Y-129237827D01*
X165479720Y-128887221D01*
X164620000Y-128027502D01*
X163760280Y-128887221D01*
X157804309Y-128887221D01*
X157985317Y-128853162D01*
X158201441Y-128714090D01*
X158346431Y-128501890D01*
X158386355Y-128304738D01*
X158754436Y-128673461D01*
X159263298Y-128884759D01*
X159814285Y-128885240D01*
X160323515Y-128674831D01*
X160713461Y-128285564D01*
X160809976Y-128053130D01*
X160905169Y-128283515D01*
X161294436Y-128673461D01*
X161803298Y-128884759D01*
X162354285Y-128885240D01*
X162863515Y-128674831D01*
X163186815Y-128352094D01*
X163232779Y-128359720D01*
X164092498Y-127500000D01*
X164078356Y-127485858D01*
X164605858Y-126958356D01*
X164620000Y-126972498D01*
X164634142Y-126958356D01*
X165161644Y-127485858D01*
X165147502Y-127500000D01*
X166007221Y-128359720D01*
X166357827Y-128301551D01*
X166532284Y-127575499D01*
X166415613Y-126837953D01*
X166391993Y-126780932D01*
X166552047Y-126755613D01*
X166691551Y-126697827D01*
X166749720Y-126347221D01*
X165890000Y-125487502D01*
X165875858Y-125501644D01*
X165348356Y-124974142D01*
X165362498Y-124960000D01*
X166417502Y-124960000D01*
X167277221Y-125819720D01*
X167627827Y-125761551D01*
X167802284Y-125035499D01*
X167685613Y-124297953D01*
X167627827Y-124158449D01*
X167277221Y-124100280D01*
X166417502Y-124960000D01*
X165362498Y-124960000D01*
X164502779Y-124100280D01*
X164456434Y-124107969D01*
X164135564Y-123786539D01*
X163626702Y-123575241D01*
X163075715Y-123574760D01*
X162566485Y-123785169D01*
X162176539Y-124174436D01*
X162080024Y-124406870D01*
X161984831Y-124176485D01*
X161595564Y-123786539D01*
X161086702Y-123575241D01*
X160729873Y-123574929D01*
X160732023Y-123572779D01*
X165030280Y-123572779D01*
X165890000Y-124432498D01*
X166749720Y-123572779D01*
X166691551Y-123222173D01*
X165965499Y-123047716D01*
X165227953Y-123164387D01*
X165088449Y-123222173D01*
X165030280Y-123572779D01*
X160732023Y-123572779D01*
X162806779Y-121498023D01*
X163192927Y-121884846D01*
X163793453Y-122134206D01*
X164443694Y-122134774D01*
X165044655Y-121886462D01*
X165504846Y-121427073D01*
X165754206Y-120826547D01*
X165754212Y-120818894D01*
X170864284Y-120818894D01*
X171492474Y-122339229D01*
X172654653Y-123503438D01*
X174173889Y-124134280D01*
X175818894Y-124135716D01*
X177339229Y-123507526D01*
X178503438Y-122345347D01*
X179134280Y-120826111D01*
X179135716Y-119181106D01*
X178507526Y-117660771D01*
X177345347Y-116496562D01*
X175826111Y-115865720D01*
X174181106Y-115864284D01*
X172660771Y-116492474D01*
X171496562Y-117654653D01*
X170865720Y-119173889D01*
X170864284Y-120818894D01*
X165754212Y-120818894D01*
X165754774Y-120176306D01*
X165506462Y-119575345D01*
X165047073Y-119115154D01*
X164446547Y-118865794D01*
X163796306Y-118865226D01*
X163195345Y-119113538D01*
X162735154Y-119572927D01*
X162659997Y-119753925D01*
X162439161Y-119797852D01*
X162439159Y-119797853D01*
X162439160Y-119797853D01*
X162192599Y-119962599D01*
X158570200Y-123584998D01*
X158546702Y-123575241D01*
X157995715Y-123574760D01*
X157486485Y-123785169D01*
X157096539Y-124174436D01*
X156885241Y-124683298D01*
X156884760Y-125234285D01*
X157095169Y-125743515D01*
X157453589Y-126102560D01*
X156250000Y-126102560D01*
X156014683Y-126146838D01*
X155798559Y-126285910D01*
X155653569Y-126498110D01*
X155602560Y-126750000D01*
X149565597Y-126750000D01*
X149691551Y-126697827D01*
X149749720Y-126347221D01*
X148890000Y-125487502D01*
X148875858Y-125501644D01*
X148348356Y-124974142D01*
X148362498Y-124960000D01*
X149417502Y-124960000D01*
X150277221Y-125819720D01*
X150627827Y-125761551D01*
X150802284Y-125035499D01*
X150685613Y-124297953D01*
X150627827Y-124158449D01*
X150277221Y-124100280D01*
X149417502Y-124960000D01*
X148362498Y-124960000D01*
X147502779Y-124100280D01*
X147456434Y-124107969D01*
X147135564Y-123786539D01*
X146626702Y-123575241D01*
X146075715Y-123574760D01*
X145566485Y-123785169D01*
X145176539Y-124174436D01*
X145080024Y-124406870D01*
X144984831Y-124176485D01*
X144595564Y-123786539D01*
X144086702Y-123575241D01*
X143535715Y-123574760D01*
X143026485Y-123785169D01*
X142636539Y-124174436D01*
X142540024Y-124406870D01*
X142444831Y-124176485D01*
X142055564Y-123786539D01*
X141546702Y-123575241D01*
X140995715Y-123574760D01*
X140486485Y-123785169D01*
X140096539Y-124174436D01*
X139885241Y-124683298D01*
X139884760Y-125234285D01*
X140095169Y-125743515D01*
X140453589Y-126102560D01*
X139250000Y-126102560D01*
X139014683Y-126146838D01*
X138798559Y-126285910D01*
X138653569Y-126498110D01*
X138602560Y-126750000D01*
X132565597Y-126750000D01*
X132691551Y-126697827D01*
X132749720Y-126347221D01*
X131890000Y-125487502D01*
X131875858Y-125501644D01*
X131348356Y-124974142D01*
X131362498Y-124960000D01*
X132417502Y-124960000D01*
X133277221Y-125819720D01*
X133627827Y-125761551D01*
X133802284Y-125035499D01*
X133685613Y-124297953D01*
X133627827Y-124158449D01*
X133277221Y-124100280D01*
X132417502Y-124960000D01*
X131362498Y-124960000D01*
X130502779Y-124100280D01*
X130456434Y-124107969D01*
X130135564Y-123786539D01*
X129626702Y-123575241D01*
X129075715Y-123574760D01*
X128566485Y-123785169D01*
X128176539Y-124174436D01*
X128080024Y-124406870D01*
X127984831Y-124176485D01*
X127595564Y-123786539D01*
X127086702Y-123575241D01*
X126535715Y-123574760D01*
X126026485Y-123785169D01*
X125636539Y-124174436D01*
X125540024Y-124406870D01*
X125444831Y-124176485D01*
X125055564Y-123786539D01*
X124546702Y-123575241D01*
X123995715Y-123574760D01*
X123486485Y-123785169D01*
X123096539Y-124174436D01*
X122885241Y-124683298D01*
X122884760Y-125234285D01*
X123095169Y-125743515D01*
X123453589Y-126102560D01*
X122250000Y-126102560D01*
X122014683Y-126146838D01*
X121798559Y-126285910D01*
X121653569Y-126498110D01*
X121602560Y-126750000D01*
X115565597Y-126750000D01*
X115691551Y-126697827D01*
X115749720Y-126347221D01*
X114890000Y-125487502D01*
X114875858Y-125501644D01*
X114348356Y-124974142D01*
X114362498Y-124960000D01*
X115417502Y-124960000D01*
X116277221Y-125819720D01*
X116627827Y-125761551D01*
X116802284Y-125035499D01*
X116685613Y-124297953D01*
X116627827Y-124158449D01*
X116277221Y-124100280D01*
X115417502Y-124960000D01*
X114362498Y-124960000D01*
X113502779Y-124100280D01*
X113456434Y-124107969D01*
X113135564Y-123786539D01*
X112626702Y-123575241D01*
X112075715Y-123574760D01*
X111566485Y-123785169D01*
X111176539Y-124174436D01*
X111080024Y-124406870D01*
X110984831Y-124176485D01*
X110595564Y-123786539D01*
X110086702Y-123575241D01*
X109535715Y-123574760D01*
X109026485Y-123785169D01*
X108636539Y-124174436D01*
X108540024Y-124406870D01*
X108444831Y-124176485D01*
X108055564Y-123786539D01*
X107546702Y-123575241D01*
X106995715Y-123574760D01*
X106486485Y-123785169D01*
X106096539Y-124174436D01*
X105885241Y-124683298D01*
X105884760Y-125234285D01*
X106095169Y-125743515D01*
X106453589Y-126102560D01*
X105250000Y-126102560D01*
X105014683Y-126146838D01*
X104798559Y-126285910D01*
X104653569Y-126498110D01*
X104602560Y-126750000D01*
X95710000Y-126750000D01*
X95710000Y-120818894D01*
X95864284Y-120818894D01*
X96492474Y-122339229D01*
X97654653Y-123503438D01*
X99173889Y-124134280D01*
X100818894Y-124135716D01*
X102181304Y-123572779D01*
X114030280Y-123572779D01*
X114890000Y-124432498D01*
X115749720Y-123572779D01*
X131030280Y-123572779D01*
X131890000Y-124432498D01*
X132749720Y-123572779D01*
X148030280Y-123572779D01*
X148890000Y-124432498D01*
X149749720Y-123572779D01*
X149691551Y-123222173D01*
X148965499Y-123047716D01*
X148227953Y-123164387D01*
X148088449Y-123222173D01*
X148030280Y-123572779D01*
X132749720Y-123572779D01*
X132691551Y-123222173D01*
X131965499Y-123047716D01*
X131227953Y-123164387D01*
X131088449Y-123222173D01*
X131030280Y-123572779D01*
X115749720Y-123572779D01*
X115691551Y-123222173D01*
X114965499Y-123047716D01*
X114227953Y-123164387D01*
X114088449Y-123222173D01*
X114030280Y-123572779D01*
X102181304Y-123572779D01*
X102339229Y-123507526D01*
X103503438Y-122345347D01*
X104134280Y-120826111D01*
X104134282Y-120823694D01*
X104365226Y-120823694D01*
X104613538Y-121424655D01*
X105072927Y-121884846D01*
X105673453Y-122134206D01*
X106323694Y-122134774D01*
X106924655Y-121886462D01*
X107384846Y-121427073D01*
X107634206Y-120826547D01*
X107634208Y-120823694D01*
X111985226Y-120823694D01*
X112233538Y-121424655D01*
X112692927Y-121884846D01*
X113293453Y-122134206D01*
X113943694Y-122134774D01*
X114544655Y-121886462D01*
X115004846Y-121427073D01*
X115254206Y-120826547D01*
X115254208Y-120823694D01*
X119865226Y-120823694D01*
X120113538Y-121424655D01*
X120572927Y-121884846D01*
X121173453Y-122134206D01*
X121823694Y-122134774D01*
X122424655Y-121886462D01*
X122884846Y-121427073D01*
X123134206Y-120826547D01*
X123134208Y-120823694D01*
X127485226Y-120823694D01*
X127733538Y-121424655D01*
X128192927Y-121884846D01*
X128793453Y-122134206D01*
X129443694Y-122134774D01*
X130044655Y-121886462D01*
X130504846Y-121427073D01*
X130754206Y-120826547D01*
X130754208Y-120823694D01*
X137865226Y-120823694D01*
X138113538Y-121424655D01*
X138572927Y-121884846D01*
X139173453Y-122134206D01*
X139823694Y-122134774D01*
X140424655Y-121886462D01*
X140884846Y-121427073D01*
X141134206Y-120826547D01*
X141134208Y-120823694D01*
X145485226Y-120823694D01*
X145733538Y-121424655D01*
X146192927Y-121884846D01*
X146793453Y-122134206D01*
X147443694Y-122134774D01*
X148044655Y-121886462D01*
X148504846Y-121427073D01*
X148754206Y-120826547D01*
X148754208Y-120823694D01*
X154865226Y-120823694D01*
X155113538Y-121424655D01*
X155572927Y-121884846D01*
X156173453Y-122134206D01*
X156823694Y-122134774D01*
X157424655Y-121886462D01*
X157884846Y-121427073D01*
X158134206Y-120826547D01*
X158134774Y-120176306D01*
X158065691Y-120009111D01*
X161832101Y-116242701D01*
X161995194Y-115998614D01*
X162420000Y-116083113D01*
X162969151Y-115973880D01*
X163434698Y-115662811D01*
X163690000Y-115280725D01*
X163945302Y-115662811D01*
X164410849Y-115973880D01*
X164960000Y-116083113D01*
X165509151Y-115973880D01*
X165974698Y-115662811D01*
X166230000Y-115280725D01*
X166485302Y-115662811D01*
X166950849Y-115973880D01*
X167500000Y-116083113D01*
X168049151Y-115973880D01*
X168514698Y-115662811D01*
X168825767Y-115197264D01*
X168935000Y-114648113D01*
X168935000Y-114591887D01*
X168825767Y-114042736D01*
X168514698Y-113577189D01*
X168049151Y-113266120D01*
X167500000Y-113156887D01*
X166950849Y-113266120D01*
X166485302Y-113577189D01*
X166230000Y-113959275D01*
X165974698Y-113577189D01*
X165509151Y-113266120D01*
X164960000Y-113156887D01*
X164410849Y-113266120D01*
X163945302Y-113577189D01*
X163690000Y-113959275D01*
X163434698Y-113577189D01*
X162969151Y-113266120D01*
X162420000Y-113156887D01*
X161870849Y-113266120D01*
X161442533Y-113552312D01*
X161297091Y-113314141D01*
X160689491Y-112871246D01*
X160544156Y-112811071D01*
X160253000Y-113017590D01*
X160253000Y-114247000D01*
X160273000Y-114247000D01*
X160273000Y-114993000D01*
X160253000Y-114993000D01*
X160253000Y-115013000D01*
X159507000Y-115013000D01*
X159507000Y-114993000D01*
X158271172Y-114993000D01*
X158071048Y-115284159D01*
X158462909Y-115925859D01*
X159070509Y-116368754D01*
X159215844Y-116428929D01*
X159506998Y-116222411D01*
X159506998Y-116418200D01*
X156991083Y-118934115D01*
X156826547Y-118865794D01*
X156176306Y-118865226D01*
X155575345Y-119113538D01*
X155115154Y-119572927D01*
X154865794Y-120173453D01*
X154865226Y-120823694D01*
X148754208Y-120823694D01*
X148754774Y-120176306D01*
X148506462Y-119575345D01*
X148047073Y-119115154D01*
X147446547Y-118865794D01*
X146796306Y-118865226D01*
X146195345Y-119113538D01*
X145735154Y-119572927D01*
X145485794Y-120173453D01*
X145485226Y-120823694D01*
X141134208Y-120823694D01*
X141134774Y-120176306D01*
X140886462Y-119575345D01*
X140427073Y-119115154D01*
X139826547Y-118865794D01*
X139176306Y-118865226D01*
X138575345Y-119113538D01*
X138115154Y-119572927D01*
X137865794Y-120173453D01*
X137865226Y-120823694D01*
X130754208Y-120823694D01*
X130754774Y-120176306D01*
X130506462Y-119575345D01*
X130047073Y-119115154D01*
X129446547Y-118865794D01*
X128796306Y-118865226D01*
X128195345Y-119113538D01*
X127735154Y-119572927D01*
X127485794Y-120173453D01*
X127485226Y-120823694D01*
X123134208Y-120823694D01*
X123134774Y-120176306D01*
X123103700Y-120101102D01*
X126230143Y-116974659D01*
X126297091Y-116925859D01*
X126325555Y-116879247D01*
X126487241Y-116717561D01*
X126870849Y-116973880D01*
X127420000Y-117083113D01*
X127969151Y-116973880D01*
X128434698Y-116662811D01*
X128690000Y-116280725D01*
X128945302Y-116662811D01*
X129410849Y-116973880D01*
X129960000Y-117083113D01*
X130509151Y-116973880D01*
X130974698Y-116662811D01*
X131230000Y-116280725D01*
X131485302Y-116662811D01*
X131950849Y-116973880D01*
X132500000Y-117083113D01*
X133049151Y-116973880D01*
X133514698Y-116662811D01*
X133825767Y-116197264D01*
X133907938Y-115784159D01*
X141071048Y-115784159D01*
X141462909Y-116425859D01*
X142070509Y-116868754D01*
X142215844Y-116928929D01*
X142507000Y-116722410D01*
X142507000Y-115493000D01*
X141271172Y-115493000D01*
X141071048Y-115784159D01*
X133907938Y-115784159D01*
X133935000Y-115648113D01*
X133935000Y-115591887D01*
X133825767Y-115042736D01*
X133514698Y-114577189D01*
X133080459Y-114287039D01*
X138672580Y-114287039D01*
X138715247Y-114633043D01*
X139399921Y-114809047D01*
X140099832Y-114709640D01*
X140284753Y-114633043D01*
X140306604Y-114455841D01*
X141071048Y-114455841D01*
X141271172Y-114747000D01*
X142507000Y-114747000D01*
X142507000Y-113517590D01*
X143253000Y-113517590D01*
X143253000Y-114747000D01*
X143273000Y-114747000D01*
X143273000Y-115493000D01*
X143253000Y-115493000D01*
X143253000Y-116722410D01*
X143544156Y-116928929D01*
X143689491Y-116868754D01*
X144297091Y-116425859D01*
X144442533Y-116187688D01*
X144870849Y-116473880D01*
X145420000Y-116583113D01*
X145969151Y-116473880D01*
X146434698Y-116162811D01*
X146690000Y-115780725D01*
X146945302Y-116162811D01*
X147410849Y-116473880D01*
X147960000Y-116583113D01*
X148509151Y-116473880D01*
X148974698Y-116162811D01*
X149230000Y-115780725D01*
X149485302Y-116162811D01*
X149950849Y-116473880D01*
X150500000Y-116583113D01*
X151049151Y-116473880D01*
X151514698Y-116162811D01*
X151825767Y-115697264D01*
X151935000Y-115148113D01*
X151935000Y-115091887D01*
X151825767Y-114542736D01*
X151514698Y-114077189D01*
X151080459Y-113787039D01*
X155672580Y-113787039D01*
X155715247Y-114133043D01*
X156399921Y-114309047D01*
X157099832Y-114209640D01*
X157284753Y-114133043D01*
X157306604Y-113955841D01*
X158071048Y-113955841D01*
X158271172Y-114247000D01*
X159507000Y-114247000D01*
X159507000Y-113017590D01*
X159215844Y-112811071D01*
X159070509Y-112871246D01*
X158462909Y-113314141D01*
X158071048Y-113955841D01*
X157306604Y-113955841D01*
X157327420Y-113787039D01*
X156500000Y-112959619D01*
X155672580Y-113787039D01*
X151080459Y-113787039D01*
X151049151Y-113766120D01*
X150500000Y-113656887D01*
X149950849Y-113766120D01*
X149485302Y-114077189D01*
X149230000Y-114459275D01*
X148974698Y-114077189D01*
X148509151Y-113766120D01*
X147960000Y-113656887D01*
X147410849Y-113766120D01*
X146945302Y-114077189D01*
X146690000Y-114459275D01*
X146434698Y-114077189D01*
X145969151Y-113766120D01*
X145420000Y-113656887D01*
X144870849Y-113766120D01*
X144442533Y-114052312D01*
X144297091Y-113814141D01*
X143689491Y-113371246D01*
X143544156Y-113311071D01*
X143253000Y-113517590D01*
X142507000Y-113517590D01*
X142215844Y-113311071D01*
X142070509Y-113371246D01*
X141462909Y-113814141D01*
X141071048Y-114455841D01*
X140306604Y-114455841D01*
X140327420Y-114287039D01*
X139500000Y-113459619D01*
X138672580Y-114287039D01*
X133080459Y-114287039D01*
X133049151Y-114266120D01*
X132500000Y-114156887D01*
X131950849Y-114266120D01*
X131485302Y-114577189D01*
X131230000Y-114959275D01*
X130974698Y-114577189D01*
X130509151Y-114266120D01*
X129960000Y-114156887D01*
X129410849Y-114266120D01*
X128945302Y-114577189D01*
X128690000Y-114959275D01*
X128434698Y-114577189D01*
X127969151Y-114266120D01*
X127420000Y-114156887D01*
X126870849Y-114266120D01*
X126442533Y-114552312D01*
X126297091Y-114314141D01*
X125689491Y-113871246D01*
X125544156Y-113811071D01*
X125253000Y-114017590D01*
X125253000Y-115247000D01*
X125273000Y-115247000D01*
X125273000Y-115782198D01*
X125042198Y-116013000D01*
X124507000Y-116013000D01*
X124507000Y-115993000D01*
X123271172Y-115993000D01*
X123071048Y-116284159D01*
X123462909Y-116925859D01*
X123848368Y-117206830D01*
X122082940Y-118972258D01*
X121826547Y-118865794D01*
X121176306Y-118865226D01*
X120575345Y-119113538D01*
X120115154Y-119572927D01*
X119865794Y-120173453D01*
X119865226Y-120823694D01*
X115254208Y-120823694D01*
X115254774Y-120176306D01*
X115006462Y-119575345D01*
X114547073Y-119115154D01*
X113946547Y-118865794D01*
X113296306Y-118865226D01*
X112695345Y-119113538D01*
X112235154Y-119572927D01*
X111985794Y-120173453D01*
X111985226Y-120823694D01*
X107634208Y-120823694D01*
X107634774Y-120176306D01*
X107386462Y-119575345D01*
X106927073Y-119115154D01*
X106326547Y-118865794D01*
X105676306Y-118865226D01*
X105075345Y-119113538D01*
X104615154Y-119572927D01*
X104365794Y-120173453D01*
X104365226Y-120823694D01*
X104134282Y-120823694D01*
X104135716Y-119181106D01*
X103507526Y-117660771D01*
X102345347Y-116496562D01*
X100826111Y-115865720D01*
X99181106Y-115864284D01*
X97660771Y-116492474D01*
X96496562Y-117654653D01*
X95865720Y-119173889D01*
X95864284Y-120818894D01*
X95710000Y-120818894D01*
X95710000Y-115784159D01*
X105571048Y-115784159D01*
X105962909Y-116425859D01*
X106570509Y-116868754D01*
X106715844Y-116928929D01*
X107007000Y-116722410D01*
X107007000Y-115493000D01*
X105771172Y-115493000D01*
X105571048Y-115784159D01*
X95710000Y-115784159D01*
X95710000Y-114455841D01*
X105571048Y-114455841D01*
X105771172Y-114747000D01*
X107007000Y-114747000D01*
X107007000Y-113517590D01*
X107753000Y-113517590D01*
X107753000Y-114747000D01*
X107773000Y-114747000D01*
X107773000Y-115493000D01*
X107753000Y-115493000D01*
X107753000Y-116722410D01*
X108044156Y-116928929D01*
X108189491Y-116868754D01*
X108797091Y-116425859D01*
X108942533Y-116187688D01*
X109370849Y-116473880D01*
X109920000Y-116583113D01*
X110469151Y-116473880D01*
X110934698Y-116162811D01*
X111190000Y-115780725D01*
X111445302Y-116162811D01*
X111910849Y-116473880D01*
X112460000Y-116583113D01*
X113009151Y-116473880D01*
X113474698Y-116162811D01*
X113730000Y-115780725D01*
X113985302Y-116162811D01*
X114450849Y-116473880D01*
X115000000Y-116583113D01*
X115549151Y-116473880D01*
X116014698Y-116162811D01*
X116325767Y-115697264D01*
X116435000Y-115148113D01*
X116435000Y-115091887D01*
X116407939Y-114955841D01*
X123071048Y-114955841D01*
X123271172Y-115247000D01*
X124507000Y-115247000D01*
X124507000Y-114017590D01*
X124215844Y-113811071D01*
X124070509Y-113871246D01*
X123462909Y-114314141D01*
X123071048Y-114955841D01*
X116407939Y-114955841D01*
X116325767Y-114542736D01*
X116014698Y-114077189D01*
X115580459Y-113787039D01*
X120672580Y-113787039D01*
X120715247Y-114133043D01*
X121399921Y-114309047D01*
X122099832Y-114209640D01*
X122284753Y-114133043D01*
X122327420Y-113787039D01*
X121500000Y-112959619D01*
X120672580Y-113787039D01*
X115580459Y-113787039D01*
X115549151Y-113766120D01*
X115000000Y-113656887D01*
X114450849Y-113766120D01*
X113985302Y-114077189D01*
X113730000Y-114459275D01*
X113474698Y-114077189D01*
X113009151Y-113766120D01*
X112460000Y-113656887D01*
X111910849Y-113766120D01*
X111445302Y-114077189D01*
X111190000Y-114459275D01*
X110934698Y-114077189D01*
X110469151Y-113766120D01*
X109920000Y-113656887D01*
X109370849Y-113766120D01*
X108942533Y-114052312D01*
X108797091Y-113814141D01*
X108189491Y-113371246D01*
X108044156Y-113311071D01*
X107753000Y-113517590D01*
X107007000Y-113517590D01*
X106715844Y-113311071D01*
X106570509Y-113371246D01*
X105962909Y-113814141D01*
X105571048Y-114455841D01*
X95710000Y-114455841D01*
X95710000Y-113787039D01*
X103422580Y-113787039D01*
X103465247Y-114133043D01*
X104149921Y-114309047D01*
X104849832Y-114209640D01*
X105034753Y-114133043D01*
X105077420Y-113787039D01*
X104250000Y-112959619D01*
X103422580Y-113787039D01*
X95710000Y-113787039D01*
X95710000Y-112399921D01*
X102440953Y-112399921D01*
X102540360Y-113099832D01*
X102616957Y-113284753D01*
X102962961Y-113327420D01*
X103790381Y-112500000D01*
X104709619Y-112500000D01*
X105537039Y-113327420D01*
X105883043Y-113284753D01*
X106059047Y-112600079D01*
X106030619Y-112399921D01*
X119690953Y-112399921D01*
X119790360Y-113099832D01*
X119866957Y-113284753D01*
X120212961Y-113327420D01*
X121040381Y-112500000D01*
X121959619Y-112500000D01*
X122787039Y-113327420D01*
X123133043Y-113284753D01*
X123231968Y-112899921D01*
X137690953Y-112899921D01*
X137790360Y-113599832D01*
X137866957Y-113784753D01*
X138212961Y-113827420D01*
X139040381Y-113000000D01*
X139959619Y-113000000D01*
X140787039Y-113827420D01*
X141133043Y-113784753D01*
X141309047Y-113100079D01*
X141209640Y-112400168D01*
X141209538Y-112399921D01*
X154690953Y-112399921D01*
X154790360Y-113099832D01*
X154866957Y-113284753D01*
X155212961Y-113327420D01*
X156040381Y-112500000D01*
X156959619Y-112500000D01*
X157787039Y-113327420D01*
X158133043Y-113284753D01*
X158309047Y-112600079D01*
X158209640Y-111900168D01*
X158133043Y-111715247D01*
X157787039Y-111672580D01*
X156959619Y-112500000D01*
X156040381Y-112500000D01*
X155212961Y-111672580D01*
X154866957Y-111715247D01*
X154690953Y-112399921D01*
X141209538Y-112399921D01*
X141133043Y-112215247D01*
X140787039Y-112172580D01*
X139959619Y-113000000D01*
X139040381Y-113000000D01*
X138212961Y-112172580D01*
X137866957Y-112215247D01*
X137690953Y-112899921D01*
X123231968Y-112899921D01*
X123309047Y-112600079D01*
X123209640Y-111900168D01*
X123133043Y-111715247D01*
X122787039Y-111672580D01*
X121959619Y-112500000D01*
X121040381Y-112500000D01*
X120212961Y-111672580D01*
X119866957Y-111715247D01*
X119690953Y-112399921D01*
X106030619Y-112399921D01*
X105959640Y-111900168D01*
X105883043Y-111715247D01*
X105537039Y-111672580D01*
X104709619Y-112500000D01*
X103790381Y-112500000D01*
X102962961Y-111672580D01*
X102616957Y-111715247D01*
X102440953Y-112399921D01*
X95710000Y-112399921D01*
X95710000Y-109350000D01*
X102952560Y-109350000D01*
X102952560Y-110650000D01*
X102996838Y-110885317D01*
X103135910Y-111101441D01*
X103348110Y-111246431D01*
X103483459Y-111273840D01*
X104250000Y-112040381D01*
X105014482Y-111275899D01*
X105135317Y-111253162D01*
X105351441Y-111114090D01*
X105496431Y-110901890D01*
X105547440Y-110650000D01*
X105547440Y-109350000D01*
X120202560Y-109350000D01*
X120202560Y-110650000D01*
X120246838Y-110885317D01*
X120385910Y-111101441D01*
X120598110Y-111246431D01*
X120733459Y-111273840D01*
X121500000Y-112040381D01*
X122264482Y-111275899D01*
X122385317Y-111253162D01*
X122601441Y-111114090D01*
X122746431Y-110901890D01*
X122797440Y-110650000D01*
X122797440Y-109850000D01*
X138202560Y-109850000D01*
X138202560Y-111150000D01*
X138246838Y-111385317D01*
X138385910Y-111601441D01*
X138598110Y-111746431D01*
X138733459Y-111773840D01*
X139500000Y-112540381D01*
X140264482Y-111775899D01*
X140385317Y-111753162D01*
X140601441Y-111614090D01*
X140746431Y-111401890D01*
X140797440Y-111150000D01*
X140797440Y-109850000D01*
X140753162Y-109614683D01*
X140614090Y-109398559D01*
X140543022Y-109350000D01*
X155202560Y-109350000D01*
X155202560Y-110650000D01*
X155246838Y-110885317D01*
X155385910Y-111101441D01*
X155598110Y-111246431D01*
X155733459Y-111273840D01*
X156500000Y-112040381D01*
X157264482Y-111275899D01*
X157385317Y-111253162D01*
X157601441Y-111114090D01*
X157746431Y-110901890D01*
X157797440Y-110650000D01*
X157797440Y-109350000D01*
X157753162Y-109114683D01*
X157614090Y-108898559D01*
X157401890Y-108753569D01*
X157150000Y-108702560D01*
X155850000Y-108702560D01*
X155614683Y-108746838D01*
X155398559Y-108885910D01*
X155253569Y-109098110D01*
X155202560Y-109350000D01*
X140543022Y-109350000D01*
X140401890Y-109253569D01*
X140150000Y-109202560D01*
X138850000Y-109202560D01*
X138614683Y-109246838D01*
X138398559Y-109385910D01*
X138253569Y-109598110D01*
X138202560Y-109850000D01*
X122797440Y-109850000D01*
X122797440Y-109350000D01*
X122753162Y-109114683D01*
X122614090Y-108898559D01*
X122401890Y-108753569D01*
X122150000Y-108702560D01*
X120850000Y-108702560D01*
X120614683Y-108746838D01*
X120398559Y-108885910D01*
X120253569Y-109098110D01*
X120202560Y-109350000D01*
X105547440Y-109350000D01*
X105503162Y-109114683D01*
X105364090Y-108898559D01*
X105151890Y-108753569D01*
X104900000Y-108702560D01*
X103600000Y-108702560D01*
X103364683Y-108746838D01*
X103148559Y-108885910D01*
X103003569Y-109098110D01*
X102952560Y-109350000D01*
X95710000Y-109350000D01*
X95710000Y-107471887D01*
X105945000Y-107471887D01*
X105945000Y-107528113D01*
X106054233Y-108077264D01*
X106365302Y-108542811D01*
X106830849Y-108853880D01*
X107380000Y-108963113D01*
X107929151Y-108853880D01*
X108394698Y-108542811D01*
X108650000Y-108160725D01*
X108905302Y-108542811D01*
X109370849Y-108853880D01*
X109920000Y-108963113D01*
X110469151Y-108853880D01*
X110934698Y-108542811D01*
X111190000Y-108160725D01*
X111445302Y-108542811D01*
X111910849Y-108853880D01*
X112460000Y-108963113D01*
X113009151Y-108853880D01*
X113474698Y-108542811D01*
X113571101Y-108398535D01*
X113596838Y-108535317D01*
X113735910Y-108751441D01*
X113948110Y-108896431D01*
X114200000Y-108947440D01*
X115800000Y-108947440D01*
X116035317Y-108903162D01*
X116251441Y-108764090D01*
X116396431Y-108551890D01*
X116447440Y-108300000D01*
X116447440Y-106700000D01*
X116403162Y-106464683D01*
X116264090Y-106248559D01*
X116051890Y-106103569D01*
X115800000Y-106052560D01*
X114200000Y-106052560D01*
X113964683Y-106096838D01*
X113748559Y-106235910D01*
X113603569Y-106448110D01*
X113572185Y-106603089D01*
X113474698Y-106457189D01*
X113009151Y-106146120D01*
X112460000Y-106036887D01*
X111910849Y-106146120D01*
X111445302Y-106457189D01*
X111190000Y-106839275D01*
X110934698Y-106457189D01*
X110469151Y-106146120D01*
X109920000Y-106036887D01*
X109370849Y-106146120D01*
X108905302Y-106457189D01*
X108650000Y-106839275D01*
X108394698Y-106457189D01*
X107929151Y-106146120D01*
X107380000Y-106036887D01*
X106830849Y-106146120D01*
X106365302Y-106457189D01*
X106054233Y-106922736D01*
X105945000Y-107471887D01*
X95710000Y-107471887D01*
X95710000Y-103274750D01*
X98863000Y-103274750D01*
X98863000Y-103644174D01*
X99034576Y-104058394D01*
X99351606Y-104375425D01*
X99765826Y-104547000D01*
X100135250Y-104547000D01*
X100417000Y-104265250D01*
X100417000Y-102993000D01*
X99144750Y-102993000D01*
X98863000Y-103274750D01*
X95710000Y-103274750D01*
X95710000Y-101595826D01*
X98863000Y-101595826D01*
X98863000Y-101965250D01*
X99144750Y-102247000D01*
X100417000Y-102247000D01*
X100417000Y-100974750D01*
X100135250Y-100693000D01*
X99765826Y-100693000D01*
X99351606Y-100864575D01*
X99034576Y-101181606D01*
X98863000Y-101595826D01*
X95710000Y-101595826D01*
X95710000Y-87664187D01*
X99354752Y-87664187D01*
X99572757Y-88191800D01*
X99976077Y-88595824D01*
X100503309Y-88814750D01*
X101074187Y-88815248D01*
X101601800Y-88597243D01*
X102005824Y-88193923D01*
X102059862Y-88063785D01*
X102112757Y-88191800D01*
X102516077Y-88595824D01*
X102646215Y-88649862D01*
X102518200Y-88702757D01*
X102114176Y-89106077D01*
X101895250Y-89633309D01*
X101894752Y-90204187D01*
X102112757Y-90731800D01*
X102516077Y-91135824D01*
X103043309Y-91354750D01*
X103614187Y-91355248D01*
X104141800Y-91137243D01*
X104545824Y-90733923D01*
X104764750Y-90206691D01*
X104765248Y-89635813D01*
X104547243Y-89108200D01*
X104143923Y-88704176D01*
X104013785Y-88650138D01*
X104141800Y-88597243D01*
X104545824Y-88193923D01*
X104599862Y-88063785D01*
X104652757Y-88191800D01*
X105056077Y-88595824D01*
X105583309Y-88814750D01*
X106154187Y-88815248D01*
X106681800Y-88597243D01*
X107085824Y-88193923D01*
X107139862Y-88063785D01*
X107192757Y-88191800D01*
X107596077Y-88595824D01*
X107726215Y-88649862D01*
X107598200Y-88702757D01*
X107194176Y-89106077D01*
X106975250Y-89633309D01*
X106974752Y-90204187D01*
X107192757Y-90731800D01*
X107596077Y-91135824D01*
X108123309Y-91354750D01*
X108694187Y-91355248D01*
X109221800Y-91137243D01*
X109625824Y-90733923D01*
X109679862Y-90603785D01*
X109732757Y-90731800D01*
X110136077Y-91135824D01*
X110663309Y-91354750D01*
X111234187Y-91355248D01*
X111761800Y-91137243D01*
X112165824Y-90733923D01*
X112219862Y-90603785D01*
X112272757Y-90731800D01*
X112676077Y-91135824D01*
X113203309Y-91354750D01*
X113774187Y-91355248D01*
X114301800Y-91137243D01*
X114705824Y-90733923D01*
X114924750Y-90206691D01*
X114925248Y-89635813D01*
X114707243Y-89108200D01*
X114303923Y-88704176D01*
X114173785Y-88650138D01*
X114301800Y-88597243D01*
X114705824Y-88193923D01*
X114759862Y-88063785D01*
X114812757Y-88191800D01*
X115216077Y-88595824D01*
X115743309Y-88814750D01*
X116314187Y-88815248D01*
X116841800Y-88597243D01*
X117245824Y-88193923D01*
X117299862Y-88063785D01*
X117352757Y-88191800D01*
X117756077Y-88595824D01*
X118283309Y-88814750D01*
X118854187Y-88815248D01*
X119381800Y-88597243D01*
X119785824Y-88193923D01*
X119839862Y-88063785D01*
X119892757Y-88191800D01*
X120296077Y-88595824D01*
X120823309Y-88814750D01*
X121394187Y-88815248D01*
X121921800Y-88597243D01*
X122325824Y-88193923D01*
X122379862Y-88063785D01*
X122432757Y-88191800D01*
X122836077Y-88595824D01*
X123363309Y-88814750D01*
X123934187Y-88815248D01*
X124461800Y-88597243D01*
X124865824Y-88193923D01*
X124919862Y-88063785D01*
X124972757Y-88191800D01*
X125376077Y-88595824D01*
X125903309Y-88814750D01*
X126474187Y-88815248D01*
X127001800Y-88597243D01*
X127405824Y-88193923D01*
X127459862Y-88063785D01*
X127512757Y-88191800D01*
X127916077Y-88595824D01*
X128443309Y-88814750D01*
X129014187Y-88815248D01*
X129541800Y-88597243D01*
X129945824Y-88193923D01*
X129999862Y-88063785D01*
X130052757Y-88191800D01*
X130456077Y-88595824D01*
X130983309Y-88814750D01*
X131300172Y-88815026D01*
X125084974Y-95030224D01*
X125085248Y-94715813D01*
X124867243Y-94188200D01*
X124463923Y-93784176D01*
X124333785Y-93730138D01*
X124461800Y-93677243D01*
X124865824Y-93273923D01*
X125084750Y-92746691D01*
X125085248Y-92175813D01*
X124867243Y-91648200D01*
X124463923Y-91244176D01*
X123936691Y-91025250D01*
X123365813Y-91024752D01*
X122838200Y-91242757D01*
X122434176Y-91646077D01*
X122380138Y-91776215D01*
X122327243Y-91648200D01*
X121923923Y-91244176D01*
X121396691Y-91025250D01*
X120825813Y-91024752D01*
X120298200Y-91242757D01*
X119894176Y-91646077D01*
X119840138Y-91776215D01*
X119787243Y-91648200D01*
X119383923Y-91244176D01*
X118856691Y-91025250D01*
X118285813Y-91024752D01*
X117758200Y-91242757D01*
X117354176Y-91646077D01*
X117300138Y-91776215D01*
X117247243Y-91648200D01*
X116843923Y-91244176D01*
X116316691Y-91025250D01*
X115745813Y-91024752D01*
X115218200Y-91242757D01*
X114814176Y-91646077D01*
X114595250Y-92173309D01*
X114594752Y-92744187D01*
X114812757Y-93271800D01*
X115216077Y-93675824D01*
X115346215Y-93729862D01*
X115218200Y-93782757D01*
X114814176Y-94186077D01*
X114595250Y-94713309D01*
X114594752Y-95284187D01*
X114812757Y-95811800D01*
X115216077Y-96215824D01*
X115743309Y-96434750D01*
X116314187Y-96435248D01*
X116841800Y-96217243D01*
X117245824Y-95813923D01*
X117299862Y-95683785D01*
X117352757Y-95811800D01*
X117756077Y-96215824D01*
X118283309Y-96434750D01*
X118854187Y-96435248D01*
X119381800Y-96217243D01*
X119785824Y-95813923D01*
X119839862Y-95683785D01*
X119892757Y-95811800D01*
X120296077Y-96215824D01*
X120823309Y-96434750D01*
X121394187Y-96435248D01*
X121921800Y-96217243D01*
X122325824Y-95813923D01*
X122379862Y-95683785D01*
X122432757Y-95811800D01*
X122836077Y-96215824D01*
X123363309Y-96434750D01*
X123680172Y-96435026D01*
X118908454Y-101206744D01*
X118856691Y-101185250D01*
X118285813Y-101184752D01*
X117758200Y-101402757D01*
X117354176Y-101806077D01*
X117300138Y-101936215D01*
X117247243Y-101808200D01*
X116843923Y-101404176D01*
X116316691Y-101185250D01*
X115745813Y-101184752D01*
X115218200Y-101402757D01*
X114814176Y-101806077D01*
X114760138Y-101936215D01*
X114707243Y-101808200D01*
X114303923Y-101404176D01*
X113776691Y-101185250D01*
X113205813Y-101184752D01*
X112678200Y-101402757D01*
X112274176Y-101806077D01*
X112220138Y-101936215D01*
X112167243Y-101808200D01*
X111763923Y-101404176D01*
X111236691Y-101185250D01*
X110665813Y-101184752D01*
X110138200Y-101402757D01*
X109734176Y-101806077D01*
X109680138Y-101936215D01*
X109627243Y-101808200D01*
X109223923Y-101404176D01*
X108696691Y-101185250D01*
X108125813Y-101184752D01*
X107598200Y-101402757D01*
X107194176Y-101806077D01*
X107140138Y-101936215D01*
X107087243Y-101808200D01*
X106683923Y-101404176D01*
X106156691Y-101185250D01*
X105585813Y-101184752D01*
X105058200Y-101402757D01*
X104654176Y-101806077D01*
X104600138Y-101936215D01*
X104547243Y-101808200D01*
X104143923Y-101404176D01*
X103616691Y-101185250D01*
X103045813Y-101184752D01*
X102619663Y-101360834D01*
X102545424Y-101181606D01*
X102228394Y-100864575D01*
X101814174Y-100693000D01*
X101444750Y-100693000D01*
X101163000Y-100974750D01*
X101163000Y-102247000D01*
X101183000Y-102247000D01*
X101183000Y-102993000D01*
X101163000Y-102993000D01*
X101163000Y-104265250D01*
X101444750Y-104547000D01*
X101814174Y-104547000D01*
X102228394Y-104375425D01*
X102545424Y-104058394D01*
X102619779Y-103878885D01*
X103043309Y-104054750D01*
X103614187Y-104055248D01*
X104141800Y-103837243D01*
X104545824Y-103433923D01*
X104599862Y-103303785D01*
X104652757Y-103431800D01*
X105056077Y-103835824D01*
X105583309Y-104054750D01*
X106154187Y-104055248D01*
X106681800Y-103837243D01*
X107085824Y-103433923D01*
X107139862Y-103303785D01*
X107192757Y-103431800D01*
X107596077Y-103835824D01*
X108123309Y-104054750D01*
X108694187Y-104055248D01*
X109221800Y-103837243D01*
X109625824Y-103433923D01*
X109679862Y-103303785D01*
X109732757Y-103431800D01*
X110136077Y-103835824D01*
X110663309Y-104054750D01*
X111234187Y-104055248D01*
X111761800Y-103837243D01*
X112165824Y-103433923D01*
X112219862Y-103303785D01*
X112272757Y-103431800D01*
X112676077Y-103835824D01*
X113203309Y-104054750D01*
X113774187Y-104055248D01*
X114301800Y-103837243D01*
X114705824Y-103433923D01*
X114759862Y-103303785D01*
X114812757Y-103431800D01*
X115216077Y-103835824D01*
X115743309Y-104054750D01*
X116314187Y-104055248D01*
X116841800Y-103837243D01*
X117245824Y-103433923D01*
X117299862Y-103303785D01*
X117352757Y-103431800D01*
X117756077Y-103835824D01*
X118283309Y-104054750D01*
X118854187Y-104055248D01*
X119381800Y-103837243D01*
X119785824Y-103433923D01*
X119839862Y-103303785D01*
X119892757Y-103431800D01*
X120296077Y-103835824D01*
X120823309Y-104054750D01*
X121394187Y-104055248D01*
X121448149Y-104032951D01*
X124169277Y-106754079D01*
X123865302Y-106957189D01*
X123554233Y-107422736D01*
X123445000Y-107971887D01*
X123445000Y-108028113D01*
X123554233Y-108577264D01*
X123865302Y-109042811D01*
X124330849Y-109353880D01*
X124880000Y-109463113D01*
X125429151Y-109353880D01*
X125894698Y-109042811D01*
X126150000Y-108660725D01*
X126405302Y-109042811D01*
X126870849Y-109353880D01*
X127420000Y-109463113D01*
X127969151Y-109353880D01*
X128434698Y-109042811D01*
X128690000Y-108660725D01*
X128945302Y-109042811D01*
X129410849Y-109353880D01*
X129960000Y-109463113D01*
X130509151Y-109353880D01*
X130974698Y-109042811D01*
X131071101Y-108898535D01*
X131096838Y-109035317D01*
X131235910Y-109251441D01*
X131448110Y-109396431D01*
X131700000Y-109447440D01*
X133300000Y-109447440D01*
X133535317Y-109403162D01*
X133751441Y-109264090D01*
X133896431Y-109051890D01*
X133947440Y-108800000D01*
X133947440Y-107570700D01*
X140750598Y-107570700D01*
X141217299Y-108037401D01*
X141463860Y-108202148D01*
X141512114Y-108211746D01*
X141664321Y-108242022D01*
X141865302Y-108542811D01*
X142330849Y-108853880D01*
X142880000Y-108963113D01*
X143429151Y-108853880D01*
X143894698Y-108542811D01*
X144150000Y-108160725D01*
X144405302Y-108542811D01*
X144870849Y-108853880D01*
X145420000Y-108963113D01*
X145969151Y-108853880D01*
X146434698Y-108542811D01*
X146690000Y-108160725D01*
X146945302Y-108542811D01*
X147410849Y-108853880D01*
X147960000Y-108963113D01*
X148509151Y-108853880D01*
X148974698Y-108542811D01*
X149071101Y-108398535D01*
X149096838Y-108535317D01*
X149235910Y-108751441D01*
X149448110Y-108896431D01*
X149700000Y-108947440D01*
X151300000Y-108947440D01*
X151535317Y-108903162D01*
X151751441Y-108764090D01*
X151896431Y-108551890D01*
X151947440Y-108300000D01*
X151947440Y-106700000D01*
X151935153Y-106634700D01*
X157314598Y-106634700D01*
X158217299Y-107537401D01*
X158463861Y-107702148D01*
X158664321Y-107742022D01*
X158865302Y-108042811D01*
X159330849Y-108353880D01*
X159880000Y-108463113D01*
X160429151Y-108353880D01*
X160894698Y-108042811D01*
X161150000Y-107660725D01*
X161405302Y-108042811D01*
X161870849Y-108353880D01*
X162420000Y-108463113D01*
X162969151Y-108353880D01*
X163434698Y-108042811D01*
X163690000Y-107660725D01*
X163945302Y-108042811D01*
X164410849Y-108353880D01*
X164960000Y-108463113D01*
X165509151Y-108353880D01*
X165974698Y-108042811D01*
X166071101Y-107898535D01*
X166096838Y-108035317D01*
X166235910Y-108251441D01*
X166448110Y-108396431D01*
X166700000Y-108447440D01*
X168300000Y-108447440D01*
X168535317Y-108403162D01*
X168751441Y-108264090D01*
X168896431Y-108051890D01*
X168947440Y-107800000D01*
X168947440Y-106200000D01*
X168903162Y-105964683D01*
X168764090Y-105748559D01*
X168551890Y-105603569D01*
X168300000Y-105552560D01*
X166700000Y-105552560D01*
X166464683Y-105596838D01*
X166248559Y-105735910D01*
X166103569Y-105948110D01*
X166072185Y-106103089D01*
X165974698Y-105957189D01*
X165509151Y-105646120D01*
X164960000Y-105536887D01*
X164410849Y-105646120D01*
X163945302Y-105957189D01*
X163690000Y-106339275D01*
X163434698Y-105957189D01*
X162969151Y-105646120D01*
X162420000Y-105536887D01*
X161870849Y-105646120D01*
X161405302Y-105957189D01*
X161150000Y-106339275D01*
X160894698Y-105957189D01*
X160429151Y-105646120D01*
X159880000Y-105536887D01*
X159330849Y-105646120D01*
X158865302Y-105957189D01*
X158833815Y-106004313D01*
X158166801Y-105337299D01*
X157920239Y-105172552D01*
X157629400Y-105114700D01*
X127219502Y-105114700D01*
X126159776Y-104054974D01*
X126474187Y-104055248D01*
X127001800Y-103837243D01*
X127405824Y-103433923D01*
X127459862Y-103303785D01*
X127512757Y-103431800D01*
X127916077Y-103835824D01*
X128443309Y-104054750D01*
X129014187Y-104055248D01*
X129541800Y-103837243D01*
X129945824Y-103433923D01*
X129999862Y-103303785D01*
X130052757Y-103431800D01*
X130456077Y-103835824D01*
X130983309Y-104054750D01*
X131554187Y-104055248D01*
X132081800Y-103837243D01*
X132485824Y-103433923D01*
X132539862Y-103303785D01*
X132592757Y-103431800D01*
X132996077Y-103835824D01*
X133523309Y-104054750D01*
X134094187Y-104055248D01*
X134621800Y-103837243D01*
X135025824Y-103433923D01*
X135079862Y-103303785D01*
X135132757Y-103431800D01*
X135536077Y-103835824D01*
X136063309Y-104054750D01*
X136634187Y-104055248D01*
X137161800Y-103837243D01*
X137565824Y-103433923D01*
X137619862Y-103303785D01*
X137672757Y-103431800D01*
X138076077Y-103835824D01*
X138603309Y-104054750D01*
X139174187Y-104055248D01*
X139701800Y-103837243D01*
X140105824Y-103433923D01*
X140159862Y-103303785D01*
X140212757Y-103431800D01*
X140616077Y-103835824D01*
X141143309Y-104054750D01*
X141714187Y-104055248D01*
X142241800Y-103837243D01*
X142645824Y-103433923D01*
X142699862Y-103303785D01*
X142752757Y-103431800D01*
X143156077Y-103835824D01*
X143683309Y-104054750D01*
X144254187Y-104055248D01*
X144781800Y-103837243D01*
X145185824Y-103433923D01*
X145239862Y-103303785D01*
X145292757Y-103431800D01*
X145696077Y-103835824D01*
X146223309Y-104054750D01*
X146794187Y-104055248D01*
X147321800Y-103837243D01*
X147725824Y-103433923D01*
X147779862Y-103303785D01*
X147832757Y-103431800D01*
X148236077Y-103835824D01*
X148763309Y-104054750D01*
X149334187Y-104055248D01*
X149861800Y-103837243D01*
X150265824Y-103433923D01*
X150319862Y-103303785D01*
X150372757Y-103431800D01*
X150776077Y-103835824D01*
X151303309Y-104054750D01*
X151874187Y-104055248D01*
X152401800Y-103837243D01*
X152805824Y-103433923D01*
X152859862Y-103303785D01*
X152912757Y-103431800D01*
X153316077Y-103835824D01*
X153843309Y-104054750D01*
X154414187Y-104055248D01*
X154941800Y-103837243D01*
X155345824Y-103433923D01*
X155399862Y-103303785D01*
X155452757Y-103431800D01*
X155856077Y-103835824D01*
X156383309Y-104054750D01*
X156954187Y-104055248D01*
X157481800Y-103837243D01*
X157885824Y-103433923D01*
X157939862Y-103303785D01*
X157992757Y-103431800D01*
X158396077Y-103835824D01*
X158923309Y-104054750D01*
X159494187Y-104055248D01*
X160021800Y-103837243D01*
X160425824Y-103433923D01*
X160644750Y-102906691D01*
X160645248Y-102335813D01*
X160427243Y-101808200D01*
X160023923Y-101404176D01*
X159496691Y-101185250D01*
X158925813Y-101184752D01*
X158398200Y-101402757D01*
X157994176Y-101806077D01*
X157940138Y-101936215D01*
X157887243Y-101808200D01*
X157483923Y-101404176D01*
X156956691Y-101185250D01*
X156385813Y-101184752D01*
X155858200Y-101402757D01*
X155454176Y-101806077D01*
X155400138Y-101936215D01*
X155347243Y-101808200D01*
X154943923Y-101404176D01*
X154416691Y-101185250D01*
X153845813Y-101184752D01*
X153318200Y-101402757D01*
X152914176Y-101806077D01*
X152860138Y-101936215D01*
X152807243Y-101808200D01*
X152403923Y-101404176D01*
X151876691Y-101185250D01*
X151305813Y-101184752D01*
X150778200Y-101402757D01*
X150374176Y-101806077D01*
X150320138Y-101936215D01*
X150267243Y-101808200D01*
X149863923Y-101404176D01*
X149336691Y-101185250D01*
X148765813Y-101184752D01*
X148238200Y-101402757D01*
X147834176Y-101806077D01*
X147780138Y-101936215D01*
X147727243Y-101808200D01*
X147323923Y-101404176D01*
X147193785Y-101350138D01*
X147321800Y-101297243D01*
X147725824Y-100893923D01*
X147944750Y-100366691D01*
X147945248Y-99795813D01*
X147727243Y-99268200D01*
X147323923Y-98864176D01*
X147193785Y-98810138D01*
X147321800Y-98757243D01*
X147683567Y-98396106D01*
X173631396Y-98396106D01*
X173691117Y-98747918D01*
X174421589Y-98924411D01*
X175163997Y-98807931D01*
X175308883Y-98747918D01*
X175368604Y-98396106D01*
X174500000Y-97527502D01*
X173631396Y-98396106D01*
X147683567Y-98396106D01*
X147725824Y-98353923D01*
X147944750Y-97826691D01*
X147945248Y-97255813D01*
X147807150Y-96921589D01*
X172575589Y-96921589D01*
X172692069Y-97663997D01*
X172752082Y-97808883D01*
X173103894Y-97868604D01*
X173972498Y-97000000D01*
X175027502Y-97000000D01*
X175896106Y-97868604D01*
X176247918Y-97808883D01*
X176376510Y-97276661D01*
X178102758Y-97276661D01*
X178314990Y-97790303D01*
X178707630Y-98183629D01*
X179220900Y-98396757D01*
X179776661Y-98397242D01*
X180290303Y-98185010D01*
X180683629Y-97792370D01*
X180896757Y-97279100D01*
X180897242Y-96723339D01*
X180685010Y-96209697D01*
X180292370Y-95816371D01*
X179779100Y-95603243D01*
X179223339Y-95602758D01*
X178709697Y-95814990D01*
X178316371Y-96207630D01*
X178103243Y-96720900D01*
X178102758Y-97276661D01*
X176376510Y-97276661D01*
X176424411Y-97078411D01*
X176307931Y-96336003D01*
X176247918Y-96191117D01*
X175896106Y-96131396D01*
X175027502Y-97000000D01*
X173972498Y-97000000D01*
X173103894Y-96131396D01*
X172752082Y-96191117D01*
X172575589Y-96921589D01*
X147807150Y-96921589D01*
X147727243Y-96728200D01*
X147323923Y-96324176D01*
X147193785Y-96270138D01*
X147321800Y-96217243D01*
X147725824Y-95813923D01*
X147779862Y-95683785D01*
X147832757Y-95811800D01*
X148236077Y-96215824D01*
X148763309Y-96434750D01*
X149334187Y-96435248D01*
X149861800Y-96217243D01*
X150265824Y-95813923D01*
X150319862Y-95683785D01*
X150372757Y-95811800D01*
X150776077Y-96215824D01*
X151303309Y-96434750D01*
X151874187Y-96435248D01*
X152401800Y-96217243D01*
X152805824Y-95813923D01*
X152859862Y-95683785D01*
X152912757Y-95811800D01*
X153316077Y-96215824D01*
X153843309Y-96434750D01*
X154414187Y-96435248D01*
X154941800Y-96217243D01*
X155345824Y-95813923D01*
X155399862Y-95683785D01*
X155452757Y-95811800D01*
X155856077Y-96215824D01*
X156383309Y-96434750D01*
X156954187Y-96435248D01*
X157481800Y-96217243D01*
X157885824Y-95813923D01*
X157939862Y-95683785D01*
X157992757Y-95811800D01*
X158396077Y-96215824D01*
X158923309Y-96434750D01*
X159494187Y-96435248D01*
X160021800Y-96217243D01*
X160425824Y-95813923D01*
X160644750Y-95286691D01*
X160645248Y-94715813D01*
X160463795Y-94276661D01*
X173102758Y-94276661D01*
X173314990Y-94790303D01*
X173707630Y-95183629D01*
X173781912Y-95214474D01*
X173691117Y-95252082D01*
X173631396Y-95603894D01*
X174500000Y-96472498D01*
X175368604Y-95603894D01*
X175308883Y-95252082D01*
X175194728Y-95224501D01*
X175290303Y-95185010D01*
X175683629Y-94792370D01*
X175896757Y-94279100D01*
X175896759Y-94276661D01*
X178102758Y-94276661D01*
X178314990Y-94790303D01*
X178707630Y-95183629D01*
X179220900Y-95396757D01*
X179776661Y-95397242D01*
X180290303Y-95185010D01*
X180683629Y-94792370D01*
X180896757Y-94279100D01*
X180897242Y-93723339D01*
X180685010Y-93209697D01*
X180292370Y-92816371D01*
X179779100Y-92603243D01*
X179223339Y-92602758D01*
X178709697Y-92814990D01*
X178316371Y-93207630D01*
X178103243Y-93720900D01*
X178102758Y-94276661D01*
X175896759Y-94276661D01*
X175897242Y-93723339D01*
X175685010Y-93209697D01*
X175292370Y-92816371D01*
X174779100Y-92603243D01*
X174223339Y-92602758D01*
X173709697Y-92814990D01*
X173316371Y-93207630D01*
X173103243Y-93720900D01*
X173102758Y-94276661D01*
X160463795Y-94276661D01*
X160427243Y-94188200D01*
X160023923Y-93784176D01*
X159893785Y-93730138D01*
X160021800Y-93677243D01*
X160425824Y-93273923D01*
X160644750Y-92746691D01*
X160645248Y-92175813D01*
X160427243Y-91648200D01*
X160023923Y-91244176D01*
X159496691Y-91025250D01*
X158925813Y-91024752D01*
X158398200Y-91242757D01*
X157994176Y-91646077D01*
X157940138Y-91776215D01*
X157887243Y-91648200D01*
X157483923Y-91244176D01*
X156956691Y-91025250D01*
X156385813Y-91024752D01*
X155858200Y-91242757D01*
X155454176Y-91646077D01*
X155400138Y-91776215D01*
X155347243Y-91648200D01*
X154943923Y-91244176D01*
X154416691Y-91025250D01*
X153845813Y-91024752D01*
X153318200Y-91242757D01*
X152914176Y-91646077D01*
X152860138Y-91776215D01*
X152807243Y-91648200D01*
X152403923Y-91244176D01*
X151876691Y-91025250D01*
X151305813Y-91024752D01*
X150778200Y-91242757D01*
X150374176Y-91646077D01*
X150320138Y-91776215D01*
X150267243Y-91648200D01*
X149863923Y-91244176D01*
X149336691Y-91025250D01*
X148765813Y-91024752D01*
X148238200Y-91242757D01*
X147834176Y-91646077D01*
X147780138Y-91776215D01*
X147727243Y-91648200D01*
X147323923Y-91244176D01*
X147193785Y-91190138D01*
X147321800Y-91137243D01*
X147725824Y-90733923D01*
X147944750Y-90206691D01*
X147945248Y-89635813D01*
X147851944Y-89410000D01*
X151959400Y-89410000D01*
X152250239Y-89352148D01*
X152496801Y-89187401D01*
X153202327Y-88481875D01*
X153316077Y-88595824D01*
X153843309Y-88814750D01*
X154414187Y-88815248D01*
X154941800Y-88597243D01*
X155345824Y-88193923D01*
X155399862Y-88063785D01*
X155452757Y-88191800D01*
X155856077Y-88595824D01*
X156383309Y-88814750D01*
X156954187Y-88815248D01*
X157481800Y-88597243D01*
X157885824Y-88193923D01*
X157939862Y-88063785D01*
X157992757Y-88191800D01*
X158396077Y-88595824D01*
X158923309Y-88814750D01*
X159494187Y-88815248D01*
X160021800Y-88597243D01*
X160425824Y-88193923D01*
X160644750Y-87666691D01*
X160645248Y-87095813D01*
X160427243Y-86568200D01*
X160023923Y-86164176D01*
X159496691Y-85945250D01*
X158925813Y-85944752D01*
X158398200Y-86162757D01*
X157994176Y-86566077D01*
X157940138Y-86696215D01*
X157887243Y-86568200D01*
X157483923Y-86164176D01*
X156956691Y-85945250D01*
X156385813Y-85944752D01*
X155858200Y-86162757D01*
X155454176Y-86566077D01*
X155400138Y-86696215D01*
X155347243Y-86568200D01*
X154943923Y-86164176D01*
X154816738Y-86111364D01*
X156542802Y-84385300D01*
X161150800Y-84385300D01*
X161441639Y-84327448D01*
X161688201Y-84162701D01*
X162226865Y-83624037D01*
X162570849Y-83853880D01*
X163120000Y-83963113D01*
X163669151Y-83853880D01*
X164134698Y-83542811D01*
X164445767Y-83077264D01*
X164555000Y-82528113D01*
X164555000Y-82471887D01*
X164445767Y-81922736D01*
X164134698Y-81457189D01*
X163669151Y-81146120D01*
X163120000Y-81036887D01*
X162570849Y-81146120D01*
X162105302Y-81457189D01*
X161904321Y-81757978D01*
X161808424Y-81777053D01*
X161594698Y-81457189D01*
X161129151Y-81146120D01*
X160580000Y-81036887D01*
X160030849Y-81146120D01*
X159565302Y-81457189D01*
X159310000Y-81839275D01*
X159054698Y-81457189D01*
X158589151Y-81146120D01*
X158040000Y-81036887D01*
X157490849Y-81146120D01*
X157025302Y-81457189D01*
X156928899Y-81601465D01*
X156903162Y-81464683D01*
X156764090Y-81248559D01*
X156551890Y-81103569D01*
X156300000Y-81052560D01*
X154700000Y-81052560D01*
X154464683Y-81096838D01*
X154248559Y-81235910D01*
X154103569Y-81448110D01*
X154052560Y-81700000D01*
X154052560Y-83300000D01*
X154096838Y-83535317D01*
X154235910Y-83751441D01*
X154448110Y-83896431D01*
X154700000Y-83947440D01*
X154831058Y-83947440D01*
X152509031Y-86269467D01*
X152403923Y-86164176D01*
X151876691Y-85945250D01*
X151305813Y-85944752D01*
X150778200Y-86162757D01*
X150374176Y-86566077D01*
X150320138Y-86696215D01*
X150267243Y-86568200D01*
X149863923Y-86164176D01*
X149336691Y-85945250D01*
X148765813Y-85944752D01*
X148238200Y-86162757D01*
X147834176Y-86566077D01*
X147780138Y-86696215D01*
X147727243Y-86568200D01*
X147323923Y-86164176D01*
X146796691Y-85945250D01*
X146225813Y-85944752D01*
X145698200Y-86162757D01*
X145294176Y-86566077D01*
X145240138Y-86696215D01*
X145187243Y-86568200D01*
X144783923Y-86164176D01*
X144256691Y-85945250D01*
X143905858Y-85944944D01*
X146226805Y-83623997D01*
X146570849Y-83853880D01*
X147120000Y-83963113D01*
X147669151Y-83853880D01*
X148134698Y-83542811D01*
X148445767Y-83077264D01*
X148555000Y-82528113D01*
X148555000Y-82471887D01*
X148445767Y-81922736D01*
X148134698Y-81457189D01*
X147669151Y-81146120D01*
X147120000Y-81036887D01*
X146570849Y-81146120D01*
X146105302Y-81457189D01*
X145904321Y-81757978D01*
X145808424Y-81777053D01*
X145594698Y-81457189D01*
X145129151Y-81146120D01*
X144580000Y-81036887D01*
X144030849Y-81146120D01*
X143565302Y-81457189D01*
X143310000Y-81839275D01*
X143054698Y-81457189D01*
X142589151Y-81146120D01*
X142040000Y-81036887D01*
X141490849Y-81146120D01*
X141025302Y-81457189D01*
X140928899Y-81601465D01*
X140903162Y-81464683D01*
X140764090Y-81248559D01*
X140551890Y-81103569D01*
X140300000Y-81052560D01*
X138700000Y-81052560D01*
X138464683Y-81096838D01*
X138248559Y-81235910D01*
X138103569Y-81448110D01*
X138052560Y-81700000D01*
X138052560Y-83300000D01*
X138096838Y-83535317D01*
X138235910Y-83751441D01*
X138448110Y-83896431D01*
X138700000Y-83947440D01*
X140300000Y-83947440D01*
X140535317Y-83903162D01*
X140751441Y-83764090D01*
X140896431Y-83551890D01*
X140927815Y-83396911D01*
X141025302Y-83542811D01*
X141490849Y-83853880D01*
X142040000Y-83963113D01*
X142589151Y-83853880D01*
X143054698Y-83542811D01*
X143310000Y-83160725D01*
X143565302Y-83542811D01*
X143920830Y-83780368D01*
X143032398Y-84668800D01*
X117981200Y-84668800D01*
X117690361Y-84726652D01*
X117443799Y-84891398D01*
X116368454Y-85966744D01*
X116316691Y-85945250D01*
X115999828Y-85944974D01*
X117559502Y-84385300D01*
X128150800Y-84385300D01*
X128441639Y-84327448D01*
X128688201Y-84162701D01*
X129226865Y-83624037D01*
X129570849Y-83853880D01*
X130120000Y-83963113D01*
X130669151Y-83853880D01*
X131134698Y-83542811D01*
X131445767Y-83077264D01*
X131555000Y-82528113D01*
X131555000Y-82471887D01*
X131445767Y-81922736D01*
X131134698Y-81457189D01*
X130669151Y-81146120D01*
X130120000Y-81036887D01*
X129570849Y-81146120D01*
X129105302Y-81457189D01*
X128904321Y-81757978D01*
X128808424Y-81777053D01*
X128594698Y-81457189D01*
X128129151Y-81146120D01*
X127580000Y-81036887D01*
X127030849Y-81146120D01*
X126565302Y-81457189D01*
X126310000Y-81839275D01*
X126054698Y-81457189D01*
X125589151Y-81146120D01*
X125040000Y-81036887D01*
X124490849Y-81146120D01*
X124025302Y-81457189D01*
X123928899Y-81601465D01*
X123903162Y-81464683D01*
X123764090Y-81248559D01*
X123551890Y-81103569D01*
X123300000Y-81052560D01*
X121700000Y-81052560D01*
X121464683Y-81096838D01*
X121248559Y-81235910D01*
X121103569Y-81448110D01*
X121052560Y-81700000D01*
X121052560Y-82865300D01*
X117244700Y-82865300D01*
X116953861Y-82923152D01*
X116707299Y-83087899D01*
X113828454Y-85966744D01*
X113776691Y-85945250D01*
X113205813Y-85944752D01*
X112678200Y-86162757D01*
X112274176Y-86566077D01*
X112220138Y-86696215D01*
X112167243Y-86568200D01*
X111763923Y-86164176D01*
X111236691Y-85945250D01*
X110665813Y-85944752D01*
X110138200Y-86162757D01*
X109734176Y-86566077D01*
X109680138Y-86696215D01*
X109627243Y-86568200D01*
X109223923Y-86164176D01*
X108696691Y-85945250D01*
X108125813Y-85944752D01*
X107598200Y-86162757D01*
X107194176Y-86566077D01*
X107140138Y-86696215D01*
X107087243Y-86568200D01*
X106683923Y-86164176D01*
X106156691Y-85945250D01*
X105585813Y-85944752D01*
X105058200Y-86162757D01*
X104654176Y-86566077D01*
X104600138Y-86696215D01*
X104547243Y-86568200D01*
X104143923Y-86164176D01*
X103616691Y-85945250D01*
X103045813Y-85944752D01*
X102518200Y-86162757D01*
X102114176Y-86566077D01*
X102060138Y-86696215D01*
X102007243Y-86568200D01*
X101603923Y-86164176D01*
X101076691Y-85945250D01*
X100505813Y-85944752D01*
X99978200Y-86162757D01*
X99574176Y-86566077D01*
X99355250Y-87093309D01*
X99354752Y-87664187D01*
X95710000Y-87664187D01*
X95710000Y-81700000D01*
X106052560Y-81700000D01*
X106052560Y-83300000D01*
X106096838Y-83535317D01*
X106235910Y-83751441D01*
X106448110Y-83896431D01*
X106700000Y-83947440D01*
X108300000Y-83947440D01*
X108535317Y-83903162D01*
X108751441Y-83764090D01*
X108896431Y-83551890D01*
X108927815Y-83396911D01*
X109025302Y-83542811D01*
X109490849Y-83853880D01*
X110040000Y-83963113D01*
X110589151Y-83853880D01*
X111054698Y-83542811D01*
X111310000Y-83160725D01*
X111565302Y-83542811D01*
X112030849Y-83853880D01*
X112580000Y-83963113D01*
X113129151Y-83853880D01*
X113594698Y-83542811D01*
X113850000Y-83160725D01*
X114105302Y-83542811D01*
X114570849Y-83853880D01*
X115120000Y-83963113D01*
X115669151Y-83853880D01*
X116134698Y-83542811D01*
X116445767Y-83077264D01*
X116555000Y-82528113D01*
X116555000Y-82471887D01*
X116445767Y-81922736D01*
X116134698Y-81457189D01*
X115669151Y-81146120D01*
X115120000Y-81036887D01*
X114570849Y-81146120D01*
X114105302Y-81457189D01*
X113850000Y-81839275D01*
X113594698Y-81457189D01*
X113129151Y-81146120D01*
X112580000Y-81036887D01*
X112030849Y-81146120D01*
X111565302Y-81457189D01*
X111310000Y-81839275D01*
X111054698Y-81457189D01*
X110589151Y-81146120D01*
X110040000Y-81036887D01*
X109490849Y-81146120D01*
X109025302Y-81457189D01*
X108928899Y-81601465D01*
X108903162Y-81464683D01*
X108764090Y-81248559D01*
X108551890Y-81103569D01*
X108300000Y-81052560D01*
X106700000Y-81052560D01*
X106464683Y-81096838D01*
X106248559Y-81235910D01*
X106103569Y-81448110D01*
X106052560Y-81700000D01*
X95710000Y-81700000D01*
X95710000Y-79100000D01*
X116952560Y-79100000D01*
X116952560Y-80400000D01*
X116996838Y-80635317D01*
X117135910Y-80851441D01*
X117348110Y-80996431D01*
X117600000Y-81047440D01*
X118900000Y-81047440D01*
X119135317Y-81003162D01*
X119351441Y-80864090D01*
X119496431Y-80651890D01*
X119547440Y-80400000D01*
X119547440Y-79350000D01*
X132202560Y-79350000D01*
X132202560Y-80650000D01*
X132246838Y-80885317D01*
X132385910Y-81101441D01*
X132598110Y-81246431D01*
X132850000Y-81297440D01*
X134150000Y-81297440D01*
X134385317Y-81253162D01*
X134601441Y-81114090D01*
X134746431Y-80901890D01*
X134797440Y-80650000D01*
X134797440Y-79350000D01*
X149202560Y-79350000D01*
X149202560Y-80650000D01*
X149246838Y-80885317D01*
X149385910Y-81101441D01*
X149598110Y-81246431D01*
X149850000Y-81297440D01*
X151150000Y-81297440D01*
X151385317Y-81253162D01*
X151601441Y-81114090D01*
X151746431Y-80901890D01*
X151797440Y-80650000D01*
X151797440Y-79350000D01*
X165202560Y-79350000D01*
X165202560Y-80650000D01*
X165246838Y-80885317D01*
X165385910Y-81101441D01*
X165598110Y-81246431D01*
X165850000Y-81297440D01*
X167150000Y-81297440D01*
X167385317Y-81253162D01*
X167601441Y-81114090D01*
X167746431Y-80901890D01*
X167797440Y-80650000D01*
X167797440Y-79350000D01*
X167753162Y-79114683D01*
X167614090Y-78898559D01*
X167401890Y-78753569D01*
X167266541Y-78726160D01*
X166500000Y-77959619D01*
X165735518Y-78724101D01*
X165614683Y-78746838D01*
X165398559Y-78885910D01*
X165253569Y-79098110D01*
X165202560Y-79350000D01*
X151797440Y-79350000D01*
X151753162Y-79114683D01*
X151614090Y-78898559D01*
X151401890Y-78753569D01*
X151266541Y-78726160D01*
X150500000Y-77959619D01*
X149735518Y-78724101D01*
X149614683Y-78746838D01*
X149398559Y-78885910D01*
X149253569Y-79098110D01*
X149202560Y-79350000D01*
X134797440Y-79350000D01*
X134753162Y-79114683D01*
X134614090Y-78898559D01*
X134401890Y-78753569D01*
X134266541Y-78726160D01*
X133500000Y-77959619D01*
X132735518Y-78724101D01*
X132614683Y-78746838D01*
X132398559Y-78885910D01*
X132253569Y-79098110D01*
X132202560Y-79350000D01*
X119547440Y-79350000D01*
X119547440Y-79100000D01*
X119503162Y-78864683D01*
X119364090Y-78648559D01*
X119151890Y-78503569D01*
X119016541Y-78476160D01*
X118250000Y-77709619D01*
X117485518Y-78474101D01*
X117364683Y-78496838D01*
X117148559Y-78635910D01*
X117003569Y-78848110D01*
X116952560Y-79100000D01*
X95710000Y-79100000D01*
X95710000Y-77149921D01*
X116440953Y-77149921D01*
X116540360Y-77849832D01*
X116616957Y-78034753D01*
X116962961Y-78077420D01*
X117790381Y-77250000D01*
X118709619Y-77250000D01*
X119537039Y-78077420D01*
X119883043Y-78034753D01*
X120046234Y-77399921D01*
X131690953Y-77399921D01*
X131790360Y-78099832D01*
X131866957Y-78284753D01*
X132212961Y-78327420D01*
X133040381Y-77500000D01*
X133959619Y-77500000D01*
X134787039Y-78327420D01*
X135133043Y-78284753D01*
X135309047Y-77600079D01*
X135280619Y-77399921D01*
X148690953Y-77399921D01*
X148790360Y-78099832D01*
X148866957Y-78284753D01*
X149212961Y-78327420D01*
X150040381Y-77500000D01*
X150959619Y-77500000D01*
X151787039Y-78327420D01*
X152133043Y-78284753D01*
X152309047Y-77600079D01*
X152280619Y-77399921D01*
X164690953Y-77399921D01*
X164790360Y-78099832D01*
X164866957Y-78284753D01*
X165212961Y-78327420D01*
X166040381Y-77500000D01*
X166959619Y-77500000D01*
X167787039Y-78327420D01*
X168133043Y-78284753D01*
X168309047Y-77600079D01*
X168209640Y-76900168D01*
X168133043Y-76715247D01*
X167787039Y-76672580D01*
X166959619Y-77500000D01*
X166040381Y-77500000D01*
X165212961Y-76672580D01*
X164866957Y-76715247D01*
X164690953Y-77399921D01*
X152280619Y-77399921D01*
X152209640Y-76900168D01*
X152133043Y-76715247D01*
X151787039Y-76672580D01*
X150959619Y-77500000D01*
X150040381Y-77500000D01*
X149212961Y-76672580D01*
X148866957Y-76715247D01*
X148690953Y-77399921D01*
X135280619Y-77399921D01*
X135209640Y-76900168D01*
X135133043Y-76715247D01*
X134787039Y-76672580D01*
X133959619Y-77500000D01*
X133040381Y-77500000D01*
X132212961Y-76672580D01*
X131866957Y-76715247D01*
X131690953Y-77399921D01*
X120046234Y-77399921D01*
X120059047Y-77350079D01*
X119959640Y-76650168D01*
X119883043Y-76465247D01*
X119537039Y-76422580D01*
X118709619Y-77250000D01*
X117790381Y-77250000D01*
X116962961Y-76422580D01*
X116616957Y-76465247D01*
X116440953Y-77149921D01*
X95710000Y-77149921D01*
X95710000Y-70818894D01*
X95864284Y-70818894D01*
X96492474Y-72339229D01*
X97654653Y-73503438D01*
X99173889Y-74134280D01*
X100818894Y-74135716D01*
X102339229Y-73507526D01*
X103503438Y-72345347D01*
X104134280Y-70826111D01*
X104135716Y-69181106D01*
X103507526Y-67660771D01*
X102345347Y-66496562D01*
X102178356Y-66427221D01*
X105250280Y-66427221D01*
X105308449Y-66777827D01*
X106034501Y-66952284D01*
X106772047Y-66835613D01*
X106911551Y-66777827D01*
X106969720Y-66427221D01*
X106110000Y-65567502D01*
X105250280Y-66427221D01*
X102178356Y-66427221D01*
X100826111Y-65865720D01*
X99181106Y-65864284D01*
X97660771Y-66492474D01*
X96496562Y-67654653D01*
X95865720Y-69173889D01*
X95864284Y-70818894D01*
X95710000Y-70818894D01*
X95710000Y-64964501D01*
X104197716Y-64964501D01*
X104314387Y-65702047D01*
X104372173Y-65841551D01*
X104722779Y-65899720D01*
X105582498Y-65040000D01*
X104722779Y-64180280D01*
X104372173Y-64238449D01*
X104197716Y-64964501D01*
X95710000Y-64964501D01*
X95710000Y-63652779D01*
X105250280Y-63652779D01*
X106110000Y-64512498D01*
X106124142Y-64498356D01*
X106651644Y-65025858D01*
X106637502Y-65040000D01*
X107497221Y-65899720D01*
X107543566Y-65892031D01*
X107864436Y-66213461D01*
X108373298Y-66424759D01*
X108924285Y-66425240D01*
X109433515Y-66214831D01*
X109823461Y-65825564D01*
X109919976Y-65593130D01*
X110015169Y-65823515D01*
X110404436Y-66213461D01*
X110913298Y-66424759D01*
X111270127Y-66425071D01*
X109443439Y-68251759D01*
X109307073Y-68115154D01*
X108706547Y-67865794D01*
X108056306Y-67865226D01*
X107455345Y-68113538D01*
X106995154Y-68572927D01*
X106745794Y-69173453D01*
X106745226Y-69823694D01*
X106993538Y-70424655D01*
X107452927Y-70884846D01*
X108053453Y-71134206D01*
X108510000Y-71134605D01*
X108510000Y-72984700D01*
X108567852Y-73275539D01*
X108732599Y-73522101D01*
X109038721Y-73828223D01*
X109025302Y-73837189D01*
X108770000Y-74219275D01*
X108514698Y-73837189D01*
X108049151Y-73526120D01*
X107500000Y-73416887D01*
X106950849Y-73526120D01*
X106485302Y-73837189D01*
X106174233Y-74302736D01*
X106065000Y-74851887D01*
X106065000Y-74908113D01*
X106174233Y-75457264D01*
X106485302Y-75922811D01*
X106950849Y-76233880D01*
X107500000Y-76343113D01*
X108049151Y-76233880D01*
X108514698Y-75922811D01*
X108770000Y-75540725D01*
X109025302Y-75922811D01*
X109490849Y-76233880D01*
X110040000Y-76343113D01*
X110589151Y-76233880D01*
X111054698Y-75922811D01*
X111310000Y-75540725D01*
X111565302Y-75922811D01*
X112030849Y-76233880D01*
X112580000Y-76343113D01*
X113129151Y-76233880D01*
X113557467Y-75947688D01*
X113702909Y-76185859D01*
X114310509Y-76628754D01*
X114455844Y-76688929D01*
X114747000Y-76482410D01*
X114747000Y-75253000D01*
X115493000Y-75253000D01*
X115493000Y-76482410D01*
X115784156Y-76688929D01*
X115929491Y-76628754D01*
X116537091Y-76185859D01*
X116673206Y-75962961D01*
X117422580Y-75962961D01*
X118250000Y-76790381D01*
X119077420Y-75962961D01*
X119034753Y-75616957D01*
X118350079Y-75440953D01*
X117650168Y-75540360D01*
X117465247Y-75616957D01*
X117422580Y-75962961D01*
X116673206Y-75962961D01*
X116928952Y-75544159D01*
X116728828Y-75253000D01*
X115493000Y-75253000D01*
X114747000Y-75253000D01*
X114727000Y-75253000D01*
X114727000Y-74851887D01*
X121065000Y-74851887D01*
X121065000Y-74908113D01*
X121174233Y-75457264D01*
X121485302Y-75922811D01*
X121950849Y-76233880D01*
X122500000Y-76343113D01*
X123049151Y-76233880D01*
X123514698Y-75922811D01*
X123770000Y-75540725D01*
X124025302Y-75922811D01*
X124490849Y-76233880D01*
X125040000Y-76343113D01*
X125589151Y-76233880D01*
X126054698Y-75922811D01*
X126310000Y-75540725D01*
X126565302Y-75922811D01*
X127030849Y-76233880D01*
X127580000Y-76343113D01*
X128129151Y-76233880D01*
X128557467Y-75947688D01*
X128702909Y-76185859D01*
X129310509Y-76628754D01*
X129455844Y-76688929D01*
X129747000Y-76482410D01*
X129747000Y-75253000D01*
X130493000Y-75253000D01*
X130493000Y-76482410D01*
X130784156Y-76688929D01*
X130929491Y-76628754D01*
X131499910Y-76212961D01*
X132672580Y-76212961D01*
X133500000Y-77040381D01*
X134327420Y-76212961D01*
X134284753Y-75866957D01*
X133600079Y-75690953D01*
X132900168Y-75790360D01*
X132715247Y-75866957D01*
X132672580Y-76212961D01*
X131499910Y-76212961D01*
X131537091Y-76185859D01*
X131928952Y-75544159D01*
X131728828Y-75253000D01*
X130493000Y-75253000D01*
X129747000Y-75253000D01*
X129727000Y-75253000D01*
X129727000Y-74851887D01*
X138065000Y-74851887D01*
X138065000Y-74908113D01*
X138174233Y-75457264D01*
X138485302Y-75922811D01*
X138950849Y-76233880D01*
X139500000Y-76343113D01*
X140049151Y-76233880D01*
X140514698Y-75922811D01*
X140770000Y-75540725D01*
X141025302Y-75922811D01*
X141490849Y-76233880D01*
X142040000Y-76343113D01*
X142589151Y-76233880D01*
X143054698Y-75922811D01*
X143310000Y-75540725D01*
X143565302Y-75922811D01*
X144030849Y-76233880D01*
X144580000Y-76343113D01*
X145129151Y-76233880D01*
X145557467Y-75947688D01*
X145702909Y-76185859D01*
X146310509Y-76628754D01*
X146455844Y-76688929D01*
X146747000Y-76482410D01*
X146747000Y-75253000D01*
X147493000Y-75253000D01*
X147493000Y-76482410D01*
X147784156Y-76688929D01*
X147929491Y-76628754D01*
X148499910Y-76212961D01*
X149672580Y-76212961D01*
X150500000Y-77040381D01*
X151327420Y-76212961D01*
X151284753Y-75866957D01*
X150600079Y-75690953D01*
X149900168Y-75790360D01*
X149715247Y-75866957D01*
X149672580Y-76212961D01*
X148499910Y-76212961D01*
X148537091Y-76185859D01*
X148928952Y-75544159D01*
X148728828Y-75253000D01*
X147493000Y-75253000D01*
X146747000Y-75253000D01*
X146727000Y-75253000D01*
X146727000Y-74507000D01*
X146747000Y-74507000D01*
X146747000Y-73277590D01*
X147493000Y-73277590D01*
X147493000Y-74507000D01*
X148728828Y-74507000D01*
X148928952Y-74215841D01*
X148537091Y-73574141D01*
X147929491Y-73131246D01*
X147784156Y-73071071D01*
X147493000Y-73277590D01*
X146747000Y-73277590D01*
X146455844Y-73071071D01*
X146310509Y-73131246D01*
X145702909Y-73574141D01*
X145557467Y-73812312D01*
X145129151Y-73526120D01*
X144580000Y-73416887D01*
X144030849Y-73526120D01*
X143565302Y-73837189D01*
X143310000Y-74219275D01*
X143054698Y-73837189D01*
X142589151Y-73526120D01*
X142040000Y-73416887D01*
X141490849Y-73526120D01*
X141025302Y-73837189D01*
X140770000Y-74219275D01*
X140514698Y-73837189D01*
X140049151Y-73526120D01*
X139500000Y-73416887D01*
X138950849Y-73526120D01*
X138485302Y-73837189D01*
X138174233Y-74302736D01*
X138065000Y-74851887D01*
X129727000Y-74851887D01*
X129727000Y-74507000D01*
X129747000Y-74507000D01*
X129747000Y-73277590D01*
X130493000Y-73277590D01*
X130493000Y-74507000D01*
X131728828Y-74507000D01*
X131928952Y-74215841D01*
X131537091Y-73574141D01*
X130929491Y-73131246D01*
X130784156Y-73071071D01*
X130493000Y-73277590D01*
X129747000Y-73277590D01*
X129455844Y-73071071D01*
X129310509Y-73131246D01*
X128702909Y-73574141D01*
X128557467Y-73812312D01*
X128129151Y-73526120D01*
X127580000Y-73416887D01*
X127030849Y-73526120D01*
X126565302Y-73837189D01*
X126310000Y-74219275D01*
X126054698Y-73837189D01*
X125589151Y-73526120D01*
X125040000Y-73416887D01*
X124490849Y-73526120D01*
X124025302Y-73837189D01*
X123770000Y-74219275D01*
X123514698Y-73837189D01*
X123049151Y-73526120D01*
X122500000Y-73416887D01*
X121950849Y-73526120D01*
X121485302Y-73837189D01*
X121174233Y-74302736D01*
X121065000Y-74851887D01*
X114727000Y-74851887D01*
X114727000Y-74507000D01*
X114747000Y-74507000D01*
X114747000Y-73277590D01*
X115493000Y-73277590D01*
X115493000Y-74507000D01*
X116728828Y-74507000D01*
X116928952Y-74215841D01*
X116537091Y-73574141D01*
X115929491Y-73131246D01*
X115784156Y-73071071D01*
X115493000Y-73277590D01*
X114747000Y-73277590D01*
X114455844Y-73071071D01*
X114310509Y-73131246D01*
X113702909Y-73574141D01*
X113557467Y-73812312D01*
X113129151Y-73526120D01*
X112580000Y-73416887D01*
X112030849Y-73526120D01*
X111565302Y-73837189D01*
X111310000Y-74219275D01*
X111054698Y-73837189D01*
X110779882Y-73653563D01*
X110742148Y-73463861D01*
X110742148Y-73463860D01*
X110577401Y-73217299D01*
X110030000Y-72669898D01*
X110030000Y-69823694D01*
X114365226Y-69823694D01*
X114613538Y-70424655D01*
X115072927Y-70884846D01*
X115673453Y-71134206D01*
X116323694Y-71134774D01*
X116924655Y-70886462D01*
X117384846Y-70427073D01*
X117634206Y-69826547D01*
X117634208Y-69823694D01*
X120745226Y-69823694D01*
X120993538Y-70424655D01*
X121452927Y-70884846D01*
X122053453Y-71134206D01*
X122703694Y-71134774D01*
X123304655Y-70886462D01*
X123764846Y-70427073D01*
X124014206Y-69826547D01*
X124014208Y-69823694D01*
X128365226Y-69823694D01*
X128613538Y-70424655D01*
X129072927Y-70884846D01*
X129673453Y-71134206D01*
X130323694Y-71134774D01*
X130924655Y-70886462D01*
X131384846Y-70427073D01*
X131634206Y-69826547D01*
X131634208Y-69823694D01*
X137745226Y-69823694D01*
X137993538Y-70424655D01*
X138452927Y-70884846D01*
X139053453Y-71134206D01*
X139703694Y-71134774D01*
X140304655Y-70886462D01*
X140764846Y-70427073D01*
X141014206Y-69826547D01*
X141014208Y-69823694D01*
X145365226Y-69823694D01*
X145613538Y-70424655D01*
X146072927Y-70884846D01*
X146673453Y-71134206D01*
X147323694Y-71134774D01*
X147924655Y-70886462D01*
X148384846Y-70427073D01*
X148634206Y-69826547D01*
X148634208Y-69823694D01*
X153745226Y-69823694D01*
X153993538Y-70424655D01*
X154452927Y-70884846D01*
X155053453Y-71134206D01*
X155703694Y-71134774D01*
X156304655Y-70886462D01*
X156764846Y-70427073D01*
X156834221Y-70260000D01*
X157280000Y-70260000D01*
X157280000Y-73667005D01*
X157025302Y-73837189D01*
X156770000Y-74219275D01*
X156514698Y-73837189D01*
X156049151Y-73526120D01*
X155500000Y-73416887D01*
X154950849Y-73526120D01*
X154485302Y-73837189D01*
X154174233Y-74302736D01*
X154065000Y-74851887D01*
X154065000Y-74908113D01*
X154174233Y-75457264D01*
X154485302Y-75922811D01*
X154950849Y-76233880D01*
X155500000Y-76343113D01*
X156049151Y-76233880D01*
X156514698Y-75922811D01*
X156770000Y-75540725D01*
X157025302Y-75922811D01*
X157490849Y-76233880D01*
X158040000Y-76343113D01*
X158589151Y-76233880D01*
X159054698Y-75922811D01*
X159310000Y-75540725D01*
X159565302Y-75922811D01*
X160030849Y-76233880D01*
X160580000Y-76343113D01*
X161129151Y-76233880D01*
X161557467Y-75947688D01*
X161702909Y-76185859D01*
X162310509Y-76628754D01*
X162455844Y-76688929D01*
X162747000Y-76482410D01*
X162747000Y-75253000D01*
X163493000Y-75253000D01*
X163493000Y-76482410D01*
X163784156Y-76688929D01*
X163929491Y-76628754D01*
X164499910Y-76212961D01*
X165672580Y-76212961D01*
X166500000Y-77040381D01*
X167327420Y-76212961D01*
X167284753Y-75866957D01*
X166600079Y-75690953D01*
X165900168Y-75790360D01*
X165715247Y-75866957D01*
X165672580Y-76212961D01*
X164499910Y-76212961D01*
X164537091Y-76185859D01*
X164928952Y-75544159D01*
X164728828Y-75253000D01*
X163493000Y-75253000D01*
X162747000Y-75253000D01*
X162727000Y-75253000D01*
X162727000Y-74507000D01*
X162747000Y-74507000D01*
X162747000Y-73277590D01*
X163493000Y-73277590D01*
X163493000Y-74507000D01*
X164728828Y-74507000D01*
X164928952Y-74215841D01*
X164537091Y-73574141D01*
X163929491Y-73131246D01*
X163784156Y-73071071D01*
X163493000Y-73277590D01*
X162747000Y-73277590D01*
X162455844Y-73071071D01*
X162310509Y-73131246D01*
X161702909Y-73574141D01*
X161557467Y-73812312D01*
X161129151Y-73526120D01*
X160580000Y-73416887D01*
X160030849Y-73526120D01*
X159565302Y-73837189D01*
X159310000Y-74219275D01*
X159054698Y-73837189D01*
X158800000Y-73667005D01*
X158800000Y-70260000D01*
X160270000Y-70260000D01*
X160560839Y-70202148D01*
X160807401Y-70037401D01*
X161365527Y-69479275D01*
X161365226Y-69823694D01*
X161613538Y-70424655D01*
X162072927Y-70884846D01*
X162673453Y-71134206D01*
X163323694Y-71134774D01*
X163924655Y-70886462D01*
X163992340Y-70818894D01*
X170864284Y-70818894D01*
X171492474Y-72339229D01*
X172654653Y-73503438D01*
X174173889Y-74134280D01*
X175818894Y-74135716D01*
X177339229Y-73507526D01*
X178503438Y-72345347D01*
X179134280Y-70826111D01*
X179135716Y-69181106D01*
X178507526Y-67660771D01*
X177345347Y-66496562D01*
X175826111Y-65865720D01*
X174181106Y-65864284D01*
X172660771Y-66492474D01*
X171496562Y-67654653D01*
X170865720Y-69173889D01*
X170864284Y-70818894D01*
X163992340Y-70818894D01*
X164384846Y-70427073D01*
X164634206Y-69826547D01*
X164634774Y-69176306D01*
X164386462Y-68575345D01*
X163927073Y-68115154D01*
X163326547Y-67865794D01*
X162979311Y-67865491D01*
X164429800Y-66415002D01*
X164453298Y-66424759D01*
X165004285Y-66425240D01*
X165513515Y-66214831D01*
X165903461Y-65825564D01*
X166114759Y-65316702D01*
X166115240Y-64765715D01*
X165904831Y-64256485D01*
X165546411Y-63897440D01*
X166750000Y-63897440D01*
X166985317Y-63853162D01*
X167201441Y-63714090D01*
X167346431Y-63501890D01*
X167397440Y-63250000D01*
X167397440Y-61750000D01*
X167353162Y-61514683D01*
X167214090Y-61298559D01*
X167001890Y-61153569D01*
X166750000Y-61102560D01*
X165250000Y-61102560D01*
X165014683Y-61146838D01*
X164798559Y-61285910D01*
X164653569Y-61498110D01*
X164613645Y-61695262D01*
X164245564Y-61326539D01*
X163736702Y-61115241D01*
X163185715Y-61114760D01*
X162676485Y-61325169D01*
X162286539Y-61714436D01*
X162190024Y-61946870D01*
X162094831Y-61716485D01*
X161705564Y-61326539D01*
X161196702Y-61115241D01*
X160645715Y-61114760D01*
X160136485Y-61325169D01*
X159813185Y-61647906D01*
X159767221Y-61640280D01*
X158907502Y-62500000D01*
X158921644Y-62514142D01*
X158394142Y-63041644D01*
X158380000Y-63027502D01*
X158365858Y-63041644D01*
X157838356Y-62514142D01*
X157852498Y-62500000D01*
X156992779Y-61640280D01*
X156642173Y-61698449D01*
X156467716Y-62424501D01*
X156584387Y-63162047D01*
X156608007Y-63219068D01*
X156447953Y-63244387D01*
X156308449Y-63302173D01*
X156250280Y-63652779D01*
X157110000Y-64512498D01*
X157124142Y-64498356D01*
X157651644Y-65025858D01*
X157637502Y-65040000D01*
X158497221Y-65899720D01*
X158543566Y-65892031D01*
X158864436Y-66213461D01*
X159373298Y-66424759D01*
X159924285Y-66425240D01*
X160433515Y-66214831D01*
X160823461Y-65825564D01*
X160919976Y-65593130D01*
X161015169Y-65823515D01*
X161404436Y-66213461D01*
X161913298Y-66424759D01*
X162270127Y-66425071D01*
X159955198Y-68740000D01*
X156834496Y-68740000D01*
X156766462Y-68575345D01*
X156307073Y-68115154D01*
X155706547Y-67865794D01*
X155056306Y-67865226D01*
X154455345Y-68113538D01*
X153995154Y-68572927D01*
X153745794Y-69173453D01*
X153745226Y-69823694D01*
X148634208Y-69823694D01*
X148634774Y-69176306D01*
X148386462Y-68575345D01*
X147927073Y-68115154D01*
X147326547Y-67865794D01*
X146676306Y-67865226D01*
X146075345Y-68113538D01*
X145615154Y-68572927D01*
X145365794Y-69173453D01*
X145365226Y-69823694D01*
X141014208Y-69823694D01*
X141014774Y-69176306D01*
X140766462Y-68575345D01*
X140307073Y-68115154D01*
X139706547Y-67865794D01*
X139056306Y-67865226D01*
X138455345Y-68113538D01*
X137995154Y-68572927D01*
X137745794Y-69173453D01*
X137745226Y-69823694D01*
X131634208Y-69823694D01*
X131634774Y-69176306D01*
X131386462Y-68575345D01*
X130927073Y-68115154D01*
X130326547Y-67865794D01*
X129676306Y-67865226D01*
X129075345Y-68113538D01*
X128615154Y-68572927D01*
X128365794Y-69173453D01*
X128365226Y-69823694D01*
X124014208Y-69823694D01*
X124014774Y-69176306D01*
X123766462Y-68575345D01*
X123307073Y-68115154D01*
X122706547Y-67865794D01*
X122056306Y-67865226D01*
X121455345Y-68113538D01*
X120995154Y-68572927D01*
X120745794Y-69173453D01*
X120745226Y-69823694D01*
X117634208Y-69823694D01*
X117634774Y-69176306D01*
X117386462Y-68575345D01*
X116927073Y-68115154D01*
X116326547Y-67865794D01*
X115676306Y-67865226D01*
X115075345Y-68113538D01*
X114615154Y-68572927D01*
X114365794Y-69173453D01*
X114365226Y-69823694D01*
X110030000Y-69823694D01*
X110030000Y-69814802D01*
X113417581Y-66427221D01*
X122250280Y-66427221D01*
X122308449Y-66777827D01*
X123034501Y-66952284D01*
X123772047Y-66835613D01*
X123911551Y-66777827D01*
X123969720Y-66427221D01*
X139250280Y-66427221D01*
X139308449Y-66777827D01*
X140034501Y-66952284D01*
X140772047Y-66835613D01*
X140911551Y-66777827D01*
X140969720Y-66427221D01*
X156250280Y-66427221D01*
X156308449Y-66777827D01*
X157034501Y-66952284D01*
X157772047Y-66835613D01*
X157911551Y-66777827D01*
X157969720Y-66427221D01*
X157110000Y-65567502D01*
X156250280Y-66427221D01*
X140969720Y-66427221D01*
X140110000Y-65567502D01*
X139250280Y-66427221D01*
X123969720Y-66427221D01*
X123110000Y-65567502D01*
X122250280Y-66427221D01*
X113417581Y-66427221D01*
X113429800Y-66415002D01*
X113453298Y-66424759D01*
X114004285Y-66425240D01*
X114513515Y-66214831D01*
X114903461Y-65825564D01*
X115114759Y-65316702D01*
X115115066Y-64964501D01*
X121197716Y-64964501D01*
X121314387Y-65702047D01*
X121372173Y-65841551D01*
X121722779Y-65899720D01*
X122582498Y-65040000D01*
X121722779Y-64180280D01*
X121372173Y-64238449D01*
X121197716Y-64964501D01*
X115115066Y-64964501D01*
X115115240Y-64765715D01*
X114904831Y-64256485D01*
X114546411Y-63897440D01*
X115750000Y-63897440D01*
X115985317Y-63853162D01*
X116201441Y-63714090D01*
X116243332Y-63652779D01*
X122250280Y-63652779D01*
X123110000Y-64512498D01*
X123124142Y-64498356D01*
X123651644Y-65025858D01*
X123637502Y-65040000D01*
X124497221Y-65899720D01*
X124543566Y-65892031D01*
X124864436Y-66213461D01*
X125373298Y-66424759D01*
X125924285Y-66425240D01*
X126433515Y-66214831D01*
X126823461Y-65825564D01*
X126919976Y-65593130D01*
X127015169Y-65823515D01*
X127404436Y-66213461D01*
X127913298Y-66424759D01*
X128464285Y-66425240D01*
X128973515Y-66214831D01*
X129363461Y-65825564D01*
X129459976Y-65593130D01*
X129555169Y-65823515D01*
X129944436Y-66213461D01*
X130453298Y-66424759D01*
X131004285Y-66425240D01*
X131513515Y-66214831D01*
X131903461Y-65825564D01*
X132114759Y-65316702D01*
X132115066Y-64964501D01*
X138197716Y-64964501D01*
X138314387Y-65702047D01*
X138372173Y-65841551D01*
X138722779Y-65899720D01*
X139582498Y-65040000D01*
X138722779Y-64180280D01*
X138372173Y-64238449D01*
X138197716Y-64964501D01*
X132115066Y-64964501D01*
X132115240Y-64765715D01*
X131904831Y-64256485D01*
X131546411Y-63897440D01*
X132750000Y-63897440D01*
X132985317Y-63853162D01*
X133201441Y-63714090D01*
X133243332Y-63652779D01*
X139250280Y-63652779D01*
X140110000Y-64512498D01*
X140124142Y-64498356D01*
X140651644Y-65025858D01*
X140637502Y-65040000D01*
X141497221Y-65899720D01*
X141543566Y-65892031D01*
X141864436Y-66213461D01*
X142373298Y-66424759D01*
X142924285Y-66425240D01*
X143433515Y-66214831D01*
X143823461Y-65825564D01*
X143919976Y-65593130D01*
X144015169Y-65823515D01*
X144404436Y-66213461D01*
X144913298Y-66424759D01*
X145464285Y-66425240D01*
X145973515Y-66214831D01*
X146363461Y-65825564D01*
X146459976Y-65593130D01*
X146555169Y-65823515D01*
X146944436Y-66213461D01*
X147453298Y-66424759D01*
X148004285Y-66425240D01*
X148513515Y-66214831D01*
X148903461Y-65825564D01*
X149114759Y-65316702D01*
X149115066Y-64964501D01*
X155197716Y-64964501D01*
X155314387Y-65702047D01*
X155372173Y-65841551D01*
X155722779Y-65899720D01*
X156582498Y-65040000D01*
X155722779Y-64180280D01*
X155372173Y-64238449D01*
X155197716Y-64964501D01*
X149115066Y-64964501D01*
X149115240Y-64765715D01*
X148904831Y-64256485D01*
X148546411Y-63897440D01*
X149750000Y-63897440D01*
X149985317Y-63853162D01*
X150201441Y-63714090D01*
X150346431Y-63501890D01*
X150397440Y-63250000D01*
X150397440Y-61750000D01*
X150353162Y-61514683D01*
X150214090Y-61298559D01*
X150001890Y-61153569D01*
X149800463Y-61112779D01*
X157520280Y-61112779D01*
X158380000Y-61972498D01*
X159239720Y-61112779D01*
X159181551Y-60762173D01*
X158455499Y-60587716D01*
X157717953Y-60704387D01*
X157578449Y-60762173D01*
X157520280Y-61112779D01*
X149800463Y-61112779D01*
X149750000Y-61102560D01*
X148250000Y-61102560D01*
X148014683Y-61146838D01*
X147798559Y-61285910D01*
X147653569Y-61498110D01*
X147613645Y-61695262D01*
X147245564Y-61326539D01*
X146736702Y-61115241D01*
X146185715Y-61114760D01*
X145676485Y-61325169D01*
X145286539Y-61714436D01*
X145190024Y-61946870D01*
X145094831Y-61716485D01*
X144705564Y-61326539D01*
X144196702Y-61115241D01*
X143645715Y-61114760D01*
X143136485Y-61325169D01*
X142813185Y-61647906D01*
X142767221Y-61640280D01*
X141907502Y-62500000D01*
X141921644Y-62514142D01*
X141394142Y-63041644D01*
X141380000Y-63027502D01*
X141365858Y-63041644D01*
X140838356Y-62514142D01*
X140852498Y-62500000D01*
X139992779Y-61640280D01*
X139642173Y-61698449D01*
X139467716Y-62424501D01*
X139584387Y-63162047D01*
X139608007Y-63219068D01*
X139447953Y-63244387D01*
X139308449Y-63302173D01*
X139250280Y-63652779D01*
X133243332Y-63652779D01*
X133346431Y-63501890D01*
X133397440Y-63250000D01*
X133397440Y-61750000D01*
X133353162Y-61514683D01*
X133214090Y-61298559D01*
X133001890Y-61153569D01*
X132800463Y-61112779D01*
X140520280Y-61112779D01*
X141380000Y-61972498D01*
X142239720Y-61112779D01*
X142181551Y-60762173D01*
X141455499Y-60587716D01*
X140717953Y-60704387D01*
X140578449Y-60762173D01*
X140520280Y-61112779D01*
X132800463Y-61112779D01*
X132750000Y-61102560D01*
X131250000Y-61102560D01*
X131014683Y-61146838D01*
X130798559Y-61285910D01*
X130653569Y-61498110D01*
X130613645Y-61695262D01*
X130245564Y-61326539D01*
X129736702Y-61115241D01*
X129185715Y-61114760D01*
X128676485Y-61325169D01*
X128286539Y-61714436D01*
X128190024Y-61946870D01*
X128094831Y-61716485D01*
X127705564Y-61326539D01*
X127196702Y-61115241D01*
X126645715Y-61114760D01*
X126136485Y-61325169D01*
X125813185Y-61647906D01*
X125767221Y-61640280D01*
X124907502Y-62500000D01*
X124921644Y-62514142D01*
X124394142Y-63041644D01*
X124380000Y-63027502D01*
X124365858Y-63041644D01*
X123838356Y-62514142D01*
X123852498Y-62500000D01*
X122992779Y-61640280D01*
X122642173Y-61698449D01*
X122467716Y-62424501D01*
X122584387Y-63162047D01*
X122608007Y-63219068D01*
X122447953Y-63244387D01*
X122308449Y-63302173D01*
X122250280Y-63652779D01*
X116243332Y-63652779D01*
X116346431Y-63501890D01*
X116397440Y-63250000D01*
X116397440Y-61750000D01*
X116353162Y-61514683D01*
X116214090Y-61298559D01*
X116001890Y-61153569D01*
X115800463Y-61112779D01*
X123520280Y-61112779D01*
X124380000Y-61972498D01*
X125239720Y-61112779D01*
X125181551Y-60762173D01*
X124455499Y-60587716D01*
X123717953Y-60704387D01*
X123578449Y-60762173D01*
X123520280Y-61112779D01*
X115800463Y-61112779D01*
X115750000Y-61102560D01*
X114250000Y-61102560D01*
X114014683Y-61146838D01*
X113798559Y-61285910D01*
X113653569Y-61498110D01*
X113613645Y-61695262D01*
X113245564Y-61326539D01*
X112736702Y-61115241D01*
X112185715Y-61114760D01*
X111676485Y-61325169D01*
X111286539Y-61714436D01*
X111190024Y-61946870D01*
X111094831Y-61716485D01*
X110705564Y-61326539D01*
X110196702Y-61115241D01*
X109645715Y-61114760D01*
X109136485Y-61325169D01*
X108813185Y-61647906D01*
X108767221Y-61640280D01*
X107907502Y-62500000D01*
X107921644Y-62514142D01*
X107394142Y-63041644D01*
X107380000Y-63027502D01*
X107365858Y-63041644D01*
X106838356Y-62514142D01*
X106852498Y-62500000D01*
X105992779Y-61640280D01*
X105642173Y-61698449D01*
X105467716Y-62424501D01*
X105584387Y-63162047D01*
X105608007Y-63219068D01*
X105447953Y-63244387D01*
X105308449Y-63302173D01*
X105250280Y-63652779D01*
X95710000Y-63652779D01*
X95710000Y-61112779D01*
X106520280Y-61112779D01*
X107380000Y-61972498D01*
X108239720Y-61112779D01*
X108181551Y-60762173D01*
X107455499Y-60587716D01*
X106717953Y-60704387D01*
X106578449Y-60762173D01*
X106520280Y-61112779D01*
X95710000Y-61112779D01*
X95710000Y-56637177D01*
X102159574Y-56637177D01*
X102533298Y-57541657D01*
X103224703Y-58234270D01*
X104128529Y-58609572D01*
X105107177Y-58610426D01*
X106011657Y-58236702D01*
X106704270Y-57545297D01*
X107079572Y-56641471D01*
X107079575Y-56637177D01*
X114029574Y-56637177D01*
X114403298Y-57541657D01*
X115094703Y-58234270D01*
X115998529Y-58609572D01*
X116977177Y-58610426D01*
X117881657Y-58236702D01*
X118574270Y-57545297D01*
X118949572Y-56641471D01*
X118949575Y-56637177D01*
X119159574Y-56637177D01*
X119533298Y-57541657D01*
X120224703Y-58234270D01*
X121128529Y-58609572D01*
X122107177Y-58610426D01*
X123011657Y-58236702D01*
X123704270Y-57545297D01*
X124079572Y-56641471D01*
X124079575Y-56637177D01*
X131029574Y-56637177D01*
X131403298Y-57541657D01*
X132094703Y-58234270D01*
X132998529Y-58609572D01*
X133977177Y-58610426D01*
X134881657Y-58236702D01*
X135574270Y-57545297D01*
X135949572Y-56641471D01*
X135949575Y-56637177D01*
X136159574Y-56637177D01*
X136533298Y-57541657D01*
X137224703Y-58234270D01*
X138128529Y-58609572D01*
X139107177Y-58610426D01*
X140011657Y-58236702D01*
X140704270Y-57545297D01*
X141079572Y-56641471D01*
X141079575Y-56637177D01*
X148029574Y-56637177D01*
X148403298Y-57541657D01*
X149094703Y-58234270D01*
X149998529Y-58609572D01*
X150977177Y-58610426D01*
X151881657Y-58236702D01*
X152574270Y-57545297D01*
X152949572Y-56641471D01*
X152949575Y-56637177D01*
X153159574Y-56637177D01*
X153533298Y-57541657D01*
X154224703Y-58234270D01*
X155128529Y-58609572D01*
X156107177Y-58610426D01*
X157011657Y-58236702D01*
X157704270Y-57545297D01*
X158079572Y-56641471D01*
X158079575Y-56637177D01*
X165029574Y-56637177D01*
X165403298Y-57541657D01*
X166094703Y-58234270D01*
X166998529Y-58609572D01*
X167977177Y-58610426D01*
X168881657Y-58236702D01*
X169574270Y-57545297D01*
X169949572Y-56641471D01*
X169950426Y-55662823D01*
X169576702Y-54758343D01*
X168885297Y-54065730D01*
X167981471Y-53690428D01*
X167002823Y-53689574D01*
X166098343Y-54063298D01*
X165405730Y-54754703D01*
X165030428Y-55658529D01*
X165029574Y-56637177D01*
X158079575Y-56637177D01*
X158080426Y-55662823D01*
X157706702Y-54758343D01*
X157015297Y-54065730D01*
X156111471Y-53690428D01*
X155132823Y-53689574D01*
X154228343Y-54063298D01*
X153535730Y-54754703D01*
X153160428Y-55658529D01*
X153159574Y-56637177D01*
X152949575Y-56637177D01*
X152950426Y-55662823D01*
X152576702Y-54758343D01*
X151885297Y-54065730D01*
X150981471Y-53690428D01*
X150002823Y-53689574D01*
X149098343Y-54063298D01*
X148405730Y-54754703D01*
X148030428Y-55658529D01*
X148029574Y-56637177D01*
X141079575Y-56637177D01*
X141080426Y-55662823D01*
X140706702Y-54758343D01*
X140015297Y-54065730D01*
X139111471Y-53690428D01*
X138132823Y-53689574D01*
X137228343Y-54063298D01*
X136535730Y-54754703D01*
X136160428Y-55658529D01*
X136159574Y-56637177D01*
X135949575Y-56637177D01*
X135950426Y-55662823D01*
X135576702Y-54758343D01*
X134885297Y-54065730D01*
X133981471Y-53690428D01*
X133002823Y-53689574D01*
X132098343Y-54063298D01*
X131405730Y-54754703D01*
X131030428Y-55658529D01*
X131029574Y-56637177D01*
X124079575Y-56637177D01*
X124080426Y-55662823D01*
X123706702Y-54758343D01*
X123015297Y-54065730D01*
X122111471Y-53690428D01*
X121132823Y-53689574D01*
X120228343Y-54063298D01*
X119535730Y-54754703D01*
X119160428Y-55658529D01*
X119159574Y-56637177D01*
X118949575Y-56637177D01*
X118950426Y-55662823D01*
X118576702Y-54758343D01*
X117885297Y-54065730D01*
X116981471Y-53690428D01*
X116002823Y-53689574D01*
X115098343Y-54063298D01*
X114405730Y-54754703D01*
X114030428Y-55658529D01*
X114029574Y-56637177D01*
X107079575Y-56637177D01*
X107080426Y-55662823D01*
X106706702Y-54758343D01*
X106015297Y-54065730D01*
X105111471Y-53690428D01*
X104132823Y-53689574D01*
X103228343Y-54063298D01*
X102535730Y-54754703D01*
X102160428Y-55658529D01*
X102159574Y-56637177D01*
X95710000Y-56637177D01*
X95710000Y-55069931D01*
X96430010Y-51450195D01*
X98440814Y-48440813D01*
X101450193Y-46430011D01*
X105069931Y-45710000D01*
X172430069Y-45710000D01*
X176049805Y-46430010D01*
X176049805Y-46430010D01*
G37*
X176049805Y-46430010D02*
X179059187Y-48440814D01*
X181069989Y-51450193D01*
X181790000Y-55069931D01*
X181790000Y-134930069D01*
X181069989Y-138549807D01*
X179059187Y-141559186D01*
X176049805Y-143569990D01*
X172430069Y-144290000D01*
X105069931Y-144290000D01*
X101450193Y-143569989D01*
X98440814Y-141559187D01*
X96430010Y-138549805D01*
X95710000Y-134930069D01*
X95710000Y-134337177D01*
X102049574Y-134337177D01*
X102423298Y-135241657D01*
X103114703Y-135934270D01*
X104018529Y-136309572D01*
X104997177Y-136310426D01*
X105901657Y-135936702D01*
X106594270Y-135245297D01*
X106969572Y-134341471D01*
X106969575Y-134337177D01*
X113919574Y-134337177D01*
X114293298Y-135241657D01*
X114984703Y-135934270D01*
X115888529Y-136309572D01*
X116867177Y-136310426D01*
X117771657Y-135936702D01*
X118464270Y-135245297D01*
X118839572Y-134341471D01*
X118839575Y-134337177D01*
X119049574Y-134337177D01*
X119423298Y-135241657D01*
X120114703Y-135934270D01*
X121018529Y-136309572D01*
X121997177Y-136310426D01*
X122901657Y-135936702D01*
X123594270Y-135245297D01*
X123969572Y-134341471D01*
X123969575Y-134337177D01*
X130919574Y-134337177D01*
X131293298Y-135241657D01*
X131984703Y-135934270D01*
X132888529Y-136309572D01*
X133867177Y-136310426D01*
X134771657Y-135936702D01*
X135464270Y-135245297D01*
X135839572Y-134341471D01*
X135839575Y-134337177D01*
X136049574Y-134337177D01*
X136423298Y-135241657D01*
X137114703Y-135934270D01*
X138018529Y-136309572D01*
X138997177Y-136310426D01*
X139901657Y-135936702D01*
X140594270Y-135245297D01*
X140969572Y-134341471D01*
X140969575Y-134337177D01*
X147919574Y-134337177D01*
X148293298Y-135241657D01*
X148984703Y-135934270D01*
X149888529Y-136309572D01*
X150867177Y-136310426D01*
X151771657Y-135936702D01*
X152464270Y-135245297D01*
X152839572Y-134341471D01*
X152839575Y-134337177D01*
X153049574Y-134337177D01*
X153423298Y-135241657D01*
X154114703Y-135934270D01*
X155018529Y-136309572D01*
X155997177Y-136310426D01*
X156901657Y-135936702D01*
X157594270Y-135245297D01*
X157969572Y-134341471D01*
X157969575Y-134337177D01*
X164919574Y-134337177D01*
X165293298Y-135241657D01*
X165984703Y-135934270D01*
X166888529Y-136309572D01*
X167867177Y-136310426D01*
X168771657Y-135936702D01*
X169464270Y-135245297D01*
X169839572Y-134341471D01*
X169840426Y-133362823D01*
X169466702Y-132458343D01*
X168775297Y-131765730D01*
X167871471Y-131390428D01*
X166892823Y-131389574D01*
X165988343Y-131763298D01*
X165295730Y-132454703D01*
X164920428Y-133358529D01*
X164919574Y-134337177D01*
X157969575Y-134337177D01*
X157970426Y-133362823D01*
X157596702Y-132458343D01*
X156905297Y-131765730D01*
X156001471Y-131390428D01*
X155022823Y-131389574D01*
X154118343Y-131763298D01*
X153425730Y-132454703D01*
X153050428Y-133358529D01*
X153049574Y-134337177D01*
X152839575Y-134337177D01*
X152840426Y-133362823D01*
X152466702Y-132458343D01*
X151775297Y-131765730D01*
X150871471Y-131390428D01*
X149892823Y-131389574D01*
X148988343Y-131763298D01*
X148295730Y-132454703D01*
X147920428Y-133358529D01*
X147919574Y-134337177D01*
X140969575Y-134337177D01*
X140970426Y-133362823D01*
X140596702Y-132458343D01*
X139905297Y-131765730D01*
X139001471Y-131390428D01*
X138022823Y-131389574D01*
X137118343Y-131763298D01*
X136425730Y-132454703D01*
X136050428Y-133358529D01*
X136049574Y-134337177D01*
X135839575Y-134337177D01*
X135840426Y-133362823D01*
X135466702Y-132458343D01*
X134775297Y-131765730D01*
X133871471Y-131390428D01*
X132892823Y-131389574D01*
X131988343Y-131763298D01*
X131295730Y-132454703D01*
X130920428Y-133358529D01*
X130919574Y-134337177D01*
X123969575Y-134337177D01*
X123970426Y-133362823D01*
X123596702Y-132458343D01*
X122905297Y-131765730D01*
X122001471Y-131390428D01*
X121022823Y-131389574D01*
X120118343Y-131763298D01*
X119425730Y-132454703D01*
X119050428Y-133358529D01*
X119049574Y-134337177D01*
X118839575Y-134337177D01*
X118840426Y-133362823D01*
X118466702Y-132458343D01*
X117775297Y-131765730D01*
X116871471Y-131390428D01*
X115892823Y-131389574D01*
X114988343Y-131763298D01*
X114295730Y-132454703D01*
X113920428Y-133358529D01*
X113919574Y-134337177D01*
X106969575Y-134337177D01*
X106970426Y-133362823D01*
X106596702Y-132458343D01*
X105905297Y-131765730D01*
X105001471Y-131390428D01*
X104022823Y-131389574D01*
X103118343Y-131763298D01*
X102425730Y-132454703D01*
X102050428Y-133358529D01*
X102049574Y-134337177D01*
X95710000Y-134337177D01*
X95710000Y-126750000D01*
X104602560Y-126750000D01*
X104602560Y-128250000D01*
X104646838Y-128485317D01*
X104785910Y-128701441D01*
X104998110Y-128846431D01*
X105250000Y-128897440D01*
X106750000Y-128897440D01*
X106804309Y-128887221D01*
X112760280Y-128887221D01*
X112818449Y-129237827D01*
X113544501Y-129412284D01*
X114282047Y-129295613D01*
X114421551Y-129237827D01*
X114479720Y-128887221D01*
X113620000Y-128027502D01*
X112760280Y-128887221D01*
X106804309Y-128887221D01*
X106985317Y-128853162D01*
X107201441Y-128714090D01*
X107346431Y-128501890D01*
X107386355Y-128304738D01*
X107754436Y-128673461D01*
X108263298Y-128884759D01*
X108814285Y-128885240D01*
X109323515Y-128674831D01*
X109713461Y-128285564D01*
X109809976Y-128053130D01*
X109905169Y-128283515D01*
X110294436Y-128673461D01*
X110803298Y-128884759D01*
X111354285Y-128885240D01*
X111863515Y-128674831D01*
X112186815Y-128352094D01*
X112232779Y-128359720D01*
X113092498Y-127500000D01*
X113078356Y-127485858D01*
X113605858Y-126958356D01*
X113620000Y-126972498D01*
X113634142Y-126958356D01*
X114161644Y-127485858D01*
X114147502Y-127500000D01*
X115007221Y-128359720D01*
X115357827Y-128301551D01*
X115532284Y-127575499D01*
X115415613Y-126837953D01*
X115391993Y-126780932D01*
X115552047Y-126755613D01*
X115565597Y-126750000D01*
X121602560Y-126750000D01*
X121602560Y-128250000D01*
X121646838Y-128485317D01*
X121785910Y-128701441D01*
X121998110Y-128846431D01*
X122250000Y-128897440D01*
X123750000Y-128897440D01*
X123804309Y-128887221D01*
X129760280Y-128887221D01*
X129818449Y-129237827D01*
X130544501Y-129412284D01*
X131282047Y-129295613D01*
X131421551Y-129237827D01*
X131479720Y-128887221D01*
X130620000Y-128027502D01*
X129760280Y-128887221D01*
X123804309Y-128887221D01*
X123985317Y-128853162D01*
X124201441Y-128714090D01*
X124346431Y-128501890D01*
X124386355Y-128304738D01*
X124754436Y-128673461D01*
X125263298Y-128884759D01*
X125814285Y-128885240D01*
X126323515Y-128674831D01*
X126713461Y-128285564D01*
X126809976Y-128053130D01*
X126905169Y-128283515D01*
X127294436Y-128673461D01*
X127803298Y-128884759D01*
X128354285Y-128885240D01*
X128863515Y-128674831D01*
X129186815Y-128352094D01*
X129232779Y-128359720D01*
X130092498Y-127500000D01*
X130078356Y-127485858D01*
X130605858Y-126958356D01*
X130620000Y-126972498D01*
X130634142Y-126958356D01*
X131161644Y-127485858D01*
X131147502Y-127500000D01*
X132007221Y-128359720D01*
X132357827Y-128301551D01*
X132532284Y-127575499D01*
X132415613Y-126837953D01*
X132391993Y-126780932D01*
X132552047Y-126755613D01*
X132565597Y-126750000D01*
X138602560Y-126750000D01*
X138602560Y-128250000D01*
X138646838Y-128485317D01*
X138785910Y-128701441D01*
X138998110Y-128846431D01*
X139250000Y-128897440D01*
X140750000Y-128897440D01*
X140804309Y-128887221D01*
X146760280Y-128887221D01*
X146818449Y-129237827D01*
X147544501Y-129412284D01*
X148282047Y-129295613D01*
X148421551Y-129237827D01*
X148479720Y-128887221D01*
X147620000Y-128027502D01*
X146760280Y-128887221D01*
X140804309Y-128887221D01*
X140985317Y-128853162D01*
X141201441Y-128714090D01*
X141346431Y-128501890D01*
X141386355Y-128304738D01*
X141754436Y-128673461D01*
X142263298Y-128884759D01*
X142814285Y-128885240D01*
X143323515Y-128674831D01*
X143713461Y-128285564D01*
X143809976Y-128053130D01*
X143905169Y-128283515D01*
X144294436Y-128673461D01*
X144803298Y-128884759D01*
X145354285Y-128885240D01*
X145863515Y-128674831D01*
X146186815Y-128352094D01*
X146232779Y-128359720D01*
X147092498Y-127500000D01*
X147078356Y-127485858D01*
X147605858Y-126958356D01*
X147620000Y-126972498D01*
X147634142Y-126958356D01*
X148161644Y-127485858D01*
X148147502Y-127500000D01*
X149007221Y-128359720D01*
X149357827Y-128301551D01*
X149532284Y-127575499D01*
X149415613Y-126837953D01*
X149391993Y-126780932D01*
X149552047Y-126755613D01*
X149565597Y-126750000D01*
X155602560Y-126750000D01*
X155602560Y-128250000D01*
X155646838Y-128485317D01*
X155785910Y-128701441D01*
X155998110Y-128846431D01*
X156250000Y-128897440D01*
X157750000Y-128897440D01*
X157804309Y-128887221D01*
X163760280Y-128887221D01*
X163818449Y-129237827D01*
X164544501Y-129412284D01*
X165282047Y-129295613D01*
X165421551Y-129237827D01*
X165479720Y-128887221D01*
X164620000Y-128027502D01*
X163760280Y-128887221D01*
X157804309Y-128887221D01*
X157985317Y-128853162D01*
X158201441Y-128714090D01*
X158346431Y-128501890D01*
X158386355Y-128304738D01*
X158754436Y-128673461D01*
X159263298Y-128884759D01*
X159814285Y-128885240D01*
X160323515Y-128674831D01*
X160713461Y-128285564D01*
X160809976Y-128053130D01*
X160905169Y-128283515D01*
X161294436Y-128673461D01*
X161803298Y-128884759D01*
X162354285Y-128885240D01*
X162863515Y-128674831D01*
X163186815Y-128352094D01*
X163232779Y-128359720D01*
X164092498Y-127500000D01*
X164078356Y-127485858D01*
X164605858Y-126958356D01*
X164620000Y-126972498D01*
X164634142Y-126958356D01*
X165161644Y-127485858D01*
X165147502Y-127500000D01*
X166007221Y-128359720D01*
X166357827Y-128301551D01*
X166532284Y-127575499D01*
X166415613Y-126837953D01*
X166391993Y-126780932D01*
X166552047Y-126755613D01*
X166691551Y-126697827D01*
X166749720Y-126347221D01*
X165890000Y-125487502D01*
X165875858Y-125501644D01*
X165348356Y-124974142D01*
X165362498Y-124960000D01*
X166417502Y-124960000D01*
X167277221Y-125819720D01*
X167627827Y-125761551D01*
X167802284Y-125035499D01*
X167685613Y-124297953D01*
X167627827Y-124158449D01*
X167277221Y-124100280D01*
X166417502Y-124960000D01*
X165362498Y-124960000D01*
X164502779Y-124100280D01*
X164456434Y-124107969D01*
X164135564Y-123786539D01*
X163626702Y-123575241D01*
X163075715Y-123574760D01*
X162566485Y-123785169D01*
X162176539Y-124174436D01*
X162080024Y-124406870D01*
X161984831Y-124176485D01*
X161595564Y-123786539D01*
X161086702Y-123575241D01*
X160729873Y-123574929D01*
X160732023Y-123572779D01*
X165030280Y-123572779D01*
X165890000Y-124432498D01*
X166749720Y-123572779D01*
X166691551Y-123222173D01*
X165965499Y-123047716D01*
X165227953Y-123164387D01*
X165088449Y-123222173D01*
X165030280Y-123572779D01*
X160732023Y-123572779D01*
X162806779Y-121498023D01*
X163192927Y-121884846D01*
X163793453Y-122134206D01*
X164443694Y-122134774D01*
X165044655Y-121886462D01*
X165504846Y-121427073D01*
X165754206Y-120826547D01*
X165754212Y-120818894D01*
X170864284Y-120818894D01*
X171492474Y-122339229D01*
X172654653Y-123503438D01*
X174173889Y-124134280D01*
X175818894Y-124135716D01*
X177339229Y-123507526D01*
X178503438Y-122345347D01*
X179134280Y-120826111D01*
X179135716Y-119181106D01*
X178507526Y-117660771D01*
X177345347Y-116496562D01*
X175826111Y-115865720D01*
X174181106Y-115864284D01*
X172660771Y-116492474D01*
X171496562Y-117654653D01*
X170865720Y-119173889D01*
X170864284Y-120818894D01*
X165754212Y-120818894D01*
X165754774Y-120176306D01*
X165506462Y-119575345D01*
X165047073Y-119115154D01*
X164446547Y-118865794D01*
X163796306Y-118865226D01*
X163195345Y-119113538D01*
X162735154Y-119572927D01*
X162659997Y-119753925D01*
X162439161Y-119797852D01*
X162439159Y-119797853D01*
X162439160Y-119797853D01*
X162192599Y-119962599D01*
X158570200Y-123584998D01*
X158546702Y-123575241D01*
X157995715Y-123574760D01*
X157486485Y-123785169D01*
X157096539Y-124174436D01*
X156885241Y-124683298D01*
X156884760Y-125234285D01*
X157095169Y-125743515D01*
X157453589Y-126102560D01*
X156250000Y-126102560D01*
X156014683Y-126146838D01*
X155798559Y-126285910D01*
X155653569Y-126498110D01*
X155602560Y-126750000D01*
X149565597Y-126750000D01*
X149691551Y-126697827D01*
X149749720Y-126347221D01*
X148890000Y-125487502D01*
X148875858Y-125501644D01*
X148348356Y-124974142D01*
X148362498Y-124960000D01*
X149417502Y-124960000D01*
X150277221Y-125819720D01*
X150627827Y-125761551D01*
X150802284Y-125035499D01*
X150685613Y-124297953D01*
X150627827Y-124158449D01*
X150277221Y-124100280D01*
X149417502Y-124960000D01*
X148362498Y-124960000D01*
X147502779Y-124100280D01*
X147456434Y-124107969D01*
X147135564Y-123786539D01*
X146626702Y-123575241D01*
X146075715Y-123574760D01*
X145566485Y-123785169D01*
X145176539Y-124174436D01*
X145080024Y-124406870D01*
X144984831Y-124176485D01*
X144595564Y-123786539D01*
X144086702Y-123575241D01*
X143535715Y-123574760D01*
X143026485Y-123785169D01*
X142636539Y-124174436D01*
X142540024Y-124406870D01*
X142444831Y-124176485D01*
X142055564Y-123786539D01*
X141546702Y-123575241D01*
X140995715Y-123574760D01*
X140486485Y-123785169D01*
X140096539Y-124174436D01*
X139885241Y-124683298D01*
X139884760Y-125234285D01*
X140095169Y-125743515D01*
X140453589Y-126102560D01*
X139250000Y-126102560D01*
X139014683Y-126146838D01*
X138798559Y-126285910D01*
X138653569Y-126498110D01*
X138602560Y-126750000D01*
X132565597Y-126750000D01*
X132691551Y-126697827D01*
X132749720Y-126347221D01*
X131890000Y-125487502D01*
X131875858Y-125501644D01*
X131348356Y-124974142D01*
X131362498Y-124960000D01*
X132417502Y-124960000D01*
X133277221Y-125819720D01*
X133627827Y-125761551D01*
X133802284Y-125035499D01*
X133685613Y-124297953D01*
X133627827Y-124158449D01*
X133277221Y-124100280D01*
X132417502Y-124960000D01*
X131362498Y-124960000D01*
X130502779Y-124100280D01*
X130456434Y-124107969D01*
X130135564Y-123786539D01*
X129626702Y-123575241D01*
X129075715Y-123574760D01*
X128566485Y-123785169D01*
X128176539Y-124174436D01*
X128080024Y-124406870D01*
X127984831Y-124176485D01*
X127595564Y-123786539D01*
X127086702Y-123575241D01*
X126535715Y-123574760D01*
X126026485Y-123785169D01*
X125636539Y-124174436D01*
X125540024Y-124406870D01*
X125444831Y-124176485D01*
X125055564Y-123786539D01*
X124546702Y-123575241D01*
X123995715Y-123574760D01*
X123486485Y-123785169D01*
X123096539Y-124174436D01*
X122885241Y-124683298D01*
X122884760Y-125234285D01*
X123095169Y-125743515D01*
X123453589Y-126102560D01*
X122250000Y-126102560D01*
X122014683Y-126146838D01*
X121798559Y-126285910D01*
X121653569Y-126498110D01*
X121602560Y-126750000D01*
X115565597Y-126750000D01*
X115691551Y-126697827D01*
X115749720Y-126347221D01*
X114890000Y-125487502D01*
X114875858Y-125501644D01*
X114348356Y-124974142D01*
X114362498Y-124960000D01*
X115417502Y-124960000D01*
X116277221Y-125819720D01*
X116627827Y-125761551D01*
X116802284Y-125035499D01*
X116685613Y-124297953D01*
X116627827Y-124158449D01*
X116277221Y-124100280D01*
X115417502Y-124960000D01*
X114362498Y-124960000D01*
X113502779Y-124100280D01*
X113456434Y-124107969D01*
X113135564Y-123786539D01*
X112626702Y-123575241D01*
X112075715Y-123574760D01*
X111566485Y-123785169D01*
X111176539Y-124174436D01*
X111080024Y-124406870D01*
X110984831Y-124176485D01*
X110595564Y-123786539D01*
X110086702Y-123575241D01*
X109535715Y-123574760D01*
X109026485Y-123785169D01*
X108636539Y-124174436D01*
X108540024Y-124406870D01*
X108444831Y-124176485D01*
X108055564Y-123786539D01*
X107546702Y-123575241D01*
X106995715Y-123574760D01*
X106486485Y-123785169D01*
X106096539Y-124174436D01*
X105885241Y-124683298D01*
X105884760Y-125234285D01*
X106095169Y-125743515D01*
X106453589Y-126102560D01*
X105250000Y-126102560D01*
X105014683Y-126146838D01*
X104798559Y-126285910D01*
X104653569Y-126498110D01*
X104602560Y-126750000D01*
X95710000Y-126750000D01*
X95710000Y-120818894D01*
X95864284Y-120818894D01*
X96492474Y-122339229D01*
X97654653Y-123503438D01*
X99173889Y-124134280D01*
X100818894Y-124135716D01*
X102181304Y-123572779D01*
X114030280Y-123572779D01*
X114890000Y-124432498D01*
X115749720Y-123572779D01*
X131030280Y-123572779D01*
X131890000Y-124432498D01*
X132749720Y-123572779D01*
X148030280Y-123572779D01*
X148890000Y-124432498D01*
X149749720Y-123572779D01*
X149691551Y-123222173D01*
X148965499Y-123047716D01*
X148227953Y-123164387D01*
X148088449Y-123222173D01*
X148030280Y-123572779D01*
X132749720Y-123572779D01*
X132691551Y-123222173D01*
X131965499Y-123047716D01*
X131227953Y-123164387D01*
X131088449Y-123222173D01*
X131030280Y-123572779D01*
X115749720Y-123572779D01*
X115691551Y-123222173D01*
X114965499Y-123047716D01*
X114227953Y-123164387D01*
X114088449Y-123222173D01*
X114030280Y-123572779D01*
X102181304Y-123572779D01*
X102339229Y-123507526D01*
X103503438Y-122345347D01*
X104134280Y-120826111D01*
X104134282Y-120823694D01*
X104365226Y-120823694D01*
X104613538Y-121424655D01*
X105072927Y-121884846D01*
X105673453Y-122134206D01*
X106323694Y-122134774D01*
X106924655Y-121886462D01*
X107384846Y-121427073D01*
X107634206Y-120826547D01*
X107634208Y-120823694D01*
X111985226Y-120823694D01*
X112233538Y-121424655D01*
X112692927Y-121884846D01*
X113293453Y-122134206D01*
X113943694Y-122134774D01*
X114544655Y-121886462D01*
X115004846Y-121427073D01*
X115254206Y-120826547D01*
X115254208Y-120823694D01*
X119865226Y-120823694D01*
X120113538Y-121424655D01*
X120572927Y-121884846D01*
X121173453Y-122134206D01*
X121823694Y-122134774D01*
X122424655Y-121886462D01*
X122884846Y-121427073D01*
X123134206Y-120826547D01*
X123134208Y-120823694D01*
X127485226Y-120823694D01*
X127733538Y-121424655D01*
X128192927Y-121884846D01*
X128793453Y-122134206D01*
X129443694Y-122134774D01*
X130044655Y-121886462D01*
X130504846Y-121427073D01*
X130754206Y-120826547D01*
X130754208Y-120823694D01*
X137865226Y-120823694D01*
X138113538Y-121424655D01*
X138572927Y-121884846D01*
X139173453Y-122134206D01*
X139823694Y-122134774D01*
X140424655Y-121886462D01*
X140884846Y-121427073D01*
X141134206Y-120826547D01*
X141134208Y-120823694D01*
X145485226Y-120823694D01*
X145733538Y-121424655D01*
X146192927Y-121884846D01*
X146793453Y-122134206D01*
X147443694Y-122134774D01*
X148044655Y-121886462D01*
X148504846Y-121427073D01*
X148754206Y-120826547D01*
X148754208Y-120823694D01*
X154865226Y-120823694D01*
X155113538Y-121424655D01*
X155572927Y-121884846D01*
X156173453Y-122134206D01*
X156823694Y-122134774D01*
X157424655Y-121886462D01*
X157884846Y-121427073D01*
X158134206Y-120826547D01*
X158134774Y-120176306D01*
X158065691Y-120009111D01*
X161832101Y-116242701D01*
X161995194Y-115998614D01*
X162420000Y-116083113D01*
X162969151Y-115973880D01*
X163434698Y-115662811D01*
X163690000Y-115280725D01*
X163945302Y-115662811D01*
X164410849Y-115973880D01*
X164960000Y-116083113D01*
X165509151Y-115973880D01*
X165974698Y-115662811D01*
X166230000Y-115280725D01*
X166485302Y-115662811D01*
X166950849Y-115973880D01*
X167500000Y-116083113D01*
X168049151Y-115973880D01*
X168514698Y-115662811D01*
X168825767Y-115197264D01*
X168935000Y-114648113D01*
X168935000Y-114591887D01*
X168825767Y-114042736D01*
X168514698Y-113577189D01*
X168049151Y-113266120D01*
X167500000Y-113156887D01*
X166950849Y-113266120D01*
X166485302Y-113577189D01*
X166230000Y-113959275D01*
X165974698Y-113577189D01*
X165509151Y-113266120D01*
X164960000Y-113156887D01*
X164410849Y-113266120D01*
X163945302Y-113577189D01*
X163690000Y-113959275D01*
X163434698Y-113577189D01*
X162969151Y-113266120D01*
X162420000Y-113156887D01*
X161870849Y-113266120D01*
X161442533Y-113552312D01*
X161297091Y-113314141D01*
X160689491Y-112871246D01*
X160544156Y-112811071D01*
X160253000Y-113017590D01*
X160253000Y-114247000D01*
X160273000Y-114247000D01*
X160273000Y-114993000D01*
X160253000Y-114993000D01*
X160253000Y-115013000D01*
X159507000Y-115013000D01*
X159507000Y-114993000D01*
X158271172Y-114993000D01*
X158071048Y-115284159D01*
X158462909Y-115925859D01*
X159070509Y-116368754D01*
X159215844Y-116428929D01*
X159506998Y-116222411D01*
X159506998Y-116418200D01*
X156991083Y-118934115D01*
X156826547Y-118865794D01*
X156176306Y-118865226D01*
X155575345Y-119113538D01*
X155115154Y-119572927D01*
X154865794Y-120173453D01*
X154865226Y-120823694D01*
X148754208Y-120823694D01*
X148754774Y-120176306D01*
X148506462Y-119575345D01*
X148047073Y-119115154D01*
X147446547Y-118865794D01*
X146796306Y-118865226D01*
X146195345Y-119113538D01*
X145735154Y-119572927D01*
X145485794Y-120173453D01*
X145485226Y-120823694D01*
X141134208Y-120823694D01*
X141134774Y-120176306D01*
X140886462Y-119575345D01*
X140427073Y-119115154D01*
X139826547Y-118865794D01*
X139176306Y-118865226D01*
X138575345Y-119113538D01*
X138115154Y-119572927D01*
X137865794Y-120173453D01*
X137865226Y-120823694D01*
X130754208Y-120823694D01*
X130754774Y-120176306D01*
X130506462Y-119575345D01*
X130047073Y-119115154D01*
X129446547Y-118865794D01*
X128796306Y-118865226D01*
X128195345Y-119113538D01*
X127735154Y-119572927D01*
X127485794Y-120173453D01*
X127485226Y-120823694D01*
X123134208Y-120823694D01*
X123134774Y-120176306D01*
X123103700Y-120101102D01*
X126230143Y-116974659D01*
X126297091Y-116925859D01*
X126325555Y-116879247D01*
X126487241Y-116717561D01*
X126870849Y-116973880D01*
X127420000Y-117083113D01*
X127969151Y-116973880D01*
X128434698Y-116662811D01*
X128690000Y-116280725D01*
X128945302Y-116662811D01*
X129410849Y-116973880D01*
X129960000Y-117083113D01*
X130509151Y-116973880D01*
X130974698Y-116662811D01*
X131230000Y-116280725D01*
X131485302Y-116662811D01*
X131950849Y-116973880D01*
X132500000Y-117083113D01*
X133049151Y-116973880D01*
X133514698Y-116662811D01*
X133825767Y-116197264D01*
X133907938Y-115784159D01*
X141071048Y-115784159D01*
X141462909Y-116425859D01*
X142070509Y-116868754D01*
X142215844Y-116928929D01*
X142507000Y-116722410D01*
X142507000Y-115493000D01*
X141271172Y-115493000D01*
X141071048Y-115784159D01*
X133907938Y-115784159D01*
X133935000Y-115648113D01*
X133935000Y-115591887D01*
X133825767Y-115042736D01*
X133514698Y-114577189D01*
X133080459Y-114287039D01*
X138672580Y-114287039D01*
X138715247Y-114633043D01*
X139399921Y-114809047D01*
X140099832Y-114709640D01*
X140284753Y-114633043D01*
X140306604Y-114455841D01*
X141071048Y-114455841D01*
X141271172Y-114747000D01*
X142507000Y-114747000D01*
X142507000Y-113517590D01*
X143253000Y-113517590D01*
X143253000Y-114747000D01*
X143273000Y-114747000D01*
X143273000Y-115493000D01*
X143253000Y-115493000D01*
X143253000Y-116722410D01*
X143544156Y-116928929D01*
X143689491Y-116868754D01*
X144297091Y-116425859D01*
X144442533Y-116187688D01*
X144870849Y-116473880D01*
X145420000Y-116583113D01*
X145969151Y-116473880D01*
X146434698Y-116162811D01*
X146690000Y-115780725D01*
X146945302Y-116162811D01*
X147410849Y-116473880D01*
X147960000Y-116583113D01*
X148509151Y-116473880D01*
X148974698Y-116162811D01*
X149230000Y-115780725D01*
X149485302Y-116162811D01*
X149950849Y-116473880D01*
X150500000Y-116583113D01*
X151049151Y-116473880D01*
X151514698Y-116162811D01*
X151825767Y-115697264D01*
X151935000Y-115148113D01*
X151935000Y-115091887D01*
X151825767Y-114542736D01*
X151514698Y-114077189D01*
X151080459Y-113787039D01*
X155672580Y-113787039D01*
X155715247Y-114133043D01*
X156399921Y-114309047D01*
X157099832Y-114209640D01*
X157284753Y-114133043D01*
X157306604Y-113955841D01*
X158071048Y-113955841D01*
X158271172Y-114247000D01*
X159507000Y-114247000D01*
X159507000Y-113017590D01*
X159215844Y-112811071D01*
X159070509Y-112871246D01*
X158462909Y-113314141D01*
X158071048Y-113955841D01*
X157306604Y-113955841D01*
X157327420Y-113787039D01*
X156500000Y-112959619D01*
X155672580Y-113787039D01*
X151080459Y-113787039D01*
X151049151Y-113766120D01*
X150500000Y-113656887D01*
X149950849Y-113766120D01*
X149485302Y-114077189D01*
X149230000Y-114459275D01*
X148974698Y-114077189D01*
X148509151Y-113766120D01*
X147960000Y-113656887D01*
X147410849Y-113766120D01*
X146945302Y-114077189D01*
X146690000Y-114459275D01*
X146434698Y-114077189D01*
X145969151Y-113766120D01*
X145420000Y-113656887D01*
X144870849Y-113766120D01*
X144442533Y-114052312D01*
X144297091Y-113814141D01*
X143689491Y-113371246D01*
X143544156Y-113311071D01*
X143253000Y-113517590D01*
X142507000Y-113517590D01*
X142215844Y-113311071D01*
X142070509Y-113371246D01*
X141462909Y-113814141D01*
X141071048Y-114455841D01*
X140306604Y-114455841D01*
X140327420Y-114287039D01*
X139500000Y-113459619D01*
X138672580Y-114287039D01*
X133080459Y-114287039D01*
X133049151Y-114266120D01*
X132500000Y-114156887D01*
X131950849Y-114266120D01*
X131485302Y-114577189D01*
X131230000Y-114959275D01*
X130974698Y-114577189D01*
X130509151Y-114266120D01*
X129960000Y-114156887D01*
X129410849Y-114266120D01*
X128945302Y-114577189D01*
X128690000Y-114959275D01*
X128434698Y-114577189D01*
X127969151Y-114266120D01*
X127420000Y-114156887D01*
X126870849Y-114266120D01*
X126442533Y-114552312D01*
X126297091Y-114314141D01*
X125689491Y-113871246D01*
X125544156Y-113811071D01*
X125253000Y-114017590D01*
X125253000Y-115247000D01*
X125273000Y-115247000D01*
X125273000Y-115782198D01*
X125042198Y-116013000D01*
X124507000Y-116013000D01*
X124507000Y-115993000D01*
X123271172Y-115993000D01*
X123071048Y-116284159D01*
X123462909Y-116925859D01*
X123848368Y-117206830D01*
X122082940Y-118972258D01*
X121826547Y-118865794D01*
X121176306Y-118865226D01*
X120575345Y-119113538D01*
X120115154Y-119572927D01*
X119865794Y-120173453D01*
X119865226Y-120823694D01*
X115254208Y-120823694D01*
X115254774Y-120176306D01*
X115006462Y-119575345D01*
X114547073Y-119115154D01*
X113946547Y-118865794D01*
X113296306Y-118865226D01*
X112695345Y-119113538D01*
X112235154Y-119572927D01*
X111985794Y-120173453D01*
X111985226Y-120823694D01*
X107634208Y-120823694D01*
X107634774Y-120176306D01*
X107386462Y-119575345D01*
X106927073Y-119115154D01*
X106326547Y-118865794D01*
X105676306Y-118865226D01*
X105075345Y-119113538D01*
X104615154Y-119572927D01*
X104365794Y-120173453D01*
X104365226Y-120823694D01*
X104134282Y-120823694D01*
X104135716Y-119181106D01*
X103507526Y-117660771D01*
X102345347Y-116496562D01*
X100826111Y-115865720D01*
X99181106Y-115864284D01*
X97660771Y-116492474D01*
X96496562Y-117654653D01*
X95865720Y-119173889D01*
X95864284Y-120818894D01*
X95710000Y-120818894D01*
X95710000Y-115784159D01*
X105571048Y-115784159D01*
X105962909Y-116425859D01*
X106570509Y-116868754D01*
X106715844Y-116928929D01*
X107007000Y-116722410D01*
X107007000Y-115493000D01*
X105771172Y-115493000D01*
X105571048Y-115784159D01*
X95710000Y-115784159D01*
X95710000Y-114455841D01*
X105571048Y-114455841D01*
X105771172Y-114747000D01*
X107007000Y-114747000D01*
X107007000Y-113517590D01*
X107753000Y-113517590D01*
X107753000Y-114747000D01*
X107773000Y-114747000D01*
X107773000Y-115493000D01*
X107753000Y-115493000D01*
X107753000Y-116722410D01*
X108044156Y-116928929D01*
X108189491Y-116868754D01*
X108797091Y-116425859D01*
X108942533Y-116187688D01*
X109370849Y-116473880D01*
X109920000Y-116583113D01*
X110469151Y-116473880D01*
X110934698Y-116162811D01*
X111190000Y-115780725D01*
X111445302Y-116162811D01*
X111910849Y-116473880D01*
X112460000Y-116583113D01*
X113009151Y-116473880D01*
X113474698Y-116162811D01*
X113730000Y-115780725D01*
X113985302Y-116162811D01*
X114450849Y-116473880D01*
X115000000Y-116583113D01*
X115549151Y-116473880D01*
X116014698Y-116162811D01*
X116325767Y-115697264D01*
X116435000Y-115148113D01*
X116435000Y-115091887D01*
X116407939Y-114955841D01*
X123071048Y-114955841D01*
X123271172Y-115247000D01*
X124507000Y-115247000D01*
X124507000Y-114017590D01*
X124215844Y-113811071D01*
X124070509Y-113871246D01*
X123462909Y-114314141D01*
X123071048Y-114955841D01*
X116407939Y-114955841D01*
X116325767Y-114542736D01*
X116014698Y-114077189D01*
X115580459Y-113787039D01*
X120672580Y-113787039D01*
X120715247Y-114133043D01*
X121399921Y-114309047D01*
X122099832Y-114209640D01*
X122284753Y-114133043D01*
X122327420Y-113787039D01*
X121500000Y-112959619D01*
X120672580Y-113787039D01*
X115580459Y-113787039D01*
X115549151Y-113766120D01*
X115000000Y-113656887D01*
X114450849Y-113766120D01*
X113985302Y-114077189D01*
X113730000Y-114459275D01*
X113474698Y-114077189D01*
X113009151Y-113766120D01*
X112460000Y-113656887D01*
X111910849Y-113766120D01*
X111445302Y-114077189D01*
X111190000Y-114459275D01*
X110934698Y-114077189D01*
X110469151Y-113766120D01*
X109920000Y-113656887D01*
X109370849Y-113766120D01*
X108942533Y-114052312D01*
X108797091Y-113814141D01*
X108189491Y-113371246D01*
X108044156Y-113311071D01*
X107753000Y-113517590D01*
X107007000Y-113517590D01*
X106715844Y-113311071D01*
X106570509Y-113371246D01*
X105962909Y-113814141D01*
X105571048Y-114455841D01*
X95710000Y-114455841D01*
X95710000Y-113787039D01*
X103422580Y-113787039D01*
X103465247Y-114133043D01*
X104149921Y-114309047D01*
X104849832Y-114209640D01*
X105034753Y-114133043D01*
X105077420Y-113787039D01*
X104250000Y-112959619D01*
X103422580Y-113787039D01*
X95710000Y-113787039D01*
X95710000Y-112399921D01*
X102440953Y-112399921D01*
X102540360Y-113099832D01*
X102616957Y-113284753D01*
X102962961Y-113327420D01*
X103790381Y-112500000D01*
X104709619Y-112500000D01*
X105537039Y-113327420D01*
X105883043Y-113284753D01*
X106059047Y-112600079D01*
X106030619Y-112399921D01*
X119690953Y-112399921D01*
X119790360Y-113099832D01*
X119866957Y-113284753D01*
X120212961Y-113327420D01*
X121040381Y-112500000D01*
X121959619Y-112500000D01*
X122787039Y-113327420D01*
X123133043Y-113284753D01*
X123231968Y-112899921D01*
X137690953Y-112899921D01*
X137790360Y-113599832D01*
X137866957Y-113784753D01*
X138212961Y-113827420D01*
X139040381Y-113000000D01*
X139959619Y-113000000D01*
X140787039Y-113827420D01*
X141133043Y-113784753D01*
X141309047Y-113100079D01*
X141209640Y-112400168D01*
X141209538Y-112399921D01*
X154690953Y-112399921D01*
X154790360Y-113099832D01*
X154866957Y-113284753D01*
X155212961Y-113327420D01*
X156040381Y-112500000D01*
X156959619Y-112500000D01*
X157787039Y-113327420D01*
X158133043Y-113284753D01*
X158309047Y-112600079D01*
X158209640Y-111900168D01*
X158133043Y-111715247D01*
X157787039Y-111672580D01*
X156959619Y-112500000D01*
X156040381Y-112500000D01*
X155212961Y-111672580D01*
X154866957Y-111715247D01*
X154690953Y-112399921D01*
X141209538Y-112399921D01*
X141133043Y-112215247D01*
X140787039Y-112172580D01*
X139959619Y-113000000D01*
X139040381Y-113000000D01*
X138212961Y-112172580D01*
X137866957Y-112215247D01*
X137690953Y-112899921D01*
X123231968Y-112899921D01*
X123309047Y-112600079D01*
X123209640Y-111900168D01*
X123133043Y-111715247D01*
X122787039Y-111672580D01*
X121959619Y-112500000D01*
X121040381Y-112500000D01*
X120212961Y-111672580D01*
X119866957Y-111715247D01*
X119690953Y-112399921D01*
X106030619Y-112399921D01*
X105959640Y-111900168D01*
X105883043Y-111715247D01*
X105537039Y-111672580D01*
X104709619Y-112500000D01*
X103790381Y-112500000D01*
X102962961Y-111672580D01*
X102616957Y-111715247D01*
X102440953Y-112399921D01*
X95710000Y-112399921D01*
X95710000Y-109350000D01*
X102952560Y-109350000D01*
X102952560Y-110650000D01*
X102996838Y-110885317D01*
X103135910Y-111101441D01*
X103348110Y-111246431D01*
X103483459Y-111273840D01*
X104250000Y-112040381D01*
X105014482Y-111275899D01*
X105135317Y-111253162D01*
X105351441Y-111114090D01*
X105496431Y-110901890D01*
X105547440Y-110650000D01*
X105547440Y-109350000D01*
X120202560Y-109350000D01*
X120202560Y-110650000D01*
X120246838Y-110885317D01*
X120385910Y-111101441D01*
X120598110Y-111246431D01*
X120733459Y-111273840D01*
X121500000Y-112040381D01*
X122264482Y-111275899D01*
X122385317Y-111253162D01*
X122601441Y-111114090D01*
X122746431Y-110901890D01*
X122797440Y-110650000D01*
X122797440Y-109850000D01*
X138202560Y-109850000D01*
X138202560Y-111150000D01*
X138246838Y-111385317D01*
X138385910Y-111601441D01*
X138598110Y-111746431D01*
X138733459Y-111773840D01*
X139500000Y-112540381D01*
X140264482Y-111775899D01*
X140385317Y-111753162D01*
X140601441Y-111614090D01*
X140746431Y-111401890D01*
X140797440Y-111150000D01*
X140797440Y-109850000D01*
X140753162Y-109614683D01*
X140614090Y-109398559D01*
X140543022Y-109350000D01*
X155202560Y-109350000D01*
X155202560Y-110650000D01*
X155246838Y-110885317D01*
X155385910Y-111101441D01*
X155598110Y-111246431D01*
X155733459Y-111273840D01*
X156500000Y-112040381D01*
X157264482Y-111275899D01*
X157385317Y-111253162D01*
X157601441Y-111114090D01*
X157746431Y-110901890D01*
X157797440Y-110650000D01*
X157797440Y-109350000D01*
X157753162Y-109114683D01*
X157614090Y-108898559D01*
X157401890Y-108753569D01*
X157150000Y-108702560D01*
X155850000Y-108702560D01*
X155614683Y-108746838D01*
X155398559Y-108885910D01*
X155253569Y-109098110D01*
X155202560Y-109350000D01*
X140543022Y-109350000D01*
X140401890Y-109253569D01*
X140150000Y-109202560D01*
X138850000Y-109202560D01*
X138614683Y-109246838D01*
X138398559Y-109385910D01*
X138253569Y-109598110D01*
X138202560Y-109850000D01*
X122797440Y-109850000D01*
X122797440Y-109350000D01*
X122753162Y-109114683D01*
X122614090Y-108898559D01*
X122401890Y-108753569D01*
X122150000Y-108702560D01*
X120850000Y-108702560D01*
X120614683Y-108746838D01*
X120398559Y-108885910D01*
X120253569Y-109098110D01*
X120202560Y-109350000D01*
X105547440Y-109350000D01*
X105503162Y-109114683D01*
X105364090Y-108898559D01*
X105151890Y-108753569D01*
X104900000Y-108702560D01*
X103600000Y-108702560D01*
X103364683Y-108746838D01*
X103148559Y-108885910D01*
X103003569Y-109098110D01*
X102952560Y-109350000D01*
X95710000Y-109350000D01*
X95710000Y-107471887D01*
X105945000Y-107471887D01*
X105945000Y-107528113D01*
X106054233Y-108077264D01*
X106365302Y-108542811D01*
X106830849Y-108853880D01*
X107380000Y-108963113D01*
X107929151Y-108853880D01*
X108394698Y-108542811D01*
X108650000Y-108160725D01*
X108905302Y-108542811D01*
X109370849Y-108853880D01*
X109920000Y-108963113D01*
X110469151Y-108853880D01*
X110934698Y-108542811D01*
X111190000Y-108160725D01*
X111445302Y-108542811D01*
X111910849Y-108853880D01*
X112460000Y-108963113D01*
X113009151Y-108853880D01*
X113474698Y-108542811D01*
X113571101Y-108398535D01*
X113596838Y-108535317D01*
X113735910Y-108751441D01*
X113948110Y-108896431D01*
X114200000Y-108947440D01*
X115800000Y-108947440D01*
X116035317Y-108903162D01*
X116251441Y-108764090D01*
X116396431Y-108551890D01*
X116447440Y-108300000D01*
X116447440Y-106700000D01*
X116403162Y-106464683D01*
X116264090Y-106248559D01*
X116051890Y-106103569D01*
X115800000Y-106052560D01*
X114200000Y-106052560D01*
X113964683Y-106096838D01*
X113748559Y-106235910D01*
X113603569Y-106448110D01*
X113572185Y-106603089D01*
X113474698Y-106457189D01*
X113009151Y-106146120D01*
X112460000Y-106036887D01*
X111910849Y-106146120D01*
X111445302Y-106457189D01*
X111190000Y-106839275D01*
X110934698Y-106457189D01*
X110469151Y-106146120D01*
X109920000Y-106036887D01*
X109370849Y-106146120D01*
X108905302Y-106457189D01*
X108650000Y-106839275D01*
X108394698Y-106457189D01*
X107929151Y-106146120D01*
X107380000Y-106036887D01*
X106830849Y-106146120D01*
X106365302Y-106457189D01*
X106054233Y-106922736D01*
X105945000Y-107471887D01*
X95710000Y-107471887D01*
X95710000Y-103274750D01*
X98863000Y-103274750D01*
X98863000Y-103644174D01*
X99034576Y-104058394D01*
X99351606Y-104375425D01*
X99765826Y-104547000D01*
X100135250Y-104547000D01*
X100417000Y-104265250D01*
X100417000Y-102993000D01*
X99144750Y-102993000D01*
X98863000Y-103274750D01*
X95710000Y-103274750D01*
X95710000Y-101595826D01*
X98863000Y-101595826D01*
X98863000Y-101965250D01*
X99144750Y-102247000D01*
X100417000Y-102247000D01*
X100417000Y-100974750D01*
X100135250Y-100693000D01*
X99765826Y-100693000D01*
X99351606Y-100864575D01*
X99034576Y-101181606D01*
X98863000Y-101595826D01*
X95710000Y-101595826D01*
X95710000Y-87664187D01*
X99354752Y-87664187D01*
X99572757Y-88191800D01*
X99976077Y-88595824D01*
X100503309Y-88814750D01*
X101074187Y-88815248D01*
X101601800Y-88597243D01*
X102005824Y-88193923D01*
X102059862Y-88063785D01*
X102112757Y-88191800D01*
X102516077Y-88595824D01*
X102646215Y-88649862D01*
X102518200Y-88702757D01*
X102114176Y-89106077D01*
X101895250Y-89633309D01*
X101894752Y-90204187D01*
X102112757Y-90731800D01*
X102516077Y-91135824D01*
X103043309Y-91354750D01*
X103614187Y-91355248D01*
X104141800Y-91137243D01*
X104545824Y-90733923D01*
X104764750Y-90206691D01*
X104765248Y-89635813D01*
X104547243Y-89108200D01*
X104143923Y-88704176D01*
X104013785Y-88650138D01*
X104141800Y-88597243D01*
X104545824Y-88193923D01*
X104599862Y-88063785D01*
X104652757Y-88191800D01*
X105056077Y-88595824D01*
X105583309Y-88814750D01*
X106154187Y-88815248D01*
X106681800Y-88597243D01*
X107085824Y-88193923D01*
X107139862Y-88063785D01*
X107192757Y-88191800D01*
X107596077Y-88595824D01*
X107726215Y-88649862D01*
X107598200Y-88702757D01*
X107194176Y-89106077D01*
X106975250Y-89633309D01*
X106974752Y-90204187D01*
X107192757Y-90731800D01*
X107596077Y-91135824D01*
X108123309Y-91354750D01*
X108694187Y-91355248D01*
X109221800Y-91137243D01*
X109625824Y-90733923D01*
X109679862Y-90603785D01*
X109732757Y-90731800D01*
X110136077Y-91135824D01*
X110663309Y-91354750D01*
X111234187Y-91355248D01*
X111761800Y-91137243D01*
X112165824Y-90733923D01*
X112219862Y-90603785D01*
X112272757Y-90731800D01*
X112676077Y-91135824D01*
X113203309Y-91354750D01*
X113774187Y-91355248D01*
X114301800Y-91137243D01*
X114705824Y-90733923D01*
X114924750Y-90206691D01*
X114925248Y-89635813D01*
X114707243Y-89108200D01*
X114303923Y-88704176D01*
X114173785Y-88650138D01*
X114301800Y-88597243D01*
X114705824Y-88193923D01*
X114759862Y-88063785D01*
X114812757Y-88191800D01*
X115216077Y-88595824D01*
X115743309Y-88814750D01*
X116314187Y-88815248D01*
X116841800Y-88597243D01*
X117245824Y-88193923D01*
X117299862Y-88063785D01*
X117352757Y-88191800D01*
X117756077Y-88595824D01*
X118283309Y-88814750D01*
X118854187Y-88815248D01*
X119381800Y-88597243D01*
X119785824Y-88193923D01*
X119839862Y-88063785D01*
X119892757Y-88191800D01*
X120296077Y-88595824D01*
X120823309Y-88814750D01*
X121394187Y-88815248D01*
X121921800Y-88597243D01*
X122325824Y-88193923D01*
X122379862Y-88063785D01*
X122432757Y-88191800D01*
X122836077Y-88595824D01*
X123363309Y-88814750D01*
X123934187Y-88815248D01*
X124461800Y-88597243D01*
X124865824Y-88193923D01*
X124919862Y-88063785D01*
X124972757Y-88191800D01*
X125376077Y-88595824D01*
X125903309Y-88814750D01*
X126474187Y-88815248D01*
X127001800Y-88597243D01*
X127405824Y-88193923D01*
X127459862Y-88063785D01*
X127512757Y-88191800D01*
X127916077Y-88595824D01*
X128443309Y-88814750D01*
X129014187Y-88815248D01*
X129541800Y-88597243D01*
X129945824Y-88193923D01*
X129999862Y-88063785D01*
X130052757Y-88191800D01*
X130456077Y-88595824D01*
X130983309Y-88814750D01*
X131300172Y-88815026D01*
X125084974Y-95030224D01*
X125085248Y-94715813D01*
X124867243Y-94188200D01*
X124463923Y-93784176D01*
X124333785Y-93730138D01*
X124461800Y-93677243D01*
X124865824Y-93273923D01*
X125084750Y-92746691D01*
X125085248Y-92175813D01*
X124867243Y-91648200D01*
X124463923Y-91244176D01*
X123936691Y-91025250D01*
X123365813Y-91024752D01*
X122838200Y-91242757D01*
X122434176Y-91646077D01*
X122380138Y-91776215D01*
X122327243Y-91648200D01*
X121923923Y-91244176D01*
X121396691Y-91025250D01*
X120825813Y-91024752D01*
X120298200Y-91242757D01*
X119894176Y-91646077D01*
X119840138Y-91776215D01*
X119787243Y-91648200D01*
X119383923Y-91244176D01*
X118856691Y-91025250D01*
X118285813Y-91024752D01*
X117758200Y-91242757D01*
X117354176Y-91646077D01*
X117300138Y-91776215D01*
X117247243Y-91648200D01*
X116843923Y-91244176D01*
X116316691Y-91025250D01*
X115745813Y-91024752D01*
X115218200Y-91242757D01*
X114814176Y-91646077D01*
X114595250Y-92173309D01*
X114594752Y-92744187D01*
X114812757Y-93271800D01*
X115216077Y-93675824D01*
X115346215Y-93729862D01*
X115218200Y-93782757D01*
X114814176Y-94186077D01*
X114595250Y-94713309D01*
X114594752Y-95284187D01*
X114812757Y-95811800D01*
X115216077Y-96215824D01*
X115743309Y-96434750D01*
X116314187Y-96435248D01*
X116841800Y-96217243D01*
X117245824Y-95813923D01*
X117299862Y-95683785D01*
X117352757Y-95811800D01*
X117756077Y-96215824D01*
X118283309Y-96434750D01*
X118854187Y-96435248D01*
X119381800Y-96217243D01*
X119785824Y-95813923D01*
X119839862Y-95683785D01*
X119892757Y-95811800D01*
X120296077Y-96215824D01*
X120823309Y-96434750D01*
X121394187Y-96435248D01*
X121921800Y-96217243D01*
X122325824Y-95813923D01*
X122379862Y-95683785D01*
X122432757Y-95811800D01*
X122836077Y-96215824D01*
X123363309Y-96434750D01*
X123680172Y-96435026D01*
X118908454Y-101206744D01*
X118856691Y-101185250D01*
X118285813Y-101184752D01*
X117758200Y-101402757D01*
X117354176Y-101806077D01*
X117300138Y-101936215D01*
X117247243Y-101808200D01*
X116843923Y-101404176D01*
X116316691Y-101185250D01*
X115745813Y-101184752D01*
X115218200Y-101402757D01*
X114814176Y-101806077D01*
X114760138Y-101936215D01*
X114707243Y-101808200D01*
X114303923Y-101404176D01*
X113776691Y-101185250D01*
X113205813Y-101184752D01*
X112678200Y-101402757D01*
X112274176Y-101806077D01*
X112220138Y-101936215D01*
X112167243Y-101808200D01*
X111763923Y-101404176D01*
X111236691Y-101185250D01*
X110665813Y-101184752D01*
X110138200Y-101402757D01*
X109734176Y-101806077D01*
X109680138Y-101936215D01*
X109627243Y-101808200D01*
X109223923Y-101404176D01*
X108696691Y-101185250D01*
X108125813Y-101184752D01*
X107598200Y-101402757D01*
X107194176Y-101806077D01*
X107140138Y-101936215D01*
X107087243Y-101808200D01*
X106683923Y-101404176D01*
X106156691Y-101185250D01*
X105585813Y-101184752D01*
X105058200Y-101402757D01*
X104654176Y-101806077D01*
X104600138Y-101936215D01*
X104547243Y-101808200D01*
X104143923Y-101404176D01*
X103616691Y-101185250D01*
X103045813Y-101184752D01*
X102619663Y-101360834D01*
X102545424Y-101181606D01*
X102228394Y-100864575D01*
X101814174Y-100693000D01*
X101444750Y-100693000D01*
X101163000Y-100974750D01*
X101163000Y-102247000D01*
X101183000Y-102247000D01*
X101183000Y-102993000D01*
X101163000Y-102993000D01*
X101163000Y-104265250D01*
X101444750Y-104547000D01*
X101814174Y-104547000D01*
X102228394Y-104375425D01*
X102545424Y-104058394D01*
X102619779Y-103878885D01*
X103043309Y-104054750D01*
X103614187Y-104055248D01*
X104141800Y-103837243D01*
X104545824Y-103433923D01*
X104599862Y-103303785D01*
X104652757Y-103431800D01*
X105056077Y-103835824D01*
X105583309Y-104054750D01*
X106154187Y-104055248D01*
X106681800Y-103837243D01*
X107085824Y-103433923D01*
X107139862Y-103303785D01*
X107192757Y-103431800D01*
X107596077Y-103835824D01*
X108123309Y-104054750D01*
X108694187Y-104055248D01*
X109221800Y-103837243D01*
X109625824Y-103433923D01*
X109679862Y-103303785D01*
X109732757Y-103431800D01*
X110136077Y-103835824D01*
X110663309Y-104054750D01*
X111234187Y-104055248D01*
X111761800Y-103837243D01*
X112165824Y-103433923D01*
X112219862Y-103303785D01*
X112272757Y-103431800D01*
X112676077Y-103835824D01*
X113203309Y-104054750D01*
X113774187Y-104055248D01*
X114301800Y-103837243D01*
X114705824Y-103433923D01*
X114759862Y-103303785D01*
X114812757Y-103431800D01*
X115216077Y-103835824D01*
X115743309Y-104054750D01*
X116314187Y-104055248D01*
X116841800Y-103837243D01*
X117245824Y-103433923D01*
X117299862Y-103303785D01*
X117352757Y-103431800D01*
X117756077Y-103835824D01*
X118283309Y-104054750D01*
X118854187Y-104055248D01*
X119381800Y-103837243D01*
X119785824Y-103433923D01*
X119839862Y-103303785D01*
X119892757Y-103431800D01*
X120296077Y-103835824D01*
X120823309Y-104054750D01*
X121394187Y-104055248D01*
X121448149Y-104032951D01*
X124169277Y-106754079D01*
X123865302Y-106957189D01*
X123554233Y-107422736D01*
X123445000Y-107971887D01*
X123445000Y-108028113D01*
X123554233Y-108577264D01*
X123865302Y-109042811D01*
X124330849Y-109353880D01*
X124880000Y-109463113D01*
X125429151Y-109353880D01*
X125894698Y-109042811D01*
X126150000Y-108660725D01*
X126405302Y-109042811D01*
X126870849Y-109353880D01*
X127420000Y-109463113D01*
X127969151Y-109353880D01*
X128434698Y-109042811D01*
X128690000Y-108660725D01*
X128945302Y-109042811D01*
X129410849Y-109353880D01*
X129960000Y-109463113D01*
X130509151Y-109353880D01*
X130974698Y-109042811D01*
X131071101Y-108898535D01*
X131096838Y-109035317D01*
X131235910Y-109251441D01*
X131448110Y-109396431D01*
X131700000Y-109447440D01*
X133300000Y-109447440D01*
X133535317Y-109403162D01*
X133751441Y-109264090D01*
X133896431Y-109051890D01*
X133947440Y-108800000D01*
X133947440Y-107570700D01*
X140750598Y-107570700D01*
X141217299Y-108037401D01*
X141463860Y-108202148D01*
X141512114Y-108211746D01*
X141664321Y-108242022D01*
X141865302Y-108542811D01*
X142330849Y-108853880D01*
X142880000Y-108963113D01*
X143429151Y-108853880D01*
X143894698Y-108542811D01*
X144150000Y-108160725D01*
X144405302Y-108542811D01*
X144870849Y-108853880D01*
X145420000Y-108963113D01*
X145969151Y-108853880D01*
X146434698Y-108542811D01*
X146690000Y-108160725D01*
X146945302Y-108542811D01*
X147410849Y-108853880D01*
X147960000Y-108963113D01*
X148509151Y-108853880D01*
X148974698Y-108542811D01*
X149071101Y-108398535D01*
X149096838Y-108535317D01*
X149235910Y-108751441D01*
X149448110Y-108896431D01*
X149700000Y-108947440D01*
X151300000Y-108947440D01*
X151535317Y-108903162D01*
X151751441Y-108764090D01*
X151896431Y-108551890D01*
X151947440Y-108300000D01*
X151947440Y-106700000D01*
X151935153Y-106634700D01*
X157314598Y-106634700D01*
X158217299Y-107537401D01*
X158463861Y-107702148D01*
X158664321Y-107742022D01*
X158865302Y-108042811D01*
X159330849Y-108353880D01*
X159880000Y-108463113D01*
X160429151Y-108353880D01*
X160894698Y-108042811D01*
X161150000Y-107660725D01*
X161405302Y-108042811D01*
X161870849Y-108353880D01*
X162420000Y-108463113D01*
X162969151Y-108353880D01*
X163434698Y-108042811D01*
X163690000Y-107660725D01*
X163945302Y-108042811D01*
X164410849Y-108353880D01*
X164960000Y-108463113D01*
X165509151Y-108353880D01*
X165974698Y-108042811D01*
X166071101Y-107898535D01*
X166096838Y-108035317D01*
X166235910Y-108251441D01*
X166448110Y-108396431D01*
X166700000Y-108447440D01*
X168300000Y-108447440D01*
X168535317Y-108403162D01*
X168751441Y-108264090D01*
X168896431Y-108051890D01*
X168947440Y-107800000D01*
X168947440Y-106200000D01*
X168903162Y-105964683D01*
X168764090Y-105748559D01*
X168551890Y-105603569D01*
X168300000Y-105552560D01*
X166700000Y-105552560D01*
X166464683Y-105596838D01*
X166248559Y-105735910D01*
X166103569Y-105948110D01*
X166072185Y-106103089D01*
X165974698Y-105957189D01*
X165509151Y-105646120D01*
X164960000Y-105536887D01*
X164410849Y-105646120D01*
X163945302Y-105957189D01*
X163690000Y-106339275D01*
X163434698Y-105957189D01*
X162969151Y-105646120D01*
X162420000Y-105536887D01*
X161870849Y-105646120D01*
X161405302Y-105957189D01*
X161150000Y-106339275D01*
X160894698Y-105957189D01*
X160429151Y-105646120D01*
X159880000Y-105536887D01*
X159330849Y-105646120D01*
X158865302Y-105957189D01*
X158833815Y-106004313D01*
X158166801Y-105337299D01*
X157920239Y-105172552D01*
X157629400Y-105114700D01*
X127219502Y-105114700D01*
X126159776Y-104054974D01*
X126474187Y-104055248D01*
X127001800Y-103837243D01*
X127405824Y-103433923D01*
X127459862Y-103303785D01*
X127512757Y-103431800D01*
X127916077Y-103835824D01*
X128443309Y-104054750D01*
X129014187Y-104055248D01*
X129541800Y-103837243D01*
X129945824Y-103433923D01*
X129999862Y-103303785D01*
X130052757Y-103431800D01*
X130456077Y-103835824D01*
X130983309Y-104054750D01*
X131554187Y-104055248D01*
X132081800Y-103837243D01*
X132485824Y-103433923D01*
X132539862Y-103303785D01*
X132592757Y-103431800D01*
X132996077Y-103835824D01*
X133523309Y-104054750D01*
X134094187Y-104055248D01*
X134621800Y-103837243D01*
X135025824Y-103433923D01*
X135079862Y-103303785D01*
X135132757Y-103431800D01*
X135536077Y-103835824D01*
X136063309Y-104054750D01*
X136634187Y-104055248D01*
X137161800Y-103837243D01*
X137565824Y-103433923D01*
X137619862Y-103303785D01*
X137672757Y-103431800D01*
X138076077Y-103835824D01*
X138603309Y-104054750D01*
X139174187Y-104055248D01*
X139701800Y-103837243D01*
X140105824Y-103433923D01*
X140159862Y-103303785D01*
X140212757Y-103431800D01*
X140616077Y-103835824D01*
X141143309Y-104054750D01*
X141714187Y-104055248D01*
X142241800Y-103837243D01*
X142645824Y-103433923D01*
X142699862Y-103303785D01*
X142752757Y-103431800D01*
X143156077Y-103835824D01*
X143683309Y-104054750D01*
X144254187Y-104055248D01*
X144781800Y-103837243D01*
X145185824Y-103433923D01*
X145239862Y-103303785D01*
X145292757Y-103431800D01*
X145696077Y-103835824D01*
X146223309Y-104054750D01*
X146794187Y-104055248D01*
X147321800Y-103837243D01*
X147725824Y-103433923D01*
X147779862Y-103303785D01*
X147832757Y-103431800D01*
X148236077Y-103835824D01*
X148763309Y-104054750D01*
X149334187Y-104055248D01*
X149861800Y-103837243D01*
X150265824Y-103433923D01*
X150319862Y-103303785D01*
X150372757Y-103431800D01*
X150776077Y-103835824D01*
X151303309Y-104054750D01*
X151874187Y-104055248D01*
X152401800Y-103837243D01*
X152805824Y-103433923D01*
X152859862Y-103303785D01*
X152912757Y-103431800D01*
X153316077Y-103835824D01*
X153843309Y-104054750D01*
X154414187Y-104055248D01*
X154941800Y-103837243D01*
X155345824Y-103433923D01*
X155399862Y-103303785D01*
X155452757Y-103431800D01*
X155856077Y-103835824D01*
X156383309Y-104054750D01*
X156954187Y-104055248D01*
X157481800Y-103837243D01*
X157885824Y-103433923D01*
X157939862Y-103303785D01*
X157992757Y-103431800D01*
X158396077Y-103835824D01*
X158923309Y-104054750D01*
X159494187Y-104055248D01*
X160021800Y-103837243D01*
X160425824Y-103433923D01*
X160644750Y-102906691D01*
X160645248Y-102335813D01*
X160427243Y-101808200D01*
X160023923Y-101404176D01*
X159496691Y-101185250D01*
X158925813Y-101184752D01*
X158398200Y-101402757D01*
X157994176Y-101806077D01*
X157940138Y-101936215D01*
X157887243Y-101808200D01*
X157483923Y-101404176D01*
X156956691Y-101185250D01*
X156385813Y-101184752D01*
X155858200Y-101402757D01*
X155454176Y-101806077D01*
X155400138Y-101936215D01*
X155347243Y-101808200D01*
X154943923Y-101404176D01*
X154416691Y-101185250D01*
X153845813Y-101184752D01*
X153318200Y-101402757D01*
X152914176Y-101806077D01*
X152860138Y-101936215D01*
X152807243Y-101808200D01*
X152403923Y-101404176D01*
X151876691Y-101185250D01*
X151305813Y-101184752D01*
X150778200Y-101402757D01*
X150374176Y-101806077D01*
X150320138Y-101936215D01*
X150267243Y-101808200D01*
X149863923Y-101404176D01*
X149336691Y-101185250D01*
X148765813Y-101184752D01*
X148238200Y-101402757D01*
X147834176Y-101806077D01*
X147780138Y-101936215D01*
X147727243Y-101808200D01*
X147323923Y-101404176D01*
X147193785Y-101350138D01*
X147321800Y-101297243D01*
X147725824Y-100893923D01*
X147944750Y-100366691D01*
X147945248Y-99795813D01*
X147727243Y-99268200D01*
X147323923Y-98864176D01*
X147193785Y-98810138D01*
X147321800Y-98757243D01*
X147683567Y-98396106D01*
X173631396Y-98396106D01*
X173691117Y-98747918D01*
X174421589Y-98924411D01*
X175163997Y-98807931D01*
X175308883Y-98747918D01*
X175368604Y-98396106D01*
X174500000Y-97527502D01*
X173631396Y-98396106D01*
X147683567Y-98396106D01*
X147725824Y-98353923D01*
X147944750Y-97826691D01*
X147945248Y-97255813D01*
X147807150Y-96921589D01*
X172575589Y-96921589D01*
X172692069Y-97663997D01*
X172752082Y-97808883D01*
X173103894Y-97868604D01*
X173972498Y-97000000D01*
X175027502Y-97000000D01*
X175896106Y-97868604D01*
X176247918Y-97808883D01*
X176376510Y-97276661D01*
X178102758Y-97276661D01*
X178314990Y-97790303D01*
X178707630Y-98183629D01*
X179220900Y-98396757D01*
X179776661Y-98397242D01*
X180290303Y-98185010D01*
X180683629Y-97792370D01*
X180896757Y-97279100D01*
X180897242Y-96723339D01*
X180685010Y-96209697D01*
X180292370Y-95816371D01*
X179779100Y-95603243D01*
X179223339Y-95602758D01*
X178709697Y-95814990D01*
X178316371Y-96207630D01*
X178103243Y-96720900D01*
X178102758Y-97276661D01*
X176376510Y-97276661D01*
X176424411Y-97078411D01*
X176307931Y-96336003D01*
X176247918Y-96191117D01*
X175896106Y-96131396D01*
X175027502Y-97000000D01*
X173972498Y-97000000D01*
X173103894Y-96131396D01*
X172752082Y-96191117D01*
X172575589Y-96921589D01*
X147807150Y-96921589D01*
X147727243Y-96728200D01*
X147323923Y-96324176D01*
X147193785Y-96270138D01*
X147321800Y-96217243D01*
X147725824Y-95813923D01*
X147779862Y-95683785D01*
X147832757Y-95811800D01*
X148236077Y-96215824D01*
X148763309Y-96434750D01*
X149334187Y-96435248D01*
X149861800Y-96217243D01*
X150265824Y-95813923D01*
X150319862Y-95683785D01*
X150372757Y-95811800D01*
X150776077Y-96215824D01*
X151303309Y-96434750D01*
X151874187Y-96435248D01*
X152401800Y-96217243D01*
X152805824Y-95813923D01*
X152859862Y-95683785D01*
X152912757Y-95811800D01*
X153316077Y-96215824D01*
X153843309Y-96434750D01*
X154414187Y-96435248D01*
X154941800Y-96217243D01*
X155345824Y-95813923D01*
X155399862Y-95683785D01*
X155452757Y-95811800D01*
X155856077Y-96215824D01*
X156383309Y-96434750D01*
X156954187Y-96435248D01*
X157481800Y-96217243D01*
X157885824Y-95813923D01*
X157939862Y-95683785D01*
X157992757Y-95811800D01*
X158396077Y-96215824D01*
X158923309Y-96434750D01*
X159494187Y-96435248D01*
X160021800Y-96217243D01*
X160425824Y-95813923D01*
X160644750Y-95286691D01*
X160645248Y-94715813D01*
X160463795Y-94276661D01*
X173102758Y-94276661D01*
X173314990Y-94790303D01*
X173707630Y-95183629D01*
X173781912Y-95214474D01*
X173691117Y-95252082D01*
X173631396Y-95603894D01*
X174500000Y-96472498D01*
X175368604Y-95603894D01*
X175308883Y-95252082D01*
X175194728Y-95224501D01*
X175290303Y-95185010D01*
X175683629Y-94792370D01*
X175896757Y-94279100D01*
X175896759Y-94276661D01*
X178102758Y-94276661D01*
X178314990Y-94790303D01*
X178707630Y-95183629D01*
X179220900Y-95396757D01*
X179776661Y-95397242D01*
X180290303Y-95185010D01*
X180683629Y-94792370D01*
X180896757Y-94279100D01*
X180897242Y-93723339D01*
X180685010Y-93209697D01*
X180292370Y-92816371D01*
X179779100Y-92603243D01*
X179223339Y-92602758D01*
X178709697Y-92814990D01*
X178316371Y-93207630D01*
X178103243Y-93720900D01*
X178102758Y-94276661D01*
X175896759Y-94276661D01*
X175897242Y-93723339D01*
X175685010Y-93209697D01*
X175292370Y-92816371D01*
X174779100Y-92603243D01*
X174223339Y-92602758D01*
X173709697Y-92814990D01*
X173316371Y-93207630D01*
X173103243Y-93720900D01*
X173102758Y-94276661D01*
X160463795Y-94276661D01*
X160427243Y-94188200D01*
X160023923Y-93784176D01*
X159893785Y-93730138D01*
X160021800Y-93677243D01*
X160425824Y-93273923D01*
X160644750Y-92746691D01*
X160645248Y-92175813D01*
X160427243Y-91648200D01*
X160023923Y-91244176D01*
X159496691Y-91025250D01*
X158925813Y-91024752D01*
X158398200Y-91242757D01*
X157994176Y-91646077D01*
X157940138Y-91776215D01*
X157887243Y-91648200D01*
X157483923Y-91244176D01*
X156956691Y-91025250D01*
X156385813Y-91024752D01*
X155858200Y-91242757D01*
X155454176Y-91646077D01*
X155400138Y-91776215D01*
X155347243Y-91648200D01*
X154943923Y-91244176D01*
X154416691Y-91025250D01*
X153845813Y-91024752D01*
X153318200Y-91242757D01*
X152914176Y-91646077D01*
X152860138Y-91776215D01*
X152807243Y-91648200D01*
X152403923Y-91244176D01*
X151876691Y-91025250D01*
X151305813Y-91024752D01*
X150778200Y-91242757D01*
X150374176Y-91646077D01*
X150320138Y-91776215D01*
X150267243Y-91648200D01*
X149863923Y-91244176D01*
X149336691Y-91025250D01*
X148765813Y-91024752D01*
X148238200Y-91242757D01*
X147834176Y-91646077D01*
X147780138Y-91776215D01*
X147727243Y-91648200D01*
X147323923Y-91244176D01*
X147193785Y-91190138D01*
X147321800Y-91137243D01*
X147725824Y-90733923D01*
X147944750Y-90206691D01*
X147945248Y-89635813D01*
X147851944Y-89410000D01*
X151959400Y-89410000D01*
X152250239Y-89352148D01*
X152496801Y-89187401D01*
X153202327Y-88481875D01*
X153316077Y-88595824D01*
X153843309Y-88814750D01*
X154414187Y-88815248D01*
X154941800Y-88597243D01*
X155345824Y-88193923D01*
X155399862Y-88063785D01*
X155452757Y-88191800D01*
X155856077Y-88595824D01*
X156383309Y-88814750D01*
X156954187Y-88815248D01*
X157481800Y-88597243D01*
X157885824Y-88193923D01*
X157939862Y-88063785D01*
X157992757Y-88191800D01*
X158396077Y-88595824D01*
X158923309Y-88814750D01*
X159494187Y-88815248D01*
X160021800Y-88597243D01*
X160425824Y-88193923D01*
X160644750Y-87666691D01*
X160645248Y-87095813D01*
X160427243Y-86568200D01*
X160023923Y-86164176D01*
X159496691Y-85945250D01*
X158925813Y-85944752D01*
X158398200Y-86162757D01*
X157994176Y-86566077D01*
X157940138Y-86696215D01*
X157887243Y-86568200D01*
X157483923Y-86164176D01*
X156956691Y-85945250D01*
X156385813Y-85944752D01*
X155858200Y-86162757D01*
X155454176Y-86566077D01*
X155400138Y-86696215D01*
X155347243Y-86568200D01*
X154943923Y-86164176D01*
X154816738Y-86111364D01*
X156542802Y-84385300D01*
X161150800Y-84385300D01*
X161441639Y-84327448D01*
X161688201Y-84162701D01*
X162226865Y-83624037D01*
X162570849Y-83853880D01*
X163120000Y-83963113D01*
X163669151Y-83853880D01*
X164134698Y-83542811D01*
X164445767Y-83077264D01*
X164555000Y-82528113D01*
X164555000Y-82471887D01*
X164445767Y-81922736D01*
X164134698Y-81457189D01*
X163669151Y-81146120D01*
X163120000Y-81036887D01*
X162570849Y-81146120D01*
X162105302Y-81457189D01*
X161904321Y-81757978D01*
X161808424Y-81777053D01*
X161594698Y-81457189D01*
X161129151Y-81146120D01*
X160580000Y-81036887D01*
X160030849Y-81146120D01*
X159565302Y-81457189D01*
X159310000Y-81839275D01*
X159054698Y-81457189D01*
X158589151Y-81146120D01*
X158040000Y-81036887D01*
X157490849Y-81146120D01*
X157025302Y-81457189D01*
X156928899Y-81601465D01*
X156903162Y-81464683D01*
X156764090Y-81248559D01*
X156551890Y-81103569D01*
X156300000Y-81052560D01*
X154700000Y-81052560D01*
X154464683Y-81096838D01*
X154248559Y-81235910D01*
X154103569Y-81448110D01*
X154052560Y-81700000D01*
X154052560Y-83300000D01*
X154096838Y-83535317D01*
X154235910Y-83751441D01*
X154448110Y-83896431D01*
X154700000Y-83947440D01*
X154831058Y-83947440D01*
X152509031Y-86269467D01*
X152403923Y-86164176D01*
X151876691Y-85945250D01*
X151305813Y-85944752D01*
X150778200Y-86162757D01*
X150374176Y-86566077D01*
X150320138Y-86696215D01*
X150267243Y-86568200D01*
X149863923Y-86164176D01*
X149336691Y-85945250D01*
X148765813Y-85944752D01*
X148238200Y-86162757D01*
X147834176Y-86566077D01*
X147780138Y-86696215D01*
X147727243Y-86568200D01*
X147323923Y-86164176D01*
X146796691Y-85945250D01*
X146225813Y-85944752D01*
X145698200Y-86162757D01*
X145294176Y-86566077D01*
X145240138Y-86696215D01*
X145187243Y-86568200D01*
X144783923Y-86164176D01*
X144256691Y-85945250D01*
X143905858Y-85944944D01*
X146226805Y-83623997D01*
X146570849Y-83853880D01*
X147120000Y-83963113D01*
X147669151Y-83853880D01*
X148134698Y-83542811D01*
X148445767Y-83077264D01*
X148555000Y-82528113D01*
X148555000Y-82471887D01*
X148445767Y-81922736D01*
X148134698Y-81457189D01*
X147669151Y-81146120D01*
X147120000Y-81036887D01*
X146570849Y-81146120D01*
X146105302Y-81457189D01*
X145904321Y-81757978D01*
X145808424Y-81777053D01*
X145594698Y-81457189D01*
X145129151Y-81146120D01*
X144580000Y-81036887D01*
X144030849Y-81146120D01*
X143565302Y-81457189D01*
X143310000Y-81839275D01*
X143054698Y-81457189D01*
X142589151Y-81146120D01*
X142040000Y-81036887D01*
X141490849Y-81146120D01*
X141025302Y-81457189D01*
X140928899Y-81601465D01*
X140903162Y-81464683D01*
X140764090Y-81248559D01*
X140551890Y-81103569D01*
X140300000Y-81052560D01*
X138700000Y-81052560D01*
X138464683Y-81096838D01*
X138248559Y-81235910D01*
X138103569Y-81448110D01*
X138052560Y-81700000D01*
X138052560Y-83300000D01*
X138096838Y-83535317D01*
X138235910Y-83751441D01*
X138448110Y-83896431D01*
X138700000Y-83947440D01*
X140300000Y-83947440D01*
X140535317Y-83903162D01*
X140751441Y-83764090D01*
X140896431Y-83551890D01*
X140927815Y-83396911D01*
X141025302Y-83542811D01*
X141490849Y-83853880D01*
X142040000Y-83963113D01*
X142589151Y-83853880D01*
X143054698Y-83542811D01*
X143310000Y-83160725D01*
X143565302Y-83542811D01*
X143920830Y-83780368D01*
X143032398Y-84668800D01*
X117981200Y-84668800D01*
X117690361Y-84726652D01*
X117443799Y-84891398D01*
X116368454Y-85966744D01*
X116316691Y-85945250D01*
X115999828Y-85944974D01*
X117559502Y-84385300D01*
X128150800Y-84385300D01*
X128441639Y-84327448D01*
X128688201Y-84162701D01*
X129226865Y-83624037D01*
X129570849Y-83853880D01*
X130120000Y-83963113D01*
X130669151Y-83853880D01*
X131134698Y-83542811D01*
X131445767Y-83077264D01*
X131555000Y-82528113D01*
X131555000Y-82471887D01*
X131445767Y-81922736D01*
X131134698Y-81457189D01*
X130669151Y-81146120D01*
X130120000Y-81036887D01*
X129570849Y-81146120D01*
X129105302Y-81457189D01*
X128904321Y-81757978D01*
X128808424Y-81777053D01*
X128594698Y-81457189D01*
X128129151Y-81146120D01*
X127580000Y-81036887D01*
X127030849Y-81146120D01*
X126565302Y-81457189D01*
X126310000Y-81839275D01*
X126054698Y-81457189D01*
X125589151Y-81146120D01*
X125040000Y-81036887D01*
X124490849Y-81146120D01*
X124025302Y-81457189D01*
X123928899Y-81601465D01*
X123903162Y-81464683D01*
X123764090Y-81248559D01*
X123551890Y-81103569D01*
X123300000Y-81052560D01*
X121700000Y-81052560D01*
X121464683Y-81096838D01*
X121248559Y-81235910D01*
X121103569Y-81448110D01*
X121052560Y-81700000D01*
X121052560Y-82865300D01*
X117244700Y-82865300D01*
X116953861Y-82923152D01*
X116707299Y-83087899D01*
X113828454Y-85966744D01*
X113776691Y-85945250D01*
X113205813Y-85944752D01*
X112678200Y-86162757D01*
X112274176Y-86566077D01*
X112220138Y-86696215D01*
X112167243Y-86568200D01*
X111763923Y-86164176D01*
X111236691Y-85945250D01*
X110665813Y-85944752D01*
X110138200Y-86162757D01*
X109734176Y-86566077D01*
X109680138Y-86696215D01*
X109627243Y-86568200D01*
X109223923Y-86164176D01*
X108696691Y-85945250D01*
X108125813Y-85944752D01*
X107598200Y-86162757D01*
X107194176Y-86566077D01*
X107140138Y-86696215D01*
X107087243Y-86568200D01*
X106683923Y-86164176D01*
X106156691Y-85945250D01*
X105585813Y-85944752D01*
X105058200Y-86162757D01*
X104654176Y-86566077D01*
X104600138Y-86696215D01*
X104547243Y-86568200D01*
X104143923Y-86164176D01*
X103616691Y-85945250D01*
X103045813Y-85944752D01*
X102518200Y-86162757D01*
X102114176Y-86566077D01*
X102060138Y-86696215D01*
X102007243Y-86568200D01*
X101603923Y-86164176D01*
X101076691Y-85945250D01*
X100505813Y-85944752D01*
X99978200Y-86162757D01*
X99574176Y-86566077D01*
X99355250Y-87093309D01*
X99354752Y-87664187D01*
X95710000Y-87664187D01*
X95710000Y-81700000D01*
X106052560Y-81700000D01*
X106052560Y-83300000D01*
X106096838Y-83535317D01*
X106235910Y-83751441D01*
X106448110Y-83896431D01*
X106700000Y-83947440D01*
X108300000Y-83947440D01*
X108535317Y-83903162D01*
X108751441Y-83764090D01*
X108896431Y-83551890D01*
X108927815Y-83396911D01*
X109025302Y-83542811D01*
X109490849Y-83853880D01*
X110040000Y-83963113D01*
X110589151Y-83853880D01*
X111054698Y-83542811D01*
X111310000Y-83160725D01*
X111565302Y-83542811D01*
X112030849Y-83853880D01*
X112580000Y-83963113D01*
X113129151Y-83853880D01*
X113594698Y-83542811D01*
X113850000Y-83160725D01*
X114105302Y-83542811D01*
X114570849Y-83853880D01*
X115120000Y-83963113D01*
X115669151Y-83853880D01*
X116134698Y-83542811D01*
X116445767Y-83077264D01*
X116555000Y-82528113D01*
X116555000Y-82471887D01*
X116445767Y-81922736D01*
X116134698Y-81457189D01*
X115669151Y-81146120D01*
X115120000Y-81036887D01*
X114570849Y-81146120D01*
X114105302Y-81457189D01*
X113850000Y-81839275D01*
X113594698Y-81457189D01*
X113129151Y-81146120D01*
X112580000Y-81036887D01*
X112030849Y-81146120D01*
X111565302Y-81457189D01*
X111310000Y-81839275D01*
X111054698Y-81457189D01*
X110589151Y-81146120D01*
X110040000Y-81036887D01*
X109490849Y-81146120D01*
X109025302Y-81457189D01*
X108928899Y-81601465D01*
X108903162Y-81464683D01*
X108764090Y-81248559D01*
X108551890Y-81103569D01*
X108300000Y-81052560D01*
X106700000Y-81052560D01*
X106464683Y-81096838D01*
X106248559Y-81235910D01*
X106103569Y-81448110D01*
X106052560Y-81700000D01*
X95710000Y-81700000D01*
X95710000Y-79100000D01*
X116952560Y-79100000D01*
X116952560Y-80400000D01*
X116996838Y-80635317D01*
X117135910Y-80851441D01*
X117348110Y-80996431D01*
X117600000Y-81047440D01*
X118900000Y-81047440D01*
X119135317Y-81003162D01*
X119351441Y-80864090D01*
X119496431Y-80651890D01*
X119547440Y-80400000D01*
X119547440Y-79350000D01*
X132202560Y-79350000D01*
X132202560Y-80650000D01*
X132246838Y-80885317D01*
X132385910Y-81101441D01*
X132598110Y-81246431D01*
X132850000Y-81297440D01*
X134150000Y-81297440D01*
X134385317Y-81253162D01*
X134601441Y-81114090D01*
X134746431Y-80901890D01*
X134797440Y-80650000D01*
X134797440Y-79350000D01*
X149202560Y-79350000D01*
X149202560Y-80650000D01*
X149246838Y-80885317D01*
X149385910Y-81101441D01*
X149598110Y-81246431D01*
X149850000Y-81297440D01*
X151150000Y-81297440D01*
X151385317Y-81253162D01*
X151601441Y-81114090D01*
X151746431Y-80901890D01*
X151797440Y-80650000D01*
X151797440Y-79350000D01*
X165202560Y-79350000D01*
X165202560Y-80650000D01*
X165246838Y-80885317D01*
X165385910Y-81101441D01*
X165598110Y-81246431D01*
X165850000Y-81297440D01*
X167150000Y-81297440D01*
X167385317Y-81253162D01*
X167601441Y-81114090D01*
X167746431Y-80901890D01*
X167797440Y-80650000D01*
X167797440Y-79350000D01*
X167753162Y-79114683D01*
X167614090Y-78898559D01*
X167401890Y-78753569D01*
X167266541Y-78726160D01*
X166500000Y-77959619D01*
X165735518Y-78724101D01*
X165614683Y-78746838D01*
X165398559Y-78885910D01*
X165253569Y-79098110D01*
X165202560Y-79350000D01*
X151797440Y-79350000D01*
X151753162Y-79114683D01*
X151614090Y-78898559D01*
X151401890Y-78753569D01*
X151266541Y-78726160D01*
X150500000Y-77959619D01*
X149735518Y-78724101D01*
X149614683Y-78746838D01*
X149398559Y-78885910D01*
X149253569Y-79098110D01*
X149202560Y-79350000D01*
X134797440Y-79350000D01*
X134753162Y-79114683D01*
X134614090Y-78898559D01*
X134401890Y-78753569D01*
X134266541Y-78726160D01*
X133500000Y-77959619D01*
X132735518Y-78724101D01*
X132614683Y-78746838D01*
X132398559Y-78885910D01*
X132253569Y-79098110D01*
X132202560Y-79350000D01*
X119547440Y-79350000D01*
X119547440Y-79100000D01*
X119503162Y-78864683D01*
X119364090Y-78648559D01*
X119151890Y-78503569D01*
X119016541Y-78476160D01*
X118250000Y-77709619D01*
X117485518Y-78474101D01*
X117364683Y-78496838D01*
X117148559Y-78635910D01*
X117003569Y-78848110D01*
X116952560Y-79100000D01*
X95710000Y-79100000D01*
X95710000Y-77149921D01*
X116440953Y-77149921D01*
X116540360Y-77849832D01*
X116616957Y-78034753D01*
X116962961Y-78077420D01*
X117790381Y-77250000D01*
X118709619Y-77250000D01*
X119537039Y-78077420D01*
X119883043Y-78034753D01*
X120046234Y-77399921D01*
X131690953Y-77399921D01*
X131790360Y-78099832D01*
X131866957Y-78284753D01*
X132212961Y-78327420D01*
X133040381Y-77500000D01*
X133959619Y-77500000D01*
X134787039Y-78327420D01*
X135133043Y-78284753D01*
X135309047Y-77600079D01*
X135280619Y-77399921D01*
X148690953Y-77399921D01*
X148790360Y-78099832D01*
X148866957Y-78284753D01*
X149212961Y-78327420D01*
X150040381Y-77500000D01*
X150959619Y-77500000D01*
X151787039Y-78327420D01*
X152133043Y-78284753D01*
X152309047Y-77600079D01*
X152280619Y-77399921D01*
X164690953Y-77399921D01*
X164790360Y-78099832D01*
X164866957Y-78284753D01*
X165212961Y-78327420D01*
X166040381Y-77500000D01*
X166959619Y-77500000D01*
X167787039Y-78327420D01*
X168133043Y-78284753D01*
X168309047Y-77600079D01*
X168209640Y-76900168D01*
X168133043Y-76715247D01*
X167787039Y-76672580D01*
X166959619Y-77500000D01*
X166040381Y-77500000D01*
X165212961Y-76672580D01*
X164866957Y-76715247D01*
X164690953Y-77399921D01*
X152280619Y-77399921D01*
X152209640Y-76900168D01*
X152133043Y-76715247D01*
X151787039Y-76672580D01*
X150959619Y-77500000D01*
X150040381Y-77500000D01*
X149212961Y-76672580D01*
X148866957Y-76715247D01*
X148690953Y-77399921D01*
X135280619Y-77399921D01*
X135209640Y-76900168D01*
X135133043Y-76715247D01*
X134787039Y-76672580D01*
X133959619Y-77500000D01*
X133040381Y-77500000D01*
X132212961Y-76672580D01*
X131866957Y-76715247D01*
X131690953Y-77399921D01*
X120046234Y-77399921D01*
X120059047Y-77350079D01*
X119959640Y-76650168D01*
X119883043Y-76465247D01*
X119537039Y-76422580D01*
X118709619Y-77250000D01*
X117790381Y-77250000D01*
X116962961Y-76422580D01*
X116616957Y-76465247D01*
X116440953Y-77149921D01*
X95710000Y-77149921D01*
X95710000Y-70818894D01*
X95864284Y-70818894D01*
X96492474Y-72339229D01*
X97654653Y-73503438D01*
X99173889Y-74134280D01*
X100818894Y-74135716D01*
X102339229Y-73507526D01*
X103503438Y-72345347D01*
X104134280Y-70826111D01*
X104135716Y-69181106D01*
X103507526Y-67660771D01*
X102345347Y-66496562D01*
X102178356Y-66427221D01*
X105250280Y-66427221D01*
X105308449Y-66777827D01*
X106034501Y-66952284D01*
X106772047Y-66835613D01*
X106911551Y-66777827D01*
X106969720Y-66427221D01*
X106110000Y-65567502D01*
X105250280Y-66427221D01*
X102178356Y-66427221D01*
X100826111Y-65865720D01*
X99181106Y-65864284D01*
X97660771Y-66492474D01*
X96496562Y-67654653D01*
X95865720Y-69173889D01*
X95864284Y-70818894D01*
X95710000Y-70818894D01*
X95710000Y-64964501D01*
X104197716Y-64964501D01*
X104314387Y-65702047D01*
X104372173Y-65841551D01*
X104722779Y-65899720D01*
X105582498Y-65040000D01*
X104722779Y-64180280D01*
X104372173Y-64238449D01*
X104197716Y-64964501D01*
X95710000Y-64964501D01*
X95710000Y-63652779D01*
X105250280Y-63652779D01*
X106110000Y-64512498D01*
X106124142Y-64498356D01*
X106651644Y-65025858D01*
X106637502Y-65040000D01*
X107497221Y-65899720D01*
X107543566Y-65892031D01*
X107864436Y-66213461D01*
X108373298Y-66424759D01*
X108924285Y-66425240D01*
X109433515Y-66214831D01*
X109823461Y-65825564D01*
X109919976Y-65593130D01*
X110015169Y-65823515D01*
X110404436Y-66213461D01*
X110913298Y-66424759D01*
X111270127Y-66425071D01*
X109443439Y-68251759D01*
X109307073Y-68115154D01*
X108706547Y-67865794D01*
X108056306Y-67865226D01*
X107455345Y-68113538D01*
X106995154Y-68572927D01*
X106745794Y-69173453D01*
X106745226Y-69823694D01*
X106993538Y-70424655D01*
X107452927Y-70884846D01*
X108053453Y-71134206D01*
X108510000Y-71134605D01*
X108510000Y-72984700D01*
X108567852Y-73275539D01*
X108732599Y-73522101D01*
X109038721Y-73828223D01*
X109025302Y-73837189D01*
X108770000Y-74219275D01*
X108514698Y-73837189D01*
X108049151Y-73526120D01*
X107500000Y-73416887D01*
X106950849Y-73526120D01*
X106485302Y-73837189D01*
X106174233Y-74302736D01*
X106065000Y-74851887D01*
X106065000Y-74908113D01*
X106174233Y-75457264D01*
X106485302Y-75922811D01*
X106950849Y-76233880D01*
X107500000Y-76343113D01*
X108049151Y-76233880D01*
X108514698Y-75922811D01*
X108770000Y-75540725D01*
X109025302Y-75922811D01*
X109490849Y-76233880D01*
X110040000Y-76343113D01*
X110589151Y-76233880D01*
X111054698Y-75922811D01*
X111310000Y-75540725D01*
X111565302Y-75922811D01*
X112030849Y-76233880D01*
X112580000Y-76343113D01*
X113129151Y-76233880D01*
X113557467Y-75947688D01*
X113702909Y-76185859D01*
X114310509Y-76628754D01*
X114455844Y-76688929D01*
X114747000Y-76482410D01*
X114747000Y-75253000D01*
X115493000Y-75253000D01*
X115493000Y-76482410D01*
X115784156Y-76688929D01*
X115929491Y-76628754D01*
X116537091Y-76185859D01*
X116673206Y-75962961D01*
X117422580Y-75962961D01*
X118250000Y-76790381D01*
X119077420Y-75962961D01*
X119034753Y-75616957D01*
X118350079Y-75440953D01*
X117650168Y-75540360D01*
X117465247Y-75616957D01*
X117422580Y-75962961D01*
X116673206Y-75962961D01*
X116928952Y-75544159D01*
X116728828Y-75253000D01*
X115493000Y-75253000D01*
X114747000Y-75253000D01*
X114727000Y-75253000D01*
X114727000Y-74851887D01*
X121065000Y-74851887D01*
X121065000Y-74908113D01*
X121174233Y-75457264D01*
X121485302Y-75922811D01*
X121950849Y-76233880D01*
X122500000Y-76343113D01*
X123049151Y-76233880D01*
X123514698Y-75922811D01*
X123770000Y-75540725D01*
X124025302Y-75922811D01*
X124490849Y-76233880D01*
X125040000Y-76343113D01*
X125589151Y-76233880D01*
X126054698Y-75922811D01*
X126310000Y-75540725D01*
X126565302Y-75922811D01*
X127030849Y-76233880D01*
X127580000Y-76343113D01*
X128129151Y-76233880D01*
X128557467Y-75947688D01*
X128702909Y-76185859D01*
X129310509Y-76628754D01*
X129455844Y-76688929D01*
X129747000Y-76482410D01*
X129747000Y-75253000D01*
X130493000Y-75253000D01*
X130493000Y-76482410D01*
X130784156Y-76688929D01*
X130929491Y-76628754D01*
X131499910Y-76212961D01*
X132672580Y-76212961D01*
X133500000Y-77040381D01*
X134327420Y-76212961D01*
X134284753Y-75866957D01*
X133600079Y-75690953D01*
X132900168Y-75790360D01*
X132715247Y-75866957D01*
X132672580Y-76212961D01*
X131499910Y-76212961D01*
X131537091Y-76185859D01*
X131928952Y-75544159D01*
X131728828Y-75253000D01*
X130493000Y-75253000D01*
X129747000Y-75253000D01*
X129727000Y-75253000D01*
X129727000Y-74851887D01*
X138065000Y-74851887D01*
X138065000Y-74908113D01*
X138174233Y-75457264D01*
X138485302Y-75922811D01*
X138950849Y-76233880D01*
X139500000Y-76343113D01*
X140049151Y-76233880D01*
X140514698Y-75922811D01*
X140770000Y-75540725D01*
X141025302Y-75922811D01*
X141490849Y-76233880D01*
X142040000Y-76343113D01*
X142589151Y-76233880D01*
X143054698Y-75922811D01*
X143310000Y-75540725D01*
X143565302Y-75922811D01*
X144030849Y-76233880D01*
X144580000Y-76343113D01*
X145129151Y-76233880D01*
X145557467Y-75947688D01*
X145702909Y-76185859D01*
X146310509Y-76628754D01*
X146455844Y-76688929D01*
X146747000Y-76482410D01*
X146747000Y-75253000D01*
X147493000Y-75253000D01*
X147493000Y-76482410D01*
X147784156Y-76688929D01*
X147929491Y-76628754D01*
X148499910Y-76212961D01*
X149672580Y-76212961D01*
X150500000Y-77040381D01*
X151327420Y-76212961D01*
X151284753Y-75866957D01*
X150600079Y-75690953D01*
X149900168Y-75790360D01*
X149715247Y-75866957D01*
X149672580Y-76212961D01*
X148499910Y-76212961D01*
X148537091Y-76185859D01*
X148928952Y-75544159D01*
X148728828Y-75253000D01*
X147493000Y-75253000D01*
X146747000Y-75253000D01*
X146727000Y-75253000D01*
X146727000Y-74507000D01*
X146747000Y-74507000D01*
X146747000Y-73277590D01*
X147493000Y-73277590D01*
X147493000Y-74507000D01*
X148728828Y-74507000D01*
X148928952Y-74215841D01*
X148537091Y-73574141D01*
X147929491Y-73131246D01*
X147784156Y-73071071D01*
X147493000Y-73277590D01*
X146747000Y-73277590D01*
X146455844Y-73071071D01*
X146310509Y-73131246D01*
X145702909Y-73574141D01*
X145557467Y-73812312D01*
X145129151Y-73526120D01*
X144580000Y-73416887D01*
X144030849Y-73526120D01*
X143565302Y-73837189D01*
X143310000Y-74219275D01*
X143054698Y-73837189D01*
X142589151Y-73526120D01*
X142040000Y-73416887D01*
X141490849Y-73526120D01*
X141025302Y-73837189D01*
X140770000Y-74219275D01*
X140514698Y-73837189D01*
X140049151Y-73526120D01*
X139500000Y-73416887D01*
X138950849Y-73526120D01*
X138485302Y-73837189D01*
X138174233Y-74302736D01*
X138065000Y-74851887D01*
X129727000Y-74851887D01*
X129727000Y-74507000D01*
X129747000Y-74507000D01*
X129747000Y-73277590D01*
X130493000Y-73277590D01*
X130493000Y-74507000D01*
X131728828Y-74507000D01*
X131928952Y-74215841D01*
X131537091Y-73574141D01*
X130929491Y-73131246D01*
X130784156Y-73071071D01*
X130493000Y-73277590D01*
X129747000Y-73277590D01*
X129455844Y-73071071D01*
X129310509Y-73131246D01*
X128702909Y-73574141D01*
X128557467Y-73812312D01*
X128129151Y-73526120D01*
X127580000Y-73416887D01*
X127030849Y-73526120D01*
X126565302Y-73837189D01*
X126310000Y-74219275D01*
X126054698Y-73837189D01*
X125589151Y-73526120D01*
X125040000Y-73416887D01*
X124490849Y-73526120D01*
X124025302Y-73837189D01*
X123770000Y-74219275D01*
X123514698Y-73837189D01*
X123049151Y-73526120D01*
X122500000Y-73416887D01*
X121950849Y-73526120D01*
X121485302Y-73837189D01*
X121174233Y-74302736D01*
X121065000Y-74851887D01*
X114727000Y-74851887D01*
X114727000Y-74507000D01*
X114747000Y-74507000D01*
X114747000Y-73277590D01*
X115493000Y-73277590D01*
X115493000Y-74507000D01*
X116728828Y-74507000D01*
X116928952Y-74215841D01*
X116537091Y-73574141D01*
X115929491Y-73131246D01*
X115784156Y-73071071D01*
X115493000Y-73277590D01*
X114747000Y-73277590D01*
X114455844Y-73071071D01*
X114310509Y-73131246D01*
X113702909Y-73574141D01*
X113557467Y-73812312D01*
X113129151Y-73526120D01*
X112580000Y-73416887D01*
X112030849Y-73526120D01*
X111565302Y-73837189D01*
X111310000Y-74219275D01*
X111054698Y-73837189D01*
X110779882Y-73653563D01*
X110742148Y-73463861D01*
X110742148Y-73463860D01*
X110577401Y-73217299D01*
X110030000Y-72669898D01*
X110030000Y-69823694D01*
X114365226Y-69823694D01*
X114613538Y-70424655D01*
X115072927Y-70884846D01*
X115673453Y-71134206D01*
X116323694Y-71134774D01*
X116924655Y-70886462D01*
X117384846Y-70427073D01*
X117634206Y-69826547D01*
X117634208Y-69823694D01*
X120745226Y-69823694D01*
X120993538Y-70424655D01*
X121452927Y-70884846D01*
X122053453Y-71134206D01*
X122703694Y-71134774D01*
X123304655Y-70886462D01*
X123764846Y-70427073D01*
X124014206Y-69826547D01*
X124014208Y-69823694D01*
X128365226Y-69823694D01*
X128613538Y-70424655D01*
X129072927Y-70884846D01*
X129673453Y-71134206D01*
X130323694Y-71134774D01*
X130924655Y-70886462D01*
X131384846Y-70427073D01*
X131634206Y-69826547D01*
X131634208Y-69823694D01*
X137745226Y-69823694D01*
X137993538Y-70424655D01*
X138452927Y-70884846D01*
X139053453Y-71134206D01*
X139703694Y-71134774D01*
X140304655Y-70886462D01*
X140764846Y-70427073D01*
X141014206Y-69826547D01*
X141014208Y-69823694D01*
X145365226Y-69823694D01*
X145613538Y-70424655D01*
X146072927Y-70884846D01*
X146673453Y-71134206D01*
X147323694Y-71134774D01*
X147924655Y-70886462D01*
X148384846Y-70427073D01*
X148634206Y-69826547D01*
X148634208Y-69823694D01*
X153745226Y-69823694D01*
X153993538Y-70424655D01*
X154452927Y-70884846D01*
X155053453Y-71134206D01*
X155703694Y-71134774D01*
X156304655Y-70886462D01*
X156764846Y-70427073D01*
X156834221Y-70260000D01*
X157280000Y-70260000D01*
X157280000Y-73667005D01*
X157025302Y-73837189D01*
X156770000Y-74219275D01*
X156514698Y-73837189D01*
X156049151Y-73526120D01*
X155500000Y-73416887D01*
X154950849Y-73526120D01*
X154485302Y-73837189D01*
X154174233Y-74302736D01*
X154065000Y-74851887D01*
X154065000Y-74908113D01*
X154174233Y-75457264D01*
X154485302Y-75922811D01*
X154950849Y-76233880D01*
X155500000Y-76343113D01*
X156049151Y-76233880D01*
X156514698Y-75922811D01*
X156770000Y-75540725D01*
X157025302Y-75922811D01*
X157490849Y-76233880D01*
X158040000Y-76343113D01*
X158589151Y-76233880D01*
X159054698Y-75922811D01*
X159310000Y-75540725D01*
X159565302Y-75922811D01*
X160030849Y-76233880D01*
X160580000Y-76343113D01*
X161129151Y-76233880D01*
X161557467Y-75947688D01*
X161702909Y-76185859D01*
X162310509Y-76628754D01*
X162455844Y-76688929D01*
X162747000Y-76482410D01*
X162747000Y-75253000D01*
X163493000Y-75253000D01*
X163493000Y-76482410D01*
X163784156Y-76688929D01*
X163929491Y-76628754D01*
X164499910Y-76212961D01*
X165672580Y-76212961D01*
X166500000Y-77040381D01*
X167327420Y-76212961D01*
X167284753Y-75866957D01*
X166600079Y-75690953D01*
X165900168Y-75790360D01*
X165715247Y-75866957D01*
X165672580Y-76212961D01*
X164499910Y-76212961D01*
X164537091Y-76185859D01*
X164928952Y-75544159D01*
X164728828Y-75253000D01*
X163493000Y-75253000D01*
X162747000Y-75253000D01*
X162727000Y-75253000D01*
X162727000Y-74507000D01*
X162747000Y-74507000D01*
X162747000Y-73277590D01*
X163493000Y-73277590D01*
X163493000Y-74507000D01*
X164728828Y-74507000D01*
X164928952Y-74215841D01*
X164537091Y-73574141D01*
X163929491Y-73131246D01*
X163784156Y-73071071D01*
X163493000Y-73277590D01*
X162747000Y-73277590D01*
X162455844Y-73071071D01*
X162310509Y-73131246D01*
X161702909Y-73574141D01*
X161557467Y-73812312D01*
X161129151Y-73526120D01*
X160580000Y-73416887D01*
X160030849Y-73526120D01*
X159565302Y-73837189D01*
X159310000Y-74219275D01*
X159054698Y-73837189D01*
X158800000Y-73667005D01*
X158800000Y-70260000D01*
X160270000Y-70260000D01*
X160560839Y-70202148D01*
X160807401Y-70037401D01*
X161365527Y-69479275D01*
X161365226Y-69823694D01*
X161613538Y-70424655D01*
X162072927Y-70884846D01*
X162673453Y-71134206D01*
X163323694Y-71134774D01*
X163924655Y-70886462D01*
X163992340Y-70818894D01*
X170864284Y-70818894D01*
X171492474Y-72339229D01*
X172654653Y-73503438D01*
X174173889Y-74134280D01*
X175818894Y-74135716D01*
X177339229Y-73507526D01*
X178503438Y-72345347D01*
X179134280Y-70826111D01*
X179135716Y-69181106D01*
X178507526Y-67660771D01*
X177345347Y-66496562D01*
X175826111Y-65865720D01*
X174181106Y-65864284D01*
X172660771Y-66492474D01*
X171496562Y-67654653D01*
X170865720Y-69173889D01*
X170864284Y-70818894D01*
X163992340Y-70818894D01*
X164384846Y-70427073D01*
X164634206Y-69826547D01*
X164634774Y-69176306D01*
X164386462Y-68575345D01*
X163927073Y-68115154D01*
X163326547Y-67865794D01*
X162979311Y-67865491D01*
X164429800Y-66415002D01*
X164453298Y-66424759D01*
X165004285Y-66425240D01*
X165513515Y-66214831D01*
X165903461Y-65825564D01*
X166114759Y-65316702D01*
X166115240Y-64765715D01*
X165904831Y-64256485D01*
X165546411Y-63897440D01*
X166750000Y-63897440D01*
X166985317Y-63853162D01*
X167201441Y-63714090D01*
X167346431Y-63501890D01*
X167397440Y-63250000D01*
X167397440Y-61750000D01*
X167353162Y-61514683D01*
X167214090Y-61298559D01*
X167001890Y-61153569D01*
X166750000Y-61102560D01*
X165250000Y-61102560D01*
X165014683Y-61146838D01*
X164798559Y-61285910D01*
X164653569Y-61498110D01*
X164613645Y-61695262D01*
X164245564Y-61326539D01*
X163736702Y-61115241D01*
X163185715Y-61114760D01*
X162676485Y-61325169D01*
X162286539Y-61714436D01*
X162190024Y-61946870D01*
X162094831Y-61716485D01*
X161705564Y-61326539D01*
X161196702Y-61115241D01*
X160645715Y-61114760D01*
X160136485Y-61325169D01*
X159813185Y-61647906D01*
X159767221Y-61640280D01*
X158907502Y-62500000D01*
X158921644Y-62514142D01*
X158394142Y-63041644D01*
X158380000Y-63027502D01*
X158365858Y-63041644D01*
X157838356Y-62514142D01*
X157852498Y-62500000D01*
X156992779Y-61640280D01*
X156642173Y-61698449D01*
X156467716Y-62424501D01*
X156584387Y-63162047D01*
X156608007Y-63219068D01*
X156447953Y-63244387D01*
X156308449Y-63302173D01*
X156250280Y-63652779D01*
X157110000Y-64512498D01*
X157124142Y-64498356D01*
X157651644Y-65025858D01*
X157637502Y-65040000D01*
X158497221Y-65899720D01*
X158543566Y-65892031D01*
X158864436Y-66213461D01*
X159373298Y-66424759D01*
X159924285Y-66425240D01*
X160433515Y-66214831D01*
X160823461Y-65825564D01*
X160919976Y-65593130D01*
X161015169Y-65823515D01*
X161404436Y-66213461D01*
X161913298Y-66424759D01*
X162270127Y-66425071D01*
X159955198Y-68740000D01*
X156834496Y-68740000D01*
X156766462Y-68575345D01*
X156307073Y-68115154D01*
X155706547Y-67865794D01*
X155056306Y-67865226D01*
X154455345Y-68113538D01*
X153995154Y-68572927D01*
X153745794Y-69173453D01*
X153745226Y-69823694D01*
X148634208Y-69823694D01*
X148634774Y-69176306D01*
X148386462Y-68575345D01*
X147927073Y-68115154D01*
X147326547Y-67865794D01*
X146676306Y-67865226D01*
X146075345Y-68113538D01*
X145615154Y-68572927D01*
X145365794Y-69173453D01*
X145365226Y-69823694D01*
X141014208Y-69823694D01*
X141014774Y-69176306D01*
X140766462Y-68575345D01*
X140307073Y-68115154D01*
X139706547Y-67865794D01*
X139056306Y-67865226D01*
X138455345Y-68113538D01*
X137995154Y-68572927D01*
X137745794Y-69173453D01*
X137745226Y-69823694D01*
X131634208Y-69823694D01*
X131634774Y-69176306D01*
X131386462Y-68575345D01*
X130927073Y-68115154D01*
X130326547Y-67865794D01*
X129676306Y-67865226D01*
X129075345Y-68113538D01*
X128615154Y-68572927D01*
X128365794Y-69173453D01*
X128365226Y-69823694D01*
X124014208Y-69823694D01*
X124014774Y-69176306D01*
X123766462Y-68575345D01*
X123307073Y-68115154D01*
X122706547Y-67865794D01*
X122056306Y-67865226D01*
X121455345Y-68113538D01*
X120995154Y-68572927D01*
X120745794Y-69173453D01*
X120745226Y-69823694D01*
X117634208Y-69823694D01*
X117634774Y-69176306D01*
X117386462Y-68575345D01*
X116927073Y-68115154D01*
X116326547Y-67865794D01*
X115676306Y-67865226D01*
X115075345Y-68113538D01*
X114615154Y-68572927D01*
X114365794Y-69173453D01*
X114365226Y-69823694D01*
X110030000Y-69823694D01*
X110030000Y-69814802D01*
X113417581Y-66427221D01*
X122250280Y-66427221D01*
X122308449Y-66777827D01*
X123034501Y-66952284D01*
X123772047Y-66835613D01*
X123911551Y-66777827D01*
X123969720Y-66427221D01*
X139250280Y-66427221D01*
X139308449Y-66777827D01*
X140034501Y-66952284D01*
X140772047Y-66835613D01*
X140911551Y-66777827D01*
X140969720Y-66427221D01*
X156250280Y-66427221D01*
X156308449Y-66777827D01*
X157034501Y-66952284D01*
X157772047Y-66835613D01*
X157911551Y-66777827D01*
X157969720Y-66427221D01*
X157110000Y-65567502D01*
X156250280Y-66427221D01*
X140969720Y-66427221D01*
X140110000Y-65567502D01*
X139250280Y-66427221D01*
X123969720Y-66427221D01*
X123110000Y-65567502D01*
X122250280Y-66427221D01*
X113417581Y-66427221D01*
X113429800Y-66415002D01*
X113453298Y-66424759D01*
X114004285Y-66425240D01*
X114513515Y-66214831D01*
X114903461Y-65825564D01*
X115114759Y-65316702D01*
X115115066Y-64964501D01*
X121197716Y-64964501D01*
X121314387Y-65702047D01*
X121372173Y-65841551D01*
X121722779Y-65899720D01*
X122582498Y-65040000D01*
X121722779Y-64180280D01*
X121372173Y-64238449D01*
X121197716Y-64964501D01*
X115115066Y-64964501D01*
X115115240Y-64765715D01*
X114904831Y-64256485D01*
X114546411Y-63897440D01*
X115750000Y-63897440D01*
X115985317Y-63853162D01*
X116201441Y-63714090D01*
X116243332Y-63652779D01*
X122250280Y-63652779D01*
X123110000Y-64512498D01*
X123124142Y-64498356D01*
X123651644Y-65025858D01*
X123637502Y-65040000D01*
X124497221Y-65899720D01*
X124543566Y-65892031D01*
X124864436Y-66213461D01*
X125373298Y-66424759D01*
X125924285Y-66425240D01*
X126433515Y-66214831D01*
X126823461Y-65825564D01*
X126919976Y-65593130D01*
X127015169Y-65823515D01*
X127404436Y-66213461D01*
X127913298Y-66424759D01*
X128464285Y-66425240D01*
X128973515Y-66214831D01*
X129363461Y-65825564D01*
X129459976Y-65593130D01*
X129555169Y-65823515D01*
X129944436Y-66213461D01*
X130453298Y-66424759D01*
X131004285Y-66425240D01*
X131513515Y-66214831D01*
X131903461Y-65825564D01*
X132114759Y-65316702D01*
X132115066Y-64964501D01*
X138197716Y-64964501D01*
X138314387Y-65702047D01*
X138372173Y-65841551D01*
X138722779Y-65899720D01*
X139582498Y-65040000D01*
X138722779Y-64180280D01*
X138372173Y-64238449D01*
X138197716Y-64964501D01*
X132115066Y-64964501D01*
X132115240Y-64765715D01*
X131904831Y-64256485D01*
X131546411Y-63897440D01*
X132750000Y-63897440D01*
X132985317Y-63853162D01*
X133201441Y-63714090D01*
X133243332Y-63652779D01*
X139250280Y-63652779D01*
X140110000Y-64512498D01*
X140124142Y-64498356D01*
X140651644Y-65025858D01*
X140637502Y-65040000D01*
X141497221Y-65899720D01*
X141543566Y-65892031D01*
X141864436Y-66213461D01*
X142373298Y-66424759D01*
X142924285Y-66425240D01*
X143433515Y-66214831D01*
X143823461Y-65825564D01*
X143919976Y-65593130D01*
X144015169Y-65823515D01*
X144404436Y-66213461D01*
X144913298Y-66424759D01*
X145464285Y-66425240D01*
X145973515Y-66214831D01*
X146363461Y-65825564D01*
X146459976Y-65593130D01*
X146555169Y-65823515D01*
X146944436Y-66213461D01*
X147453298Y-66424759D01*
X148004285Y-66425240D01*
X148513515Y-66214831D01*
X148903461Y-65825564D01*
X149114759Y-65316702D01*
X149115066Y-64964501D01*
X155197716Y-64964501D01*
X155314387Y-65702047D01*
X155372173Y-65841551D01*
X155722779Y-65899720D01*
X156582498Y-65040000D01*
X155722779Y-64180280D01*
X155372173Y-64238449D01*
X155197716Y-64964501D01*
X149115066Y-64964501D01*
X149115240Y-64765715D01*
X148904831Y-64256485D01*
X148546411Y-63897440D01*
X149750000Y-63897440D01*
X149985317Y-63853162D01*
X150201441Y-63714090D01*
X150346431Y-63501890D01*
X150397440Y-63250000D01*
X150397440Y-61750000D01*
X150353162Y-61514683D01*
X150214090Y-61298559D01*
X150001890Y-61153569D01*
X149800463Y-61112779D01*
X157520280Y-61112779D01*
X158380000Y-61972498D01*
X159239720Y-61112779D01*
X159181551Y-60762173D01*
X158455499Y-60587716D01*
X157717953Y-60704387D01*
X157578449Y-60762173D01*
X157520280Y-61112779D01*
X149800463Y-61112779D01*
X149750000Y-61102560D01*
X148250000Y-61102560D01*
X148014683Y-61146838D01*
X147798559Y-61285910D01*
X147653569Y-61498110D01*
X147613645Y-61695262D01*
X147245564Y-61326539D01*
X146736702Y-61115241D01*
X146185715Y-61114760D01*
X145676485Y-61325169D01*
X145286539Y-61714436D01*
X145190024Y-61946870D01*
X145094831Y-61716485D01*
X144705564Y-61326539D01*
X144196702Y-61115241D01*
X143645715Y-61114760D01*
X143136485Y-61325169D01*
X142813185Y-61647906D01*
X142767221Y-61640280D01*
X141907502Y-62500000D01*
X141921644Y-62514142D01*
X141394142Y-63041644D01*
X141380000Y-63027502D01*
X141365858Y-63041644D01*
X140838356Y-62514142D01*
X140852498Y-62500000D01*
X139992779Y-61640280D01*
X139642173Y-61698449D01*
X139467716Y-62424501D01*
X139584387Y-63162047D01*
X139608007Y-63219068D01*
X139447953Y-63244387D01*
X139308449Y-63302173D01*
X139250280Y-63652779D01*
X133243332Y-63652779D01*
X133346431Y-63501890D01*
X133397440Y-63250000D01*
X133397440Y-61750000D01*
X133353162Y-61514683D01*
X133214090Y-61298559D01*
X133001890Y-61153569D01*
X132800463Y-61112779D01*
X140520280Y-61112779D01*
X141380000Y-61972498D01*
X142239720Y-61112779D01*
X142181551Y-60762173D01*
X141455499Y-60587716D01*
X140717953Y-60704387D01*
X140578449Y-60762173D01*
X140520280Y-61112779D01*
X132800463Y-61112779D01*
X132750000Y-61102560D01*
X131250000Y-61102560D01*
X131014683Y-61146838D01*
X130798559Y-61285910D01*
X130653569Y-61498110D01*
X130613645Y-61695262D01*
X130245564Y-61326539D01*
X129736702Y-61115241D01*
X129185715Y-61114760D01*
X128676485Y-61325169D01*
X128286539Y-61714436D01*
X128190024Y-61946870D01*
X128094831Y-61716485D01*
X127705564Y-61326539D01*
X127196702Y-61115241D01*
X126645715Y-61114760D01*
X126136485Y-61325169D01*
X125813185Y-61647906D01*
X125767221Y-61640280D01*
X124907502Y-62500000D01*
X124921644Y-62514142D01*
X124394142Y-63041644D01*
X124380000Y-63027502D01*
X124365858Y-63041644D01*
X123838356Y-62514142D01*
X123852498Y-62500000D01*
X122992779Y-61640280D01*
X122642173Y-61698449D01*
X122467716Y-62424501D01*
X122584387Y-63162047D01*
X122608007Y-63219068D01*
X122447953Y-63244387D01*
X122308449Y-63302173D01*
X122250280Y-63652779D01*
X116243332Y-63652779D01*
X116346431Y-63501890D01*
X116397440Y-63250000D01*
X116397440Y-61750000D01*
X116353162Y-61514683D01*
X116214090Y-61298559D01*
X116001890Y-61153569D01*
X115800463Y-61112779D01*
X123520280Y-61112779D01*
X124380000Y-61972498D01*
X125239720Y-61112779D01*
X125181551Y-60762173D01*
X124455499Y-60587716D01*
X123717953Y-60704387D01*
X123578449Y-60762173D01*
X123520280Y-61112779D01*
X115800463Y-61112779D01*
X115750000Y-61102560D01*
X114250000Y-61102560D01*
X114014683Y-61146838D01*
X113798559Y-61285910D01*
X113653569Y-61498110D01*
X113613645Y-61695262D01*
X113245564Y-61326539D01*
X112736702Y-61115241D01*
X112185715Y-61114760D01*
X111676485Y-61325169D01*
X111286539Y-61714436D01*
X111190024Y-61946870D01*
X111094831Y-61716485D01*
X110705564Y-61326539D01*
X110196702Y-61115241D01*
X109645715Y-61114760D01*
X109136485Y-61325169D01*
X108813185Y-61647906D01*
X108767221Y-61640280D01*
X107907502Y-62500000D01*
X107921644Y-62514142D01*
X107394142Y-63041644D01*
X107380000Y-63027502D01*
X107365858Y-63041644D01*
X106838356Y-62514142D01*
X106852498Y-62500000D01*
X105992779Y-61640280D01*
X105642173Y-61698449D01*
X105467716Y-62424501D01*
X105584387Y-63162047D01*
X105608007Y-63219068D01*
X105447953Y-63244387D01*
X105308449Y-63302173D01*
X105250280Y-63652779D01*
X95710000Y-63652779D01*
X95710000Y-61112779D01*
X106520280Y-61112779D01*
X107380000Y-61972498D01*
X108239720Y-61112779D01*
X108181551Y-60762173D01*
X107455499Y-60587716D01*
X106717953Y-60704387D01*
X106578449Y-60762173D01*
X106520280Y-61112779D01*
X95710000Y-61112779D01*
X95710000Y-56637177D01*
X102159574Y-56637177D01*
X102533298Y-57541657D01*
X103224703Y-58234270D01*
X104128529Y-58609572D01*
X105107177Y-58610426D01*
X106011657Y-58236702D01*
X106704270Y-57545297D01*
X107079572Y-56641471D01*
X107079575Y-56637177D01*
X114029574Y-56637177D01*
X114403298Y-57541657D01*
X115094703Y-58234270D01*
X115998529Y-58609572D01*
X116977177Y-58610426D01*
X117881657Y-58236702D01*
X118574270Y-57545297D01*
X118949572Y-56641471D01*
X118949575Y-56637177D01*
X119159574Y-56637177D01*
X119533298Y-57541657D01*
X120224703Y-58234270D01*
X121128529Y-58609572D01*
X122107177Y-58610426D01*
X123011657Y-58236702D01*
X123704270Y-57545297D01*
X124079572Y-56641471D01*
X124079575Y-56637177D01*
X131029574Y-56637177D01*
X131403298Y-57541657D01*
X132094703Y-58234270D01*
X132998529Y-58609572D01*
X133977177Y-58610426D01*
X134881657Y-58236702D01*
X135574270Y-57545297D01*
X135949572Y-56641471D01*
X135949575Y-56637177D01*
X136159574Y-56637177D01*
X136533298Y-57541657D01*
X137224703Y-58234270D01*
X138128529Y-58609572D01*
X139107177Y-58610426D01*
X140011657Y-58236702D01*
X140704270Y-57545297D01*
X141079572Y-56641471D01*
X141079575Y-56637177D01*
X148029574Y-56637177D01*
X148403298Y-57541657D01*
X149094703Y-58234270D01*
X149998529Y-58609572D01*
X150977177Y-58610426D01*
X151881657Y-58236702D01*
X152574270Y-57545297D01*
X152949572Y-56641471D01*
X152949575Y-56637177D01*
X153159574Y-56637177D01*
X153533298Y-57541657D01*
X154224703Y-58234270D01*
X155128529Y-58609572D01*
X156107177Y-58610426D01*
X157011657Y-58236702D01*
X157704270Y-57545297D01*
X158079572Y-56641471D01*
X158079575Y-56637177D01*
X165029574Y-56637177D01*
X165403298Y-57541657D01*
X166094703Y-58234270D01*
X166998529Y-58609572D01*
X167977177Y-58610426D01*
X168881657Y-58236702D01*
X169574270Y-57545297D01*
X169949572Y-56641471D01*
X169950426Y-55662823D01*
X169576702Y-54758343D01*
X168885297Y-54065730D01*
X167981471Y-53690428D01*
X167002823Y-53689574D01*
X166098343Y-54063298D01*
X165405730Y-54754703D01*
X165030428Y-55658529D01*
X165029574Y-56637177D01*
X158079575Y-56637177D01*
X158080426Y-55662823D01*
X157706702Y-54758343D01*
X157015297Y-54065730D01*
X156111471Y-53690428D01*
X155132823Y-53689574D01*
X154228343Y-54063298D01*
X153535730Y-54754703D01*
X153160428Y-55658529D01*
X153159574Y-56637177D01*
X152949575Y-56637177D01*
X152950426Y-55662823D01*
X152576702Y-54758343D01*
X151885297Y-54065730D01*
X150981471Y-53690428D01*
X150002823Y-53689574D01*
X149098343Y-54063298D01*
X148405730Y-54754703D01*
X148030428Y-55658529D01*
X148029574Y-56637177D01*
X141079575Y-56637177D01*
X141080426Y-55662823D01*
X140706702Y-54758343D01*
X140015297Y-54065730D01*
X139111471Y-53690428D01*
X138132823Y-53689574D01*
X137228343Y-54063298D01*
X136535730Y-54754703D01*
X136160428Y-55658529D01*
X136159574Y-56637177D01*
X135949575Y-56637177D01*
X135950426Y-55662823D01*
X135576702Y-54758343D01*
X134885297Y-54065730D01*
X133981471Y-53690428D01*
X133002823Y-53689574D01*
X132098343Y-54063298D01*
X131405730Y-54754703D01*
X131030428Y-55658529D01*
X131029574Y-56637177D01*
X124079575Y-56637177D01*
X124080426Y-55662823D01*
X123706702Y-54758343D01*
X123015297Y-54065730D01*
X122111471Y-53690428D01*
X121132823Y-53689574D01*
X120228343Y-54063298D01*
X119535730Y-54754703D01*
X119160428Y-55658529D01*
X119159574Y-56637177D01*
X118949575Y-56637177D01*
X118950426Y-55662823D01*
X118576702Y-54758343D01*
X117885297Y-54065730D01*
X116981471Y-53690428D01*
X116002823Y-53689574D01*
X115098343Y-54063298D01*
X114405730Y-54754703D01*
X114030428Y-55658529D01*
X114029574Y-56637177D01*
X107079575Y-56637177D01*
X107080426Y-55662823D01*
X106706702Y-54758343D01*
X106015297Y-54065730D01*
X105111471Y-53690428D01*
X104132823Y-53689574D01*
X103228343Y-54063298D01*
X102535730Y-54754703D01*
X102160428Y-55658529D01*
X102159574Y-56637177D01*
X95710000Y-56637177D01*
X95710000Y-55069931D01*
X96430010Y-51450195D01*
X98440814Y-48440813D01*
X101450193Y-46430011D01*
X105069931Y-45710000D01*
X172430069Y-45710000D01*
X176049805Y-46430010D01*
M02*
