G04 #@! TF.FileFunction,Copper,L1,Top,Signal*
%FSLAX46Y46*%
G04 Gerber Fmt 4.6, Leading zero omitted, Abs format (unit mm)*
G04 Created by KiCad (PCBNEW 4.0.6) date Mon May 22 21:52:31 2017*
%MOMM*%
%LPD*%
G01*
G04 APERTURE LIST*
%ADD10C,0.100000*%
%ADD11C,1.600000*%
%ADD12O,1.600000X1.600000*%
%ADD13R,1.600000X1.600000*%
%ADD14C,1.524000*%
%ADD15C,2.400000*%
%ADD16C,3.650000*%
%ADD17C,1.500000*%
%ADD18R,1.500000X1.500000*%
%ADD19C,0.400000*%
%ADD20C,0.400000*%
%ADD21C,2.000000*%
%ADD22C,0.254000*%
G04 APERTURE END LIST*
D10*
D11*
X67310000Y-106680000D03*
D12*
X74930000Y-106680000D03*
D11*
X53340000Y-106680000D03*
D12*
X60960000Y-106680000D03*
D11*
X39370000Y-106680000D03*
D12*
X46990000Y-106680000D03*
D11*
X81280000Y-127000000D03*
D12*
X88900000Y-127000000D03*
D11*
X67310000Y-127000000D03*
D12*
X74930000Y-127000000D03*
D11*
X53340000Y-127000000D03*
D12*
X60960000Y-127000000D03*
D11*
X39370000Y-127000000D03*
D12*
X46990000Y-127000000D03*
D11*
X81280000Y-106680000D03*
D12*
X88900000Y-106680000D03*
D11*
X22860000Y-107950000D03*
D12*
X30480000Y-107950000D03*
D11*
X22860000Y-102870000D03*
D12*
X30480000Y-102870000D03*
D13*
X81280000Y-102870000D03*
D12*
X88900000Y-95250000D03*
X83820000Y-102870000D03*
X86360000Y-95250000D03*
X86360000Y-102870000D03*
X83820000Y-95250000D03*
X88900000Y-102870000D03*
X81280000Y-95250000D03*
D13*
X67310000Y-102870000D03*
D12*
X74930000Y-95250000D03*
X69850000Y-102870000D03*
X72390000Y-95250000D03*
X72390000Y-102870000D03*
X69850000Y-95250000D03*
X74930000Y-102870000D03*
X67310000Y-95250000D03*
D13*
X53340000Y-102870000D03*
D12*
X60960000Y-95250000D03*
X55880000Y-102870000D03*
X58420000Y-95250000D03*
X58420000Y-102870000D03*
X55880000Y-95250000D03*
X60960000Y-102870000D03*
X53340000Y-95250000D03*
D13*
X39370000Y-102870000D03*
D12*
X46990000Y-95250000D03*
X41910000Y-102870000D03*
X44450000Y-95250000D03*
X44450000Y-102870000D03*
X41910000Y-95250000D03*
X46990000Y-102870000D03*
X39370000Y-95250000D03*
D13*
X81280000Y-123190000D03*
D12*
X88900000Y-115570000D03*
X83820000Y-123190000D03*
X86360000Y-115570000D03*
X86360000Y-123190000D03*
X83820000Y-115570000D03*
X88900000Y-123190000D03*
X81280000Y-115570000D03*
D13*
X67310000Y-123190000D03*
D12*
X74930000Y-115570000D03*
X69850000Y-123190000D03*
X72390000Y-115570000D03*
X72390000Y-123190000D03*
X69850000Y-115570000D03*
X74930000Y-123190000D03*
X67310000Y-115570000D03*
D13*
X53340000Y-123190000D03*
D12*
X60960000Y-115570000D03*
X55880000Y-123190000D03*
X58420000Y-115570000D03*
X58420000Y-123190000D03*
X55880000Y-115570000D03*
X60960000Y-123190000D03*
X53340000Y-115570000D03*
D13*
X39370000Y-123190000D03*
D12*
X46990000Y-115570000D03*
X41910000Y-123190000D03*
X44450000Y-115570000D03*
X44450000Y-123190000D03*
X41910000Y-115570000D03*
X46990000Y-123190000D03*
X39370000Y-115570000D03*
D11*
X74930000Y-86360000D03*
X77470000Y-86360000D03*
X80010000Y-86360000D03*
X82550000Y-86360000D03*
X72390000Y-86360000D03*
X69850000Y-86360000D03*
X67310000Y-86360000D03*
X85090000Y-86360000D03*
X87630000Y-86360000D03*
X90170000Y-86360000D03*
X92710000Y-86360000D03*
X80010000Y-83820000D03*
X80010000Y-81280000D03*
X80010000Y-78740000D03*
X80010000Y-76200000D03*
X80010000Y-73660000D03*
X92710000Y-71120000D03*
X90170000Y-71120000D03*
X87630000Y-71120000D03*
X85090000Y-71120000D03*
X82550000Y-71120000D03*
X80010000Y-71120000D03*
X77470000Y-71120000D03*
X74930000Y-71120000D03*
X64770000Y-86360000D03*
X62230000Y-86360000D03*
X59690000Y-86360000D03*
X57150000Y-86360000D03*
X54610000Y-86360000D03*
X52070000Y-86360000D03*
X49530000Y-86360000D03*
X46990000Y-86360000D03*
X44450000Y-86360000D03*
X41910000Y-86360000D03*
X39370000Y-86360000D03*
X36830000Y-86360000D03*
D13*
X34290000Y-86360000D03*
D11*
X72390000Y-71120000D03*
X69850000Y-71120000D03*
X67310000Y-71120000D03*
X64770000Y-71120000D03*
X62230000Y-71120000D03*
X59690000Y-71120000D03*
X57150000Y-71120000D03*
X54610000Y-71120000D03*
X52070000Y-71120000D03*
X49530000Y-71120000D03*
X46990000Y-71120000D03*
X44450000Y-71120000D03*
X41910000Y-71120000D03*
X39370000Y-71120000D03*
X36830000Y-71120000D03*
X34290000Y-71120000D03*
X36830000Y-73660000D03*
X41910000Y-73660000D03*
X44450000Y-73660000D03*
X46990000Y-73660000D03*
X49530000Y-78740000D03*
X52070000Y-78740000D03*
X54610000Y-78740000D03*
X57150000Y-78740000D03*
X72390000Y-78740000D03*
X74930000Y-78740000D03*
X77470000Y-78740000D03*
X82550000Y-78740000D03*
X85090000Y-78740000D03*
X87630000Y-78740000D03*
X90170000Y-78740000D03*
X92710000Y-78740000D03*
X92710000Y-76200000D03*
X90170000Y-76200000D03*
X87630000Y-76200000D03*
X85090000Y-76200000D03*
X82550000Y-76200000D03*
X77470000Y-76200000D03*
X74930000Y-76200000D03*
X72390000Y-76200000D03*
X57150000Y-76200000D03*
X54610000Y-76200000D03*
X52070000Y-76200000D03*
X49530000Y-76200000D03*
D14*
X30480000Y-93980000D03*
X30480000Y-91440000D03*
X27940000Y-93980000D03*
X27940000Y-91440000D03*
X25400000Y-93980000D03*
X25400000Y-91440000D03*
X22860000Y-93980000D03*
X22860000Y-91440000D03*
D11*
X81280000Y-91440000D03*
D12*
X88780000Y-91440000D03*
D11*
X67310000Y-91440000D03*
D12*
X74810000Y-91440000D03*
D11*
X53340000Y-91440000D03*
D12*
X60840000Y-91440000D03*
D11*
X39370000Y-91440000D03*
D12*
X46870000Y-91440000D03*
D11*
X81280000Y-111760000D03*
D12*
X88780000Y-111760000D03*
D11*
X67310000Y-111760000D03*
D12*
X74810000Y-111760000D03*
D11*
X53340000Y-111760000D03*
D12*
X60840000Y-111760000D03*
D11*
X39370000Y-111760000D03*
D12*
X46870000Y-111760000D03*
D11*
X22860000Y-97790000D03*
D12*
X30360000Y-97790000D03*
D15*
X92964000Y-137210800D03*
X92303600Y-142722600D03*
X92964000Y-153162000D03*
D16*
X90170000Y-148590000D03*
D15*
X34036000Y-133121400D03*
X34696400Y-139446000D03*
X34036000Y-153162000D03*
X78105000Y-131318000D03*
X64135000Y-131318000D03*
D17*
X80010000Y-135661400D03*
X81280000Y-133121400D03*
X82550000Y-135661400D03*
X83820000Y-133121400D03*
X85090000Y-135661400D03*
X86360000Y-133121400D03*
X87630000Y-135661400D03*
D18*
X88900000Y-133121400D03*
X74930000Y-133121400D03*
D17*
X73660000Y-135661400D03*
X72390000Y-133121400D03*
X71120000Y-135661400D03*
X69850000Y-133121400D03*
X68580000Y-135661400D03*
X67310000Y-133121400D03*
X66040000Y-135661400D03*
X38100000Y-135661400D03*
X39370000Y-133121400D03*
X40640000Y-135661400D03*
X41910000Y-133121400D03*
X43180000Y-135661400D03*
X44450000Y-133121400D03*
X45720000Y-135661400D03*
D18*
X46990000Y-133121400D03*
X60960000Y-133121400D03*
D17*
X59690000Y-135661400D03*
X58420000Y-133121400D03*
X57150000Y-135661400D03*
X55880000Y-133121400D03*
X54610000Y-135661400D03*
X53340000Y-133121400D03*
X52070000Y-135661400D03*
X74930000Y-139700000D03*
X73660000Y-142240000D03*
X72390000Y-139700000D03*
X71120000Y-142240000D03*
X69850000Y-139700000D03*
X68580000Y-142240000D03*
X67310000Y-139700000D03*
D18*
X66040000Y-142240000D03*
X80010000Y-142240000D03*
D17*
X81280000Y-139700000D03*
X82550000Y-142240000D03*
X83820000Y-139700000D03*
X85090000Y-142240000D03*
X86360000Y-139700000D03*
X87630000Y-142240000D03*
X88900000Y-139700000D03*
X60960000Y-139700000D03*
X59690000Y-142240000D03*
X58420000Y-139700000D03*
X57150000Y-142240000D03*
X55880000Y-139700000D03*
X54610000Y-142240000D03*
X53340000Y-139700000D03*
D18*
X52070000Y-142240000D03*
D16*
X36830000Y-148590000D03*
D18*
X38100000Y-142240000D03*
D17*
X39370000Y-139700000D03*
X40640000Y-142240000D03*
X41910000Y-139700000D03*
X43180000Y-142240000D03*
X44450000Y-139700000D03*
X45720000Y-142240000D03*
X46990000Y-139700000D03*
D15*
X50165000Y-131318000D03*
D19*
X50138100Y-87780400D03*
X58378500Y-101463300D03*
X48446500Y-93643700D03*
X74801000Y-120888700D03*
X30438700Y-90022000D03*
X32621500Y-88825900D03*
D20*
X55729600Y-87780400D02*
X50138100Y-87780400D01*
X57150000Y-86360000D02*
X55729600Y-87780400D01*
X87699700Y-122817000D02*
X87699700Y-123190000D01*
X86380800Y-121498100D02*
X87699700Y-122817000D01*
X85455300Y-121498100D02*
X86380800Y-121498100D01*
X79815400Y-115858200D02*
X85455300Y-121498100D01*
X79815400Y-115062500D02*
X79815400Y-115858200D01*
X69872800Y-105119900D02*
X79815400Y-115062500D01*
X67207100Y-105119900D02*
X69872800Y-105119900D01*
X63550500Y-101463300D02*
X67207100Y-105119900D01*
X58378500Y-101463300D02*
X63550500Y-101463300D01*
X88900000Y-123190000D02*
X87699700Y-123190000D01*
X87699700Y-102497000D02*
X87699700Y-102870000D01*
X85602300Y-100399600D02*
X87699700Y-102497000D01*
X55202400Y-100399600D02*
X85602300Y-100399600D01*
X48446500Y-93643700D02*
X55202400Y-100399600D01*
X88900000Y-102870000D02*
X87699700Y-102870000D01*
X85030000Y-110430000D02*
X81280000Y-106680000D01*
X85030000Y-117545100D02*
X85030000Y-110430000D01*
X90126500Y-122641600D02*
X85030000Y-117545100D01*
X90126500Y-123976500D02*
X90126500Y-122641600D01*
X87630000Y-126473000D02*
X90126500Y-123976500D01*
X87630000Y-135661400D02*
X87630000Y-126473000D01*
X73660000Y-113030000D02*
X67310000Y-106680000D01*
X73660000Y-135661400D02*
X73660000Y-113030000D01*
X62160400Y-109080700D02*
X60960000Y-107880300D01*
X62160400Y-130770700D02*
X62160400Y-109080700D01*
X60960000Y-131971100D02*
X62160400Y-130770700D01*
X60960000Y-133121400D02*
X60960000Y-131971100D01*
X60960000Y-106680000D02*
X60960000Y-107880300D01*
X57090000Y-110430000D02*
X53340000Y-106680000D01*
X57090000Y-129059700D02*
X57090000Y-110430000D01*
X59690000Y-131659700D02*
X57090000Y-129059700D01*
X59690000Y-135661400D02*
X59690000Y-131659700D01*
X45650300Y-104140000D02*
X46990000Y-105479700D01*
X45650300Y-97650600D02*
X45650300Y-104140000D01*
X44450000Y-96450300D02*
X45650300Y-97650600D01*
X44450000Y-95250000D02*
X44450000Y-96450300D01*
X46990000Y-106680000D02*
X46990000Y-105479700D01*
X48190400Y-109080700D02*
X46990000Y-107880300D01*
X48190400Y-130770700D02*
X48190400Y-109080700D01*
X46990000Y-131971100D02*
X48190400Y-130770700D01*
X46990000Y-133121400D02*
X46990000Y-131971100D01*
X46990000Y-106680000D02*
X46990000Y-107880300D01*
X45720000Y-113030000D02*
X39370000Y-106680000D01*
X45720000Y-135661400D02*
X45720000Y-113030000D01*
X76130400Y-122218100D02*
X74801000Y-120888700D01*
X76130400Y-124599300D02*
X76130400Y-122218100D01*
X74930000Y-125799700D02*
X76130400Y-124599300D01*
X74930000Y-127000000D02*
X74930000Y-125799700D01*
X68500600Y-128190600D02*
X67310000Y-127000000D01*
X68500600Y-134110800D02*
X68500600Y-128190600D01*
X67310000Y-135301400D02*
X68500600Y-134110800D01*
X67310000Y-139700000D02*
X67310000Y-135301400D01*
X68649700Y-125660300D02*
X67310000Y-127000000D01*
X68649700Y-117970600D02*
X68649700Y-125660300D01*
X69850000Y-116770300D02*
X68649700Y-117970600D01*
X69850000Y-115570000D02*
X69850000Y-116770300D01*
X59620300Y-124460000D02*
X60960000Y-125799700D01*
X59620300Y-117970600D02*
X59620300Y-124460000D01*
X58420000Y-116770300D02*
X59620300Y-117970600D01*
X58420000Y-115570000D02*
X58420000Y-116770300D01*
X60960000Y-127000000D02*
X60960000Y-125799700D01*
X54679700Y-125660300D02*
X53340000Y-127000000D01*
X54679700Y-117970600D02*
X54679700Y-125660300D01*
X55880000Y-116770300D02*
X54679700Y-117970600D01*
X55880000Y-115570000D02*
X55880000Y-116770300D01*
D21*
X22860000Y-102870000D02*
X22860000Y-107950000D01*
X22860000Y-97790000D02*
X22860000Y-102870000D01*
X21590000Y-91440000D02*
X22860000Y-91440000D01*
X20320000Y-92710000D02*
X21590000Y-91440000D01*
X20320000Y-96520000D02*
X20320000Y-92710000D01*
X21590000Y-97790000D02*
X20320000Y-96520000D01*
X22860000Y-97790000D02*
X21590000Y-97790000D01*
X22860000Y-88900000D02*
X22860000Y-91440000D01*
X27940000Y-83820000D02*
X22860000Y-88900000D01*
X68580000Y-83820000D02*
X27940000Y-83820000D01*
X69850000Y-85090000D02*
X68580000Y-83820000D01*
X69850000Y-86360000D02*
X69850000Y-85090000D01*
D20*
X27418300Y-89421700D02*
X25400000Y-91440000D01*
X30687400Y-89421700D02*
X27418300Y-89421700D01*
X30716700Y-89451000D02*
X30687400Y-89421700D01*
X81999000Y-89451000D02*
X30716700Y-89451000D01*
X85090000Y-86360000D02*
X81999000Y-89451000D01*
X83906300Y-90083700D02*
X87630000Y-86360000D01*
X30500400Y-90083700D02*
X83906300Y-90083700D01*
X30438700Y-90022000D02*
X30500400Y-90083700D01*
X86411300Y-82601300D02*
X90170000Y-86360000D01*
X76962600Y-82601300D02*
X86411300Y-82601300D01*
X73729600Y-85834300D02*
X76962600Y-82601300D01*
X73729600Y-86791400D02*
X73729600Y-85834300D01*
X71695100Y-88825900D02*
X73729600Y-86791400D01*
X32621500Y-88825900D02*
X71695100Y-88825900D01*
X91260600Y-87809400D02*
X92710000Y-86360000D01*
X87878300Y-87809400D02*
X91260600Y-87809400D01*
X82977700Y-92710000D02*
X87878300Y-87809400D01*
X24130000Y-92710000D02*
X82977700Y-92710000D01*
X22860000Y-93980000D02*
X24130000Y-92710000D01*
D22*
G36*
X33457914Y-69340146D02*
X33393284Y-69695782D01*
X34290000Y-70592498D01*
X35186716Y-69695782D01*
X35122086Y-69340146D01*
X34918023Y-69290000D01*
X101530069Y-69290000D01*
X104239021Y-69828844D01*
X106476273Y-71323727D01*
X107971156Y-73560979D01*
X108510000Y-76269931D01*
X108510000Y-152330069D01*
X107971156Y-155039021D01*
X106476273Y-157276273D01*
X104239021Y-158771156D01*
X101530069Y-159310000D01*
X25469931Y-159310000D01*
X22760979Y-158771156D01*
X20523727Y-157276273D01*
X19028844Y-155039021D01*
X18597862Y-152872325D01*
X23014587Y-152872325D01*
X23376916Y-153749229D01*
X24047242Y-154420726D01*
X24923513Y-154784585D01*
X25872325Y-154785413D01*
X26749229Y-154423084D01*
X27420726Y-153752758D01*
X27515131Y-153525403D01*
X32200682Y-153525403D01*
X32479455Y-154200086D01*
X32995199Y-154716730D01*
X33669395Y-154996681D01*
X34399403Y-154997318D01*
X35074086Y-154718545D01*
X35590730Y-154202801D01*
X35870681Y-153528605D01*
X35870683Y-153525403D01*
X91128682Y-153525403D01*
X91407455Y-154200086D01*
X91923199Y-154716730D01*
X92597395Y-154996681D01*
X93327403Y-154997318D01*
X94002086Y-154718545D01*
X94518730Y-154202801D01*
X94798681Y-153528605D01*
X94799253Y-152872325D01*
X99214587Y-152872325D01*
X99576916Y-153749229D01*
X100247242Y-154420726D01*
X101123513Y-154784585D01*
X102072325Y-154785413D01*
X102949229Y-154423084D01*
X103620726Y-153752758D01*
X103984585Y-152876487D01*
X103985413Y-151927675D01*
X103623084Y-151050771D01*
X102952758Y-150379274D01*
X102076487Y-150015415D01*
X101127675Y-150014587D01*
X100250771Y-150376916D01*
X99579274Y-151047242D01*
X99215415Y-151923513D01*
X99214587Y-152872325D01*
X94799253Y-152872325D01*
X94799318Y-152798597D01*
X94520545Y-152123914D01*
X94004801Y-151607270D01*
X93330605Y-151327319D01*
X92600597Y-151326682D01*
X91925914Y-151605455D01*
X91409270Y-152121199D01*
X91129319Y-152795395D01*
X91128682Y-153525403D01*
X35870683Y-153525403D01*
X35871318Y-152798597D01*
X35592545Y-152123914D01*
X35076801Y-151607270D01*
X34402605Y-151327319D01*
X33672597Y-151326682D01*
X32997914Y-151605455D01*
X32481270Y-152121199D01*
X32201319Y-152795395D01*
X32200682Y-153525403D01*
X27515131Y-153525403D01*
X27784585Y-152876487D01*
X27785413Y-151927675D01*
X27423084Y-151050771D01*
X26752758Y-150379274D01*
X25876487Y-150015415D01*
X24927675Y-150014587D01*
X24050771Y-150376916D01*
X23379274Y-151047242D01*
X23015415Y-151923513D01*
X23014587Y-152872325D01*
X18597862Y-152872325D01*
X18490000Y-152330069D01*
X18490000Y-149077177D01*
X34369574Y-149077177D01*
X34743298Y-149981657D01*
X35434703Y-150674270D01*
X36338529Y-151049572D01*
X37317177Y-151050426D01*
X38221657Y-150676702D01*
X38914270Y-149985297D01*
X39289572Y-149081471D01*
X39289575Y-149077177D01*
X87709574Y-149077177D01*
X88083298Y-149981657D01*
X88774703Y-150674270D01*
X89678529Y-151049572D01*
X90657177Y-151050426D01*
X91561657Y-150676702D01*
X92254270Y-149985297D01*
X92629572Y-149081471D01*
X92630426Y-148102823D01*
X92256702Y-147198343D01*
X91565297Y-146505730D01*
X90661471Y-146130428D01*
X89682823Y-146129574D01*
X88778343Y-146503298D01*
X88085730Y-147194703D01*
X87710428Y-148098529D01*
X87709574Y-149077177D01*
X39289575Y-149077177D01*
X39290426Y-148102823D01*
X38916702Y-147198343D01*
X38225297Y-146505730D01*
X37321471Y-146130428D01*
X36342823Y-146129574D01*
X35438343Y-146503298D01*
X34745730Y-147194703D01*
X34370428Y-148098529D01*
X34369574Y-149077177D01*
X18490000Y-149077177D01*
X18490000Y-141490000D01*
X36702560Y-141490000D01*
X36702560Y-142990000D01*
X36746838Y-143225317D01*
X36885910Y-143441441D01*
X37098110Y-143586431D01*
X37350000Y-143637440D01*
X38850000Y-143637440D01*
X39085317Y-143593162D01*
X39301441Y-143454090D01*
X39446431Y-143241890D01*
X39486355Y-143044738D01*
X39854436Y-143413461D01*
X40363298Y-143624759D01*
X40914285Y-143625240D01*
X41423515Y-143414831D01*
X41813461Y-143025564D01*
X41909976Y-142793130D01*
X42005169Y-143023515D01*
X42394436Y-143413461D01*
X42903298Y-143624759D01*
X43454285Y-143625240D01*
X43963515Y-143414831D01*
X44353461Y-143025564D01*
X44449976Y-142793130D01*
X44545169Y-143023515D01*
X44934436Y-143413461D01*
X45443298Y-143624759D01*
X45994285Y-143625240D01*
X46503515Y-143414831D01*
X46893461Y-143025564D01*
X47104759Y-142516702D01*
X47105240Y-141965715D01*
X46908680Y-141490000D01*
X50672560Y-141490000D01*
X50672560Y-142990000D01*
X50716838Y-143225317D01*
X50855910Y-143441441D01*
X51068110Y-143586431D01*
X51320000Y-143637440D01*
X52820000Y-143637440D01*
X53055317Y-143593162D01*
X53271441Y-143454090D01*
X53416431Y-143241890D01*
X53456355Y-143044738D01*
X53824436Y-143413461D01*
X54333298Y-143624759D01*
X54884285Y-143625240D01*
X55393515Y-143414831D01*
X55783461Y-143025564D01*
X55879976Y-142793130D01*
X55975169Y-143023515D01*
X56364436Y-143413461D01*
X56873298Y-143624759D01*
X57424285Y-143625240D01*
X57933515Y-143414831D01*
X58323461Y-143025564D01*
X58419976Y-142793130D01*
X58515169Y-143023515D01*
X58904436Y-143413461D01*
X59413298Y-143624759D01*
X59964285Y-143625240D01*
X60473515Y-143414831D01*
X60863461Y-143025564D01*
X61074759Y-142516702D01*
X61075240Y-141965715D01*
X60864831Y-141456485D01*
X60475564Y-141066539D01*
X59966702Y-140855241D01*
X59415715Y-140854760D01*
X58906485Y-141065169D01*
X58516539Y-141454436D01*
X58420024Y-141686870D01*
X58324831Y-141456485D01*
X57935564Y-141066539D01*
X57426702Y-140855241D01*
X56875715Y-140854760D01*
X56366485Y-141065169D01*
X55976539Y-141454436D01*
X55880024Y-141686870D01*
X55784831Y-141456485D01*
X55395564Y-141066539D01*
X54886702Y-140855241D01*
X54335715Y-140854760D01*
X53826485Y-141065169D01*
X53456920Y-141434091D01*
X53423162Y-141254683D01*
X53313960Y-141084978D01*
X53614285Y-141085240D01*
X54123515Y-140874831D01*
X54513461Y-140485564D01*
X54609976Y-140253130D01*
X54705169Y-140483515D01*
X55094436Y-140873461D01*
X55603298Y-141084759D01*
X56154285Y-141085240D01*
X56663515Y-140874831D01*
X57053461Y-140485564D01*
X57149976Y-140253130D01*
X57245169Y-140483515D01*
X57634436Y-140873461D01*
X58143298Y-141084759D01*
X58694285Y-141085240D01*
X59203515Y-140874831D01*
X59593461Y-140485564D01*
X59689976Y-140253130D01*
X59785169Y-140483515D01*
X60174436Y-140873461D01*
X60683298Y-141084759D01*
X61234285Y-141085240D01*
X61743515Y-140874831D01*
X62133461Y-140485564D01*
X62344759Y-139976702D01*
X62345240Y-139425715D01*
X62134831Y-138916485D01*
X61745564Y-138526539D01*
X61236702Y-138315241D01*
X60685715Y-138314760D01*
X60176485Y-138525169D01*
X59786539Y-138914436D01*
X59690024Y-139146870D01*
X59594831Y-138916485D01*
X59205564Y-138526539D01*
X58696702Y-138315241D01*
X58145715Y-138314760D01*
X57636485Y-138525169D01*
X57246539Y-138914436D01*
X57150024Y-139146870D01*
X57054831Y-138916485D01*
X56665564Y-138526539D01*
X56156702Y-138315241D01*
X55605715Y-138314760D01*
X55096485Y-138525169D01*
X54706539Y-138914436D01*
X54610024Y-139146870D01*
X54514831Y-138916485D01*
X54125564Y-138526539D01*
X53616702Y-138315241D01*
X53065715Y-138314760D01*
X52556485Y-138525169D01*
X52166539Y-138914436D01*
X51955241Y-139423298D01*
X51954760Y-139974285D01*
X52165169Y-140483515D01*
X52523589Y-140842560D01*
X51320000Y-140842560D01*
X51084683Y-140886838D01*
X50868559Y-141025910D01*
X50723569Y-141238110D01*
X50672560Y-141490000D01*
X46908680Y-141490000D01*
X46894831Y-141456485D01*
X46505564Y-141066539D01*
X45996702Y-140855241D01*
X45445715Y-140854760D01*
X44936485Y-141065169D01*
X44546539Y-141454436D01*
X44450024Y-141686870D01*
X44354831Y-141456485D01*
X43965564Y-141066539D01*
X43456702Y-140855241D01*
X42905715Y-140854760D01*
X42396485Y-141065169D01*
X42006539Y-141454436D01*
X41910024Y-141686870D01*
X41814831Y-141456485D01*
X41425564Y-141066539D01*
X40916702Y-140855241D01*
X40365715Y-140854760D01*
X39856485Y-141065169D01*
X39486920Y-141434091D01*
X39453162Y-141254683D01*
X39343960Y-141084978D01*
X39644285Y-141085240D01*
X40153515Y-140874831D01*
X40543461Y-140485564D01*
X40639976Y-140253130D01*
X40735169Y-140483515D01*
X41124436Y-140873461D01*
X41633298Y-141084759D01*
X42184285Y-141085240D01*
X42693515Y-140874831D01*
X43083461Y-140485564D01*
X43179976Y-140253130D01*
X43275169Y-140483515D01*
X43664436Y-140873461D01*
X44173298Y-141084759D01*
X44724285Y-141085240D01*
X45233515Y-140874831D01*
X45623461Y-140485564D01*
X45719976Y-140253130D01*
X45815169Y-140483515D01*
X46204436Y-140873461D01*
X46713298Y-141084759D01*
X47264285Y-141085240D01*
X47773515Y-140874831D01*
X48163461Y-140485564D01*
X48374759Y-139976702D01*
X48375240Y-139425715D01*
X48164831Y-138916485D01*
X47775564Y-138526539D01*
X47266702Y-138315241D01*
X46715715Y-138314760D01*
X46206485Y-138525169D01*
X45816539Y-138914436D01*
X45720024Y-139146870D01*
X45624831Y-138916485D01*
X45235564Y-138526539D01*
X44726702Y-138315241D01*
X44175715Y-138314760D01*
X43666485Y-138525169D01*
X43276539Y-138914436D01*
X43180024Y-139146870D01*
X43084831Y-138916485D01*
X42695564Y-138526539D01*
X42186702Y-138315241D01*
X41635715Y-138314760D01*
X41126485Y-138525169D01*
X40736539Y-138914436D01*
X40640024Y-139146870D01*
X40544831Y-138916485D01*
X40155564Y-138526539D01*
X39646702Y-138315241D01*
X39095715Y-138314760D01*
X38586485Y-138525169D01*
X38196539Y-138914436D01*
X37985241Y-139423298D01*
X37984760Y-139974285D01*
X38195169Y-140483515D01*
X38553589Y-140842560D01*
X37350000Y-140842560D01*
X37114683Y-140886838D01*
X36898559Y-141025910D01*
X36753569Y-141238110D01*
X36702560Y-141490000D01*
X18490000Y-141490000D01*
X18490000Y-139809403D01*
X32861082Y-139809403D01*
X33139855Y-140484086D01*
X33655599Y-141000730D01*
X34329795Y-141280681D01*
X35059803Y-141281318D01*
X35734486Y-141002545D01*
X36251130Y-140486801D01*
X36531081Y-139812605D01*
X36531718Y-139082597D01*
X36252945Y-138407914D01*
X35737201Y-137891270D01*
X35063005Y-137611319D01*
X34332997Y-137610682D01*
X33658314Y-137889455D01*
X33141670Y-138405199D01*
X32861719Y-139079395D01*
X32861082Y-139809403D01*
X18490000Y-139809403D01*
X18490000Y-133484803D01*
X32200682Y-133484803D01*
X32479455Y-134159486D01*
X32995199Y-134676130D01*
X33669395Y-134956081D01*
X34399403Y-134956718D01*
X35074086Y-134677945D01*
X35590730Y-134162201D01*
X35870681Y-133488005D01*
X35871318Y-132757997D01*
X35592545Y-132083314D01*
X35076801Y-131566670D01*
X34402605Y-131286719D01*
X33672597Y-131286082D01*
X32997914Y-131564855D01*
X32481270Y-132080599D01*
X32201319Y-132754795D01*
X32200682Y-133484803D01*
X18490000Y-133484803D01*
X18490000Y-127284187D01*
X37934752Y-127284187D01*
X38152757Y-127811800D01*
X38556077Y-128215824D01*
X39083309Y-128434750D01*
X39654187Y-128435248D01*
X40181800Y-128217243D01*
X40585824Y-127813923D01*
X40804750Y-127286691D01*
X40805248Y-126715813D01*
X40587243Y-126188200D01*
X40183923Y-125784176D01*
X39656691Y-125565250D01*
X39085813Y-125564752D01*
X38558200Y-125782757D01*
X38154176Y-126186077D01*
X37935250Y-126713309D01*
X37934752Y-127284187D01*
X18490000Y-127284187D01*
X18490000Y-122390000D01*
X37922560Y-122390000D01*
X37922560Y-123990000D01*
X37966838Y-124225317D01*
X38105910Y-124441441D01*
X38318110Y-124586431D01*
X38570000Y-124637440D01*
X40170000Y-124637440D01*
X40405317Y-124593162D01*
X40522739Y-124517603D01*
X41100509Y-124938754D01*
X41245844Y-124998929D01*
X41537000Y-124792410D01*
X41537000Y-123563000D01*
X42283000Y-123563000D01*
X42283000Y-124792410D01*
X42574156Y-124998929D01*
X42719491Y-124938754D01*
X43180000Y-124603077D01*
X43640509Y-124938754D01*
X43785844Y-124998929D01*
X44077000Y-124792410D01*
X44077000Y-123563000D01*
X42283000Y-123563000D01*
X41537000Y-123563000D01*
X41517000Y-123563000D01*
X41517000Y-122817000D01*
X41537000Y-122817000D01*
X41537000Y-121587590D01*
X42283000Y-121587590D01*
X42283000Y-122817000D01*
X44077000Y-122817000D01*
X44077000Y-121587590D01*
X43785844Y-121381071D01*
X43640509Y-121441246D01*
X43180000Y-121776923D01*
X42719491Y-121441246D01*
X42574156Y-121381071D01*
X42283000Y-121587590D01*
X41537000Y-121587590D01*
X41245844Y-121381071D01*
X41100509Y-121441246D01*
X40522683Y-121862438D01*
X40421890Y-121793569D01*
X40170000Y-121742560D01*
X38570000Y-121742560D01*
X38334683Y-121786838D01*
X38118559Y-121925910D01*
X37973569Y-122138110D01*
X37922560Y-122390000D01*
X18490000Y-122390000D01*
X18490000Y-116234159D01*
X37561048Y-116234159D01*
X37952909Y-116875859D01*
X38560509Y-117318754D01*
X38705844Y-117378929D01*
X38997000Y-117172410D01*
X38997000Y-115943000D01*
X37761172Y-115943000D01*
X37561048Y-116234159D01*
X18490000Y-116234159D01*
X18490000Y-111672373D01*
X37407204Y-111672373D01*
X37523080Y-112430173D01*
X37590146Y-112592086D01*
X37945782Y-112656716D01*
X38842498Y-111760000D01*
X39897502Y-111760000D01*
X40794218Y-112656716D01*
X41149854Y-112592086D01*
X41332796Y-111847627D01*
X41216920Y-111089827D01*
X41149854Y-110927914D01*
X40794218Y-110863284D01*
X39897502Y-111760000D01*
X38842498Y-111760000D01*
X37945782Y-110863284D01*
X37590146Y-110927914D01*
X37407204Y-111672373D01*
X18490000Y-111672373D01*
X18490000Y-110335782D01*
X38473284Y-110335782D01*
X39370000Y-111232498D01*
X40266716Y-110335782D01*
X40202086Y-109980146D01*
X39457627Y-109797204D01*
X38699827Y-109913080D01*
X38537914Y-109980146D01*
X38473284Y-110335782D01*
X18490000Y-110335782D01*
X18490000Y-92710000D01*
X18684999Y-92710000D01*
X18685000Y-92710005D01*
X18685000Y-96519995D01*
X18684999Y-96520000D01*
X18809457Y-97145688D01*
X19163880Y-97676120D01*
X20433878Y-98946117D01*
X20433880Y-98946120D01*
X20751851Y-99158581D01*
X20964312Y-99300543D01*
X21225000Y-99352397D01*
X21225000Y-107950000D01*
X21349457Y-108575687D01*
X21703880Y-109106120D01*
X22234313Y-109460543D01*
X22860000Y-109585000D01*
X23485687Y-109460543D01*
X24016120Y-109106120D01*
X24370543Y-108575687D01*
X24495000Y-107950000D01*
X29016887Y-107950000D01*
X29126120Y-108499151D01*
X29437189Y-108964698D01*
X29902736Y-109275767D01*
X30451887Y-109385000D01*
X30508113Y-109385000D01*
X31057264Y-109275767D01*
X31522811Y-108964698D01*
X31833880Y-108499151D01*
X31943113Y-107950000D01*
X31833880Y-107400849D01*
X31522811Y-106935302D01*
X31057264Y-106624233D01*
X30508113Y-106515000D01*
X30451887Y-106515000D01*
X29902736Y-106624233D01*
X29437189Y-106935302D01*
X29126120Y-107400849D01*
X29016887Y-107950000D01*
X24495000Y-107950000D01*
X24495000Y-102870000D01*
X29016887Y-102870000D01*
X29126120Y-103419151D01*
X29437189Y-103884698D01*
X29902736Y-104195767D01*
X30451887Y-104305000D01*
X30508113Y-104305000D01*
X31057264Y-104195767D01*
X31522811Y-103884698D01*
X31833880Y-103419151D01*
X31943113Y-102870000D01*
X31833880Y-102320849D01*
X31666268Y-102070000D01*
X37922560Y-102070000D01*
X37922560Y-103670000D01*
X37966838Y-103905317D01*
X38105910Y-104121441D01*
X38318110Y-104266431D01*
X38570000Y-104317440D01*
X40170000Y-104317440D01*
X40405317Y-104273162D01*
X40522739Y-104197603D01*
X41100509Y-104618754D01*
X41245844Y-104678929D01*
X41537000Y-104472410D01*
X41537000Y-103243000D01*
X42283000Y-103243000D01*
X42283000Y-104472410D01*
X42574156Y-104678929D01*
X42719491Y-104618754D01*
X43180000Y-104283077D01*
X43640509Y-104618754D01*
X43785844Y-104678929D01*
X44077000Y-104472410D01*
X44077000Y-103243000D01*
X42283000Y-103243000D01*
X41537000Y-103243000D01*
X41517000Y-103243000D01*
X41517000Y-102497000D01*
X41537000Y-102497000D01*
X41537000Y-101267590D01*
X42283000Y-101267590D01*
X42283000Y-102497000D01*
X44077000Y-102497000D01*
X44077000Y-101267590D01*
X43785844Y-101061071D01*
X43640509Y-101121246D01*
X43180000Y-101456923D01*
X42719491Y-101121246D01*
X42574156Y-101061071D01*
X42283000Y-101267590D01*
X41537000Y-101267590D01*
X41245844Y-101061071D01*
X41100509Y-101121246D01*
X40522683Y-101542438D01*
X40421890Y-101473569D01*
X40170000Y-101422560D01*
X38570000Y-101422560D01*
X38334683Y-101466838D01*
X38118559Y-101605910D01*
X37973569Y-101818110D01*
X37922560Y-102070000D01*
X31666268Y-102070000D01*
X31522811Y-101855302D01*
X31057264Y-101544233D01*
X30508113Y-101435000D01*
X30451887Y-101435000D01*
X29902736Y-101544233D01*
X29437189Y-101855302D01*
X29126120Y-102320849D01*
X29016887Y-102870000D01*
X24495000Y-102870000D01*
X24495000Y-97790000D01*
X28896887Y-97790000D01*
X29006120Y-98339151D01*
X29317189Y-98804698D01*
X29782736Y-99115767D01*
X30331887Y-99225000D01*
X30388113Y-99225000D01*
X30937264Y-99115767D01*
X31402811Y-98804698D01*
X31713880Y-98339151D01*
X31823113Y-97790000D01*
X31713880Y-97240849D01*
X31402811Y-96775302D01*
X30937264Y-96464233D01*
X30388113Y-96355000D01*
X30331887Y-96355000D01*
X29782736Y-96464233D01*
X29317189Y-96775302D01*
X29006120Y-97240849D01*
X28896887Y-97790000D01*
X24495000Y-97790000D01*
X24370543Y-97164313D01*
X24016120Y-96633880D01*
X23485687Y-96279457D01*
X22860000Y-96155000D01*
X22267239Y-96155000D01*
X22026399Y-95914159D01*
X37561048Y-95914159D01*
X37952909Y-96555859D01*
X38560509Y-96998754D01*
X38705844Y-97058929D01*
X38997000Y-96852410D01*
X38997000Y-95623000D01*
X37761172Y-95623000D01*
X37561048Y-95914159D01*
X22026399Y-95914159D01*
X21955000Y-95842760D01*
X21955000Y-95050802D01*
X22067630Y-95163629D01*
X22580900Y-95376757D01*
X23136661Y-95377242D01*
X23650303Y-95165010D01*
X24043629Y-94772370D01*
X24129949Y-94564488D01*
X24214990Y-94770303D01*
X24607630Y-95163629D01*
X25120900Y-95376757D01*
X25676661Y-95377242D01*
X26190303Y-95165010D01*
X26583629Y-94772370D01*
X26669949Y-94564488D01*
X26754990Y-94770303D01*
X27147630Y-95163629D01*
X27660900Y-95376757D01*
X28216661Y-95377242D01*
X28730303Y-95165010D01*
X29123629Y-94772370D01*
X29209949Y-94564488D01*
X29294990Y-94770303D01*
X29687630Y-95163629D01*
X30200900Y-95376757D01*
X30756661Y-95377242D01*
X31270303Y-95165010D01*
X31663629Y-94772370D01*
X31876757Y-94259100D01*
X31877242Y-93703339D01*
X31811818Y-93545000D01*
X38500484Y-93545000D01*
X37952909Y-93944141D01*
X37561048Y-94585841D01*
X37761172Y-94877000D01*
X38997000Y-94877000D01*
X38997000Y-94857000D01*
X39743000Y-94857000D01*
X39743000Y-94877000D01*
X39763000Y-94877000D01*
X39763000Y-95623000D01*
X39743000Y-95623000D01*
X39743000Y-96852410D01*
X40034156Y-97058929D01*
X40179491Y-96998754D01*
X40787091Y-96555859D01*
X40932533Y-96317688D01*
X41360849Y-96603880D01*
X41910000Y-96713113D01*
X42459151Y-96603880D01*
X42924698Y-96292811D01*
X43180000Y-95910725D01*
X43435302Y-96292811D01*
X43615000Y-96412882D01*
X43615000Y-96450300D01*
X43678561Y-96769841D01*
X43816364Y-96976077D01*
X43859566Y-97040734D01*
X44815300Y-97996468D01*
X44815300Y-104140000D01*
X44823000Y-104178710D01*
X44823000Y-104472410D01*
X44945534Y-104559324D01*
X45059866Y-104730434D01*
X45975690Y-105646258D01*
X45947189Y-105665302D01*
X45636120Y-106130849D01*
X45526887Y-106680000D01*
X45636120Y-107229151D01*
X45947189Y-107694698D01*
X46155000Y-107833553D01*
X46155000Y-107880300D01*
X46218561Y-108199841D01*
X46399566Y-108470734D01*
X47355400Y-109426568D01*
X47355400Y-110415960D01*
X46898113Y-110325000D01*
X46841887Y-110325000D01*
X46292736Y-110434233D01*
X45827189Y-110745302D01*
X45516120Y-111210849D01*
X45444048Y-111573180D01*
X40804779Y-106933911D01*
X40805248Y-106395813D01*
X40587243Y-105868200D01*
X40183923Y-105464176D01*
X39656691Y-105245250D01*
X39085813Y-105244752D01*
X38558200Y-105462757D01*
X38154176Y-105866077D01*
X37935250Y-106393309D01*
X37934752Y-106964187D01*
X38152757Y-107491800D01*
X38556077Y-107895824D01*
X39083309Y-108114750D01*
X39624354Y-108115222D01*
X44885000Y-113375868D01*
X44885000Y-114193414D01*
X44450000Y-114106887D01*
X43900849Y-114216120D01*
X43435302Y-114527189D01*
X43180000Y-114909275D01*
X42924698Y-114527189D01*
X42459151Y-114216120D01*
X41910000Y-114106887D01*
X41360849Y-114216120D01*
X40932533Y-114502312D01*
X40787091Y-114264141D01*
X40179491Y-113821246D01*
X40034156Y-113761071D01*
X39743002Y-113967589D01*
X39743002Y-113652361D01*
X40040173Y-113606920D01*
X40202086Y-113539854D01*
X40266716Y-113184218D01*
X39370000Y-112287502D01*
X38473284Y-113184218D01*
X38537914Y-113539854D01*
X38996998Y-113652668D01*
X38996998Y-113967589D01*
X38705844Y-113761071D01*
X38560509Y-113821246D01*
X37952909Y-114264141D01*
X37561048Y-114905841D01*
X37761172Y-115197000D01*
X38997000Y-115197000D01*
X38997000Y-115177000D01*
X39743000Y-115177000D01*
X39743000Y-115197000D01*
X39763000Y-115197000D01*
X39763000Y-115943000D01*
X39743000Y-115943000D01*
X39743000Y-117172410D01*
X40034156Y-117378929D01*
X40179491Y-117318754D01*
X40787091Y-116875859D01*
X40932533Y-116637688D01*
X41360849Y-116923880D01*
X41910000Y-117033113D01*
X42459151Y-116923880D01*
X42924698Y-116612811D01*
X43180000Y-116230725D01*
X43435302Y-116612811D01*
X43900849Y-116923880D01*
X44450000Y-117033113D01*
X44885000Y-116946586D01*
X44885000Y-121543613D01*
X44823000Y-121587590D01*
X44823000Y-122817000D01*
X44843000Y-122817000D01*
X44843000Y-123563000D01*
X44823000Y-123563000D01*
X44823000Y-124792410D01*
X44885000Y-124836387D01*
X44885000Y-131802372D01*
X44726702Y-131736641D01*
X44175715Y-131736160D01*
X43666485Y-131946569D01*
X43276539Y-132335836D01*
X43180024Y-132568270D01*
X43084831Y-132337885D01*
X42695564Y-131947939D01*
X42186702Y-131736641D01*
X41635715Y-131736160D01*
X41126485Y-131946569D01*
X40736539Y-132335836D01*
X40640024Y-132568270D01*
X40544831Y-132337885D01*
X40155564Y-131947939D01*
X39646702Y-131736641D01*
X39095715Y-131736160D01*
X38586485Y-131946569D01*
X38196539Y-132335836D01*
X37985241Y-132844698D01*
X37984760Y-133395685D01*
X38195169Y-133904915D01*
X38584436Y-134294861D01*
X39093298Y-134506159D01*
X39644285Y-134506640D01*
X40153515Y-134296231D01*
X40543461Y-133906964D01*
X40639976Y-133674530D01*
X40735169Y-133904915D01*
X41124436Y-134294861D01*
X41633298Y-134506159D01*
X42184285Y-134506640D01*
X42693515Y-134296231D01*
X43083461Y-133906964D01*
X43179976Y-133674530D01*
X43275169Y-133904915D01*
X43664436Y-134294861D01*
X44173298Y-134506159D01*
X44724285Y-134506640D01*
X44885000Y-134440234D01*
X44885000Y-134537964D01*
X44546539Y-134875836D01*
X44450024Y-135108270D01*
X44354831Y-134877885D01*
X43965564Y-134487939D01*
X43456702Y-134276641D01*
X42905715Y-134276160D01*
X42396485Y-134486569D01*
X42006539Y-134875836D01*
X41910024Y-135108270D01*
X41814831Y-134877885D01*
X41425564Y-134487939D01*
X40916702Y-134276641D01*
X40365715Y-134276160D01*
X39856485Y-134486569D01*
X39466539Y-134875836D01*
X39370024Y-135108270D01*
X39274831Y-134877885D01*
X38885564Y-134487939D01*
X38376702Y-134276641D01*
X37825715Y-134276160D01*
X37316485Y-134486569D01*
X36926539Y-134875836D01*
X36715241Y-135384698D01*
X36714760Y-135935685D01*
X36925169Y-136444915D01*
X37314436Y-136834861D01*
X37823298Y-137046159D01*
X38374285Y-137046640D01*
X38883515Y-136836231D01*
X39273461Y-136446964D01*
X39369976Y-136214530D01*
X39465169Y-136444915D01*
X39854436Y-136834861D01*
X40363298Y-137046159D01*
X40914285Y-137046640D01*
X41423515Y-136836231D01*
X41813461Y-136446964D01*
X41909976Y-136214530D01*
X42005169Y-136444915D01*
X42394436Y-136834861D01*
X42903298Y-137046159D01*
X43454285Y-137046640D01*
X43963515Y-136836231D01*
X44353461Y-136446964D01*
X44449976Y-136214530D01*
X44545169Y-136444915D01*
X44934436Y-136834861D01*
X45443298Y-137046159D01*
X45994285Y-137046640D01*
X46503515Y-136836231D01*
X46893461Y-136446964D01*
X47104759Y-135938102D01*
X47104761Y-135935685D01*
X50684760Y-135935685D01*
X50895169Y-136444915D01*
X51284436Y-136834861D01*
X51793298Y-137046159D01*
X52344285Y-137046640D01*
X52853515Y-136836231D01*
X53243461Y-136446964D01*
X53339976Y-136214530D01*
X53435169Y-136444915D01*
X53824436Y-136834861D01*
X54333298Y-137046159D01*
X54884285Y-137046640D01*
X55393515Y-136836231D01*
X55783461Y-136446964D01*
X55879976Y-136214530D01*
X55975169Y-136444915D01*
X56364436Y-136834861D01*
X56873298Y-137046159D01*
X57424285Y-137046640D01*
X57933515Y-136836231D01*
X58323461Y-136446964D01*
X58419976Y-136214530D01*
X58515169Y-136444915D01*
X58904436Y-136834861D01*
X59413298Y-137046159D01*
X59964285Y-137046640D01*
X60473515Y-136836231D01*
X60863461Y-136446964D01*
X61074759Y-135938102D01*
X61075240Y-135387115D01*
X60864831Y-134877885D01*
X60525000Y-134537461D01*
X60525000Y-134518840D01*
X61710000Y-134518840D01*
X61945317Y-134474562D01*
X62161441Y-134335490D01*
X62306431Y-134123290D01*
X62357440Y-133871400D01*
X62357440Y-132371400D01*
X62313162Y-132136083D01*
X62181106Y-131930862D01*
X62337950Y-131774018D01*
X62578455Y-132356086D01*
X63094199Y-132872730D01*
X63768395Y-133152681D01*
X64498403Y-133153318D01*
X65173086Y-132874545D01*
X65689730Y-132358801D01*
X65969681Y-131684605D01*
X65970318Y-130954597D01*
X65691545Y-130279914D01*
X65175801Y-129763270D01*
X64501605Y-129483319D01*
X63771597Y-129482682D01*
X63096914Y-129761455D01*
X62995400Y-129862792D01*
X62995400Y-116234159D01*
X65501048Y-116234159D01*
X65892909Y-116875859D01*
X66500509Y-117318754D01*
X66645844Y-117378929D01*
X66937000Y-117172410D01*
X66937000Y-115943000D01*
X65701172Y-115943000D01*
X65501048Y-116234159D01*
X62995400Y-116234159D01*
X62995400Y-111672373D01*
X65347204Y-111672373D01*
X65463080Y-112430173D01*
X65530146Y-112592086D01*
X65885782Y-112656716D01*
X66782498Y-111760000D01*
X67837502Y-111760000D01*
X68734218Y-112656716D01*
X69089854Y-112592086D01*
X69272796Y-111847627D01*
X69156920Y-111089827D01*
X69089854Y-110927914D01*
X68734218Y-110863284D01*
X67837502Y-111760000D01*
X66782498Y-111760000D01*
X65885782Y-110863284D01*
X65530146Y-110927914D01*
X65347204Y-111672373D01*
X62995400Y-111672373D01*
X62995400Y-110335782D01*
X66413284Y-110335782D01*
X67310000Y-111232498D01*
X68206716Y-110335782D01*
X68142086Y-109980146D01*
X67397627Y-109797204D01*
X66639827Y-109913080D01*
X66477914Y-109980146D01*
X66413284Y-110335782D01*
X62995400Y-110335782D01*
X62995400Y-109080700D01*
X62931839Y-108761159D01*
X62750834Y-108490266D01*
X61974310Y-107713742D01*
X62002811Y-107694698D01*
X62313880Y-107229151D01*
X62423113Y-106680000D01*
X62313880Y-106130849D01*
X62002811Y-105665302D01*
X61537264Y-105354233D01*
X60988113Y-105245000D01*
X60931887Y-105245000D01*
X60382736Y-105354233D01*
X59917189Y-105665302D01*
X59606120Y-106130849D01*
X59496887Y-106680000D01*
X59606120Y-107229151D01*
X59917189Y-107694698D01*
X60125000Y-107833553D01*
X60125000Y-107880300D01*
X60188561Y-108199841D01*
X60369566Y-108470734D01*
X61325400Y-109426568D01*
X61325400Y-110415960D01*
X60868113Y-110325000D01*
X60811887Y-110325000D01*
X60262736Y-110434233D01*
X59797189Y-110745302D01*
X59486120Y-111210849D01*
X59376887Y-111760000D01*
X59486120Y-112309151D01*
X59797189Y-112774698D01*
X60262736Y-113085767D01*
X60811887Y-113195000D01*
X60868113Y-113195000D01*
X61325400Y-113104040D01*
X61325400Y-114179570D01*
X60960000Y-114106887D01*
X60410849Y-114216120D01*
X59945302Y-114527189D01*
X59690000Y-114909275D01*
X59434698Y-114527189D01*
X58969151Y-114216120D01*
X58420000Y-114106887D01*
X57925000Y-114205349D01*
X57925000Y-110430000D01*
X57861439Y-110110459D01*
X57680434Y-109839566D01*
X54774779Y-106933911D01*
X54775248Y-106395813D01*
X54557243Y-105868200D01*
X54153923Y-105464176D01*
X53626691Y-105245250D01*
X53055813Y-105244752D01*
X52528200Y-105462757D01*
X52124176Y-105866077D01*
X51905250Y-106393309D01*
X51904752Y-106964187D01*
X52122757Y-107491800D01*
X52526077Y-107895824D01*
X53053309Y-108114750D01*
X53594354Y-108115222D01*
X56255000Y-110775868D01*
X56255000Y-114181479D01*
X55880000Y-114106887D01*
X55330849Y-114216120D01*
X54902533Y-114502312D01*
X54757091Y-114264141D01*
X54149491Y-113821246D01*
X54004156Y-113761071D01*
X53713002Y-113967589D01*
X53713002Y-113652361D01*
X54010173Y-113606920D01*
X54172086Y-113539854D01*
X54236716Y-113184218D01*
X53340000Y-112287502D01*
X52443284Y-113184218D01*
X52507914Y-113539854D01*
X52966998Y-113652668D01*
X52966998Y-113967589D01*
X52675844Y-113761071D01*
X52530509Y-113821246D01*
X51922909Y-114264141D01*
X51531048Y-114905841D01*
X51731172Y-115197000D01*
X52967000Y-115197000D01*
X52967000Y-115177000D01*
X53713000Y-115177000D01*
X53713000Y-115197000D01*
X53733000Y-115197000D01*
X53733000Y-115943000D01*
X53713000Y-115943000D01*
X53713000Y-117172410D01*
X54004156Y-117378929D01*
X54149491Y-117318754D01*
X54153870Y-117315562D01*
X54089266Y-117380166D01*
X53908261Y-117651059D01*
X53844700Y-117970600D01*
X53844700Y-121742560D01*
X52540000Y-121742560D01*
X52304683Y-121786838D01*
X52088559Y-121925910D01*
X51943569Y-122138110D01*
X51892560Y-122390000D01*
X51892560Y-123990000D01*
X51936838Y-124225317D01*
X52075910Y-124441441D01*
X52288110Y-124586431D01*
X52540000Y-124637440D01*
X53844700Y-124637440D01*
X53844700Y-125314432D01*
X53593911Y-125565221D01*
X53055813Y-125564752D01*
X52528200Y-125782757D01*
X52124176Y-126186077D01*
X51905250Y-126713309D01*
X51904752Y-127284187D01*
X52122757Y-127811800D01*
X52526077Y-128215824D01*
X53053309Y-128434750D01*
X53624187Y-128435248D01*
X54151800Y-128217243D01*
X54555824Y-127813923D01*
X54774750Y-127286691D01*
X54775222Y-126745646D01*
X55270134Y-126250734D01*
X55451139Y-125979841D01*
X55514700Y-125660300D01*
X55514700Y-118316468D01*
X56255000Y-117576168D01*
X56255000Y-121586171D01*
X56253000Y-121587590D01*
X56253000Y-122817000D01*
X56255000Y-122817000D01*
X56255000Y-123563000D01*
X56253000Y-123563000D01*
X56253000Y-124792410D01*
X56255000Y-124793829D01*
X56255000Y-129059700D01*
X56318561Y-129379241D01*
X56388104Y-129483319D01*
X56499566Y-129650134D01*
X58585976Y-131736544D01*
X58145715Y-131736160D01*
X57636485Y-131946569D01*
X57246539Y-132335836D01*
X57150024Y-132568270D01*
X57054831Y-132337885D01*
X56665564Y-131947939D01*
X56156702Y-131736641D01*
X55605715Y-131736160D01*
X55096485Y-131946569D01*
X54706539Y-132335836D01*
X54610024Y-132568270D01*
X54514831Y-132337885D01*
X54125564Y-131947939D01*
X53616702Y-131736641D01*
X53065715Y-131736160D01*
X52556485Y-131946569D01*
X52166539Y-132335836D01*
X51955241Y-132844698D01*
X51954760Y-133395685D01*
X52165169Y-133904915D01*
X52554436Y-134294861D01*
X53063298Y-134506159D01*
X53614285Y-134506640D01*
X54123515Y-134296231D01*
X54513461Y-133906964D01*
X54609976Y-133674530D01*
X54705169Y-133904915D01*
X55094436Y-134294861D01*
X55603298Y-134506159D01*
X56154285Y-134506640D01*
X56663515Y-134296231D01*
X57053461Y-133906964D01*
X57149976Y-133674530D01*
X57245169Y-133904915D01*
X57634436Y-134294861D01*
X58143298Y-134506159D01*
X58694285Y-134506640D01*
X58855000Y-134440234D01*
X58855000Y-134537964D01*
X58516539Y-134875836D01*
X58420024Y-135108270D01*
X58324831Y-134877885D01*
X57935564Y-134487939D01*
X57426702Y-134276641D01*
X56875715Y-134276160D01*
X56366485Y-134486569D01*
X55976539Y-134875836D01*
X55880024Y-135108270D01*
X55784831Y-134877885D01*
X55395564Y-134487939D01*
X54886702Y-134276641D01*
X54335715Y-134276160D01*
X53826485Y-134486569D01*
X53436539Y-134875836D01*
X53340024Y-135108270D01*
X53244831Y-134877885D01*
X52855564Y-134487939D01*
X52346702Y-134276641D01*
X51795715Y-134276160D01*
X51286485Y-134486569D01*
X50896539Y-134875836D01*
X50685241Y-135384698D01*
X50684760Y-135935685D01*
X47104761Y-135935685D01*
X47105240Y-135387115D01*
X46894831Y-134877885D01*
X46555000Y-134537461D01*
X46555000Y-134518840D01*
X47740000Y-134518840D01*
X47975317Y-134474562D01*
X48191441Y-134335490D01*
X48336431Y-134123290D01*
X48387440Y-133871400D01*
X48387440Y-132371400D01*
X48343162Y-132136083D01*
X48211106Y-131930862D01*
X48367950Y-131774018D01*
X48608455Y-132356086D01*
X49124199Y-132872730D01*
X49798395Y-133152681D01*
X50528403Y-133153318D01*
X51203086Y-132874545D01*
X51719730Y-132358801D01*
X51999681Y-131684605D01*
X52000318Y-130954597D01*
X51721545Y-130279914D01*
X51205801Y-129763270D01*
X50531605Y-129483319D01*
X49801597Y-129482682D01*
X49126914Y-129761455D01*
X49025400Y-129862792D01*
X49025400Y-116234159D01*
X51531048Y-116234159D01*
X51922909Y-116875859D01*
X52530509Y-117318754D01*
X52675844Y-117378929D01*
X52967000Y-117172410D01*
X52967000Y-115943000D01*
X51731172Y-115943000D01*
X51531048Y-116234159D01*
X49025400Y-116234159D01*
X49025400Y-111672373D01*
X51377204Y-111672373D01*
X51493080Y-112430173D01*
X51560146Y-112592086D01*
X51915782Y-112656716D01*
X52812498Y-111760000D01*
X53867502Y-111760000D01*
X54764218Y-112656716D01*
X55119854Y-112592086D01*
X55302796Y-111847627D01*
X55186920Y-111089827D01*
X55119854Y-110927914D01*
X54764218Y-110863284D01*
X53867502Y-111760000D01*
X52812498Y-111760000D01*
X51915782Y-110863284D01*
X51560146Y-110927914D01*
X51377204Y-111672373D01*
X49025400Y-111672373D01*
X49025400Y-110335782D01*
X52443284Y-110335782D01*
X53340000Y-111232498D01*
X54236716Y-110335782D01*
X54172086Y-109980146D01*
X53427627Y-109797204D01*
X52669827Y-109913080D01*
X52507914Y-109980146D01*
X52443284Y-110335782D01*
X49025400Y-110335782D01*
X49025400Y-109080700D01*
X48961839Y-108761159D01*
X48780834Y-108490266D01*
X48004310Y-107713742D01*
X48032811Y-107694698D01*
X48343880Y-107229151D01*
X48453113Y-106680000D01*
X48343880Y-106130849D01*
X48032811Y-105665302D01*
X47825000Y-105526447D01*
X47825000Y-105479700D01*
X47761439Y-105160159D01*
X47580434Y-104889266D01*
X47018593Y-104327425D01*
X47539151Y-104223880D01*
X48004698Y-103912811D01*
X48315767Y-103447264D01*
X48425000Y-102898113D01*
X48425000Y-102841887D01*
X48315767Y-102292736D01*
X48004698Y-101827189D01*
X47539151Y-101516120D01*
X46990000Y-101406887D01*
X46485300Y-101507278D01*
X46485300Y-97650600D01*
X46456002Y-97503309D01*
X46421740Y-97331060D01*
X46240734Y-97060166D01*
X45468175Y-96287607D01*
X45720000Y-95910725D01*
X45975302Y-96292811D01*
X46440849Y-96603880D01*
X46990000Y-96713113D01*
X47539151Y-96603880D01*
X48004698Y-96292811D01*
X48315767Y-95827264D01*
X48425000Y-95278113D01*
X48425000Y-95221887D01*
X48321006Y-94699074D01*
X54611966Y-100990034D01*
X54882859Y-101171039D01*
X54976614Y-101189688D01*
X54492683Y-101542438D01*
X54391890Y-101473569D01*
X54140000Y-101422560D01*
X52540000Y-101422560D01*
X52304683Y-101466838D01*
X52088559Y-101605910D01*
X51943569Y-101818110D01*
X51892560Y-102070000D01*
X51892560Y-103670000D01*
X51936838Y-103905317D01*
X52075910Y-104121441D01*
X52288110Y-104266431D01*
X52540000Y-104317440D01*
X54140000Y-104317440D01*
X54375317Y-104273162D01*
X54492739Y-104197603D01*
X55070509Y-104618754D01*
X55215844Y-104678929D01*
X55507000Y-104472410D01*
X55507000Y-103243000D01*
X56253000Y-103243000D01*
X56253000Y-104472410D01*
X56544156Y-104678929D01*
X56689491Y-104618754D01*
X57150000Y-104283077D01*
X57610509Y-104618754D01*
X57755844Y-104678929D01*
X58047000Y-104472410D01*
X58047000Y-103243000D01*
X56253000Y-103243000D01*
X55507000Y-103243000D01*
X55487000Y-103243000D01*
X55487000Y-102497000D01*
X55507000Y-102497000D01*
X55507000Y-102477000D01*
X56253000Y-102477000D01*
X56253000Y-102497000D01*
X58047000Y-102497000D01*
X58047000Y-102477000D01*
X58793000Y-102477000D01*
X58793000Y-102497000D01*
X58813000Y-102497000D01*
X58813000Y-103243000D01*
X58793000Y-103243000D01*
X58793000Y-104472410D01*
X59084156Y-104678929D01*
X59229491Y-104618754D01*
X59837091Y-104175859D01*
X59982533Y-103937688D01*
X60410849Y-104223880D01*
X60960000Y-104333113D01*
X61509151Y-104223880D01*
X61974698Y-103912811D01*
X62285767Y-103447264D01*
X62395000Y-102898113D01*
X62395000Y-102841887D01*
X62286874Y-102298300D01*
X63204632Y-102298300D01*
X66433588Y-105527256D01*
X66094176Y-105866077D01*
X65875250Y-106393309D01*
X65874752Y-106964187D01*
X66092757Y-107491800D01*
X66496077Y-107895824D01*
X67023309Y-108114750D01*
X67564354Y-108115222D01*
X72825000Y-113375868D01*
X72825000Y-114193414D01*
X72390000Y-114106887D01*
X71840849Y-114216120D01*
X71375302Y-114527189D01*
X71120000Y-114909275D01*
X70864698Y-114527189D01*
X70399151Y-114216120D01*
X69850000Y-114106887D01*
X69300849Y-114216120D01*
X68872533Y-114502312D01*
X68727091Y-114264141D01*
X68119491Y-113821246D01*
X67974156Y-113761071D01*
X67683002Y-113967589D01*
X67683002Y-113652361D01*
X67980173Y-113606920D01*
X68142086Y-113539854D01*
X68206716Y-113184218D01*
X67310000Y-112287502D01*
X66413284Y-113184218D01*
X66477914Y-113539854D01*
X66936998Y-113652668D01*
X66936998Y-113967589D01*
X66645844Y-113761071D01*
X66500509Y-113821246D01*
X65892909Y-114264141D01*
X65501048Y-114905841D01*
X65701172Y-115197000D01*
X66937000Y-115197000D01*
X66937000Y-115177000D01*
X67683000Y-115177000D01*
X67683000Y-115197000D01*
X67703000Y-115197000D01*
X67703000Y-115943000D01*
X67683000Y-115943000D01*
X67683000Y-117172410D01*
X67974156Y-117378929D01*
X68119491Y-117318754D01*
X68123870Y-117315562D01*
X68059266Y-117380166D01*
X67878261Y-117651059D01*
X67814700Y-117970600D01*
X67814700Y-121742560D01*
X66510000Y-121742560D01*
X66274683Y-121786838D01*
X66058559Y-121925910D01*
X65913569Y-122138110D01*
X65862560Y-122390000D01*
X65862560Y-123990000D01*
X65906838Y-124225317D01*
X66045910Y-124441441D01*
X66258110Y-124586431D01*
X66510000Y-124637440D01*
X67814700Y-124637440D01*
X67814700Y-125314432D01*
X67563911Y-125565221D01*
X67025813Y-125564752D01*
X66498200Y-125782757D01*
X66094176Y-126186077D01*
X65875250Y-126713309D01*
X65874752Y-127284187D01*
X66092757Y-127811800D01*
X66496077Y-128215824D01*
X67023309Y-128434750D01*
X67564354Y-128435222D01*
X67665600Y-128536468D01*
X67665600Y-131769402D01*
X67586702Y-131736641D01*
X67035715Y-131736160D01*
X66526485Y-131946569D01*
X66136539Y-132335836D01*
X65925241Y-132844698D01*
X65924760Y-133395685D01*
X66135169Y-133904915D01*
X66524436Y-134294861D01*
X66956332Y-134474200D01*
X66884028Y-134546504D01*
X66825564Y-134487939D01*
X66316702Y-134276641D01*
X65765715Y-134276160D01*
X65256485Y-134486569D01*
X64866539Y-134875836D01*
X64655241Y-135384698D01*
X64654760Y-135935685D01*
X64865169Y-136444915D01*
X65254436Y-136834861D01*
X65763298Y-137046159D01*
X66314285Y-137046640D01*
X66475000Y-136980234D01*
X66475000Y-138576564D01*
X66136539Y-138914436D01*
X65925241Y-139423298D01*
X65924760Y-139974285D01*
X66135169Y-140483515D01*
X66493589Y-140842560D01*
X65290000Y-140842560D01*
X65054683Y-140886838D01*
X64838559Y-141025910D01*
X64693569Y-141238110D01*
X64642560Y-141490000D01*
X64642560Y-142990000D01*
X64686838Y-143225317D01*
X64825910Y-143441441D01*
X65038110Y-143586431D01*
X65290000Y-143637440D01*
X66790000Y-143637440D01*
X67025317Y-143593162D01*
X67241441Y-143454090D01*
X67386431Y-143241890D01*
X67426355Y-143044738D01*
X67794436Y-143413461D01*
X68303298Y-143624759D01*
X68854285Y-143625240D01*
X69363515Y-143414831D01*
X69753461Y-143025564D01*
X69849976Y-142793130D01*
X69945169Y-143023515D01*
X70334436Y-143413461D01*
X70843298Y-143624759D01*
X71394285Y-143625240D01*
X71903515Y-143414831D01*
X72293461Y-143025564D01*
X72389976Y-142793130D01*
X72485169Y-143023515D01*
X72874436Y-143413461D01*
X73383298Y-143624759D01*
X73934285Y-143625240D01*
X74443515Y-143414831D01*
X74833461Y-143025564D01*
X75044759Y-142516702D01*
X75045240Y-141965715D01*
X74848680Y-141490000D01*
X78612560Y-141490000D01*
X78612560Y-142990000D01*
X78656838Y-143225317D01*
X78795910Y-143441441D01*
X79008110Y-143586431D01*
X79260000Y-143637440D01*
X80760000Y-143637440D01*
X80995317Y-143593162D01*
X81211441Y-143454090D01*
X81356431Y-143241890D01*
X81396355Y-143044738D01*
X81764436Y-143413461D01*
X82273298Y-143624759D01*
X82824285Y-143625240D01*
X83333515Y-143414831D01*
X83723461Y-143025564D01*
X83819976Y-142793130D01*
X83915169Y-143023515D01*
X84304436Y-143413461D01*
X84813298Y-143624759D01*
X85364285Y-143625240D01*
X85873515Y-143414831D01*
X86263461Y-143025564D01*
X86359976Y-142793130D01*
X86455169Y-143023515D01*
X86844436Y-143413461D01*
X87353298Y-143624759D01*
X87904285Y-143625240D01*
X88413515Y-143414831D01*
X88742916Y-143086003D01*
X90468282Y-143086003D01*
X90747055Y-143760686D01*
X91262799Y-144277330D01*
X91936995Y-144557281D01*
X92667003Y-144557918D01*
X93341686Y-144279145D01*
X93858330Y-143763401D01*
X94138281Y-143089205D01*
X94138918Y-142359197D01*
X93860145Y-141684514D01*
X93344401Y-141167870D01*
X92670205Y-140887919D01*
X91940197Y-140887282D01*
X91265514Y-141166055D01*
X90748870Y-141681799D01*
X90468919Y-142355995D01*
X90468282Y-143086003D01*
X88742916Y-143086003D01*
X88803461Y-143025564D01*
X89014759Y-142516702D01*
X89015240Y-141965715D01*
X88804831Y-141456485D01*
X88415564Y-141066539D01*
X87906702Y-140855241D01*
X87355715Y-140854760D01*
X86846485Y-141065169D01*
X86456539Y-141454436D01*
X86360024Y-141686870D01*
X86264831Y-141456485D01*
X85875564Y-141066539D01*
X85366702Y-140855241D01*
X84815715Y-140854760D01*
X84306485Y-141065169D01*
X83916539Y-141454436D01*
X83820024Y-141686870D01*
X83724831Y-141456485D01*
X83335564Y-141066539D01*
X82826702Y-140855241D01*
X82275715Y-140854760D01*
X81766485Y-141065169D01*
X81396920Y-141434091D01*
X81363162Y-141254683D01*
X81253960Y-141084978D01*
X81554285Y-141085240D01*
X82063515Y-140874831D01*
X82453461Y-140485564D01*
X82549976Y-140253130D01*
X82645169Y-140483515D01*
X83034436Y-140873461D01*
X83543298Y-141084759D01*
X84094285Y-141085240D01*
X84603515Y-140874831D01*
X84993461Y-140485564D01*
X85089976Y-140253130D01*
X85185169Y-140483515D01*
X85574436Y-140873461D01*
X86083298Y-141084759D01*
X86634285Y-141085240D01*
X87143515Y-140874831D01*
X87533461Y-140485564D01*
X87629976Y-140253130D01*
X87725169Y-140483515D01*
X88114436Y-140873461D01*
X88623298Y-141084759D01*
X89174285Y-141085240D01*
X89683515Y-140874831D01*
X90073461Y-140485564D01*
X90284759Y-139976702D01*
X90285240Y-139425715D01*
X90074831Y-138916485D01*
X89685564Y-138526539D01*
X89176702Y-138315241D01*
X88625715Y-138314760D01*
X88116485Y-138525169D01*
X87726539Y-138914436D01*
X87630024Y-139146870D01*
X87534831Y-138916485D01*
X87145564Y-138526539D01*
X86636702Y-138315241D01*
X86085715Y-138314760D01*
X85576485Y-138525169D01*
X85186539Y-138914436D01*
X85090024Y-139146870D01*
X84994831Y-138916485D01*
X84605564Y-138526539D01*
X84096702Y-138315241D01*
X83545715Y-138314760D01*
X83036485Y-138525169D01*
X82646539Y-138914436D01*
X82550024Y-139146870D01*
X82454831Y-138916485D01*
X82065564Y-138526539D01*
X81556702Y-138315241D01*
X81005715Y-138314760D01*
X80496485Y-138525169D01*
X80106539Y-138914436D01*
X79895241Y-139423298D01*
X79894760Y-139974285D01*
X80105169Y-140483515D01*
X80463589Y-140842560D01*
X79260000Y-140842560D01*
X79024683Y-140886838D01*
X78808559Y-141025910D01*
X78663569Y-141238110D01*
X78612560Y-141490000D01*
X74848680Y-141490000D01*
X74834831Y-141456485D01*
X74445564Y-141066539D01*
X73936702Y-140855241D01*
X73385715Y-140854760D01*
X72876485Y-141065169D01*
X72486539Y-141454436D01*
X72390024Y-141686870D01*
X72294831Y-141456485D01*
X71905564Y-141066539D01*
X71396702Y-140855241D01*
X70845715Y-140854760D01*
X70336485Y-141065169D01*
X69946539Y-141454436D01*
X69850024Y-141686870D01*
X69754831Y-141456485D01*
X69365564Y-141066539D01*
X68856702Y-140855241D01*
X68305715Y-140854760D01*
X67796485Y-141065169D01*
X67426920Y-141434091D01*
X67393162Y-141254683D01*
X67283960Y-141084978D01*
X67584285Y-141085240D01*
X68093515Y-140874831D01*
X68483461Y-140485564D01*
X68579976Y-140253130D01*
X68675169Y-140483515D01*
X69064436Y-140873461D01*
X69573298Y-141084759D01*
X70124285Y-141085240D01*
X70633515Y-140874831D01*
X71023461Y-140485564D01*
X71119976Y-140253130D01*
X71215169Y-140483515D01*
X71604436Y-140873461D01*
X72113298Y-141084759D01*
X72664285Y-141085240D01*
X73173515Y-140874831D01*
X73563461Y-140485564D01*
X73659976Y-140253130D01*
X73755169Y-140483515D01*
X74144436Y-140873461D01*
X74653298Y-141084759D01*
X75204285Y-141085240D01*
X75713515Y-140874831D01*
X76103461Y-140485564D01*
X76314759Y-139976702D01*
X76315240Y-139425715D01*
X76104831Y-138916485D01*
X75715564Y-138526539D01*
X75206702Y-138315241D01*
X74655715Y-138314760D01*
X74146485Y-138525169D01*
X73756539Y-138914436D01*
X73660024Y-139146870D01*
X73564831Y-138916485D01*
X73175564Y-138526539D01*
X72666702Y-138315241D01*
X72115715Y-138314760D01*
X71606485Y-138525169D01*
X71216539Y-138914436D01*
X71120024Y-139146870D01*
X71024831Y-138916485D01*
X70635564Y-138526539D01*
X70126702Y-138315241D01*
X69575715Y-138314760D01*
X69066485Y-138525169D01*
X68676539Y-138914436D01*
X68580024Y-139146870D01*
X68484831Y-138916485D01*
X68145000Y-138576061D01*
X68145000Y-137574203D01*
X91128682Y-137574203D01*
X91407455Y-138248886D01*
X91923199Y-138765530D01*
X92597395Y-139045481D01*
X93327403Y-139046118D01*
X94002086Y-138767345D01*
X94518730Y-138251601D01*
X94798681Y-137577405D01*
X94799318Y-136847397D01*
X94520545Y-136172714D01*
X94004801Y-135656070D01*
X93330605Y-135376119D01*
X92600597Y-135375482D01*
X91925914Y-135654255D01*
X91409270Y-136169999D01*
X91129319Y-136844195D01*
X91128682Y-137574203D01*
X68145000Y-137574203D01*
X68145000Y-136980428D01*
X68303298Y-137046159D01*
X68854285Y-137046640D01*
X69363515Y-136836231D01*
X69753461Y-136446964D01*
X69849976Y-136214530D01*
X69945169Y-136444915D01*
X70334436Y-136834861D01*
X70843298Y-137046159D01*
X71394285Y-137046640D01*
X71903515Y-136836231D01*
X72293461Y-136446964D01*
X72389976Y-136214530D01*
X72485169Y-136444915D01*
X72874436Y-136834861D01*
X73383298Y-137046159D01*
X73934285Y-137046640D01*
X74443515Y-136836231D01*
X74833461Y-136446964D01*
X75044759Y-135938102D01*
X75045240Y-135387115D01*
X74834831Y-134877885D01*
X74495000Y-134537461D01*
X74495000Y-134518840D01*
X75680000Y-134518840D01*
X75915317Y-134474562D01*
X76131441Y-134335490D01*
X76276431Y-134123290D01*
X76327440Y-133871400D01*
X76327440Y-132371400D01*
X76283162Y-132136083D01*
X76144090Y-131919959D01*
X75931890Y-131774969D01*
X75680000Y-131723960D01*
X74495000Y-131723960D01*
X74495000Y-131681403D01*
X76269682Y-131681403D01*
X76548455Y-132356086D01*
X77064199Y-132872730D01*
X77738395Y-133152681D01*
X78468403Y-133153318D01*
X79143086Y-132874545D01*
X79659730Y-132358801D01*
X79939681Y-131684605D01*
X79940318Y-130954597D01*
X79661545Y-130279914D01*
X79145801Y-129763270D01*
X78471605Y-129483319D01*
X77741597Y-129482682D01*
X77066914Y-129761455D01*
X76550270Y-130277199D01*
X76270319Y-130951395D01*
X76269682Y-131681403D01*
X74495000Y-131681403D01*
X74495000Y-128354065D01*
X74901887Y-128435000D01*
X74958113Y-128435000D01*
X75507264Y-128325767D01*
X75972811Y-128014698D01*
X76283880Y-127549151D01*
X76336584Y-127284187D01*
X79844752Y-127284187D01*
X80062757Y-127811800D01*
X80466077Y-128215824D01*
X80993309Y-128434750D01*
X81564187Y-128435248D01*
X82091800Y-128217243D01*
X82495824Y-127813923D01*
X82714750Y-127286691D01*
X82715248Y-126715813D01*
X82497243Y-126188200D01*
X82093923Y-125784176D01*
X81566691Y-125565250D01*
X80995813Y-125564752D01*
X80468200Y-125782757D01*
X80064176Y-126186077D01*
X79845250Y-126713309D01*
X79844752Y-127284187D01*
X76336584Y-127284187D01*
X76393113Y-127000000D01*
X76283880Y-126450849D01*
X75972811Y-125985302D01*
X75944310Y-125966258D01*
X76720834Y-125189734D01*
X76813911Y-125050434D01*
X76901839Y-124918841D01*
X76965400Y-124599300D01*
X76965400Y-122390000D01*
X79832560Y-122390000D01*
X79832560Y-123990000D01*
X79876838Y-124225317D01*
X80015910Y-124441441D01*
X80228110Y-124586431D01*
X80480000Y-124637440D01*
X82080000Y-124637440D01*
X82315317Y-124593162D01*
X82432739Y-124517603D01*
X83010509Y-124938754D01*
X83155844Y-124998929D01*
X83447000Y-124792410D01*
X83447000Y-123563000D01*
X84193000Y-123563000D01*
X84193000Y-124792410D01*
X84484156Y-124998929D01*
X84629491Y-124938754D01*
X85090000Y-124603077D01*
X85550509Y-124938754D01*
X85695844Y-124998929D01*
X85987000Y-124792410D01*
X85987000Y-123563000D01*
X84193000Y-123563000D01*
X83447000Y-123563000D01*
X83427000Y-123563000D01*
X83427000Y-122817000D01*
X83447000Y-122817000D01*
X83447000Y-121587590D01*
X83155844Y-121381071D01*
X83010509Y-121441246D01*
X82432683Y-121862438D01*
X82331890Y-121793569D01*
X82080000Y-121742560D01*
X80480000Y-121742560D01*
X80244683Y-121786838D01*
X80028559Y-121925910D01*
X79883569Y-122138110D01*
X79832560Y-122390000D01*
X76965400Y-122390000D01*
X76965400Y-122218100D01*
X76909796Y-121938559D01*
X76901840Y-121898560D01*
X76720835Y-121627666D01*
X75392236Y-120299068D01*
X75274607Y-120181234D01*
X74967821Y-120053845D01*
X74635637Y-120053555D01*
X74495000Y-120111665D01*
X74495000Y-116946586D01*
X74930000Y-117033113D01*
X75479151Y-116923880D01*
X75944698Y-116612811D01*
X76255767Y-116147264D01*
X76365000Y-115598113D01*
X76365000Y-115541887D01*
X76255767Y-114992736D01*
X75944698Y-114527189D01*
X75479151Y-114216120D01*
X74930000Y-114106887D01*
X74495000Y-114193414D01*
X74495000Y-113137935D01*
X74781887Y-113195000D01*
X74838113Y-113195000D01*
X75387264Y-113085767D01*
X75852811Y-112774698D01*
X76050647Y-112478615D01*
X78980400Y-115408368D01*
X78980400Y-115858200D01*
X79043961Y-116177741D01*
X79224966Y-116448634D01*
X84292995Y-121516663D01*
X84193000Y-121587590D01*
X84193000Y-122817000D01*
X85987000Y-122817000D01*
X85987000Y-122797000D01*
X86498832Y-122797000D01*
X86753000Y-123051168D01*
X86753000Y-123563000D01*
X86733000Y-123563000D01*
X86733000Y-124792410D01*
X87024156Y-124998929D01*
X87169491Y-124938754D01*
X87777091Y-124495859D01*
X87922533Y-124257688D01*
X88350849Y-124543880D01*
X88373706Y-124548426D01*
X87039566Y-125882566D01*
X86858561Y-126153459D01*
X86795000Y-126473000D01*
X86795000Y-131802372D01*
X86636702Y-131736641D01*
X86085715Y-131736160D01*
X85576485Y-131946569D01*
X85186539Y-132335836D01*
X85090024Y-132568270D01*
X84994831Y-132337885D01*
X84605564Y-131947939D01*
X84096702Y-131736641D01*
X83545715Y-131736160D01*
X83036485Y-131946569D01*
X82646539Y-132335836D01*
X82550024Y-132568270D01*
X82454831Y-132337885D01*
X82065564Y-131947939D01*
X81556702Y-131736641D01*
X81005715Y-131736160D01*
X80496485Y-131946569D01*
X80106539Y-132335836D01*
X79895241Y-132844698D01*
X79894760Y-133395685D01*
X80105169Y-133904915D01*
X80494436Y-134294861D01*
X81003298Y-134506159D01*
X81554285Y-134506640D01*
X82063515Y-134296231D01*
X82453461Y-133906964D01*
X82549976Y-133674530D01*
X82645169Y-133904915D01*
X83034436Y-134294861D01*
X83543298Y-134506159D01*
X84094285Y-134506640D01*
X84603515Y-134296231D01*
X84993461Y-133906964D01*
X85089976Y-133674530D01*
X85185169Y-133904915D01*
X85574436Y-134294861D01*
X86083298Y-134506159D01*
X86634285Y-134506640D01*
X86795000Y-134440234D01*
X86795000Y-134537964D01*
X86456539Y-134875836D01*
X86360024Y-135108270D01*
X86264831Y-134877885D01*
X85875564Y-134487939D01*
X85366702Y-134276641D01*
X84815715Y-134276160D01*
X84306485Y-134486569D01*
X83916539Y-134875836D01*
X83820024Y-135108270D01*
X83724831Y-134877885D01*
X83335564Y-134487939D01*
X82826702Y-134276641D01*
X82275715Y-134276160D01*
X81766485Y-134486569D01*
X81376539Y-134875836D01*
X81280024Y-135108270D01*
X81184831Y-134877885D01*
X80795564Y-134487939D01*
X80286702Y-134276641D01*
X79735715Y-134276160D01*
X79226485Y-134486569D01*
X78836539Y-134875836D01*
X78625241Y-135384698D01*
X78624760Y-135935685D01*
X78835169Y-136444915D01*
X79224436Y-136834861D01*
X79733298Y-137046159D01*
X80284285Y-137046640D01*
X80793515Y-136836231D01*
X81183461Y-136446964D01*
X81279976Y-136214530D01*
X81375169Y-136444915D01*
X81764436Y-136834861D01*
X82273298Y-137046159D01*
X82824285Y-137046640D01*
X83333515Y-136836231D01*
X83723461Y-136446964D01*
X83819976Y-136214530D01*
X83915169Y-136444915D01*
X84304436Y-136834861D01*
X84813298Y-137046159D01*
X85364285Y-137046640D01*
X85873515Y-136836231D01*
X86263461Y-136446964D01*
X86359976Y-136214530D01*
X86455169Y-136444915D01*
X86844436Y-136834861D01*
X87353298Y-137046159D01*
X87904285Y-137046640D01*
X88413515Y-136836231D01*
X88803461Y-136446964D01*
X89014759Y-135938102D01*
X89015240Y-135387115D01*
X88804831Y-134877885D01*
X88465000Y-134537461D01*
X88465000Y-134518840D01*
X89650000Y-134518840D01*
X89885317Y-134474562D01*
X90101441Y-134335490D01*
X90246431Y-134123290D01*
X90297440Y-133871400D01*
X90297440Y-132371400D01*
X90253162Y-132136083D01*
X90114090Y-131919959D01*
X89901890Y-131774969D01*
X89650000Y-131723960D01*
X88465000Y-131723960D01*
X88465000Y-128354065D01*
X88871887Y-128435000D01*
X88928113Y-128435000D01*
X89477264Y-128325767D01*
X89942811Y-128014698D01*
X90253880Y-127549151D01*
X90363113Y-127000000D01*
X90253880Y-126450849D01*
X89942811Y-125985302D01*
X89556615Y-125727253D01*
X90716934Y-124566934D01*
X90792334Y-124454090D01*
X90897939Y-124296041D01*
X90961500Y-123976500D01*
X90961500Y-122641600D01*
X90897939Y-122322059D01*
X90716934Y-122051166D01*
X85865000Y-117199232D01*
X85865000Y-116934651D01*
X86360000Y-117033113D01*
X86909151Y-116923880D01*
X87374698Y-116612811D01*
X87630000Y-116230725D01*
X87885302Y-116612811D01*
X88350849Y-116923880D01*
X88900000Y-117033113D01*
X89449151Y-116923880D01*
X89914698Y-116612811D01*
X90225767Y-116147264D01*
X90335000Y-115598113D01*
X90335000Y-115541887D01*
X90225767Y-114992736D01*
X89914698Y-114527189D01*
X89449151Y-114216120D01*
X88900000Y-114106887D01*
X88350849Y-114216120D01*
X87885302Y-114527189D01*
X87630000Y-114909275D01*
X87374698Y-114527189D01*
X86909151Y-114216120D01*
X86360000Y-114106887D01*
X85865000Y-114205349D01*
X85865000Y-111760000D01*
X87316887Y-111760000D01*
X87426120Y-112309151D01*
X87737189Y-112774698D01*
X88202736Y-113085767D01*
X88751887Y-113195000D01*
X88808113Y-113195000D01*
X89357264Y-113085767D01*
X89822811Y-112774698D01*
X90133880Y-112309151D01*
X90243113Y-111760000D01*
X90133880Y-111210849D01*
X89822811Y-110745302D01*
X89357264Y-110434233D01*
X88808113Y-110325000D01*
X88751887Y-110325000D01*
X88202736Y-110434233D01*
X87737189Y-110745302D01*
X87426120Y-111210849D01*
X87316887Y-111760000D01*
X85865000Y-111760000D01*
X85865000Y-110430000D01*
X85801439Y-110110459D01*
X85620434Y-109839566D01*
X82714779Y-106933911D01*
X82715000Y-106680000D01*
X87436887Y-106680000D01*
X87546120Y-107229151D01*
X87857189Y-107694698D01*
X88322736Y-108005767D01*
X88871887Y-108115000D01*
X88928113Y-108115000D01*
X89477264Y-108005767D01*
X89942811Y-107694698D01*
X90253880Y-107229151D01*
X90363113Y-106680000D01*
X90253880Y-106130849D01*
X89942811Y-105665302D01*
X89477264Y-105354233D01*
X88928113Y-105245000D01*
X88871887Y-105245000D01*
X88322736Y-105354233D01*
X87857189Y-105665302D01*
X87546120Y-106130849D01*
X87436887Y-106680000D01*
X82715000Y-106680000D01*
X82715248Y-106395813D01*
X82497243Y-105868200D01*
X82093923Y-105464176D01*
X81566691Y-105245250D01*
X80995813Y-105244752D01*
X80468200Y-105462757D01*
X80064176Y-105866077D01*
X79845250Y-106393309D01*
X79844752Y-106964187D01*
X80062757Y-107491800D01*
X80466077Y-107895824D01*
X80993309Y-108114750D01*
X81534354Y-108115222D01*
X84195000Y-110775868D01*
X84195000Y-114181479D01*
X83820000Y-114106887D01*
X83270849Y-114216120D01*
X82842533Y-114502312D01*
X82697091Y-114264141D01*
X82089491Y-113821246D01*
X81944156Y-113761071D01*
X81653002Y-113967589D01*
X81653002Y-113652361D01*
X81950173Y-113606920D01*
X82112086Y-113539854D01*
X82176716Y-113184218D01*
X81280000Y-112287502D01*
X80383284Y-113184218D01*
X80447914Y-113539854D01*
X80906998Y-113652668D01*
X80906998Y-113967589D01*
X80615844Y-113761071D01*
X80470509Y-113821246D01*
X80056671Y-114122903D01*
X77606141Y-111672373D01*
X79317204Y-111672373D01*
X79433080Y-112430173D01*
X79500146Y-112592086D01*
X79855782Y-112656716D01*
X80752498Y-111760000D01*
X81807502Y-111760000D01*
X82704218Y-112656716D01*
X83059854Y-112592086D01*
X83242796Y-111847627D01*
X83126920Y-111089827D01*
X83059854Y-110927914D01*
X82704218Y-110863284D01*
X81807502Y-111760000D01*
X80752498Y-111760000D01*
X79855782Y-110863284D01*
X79500146Y-110927914D01*
X79317204Y-111672373D01*
X77606141Y-111672373D01*
X76269550Y-110335782D01*
X80383284Y-110335782D01*
X81280000Y-111232498D01*
X82176716Y-110335782D01*
X82112086Y-109980146D01*
X81367627Y-109797204D01*
X80609827Y-109913080D01*
X80447914Y-109980146D01*
X80383284Y-110335782D01*
X76269550Y-110335782D01*
X72613768Y-106680000D01*
X73466887Y-106680000D01*
X73576120Y-107229151D01*
X73887189Y-107694698D01*
X74352736Y-108005767D01*
X74901887Y-108115000D01*
X74958113Y-108115000D01*
X75507264Y-108005767D01*
X75972811Y-107694698D01*
X76283880Y-107229151D01*
X76393113Y-106680000D01*
X76283880Y-106130849D01*
X75972811Y-105665302D01*
X75507264Y-105354233D01*
X74958113Y-105245000D01*
X74901887Y-105245000D01*
X74352736Y-105354233D01*
X73887189Y-105665302D01*
X73576120Y-106130849D01*
X73466887Y-106680000D01*
X72613768Y-106680000D01*
X70583843Y-104650075D01*
X70659491Y-104618754D01*
X71120000Y-104283077D01*
X71580509Y-104618754D01*
X71725844Y-104678929D01*
X72017000Y-104472410D01*
X72017000Y-103243000D01*
X70223000Y-103243000D01*
X70223000Y-103263000D01*
X69477000Y-103263000D01*
X69477000Y-103243000D01*
X69457000Y-103243000D01*
X69457000Y-102497000D01*
X69477000Y-102497000D01*
X69477000Y-102477000D01*
X70223000Y-102477000D01*
X70223000Y-102497000D01*
X72017000Y-102497000D01*
X72017000Y-102477000D01*
X72763000Y-102477000D01*
X72763000Y-102497000D01*
X72783000Y-102497000D01*
X72783000Y-103243000D01*
X72763000Y-103243000D01*
X72763000Y-104472410D01*
X73054156Y-104678929D01*
X73199491Y-104618754D01*
X73807091Y-104175859D01*
X73952533Y-103937688D01*
X74380849Y-104223880D01*
X74930000Y-104333113D01*
X75479151Y-104223880D01*
X75944698Y-103912811D01*
X76255767Y-103447264D01*
X76365000Y-102898113D01*
X76365000Y-102841887D01*
X76255767Y-102292736D01*
X75944698Y-101827189D01*
X75479151Y-101516120D01*
X74930000Y-101406887D01*
X74380849Y-101516120D01*
X73952533Y-101802312D01*
X73807091Y-101564141D01*
X73354999Y-101234600D01*
X82855001Y-101234600D01*
X82432683Y-101542438D01*
X82331890Y-101473569D01*
X82080000Y-101422560D01*
X80480000Y-101422560D01*
X80244683Y-101466838D01*
X80028559Y-101605910D01*
X79883569Y-101818110D01*
X79832560Y-102070000D01*
X79832560Y-103670000D01*
X79876838Y-103905317D01*
X80015910Y-104121441D01*
X80228110Y-104266431D01*
X80480000Y-104317440D01*
X82080000Y-104317440D01*
X82315317Y-104273162D01*
X82432739Y-104197603D01*
X83010509Y-104618754D01*
X83155844Y-104678929D01*
X83447000Y-104472410D01*
X83447000Y-103243000D01*
X84193000Y-103243000D01*
X84193000Y-104472410D01*
X84484156Y-104678929D01*
X84629491Y-104618754D01*
X85090000Y-104283077D01*
X85550509Y-104618754D01*
X85695844Y-104678929D01*
X85987000Y-104472410D01*
X85987000Y-103243000D01*
X84193000Y-103243000D01*
X83447000Y-103243000D01*
X83427000Y-103243000D01*
X83427000Y-102497000D01*
X83447000Y-102497000D01*
X83447000Y-102477000D01*
X84193000Y-102477000D01*
X84193000Y-102497000D01*
X85987000Y-102497000D01*
X85987000Y-102477000D01*
X86498832Y-102477000D01*
X86753000Y-102731168D01*
X86753000Y-103243000D01*
X86733000Y-103243000D01*
X86733000Y-104472410D01*
X87024156Y-104678929D01*
X87169491Y-104618754D01*
X87777091Y-104175859D01*
X87922533Y-103937688D01*
X88350849Y-104223880D01*
X88900000Y-104333113D01*
X89449151Y-104223880D01*
X89914698Y-103912811D01*
X90225767Y-103447264D01*
X90335000Y-102898113D01*
X90335000Y-102841887D01*
X90225767Y-102292736D01*
X89914698Y-101827189D01*
X89449151Y-101516120D01*
X88900000Y-101406887D01*
X88350849Y-101516120D01*
X88080398Y-101696830D01*
X86192734Y-99809166D01*
X85921841Y-99628161D01*
X85602300Y-99564600D01*
X55548268Y-99564600D01*
X52890406Y-96906738D01*
X52967000Y-96852410D01*
X52967000Y-95623000D01*
X51731172Y-95623000D01*
X51680455Y-95696787D01*
X49528668Y-93545000D01*
X52470484Y-93545000D01*
X51922909Y-93944141D01*
X51531048Y-94585841D01*
X51731172Y-94877000D01*
X52967000Y-94877000D01*
X52967000Y-94857000D01*
X53713000Y-94857000D01*
X53713000Y-94877000D01*
X53733000Y-94877000D01*
X53733000Y-95623000D01*
X53713000Y-95623000D01*
X53713000Y-96852410D01*
X54004156Y-97058929D01*
X54149491Y-96998754D01*
X54757091Y-96555859D01*
X54902533Y-96317688D01*
X55330849Y-96603880D01*
X55880000Y-96713113D01*
X56429151Y-96603880D01*
X56894698Y-96292811D01*
X57150000Y-95910725D01*
X57405302Y-96292811D01*
X57870849Y-96603880D01*
X58420000Y-96713113D01*
X58969151Y-96603880D01*
X59434698Y-96292811D01*
X59690000Y-95910725D01*
X59945302Y-96292811D01*
X60410849Y-96603880D01*
X60960000Y-96713113D01*
X61509151Y-96603880D01*
X61974698Y-96292811D01*
X62227705Y-95914159D01*
X65501048Y-95914159D01*
X65892909Y-96555859D01*
X66500509Y-96998754D01*
X66645844Y-97058929D01*
X66937000Y-96852410D01*
X66937000Y-95623000D01*
X65701172Y-95623000D01*
X65501048Y-95914159D01*
X62227705Y-95914159D01*
X62285767Y-95827264D01*
X62395000Y-95278113D01*
X62395000Y-95221887D01*
X62285767Y-94672736D01*
X61974698Y-94207189D01*
X61509151Y-93896120D01*
X60960000Y-93786887D01*
X60410849Y-93896120D01*
X59945302Y-94207189D01*
X59690000Y-94589275D01*
X59434698Y-94207189D01*
X58969151Y-93896120D01*
X58420000Y-93786887D01*
X57870849Y-93896120D01*
X57405302Y-94207189D01*
X57150000Y-94589275D01*
X56894698Y-94207189D01*
X56429151Y-93896120D01*
X55880000Y-93786887D01*
X55330849Y-93896120D01*
X54902533Y-94182312D01*
X54757091Y-93944141D01*
X54209516Y-93545000D01*
X66440484Y-93545000D01*
X65892909Y-93944141D01*
X65501048Y-94585841D01*
X65701172Y-94877000D01*
X66937000Y-94877000D01*
X66937000Y-94857000D01*
X67683000Y-94857000D01*
X67683000Y-94877000D01*
X67703000Y-94877000D01*
X67703000Y-95623000D01*
X67683000Y-95623000D01*
X67683000Y-96852410D01*
X67974156Y-97058929D01*
X68119491Y-96998754D01*
X68727091Y-96555859D01*
X68872533Y-96317688D01*
X69300849Y-96603880D01*
X69850000Y-96713113D01*
X70399151Y-96603880D01*
X70864698Y-96292811D01*
X71120000Y-95910725D01*
X71375302Y-96292811D01*
X71840849Y-96603880D01*
X72390000Y-96713113D01*
X72939151Y-96603880D01*
X73404698Y-96292811D01*
X73660000Y-95910725D01*
X73915302Y-96292811D01*
X74380849Y-96603880D01*
X74930000Y-96713113D01*
X75479151Y-96603880D01*
X75944698Y-96292811D01*
X76197705Y-95914159D01*
X79471048Y-95914159D01*
X79862909Y-96555859D01*
X80470509Y-96998754D01*
X80615844Y-97058929D01*
X80907000Y-96852410D01*
X80907000Y-95623000D01*
X79671172Y-95623000D01*
X79471048Y-95914159D01*
X76197705Y-95914159D01*
X76255767Y-95827264D01*
X76365000Y-95278113D01*
X76365000Y-95221887D01*
X76255767Y-94672736D01*
X75944698Y-94207189D01*
X75479151Y-93896120D01*
X74930000Y-93786887D01*
X74380849Y-93896120D01*
X73915302Y-94207189D01*
X73660000Y-94589275D01*
X73404698Y-94207189D01*
X72939151Y-93896120D01*
X72390000Y-93786887D01*
X71840849Y-93896120D01*
X71375302Y-94207189D01*
X71120000Y-94589275D01*
X70864698Y-94207189D01*
X70399151Y-93896120D01*
X69850000Y-93786887D01*
X69300849Y-93896120D01*
X68872533Y-94182312D01*
X68727091Y-93944141D01*
X68179516Y-93545000D01*
X80410484Y-93545000D01*
X79862909Y-93944141D01*
X79471048Y-94585841D01*
X79671172Y-94877000D01*
X80907000Y-94877000D01*
X80907000Y-94857000D01*
X81653000Y-94857000D01*
X81653000Y-94877000D01*
X81673000Y-94877000D01*
X81673000Y-95623000D01*
X81653000Y-95623000D01*
X81653000Y-96852410D01*
X81944156Y-97058929D01*
X82089491Y-96998754D01*
X82697091Y-96555859D01*
X82842533Y-96317688D01*
X83270849Y-96603880D01*
X83820000Y-96713113D01*
X84369151Y-96603880D01*
X84834698Y-96292811D01*
X85090000Y-95910725D01*
X85345302Y-96292811D01*
X85810849Y-96603880D01*
X86360000Y-96713113D01*
X86909151Y-96603880D01*
X87374698Y-96292811D01*
X87630000Y-95910725D01*
X87885302Y-96292811D01*
X88350849Y-96603880D01*
X88900000Y-96713113D01*
X89449151Y-96603880D01*
X89914698Y-96292811D01*
X90225767Y-95827264D01*
X90335000Y-95278113D01*
X90335000Y-95221887D01*
X90225767Y-94672736D01*
X89914698Y-94207189D01*
X89449151Y-93896120D01*
X88900000Y-93786887D01*
X88350849Y-93896120D01*
X87885302Y-94207189D01*
X87630000Y-94589275D01*
X87374698Y-94207189D01*
X86909151Y-93896120D01*
X86360000Y-93786887D01*
X85810849Y-93896120D01*
X85345302Y-94207189D01*
X85090000Y-94589275D01*
X84834698Y-94207189D01*
X84369151Y-93896120D01*
X83820000Y-93786887D01*
X83270849Y-93896120D01*
X82842533Y-94182312D01*
X82697091Y-93944141D01*
X82149516Y-93545000D01*
X82977700Y-93545000D01*
X83297241Y-93481439D01*
X83568134Y-93300434D01*
X85428568Y-91440000D01*
X87316887Y-91440000D01*
X87426120Y-91989151D01*
X87737189Y-92454698D01*
X88202736Y-92765767D01*
X88751887Y-92875000D01*
X88808113Y-92875000D01*
X89357264Y-92765767D01*
X89822811Y-92454698D01*
X90133880Y-91989151D01*
X90243113Y-91440000D01*
X90133880Y-90890849D01*
X89822811Y-90425302D01*
X89357264Y-90114233D01*
X88808113Y-90005000D01*
X88751887Y-90005000D01*
X88202736Y-90114233D01*
X87737189Y-90425302D01*
X87426120Y-90890849D01*
X87316887Y-91440000D01*
X85428568Y-91440000D01*
X88224168Y-88644400D01*
X91260600Y-88644400D01*
X91580141Y-88580839D01*
X91851034Y-88399834D01*
X92456089Y-87794779D01*
X92994187Y-87795248D01*
X93521800Y-87577243D01*
X93925824Y-87173923D01*
X94144750Y-86646691D01*
X94145248Y-86075813D01*
X93927243Y-85548200D01*
X93523923Y-85144176D01*
X92996691Y-84925250D01*
X92425813Y-84924752D01*
X91898200Y-85142757D01*
X91494176Y-85546077D01*
X91440138Y-85676215D01*
X91387243Y-85548200D01*
X90983923Y-85144176D01*
X90456691Y-84925250D01*
X89915647Y-84924778D01*
X87001734Y-82010866D01*
X86730841Y-81829861D01*
X86411300Y-81766300D01*
X81361865Y-81766300D01*
X81444750Y-81566691D01*
X81445248Y-80995813D01*
X81227243Y-80468200D01*
X80823923Y-80064176D01*
X80693785Y-80010138D01*
X80821800Y-79957243D01*
X81225824Y-79553923D01*
X81279862Y-79423785D01*
X81332757Y-79551800D01*
X81736077Y-79955824D01*
X82263309Y-80174750D01*
X82834187Y-80175248D01*
X83361800Y-79957243D01*
X83765824Y-79553923D01*
X83819862Y-79423785D01*
X83872757Y-79551800D01*
X84276077Y-79955824D01*
X84803309Y-80174750D01*
X85374187Y-80175248D01*
X85901800Y-79957243D01*
X86305824Y-79553923D01*
X86359862Y-79423785D01*
X86412757Y-79551800D01*
X86816077Y-79955824D01*
X87343309Y-80174750D01*
X87914187Y-80175248D01*
X88441800Y-79957243D01*
X88845824Y-79553923D01*
X88899862Y-79423785D01*
X88952757Y-79551800D01*
X89356077Y-79955824D01*
X89883309Y-80174750D01*
X90454187Y-80175248D01*
X90981800Y-79957243D01*
X91385824Y-79553923D01*
X91439862Y-79423785D01*
X91492757Y-79551800D01*
X91896077Y-79955824D01*
X92423309Y-80174750D01*
X92994187Y-80175248D01*
X93521800Y-79957243D01*
X93925824Y-79553923D01*
X94144750Y-79026691D01*
X94145248Y-78455813D01*
X93927243Y-77928200D01*
X93523923Y-77524176D01*
X93393785Y-77470138D01*
X93521800Y-77417243D01*
X93925824Y-77013923D01*
X94067667Y-76672325D01*
X99214587Y-76672325D01*
X99576916Y-77549229D01*
X100247242Y-78220726D01*
X101123513Y-78584585D01*
X102072325Y-78585413D01*
X102949229Y-78223084D01*
X103620726Y-77552758D01*
X103984585Y-76676487D01*
X103985413Y-75727675D01*
X103623084Y-74850771D01*
X102952758Y-74179274D01*
X102076487Y-73815415D01*
X101127675Y-73814587D01*
X100250771Y-74176916D01*
X99579274Y-74847242D01*
X99215415Y-75723513D01*
X99214587Y-76672325D01*
X94067667Y-76672325D01*
X94144750Y-76486691D01*
X94145248Y-75915813D01*
X93927243Y-75388200D01*
X93523923Y-74984176D01*
X92996691Y-74765250D01*
X92425813Y-74764752D01*
X91898200Y-74982757D01*
X91494176Y-75386077D01*
X91440138Y-75516215D01*
X91387243Y-75388200D01*
X90983923Y-74984176D01*
X90456691Y-74765250D01*
X89885813Y-74764752D01*
X89358200Y-74982757D01*
X88954176Y-75386077D01*
X88900138Y-75516215D01*
X88847243Y-75388200D01*
X88443923Y-74984176D01*
X87916691Y-74765250D01*
X87345813Y-74764752D01*
X86818200Y-74982757D01*
X86414176Y-75386077D01*
X86360138Y-75516215D01*
X86307243Y-75388200D01*
X85903923Y-74984176D01*
X85376691Y-74765250D01*
X84805813Y-74764752D01*
X84278200Y-74982757D01*
X83874176Y-75386077D01*
X83820138Y-75516215D01*
X83767243Y-75388200D01*
X83363923Y-74984176D01*
X82836691Y-74765250D01*
X82265813Y-74764752D01*
X81738200Y-74982757D01*
X81334176Y-75386077D01*
X81280138Y-75516215D01*
X81227243Y-75388200D01*
X80823923Y-74984176D01*
X80693785Y-74930138D01*
X80821800Y-74877243D01*
X81225824Y-74473923D01*
X81444750Y-73946691D01*
X81445248Y-73375813D01*
X81227243Y-72848200D01*
X80823923Y-72444176D01*
X80693785Y-72390138D01*
X80821800Y-72337243D01*
X81225824Y-71933923D01*
X81279862Y-71803785D01*
X81332757Y-71931800D01*
X81736077Y-72335824D01*
X82263309Y-72554750D01*
X82834187Y-72555248D01*
X83361800Y-72337243D01*
X83765824Y-71933923D01*
X83819862Y-71803785D01*
X83872757Y-71931800D01*
X84276077Y-72335824D01*
X84803309Y-72554750D01*
X85374187Y-72555248D01*
X85901800Y-72337243D01*
X86305824Y-71933923D01*
X86359862Y-71803785D01*
X86412757Y-71931800D01*
X86816077Y-72335824D01*
X87343309Y-72554750D01*
X87914187Y-72555248D01*
X88441800Y-72337243D01*
X88845824Y-71933923D01*
X88899862Y-71803785D01*
X88952757Y-71931800D01*
X89356077Y-72335824D01*
X89883309Y-72554750D01*
X90454187Y-72555248D01*
X90981800Y-72337243D01*
X91385824Y-71933923D01*
X91439862Y-71803785D01*
X91492757Y-71931800D01*
X91896077Y-72335824D01*
X92423309Y-72554750D01*
X92994187Y-72555248D01*
X93521800Y-72337243D01*
X93925824Y-71933923D01*
X94144750Y-71406691D01*
X94145248Y-70835813D01*
X93927243Y-70308200D01*
X93523923Y-69904176D01*
X92996691Y-69685250D01*
X92425813Y-69684752D01*
X91898200Y-69902757D01*
X91494176Y-70306077D01*
X91440138Y-70436215D01*
X91387243Y-70308200D01*
X90983923Y-69904176D01*
X90456691Y-69685250D01*
X89885813Y-69684752D01*
X89358200Y-69902757D01*
X88954176Y-70306077D01*
X88900138Y-70436215D01*
X88847243Y-70308200D01*
X88443923Y-69904176D01*
X87916691Y-69685250D01*
X87345813Y-69684752D01*
X86818200Y-69902757D01*
X86414176Y-70306077D01*
X86360138Y-70436215D01*
X86307243Y-70308200D01*
X85903923Y-69904176D01*
X85376691Y-69685250D01*
X84805813Y-69684752D01*
X84278200Y-69902757D01*
X83874176Y-70306077D01*
X83820138Y-70436215D01*
X83767243Y-70308200D01*
X83363923Y-69904176D01*
X82836691Y-69685250D01*
X82265813Y-69684752D01*
X81738200Y-69902757D01*
X81334176Y-70306077D01*
X81280138Y-70436215D01*
X81227243Y-70308200D01*
X80823923Y-69904176D01*
X80296691Y-69685250D01*
X79725813Y-69684752D01*
X79198200Y-69902757D01*
X78794176Y-70306077D01*
X78740138Y-70436215D01*
X78687243Y-70308200D01*
X78283923Y-69904176D01*
X77756691Y-69685250D01*
X77185813Y-69684752D01*
X76658200Y-69902757D01*
X76254176Y-70306077D01*
X76200138Y-70436215D01*
X76147243Y-70308200D01*
X75743923Y-69904176D01*
X75216691Y-69685250D01*
X74645813Y-69684752D01*
X74118200Y-69902757D01*
X73714176Y-70306077D01*
X73660138Y-70436215D01*
X73607243Y-70308200D01*
X73203923Y-69904176D01*
X72676691Y-69685250D01*
X72105813Y-69684752D01*
X71578200Y-69902757D01*
X71174176Y-70306077D01*
X71120138Y-70436215D01*
X71067243Y-70308200D01*
X70663923Y-69904176D01*
X70136691Y-69685250D01*
X69565813Y-69684752D01*
X69038200Y-69902757D01*
X68634176Y-70306077D01*
X68580138Y-70436215D01*
X68527243Y-70308200D01*
X68123923Y-69904176D01*
X67596691Y-69685250D01*
X67025813Y-69684752D01*
X66498200Y-69902757D01*
X66094176Y-70306077D01*
X66040138Y-70436215D01*
X65987243Y-70308200D01*
X65583923Y-69904176D01*
X65056691Y-69685250D01*
X64485813Y-69684752D01*
X63958200Y-69902757D01*
X63554176Y-70306077D01*
X63500138Y-70436215D01*
X63447243Y-70308200D01*
X63043923Y-69904176D01*
X62516691Y-69685250D01*
X61945813Y-69684752D01*
X61418200Y-69902757D01*
X61014176Y-70306077D01*
X60960138Y-70436215D01*
X60907243Y-70308200D01*
X60503923Y-69904176D01*
X59976691Y-69685250D01*
X59405813Y-69684752D01*
X58878200Y-69902757D01*
X58474176Y-70306077D01*
X58420138Y-70436215D01*
X58367243Y-70308200D01*
X57963923Y-69904176D01*
X57436691Y-69685250D01*
X56865813Y-69684752D01*
X56338200Y-69902757D01*
X55934176Y-70306077D01*
X55880138Y-70436215D01*
X55827243Y-70308200D01*
X55423923Y-69904176D01*
X54896691Y-69685250D01*
X54325813Y-69684752D01*
X53798200Y-69902757D01*
X53394176Y-70306077D01*
X53340138Y-70436215D01*
X53287243Y-70308200D01*
X52883923Y-69904176D01*
X52356691Y-69685250D01*
X51785813Y-69684752D01*
X51258200Y-69902757D01*
X50854176Y-70306077D01*
X50800138Y-70436215D01*
X50747243Y-70308200D01*
X50343923Y-69904176D01*
X49816691Y-69685250D01*
X49245813Y-69684752D01*
X48718200Y-69902757D01*
X48314176Y-70306077D01*
X48260138Y-70436215D01*
X48207243Y-70308200D01*
X47803923Y-69904176D01*
X47276691Y-69685250D01*
X46705813Y-69684752D01*
X46178200Y-69902757D01*
X45774176Y-70306077D01*
X45720138Y-70436215D01*
X45667243Y-70308200D01*
X45263923Y-69904176D01*
X44736691Y-69685250D01*
X44165813Y-69684752D01*
X43638200Y-69902757D01*
X43234176Y-70306077D01*
X43180138Y-70436215D01*
X43127243Y-70308200D01*
X42723923Y-69904176D01*
X42196691Y-69685250D01*
X41625813Y-69684752D01*
X41098200Y-69902757D01*
X40694176Y-70306077D01*
X40640138Y-70436215D01*
X40587243Y-70308200D01*
X40183923Y-69904176D01*
X39656691Y-69685250D01*
X39085813Y-69684752D01*
X38558200Y-69902757D01*
X38154176Y-70306077D01*
X38100138Y-70436215D01*
X38047243Y-70308200D01*
X37643923Y-69904176D01*
X37116691Y-69685250D01*
X36545813Y-69684752D01*
X36018200Y-69902757D01*
X35614176Y-70306077D01*
X35601928Y-70335574D01*
X34817502Y-71120000D01*
X35601107Y-71903605D01*
X35612757Y-71931800D01*
X36016077Y-72335824D01*
X36146215Y-72389862D01*
X36018200Y-72442757D01*
X35614176Y-72846077D01*
X35395250Y-73373309D01*
X35394752Y-73944187D01*
X35612757Y-74471800D01*
X36016077Y-74875824D01*
X36543309Y-75094750D01*
X37114187Y-75095248D01*
X37641800Y-74877243D01*
X38045824Y-74473923D01*
X38264750Y-73946691D01*
X38265248Y-73375813D01*
X38047243Y-72848200D01*
X37643923Y-72444176D01*
X37513785Y-72390138D01*
X37641800Y-72337243D01*
X38045824Y-71933923D01*
X38099862Y-71803785D01*
X38152757Y-71931800D01*
X38556077Y-72335824D01*
X39083309Y-72554750D01*
X39654187Y-72555248D01*
X40181800Y-72337243D01*
X40585824Y-71933923D01*
X40639862Y-71803785D01*
X40692757Y-71931800D01*
X41096077Y-72335824D01*
X41226215Y-72389862D01*
X41098200Y-72442757D01*
X40694176Y-72846077D01*
X40475250Y-73373309D01*
X40474752Y-73944187D01*
X40692757Y-74471800D01*
X41096077Y-74875824D01*
X41623309Y-75094750D01*
X42194187Y-75095248D01*
X42721800Y-74877243D01*
X43125824Y-74473923D01*
X43179862Y-74343785D01*
X43232757Y-74471800D01*
X43636077Y-74875824D01*
X44163309Y-75094750D01*
X44734187Y-75095248D01*
X45261800Y-74877243D01*
X45665824Y-74473923D01*
X45719862Y-74343785D01*
X45772757Y-74471800D01*
X46176077Y-74875824D01*
X46703309Y-75094750D01*
X47274187Y-75095248D01*
X47801800Y-74877243D01*
X48205824Y-74473923D01*
X48424750Y-73946691D01*
X48425248Y-73375813D01*
X48207243Y-72848200D01*
X47803923Y-72444176D01*
X47673785Y-72390138D01*
X47801800Y-72337243D01*
X48205824Y-71933923D01*
X48259862Y-71803785D01*
X48312757Y-71931800D01*
X48716077Y-72335824D01*
X49243309Y-72554750D01*
X49814187Y-72555248D01*
X50341800Y-72337243D01*
X50745824Y-71933923D01*
X50799862Y-71803785D01*
X50852757Y-71931800D01*
X51256077Y-72335824D01*
X51783309Y-72554750D01*
X52354187Y-72555248D01*
X52881800Y-72337243D01*
X53285824Y-71933923D01*
X53339862Y-71803785D01*
X53392757Y-71931800D01*
X53796077Y-72335824D01*
X54323309Y-72554750D01*
X54894187Y-72555248D01*
X55421800Y-72337243D01*
X55825824Y-71933923D01*
X55879862Y-71803785D01*
X55932757Y-71931800D01*
X56336077Y-72335824D01*
X56863309Y-72554750D01*
X57434187Y-72555248D01*
X57961800Y-72337243D01*
X58365824Y-71933923D01*
X58419862Y-71803785D01*
X58472757Y-71931800D01*
X58876077Y-72335824D01*
X59403309Y-72554750D01*
X59974187Y-72555248D01*
X60501800Y-72337243D01*
X60905824Y-71933923D01*
X60959862Y-71803785D01*
X61012757Y-71931800D01*
X61416077Y-72335824D01*
X61943309Y-72554750D01*
X62514187Y-72555248D01*
X63041800Y-72337243D01*
X63445824Y-71933923D01*
X63499862Y-71803785D01*
X63552757Y-71931800D01*
X63956077Y-72335824D01*
X64483309Y-72554750D01*
X65054187Y-72555248D01*
X65581800Y-72337243D01*
X65985824Y-71933923D01*
X66039862Y-71803785D01*
X66092757Y-71931800D01*
X66496077Y-72335824D01*
X67023309Y-72554750D01*
X67594187Y-72555248D01*
X68121800Y-72337243D01*
X68525824Y-71933923D01*
X68579862Y-71803785D01*
X68632757Y-71931800D01*
X69036077Y-72335824D01*
X69563309Y-72554750D01*
X70134187Y-72555248D01*
X70661800Y-72337243D01*
X71065824Y-71933923D01*
X71119862Y-71803785D01*
X71172757Y-71931800D01*
X71576077Y-72335824D01*
X72103309Y-72554750D01*
X72674187Y-72555248D01*
X73201800Y-72337243D01*
X73605824Y-71933923D01*
X73659862Y-71803785D01*
X73712757Y-71931800D01*
X74116077Y-72335824D01*
X74643309Y-72554750D01*
X75214187Y-72555248D01*
X75741800Y-72337243D01*
X76145824Y-71933923D01*
X76199862Y-71803785D01*
X76252757Y-71931800D01*
X76656077Y-72335824D01*
X77183309Y-72554750D01*
X77754187Y-72555248D01*
X78281800Y-72337243D01*
X78685824Y-71933923D01*
X78739862Y-71803785D01*
X78792757Y-71931800D01*
X79196077Y-72335824D01*
X79326215Y-72389862D01*
X79198200Y-72442757D01*
X78794176Y-72846077D01*
X78575250Y-73373309D01*
X78574752Y-73944187D01*
X78792757Y-74471800D01*
X79196077Y-74875824D01*
X79326215Y-74929862D01*
X79198200Y-74982757D01*
X78794176Y-75386077D01*
X78740138Y-75516215D01*
X78687243Y-75388200D01*
X78283923Y-74984176D01*
X77756691Y-74765250D01*
X77185813Y-74764752D01*
X76658200Y-74982757D01*
X76254176Y-75386077D01*
X76200138Y-75516215D01*
X76147243Y-75388200D01*
X75743923Y-74984176D01*
X75216691Y-74765250D01*
X74645813Y-74764752D01*
X74118200Y-74982757D01*
X73714176Y-75386077D01*
X73660138Y-75516215D01*
X73607243Y-75388200D01*
X73203923Y-74984176D01*
X72676691Y-74765250D01*
X72105813Y-74764752D01*
X71578200Y-74982757D01*
X71174176Y-75386077D01*
X70955250Y-75913309D01*
X70954752Y-76484187D01*
X71172757Y-77011800D01*
X71576077Y-77415824D01*
X71706215Y-77469862D01*
X71578200Y-77522757D01*
X71174176Y-77926077D01*
X70955250Y-78453309D01*
X70954752Y-79024187D01*
X71172757Y-79551800D01*
X71576077Y-79955824D01*
X72103309Y-80174750D01*
X72674187Y-80175248D01*
X73201800Y-79957243D01*
X73605824Y-79553923D01*
X73659862Y-79423785D01*
X73712757Y-79551800D01*
X74116077Y-79955824D01*
X74643309Y-80174750D01*
X75214187Y-80175248D01*
X75741800Y-79957243D01*
X76145824Y-79553923D01*
X76199862Y-79423785D01*
X76252757Y-79551800D01*
X76656077Y-79955824D01*
X77183309Y-80174750D01*
X77754187Y-80175248D01*
X78281800Y-79957243D01*
X78685824Y-79553923D01*
X78739862Y-79423785D01*
X78792757Y-79551800D01*
X79196077Y-79955824D01*
X79326215Y-80009862D01*
X79198200Y-80062757D01*
X78794176Y-80466077D01*
X78575250Y-80993309D01*
X78574752Y-81564187D01*
X78658263Y-81766300D01*
X76962600Y-81766300D01*
X76643059Y-81829861D01*
X76372166Y-82010866D01*
X73221374Y-85161658D01*
X73203923Y-85144176D01*
X72676691Y-84925250D01*
X72105813Y-84924752D01*
X71578200Y-85142757D01*
X71485000Y-85235795D01*
X71485000Y-85090000D01*
X71360543Y-84464313D01*
X71360543Y-84464312D01*
X71119915Y-84104187D01*
X71006120Y-83933880D01*
X71006117Y-83933878D01*
X69736120Y-82663880D01*
X69205688Y-82309457D01*
X68580000Y-82184999D01*
X68579995Y-82185000D01*
X27940005Y-82185000D01*
X27940000Y-82184999D01*
X27314312Y-82309457D01*
X26783880Y-82663880D01*
X21703880Y-87743880D01*
X21349457Y-88274312D01*
X21224999Y-88900000D01*
X21225000Y-88900005D01*
X21225000Y-89877603D01*
X20964312Y-89929457D01*
X20794020Y-90043243D01*
X20433880Y-90283880D01*
X20433878Y-90283883D01*
X19163880Y-91553880D01*
X18809457Y-92084312D01*
X18684999Y-92710000D01*
X18490000Y-92710000D01*
X18490000Y-76672325D01*
X23014587Y-76672325D01*
X23376916Y-77549229D01*
X24047242Y-78220726D01*
X24923513Y-78584585D01*
X25872325Y-78585413D01*
X26749229Y-78223084D01*
X27420726Y-77552758D01*
X27784585Y-76676487D01*
X27784752Y-76484187D01*
X48094752Y-76484187D01*
X48312757Y-77011800D01*
X48716077Y-77415824D01*
X48846215Y-77469862D01*
X48718200Y-77522757D01*
X48314176Y-77926077D01*
X48095250Y-78453309D01*
X48094752Y-79024187D01*
X48312757Y-79551800D01*
X48716077Y-79955824D01*
X49243309Y-80174750D01*
X49814187Y-80175248D01*
X50341800Y-79957243D01*
X50745824Y-79553923D01*
X50799862Y-79423785D01*
X50852757Y-79551800D01*
X51256077Y-79955824D01*
X51783309Y-80174750D01*
X52354187Y-80175248D01*
X52881800Y-79957243D01*
X53285824Y-79553923D01*
X53339862Y-79423785D01*
X53392757Y-79551800D01*
X53796077Y-79955824D01*
X54323309Y-80174750D01*
X54894187Y-80175248D01*
X55421800Y-79957243D01*
X55825824Y-79553923D01*
X55879862Y-79423785D01*
X55932757Y-79551800D01*
X56336077Y-79955824D01*
X56863309Y-80174750D01*
X57434187Y-80175248D01*
X57961800Y-79957243D01*
X58365824Y-79553923D01*
X58584750Y-79026691D01*
X58585248Y-78455813D01*
X58367243Y-77928200D01*
X57963923Y-77524176D01*
X57833785Y-77470138D01*
X57961800Y-77417243D01*
X58365824Y-77013923D01*
X58584750Y-76486691D01*
X58585248Y-75915813D01*
X58367243Y-75388200D01*
X57963923Y-74984176D01*
X57436691Y-74765250D01*
X56865813Y-74764752D01*
X56338200Y-74982757D01*
X55934176Y-75386077D01*
X55880138Y-75516215D01*
X55827243Y-75388200D01*
X55423923Y-74984176D01*
X54896691Y-74765250D01*
X54325813Y-74764752D01*
X53798200Y-74982757D01*
X53394176Y-75386077D01*
X53340138Y-75516215D01*
X53287243Y-75388200D01*
X52883923Y-74984176D01*
X52356691Y-74765250D01*
X51785813Y-74764752D01*
X51258200Y-74982757D01*
X50854176Y-75386077D01*
X50800138Y-75516215D01*
X50747243Y-75388200D01*
X50343923Y-74984176D01*
X49816691Y-74765250D01*
X49245813Y-74764752D01*
X48718200Y-74982757D01*
X48314176Y-75386077D01*
X48095250Y-75913309D01*
X48094752Y-76484187D01*
X27784752Y-76484187D01*
X27785413Y-75727675D01*
X27423084Y-74850771D01*
X26752758Y-74179274D01*
X25876487Y-73815415D01*
X24927675Y-73814587D01*
X24050771Y-74176916D01*
X23379274Y-74847242D01*
X23015415Y-75723513D01*
X23014587Y-76672325D01*
X18490000Y-76672325D01*
X18490000Y-76269931D01*
X19028844Y-73560979D01*
X19708221Y-72544218D01*
X33393284Y-72544218D01*
X33457914Y-72899854D01*
X34202373Y-73082796D01*
X34960173Y-72966920D01*
X35122086Y-72899854D01*
X35186716Y-72544218D01*
X34290000Y-71647502D01*
X33393284Y-72544218D01*
X19708221Y-72544218D01*
X20523727Y-71323727D01*
X20959769Y-71032373D01*
X32327204Y-71032373D01*
X32443080Y-71790173D01*
X32510146Y-71952086D01*
X32865782Y-72016716D01*
X33762498Y-71120000D01*
X32865782Y-70223284D01*
X32510146Y-70287914D01*
X32327204Y-71032373D01*
X20959769Y-71032373D01*
X22760979Y-69828844D01*
X25469931Y-69290000D01*
X33578978Y-69290000D01*
X33457914Y-69340146D01*
X33457914Y-69340146D01*
G37*
X33457914Y-69340146D02*
X33393284Y-69695782D01*
X34290000Y-70592498D01*
X35186716Y-69695782D01*
X35122086Y-69340146D01*
X34918023Y-69290000D01*
X101530069Y-69290000D01*
X104239021Y-69828844D01*
X106476273Y-71323727D01*
X107971156Y-73560979D01*
X108510000Y-76269931D01*
X108510000Y-152330069D01*
X107971156Y-155039021D01*
X106476273Y-157276273D01*
X104239021Y-158771156D01*
X101530069Y-159310000D01*
X25469931Y-159310000D01*
X22760979Y-158771156D01*
X20523727Y-157276273D01*
X19028844Y-155039021D01*
X18597862Y-152872325D01*
X23014587Y-152872325D01*
X23376916Y-153749229D01*
X24047242Y-154420726D01*
X24923513Y-154784585D01*
X25872325Y-154785413D01*
X26749229Y-154423084D01*
X27420726Y-153752758D01*
X27515131Y-153525403D01*
X32200682Y-153525403D01*
X32479455Y-154200086D01*
X32995199Y-154716730D01*
X33669395Y-154996681D01*
X34399403Y-154997318D01*
X35074086Y-154718545D01*
X35590730Y-154202801D01*
X35870681Y-153528605D01*
X35870683Y-153525403D01*
X91128682Y-153525403D01*
X91407455Y-154200086D01*
X91923199Y-154716730D01*
X92597395Y-154996681D01*
X93327403Y-154997318D01*
X94002086Y-154718545D01*
X94518730Y-154202801D01*
X94798681Y-153528605D01*
X94799253Y-152872325D01*
X99214587Y-152872325D01*
X99576916Y-153749229D01*
X100247242Y-154420726D01*
X101123513Y-154784585D01*
X102072325Y-154785413D01*
X102949229Y-154423084D01*
X103620726Y-153752758D01*
X103984585Y-152876487D01*
X103985413Y-151927675D01*
X103623084Y-151050771D01*
X102952758Y-150379274D01*
X102076487Y-150015415D01*
X101127675Y-150014587D01*
X100250771Y-150376916D01*
X99579274Y-151047242D01*
X99215415Y-151923513D01*
X99214587Y-152872325D01*
X94799253Y-152872325D01*
X94799318Y-152798597D01*
X94520545Y-152123914D01*
X94004801Y-151607270D01*
X93330605Y-151327319D01*
X92600597Y-151326682D01*
X91925914Y-151605455D01*
X91409270Y-152121199D01*
X91129319Y-152795395D01*
X91128682Y-153525403D01*
X35870683Y-153525403D01*
X35871318Y-152798597D01*
X35592545Y-152123914D01*
X35076801Y-151607270D01*
X34402605Y-151327319D01*
X33672597Y-151326682D01*
X32997914Y-151605455D01*
X32481270Y-152121199D01*
X32201319Y-152795395D01*
X32200682Y-153525403D01*
X27515131Y-153525403D01*
X27784585Y-152876487D01*
X27785413Y-151927675D01*
X27423084Y-151050771D01*
X26752758Y-150379274D01*
X25876487Y-150015415D01*
X24927675Y-150014587D01*
X24050771Y-150376916D01*
X23379274Y-151047242D01*
X23015415Y-151923513D01*
X23014587Y-152872325D01*
X18597862Y-152872325D01*
X18490000Y-152330069D01*
X18490000Y-149077177D01*
X34369574Y-149077177D01*
X34743298Y-149981657D01*
X35434703Y-150674270D01*
X36338529Y-151049572D01*
X37317177Y-151050426D01*
X38221657Y-150676702D01*
X38914270Y-149985297D01*
X39289572Y-149081471D01*
X39289575Y-149077177D01*
X87709574Y-149077177D01*
X88083298Y-149981657D01*
X88774703Y-150674270D01*
X89678529Y-151049572D01*
X90657177Y-151050426D01*
X91561657Y-150676702D01*
X92254270Y-149985297D01*
X92629572Y-149081471D01*
X92630426Y-148102823D01*
X92256702Y-147198343D01*
X91565297Y-146505730D01*
X90661471Y-146130428D01*
X89682823Y-146129574D01*
X88778343Y-146503298D01*
X88085730Y-147194703D01*
X87710428Y-148098529D01*
X87709574Y-149077177D01*
X39289575Y-149077177D01*
X39290426Y-148102823D01*
X38916702Y-147198343D01*
X38225297Y-146505730D01*
X37321471Y-146130428D01*
X36342823Y-146129574D01*
X35438343Y-146503298D01*
X34745730Y-147194703D01*
X34370428Y-148098529D01*
X34369574Y-149077177D01*
X18490000Y-149077177D01*
X18490000Y-141490000D01*
X36702560Y-141490000D01*
X36702560Y-142990000D01*
X36746838Y-143225317D01*
X36885910Y-143441441D01*
X37098110Y-143586431D01*
X37350000Y-143637440D01*
X38850000Y-143637440D01*
X39085317Y-143593162D01*
X39301441Y-143454090D01*
X39446431Y-143241890D01*
X39486355Y-143044738D01*
X39854436Y-143413461D01*
X40363298Y-143624759D01*
X40914285Y-143625240D01*
X41423515Y-143414831D01*
X41813461Y-143025564D01*
X41909976Y-142793130D01*
X42005169Y-143023515D01*
X42394436Y-143413461D01*
X42903298Y-143624759D01*
X43454285Y-143625240D01*
X43963515Y-143414831D01*
X44353461Y-143025564D01*
X44449976Y-142793130D01*
X44545169Y-143023515D01*
X44934436Y-143413461D01*
X45443298Y-143624759D01*
X45994285Y-143625240D01*
X46503515Y-143414831D01*
X46893461Y-143025564D01*
X47104759Y-142516702D01*
X47105240Y-141965715D01*
X46908680Y-141490000D01*
X50672560Y-141490000D01*
X50672560Y-142990000D01*
X50716838Y-143225317D01*
X50855910Y-143441441D01*
X51068110Y-143586431D01*
X51320000Y-143637440D01*
X52820000Y-143637440D01*
X53055317Y-143593162D01*
X53271441Y-143454090D01*
X53416431Y-143241890D01*
X53456355Y-143044738D01*
X53824436Y-143413461D01*
X54333298Y-143624759D01*
X54884285Y-143625240D01*
X55393515Y-143414831D01*
X55783461Y-143025564D01*
X55879976Y-142793130D01*
X55975169Y-143023515D01*
X56364436Y-143413461D01*
X56873298Y-143624759D01*
X57424285Y-143625240D01*
X57933515Y-143414831D01*
X58323461Y-143025564D01*
X58419976Y-142793130D01*
X58515169Y-143023515D01*
X58904436Y-143413461D01*
X59413298Y-143624759D01*
X59964285Y-143625240D01*
X60473515Y-143414831D01*
X60863461Y-143025564D01*
X61074759Y-142516702D01*
X61075240Y-141965715D01*
X60864831Y-141456485D01*
X60475564Y-141066539D01*
X59966702Y-140855241D01*
X59415715Y-140854760D01*
X58906485Y-141065169D01*
X58516539Y-141454436D01*
X58420024Y-141686870D01*
X58324831Y-141456485D01*
X57935564Y-141066539D01*
X57426702Y-140855241D01*
X56875715Y-140854760D01*
X56366485Y-141065169D01*
X55976539Y-141454436D01*
X55880024Y-141686870D01*
X55784831Y-141456485D01*
X55395564Y-141066539D01*
X54886702Y-140855241D01*
X54335715Y-140854760D01*
X53826485Y-141065169D01*
X53456920Y-141434091D01*
X53423162Y-141254683D01*
X53313960Y-141084978D01*
X53614285Y-141085240D01*
X54123515Y-140874831D01*
X54513461Y-140485564D01*
X54609976Y-140253130D01*
X54705169Y-140483515D01*
X55094436Y-140873461D01*
X55603298Y-141084759D01*
X56154285Y-141085240D01*
X56663515Y-140874831D01*
X57053461Y-140485564D01*
X57149976Y-140253130D01*
X57245169Y-140483515D01*
X57634436Y-140873461D01*
X58143298Y-141084759D01*
X58694285Y-141085240D01*
X59203515Y-140874831D01*
X59593461Y-140485564D01*
X59689976Y-140253130D01*
X59785169Y-140483515D01*
X60174436Y-140873461D01*
X60683298Y-141084759D01*
X61234285Y-141085240D01*
X61743515Y-140874831D01*
X62133461Y-140485564D01*
X62344759Y-139976702D01*
X62345240Y-139425715D01*
X62134831Y-138916485D01*
X61745564Y-138526539D01*
X61236702Y-138315241D01*
X60685715Y-138314760D01*
X60176485Y-138525169D01*
X59786539Y-138914436D01*
X59690024Y-139146870D01*
X59594831Y-138916485D01*
X59205564Y-138526539D01*
X58696702Y-138315241D01*
X58145715Y-138314760D01*
X57636485Y-138525169D01*
X57246539Y-138914436D01*
X57150024Y-139146870D01*
X57054831Y-138916485D01*
X56665564Y-138526539D01*
X56156702Y-138315241D01*
X55605715Y-138314760D01*
X55096485Y-138525169D01*
X54706539Y-138914436D01*
X54610024Y-139146870D01*
X54514831Y-138916485D01*
X54125564Y-138526539D01*
X53616702Y-138315241D01*
X53065715Y-138314760D01*
X52556485Y-138525169D01*
X52166539Y-138914436D01*
X51955241Y-139423298D01*
X51954760Y-139974285D01*
X52165169Y-140483515D01*
X52523589Y-140842560D01*
X51320000Y-140842560D01*
X51084683Y-140886838D01*
X50868559Y-141025910D01*
X50723569Y-141238110D01*
X50672560Y-141490000D01*
X46908680Y-141490000D01*
X46894831Y-141456485D01*
X46505564Y-141066539D01*
X45996702Y-140855241D01*
X45445715Y-140854760D01*
X44936485Y-141065169D01*
X44546539Y-141454436D01*
X44450024Y-141686870D01*
X44354831Y-141456485D01*
X43965564Y-141066539D01*
X43456702Y-140855241D01*
X42905715Y-140854760D01*
X42396485Y-141065169D01*
X42006539Y-141454436D01*
X41910024Y-141686870D01*
X41814831Y-141456485D01*
X41425564Y-141066539D01*
X40916702Y-140855241D01*
X40365715Y-140854760D01*
X39856485Y-141065169D01*
X39486920Y-141434091D01*
X39453162Y-141254683D01*
X39343960Y-141084978D01*
X39644285Y-141085240D01*
X40153515Y-140874831D01*
X40543461Y-140485564D01*
X40639976Y-140253130D01*
X40735169Y-140483515D01*
X41124436Y-140873461D01*
X41633298Y-141084759D01*
X42184285Y-141085240D01*
X42693515Y-140874831D01*
X43083461Y-140485564D01*
X43179976Y-140253130D01*
X43275169Y-140483515D01*
X43664436Y-140873461D01*
X44173298Y-141084759D01*
X44724285Y-141085240D01*
X45233515Y-140874831D01*
X45623461Y-140485564D01*
X45719976Y-140253130D01*
X45815169Y-140483515D01*
X46204436Y-140873461D01*
X46713298Y-141084759D01*
X47264285Y-141085240D01*
X47773515Y-140874831D01*
X48163461Y-140485564D01*
X48374759Y-139976702D01*
X48375240Y-139425715D01*
X48164831Y-138916485D01*
X47775564Y-138526539D01*
X47266702Y-138315241D01*
X46715715Y-138314760D01*
X46206485Y-138525169D01*
X45816539Y-138914436D01*
X45720024Y-139146870D01*
X45624831Y-138916485D01*
X45235564Y-138526539D01*
X44726702Y-138315241D01*
X44175715Y-138314760D01*
X43666485Y-138525169D01*
X43276539Y-138914436D01*
X43180024Y-139146870D01*
X43084831Y-138916485D01*
X42695564Y-138526539D01*
X42186702Y-138315241D01*
X41635715Y-138314760D01*
X41126485Y-138525169D01*
X40736539Y-138914436D01*
X40640024Y-139146870D01*
X40544831Y-138916485D01*
X40155564Y-138526539D01*
X39646702Y-138315241D01*
X39095715Y-138314760D01*
X38586485Y-138525169D01*
X38196539Y-138914436D01*
X37985241Y-139423298D01*
X37984760Y-139974285D01*
X38195169Y-140483515D01*
X38553589Y-140842560D01*
X37350000Y-140842560D01*
X37114683Y-140886838D01*
X36898559Y-141025910D01*
X36753569Y-141238110D01*
X36702560Y-141490000D01*
X18490000Y-141490000D01*
X18490000Y-139809403D01*
X32861082Y-139809403D01*
X33139855Y-140484086D01*
X33655599Y-141000730D01*
X34329795Y-141280681D01*
X35059803Y-141281318D01*
X35734486Y-141002545D01*
X36251130Y-140486801D01*
X36531081Y-139812605D01*
X36531718Y-139082597D01*
X36252945Y-138407914D01*
X35737201Y-137891270D01*
X35063005Y-137611319D01*
X34332997Y-137610682D01*
X33658314Y-137889455D01*
X33141670Y-138405199D01*
X32861719Y-139079395D01*
X32861082Y-139809403D01*
X18490000Y-139809403D01*
X18490000Y-133484803D01*
X32200682Y-133484803D01*
X32479455Y-134159486D01*
X32995199Y-134676130D01*
X33669395Y-134956081D01*
X34399403Y-134956718D01*
X35074086Y-134677945D01*
X35590730Y-134162201D01*
X35870681Y-133488005D01*
X35871318Y-132757997D01*
X35592545Y-132083314D01*
X35076801Y-131566670D01*
X34402605Y-131286719D01*
X33672597Y-131286082D01*
X32997914Y-131564855D01*
X32481270Y-132080599D01*
X32201319Y-132754795D01*
X32200682Y-133484803D01*
X18490000Y-133484803D01*
X18490000Y-127284187D01*
X37934752Y-127284187D01*
X38152757Y-127811800D01*
X38556077Y-128215824D01*
X39083309Y-128434750D01*
X39654187Y-128435248D01*
X40181800Y-128217243D01*
X40585824Y-127813923D01*
X40804750Y-127286691D01*
X40805248Y-126715813D01*
X40587243Y-126188200D01*
X40183923Y-125784176D01*
X39656691Y-125565250D01*
X39085813Y-125564752D01*
X38558200Y-125782757D01*
X38154176Y-126186077D01*
X37935250Y-126713309D01*
X37934752Y-127284187D01*
X18490000Y-127284187D01*
X18490000Y-122390000D01*
X37922560Y-122390000D01*
X37922560Y-123990000D01*
X37966838Y-124225317D01*
X38105910Y-124441441D01*
X38318110Y-124586431D01*
X38570000Y-124637440D01*
X40170000Y-124637440D01*
X40405317Y-124593162D01*
X40522739Y-124517603D01*
X41100509Y-124938754D01*
X41245844Y-124998929D01*
X41537000Y-124792410D01*
X41537000Y-123563000D01*
X42283000Y-123563000D01*
X42283000Y-124792410D01*
X42574156Y-124998929D01*
X42719491Y-124938754D01*
X43180000Y-124603077D01*
X43640509Y-124938754D01*
X43785844Y-124998929D01*
X44077000Y-124792410D01*
X44077000Y-123563000D01*
X42283000Y-123563000D01*
X41537000Y-123563000D01*
X41517000Y-123563000D01*
X41517000Y-122817000D01*
X41537000Y-122817000D01*
X41537000Y-121587590D01*
X42283000Y-121587590D01*
X42283000Y-122817000D01*
X44077000Y-122817000D01*
X44077000Y-121587590D01*
X43785844Y-121381071D01*
X43640509Y-121441246D01*
X43180000Y-121776923D01*
X42719491Y-121441246D01*
X42574156Y-121381071D01*
X42283000Y-121587590D01*
X41537000Y-121587590D01*
X41245844Y-121381071D01*
X41100509Y-121441246D01*
X40522683Y-121862438D01*
X40421890Y-121793569D01*
X40170000Y-121742560D01*
X38570000Y-121742560D01*
X38334683Y-121786838D01*
X38118559Y-121925910D01*
X37973569Y-122138110D01*
X37922560Y-122390000D01*
X18490000Y-122390000D01*
X18490000Y-116234159D01*
X37561048Y-116234159D01*
X37952909Y-116875859D01*
X38560509Y-117318754D01*
X38705844Y-117378929D01*
X38997000Y-117172410D01*
X38997000Y-115943000D01*
X37761172Y-115943000D01*
X37561048Y-116234159D01*
X18490000Y-116234159D01*
X18490000Y-111672373D01*
X37407204Y-111672373D01*
X37523080Y-112430173D01*
X37590146Y-112592086D01*
X37945782Y-112656716D01*
X38842498Y-111760000D01*
X39897502Y-111760000D01*
X40794218Y-112656716D01*
X41149854Y-112592086D01*
X41332796Y-111847627D01*
X41216920Y-111089827D01*
X41149854Y-110927914D01*
X40794218Y-110863284D01*
X39897502Y-111760000D01*
X38842498Y-111760000D01*
X37945782Y-110863284D01*
X37590146Y-110927914D01*
X37407204Y-111672373D01*
X18490000Y-111672373D01*
X18490000Y-110335782D01*
X38473284Y-110335782D01*
X39370000Y-111232498D01*
X40266716Y-110335782D01*
X40202086Y-109980146D01*
X39457627Y-109797204D01*
X38699827Y-109913080D01*
X38537914Y-109980146D01*
X38473284Y-110335782D01*
X18490000Y-110335782D01*
X18490000Y-92710000D01*
X18684999Y-92710000D01*
X18685000Y-92710005D01*
X18685000Y-96519995D01*
X18684999Y-96520000D01*
X18809457Y-97145688D01*
X19163880Y-97676120D01*
X20433878Y-98946117D01*
X20433880Y-98946120D01*
X20751851Y-99158581D01*
X20964312Y-99300543D01*
X21225000Y-99352397D01*
X21225000Y-107950000D01*
X21349457Y-108575687D01*
X21703880Y-109106120D01*
X22234313Y-109460543D01*
X22860000Y-109585000D01*
X23485687Y-109460543D01*
X24016120Y-109106120D01*
X24370543Y-108575687D01*
X24495000Y-107950000D01*
X29016887Y-107950000D01*
X29126120Y-108499151D01*
X29437189Y-108964698D01*
X29902736Y-109275767D01*
X30451887Y-109385000D01*
X30508113Y-109385000D01*
X31057264Y-109275767D01*
X31522811Y-108964698D01*
X31833880Y-108499151D01*
X31943113Y-107950000D01*
X31833880Y-107400849D01*
X31522811Y-106935302D01*
X31057264Y-106624233D01*
X30508113Y-106515000D01*
X30451887Y-106515000D01*
X29902736Y-106624233D01*
X29437189Y-106935302D01*
X29126120Y-107400849D01*
X29016887Y-107950000D01*
X24495000Y-107950000D01*
X24495000Y-102870000D01*
X29016887Y-102870000D01*
X29126120Y-103419151D01*
X29437189Y-103884698D01*
X29902736Y-104195767D01*
X30451887Y-104305000D01*
X30508113Y-104305000D01*
X31057264Y-104195767D01*
X31522811Y-103884698D01*
X31833880Y-103419151D01*
X31943113Y-102870000D01*
X31833880Y-102320849D01*
X31666268Y-102070000D01*
X37922560Y-102070000D01*
X37922560Y-103670000D01*
X37966838Y-103905317D01*
X38105910Y-104121441D01*
X38318110Y-104266431D01*
X38570000Y-104317440D01*
X40170000Y-104317440D01*
X40405317Y-104273162D01*
X40522739Y-104197603D01*
X41100509Y-104618754D01*
X41245844Y-104678929D01*
X41537000Y-104472410D01*
X41537000Y-103243000D01*
X42283000Y-103243000D01*
X42283000Y-104472410D01*
X42574156Y-104678929D01*
X42719491Y-104618754D01*
X43180000Y-104283077D01*
X43640509Y-104618754D01*
X43785844Y-104678929D01*
X44077000Y-104472410D01*
X44077000Y-103243000D01*
X42283000Y-103243000D01*
X41537000Y-103243000D01*
X41517000Y-103243000D01*
X41517000Y-102497000D01*
X41537000Y-102497000D01*
X41537000Y-101267590D01*
X42283000Y-101267590D01*
X42283000Y-102497000D01*
X44077000Y-102497000D01*
X44077000Y-101267590D01*
X43785844Y-101061071D01*
X43640509Y-101121246D01*
X43180000Y-101456923D01*
X42719491Y-101121246D01*
X42574156Y-101061071D01*
X42283000Y-101267590D01*
X41537000Y-101267590D01*
X41245844Y-101061071D01*
X41100509Y-101121246D01*
X40522683Y-101542438D01*
X40421890Y-101473569D01*
X40170000Y-101422560D01*
X38570000Y-101422560D01*
X38334683Y-101466838D01*
X38118559Y-101605910D01*
X37973569Y-101818110D01*
X37922560Y-102070000D01*
X31666268Y-102070000D01*
X31522811Y-101855302D01*
X31057264Y-101544233D01*
X30508113Y-101435000D01*
X30451887Y-101435000D01*
X29902736Y-101544233D01*
X29437189Y-101855302D01*
X29126120Y-102320849D01*
X29016887Y-102870000D01*
X24495000Y-102870000D01*
X24495000Y-97790000D01*
X28896887Y-97790000D01*
X29006120Y-98339151D01*
X29317189Y-98804698D01*
X29782736Y-99115767D01*
X30331887Y-99225000D01*
X30388113Y-99225000D01*
X30937264Y-99115767D01*
X31402811Y-98804698D01*
X31713880Y-98339151D01*
X31823113Y-97790000D01*
X31713880Y-97240849D01*
X31402811Y-96775302D01*
X30937264Y-96464233D01*
X30388113Y-96355000D01*
X30331887Y-96355000D01*
X29782736Y-96464233D01*
X29317189Y-96775302D01*
X29006120Y-97240849D01*
X28896887Y-97790000D01*
X24495000Y-97790000D01*
X24370543Y-97164313D01*
X24016120Y-96633880D01*
X23485687Y-96279457D01*
X22860000Y-96155000D01*
X22267239Y-96155000D01*
X22026399Y-95914159D01*
X37561048Y-95914159D01*
X37952909Y-96555859D01*
X38560509Y-96998754D01*
X38705844Y-97058929D01*
X38997000Y-96852410D01*
X38997000Y-95623000D01*
X37761172Y-95623000D01*
X37561048Y-95914159D01*
X22026399Y-95914159D01*
X21955000Y-95842760D01*
X21955000Y-95050802D01*
X22067630Y-95163629D01*
X22580900Y-95376757D01*
X23136661Y-95377242D01*
X23650303Y-95165010D01*
X24043629Y-94772370D01*
X24129949Y-94564488D01*
X24214990Y-94770303D01*
X24607630Y-95163629D01*
X25120900Y-95376757D01*
X25676661Y-95377242D01*
X26190303Y-95165010D01*
X26583629Y-94772370D01*
X26669949Y-94564488D01*
X26754990Y-94770303D01*
X27147630Y-95163629D01*
X27660900Y-95376757D01*
X28216661Y-95377242D01*
X28730303Y-95165010D01*
X29123629Y-94772370D01*
X29209949Y-94564488D01*
X29294990Y-94770303D01*
X29687630Y-95163629D01*
X30200900Y-95376757D01*
X30756661Y-95377242D01*
X31270303Y-95165010D01*
X31663629Y-94772370D01*
X31876757Y-94259100D01*
X31877242Y-93703339D01*
X31811818Y-93545000D01*
X38500484Y-93545000D01*
X37952909Y-93944141D01*
X37561048Y-94585841D01*
X37761172Y-94877000D01*
X38997000Y-94877000D01*
X38997000Y-94857000D01*
X39743000Y-94857000D01*
X39743000Y-94877000D01*
X39763000Y-94877000D01*
X39763000Y-95623000D01*
X39743000Y-95623000D01*
X39743000Y-96852410D01*
X40034156Y-97058929D01*
X40179491Y-96998754D01*
X40787091Y-96555859D01*
X40932533Y-96317688D01*
X41360849Y-96603880D01*
X41910000Y-96713113D01*
X42459151Y-96603880D01*
X42924698Y-96292811D01*
X43180000Y-95910725D01*
X43435302Y-96292811D01*
X43615000Y-96412882D01*
X43615000Y-96450300D01*
X43678561Y-96769841D01*
X43816364Y-96976077D01*
X43859566Y-97040734D01*
X44815300Y-97996468D01*
X44815300Y-104140000D01*
X44823000Y-104178710D01*
X44823000Y-104472410D01*
X44945534Y-104559324D01*
X45059866Y-104730434D01*
X45975690Y-105646258D01*
X45947189Y-105665302D01*
X45636120Y-106130849D01*
X45526887Y-106680000D01*
X45636120Y-107229151D01*
X45947189Y-107694698D01*
X46155000Y-107833553D01*
X46155000Y-107880300D01*
X46218561Y-108199841D01*
X46399566Y-108470734D01*
X47355400Y-109426568D01*
X47355400Y-110415960D01*
X46898113Y-110325000D01*
X46841887Y-110325000D01*
X46292736Y-110434233D01*
X45827189Y-110745302D01*
X45516120Y-111210849D01*
X45444048Y-111573180D01*
X40804779Y-106933911D01*
X40805248Y-106395813D01*
X40587243Y-105868200D01*
X40183923Y-105464176D01*
X39656691Y-105245250D01*
X39085813Y-105244752D01*
X38558200Y-105462757D01*
X38154176Y-105866077D01*
X37935250Y-106393309D01*
X37934752Y-106964187D01*
X38152757Y-107491800D01*
X38556077Y-107895824D01*
X39083309Y-108114750D01*
X39624354Y-108115222D01*
X44885000Y-113375868D01*
X44885000Y-114193414D01*
X44450000Y-114106887D01*
X43900849Y-114216120D01*
X43435302Y-114527189D01*
X43180000Y-114909275D01*
X42924698Y-114527189D01*
X42459151Y-114216120D01*
X41910000Y-114106887D01*
X41360849Y-114216120D01*
X40932533Y-114502312D01*
X40787091Y-114264141D01*
X40179491Y-113821246D01*
X40034156Y-113761071D01*
X39743002Y-113967589D01*
X39743002Y-113652361D01*
X40040173Y-113606920D01*
X40202086Y-113539854D01*
X40266716Y-113184218D01*
X39370000Y-112287502D01*
X38473284Y-113184218D01*
X38537914Y-113539854D01*
X38996998Y-113652668D01*
X38996998Y-113967589D01*
X38705844Y-113761071D01*
X38560509Y-113821246D01*
X37952909Y-114264141D01*
X37561048Y-114905841D01*
X37761172Y-115197000D01*
X38997000Y-115197000D01*
X38997000Y-115177000D01*
X39743000Y-115177000D01*
X39743000Y-115197000D01*
X39763000Y-115197000D01*
X39763000Y-115943000D01*
X39743000Y-115943000D01*
X39743000Y-117172410D01*
X40034156Y-117378929D01*
X40179491Y-117318754D01*
X40787091Y-116875859D01*
X40932533Y-116637688D01*
X41360849Y-116923880D01*
X41910000Y-117033113D01*
X42459151Y-116923880D01*
X42924698Y-116612811D01*
X43180000Y-116230725D01*
X43435302Y-116612811D01*
X43900849Y-116923880D01*
X44450000Y-117033113D01*
X44885000Y-116946586D01*
X44885000Y-121543613D01*
X44823000Y-121587590D01*
X44823000Y-122817000D01*
X44843000Y-122817000D01*
X44843000Y-123563000D01*
X44823000Y-123563000D01*
X44823000Y-124792410D01*
X44885000Y-124836387D01*
X44885000Y-131802372D01*
X44726702Y-131736641D01*
X44175715Y-131736160D01*
X43666485Y-131946569D01*
X43276539Y-132335836D01*
X43180024Y-132568270D01*
X43084831Y-132337885D01*
X42695564Y-131947939D01*
X42186702Y-131736641D01*
X41635715Y-131736160D01*
X41126485Y-131946569D01*
X40736539Y-132335836D01*
X40640024Y-132568270D01*
X40544831Y-132337885D01*
X40155564Y-131947939D01*
X39646702Y-131736641D01*
X39095715Y-131736160D01*
X38586485Y-131946569D01*
X38196539Y-132335836D01*
X37985241Y-132844698D01*
X37984760Y-133395685D01*
X38195169Y-133904915D01*
X38584436Y-134294861D01*
X39093298Y-134506159D01*
X39644285Y-134506640D01*
X40153515Y-134296231D01*
X40543461Y-133906964D01*
X40639976Y-133674530D01*
X40735169Y-133904915D01*
X41124436Y-134294861D01*
X41633298Y-134506159D01*
X42184285Y-134506640D01*
X42693515Y-134296231D01*
X43083461Y-133906964D01*
X43179976Y-133674530D01*
X43275169Y-133904915D01*
X43664436Y-134294861D01*
X44173298Y-134506159D01*
X44724285Y-134506640D01*
X44885000Y-134440234D01*
X44885000Y-134537964D01*
X44546539Y-134875836D01*
X44450024Y-135108270D01*
X44354831Y-134877885D01*
X43965564Y-134487939D01*
X43456702Y-134276641D01*
X42905715Y-134276160D01*
X42396485Y-134486569D01*
X42006539Y-134875836D01*
X41910024Y-135108270D01*
X41814831Y-134877885D01*
X41425564Y-134487939D01*
X40916702Y-134276641D01*
X40365715Y-134276160D01*
X39856485Y-134486569D01*
X39466539Y-134875836D01*
X39370024Y-135108270D01*
X39274831Y-134877885D01*
X38885564Y-134487939D01*
X38376702Y-134276641D01*
X37825715Y-134276160D01*
X37316485Y-134486569D01*
X36926539Y-134875836D01*
X36715241Y-135384698D01*
X36714760Y-135935685D01*
X36925169Y-136444915D01*
X37314436Y-136834861D01*
X37823298Y-137046159D01*
X38374285Y-137046640D01*
X38883515Y-136836231D01*
X39273461Y-136446964D01*
X39369976Y-136214530D01*
X39465169Y-136444915D01*
X39854436Y-136834861D01*
X40363298Y-137046159D01*
X40914285Y-137046640D01*
X41423515Y-136836231D01*
X41813461Y-136446964D01*
X41909976Y-136214530D01*
X42005169Y-136444915D01*
X42394436Y-136834861D01*
X42903298Y-137046159D01*
X43454285Y-137046640D01*
X43963515Y-136836231D01*
X44353461Y-136446964D01*
X44449976Y-136214530D01*
X44545169Y-136444915D01*
X44934436Y-136834861D01*
X45443298Y-137046159D01*
X45994285Y-137046640D01*
X46503515Y-136836231D01*
X46893461Y-136446964D01*
X47104759Y-135938102D01*
X47104761Y-135935685D01*
X50684760Y-135935685D01*
X50895169Y-136444915D01*
X51284436Y-136834861D01*
X51793298Y-137046159D01*
X52344285Y-137046640D01*
X52853515Y-136836231D01*
X53243461Y-136446964D01*
X53339976Y-136214530D01*
X53435169Y-136444915D01*
X53824436Y-136834861D01*
X54333298Y-137046159D01*
X54884285Y-137046640D01*
X55393515Y-136836231D01*
X55783461Y-136446964D01*
X55879976Y-136214530D01*
X55975169Y-136444915D01*
X56364436Y-136834861D01*
X56873298Y-137046159D01*
X57424285Y-137046640D01*
X57933515Y-136836231D01*
X58323461Y-136446964D01*
X58419976Y-136214530D01*
X58515169Y-136444915D01*
X58904436Y-136834861D01*
X59413298Y-137046159D01*
X59964285Y-137046640D01*
X60473515Y-136836231D01*
X60863461Y-136446964D01*
X61074759Y-135938102D01*
X61075240Y-135387115D01*
X60864831Y-134877885D01*
X60525000Y-134537461D01*
X60525000Y-134518840D01*
X61710000Y-134518840D01*
X61945317Y-134474562D01*
X62161441Y-134335490D01*
X62306431Y-134123290D01*
X62357440Y-133871400D01*
X62357440Y-132371400D01*
X62313162Y-132136083D01*
X62181106Y-131930862D01*
X62337950Y-131774018D01*
X62578455Y-132356086D01*
X63094199Y-132872730D01*
X63768395Y-133152681D01*
X64498403Y-133153318D01*
X65173086Y-132874545D01*
X65689730Y-132358801D01*
X65969681Y-131684605D01*
X65970318Y-130954597D01*
X65691545Y-130279914D01*
X65175801Y-129763270D01*
X64501605Y-129483319D01*
X63771597Y-129482682D01*
X63096914Y-129761455D01*
X62995400Y-129862792D01*
X62995400Y-116234159D01*
X65501048Y-116234159D01*
X65892909Y-116875859D01*
X66500509Y-117318754D01*
X66645844Y-117378929D01*
X66937000Y-117172410D01*
X66937000Y-115943000D01*
X65701172Y-115943000D01*
X65501048Y-116234159D01*
X62995400Y-116234159D01*
X62995400Y-111672373D01*
X65347204Y-111672373D01*
X65463080Y-112430173D01*
X65530146Y-112592086D01*
X65885782Y-112656716D01*
X66782498Y-111760000D01*
X67837502Y-111760000D01*
X68734218Y-112656716D01*
X69089854Y-112592086D01*
X69272796Y-111847627D01*
X69156920Y-111089827D01*
X69089854Y-110927914D01*
X68734218Y-110863284D01*
X67837502Y-111760000D01*
X66782498Y-111760000D01*
X65885782Y-110863284D01*
X65530146Y-110927914D01*
X65347204Y-111672373D01*
X62995400Y-111672373D01*
X62995400Y-110335782D01*
X66413284Y-110335782D01*
X67310000Y-111232498D01*
X68206716Y-110335782D01*
X68142086Y-109980146D01*
X67397627Y-109797204D01*
X66639827Y-109913080D01*
X66477914Y-109980146D01*
X66413284Y-110335782D01*
X62995400Y-110335782D01*
X62995400Y-109080700D01*
X62931839Y-108761159D01*
X62750834Y-108490266D01*
X61974310Y-107713742D01*
X62002811Y-107694698D01*
X62313880Y-107229151D01*
X62423113Y-106680000D01*
X62313880Y-106130849D01*
X62002811Y-105665302D01*
X61537264Y-105354233D01*
X60988113Y-105245000D01*
X60931887Y-105245000D01*
X60382736Y-105354233D01*
X59917189Y-105665302D01*
X59606120Y-106130849D01*
X59496887Y-106680000D01*
X59606120Y-107229151D01*
X59917189Y-107694698D01*
X60125000Y-107833553D01*
X60125000Y-107880300D01*
X60188561Y-108199841D01*
X60369566Y-108470734D01*
X61325400Y-109426568D01*
X61325400Y-110415960D01*
X60868113Y-110325000D01*
X60811887Y-110325000D01*
X60262736Y-110434233D01*
X59797189Y-110745302D01*
X59486120Y-111210849D01*
X59376887Y-111760000D01*
X59486120Y-112309151D01*
X59797189Y-112774698D01*
X60262736Y-113085767D01*
X60811887Y-113195000D01*
X60868113Y-113195000D01*
X61325400Y-113104040D01*
X61325400Y-114179570D01*
X60960000Y-114106887D01*
X60410849Y-114216120D01*
X59945302Y-114527189D01*
X59690000Y-114909275D01*
X59434698Y-114527189D01*
X58969151Y-114216120D01*
X58420000Y-114106887D01*
X57925000Y-114205349D01*
X57925000Y-110430000D01*
X57861439Y-110110459D01*
X57680434Y-109839566D01*
X54774779Y-106933911D01*
X54775248Y-106395813D01*
X54557243Y-105868200D01*
X54153923Y-105464176D01*
X53626691Y-105245250D01*
X53055813Y-105244752D01*
X52528200Y-105462757D01*
X52124176Y-105866077D01*
X51905250Y-106393309D01*
X51904752Y-106964187D01*
X52122757Y-107491800D01*
X52526077Y-107895824D01*
X53053309Y-108114750D01*
X53594354Y-108115222D01*
X56255000Y-110775868D01*
X56255000Y-114181479D01*
X55880000Y-114106887D01*
X55330849Y-114216120D01*
X54902533Y-114502312D01*
X54757091Y-114264141D01*
X54149491Y-113821246D01*
X54004156Y-113761071D01*
X53713002Y-113967589D01*
X53713002Y-113652361D01*
X54010173Y-113606920D01*
X54172086Y-113539854D01*
X54236716Y-113184218D01*
X53340000Y-112287502D01*
X52443284Y-113184218D01*
X52507914Y-113539854D01*
X52966998Y-113652668D01*
X52966998Y-113967589D01*
X52675844Y-113761071D01*
X52530509Y-113821246D01*
X51922909Y-114264141D01*
X51531048Y-114905841D01*
X51731172Y-115197000D01*
X52967000Y-115197000D01*
X52967000Y-115177000D01*
X53713000Y-115177000D01*
X53713000Y-115197000D01*
X53733000Y-115197000D01*
X53733000Y-115943000D01*
X53713000Y-115943000D01*
X53713000Y-117172410D01*
X54004156Y-117378929D01*
X54149491Y-117318754D01*
X54153870Y-117315562D01*
X54089266Y-117380166D01*
X53908261Y-117651059D01*
X53844700Y-117970600D01*
X53844700Y-121742560D01*
X52540000Y-121742560D01*
X52304683Y-121786838D01*
X52088559Y-121925910D01*
X51943569Y-122138110D01*
X51892560Y-122390000D01*
X51892560Y-123990000D01*
X51936838Y-124225317D01*
X52075910Y-124441441D01*
X52288110Y-124586431D01*
X52540000Y-124637440D01*
X53844700Y-124637440D01*
X53844700Y-125314432D01*
X53593911Y-125565221D01*
X53055813Y-125564752D01*
X52528200Y-125782757D01*
X52124176Y-126186077D01*
X51905250Y-126713309D01*
X51904752Y-127284187D01*
X52122757Y-127811800D01*
X52526077Y-128215824D01*
X53053309Y-128434750D01*
X53624187Y-128435248D01*
X54151800Y-128217243D01*
X54555824Y-127813923D01*
X54774750Y-127286691D01*
X54775222Y-126745646D01*
X55270134Y-126250734D01*
X55451139Y-125979841D01*
X55514700Y-125660300D01*
X55514700Y-118316468D01*
X56255000Y-117576168D01*
X56255000Y-121586171D01*
X56253000Y-121587590D01*
X56253000Y-122817000D01*
X56255000Y-122817000D01*
X56255000Y-123563000D01*
X56253000Y-123563000D01*
X56253000Y-124792410D01*
X56255000Y-124793829D01*
X56255000Y-129059700D01*
X56318561Y-129379241D01*
X56388104Y-129483319D01*
X56499566Y-129650134D01*
X58585976Y-131736544D01*
X58145715Y-131736160D01*
X57636485Y-131946569D01*
X57246539Y-132335836D01*
X57150024Y-132568270D01*
X57054831Y-132337885D01*
X56665564Y-131947939D01*
X56156702Y-131736641D01*
X55605715Y-131736160D01*
X55096485Y-131946569D01*
X54706539Y-132335836D01*
X54610024Y-132568270D01*
X54514831Y-132337885D01*
X54125564Y-131947939D01*
X53616702Y-131736641D01*
X53065715Y-131736160D01*
X52556485Y-131946569D01*
X52166539Y-132335836D01*
X51955241Y-132844698D01*
X51954760Y-133395685D01*
X52165169Y-133904915D01*
X52554436Y-134294861D01*
X53063298Y-134506159D01*
X53614285Y-134506640D01*
X54123515Y-134296231D01*
X54513461Y-133906964D01*
X54609976Y-133674530D01*
X54705169Y-133904915D01*
X55094436Y-134294861D01*
X55603298Y-134506159D01*
X56154285Y-134506640D01*
X56663515Y-134296231D01*
X57053461Y-133906964D01*
X57149976Y-133674530D01*
X57245169Y-133904915D01*
X57634436Y-134294861D01*
X58143298Y-134506159D01*
X58694285Y-134506640D01*
X58855000Y-134440234D01*
X58855000Y-134537964D01*
X58516539Y-134875836D01*
X58420024Y-135108270D01*
X58324831Y-134877885D01*
X57935564Y-134487939D01*
X57426702Y-134276641D01*
X56875715Y-134276160D01*
X56366485Y-134486569D01*
X55976539Y-134875836D01*
X55880024Y-135108270D01*
X55784831Y-134877885D01*
X55395564Y-134487939D01*
X54886702Y-134276641D01*
X54335715Y-134276160D01*
X53826485Y-134486569D01*
X53436539Y-134875836D01*
X53340024Y-135108270D01*
X53244831Y-134877885D01*
X52855564Y-134487939D01*
X52346702Y-134276641D01*
X51795715Y-134276160D01*
X51286485Y-134486569D01*
X50896539Y-134875836D01*
X50685241Y-135384698D01*
X50684760Y-135935685D01*
X47104761Y-135935685D01*
X47105240Y-135387115D01*
X46894831Y-134877885D01*
X46555000Y-134537461D01*
X46555000Y-134518840D01*
X47740000Y-134518840D01*
X47975317Y-134474562D01*
X48191441Y-134335490D01*
X48336431Y-134123290D01*
X48387440Y-133871400D01*
X48387440Y-132371400D01*
X48343162Y-132136083D01*
X48211106Y-131930862D01*
X48367950Y-131774018D01*
X48608455Y-132356086D01*
X49124199Y-132872730D01*
X49798395Y-133152681D01*
X50528403Y-133153318D01*
X51203086Y-132874545D01*
X51719730Y-132358801D01*
X51999681Y-131684605D01*
X52000318Y-130954597D01*
X51721545Y-130279914D01*
X51205801Y-129763270D01*
X50531605Y-129483319D01*
X49801597Y-129482682D01*
X49126914Y-129761455D01*
X49025400Y-129862792D01*
X49025400Y-116234159D01*
X51531048Y-116234159D01*
X51922909Y-116875859D01*
X52530509Y-117318754D01*
X52675844Y-117378929D01*
X52967000Y-117172410D01*
X52967000Y-115943000D01*
X51731172Y-115943000D01*
X51531048Y-116234159D01*
X49025400Y-116234159D01*
X49025400Y-111672373D01*
X51377204Y-111672373D01*
X51493080Y-112430173D01*
X51560146Y-112592086D01*
X51915782Y-112656716D01*
X52812498Y-111760000D01*
X53867502Y-111760000D01*
X54764218Y-112656716D01*
X55119854Y-112592086D01*
X55302796Y-111847627D01*
X55186920Y-111089827D01*
X55119854Y-110927914D01*
X54764218Y-110863284D01*
X53867502Y-111760000D01*
X52812498Y-111760000D01*
X51915782Y-110863284D01*
X51560146Y-110927914D01*
X51377204Y-111672373D01*
X49025400Y-111672373D01*
X49025400Y-110335782D01*
X52443284Y-110335782D01*
X53340000Y-111232498D01*
X54236716Y-110335782D01*
X54172086Y-109980146D01*
X53427627Y-109797204D01*
X52669827Y-109913080D01*
X52507914Y-109980146D01*
X52443284Y-110335782D01*
X49025400Y-110335782D01*
X49025400Y-109080700D01*
X48961839Y-108761159D01*
X48780834Y-108490266D01*
X48004310Y-107713742D01*
X48032811Y-107694698D01*
X48343880Y-107229151D01*
X48453113Y-106680000D01*
X48343880Y-106130849D01*
X48032811Y-105665302D01*
X47825000Y-105526447D01*
X47825000Y-105479700D01*
X47761439Y-105160159D01*
X47580434Y-104889266D01*
X47018593Y-104327425D01*
X47539151Y-104223880D01*
X48004698Y-103912811D01*
X48315767Y-103447264D01*
X48425000Y-102898113D01*
X48425000Y-102841887D01*
X48315767Y-102292736D01*
X48004698Y-101827189D01*
X47539151Y-101516120D01*
X46990000Y-101406887D01*
X46485300Y-101507278D01*
X46485300Y-97650600D01*
X46456002Y-97503309D01*
X46421740Y-97331060D01*
X46240734Y-97060166D01*
X45468175Y-96287607D01*
X45720000Y-95910725D01*
X45975302Y-96292811D01*
X46440849Y-96603880D01*
X46990000Y-96713113D01*
X47539151Y-96603880D01*
X48004698Y-96292811D01*
X48315767Y-95827264D01*
X48425000Y-95278113D01*
X48425000Y-95221887D01*
X48321006Y-94699074D01*
X54611966Y-100990034D01*
X54882859Y-101171039D01*
X54976614Y-101189688D01*
X54492683Y-101542438D01*
X54391890Y-101473569D01*
X54140000Y-101422560D01*
X52540000Y-101422560D01*
X52304683Y-101466838D01*
X52088559Y-101605910D01*
X51943569Y-101818110D01*
X51892560Y-102070000D01*
X51892560Y-103670000D01*
X51936838Y-103905317D01*
X52075910Y-104121441D01*
X52288110Y-104266431D01*
X52540000Y-104317440D01*
X54140000Y-104317440D01*
X54375317Y-104273162D01*
X54492739Y-104197603D01*
X55070509Y-104618754D01*
X55215844Y-104678929D01*
X55507000Y-104472410D01*
X55507000Y-103243000D01*
X56253000Y-103243000D01*
X56253000Y-104472410D01*
X56544156Y-104678929D01*
X56689491Y-104618754D01*
X57150000Y-104283077D01*
X57610509Y-104618754D01*
X57755844Y-104678929D01*
X58047000Y-104472410D01*
X58047000Y-103243000D01*
X56253000Y-103243000D01*
X55507000Y-103243000D01*
X55487000Y-103243000D01*
X55487000Y-102497000D01*
X55507000Y-102497000D01*
X55507000Y-102477000D01*
X56253000Y-102477000D01*
X56253000Y-102497000D01*
X58047000Y-102497000D01*
X58047000Y-102477000D01*
X58793000Y-102477000D01*
X58793000Y-102497000D01*
X58813000Y-102497000D01*
X58813000Y-103243000D01*
X58793000Y-103243000D01*
X58793000Y-104472410D01*
X59084156Y-104678929D01*
X59229491Y-104618754D01*
X59837091Y-104175859D01*
X59982533Y-103937688D01*
X60410849Y-104223880D01*
X60960000Y-104333113D01*
X61509151Y-104223880D01*
X61974698Y-103912811D01*
X62285767Y-103447264D01*
X62395000Y-102898113D01*
X62395000Y-102841887D01*
X62286874Y-102298300D01*
X63204632Y-102298300D01*
X66433588Y-105527256D01*
X66094176Y-105866077D01*
X65875250Y-106393309D01*
X65874752Y-106964187D01*
X66092757Y-107491800D01*
X66496077Y-107895824D01*
X67023309Y-108114750D01*
X67564354Y-108115222D01*
X72825000Y-113375868D01*
X72825000Y-114193414D01*
X72390000Y-114106887D01*
X71840849Y-114216120D01*
X71375302Y-114527189D01*
X71120000Y-114909275D01*
X70864698Y-114527189D01*
X70399151Y-114216120D01*
X69850000Y-114106887D01*
X69300849Y-114216120D01*
X68872533Y-114502312D01*
X68727091Y-114264141D01*
X68119491Y-113821246D01*
X67974156Y-113761071D01*
X67683002Y-113967589D01*
X67683002Y-113652361D01*
X67980173Y-113606920D01*
X68142086Y-113539854D01*
X68206716Y-113184218D01*
X67310000Y-112287502D01*
X66413284Y-113184218D01*
X66477914Y-113539854D01*
X66936998Y-113652668D01*
X66936998Y-113967589D01*
X66645844Y-113761071D01*
X66500509Y-113821246D01*
X65892909Y-114264141D01*
X65501048Y-114905841D01*
X65701172Y-115197000D01*
X66937000Y-115197000D01*
X66937000Y-115177000D01*
X67683000Y-115177000D01*
X67683000Y-115197000D01*
X67703000Y-115197000D01*
X67703000Y-115943000D01*
X67683000Y-115943000D01*
X67683000Y-117172410D01*
X67974156Y-117378929D01*
X68119491Y-117318754D01*
X68123870Y-117315562D01*
X68059266Y-117380166D01*
X67878261Y-117651059D01*
X67814700Y-117970600D01*
X67814700Y-121742560D01*
X66510000Y-121742560D01*
X66274683Y-121786838D01*
X66058559Y-121925910D01*
X65913569Y-122138110D01*
X65862560Y-122390000D01*
X65862560Y-123990000D01*
X65906838Y-124225317D01*
X66045910Y-124441441D01*
X66258110Y-124586431D01*
X66510000Y-124637440D01*
X67814700Y-124637440D01*
X67814700Y-125314432D01*
X67563911Y-125565221D01*
X67025813Y-125564752D01*
X66498200Y-125782757D01*
X66094176Y-126186077D01*
X65875250Y-126713309D01*
X65874752Y-127284187D01*
X66092757Y-127811800D01*
X66496077Y-128215824D01*
X67023309Y-128434750D01*
X67564354Y-128435222D01*
X67665600Y-128536468D01*
X67665600Y-131769402D01*
X67586702Y-131736641D01*
X67035715Y-131736160D01*
X66526485Y-131946569D01*
X66136539Y-132335836D01*
X65925241Y-132844698D01*
X65924760Y-133395685D01*
X66135169Y-133904915D01*
X66524436Y-134294861D01*
X66956332Y-134474200D01*
X66884028Y-134546504D01*
X66825564Y-134487939D01*
X66316702Y-134276641D01*
X65765715Y-134276160D01*
X65256485Y-134486569D01*
X64866539Y-134875836D01*
X64655241Y-135384698D01*
X64654760Y-135935685D01*
X64865169Y-136444915D01*
X65254436Y-136834861D01*
X65763298Y-137046159D01*
X66314285Y-137046640D01*
X66475000Y-136980234D01*
X66475000Y-138576564D01*
X66136539Y-138914436D01*
X65925241Y-139423298D01*
X65924760Y-139974285D01*
X66135169Y-140483515D01*
X66493589Y-140842560D01*
X65290000Y-140842560D01*
X65054683Y-140886838D01*
X64838559Y-141025910D01*
X64693569Y-141238110D01*
X64642560Y-141490000D01*
X64642560Y-142990000D01*
X64686838Y-143225317D01*
X64825910Y-143441441D01*
X65038110Y-143586431D01*
X65290000Y-143637440D01*
X66790000Y-143637440D01*
X67025317Y-143593162D01*
X67241441Y-143454090D01*
X67386431Y-143241890D01*
X67426355Y-143044738D01*
X67794436Y-143413461D01*
X68303298Y-143624759D01*
X68854285Y-143625240D01*
X69363515Y-143414831D01*
X69753461Y-143025564D01*
X69849976Y-142793130D01*
X69945169Y-143023515D01*
X70334436Y-143413461D01*
X70843298Y-143624759D01*
X71394285Y-143625240D01*
X71903515Y-143414831D01*
X72293461Y-143025564D01*
X72389976Y-142793130D01*
X72485169Y-143023515D01*
X72874436Y-143413461D01*
X73383298Y-143624759D01*
X73934285Y-143625240D01*
X74443515Y-143414831D01*
X74833461Y-143025564D01*
X75044759Y-142516702D01*
X75045240Y-141965715D01*
X74848680Y-141490000D01*
X78612560Y-141490000D01*
X78612560Y-142990000D01*
X78656838Y-143225317D01*
X78795910Y-143441441D01*
X79008110Y-143586431D01*
X79260000Y-143637440D01*
X80760000Y-143637440D01*
X80995317Y-143593162D01*
X81211441Y-143454090D01*
X81356431Y-143241890D01*
X81396355Y-143044738D01*
X81764436Y-143413461D01*
X82273298Y-143624759D01*
X82824285Y-143625240D01*
X83333515Y-143414831D01*
X83723461Y-143025564D01*
X83819976Y-142793130D01*
X83915169Y-143023515D01*
X84304436Y-143413461D01*
X84813298Y-143624759D01*
X85364285Y-143625240D01*
X85873515Y-143414831D01*
X86263461Y-143025564D01*
X86359976Y-142793130D01*
X86455169Y-143023515D01*
X86844436Y-143413461D01*
X87353298Y-143624759D01*
X87904285Y-143625240D01*
X88413515Y-143414831D01*
X88742916Y-143086003D01*
X90468282Y-143086003D01*
X90747055Y-143760686D01*
X91262799Y-144277330D01*
X91936995Y-144557281D01*
X92667003Y-144557918D01*
X93341686Y-144279145D01*
X93858330Y-143763401D01*
X94138281Y-143089205D01*
X94138918Y-142359197D01*
X93860145Y-141684514D01*
X93344401Y-141167870D01*
X92670205Y-140887919D01*
X91940197Y-140887282D01*
X91265514Y-141166055D01*
X90748870Y-141681799D01*
X90468919Y-142355995D01*
X90468282Y-143086003D01*
X88742916Y-143086003D01*
X88803461Y-143025564D01*
X89014759Y-142516702D01*
X89015240Y-141965715D01*
X88804831Y-141456485D01*
X88415564Y-141066539D01*
X87906702Y-140855241D01*
X87355715Y-140854760D01*
X86846485Y-141065169D01*
X86456539Y-141454436D01*
X86360024Y-141686870D01*
X86264831Y-141456485D01*
X85875564Y-141066539D01*
X85366702Y-140855241D01*
X84815715Y-140854760D01*
X84306485Y-141065169D01*
X83916539Y-141454436D01*
X83820024Y-141686870D01*
X83724831Y-141456485D01*
X83335564Y-141066539D01*
X82826702Y-140855241D01*
X82275715Y-140854760D01*
X81766485Y-141065169D01*
X81396920Y-141434091D01*
X81363162Y-141254683D01*
X81253960Y-141084978D01*
X81554285Y-141085240D01*
X82063515Y-140874831D01*
X82453461Y-140485564D01*
X82549976Y-140253130D01*
X82645169Y-140483515D01*
X83034436Y-140873461D01*
X83543298Y-141084759D01*
X84094285Y-141085240D01*
X84603515Y-140874831D01*
X84993461Y-140485564D01*
X85089976Y-140253130D01*
X85185169Y-140483515D01*
X85574436Y-140873461D01*
X86083298Y-141084759D01*
X86634285Y-141085240D01*
X87143515Y-140874831D01*
X87533461Y-140485564D01*
X87629976Y-140253130D01*
X87725169Y-140483515D01*
X88114436Y-140873461D01*
X88623298Y-141084759D01*
X89174285Y-141085240D01*
X89683515Y-140874831D01*
X90073461Y-140485564D01*
X90284759Y-139976702D01*
X90285240Y-139425715D01*
X90074831Y-138916485D01*
X89685564Y-138526539D01*
X89176702Y-138315241D01*
X88625715Y-138314760D01*
X88116485Y-138525169D01*
X87726539Y-138914436D01*
X87630024Y-139146870D01*
X87534831Y-138916485D01*
X87145564Y-138526539D01*
X86636702Y-138315241D01*
X86085715Y-138314760D01*
X85576485Y-138525169D01*
X85186539Y-138914436D01*
X85090024Y-139146870D01*
X84994831Y-138916485D01*
X84605564Y-138526539D01*
X84096702Y-138315241D01*
X83545715Y-138314760D01*
X83036485Y-138525169D01*
X82646539Y-138914436D01*
X82550024Y-139146870D01*
X82454831Y-138916485D01*
X82065564Y-138526539D01*
X81556702Y-138315241D01*
X81005715Y-138314760D01*
X80496485Y-138525169D01*
X80106539Y-138914436D01*
X79895241Y-139423298D01*
X79894760Y-139974285D01*
X80105169Y-140483515D01*
X80463589Y-140842560D01*
X79260000Y-140842560D01*
X79024683Y-140886838D01*
X78808559Y-141025910D01*
X78663569Y-141238110D01*
X78612560Y-141490000D01*
X74848680Y-141490000D01*
X74834831Y-141456485D01*
X74445564Y-141066539D01*
X73936702Y-140855241D01*
X73385715Y-140854760D01*
X72876485Y-141065169D01*
X72486539Y-141454436D01*
X72390024Y-141686870D01*
X72294831Y-141456485D01*
X71905564Y-141066539D01*
X71396702Y-140855241D01*
X70845715Y-140854760D01*
X70336485Y-141065169D01*
X69946539Y-141454436D01*
X69850024Y-141686870D01*
X69754831Y-141456485D01*
X69365564Y-141066539D01*
X68856702Y-140855241D01*
X68305715Y-140854760D01*
X67796485Y-141065169D01*
X67426920Y-141434091D01*
X67393162Y-141254683D01*
X67283960Y-141084978D01*
X67584285Y-141085240D01*
X68093515Y-140874831D01*
X68483461Y-140485564D01*
X68579976Y-140253130D01*
X68675169Y-140483515D01*
X69064436Y-140873461D01*
X69573298Y-141084759D01*
X70124285Y-141085240D01*
X70633515Y-140874831D01*
X71023461Y-140485564D01*
X71119976Y-140253130D01*
X71215169Y-140483515D01*
X71604436Y-140873461D01*
X72113298Y-141084759D01*
X72664285Y-141085240D01*
X73173515Y-140874831D01*
X73563461Y-140485564D01*
X73659976Y-140253130D01*
X73755169Y-140483515D01*
X74144436Y-140873461D01*
X74653298Y-141084759D01*
X75204285Y-141085240D01*
X75713515Y-140874831D01*
X76103461Y-140485564D01*
X76314759Y-139976702D01*
X76315240Y-139425715D01*
X76104831Y-138916485D01*
X75715564Y-138526539D01*
X75206702Y-138315241D01*
X74655715Y-138314760D01*
X74146485Y-138525169D01*
X73756539Y-138914436D01*
X73660024Y-139146870D01*
X73564831Y-138916485D01*
X73175564Y-138526539D01*
X72666702Y-138315241D01*
X72115715Y-138314760D01*
X71606485Y-138525169D01*
X71216539Y-138914436D01*
X71120024Y-139146870D01*
X71024831Y-138916485D01*
X70635564Y-138526539D01*
X70126702Y-138315241D01*
X69575715Y-138314760D01*
X69066485Y-138525169D01*
X68676539Y-138914436D01*
X68580024Y-139146870D01*
X68484831Y-138916485D01*
X68145000Y-138576061D01*
X68145000Y-137574203D01*
X91128682Y-137574203D01*
X91407455Y-138248886D01*
X91923199Y-138765530D01*
X92597395Y-139045481D01*
X93327403Y-139046118D01*
X94002086Y-138767345D01*
X94518730Y-138251601D01*
X94798681Y-137577405D01*
X94799318Y-136847397D01*
X94520545Y-136172714D01*
X94004801Y-135656070D01*
X93330605Y-135376119D01*
X92600597Y-135375482D01*
X91925914Y-135654255D01*
X91409270Y-136169999D01*
X91129319Y-136844195D01*
X91128682Y-137574203D01*
X68145000Y-137574203D01*
X68145000Y-136980428D01*
X68303298Y-137046159D01*
X68854285Y-137046640D01*
X69363515Y-136836231D01*
X69753461Y-136446964D01*
X69849976Y-136214530D01*
X69945169Y-136444915D01*
X70334436Y-136834861D01*
X70843298Y-137046159D01*
X71394285Y-137046640D01*
X71903515Y-136836231D01*
X72293461Y-136446964D01*
X72389976Y-136214530D01*
X72485169Y-136444915D01*
X72874436Y-136834861D01*
X73383298Y-137046159D01*
X73934285Y-137046640D01*
X74443515Y-136836231D01*
X74833461Y-136446964D01*
X75044759Y-135938102D01*
X75045240Y-135387115D01*
X74834831Y-134877885D01*
X74495000Y-134537461D01*
X74495000Y-134518840D01*
X75680000Y-134518840D01*
X75915317Y-134474562D01*
X76131441Y-134335490D01*
X76276431Y-134123290D01*
X76327440Y-133871400D01*
X76327440Y-132371400D01*
X76283162Y-132136083D01*
X76144090Y-131919959D01*
X75931890Y-131774969D01*
X75680000Y-131723960D01*
X74495000Y-131723960D01*
X74495000Y-131681403D01*
X76269682Y-131681403D01*
X76548455Y-132356086D01*
X77064199Y-132872730D01*
X77738395Y-133152681D01*
X78468403Y-133153318D01*
X79143086Y-132874545D01*
X79659730Y-132358801D01*
X79939681Y-131684605D01*
X79940318Y-130954597D01*
X79661545Y-130279914D01*
X79145801Y-129763270D01*
X78471605Y-129483319D01*
X77741597Y-129482682D01*
X77066914Y-129761455D01*
X76550270Y-130277199D01*
X76270319Y-130951395D01*
X76269682Y-131681403D01*
X74495000Y-131681403D01*
X74495000Y-128354065D01*
X74901887Y-128435000D01*
X74958113Y-128435000D01*
X75507264Y-128325767D01*
X75972811Y-128014698D01*
X76283880Y-127549151D01*
X76336584Y-127284187D01*
X79844752Y-127284187D01*
X80062757Y-127811800D01*
X80466077Y-128215824D01*
X80993309Y-128434750D01*
X81564187Y-128435248D01*
X82091800Y-128217243D01*
X82495824Y-127813923D01*
X82714750Y-127286691D01*
X82715248Y-126715813D01*
X82497243Y-126188200D01*
X82093923Y-125784176D01*
X81566691Y-125565250D01*
X80995813Y-125564752D01*
X80468200Y-125782757D01*
X80064176Y-126186077D01*
X79845250Y-126713309D01*
X79844752Y-127284187D01*
X76336584Y-127284187D01*
X76393113Y-127000000D01*
X76283880Y-126450849D01*
X75972811Y-125985302D01*
X75944310Y-125966258D01*
X76720834Y-125189734D01*
X76813911Y-125050434D01*
X76901839Y-124918841D01*
X76965400Y-124599300D01*
X76965400Y-122390000D01*
X79832560Y-122390000D01*
X79832560Y-123990000D01*
X79876838Y-124225317D01*
X80015910Y-124441441D01*
X80228110Y-124586431D01*
X80480000Y-124637440D01*
X82080000Y-124637440D01*
X82315317Y-124593162D01*
X82432739Y-124517603D01*
X83010509Y-124938754D01*
X83155844Y-124998929D01*
X83447000Y-124792410D01*
X83447000Y-123563000D01*
X84193000Y-123563000D01*
X84193000Y-124792410D01*
X84484156Y-124998929D01*
X84629491Y-124938754D01*
X85090000Y-124603077D01*
X85550509Y-124938754D01*
X85695844Y-124998929D01*
X85987000Y-124792410D01*
X85987000Y-123563000D01*
X84193000Y-123563000D01*
X83447000Y-123563000D01*
X83427000Y-123563000D01*
X83427000Y-122817000D01*
X83447000Y-122817000D01*
X83447000Y-121587590D01*
X83155844Y-121381071D01*
X83010509Y-121441246D01*
X82432683Y-121862438D01*
X82331890Y-121793569D01*
X82080000Y-121742560D01*
X80480000Y-121742560D01*
X80244683Y-121786838D01*
X80028559Y-121925910D01*
X79883569Y-122138110D01*
X79832560Y-122390000D01*
X76965400Y-122390000D01*
X76965400Y-122218100D01*
X76909796Y-121938559D01*
X76901840Y-121898560D01*
X76720835Y-121627666D01*
X75392236Y-120299068D01*
X75274607Y-120181234D01*
X74967821Y-120053845D01*
X74635637Y-120053555D01*
X74495000Y-120111665D01*
X74495000Y-116946586D01*
X74930000Y-117033113D01*
X75479151Y-116923880D01*
X75944698Y-116612811D01*
X76255767Y-116147264D01*
X76365000Y-115598113D01*
X76365000Y-115541887D01*
X76255767Y-114992736D01*
X75944698Y-114527189D01*
X75479151Y-114216120D01*
X74930000Y-114106887D01*
X74495000Y-114193414D01*
X74495000Y-113137935D01*
X74781887Y-113195000D01*
X74838113Y-113195000D01*
X75387264Y-113085767D01*
X75852811Y-112774698D01*
X76050647Y-112478615D01*
X78980400Y-115408368D01*
X78980400Y-115858200D01*
X79043961Y-116177741D01*
X79224966Y-116448634D01*
X84292995Y-121516663D01*
X84193000Y-121587590D01*
X84193000Y-122817000D01*
X85987000Y-122817000D01*
X85987000Y-122797000D01*
X86498832Y-122797000D01*
X86753000Y-123051168D01*
X86753000Y-123563000D01*
X86733000Y-123563000D01*
X86733000Y-124792410D01*
X87024156Y-124998929D01*
X87169491Y-124938754D01*
X87777091Y-124495859D01*
X87922533Y-124257688D01*
X88350849Y-124543880D01*
X88373706Y-124548426D01*
X87039566Y-125882566D01*
X86858561Y-126153459D01*
X86795000Y-126473000D01*
X86795000Y-131802372D01*
X86636702Y-131736641D01*
X86085715Y-131736160D01*
X85576485Y-131946569D01*
X85186539Y-132335836D01*
X85090024Y-132568270D01*
X84994831Y-132337885D01*
X84605564Y-131947939D01*
X84096702Y-131736641D01*
X83545715Y-131736160D01*
X83036485Y-131946569D01*
X82646539Y-132335836D01*
X82550024Y-132568270D01*
X82454831Y-132337885D01*
X82065564Y-131947939D01*
X81556702Y-131736641D01*
X81005715Y-131736160D01*
X80496485Y-131946569D01*
X80106539Y-132335836D01*
X79895241Y-132844698D01*
X79894760Y-133395685D01*
X80105169Y-133904915D01*
X80494436Y-134294861D01*
X81003298Y-134506159D01*
X81554285Y-134506640D01*
X82063515Y-134296231D01*
X82453461Y-133906964D01*
X82549976Y-133674530D01*
X82645169Y-133904915D01*
X83034436Y-134294861D01*
X83543298Y-134506159D01*
X84094285Y-134506640D01*
X84603515Y-134296231D01*
X84993461Y-133906964D01*
X85089976Y-133674530D01*
X85185169Y-133904915D01*
X85574436Y-134294861D01*
X86083298Y-134506159D01*
X86634285Y-134506640D01*
X86795000Y-134440234D01*
X86795000Y-134537964D01*
X86456539Y-134875836D01*
X86360024Y-135108270D01*
X86264831Y-134877885D01*
X85875564Y-134487939D01*
X85366702Y-134276641D01*
X84815715Y-134276160D01*
X84306485Y-134486569D01*
X83916539Y-134875836D01*
X83820024Y-135108270D01*
X83724831Y-134877885D01*
X83335564Y-134487939D01*
X82826702Y-134276641D01*
X82275715Y-134276160D01*
X81766485Y-134486569D01*
X81376539Y-134875836D01*
X81280024Y-135108270D01*
X81184831Y-134877885D01*
X80795564Y-134487939D01*
X80286702Y-134276641D01*
X79735715Y-134276160D01*
X79226485Y-134486569D01*
X78836539Y-134875836D01*
X78625241Y-135384698D01*
X78624760Y-135935685D01*
X78835169Y-136444915D01*
X79224436Y-136834861D01*
X79733298Y-137046159D01*
X80284285Y-137046640D01*
X80793515Y-136836231D01*
X81183461Y-136446964D01*
X81279976Y-136214530D01*
X81375169Y-136444915D01*
X81764436Y-136834861D01*
X82273298Y-137046159D01*
X82824285Y-137046640D01*
X83333515Y-136836231D01*
X83723461Y-136446964D01*
X83819976Y-136214530D01*
X83915169Y-136444915D01*
X84304436Y-136834861D01*
X84813298Y-137046159D01*
X85364285Y-137046640D01*
X85873515Y-136836231D01*
X86263461Y-136446964D01*
X86359976Y-136214530D01*
X86455169Y-136444915D01*
X86844436Y-136834861D01*
X87353298Y-137046159D01*
X87904285Y-137046640D01*
X88413515Y-136836231D01*
X88803461Y-136446964D01*
X89014759Y-135938102D01*
X89015240Y-135387115D01*
X88804831Y-134877885D01*
X88465000Y-134537461D01*
X88465000Y-134518840D01*
X89650000Y-134518840D01*
X89885317Y-134474562D01*
X90101441Y-134335490D01*
X90246431Y-134123290D01*
X90297440Y-133871400D01*
X90297440Y-132371400D01*
X90253162Y-132136083D01*
X90114090Y-131919959D01*
X89901890Y-131774969D01*
X89650000Y-131723960D01*
X88465000Y-131723960D01*
X88465000Y-128354065D01*
X88871887Y-128435000D01*
X88928113Y-128435000D01*
X89477264Y-128325767D01*
X89942811Y-128014698D01*
X90253880Y-127549151D01*
X90363113Y-127000000D01*
X90253880Y-126450849D01*
X89942811Y-125985302D01*
X89556615Y-125727253D01*
X90716934Y-124566934D01*
X90792334Y-124454090D01*
X90897939Y-124296041D01*
X90961500Y-123976500D01*
X90961500Y-122641600D01*
X90897939Y-122322059D01*
X90716934Y-122051166D01*
X85865000Y-117199232D01*
X85865000Y-116934651D01*
X86360000Y-117033113D01*
X86909151Y-116923880D01*
X87374698Y-116612811D01*
X87630000Y-116230725D01*
X87885302Y-116612811D01*
X88350849Y-116923880D01*
X88900000Y-117033113D01*
X89449151Y-116923880D01*
X89914698Y-116612811D01*
X90225767Y-116147264D01*
X90335000Y-115598113D01*
X90335000Y-115541887D01*
X90225767Y-114992736D01*
X89914698Y-114527189D01*
X89449151Y-114216120D01*
X88900000Y-114106887D01*
X88350849Y-114216120D01*
X87885302Y-114527189D01*
X87630000Y-114909275D01*
X87374698Y-114527189D01*
X86909151Y-114216120D01*
X86360000Y-114106887D01*
X85865000Y-114205349D01*
X85865000Y-111760000D01*
X87316887Y-111760000D01*
X87426120Y-112309151D01*
X87737189Y-112774698D01*
X88202736Y-113085767D01*
X88751887Y-113195000D01*
X88808113Y-113195000D01*
X89357264Y-113085767D01*
X89822811Y-112774698D01*
X90133880Y-112309151D01*
X90243113Y-111760000D01*
X90133880Y-111210849D01*
X89822811Y-110745302D01*
X89357264Y-110434233D01*
X88808113Y-110325000D01*
X88751887Y-110325000D01*
X88202736Y-110434233D01*
X87737189Y-110745302D01*
X87426120Y-111210849D01*
X87316887Y-111760000D01*
X85865000Y-111760000D01*
X85865000Y-110430000D01*
X85801439Y-110110459D01*
X85620434Y-109839566D01*
X82714779Y-106933911D01*
X82715000Y-106680000D01*
X87436887Y-106680000D01*
X87546120Y-107229151D01*
X87857189Y-107694698D01*
X88322736Y-108005767D01*
X88871887Y-108115000D01*
X88928113Y-108115000D01*
X89477264Y-108005767D01*
X89942811Y-107694698D01*
X90253880Y-107229151D01*
X90363113Y-106680000D01*
X90253880Y-106130849D01*
X89942811Y-105665302D01*
X89477264Y-105354233D01*
X88928113Y-105245000D01*
X88871887Y-105245000D01*
X88322736Y-105354233D01*
X87857189Y-105665302D01*
X87546120Y-106130849D01*
X87436887Y-106680000D01*
X82715000Y-106680000D01*
X82715248Y-106395813D01*
X82497243Y-105868200D01*
X82093923Y-105464176D01*
X81566691Y-105245250D01*
X80995813Y-105244752D01*
X80468200Y-105462757D01*
X80064176Y-105866077D01*
X79845250Y-106393309D01*
X79844752Y-106964187D01*
X80062757Y-107491800D01*
X80466077Y-107895824D01*
X80993309Y-108114750D01*
X81534354Y-108115222D01*
X84195000Y-110775868D01*
X84195000Y-114181479D01*
X83820000Y-114106887D01*
X83270849Y-114216120D01*
X82842533Y-114502312D01*
X82697091Y-114264141D01*
X82089491Y-113821246D01*
X81944156Y-113761071D01*
X81653002Y-113967589D01*
X81653002Y-113652361D01*
X81950173Y-113606920D01*
X82112086Y-113539854D01*
X82176716Y-113184218D01*
X81280000Y-112287502D01*
X80383284Y-113184218D01*
X80447914Y-113539854D01*
X80906998Y-113652668D01*
X80906998Y-113967589D01*
X80615844Y-113761071D01*
X80470509Y-113821246D01*
X80056671Y-114122903D01*
X77606141Y-111672373D01*
X79317204Y-111672373D01*
X79433080Y-112430173D01*
X79500146Y-112592086D01*
X79855782Y-112656716D01*
X80752498Y-111760000D01*
X81807502Y-111760000D01*
X82704218Y-112656716D01*
X83059854Y-112592086D01*
X83242796Y-111847627D01*
X83126920Y-111089827D01*
X83059854Y-110927914D01*
X82704218Y-110863284D01*
X81807502Y-111760000D01*
X80752498Y-111760000D01*
X79855782Y-110863284D01*
X79500146Y-110927914D01*
X79317204Y-111672373D01*
X77606141Y-111672373D01*
X76269550Y-110335782D01*
X80383284Y-110335782D01*
X81280000Y-111232498D01*
X82176716Y-110335782D01*
X82112086Y-109980146D01*
X81367627Y-109797204D01*
X80609827Y-109913080D01*
X80447914Y-109980146D01*
X80383284Y-110335782D01*
X76269550Y-110335782D01*
X72613768Y-106680000D01*
X73466887Y-106680000D01*
X73576120Y-107229151D01*
X73887189Y-107694698D01*
X74352736Y-108005767D01*
X74901887Y-108115000D01*
X74958113Y-108115000D01*
X75507264Y-108005767D01*
X75972811Y-107694698D01*
X76283880Y-107229151D01*
X76393113Y-106680000D01*
X76283880Y-106130849D01*
X75972811Y-105665302D01*
X75507264Y-105354233D01*
X74958113Y-105245000D01*
X74901887Y-105245000D01*
X74352736Y-105354233D01*
X73887189Y-105665302D01*
X73576120Y-106130849D01*
X73466887Y-106680000D01*
X72613768Y-106680000D01*
X70583843Y-104650075D01*
X70659491Y-104618754D01*
X71120000Y-104283077D01*
X71580509Y-104618754D01*
X71725844Y-104678929D01*
X72017000Y-104472410D01*
X72017000Y-103243000D01*
X70223000Y-103243000D01*
X70223000Y-103263000D01*
X69477000Y-103263000D01*
X69477000Y-103243000D01*
X69457000Y-103243000D01*
X69457000Y-102497000D01*
X69477000Y-102497000D01*
X69477000Y-102477000D01*
X70223000Y-102477000D01*
X70223000Y-102497000D01*
X72017000Y-102497000D01*
X72017000Y-102477000D01*
X72763000Y-102477000D01*
X72763000Y-102497000D01*
X72783000Y-102497000D01*
X72783000Y-103243000D01*
X72763000Y-103243000D01*
X72763000Y-104472410D01*
X73054156Y-104678929D01*
X73199491Y-104618754D01*
X73807091Y-104175859D01*
X73952533Y-103937688D01*
X74380849Y-104223880D01*
X74930000Y-104333113D01*
X75479151Y-104223880D01*
X75944698Y-103912811D01*
X76255767Y-103447264D01*
X76365000Y-102898113D01*
X76365000Y-102841887D01*
X76255767Y-102292736D01*
X75944698Y-101827189D01*
X75479151Y-101516120D01*
X74930000Y-101406887D01*
X74380849Y-101516120D01*
X73952533Y-101802312D01*
X73807091Y-101564141D01*
X73354999Y-101234600D01*
X82855001Y-101234600D01*
X82432683Y-101542438D01*
X82331890Y-101473569D01*
X82080000Y-101422560D01*
X80480000Y-101422560D01*
X80244683Y-101466838D01*
X80028559Y-101605910D01*
X79883569Y-101818110D01*
X79832560Y-102070000D01*
X79832560Y-103670000D01*
X79876838Y-103905317D01*
X80015910Y-104121441D01*
X80228110Y-104266431D01*
X80480000Y-104317440D01*
X82080000Y-104317440D01*
X82315317Y-104273162D01*
X82432739Y-104197603D01*
X83010509Y-104618754D01*
X83155844Y-104678929D01*
X83447000Y-104472410D01*
X83447000Y-103243000D01*
X84193000Y-103243000D01*
X84193000Y-104472410D01*
X84484156Y-104678929D01*
X84629491Y-104618754D01*
X85090000Y-104283077D01*
X85550509Y-104618754D01*
X85695844Y-104678929D01*
X85987000Y-104472410D01*
X85987000Y-103243000D01*
X84193000Y-103243000D01*
X83447000Y-103243000D01*
X83427000Y-103243000D01*
X83427000Y-102497000D01*
X83447000Y-102497000D01*
X83447000Y-102477000D01*
X84193000Y-102477000D01*
X84193000Y-102497000D01*
X85987000Y-102497000D01*
X85987000Y-102477000D01*
X86498832Y-102477000D01*
X86753000Y-102731168D01*
X86753000Y-103243000D01*
X86733000Y-103243000D01*
X86733000Y-104472410D01*
X87024156Y-104678929D01*
X87169491Y-104618754D01*
X87777091Y-104175859D01*
X87922533Y-103937688D01*
X88350849Y-104223880D01*
X88900000Y-104333113D01*
X89449151Y-104223880D01*
X89914698Y-103912811D01*
X90225767Y-103447264D01*
X90335000Y-102898113D01*
X90335000Y-102841887D01*
X90225767Y-102292736D01*
X89914698Y-101827189D01*
X89449151Y-101516120D01*
X88900000Y-101406887D01*
X88350849Y-101516120D01*
X88080398Y-101696830D01*
X86192734Y-99809166D01*
X85921841Y-99628161D01*
X85602300Y-99564600D01*
X55548268Y-99564600D01*
X52890406Y-96906738D01*
X52967000Y-96852410D01*
X52967000Y-95623000D01*
X51731172Y-95623000D01*
X51680455Y-95696787D01*
X49528668Y-93545000D01*
X52470484Y-93545000D01*
X51922909Y-93944141D01*
X51531048Y-94585841D01*
X51731172Y-94877000D01*
X52967000Y-94877000D01*
X52967000Y-94857000D01*
X53713000Y-94857000D01*
X53713000Y-94877000D01*
X53733000Y-94877000D01*
X53733000Y-95623000D01*
X53713000Y-95623000D01*
X53713000Y-96852410D01*
X54004156Y-97058929D01*
X54149491Y-96998754D01*
X54757091Y-96555859D01*
X54902533Y-96317688D01*
X55330849Y-96603880D01*
X55880000Y-96713113D01*
X56429151Y-96603880D01*
X56894698Y-96292811D01*
X57150000Y-95910725D01*
X57405302Y-96292811D01*
X57870849Y-96603880D01*
X58420000Y-96713113D01*
X58969151Y-96603880D01*
X59434698Y-96292811D01*
X59690000Y-95910725D01*
X59945302Y-96292811D01*
X60410849Y-96603880D01*
X60960000Y-96713113D01*
X61509151Y-96603880D01*
X61974698Y-96292811D01*
X62227705Y-95914159D01*
X65501048Y-95914159D01*
X65892909Y-96555859D01*
X66500509Y-96998754D01*
X66645844Y-97058929D01*
X66937000Y-96852410D01*
X66937000Y-95623000D01*
X65701172Y-95623000D01*
X65501048Y-95914159D01*
X62227705Y-95914159D01*
X62285767Y-95827264D01*
X62395000Y-95278113D01*
X62395000Y-95221887D01*
X62285767Y-94672736D01*
X61974698Y-94207189D01*
X61509151Y-93896120D01*
X60960000Y-93786887D01*
X60410849Y-93896120D01*
X59945302Y-94207189D01*
X59690000Y-94589275D01*
X59434698Y-94207189D01*
X58969151Y-93896120D01*
X58420000Y-93786887D01*
X57870849Y-93896120D01*
X57405302Y-94207189D01*
X57150000Y-94589275D01*
X56894698Y-94207189D01*
X56429151Y-93896120D01*
X55880000Y-93786887D01*
X55330849Y-93896120D01*
X54902533Y-94182312D01*
X54757091Y-93944141D01*
X54209516Y-93545000D01*
X66440484Y-93545000D01*
X65892909Y-93944141D01*
X65501048Y-94585841D01*
X65701172Y-94877000D01*
X66937000Y-94877000D01*
X66937000Y-94857000D01*
X67683000Y-94857000D01*
X67683000Y-94877000D01*
X67703000Y-94877000D01*
X67703000Y-95623000D01*
X67683000Y-95623000D01*
X67683000Y-96852410D01*
X67974156Y-97058929D01*
X68119491Y-96998754D01*
X68727091Y-96555859D01*
X68872533Y-96317688D01*
X69300849Y-96603880D01*
X69850000Y-96713113D01*
X70399151Y-96603880D01*
X70864698Y-96292811D01*
X71120000Y-95910725D01*
X71375302Y-96292811D01*
X71840849Y-96603880D01*
X72390000Y-96713113D01*
X72939151Y-96603880D01*
X73404698Y-96292811D01*
X73660000Y-95910725D01*
X73915302Y-96292811D01*
X74380849Y-96603880D01*
X74930000Y-96713113D01*
X75479151Y-96603880D01*
X75944698Y-96292811D01*
X76197705Y-95914159D01*
X79471048Y-95914159D01*
X79862909Y-96555859D01*
X80470509Y-96998754D01*
X80615844Y-97058929D01*
X80907000Y-96852410D01*
X80907000Y-95623000D01*
X79671172Y-95623000D01*
X79471048Y-95914159D01*
X76197705Y-95914159D01*
X76255767Y-95827264D01*
X76365000Y-95278113D01*
X76365000Y-95221887D01*
X76255767Y-94672736D01*
X75944698Y-94207189D01*
X75479151Y-93896120D01*
X74930000Y-93786887D01*
X74380849Y-93896120D01*
X73915302Y-94207189D01*
X73660000Y-94589275D01*
X73404698Y-94207189D01*
X72939151Y-93896120D01*
X72390000Y-93786887D01*
X71840849Y-93896120D01*
X71375302Y-94207189D01*
X71120000Y-94589275D01*
X70864698Y-94207189D01*
X70399151Y-93896120D01*
X69850000Y-93786887D01*
X69300849Y-93896120D01*
X68872533Y-94182312D01*
X68727091Y-93944141D01*
X68179516Y-93545000D01*
X80410484Y-93545000D01*
X79862909Y-93944141D01*
X79471048Y-94585841D01*
X79671172Y-94877000D01*
X80907000Y-94877000D01*
X80907000Y-94857000D01*
X81653000Y-94857000D01*
X81653000Y-94877000D01*
X81673000Y-94877000D01*
X81673000Y-95623000D01*
X81653000Y-95623000D01*
X81653000Y-96852410D01*
X81944156Y-97058929D01*
X82089491Y-96998754D01*
X82697091Y-96555859D01*
X82842533Y-96317688D01*
X83270849Y-96603880D01*
X83820000Y-96713113D01*
X84369151Y-96603880D01*
X84834698Y-96292811D01*
X85090000Y-95910725D01*
X85345302Y-96292811D01*
X85810849Y-96603880D01*
X86360000Y-96713113D01*
X86909151Y-96603880D01*
X87374698Y-96292811D01*
X87630000Y-95910725D01*
X87885302Y-96292811D01*
X88350849Y-96603880D01*
X88900000Y-96713113D01*
X89449151Y-96603880D01*
X89914698Y-96292811D01*
X90225767Y-95827264D01*
X90335000Y-95278113D01*
X90335000Y-95221887D01*
X90225767Y-94672736D01*
X89914698Y-94207189D01*
X89449151Y-93896120D01*
X88900000Y-93786887D01*
X88350849Y-93896120D01*
X87885302Y-94207189D01*
X87630000Y-94589275D01*
X87374698Y-94207189D01*
X86909151Y-93896120D01*
X86360000Y-93786887D01*
X85810849Y-93896120D01*
X85345302Y-94207189D01*
X85090000Y-94589275D01*
X84834698Y-94207189D01*
X84369151Y-93896120D01*
X83820000Y-93786887D01*
X83270849Y-93896120D01*
X82842533Y-94182312D01*
X82697091Y-93944141D01*
X82149516Y-93545000D01*
X82977700Y-93545000D01*
X83297241Y-93481439D01*
X83568134Y-93300434D01*
X85428568Y-91440000D01*
X87316887Y-91440000D01*
X87426120Y-91989151D01*
X87737189Y-92454698D01*
X88202736Y-92765767D01*
X88751887Y-92875000D01*
X88808113Y-92875000D01*
X89357264Y-92765767D01*
X89822811Y-92454698D01*
X90133880Y-91989151D01*
X90243113Y-91440000D01*
X90133880Y-90890849D01*
X89822811Y-90425302D01*
X89357264Y-90114233D01*
X88808113Y-90005000D01*
X88751887Y-90005000D01*
X88202736Y-90114233D01*
X87737189Y-90425302D01*
X87426120Y-90890849D01*
X87316887Y-91440000D01*
X85428568Y-91440000D01*
X88224168Y-88644400D01*
X91260600Y-88644400D01*
X91580141Y-88580839D01*
X91851034Y-88399834D01*
X92456089Y-87794779D01*
X92994187Y-87795248D01*
X93521800Y-87577243D01*
X93925824Y-87173923D01*
X94144750Y-86646691D01*
X94145248Y-86075813D01*
X93927243Y-85548200D01*
X93523923Y-85144176D01*
X92996691Y-84925250D01*
X92425813Y-84924752D01*
X91898200Y-85142757D01*
X91494176Y-85546077D01*
X91440138Y-85676215D01*
X91387243Y-85548200D01*
X90983923Y-85144176D01*
X90456691Y-84925250D01*
X89915647Y-84924778D01*
X87001734Y-82010866D01*
X86730841Y-81829861D01*
X86411300Y-81766300D01*
X81361865Y-81766300D01*
X81444750Y-81566691D01*
X81445248Y-80995813D01*
X81227243Y-80468200D01*
X80823923Y-80064176D01*
X80693785Y-80010138D01*
X80821800Y-79957243D01*
X81225824Y-79553923D01*
X81279862Y-79423785D01*
X81332757Y-79551800D01*
X81736077Y-79955824D01*
X82263309Y-80174750D01*
X82834187Y-80175248D01*
X83361800Y-79957243D01*
X83765824Y-79553923D01*
X83819862Y-79423785D01*
X83872757Y-79551800D01*
X84276077Y-79955824D01*
X84803309Y-80174750D01*
X85374187Y-80175248D01*
X85901800Y-79957243D01*
X86305824Y-79553923D01*
X86359862Y-79423785D01*
X86412757Y-79551800D01*
X86816077Y-79955824D01*
X87343309Y-80174750D01*
X87914187Y-80175248D01*
X88441800Y-79957243D01*
X88845824Y-79553923D01*
X88899862Y-79423785D01*
X88952757Y-79551800D01*
X89356077Y-79955824D01*
X89883309Y-80174750D01*
X90454187Y-80175248D01*
X90981800Y-79957243D01*
X91385824Y-79553923D01*
X91439862Y-79423785D01*
X91492757Y-79551800D01*
X91896077Y-79955824D01*
X92423309Y-80174750D01*
X92994187Y-80175248D01*
X93521800Y-79957243D01*
X93925824Y-79553923D01*
X94144750Y-79026691D01*
X94145248Y-78455813D01*
X93927243Y-77928200D01*
X93523923Y-77524176D01*
X93393785Y-77470138D01*
X93521800Y-77417243D01*
X93925824Y-77013923D01*
X94067667Y-76672325D01*
X99214587Y-76672325D01*
X99576916Y-77549229D01*
X100247242Y-78220726D01*
X101123513Y-78584585D01*
X102072325Y-78585413D01*
X102949229Y-78223084D01*
X103620726Y-77552758D01*
X103984585Y-76676487D01*
X103985413Y-75727675D01*
X103623084Y-74850771D01*
X102952758Y-74179274D01*
X102076487Y-73815415D01*
X101127675Y-73814587D01*
X100250771Y-74176916D01*
X99579274Y-74847242D01*
X99215415Y-75723513D01*
X99214587Y-76672325D01*
X94067667Y-76672325D01*
X94144750Y-76486691D01*
X94145248Y-75915813D01*
X93927243Y-75388200D01*
X93523923Y-74984176D01*
X92996691Y-74765250D01*
X92425813Y-74764752D01*
X91898200Y-74982757D01*
X91494176Y-75386077D01*
X91440138Y-75516215D01*
X91387243Y-75388200D01*
X90983923Y-74984176D01*
X90456691Y-74765250D01*
X89885813Y-74764752D01*
X89358200Y-74982757D01*
X88954176Y-75386077D01*
X88900138Y-75516215D01*
X88847243Y-75388200D01*
X88443923Y-74984176D01*
X87916691Y-74765250D01*
X87345813Y-74764752D01*
X86818200Y-74982757D01*
X86414176Y-75386077D01*
X86360138Y-75516215D01*
X86307243Y-75388200D01*
X85903923Y-74984176D01*
X85376691Y-74765250D01*
X84805813Y-74764752D01*
X84278200Y-74982757D01*
X83874176Y-75386077D01*
X83820138Y-75516215D01*
X83767243Y-75388200D01*
X83363923Y-74984176D01*
X82836691Y-74765250D01*
X82265813Y-74764752D01*
X81738200Y-74982757D01*
X81334176Y-75386077D01*
X81280138Y-75516215D01*
X81227243Y-75388200D01*
X80823923Y-74984176D01*
X80693785Y-74930138D01*
X80821800Y-74877243D01*
X81225824Y-74473923D01*
X81444750Y-73946691D01*
X81445248Y-73375813D01*
X81227243Y-72848200D01*
X80823923Y-72444176D01*
X80693785Y-72390138D01*
X80821800Y-72337243D01*
X81225824Y-71933923D01*
X81279862Y-71803785D01*
X81332757Y-71931800D01*
X81736077Y-72335824D01*
X82263309Y-72554750D01*
X82834187Y-72555248D01*
X83361800Y-72337243D01*
X83765824Y-71933923D01*
X83819862Y-71803785D01*
X83872757Y-71931800D01*
X84276077Y-72335824D01*
X84803309Y-72554750D01*
X85374187Y-72555248D01*
X85901800Y-72337243D01*
X86305824Y-71933923D01*
X86359862Y-71803785D01*
X86412757Y-71931800D01*
X86816077Y-72335824D01*
X87343309Y-72554750D01*
X87914187Y-72555248D01*
X88441800Y-72337243D01*
X88845824Y-71933923D01*
X88899862Y-71803785D01*
X88952757Y-71931800D01*
X89356077Y-72335824D01*
X89883309Y-72554750D01*
X90454187Y-72555248D01*
X90981800Y-72337243D01*
X91385824Y-71933923D01*
X91439862Y-71803785D01*
X91492757Y-71931800D01*
X91896077Y-72335824D01*
X92423309Y-72554750D01*
X92994187Y-72555248D01*
X93521800Y-72337243D01*
X93925824Y-71933923D01*
X94144750Y-71406691D01*
X94145248Y-70835813D01*
X93927243Y-70308200D01*
X93523923Y-69904176D01*
X92996691Y-69685250D01*
X92425813Y-69684752D01*
X91898200Y-69902757D01*
X91494176Y-70306077D01*
X91440138Y-70436215D01*
X91387243Y-70308200D01*
X90983923Y-69904176D01*
X90456691Y-69685250D01*
X89885813Y-69684752D01*
X89358200Y-69902757D01*
X88954176Y-70306077D01*
X88900138Y-70436215D01*
X88847243Y-70308200D01*
X88443923Y-69904176D01*
X87916691Y-69685250D01*
X87345813Y-69684752D01*
X86818200Y-69902757D01*
X86414176Y-70306077D01*
X86360138Y-70436215D01*
X86307243Y-70308200D01*
X85903923Y-69904176D01*
X85376691Y-69685250D01*
X84805813Y-69684752D01*
X84278200Y-69902757D01*
X83874176Y-70306077D01*
X83820138Y-70436215D01*
X83767243Y-70308200D01*
X83363923Y-69904176D01*
X82836691Y-69685250D01*
X82265813Y-69684752D01*
X81738200Y-69902757D01*
X81334176Y-70306077D01*
X81280138Y-70436215D01*
X81227243Y-70308200D01*
X80823923Y-69904176D01*
X80296691Y-69685250D01*
X79725813Y-69684752D01*
X79198200Y-69902757D01*
X78794176Y-70306077D01*
X78740138Y-70436215D01*
X78687243Y-70308200D01*
X78283923Y-69904176D01*
X77756691Y-69685250D01*
X77185813Y-69684752D01*
X76658200Y-69902757D01*
X76254176Y-70306077D01*
X76200138Y-70436215D01*
X76147243Y-70308200D01*
X75743923Y-69904176D01*
X75216691Y-69685250D01*
X74645813Y-69684752D01*
X74118200Y-69902757D01*
X73714176Y-70306077D01*
X73660138Y-70436215D01*
X73607243Y-70308200D01*
X73203923Y-69904176D01*
X72676691Y-69685250D01*
X72105813Y-69684752D01*
X71578200Y-69902757D01*
X71174176Y-70306077D01*
X71120138Y-70436215D01*
X71067243Y-70308200D01*
X70663923Y-69904176D01*
X70136691Y-69685250D01*
X69565813Y-69684752D01*
X69038200Y-69902757D01*
X68634176Y-70306077D01*
X68580138Y-70436215D01*
X68527243Y-70308200D01*
X68123923Y-69904176D01*
X67596691Y-69685250D01*
X67025813Y-69684752D01*
X66498200Y-69902757D01*
X66094176Y-70306077D01*
X66040138Y-70436215D01*
X65987243Y-70308200D01*
X65583923Y-69904176D01*
X65056691Y-69685250D01*
X64485813Y-69684752D01*
X63958200Y-69902757D01*
X63554176Y-70306077D01*
X63500138Y-70436215D01*
X63447243Y-70308200D01*
X63043923Y-69904176D01*
X62516691Y-69685250D01*
X61945813Y-69684752D01*
X61418200Y-69902757D01*
X61014176Y-70306077D01*
X60960138Y-70436215D01*
X60907243Y-70308200D01*
X60503923Y-69904176D01*
X59976691Y-69685250D01*
X59405813Y-69684752D01*
X58878200Y-69902757D01*
X58474176Y-70306077D01*
X58420138Y-70436215D01*
X58367243Y-70308200D01*
X57963923Y-69904176D01*
X57436691Y-69685250D01*
X56865813Y-69684752D01*
X56338200Y-69902757D01*
X55934176Y-70306077D01*
X55880138Y-70436215D01*
X55827243Y-70308200D01*
X55423923Y-69904176D01*
X54896691Y-69685250D01*
X54325813Y-69684752D01*
X53798200Y-69902757D01*
X53394176Y-70306077D01*
X53340138Y-70436215D01*
X53287243Y-70308200D01*
X52883923Y-69904176D01*
X52356691Y-69685250D01*
X51785813Y-69684752D01*
X51258200Y-69902757D01*
X50854176Y-70306077D01*
X50800138Y-70436215D01*
X50747243Y-70308200D01*
X50343923Y-69904176D01*
X49816691Y-69685250D01*
X49245813Y-69684752D01*
X48718200Y-69902757D01*
X48314176Y-70306077D01*
X48260138Y-70436215D01*
X48207243Y-70308200D01*
X47803923Y-69904176D01*
X47276691Y-69685250D01*
X46705813Y-69684752D01*
X46178200Y-69902757D01*
X45774176Y-70306077D01*
X45720138Y-70436215D01*
X45667243Y-70308200D01*
X45263923Y-69904176D01*
X44736691Y-69685250D01*
X44165813Y-69684752D01*
X43638200Y-69902757D01*
X43234176Y-70306077D01*
X43180138Y-70436215D01*
X43127243Y-70308200D01*
X42723923Y-69904176D01*
X42196691Y-69685250D01*
X41625813Y-69684752D01*
X41098200Y-69902757D01*
X40694176Y-70306077D01*
X40640138Y-70436215D01*
X40587243Y-70308200D01*
X40183923Y-69904176D01*
X39656691Y-69685250D01*
X39085813Y-69684752D01*
X38558200Y-69902757D01*
X38154176Y-70306077D01*
X38100138Y-70436215D01*
X38047243Y-70308200D01*
X37643923Y-69904176D01*
X37116691Y-69685250D01*
X36545813Y-69684752D01*
X36018200Y-69902757D01*
X35614176Y-70306077D01*
X35601928Y-70335574D01*
X34817502Y-71120000D01*
X35601107Y-71903605D01*
X35612757Y-71931800D01*
X36016077Y-72335824D01*
X36146215Y-72389862D01*
X36018200Y-72442757D01*
X35614176Y-72846077D01*
X35395250Y-73373309D01*
X35394752Y-73944187D01*
X35612757Y-74471800D01*
X36016077Y-74875824D01*
X36543309Y-75094750D01*
X37114187Y-75095248D01*
X37641800Y-74877243D01*
X38045824Y-74473923D01*
X38264750Y-73946691D01*
X38265248Y-73375813D01*
X38047243Y-72848200D01*
X37643923Y-72444176D01*
X37513785Y-72390138D01*
X37641800Y-72337243D01*
X38045824Y-71933923D01*
X38099862Y-71803785D01*
X38152757Y-71931800D01*
X38556077Y-72335824D01*
X39083309Y-72554750D01*
X39654187Y-72555248D01*
X40181800Y-72337243D01*
X40585824Y-71933923D01*
X40639862Y-71803785D01*
X40692757Y-71931800D01*
X41096077Y-72335824D01*
X41226215Y-72389862D01*
X41098200Y-72442757D01*
X40694176Y-72846077D01*
X40475250Y-73373309D01*
X40474752Y-73944187D01*
X40692757Y-74471800D01*
X41096077Y-74875824D01*
X41623309Y-75094750D01*
X42194187Y-75095248D01*
X42721800Y-74877243D01*
X43125824Y-74473923D01*
X43179862Y-74343785D01*
X43232757Y-74471800D01*
X43636077Y-74875824D01*
X44163309Y-75094750D01*
X44734187Y-75095248D01*
X45261800Y-74877243D01*
X45665824Y-74473923D01*
X45719862Y-74343785D01*
X45772757Y-74471800D01*
X46176077Y-74875824D01*
X46703309Y-75094750D01*
X47274187Y-75095248D01*
X47801800Y-74877243D01*
X48205824Y-74473923D01*
X48424750Y-73946691D01*
X48425248Y-73375813D01*
X48207243Y-72848200D01*
X47803923Y-72444176D01*
X47673785Y-72390138D01*
X47801800Y-72337243D01*
X48205824Y-71933923D01*
X48259862Y-71803785D01*
X48312757Y-71931800D01*
X48716077Y-72335824D01*
X49243309Y-72554750D01*
X49814187Y-72555248D01*
X50341800Y-72337243D01*
X50745824Y-71933923D01*
X50799862Y-71803785D01*
X50852757Y-71931800D01*
X51256077Y-72335824D01*
X51783309Y-72554750D01*
X52354187Y-72555248D01*
X52881800Y-72337243D01*
X53285824Y-71933923D01*
X53339862Y-71803785D01*
X53392757Y-71931800D01*
X53796077Y-72335824D01*
X54323309Y-72554750D01*
X54894187Y-72555248D01*
X55421800Y-72337243D01*
X55825824Y-71933923D01*
X55879862Y-71803785D01*
X55932757Y-71931800D01*
X56336077Y-72335824D01*
X56863309Y-72554750D01*
X57434187Y-72555248D01*
X57961800Y-72337243D01*
X58365824Y-71933923D01*
X58419862Y-71803785D01*
X58472757Y-71931800D01*
X58876077Y-72335824D01*
X59403309Y-72554750D01*
X59974187Y-72555248D01*
X60501800Y-72337243D01*
X60905824Y-71933923D01*
X60959862Y-71803785D01*
X61012757Y-71931800D01*
X61416077Y-72335824D01*
X61943309Y-72554750D01*
X62514187Y-72555248D01*
X63041800Y-72337243D01*
X63445824Y-71933923D01*
X63499862Y-71803785D01*
X63552757Y-71931800D01*
X63956077Y-72335824D01*
X64483309Y-72554750D01*
X65054187Y-72555248D01*
X65581800Y-72337243D01*
X65985824Y-71933923D01*
X66039862Y-71803785D01*
X66092757Y-71931800D01*
X66496077Y-72335824D01*
X67023309Y-72554750D01*
X67594187Y-72555248D01*
X68121800Y-72337243D01*
X68525824Y-71933923D01*
X68579862Y-71803785D01*
X68632757Y-71931800D01*
X69036077Y-72335824D01*
X69563309Y-72554750D01*
X70134187Y-72555248D01*
X70661800Y-72337243D01*
X71065824Y-71933923D01*
X71119862Y-71803785D01*
X71172757Y-71931800D01*
X71576077Y-72335824D01*
X72103309Y-72554750D01*
X72674187Y-72555248D01*
X73201800Y-72337243D01*
X73605824Y-71933923D01*
X73659862Y-71803785D01*
X73712757Y-71931800D01*
X74116077Y-72335824D01*
X74643309Y-72554750D01*
X75214187Y-72555248D01*
X75741800Y-72337243D01*
X76145824Y-71933923D01*
X76199862Y-71803785D01*
X76252757Y-71931800D01*
X76656077Y-72335824D01*
X77183309Y-72554750D01*
X77754187Y-72555248D01*
X78281800Y-72337243D01*
X78685824Y-71933923D01*
X78739862Y-71803785D01*
X78792757Y-71931800D01*
X79196077Y-72335824D01*
X79326215Y-72389862D01*
X79198200Y-72442757D01*
X78794176Y-72846077D01*
X78575250Y-73373309D01*
X78574752Y-73944187D01*
X78792757Y-74471800D01*
X79196077Y-74875824D01*
X79326215Y-74929862D01*
X79198200Y-74982757D01*
X78794176Y-75386077D01*
X78740138Y-75516215D01*
X78687243Y-75388200D01*
X78283923Y-74984176D01*
X77756691Y-74765250D01*
X77185813Y-74764752D01*
X76658200Y-74982757D01*
X76254176Y-75386077D01*
X76200138Y-75516215D01*
X76147243Y-75388200D01*
X75743923Y-74984176D01*
X75216691Y-74765250D01*
X74645813Y-74764752D01*
X74118200Y-74982757D01*
X73714176Y-75386077D01*
X73660138Y-75516215D01*
X73607243Y-75388200D01*
X73203923Y-74984176D01*
X72676691Y-74765250D01*
X72105813Y-74764752D01*
X71578200Y-74982757D01*
X71174176Y-75386077D01*
X70955250Y-75913309D01*
X70954752Y-76484187D01*
X71172757Y-77011800D01*
X71576077Y-77415824D01*
X71706215Y-77469862D01*
X71578200Y-77522757D01*
X71174176Y-77926077D01*
X70955250Y-78453309D01*
X70954752Y-79024187D01*
X71172757Y-79551800D01*
X71576077Y-79955824D01*
X72103309Y-80174750D01*
X72674187Y-80175248D01*
X73201800Y-79957243D01*
X73605824Y-79553923D01*
X73659862Y-79423785D01*
X73712757Y-79551800D01*
X74116077Y-79955824D01*
X74643309Y-80174750D01*
X75214187Y-80175248D01*
X75741800Y-79957243D01*
X76145824Y-79553923D01*
X76199862Y-79423785D01*
X76252757Y-79551800D01*
X76656077Y-79955824D01*
X77183309Y-80174750D01*
X77754187Y-80175248D01*
X78281800Y-79957243D01*
X78685824Y-79553923D01*
X78739862Y-79423785D01*
X78792757Y-79551800D01*
X79196077Y-79955824D01*
X79326215Y-80009862D01*
X79198200Y-80062757D01*
X78794176Y-80466077D01*
X78575250Y-80993309D01*
X78574752Y-81564187D01*
X78658263Y-81766300D01*
X76962600Y-81766300D01*
X76643059Y-81829861D01*
X76372166Y-82010866D01*
X73221374Y-85161658D01*
X73203923Y-85144176D01*
X72676691Y-84925250D01*
X72105813Y-84924752D01*
X71578200Y-85142757D01*
X71485000Y-85235795D01*
X71485000Y-85090000D01*
X71360543Y-84464313D01*
X71360543Y-84464312D01*
X71119915Y-84104187D01*
X71006120Y-83933880D01*
X71006117Y-83933878D01*
X69736120Y-82663880D01*
X69205688Y-82309457D01*
X68580000Y-82184999D01*
X68579995Y-82185000D01*
X27940005Y-82185000D01*
X27940000Y-82184999D01*
X27314312Y-82309457D01*
X26783880Y-82663880D01*
X21703880Y-87743880D01*
X21349457Y-88274312D01*
X21224999Y-88900000D01*
X21225000Y-88900005D01*
X21225000Y-89877603D01*
X20964312Y-89929457D01*
X20794020Y-90043243D01*
X20433880Y-90283880D01*
X20433878Y-90283883D01*
X19163880Y-91553880D01*
X18809457Y-92084312D01*
X18684999Y-92710000D01*
X18490000Y-92710000D01*
X18490000Y-76672325D01*
X23014587Y-76672325D01*
X23376916Y-77549229D01*
X24047242Y-78220726D01*
X24923513Y-78584585D01*
X25872325Y-78585413D01*
X26749229Y-78223084D01*
X27420726Y-77552758D01*
X27784585Y-76676487D01*
X27784752Y-76484187D01*
X48094752Y-76484187D01*
X48312757Y-77011800D01*
X48716077Y-77415824D01*
X48846215Y-77469862D01*
X48718200Y-77522757D01*
X48314176Y-77926077D01*
X48095250Y-78453309D01*
X48094752Y-79024187D01*
X48312757Y-79551800D01*
X48716077Y-79955824D01*
X49243309Y-80174750D01*
X49814187Y-80175248D01*
X50341800Y-79957243D01*
X50745824Y-79553923D01*
X50799862Y-79423785D01*
X50852757Y-79551800D01*
X51256077Y-79955824D01*
X51783309Y-80174750D01*
X52354187Y-80175248D01*
X52881800Y-79957243D01*
X53285824Y-79553923D01*
X53339862Y-79423785D01*
X53392757Y-79551800D01*
X53796077Y-79955824D01*
X54323309Y-80174750D01*
X54894187Y-80175248D01*
X55421800Y-79957243D01*
X55825824Y-79553923D01*
X55879862Y-79423785D01*
X55932757Y-79551800D01*
X56336077Y-79955824D01*
X56863309Y-80174750D01*
X57434187Y-80175248D01*
X57961800Y-79957243D01*
X58365824Y-79553923D01*
X58584750Y-79026691D01*
X58585248Y-78455813D01*
X58367243Y-77928200D01*
X57963923Y-77524176D01*
X57833785Y-77470138D01*
X57961800Y-77417243D01*
X58365824Y-77013923D01*
X58584750Y-76486691D01*
X58585248Y-75915813D01*
X58367243Y-75388200D01*
X57963923Y-74984176D01*
X57436691Y-74765250D01*
X56865813Y-74764752D01*
X56338200Y-74982757D01*
X55934176Y-75386077D01*
X55880138Y-75516215D01*
X55827243Y-75388200D01*
X55423923Y-74984176D01*
X54896691Y-74765250D01*
X54325813Y-74764752D01*
X53798200Y-74982757D01*
X53394176Y-75386077D01*
X53340138Y-75516215D01*
X53287243Y-75388200D01*
X52883923Y-74984176D01*
X52356691Y-74765250D01*
X51785813Y-74764752D01*
X51258200Y-74982757D01*
X50854176Y-75386077D01*
X50800138Y-75516215D01*
X50747243Y-75388200D01*
X50343923Y-74984176D01*
X49816691Y-74765250D01*
X49245813Y-74764752D01*
X48718200Y-74982757D01*
X48314176Y-75386077D01*
X48095250Y-75913309D01*
X48094752Y-76484187D01*
X27784752Y-76484187D01*
X27785413Y-75727675D01*
X27423084Y-74850771D01*
X26752758Y-74179274D01*
X25876487Y-73815415D01*
X24927675Y-73814587D01*
X24050771Y-74176916D01*
X23379274Y-74847242D01*
X23015415Y-75723513D01*
X23014587Y-76672325D01*
X18490000Y-76672325D01*
X18490000Y-76269931D01*
X19028844Y-73560979D01*
X19708221Y-72544218D01*
X33393284Y-72544218D01*
X33457914Y-72899854D01*
X34202373Y-73082796D01*
X34960173Y-72966920D01*
X35122086Y-72899854D01*
X35186716Y-72544218D01*
X34290000Y-71647502D01*
X33393284Y-72544218D01*
X19708221Y-72544218D01*
X20523727Y-71323727D01*
X20959769Y-71032373D01*
X32327204Y-71032373D01*
X32443080Y-71790173D01*
X32510146Y-71952086D01*
X32865782Y-72016716D01*
X33762498Y-71120000D01*
X32865782Y-70223284D01*
X32510146Y-70287914D01*
X32327204Y-71032373D01*
X20959769Y-71032373D01*
X22760979Y-69828844D01*
X25469931Y-69290000D01*
X33578978Y-69290000D01*
X33457914Y-69340146D01*
G36*
X71375302Y-116612811D02*
X71840849Y-116923880D01*
X72390000Y-117033113D01*
X72825000Y-116946586D01*
X72825000Y-121543613D01*
X72763000Y-121587590D01*
X72763000Y-122817000D01*
X72783000Y-122817000D01*
X72783000Y-123563000D01*
X72763000Y-123563000D01*
X72763000Y-124792410D01*
X72825000Y-124836387D01*
X72825000Y-131802372D01*
X72666702Y-131736641D01*
X72115715Y-131736160D01*
X71606485Y-131946569D01*
X71216539Y-132335836D01*
X71120024Y-132568270D01*
X71024831Y-132337885D01*
X70635564Y-131947939D01*
X70126702Y-131736641D01*
X69575715Y-131736160D01*
X69335600Y-131835373D01*
X69335600Y-128190600D01*
X69300611Y-128014698D01*
X69272040Y-127871060D01*
X69091034Y-127600166D01*
X68744779Y-127253911D01*
X68745222Y-126745646D01*
X69240134Y-126250734D01*
X69421139Y-125979841D01*
X69484700Y-125660300D01*
X69484700Y-123563000D01*
X70223000Y-123563000D01*
X70223000Y-124792410D01*
X70514156Y-124998929D01*
X70659491Y-124938754D01*
X71120000Y-124603077D01*
X71580509Y-124938754D01*
X71725844Y-124998929D01*
X72017000Y-124792410D01*
X72017000Y-123563000D01*
X70223000Y-123563000D01*
X69484700Y-123563000D01*
X69484700Y-121587590D01*
X70223000Y-121587590D01*
X70223000Y-122817000D01*
X72017000Y-122817000D01*
X72017000Y-121587590D01*
X71725844Y-121381071D01*
X71580509Y-121441246D01*
X71120000Y-121776923D01*
X70659491Y-121441246D01*
X70514156Y-121381071D01*
X70223000Y-121587590D01*
X69484700Y-121587590D01*
X69484700Y-118316468D01*
X70440434Y-117360734D01*
X70621440Y-117089840D01*
X70685000Y-116770300D01*
X70685000Y-116732882D01*
X70864698Y-116612811D01*
X71120000Y-116230725D01*
X71375302Y-116612811D01*
X71375302Y-116612811D01*
G37*
X71375302Y-116612811D02*
X71840849Y-116923880D01*
X72390000Y-117033113D01*
X72825000Y-116946586D01*
X72825000Y-121543613D01*
X72763000Y-121587590D01*
X72763000Y-122817000D01*
X72783000Y-122817000D01*
X72783000Y-123563000D01*
X72763000Y-123563000D01*
X72763000Y-124792410D01*
X72825000Y-124836387D01*
X72825000Y-131802372D01*
X72666702Y-131736641D01*
X72115715Y-131736160D01*
X71606485Y-131946569D01*
X71216539Y-132335836D01*
X71120024Y-132568270D01*
X71024831Y-132337885D01*
X70635564Y-131947939D01*
X70126702Y-131736641D01*
X69575715Y-131736160D01*
X69335600Y-131835373D01*
X69335600Y-128190600D01*
X69300611Y-128014698D01*
X69272040Y-127871060D01*
X69091034Y-127600166D01*
X68744779Y-127253911D01*
X68745222Y-126745646D01*
X69240134Y-126250734D01*
X69421139Y-125979841D01*
X69484700Y-125660300D01*
X69484700Y-123563000D01*
X70223000Y-123563000D01*
X70223000Y-124792410D01*
X70514156Y-124998929D01*
X70659491Y-124938754D01*
X71120000Y-124603077D01*
X71580509Y-124938754D01*
X71725844Y-124998929D01*
X72017000Y-124792410D01*
X72017000Y-123563000D01*
X70223000Y-123563000D01*
X69484700Y-123563000D01*
X69484700Y-121587590D01*
X70223000Y-121587590D01*
X70223000Y-122817000D01*
X72017000Y-122817000D01*
X72017000Y-121587590D01*
X71725844Y-121381071D01*
X71580509Y-121441246D01*
X71120000Y-121776923D01*
X70659491Y-121441246D01*
X70514156Y-121381071D01*
X70223000Y-121587590D01*
X69484700Y-121587590D01*
X69484700Y-118316468D01*
X70440434Y-117360734D01*
X70621440Y-117089840D01*
X70685000Y-116770300D01*
X70685000Y-116732882D01*
X70864698Y-116612811D01*
X71120000Y-116230725D01*
X71375302Y-116612811D01*
G36*
X81653000Y-115197000D02*
X81673000Y-115197000D01*
X81673000Y-115943000D01*
X81653000Y-115943000D01*
X81653000Y-115963000D01*
X81101068Y-115963000D01*
X80887000Y-115748932D01*
X80887000Y-115197000D01*
X80907000Y-115197000D01*
X80907000Y-115177000D01*
X81653000Y-115177000D01*
X81653000Y-115197000D01*
X81653000Y-115197000D01*
G37*
X81653000Y-115197000D02*
X81673000Y-115197000D01*
X81673000Y-115943000D01*
X81653000Y-115943000D01*
X81653000Y-115963000D01*
X81101068Y-115963000D01*
X80887000Y-115748932D01*
X80887000Y-115197000D01*
X80907000Y-115197000D01*
X80907000Y-115177000D01*
X81653000Y-115177000D01*
X81653000Y-115197000D01*
G36*
X39911644Y-91425858D02*
X39897502Y-91440000D01*
X39911644Y-91454142D01*
X39490786Y-91875000D01*
X39249214Y-91875000D01*
X38828356Y-91454142D01*
X38842498Y-91440000D01*
X38828356Y-91425858D01*
X39335514Y-90918700D01*
X39404486Y-90918700D01*
X39911644Y-91425858D01*
X39911644Y-91425858D01*
G37*
X39911644Y-91425858D02*
X39897502Y-91440000D01*
X39911644Y-91454142D01*
X39490786Y-91875000D01*
X39249214Y-91875000D01*
X38828356Y-91454142D01*
X38842498Y-91440000D01*
X38828356Y-91425858D01*
X39335514Y-90918700D01*
X39404486Y-90918700D01*
X39911644Y-91425858D01*
G36*
X81821644Y-91425858D02*
X81807502Y-91440000D01*
X81821644Y-91454142D01*
X81400786Y-91875000D01*
X81159214Y-91875000D01*
X80738356Y-91454142D01*
X80752498Y-91440000D01*
X80738356Y-91425858D01*
X81245514Y-90918700D01*
X81314486Y-90918700D01*
X81821644Y-91425858D01*
X81821644Y-91425858D01*
G37*
X81821644Y-91425858D02*
X81807502Y-91440000D01*
X81821644Y-91454142D01*
X81400786Y-91875000D01*
X81159214Y-91875000D01*
X80738356Y-91454142D01*
X80752498Y-91440000D01*
X80738356Y-91425858D01*
X81245514Y-90918700D01*
X81314486Y-90918700D01*
X81821644Y-91425858D01*
G36*
X67851644Y-91425858D02*
X67837502Y-91440000D01*
X67851644Y-91454142D01*
X67430786Y-91875000D01*
X67189214Y-91875000D01*
X66768356Y-91454142D01*
X66782498Y-91440000D01*
X66768356Y-91425858D01*
X67275514Y-90918700D01*
X67344486Y-90918700D01*
X67851644Y-91425858D01*
X67851644Y-91425858D01*
G37*
X67851644Y-91425858D02*
X67837502Y-91440000D01*
X67851644Y-91454142D01*
X67430786Y-91875000D01*
X67189214Y-91875000D01*
X66768356Y-91454142D01*
X66782498Y-91440000D01*
X66768356Y-91425858D01*
X67275514Y-90918700D01*
X67344486Y-90918700D01*
X67851644Y-91425858D01*
G36*
X53881644Y-91425858D02*
X53867502Y-91440000D01*
X53881644Y-91454142D01*
X53460786Y-91875000D01*
X53219214Y-91875000D01*
X52798356Y-91454142D01*
X52812498Y-91440000D01*
X52798356Y-91425858D01*
X53305514Y-90918700D01*
X53374486Y-90918700D01*
X53881644Y-91425858D01*
X53881644Y-91425858D01*
G37*
X53881644Y-91425858D02*
X53867502Y-91440000D01*
X53881644Y-91454142D01*
X53460786Y-91875000D01*
X53219214Y-91875000D01*
X52798356Y-91454142D01*
X52812498Y-91440000D01*
X52798356Y-91425858D01*
X53305514Y-90918700D01*
X53374486Y-90918700D01*
X53881644Y-91425858D01*
G36*
X58785300Y-118316468D02*
X58785300Y-124460000D01*
X58793000Y-124498710D01*
X58793000Y-124792410D01*
X58915534Y-124879324D01*
X59029866Y-125050434D01*
X59945690Y-125966258D01*
X59917189Y-125985302D01*
X59606120Y-126450849D01*
X59496887Y-127000000D01*
X59606120Y-127549151D01*
X59917189Y-128014698D01*
X60382736Y-128325767D01*
X60931887Y-128435000D01*
X60988113Y-128435000D01*
X61325400Y-128367909D01*
X61325400Y-130424832D01*
X60440865Y-131309367D01*
X60280434Y-131069266D01*
X57925000Y-128713832D01*
X57925000Y-124878945D01*
X58047000Y-124792410D01*
X58047000Y-123563000D01*
X58027000Y-123563000D01*
X58027000Y-122817000D01*
X58047000Y-122817000D01*
X58047000Y-121587590D01*
X57925000Y-121501055D01*
X57925000Y-117456168D01*
X58785300Y-118316468D01*
X58785300Y-118316468D01*
G37*
X58785300Y-118316468D02*
X58785300Y-124460000D01*
X58793000Y-124498710D01*
X58793000Y-124792410D01*
X58915534Y-124879324D01*
X59029866Y-125050434D01*
X59945690Y-125966258D01*
X59917189Y-125985302D01*
X59606120Y-126450849D01*
X59496887Y-127000000D01*
X59606120Y-127549151D01*
X59917189Y-128014698D01*
X60382736Y-128325767D01*
X60931887Y-128435000D01*
X60988113Y-128435000D01*
X61325400Y-128367909D01*
X61325400Y-130424832D01*
X60440865Y-131309367D01*
X60280434Y-131069266D01*
X57925000Y-128713832D01*
X57925000Y-124878945D01*
X58047000Y-124792410D01*
X58047000Y-123563000D01*
X58027000Y-123563000D01*
X58027000Y-122817000D01*
X58047000Y-122817000D01*
X58047000Y-121587590D01*
X57925000Y-121501055D01*
X57925000Y-117456168D01*
X58785300Y-118316468D01*
M02*
