M48
INCH,TZ
T1C0.030
T2C0.031
T3C0.032
T4C0.035
T5C0.039
T6C0.043
T7C0.138
%
G90
G05
T1
X6.8701Y-3.7008
X6.8701Y-3.8189
X7.0669Y-3.7008
X7.0669Y-3.8189
T2
X4.1043Y-4.3307
X4.2276Y-4.2323
X4.2276Y-4.5323
X4.2323Y-2.948
X4.2323Y-3.248
X4.3276Y-4.2323
X4.3276Y-4.5323
X4.3323Y-2.948
X4.3323Y-3.248
X4.4276Y-4.2323
X4.4276Y-4.5323
X4.4323Y-2.948
X4.4323Y-3.248
X4.5276Y-4.2323
X4.5276Y-4.5323
X4.5323Y-2.948
X4.5323Y-3.248
X4.6555Y-3.1398
X4.7835Y-4.3307
X4.8228Y-2.948
X4.8228Y-3.248
X4.9165Y-4.252
X4.9165Y-4.552
X4.9228Y-2.948
X4.9228Y-3.248
X5.0165Y-4.252
X5.0165Y-4.552
X5.0228Y-2.948
X5.0228Y-3.248
X5.1165Y-4.252
X5.1165Y-4.552
X5.1228Y-2.948
X5.1228Y-3.248
X5.2165Y-4.252
X5.2165Y-4.552
X5.2559Y-3.1496
X5.4921Y-2.948
X5.4921Y-3.248
X5.4921Y-4.3504
X5.5921Y-2.948
X5.5921Y-3.248
X5.6252Y-4.2323
X5.6252Y-4.5323
X5.6921Y-2.948
X5.6921Y-3.248
X5.7252Y-4.2323
X5.7252Y-4.5323
X5.7921Y-2.948
X5.7921Y-3.248
X5.8252Y-4.2323
X5.8252Y-4.5323
X5.9252Y-3.1496
X5.9252Y-4.2323
X5.9252Y-4.5323
X6.122Y-2.948
X6.122Y-3.248
X6.1614Y-4.3307
X6.222Y-2.948
X6.222Y-3.248
X6.2945Y-4.2126
X6.2945Y-4.5126
X6.322Y-2.948
X6.322Y-3.248
X6.3945Y-4.2126
X6.3945Y-4.5126
X6.422Y-2.948
X6.422Y-3.248
X6.4945Y-4.2126
X6.4945Y-4.5126
X6.5551Y-3.1496
X6.5945Y-4.2126
X6.5945Y-4.5126
T3
X4.1043Y-4.4291
X4.6555Y-3.0413
X4.7835Y-4.4291
X5.2559Y-3.0512
X5.4921Y-4.4488
X5.9252Y-3.0512
X6.1614Y-4.4291
X6.5551Y-3.0512
T4
X4.1732Y-5.0197
X4.1776Y-2.5606
X4.2232Y-4.9197
X4.2276Y-2.4606
X4.2732Y-5.0197
X4.2776Y-2.5606
X4.3232Y-4.9197
X4.3276Y-2.4606
X4.3732Y-5.0197
X4.3776Y-2.5606
X4.4232Y-4.9197
X4.4276Y-2.4606
X4.4732Y-5.0197
X4.4776Y-2.5606
X4.5232Y-4.9197
X4.5276Y-2.4606
X4.8425Y-5.0197
X4.8469Y-2.5606
X4.8925Y-4.9197
X4.8969Y-2.4606
X4.9425Y-5.0197
X4.9469Y-2.5606
X4.9925Y-4.9197
X4.9969Y-2.4606
X5.0425Y-5.0197
X5.0469Y-2.5606
X5.0925Y-4.9197
X5.0969Y-2.4606
X5.1425Y-5.0197
X5.1469Y-2.5606
X5.1925Y-4.9197
X5.1969Y-2.4606
X5.5118Y-5.0197
X5.5161Y-2.5606
X5.5618Y-4.9197
X5.5661Y-2.4606
X5.6118Y-5.0197
X5.6161Y-2.5606
X5.6618Y-4.9197
X5.6661Y-2.4606
X5.7118Y-5.0197
X5.7161Y-2.5606
X5.7618Y-4.9197
X5.7661Y-2.4606
X5.8118Y-5.0197
X5.8161Y-2.5606
X5.8618Y-4.9197
X5.8661Y-2.4606
X6.1811Y-5.0197
X6.1854Y-2.5606
X6.2311Y-4.9197
X6.2354Y-2.4606
X6.2811Y-5.0197
X6.2854Y-2.5606
X6.3311Y-4.9197
X6.3354Y-2.4606
X6.3811Y-5.0197
X6.3854Y-2.5606
X6.4311Y-4.9197
X6.4354Y-2.4606
X6.4811Y-5.0197
X6.4854Y-2.5606
X6.5311Y-4.9197
X6.5354Y-2.4606
T5
X4.1732Y-4.7441
X4.2669Y-2.7362
X4.4732Y-4.7441
X4.5669Y-2.7362
X4.7835Y-4.7441
X4.8181Y-2.7362
X5.0835Y-4.7441
X5.1181Y-2.7362
X5.4874Y-2.7362
X5.4921Y-4.7441
X5.7874Y-2.7362
X5.7921Y-4.7441
X6.1173Y-2.7362
X6.1614Y-4.7441
X6.4173Y-2.7362
X6.4614Y-4.7441
T6
X3.9681Y-3.4402
X3.9681Y-4.0402
X4.0681Y-3.4402
X4.0681Y-3.5402
X4.0681Y-4.0402
X4.1681Y-3.4402
X4.1681Y-4.0402
X4.2681Y-3.4402
X4.2681Y-3.5402
X4.2681Y-4.0402
X4.3681Y-3.4402
X4.3681Y-3.5402
X4.3681Y-4.0402
X4.4681Y-3.4402
X4.4681Y-3.5402
X4.4681Y-4.0402
X4.5681Y-3.4402
X4.5681Y-3.6402
X4.5681Y-3.7402
X4.5681Y-4.0402
X4.6681Y-3.4402
X4.6681Y-3.6402
X4.6681Y-3.7402
X4.6681Y-4.0402
X4.7681Y-3.4402
X4.7681Y-3.6402
X4.7681Y-3.7402
X4.7681Y-4.0402
X4.8681Y-3.4402
X4.8681Y-3.6402
X4.8681Y-3.7402
X4.8681Y-4.0402
X4.9681Y-3.4402
X4.9681Y-4.0402
X5.0681Y-3.4402
X5.0681Y-4.0402
X5.1681Y-3.4402
X5.1681Y-4.0402
X5.2681Y-3.4402
X5.2681Y-4.0402
X5.3681Y-3.4402
X5.3681Y-4.0402
X5.4681Y-3.4402
X5.4681Y-3.6402
X5.4681Y-3.7402
X5.4681Y-4.0402
X5.5681Y-3.4402
X5.5681Y-3.6402
X5.5681Y-3.7402
X5.5681Y-4.0402
X5.6681Y-3.4402
X5.6681Y-3.6402
X5.6681Y-3.7402
X5.6681Y-4.0402
X5.7681Y-3.4402
X5.7681Y-3.5402
X5.7681Y-3.6402
X5.7681Y-3.7402
X5.7681Y-3.8402
X5.7681Y-3.9402
X5.7681Y-4.0402
X5.8681Y-3.4402
X5.8681Y-3.6402
X5.8681Y-3.7402
X5.8681Y-4.0402
X5.9681Y-3.4402
X5.9681Y-3.6402
X5.9681Y-3.7402
X5.9681Y-4.0402
X6.0681Y-3.4402
X6.0681Y-3.6402
X6.0681Y-3.7402
X6.0681Y-4.0402
X6.1681Y-3.4402
X6.1681Y-3.6402
X6.1681Y-3.7402
X6.1681Y-4.0402
X6.2681Y-3.4402
X6.2681Y-3.6402
X6.2681Y-3.7402
X6.2681Y-4.0402
T7
X3.937Y-2.7559
X3.937Y-4.7244
X6.8898Y-2.7559
X6.8898Y-4.7244
T0
M30
