G04 #@! TF.FileFunction,Legend,Top*
%FSLAX46Y46*%
G04 Gerber Fmt 4.6, Leading zero omitted, Abs format (unit mm)*
G04 Created by KiCad (PCBNEW 4.0.6) date Thu May  4 15:18:23 2017*
%MOMM*%
%LPD*%
G01*
G04 APERTURE LIST*
%ADD10C,0.100000*%
%ADD11C,0.120000*%
%ADD12C,0.150000*%
G04 APERTURE END LIST*
D10*
D11*
X189470000Y-132170000D02*
X189470000Y-116930000D01*
X171440000Y-116930000D02*
X180430000Y-116940000D01*
X171440000Y-116930000D02*
X171440000Y-132170000D01*
X171440000Y-132170000D02*
X180440000Y-132170000D01*
X182770000Y-116940000D02*
X189470000Y-116930000D01*
X182760000Y-132170000D02*
X189470000Y-132170000D01*
X119765000Y-65410000D02*
X119765000Y-80650000D01*
X137795000Y-80650000D02*
X128805000Y-80640000D01*
X137795000Y-80650000D02*
X137795000Y-65410000D01*
X137795000Y-65410000D02*
X128795000Y-65410000D01*
X126465000Y-80640000D02*
X119765000Y-80650000D01*
X126475000Y-65410000D02*
X119765000Y-65410000D01*
X119765000Y-82555000D02*
X119765000Y-97795000D01*
X137795000Y-97795000D02*
X128805000Y-97785000D01*
X137795000Y-97795000D02*
X137795000Y-82555000D01*
X137795000Y-82555000D02*
X128795000Y-82555000D01*
X126465000Y-97785000D02*
X119765000Y-97795000D01*
X126475000Y-82555000D02*
X119765000Y-82555000D01*
X119765000Y-99700000D02*
X119765000Y-114940000D01*
X137795000Y-114940000D02*
X128805000Y-114930000D01*
X137795000Y-114940000D02*
X137795000Y-99700000D01*
X137795000Y-99700000D02*
X128795000Y-99700000D01*
X126465000Y-114930000D02*
X119765000Y-114940000D01*
X126475000Y-99700000D02*
X119765000Y-99700000D01*
X119780000Y-116830000D02*
X119780000Y-132070000D01*
X137810000Y-132070000D02*
X128820000Y-132060000D01*
X137810000Y-132070000D02*
X137810000Y-116830000D01*
X137810000Y-116830000D02*
X128810000Y-116830000D01*
X126480000Y-132060000D02*
X119780000Y-132070000D01*
X126490000Y-116830000D02*
X119780000Y-116830000D01*
X189480000Y-80640000D02*
X189480000Y-65400000D01*
X171450000Y-65400000D02*
X180440000Y-65410000D01*
X171450000Y-65400000D02*
X171450000Y-80640000D01*
X171450000Y-80640000D02*
X180450000Y-80640000D01*
X182780000Y-65410000D02*
X189480000Y-65400000D01*
X182770000Y-80640000D02*
X189480000Y-80640000D01*
X189480000Y-97785000D02*
X189480000Y-82545000D01*
X171450000Y-82545000D02*
X180440000Y-82555000D01*
X171450000Y-82545000D02*
X171450000Y-97785000D01*
X171450000Y-97785000D02*
X180450000Y-97785000D01*
X182780000Y-82555000D02*
X189480000Y-82545000D01*
X182770000Y-97785000D02*
X189480000Y-97785000D01*
X189480000Y-114930000D02*
X189480000Y-99690000D01*
X171450000Y-99690000D02*
X180440000Y-99700000D01*
X171450000Y-99690000D02*
X171450000Y-114930000D01*
X171450000Y-114930000D02*
X180450000Y-114930000D01*
X182780000Y-99700000D02*
X189480000Y-99690000D01*
X182770000Y-114930000D02*
X189480000Y-114930000D01*
D12*
X144145000Y-124460000D02*
X146685000Y-124460000D01*
X146685000Y-124460000D02*
X146685000Y-121920000D01*
X146685000Y-121920000D02*
X144145000Y-121920000D01*
X144145000Y-121920000D02*
X144145000Y-124460000D01*
X153035000Y-116840000D02*
X153035000Y-120650000D01*
X153035000Y-120650000D02*
X150495000Y-120650000D01*
X150495000Y-120650000D02*
X150495000Y-116840000D01*
X150495000Y-116840000D02*
X153035000Y-116840000D01*
X154305000Y-102870000D02*
X141605000Y-102870000D01*
X141605000Y-115570000D02*
X154305000Y-115570000D01*
X154305000Y-115570000D02*
X154305000Y-102870000D01*
X141605000Y-115570000D02*
X141605000Y-102870000D01*
X153035000Y-81280000D02*
X153035000Y-80010000D01*
X151765000Y-81280000D02*
X151765000Y-80010000D01*
X150495000Y-81280000D02*
X150495000Y-80010000D01*
X149225000Y-81280000D02*
X149225000Y-80010000D01*
X147955000Y-81280000D02*
X147955000Y-80010000D01*
X146685000Y-81280000D02*
X146685000Y-80010000D01*
X145415000Y-81280000D02*
X145415000Y-80010000D01*
X144145000Y-81280000D02*
X144145000Y-80010000D01*
X142875000Y-81280000D02*
X142875000Y-80010000D01*
X154305000Y-80010000D02*
X153035000Y-81280000D01*
X153035000Y-81280000D02*
X142875000Y-81280000D01*
X142875000Y-81280000D02*
X141605000Y-80010000D01*
X141605000Y-80010000D02*
X141605000Y-92710000D01*
X141605000Y-92710000D02*
X154305000Y-92710000D01*
X154305000Y-92710000D02*
X154305000Y-80010000D01*
X139065000Y-80010000D02*
X139065000Y-140970000D01*
X156845000Y-140970000D02*
X156845000Y-80010000D01*
X151765000Y-140970000D02*
X151765000Y-142240000D01*
X151765000Y-142240000D02*
X144145000Y-142240000D01*
X144145000Y-142240000D02*
X144145000Y-140970000D01*
X151765000Y-135890000D02*
X144145000Y-135890000D01*
X144145000Y-135890000D02*
X144145000Y-140970000D01*
X151765000Y-135890000D02*
X151765000Y-140970000D01*
X145415000Y-96520000D02*
X150495000Y-96520000D01*
X150495000Y-96520000D02*
X150495000Y-99060000D01*
X150495000Y-99060000D02*
X145415000Y-99060000D01*
X145415000Y-99060000D02*
X145415000Y-96520000D01*
X139065000Y-80010000D02*
X156845000Y-80010000D01*
X156845000Y-140970000D02*
X139065000Y-140970000D01*
D11*
X168945000Y-86070000D02*
X168945000Y-86400000D01*
X168945000Y-86400000D02*
X162525000Y-86400000D01*
X162525000Y-86400000D02*
X162525000Y-86070000D01*
X168945000Y-84110000D02*
X168945000Y-83780000D01*
X168945000Y-83780000D02*
X162525000Y-83780000D01*
X162525000Y-83780000D02*
X162525000Y-84110000D01*
X168945000Y-89880000D02*
X168945000Y-90210000D01*
X168945000Y-90210000D02*
X162525000Y-90210000D01*
X162525000Y-90210000D02*
X162525000Y-89880000D01*
X168945000Y-87920000D02*
X168945000Y-87590000D01*
X168945000Y-87590000D02*
X162525000Y-87590000D01*
X162525000Y-87590000D02*
X162525000Y-87920000D01*
X168945000Y-93690000D02*
X168945000Y-94020000D01*
X168945000Y-94020000D02*
X162525000Y-94020000D01*
X162525000Y-94020000D02*
X162525000Y-93690000D01*
X168945000Y-91730000D02*
X168945000Y-91400000D01*
X168945000Y-91400000D02*
X162525000Y-91400000D01*
X162525000Y-91400000D02*
X162525000Y-91730000D01*
X168945000Y-97500000D02*
X168945000Y-97830000D01*
X168945000Y-97830000D02*
X162525000Y-97830000D01*
X162525000Y-97830000D02*
X162525000Y-97500000D01*
X168945000Y-95540000D02*
X168945000Y-95210000D01*
X168945000Y-95210000D02*
X162525000Y-95210000D01*
X162525000Y-95210000D02*
X162525000Y-95540000D01*
X168945000Y-101310000D02*
X168945000Y-101640000D01*
X168945000Y-101640000D02*
X162525000Y-101640000D01*
X162525000Y-101640000D02*
X162525000Y-101310000D01*
X168945000Y-99350000D02*
X168945000Y-99020000D01*
X168945000Y-99020000D02*
X162525000Y-99020000D01*
X162525000Y-99020000D02*
X162525000Y-99350000D01*
X168945000Y-105120000D02*
X168945000Y-105450000D01*
X168945000Y-105450000D02*
X162525000Y-105450000D01*
X162525000Y-105450000D02*
X162525000Y-105120000D01*
X168945000Y-103160000D02*
X168945000Y-102830000D01*
X168945000Y-102830000D02*
X162525000Y-102830000D01*
X162525000Y-102830000D02*
X162525000Y-103160000D01*
X168945000Y-108930000D02*
X168945000Y-109260000D01*
X168945000Y-109260000D02*
X162525000Y-109260000D01*
X162525000Y-109260000D02*
X162525000Y-108930000D01*
X168945000Y-106970000D02*
X168945000Y-106640000D01*
X168945000Y-106640000D02*
X162525000Y-106640000D01*
X162525000Y-106640000D02*
X162525000Y-106970000D01*
D12*
X170180000Y-120650000D02*
X157480000Y-120650000D01*
X157480000Y-120650000D02*
X157480000Y-140970000D01*
X157480000Y-140970000D02*
X170180000Y-140970000D01*
X170180000Y-140970000D02*
X170180000Y-120650000D01*
D11*
X168945000Y-82260000D02*
X168945000Y-82590000D01*
X168945000Y-82590000D02*
X162525000Y-82590000D01*
X162525000Y-82590000D02*
X162525000Y-82260000D01*
X168945000Y-80300000D02*
X168945000Y-79970000D01*
X168945000Y-79970000D02*
X162525000Y-79970000D01*
X162525000Y-79970000D02*
X162525000Y-80300000D01*
D12*
X141351000Y-57785000D02*
X167259000Y-57785000D01*
X167259000Y-57785000D02*
X167259000Y-78105000D01*
X167259000Y-78105000D02*
X141351000Y-78105000D01*
X141351000Y-78105000D02*
X141351000Y-57785000D01*
D11*
X162525000Y-110780000D02*
X162525000Y-110450000D01*
X162525000Y-110450000D02*
X168945000Y-110450000D01*
X168945000Y-110450000D02*
X168945000Y-110780000D01*
X162525000Y-112740000D02*
X162525000Y-113070000D01*
X162525000Y-113070000D02*
X168945000Y-113070000D01*
X168945000Y-113070000D02*
X168945000Y-112740000D01*
X162525000Y-114590000D02*
X162525000Y-114260000D01*
X162525000Y-114260000D02*
X168945000Y-114260000D01*
X168945000Y-114260000D02*
X168945000Y-114590000D01*
X162525000Y-116550000D02*
X162525000Y-116880000D01*
X162525000Y-116880000D02*
X168945000Y-116880000D01*
X168945000Y-116880000D02*
X168945000Y-116550000D01*
X161380000Y-118070000D02*
X166200000Y-118070000D01*
X161380000Y-120690000D02*
X166200000Y-120690000D01*
X161380000Y-118070000D02*
X161380000Y-118384000D01*
X161380000Y-120376000D02*
X161380000Y-120690000D01*
X166200000Y-118070000D02*
X166200000Y-118384000D01*
X166200000Y-120376000D02*
X166200000Y-120690000D01*
D12*
X185882381Y-124633333D02*
X186596667Y-124633333D01*
X186739524Y-124680953D01*
X186834762Y-124776191D01*
X186882381Y-124919048D01*
X186882381Y-125014286D01*
X186310952Y-124014286D02*
X186263333Y-124109524D01*
X186215714Y-124157143D01*
X186120476Y-124204762D01*
X186072857Y-124204762D01*
X185977619Y-124157143D01*
X185930000Y-124109524D01*
X185882381Y-124014286D01*
X185882381Y-123823809D01*
X185930000Y-123728571D01*
X185977619Y-123680952D01*
X186072857Y-123633333D01*
X186120476Y-123633333D01*
X186215714Y-123680952D01*
X186263333Y-123728571D01*
X186310952Y-123823809D01*
X186310952Y-124014286D01*
X186358571Y-124109524D01*
X186406190Y-124157143D01*
X186501429Y-124204762D01*
X186691905Y-124204762D01*
X186787143Y-124157143D01*
X186834762Y-124109524D01*
X186882381Y-124014286D01*
X186882381Y-123823809D01*
X186834762Y-123728571D01*
X186787143Y-123680952D01*
X186691905Y-123633333D01*
X186501429Y-123633333D01*
X186406190Y-123680952D01*
X186358571Y-123728571D01*
X186310952Y-123823809D01*
X176154762Y-61011905D02*
X176202381Y-60869048D01*
X176202381Y-60630952D01*
X176154762Y-60535714D01*
X176107143Y-60488095D01*
X176011905Y-60440476D01*
X175916667Y-60440476D01*
X175821429Y-60488095D01*
X175773810Y-60535714D01*
X175726190Y-60630952D01*
X175678571Y-60821429D01*
X175630952Y-60916667D01*
X175583333Y-60964286D01*
X175488095Y-61011905D01*
X175392857Y-61011905D01*
X175297619Y-60964286D01*
X175250000Y-60916667D01*
X175202381Y-60821429D01*
X175202381Y-60583333D01*
X175250000Y-60440476D01*
X175535714Y-59583333D02*
X176202381Y-59583333D01*
X175154762Y-59821429D02*
X175869048Y-60059524D01*
X175869048Y-59440476D01*
X176154762Y-138011905D02*
X176202381Y-137869048D01*
X176202381Y-137630952D01*
X176154762Y-137535714D01*
X176107143Y-137488095D01*
X176011905Y-137440476D01*
X175916667Y-137440476D01*
X175821429Y-137488095D01*
X175773810Y-137535714D01*
X175726190Y-137630952D01*
X175678571Y-137821429D01*
X175630952Y-137916667D01*
X175583333Y-137964286D01*
X175488095Y-138011905D01*
X175392857Y-138011905D01*
X175297619Y-137964286D01*
X175250000Y-137916667D01*
X175202381Y-137821429D01*
X175202381Y-137583333D01*
X175250000Y-137440476D01*
X175297619Y-137059524D02*
X175250000Y-137011905D01*
X175202381Y-136916667D01*
X175202381Y-136678571D01*
X175250000Y-136583333D01*
X175297619Y-136535714D01*
X175392857Y-136488095D01*
X175488095Y-136488095D01*
X175630952Y-136535714D01*
X176202381Y-137107143D01*
X176202381Y-136488095D01*
X124904762Y-61011905D02*
X124952381Y-60869048D01*
X124952381Y-60630952D01*
X124904762Y-60535714D01*
X124857143Y-60488095D01*
X124761905Y-60440476D01*
X124666667Y-60440476D01*
X124571429Y-60488095D01*
X124523810Y-60535714D01*
X124476190Y-60630952D01*
X124428571Y-60821429D01*
X124380952Y-60916667D01*
X124333333Y-60964286D01*
X124238095Y-61011905D01*
X124142857Y-61011905D01*
X124047619Y-60964286D01*
X124000000Y-60916667D01*
X123952381Y-60821429D01*
X123952381Y-60583333D01*
X124000000Y-60440476D01*
X123952381Y-60107143D02*
X123952381Y-59488095D01*
X124333333Y-59821429D01*
X124333333Y-59678571D01*
X124380952Y-59583333D01*
X124428571Y-59535714D01*
X124523810Y-59488095D01*
X124761905Y-59488095D01*
X124857143Y-59535714D01*
X124904762Y-59583333D01*
X124952381Y-59678571D01*
X124952381Y-59964286D01*
X124904762Y-60059524D01*
X124857143Y-60107143D01*
X122257381Y-73613333D02*
X122971667Y-73613333D01*
X123114524Y-73660953D01*
X123209762Y-73756191D01*
X123257381Y-73899048D01*
X123257381Y-73994286D01*
X123257381Y-72613333D02*
X123257381Y-73184762D01*
X123257381Y-72899048D02*
X122257381Y-72899048D01*
X122400238Y-72994286D01*
X122495476Y-73089524D01*
X122543095Y-73184762D01*
X122257381Y-90758333D02*
X122971667Y-90758333D01*
X123114524Y-90805953D01*
X123209762Y-90901191D01*
X123257381Y-91044048D01*
X123257381Y-91139286D01*
X122352619Y-90329762D02*
X122305000Y-90282143D01*
X122257381Y-90186905D01*
X122257381Y-89948809D01*
X122305000Y-89853571D01*
X122352619Y-89805952D01*
X122447857Y-89758333D01*
X122543095Y-89758333D01*
X122685952Y-89805952D01*
X123257381Y-90377381D01*
X123257381Y-89758333D01*
X122257381Y-107903333D02*
X122971667Y-107903333D01*
X123114524Y-107950953D01*
X123209762Y-108046191D01*
X123257381Y-108189048D01*
X123257381Y-108284286D01*
X122257381Y-107522381D02*
X122257381Y-106903333D01*
X122638333Y-107236667D01*
X122638333Y-107093809D01*
X122685952Y-106998571D01*
X122733571Y-106950952D01*
X122828810Y-106903333D01*
X123066905Y-106903333D01*
X123162143Y-106950952D01*
X123209762Y-106998571D01*
X123257381Y-107093809D01*
X123257381Y-107379524D01*
X123209762Y-107474762D01*
X123162143Y-107522381D01*
X122272381Y-125033333D02*
X122986667Y-125033333D01*
X123129524Y-125080953D01*
X123224762Y-125176191D01*
X123272381Y-125319048D01*
X123272381Y-125414286D01*
X122605714Y-124128571D02*
X123272381Y-124128571D01*
X122224762Y-124366667D02*
X122939048Y-124604762D01*
X122939048Y-123985714D01*
X185892381Y-73103333D02*
X186606667Y-73103333D01*
X186749524Y-73150953D01*
X186844762Y-73246191D01*
X186892381Y-73389048D01*
X186892381Y-73484286D01*
X185892381Y-72150952D02*
X185892381Y-72627143D01*
X186368571Y-72674762D01*
X186320952Y-72627143D01*
X186273333Y-72531905D01*
X186273333Y-72293809D01*
X186320952Y-72198571D01*
X186368571Y-72150952D01*
X186463810Y-72103333D01*
X186701905Y-72103333D01*
X186797143Y-72150952D01*
X186844762Y-72198571D01*
X186892381Y-72293809D01*
X186892381Y-72531905D01*
X186844762Y-72627143D01*
X186797143Y-72674762D01*
X185892381Y-90248333D02*
X186606667Y-90248333D01*
X186749524Y-90295953D01*
X186844762Y-90391191D01*
X186892381Y-90534048D01*
X186892381Y-90629286D01*
X185892381Y-89343571D02*
X185892381Y-89534048D01*
X185940000Y-89629286D01*
X185987619Y-89676905D01*
X186130476Y-89772143D01*
X186320952Y-89819762D01*
X186701905Y-89819762D01*
X186797143Y-89772143D01*
X186844762Y-89724524D01*
X186892381Y-89629286D01*
X186892381Y-89438809D01*
X186844762Y-89343571D01*
X186797143Y-89295952D01*
X186701905Y-89248333D01*
X186463810Y-89248333D01*
X186368571Y-89295952D01*
X186320952Y-89343571D01*
X186273333Y-89438809D01*
X186273333Y-89629286D01*
X186320952Y-89724524D01*
X186368571Y-89772143D01*
X186463810Y-89819762D01*
X185892381Y-107393333D02*
X186606667Y-107393333D01*
X186749524Y-107440953D01*
X186844762Y-107536191D01*
X186892381Y-107679048D01*
X186892381Y-107774286D01*
X185892381Y-107012381D02*
X185892381Y-106345714D01*
X186892381Y-106774286D01*
X137247381Y-111251905D02*
X138056905Y-111251905D01*
X138152143Y-111204286D01*
X138199762Y-111156667D01*
X138247381Y-111061429D01*
X138247381Y-110870952D01*
X138199762Y-110775714D01*
X138152143Y-110728095D01*
X138056905Y-110680476D01*
X137247381Y-110680476D01*
X138247381Y-109680476D02*
X138247381Y-110251905D01*
X138247381Y-109966191D02*
X137247381Y-109966191D01*
X137390238Y-110061429D01*
X137485476Y-110156667D01*
X137533095Y-110251905D01*
X159218334Y-85542381D02*
X158885000Y-85066190D01*
X158646905Y-85542381D02*
X158646905Y-84542381D01*
X159027858Y-84542381D01*
X159123096Y-84590000D01*
X159170715Y-84637619D01*
X159218334Y-84732857D01*
X159218334Y-84875714D01*
X159170715Y-84970952D01*
X159123096Y-85018571D01*
X159027858Y-85066190D01*
X158646905Y-85066190D01*
X159599286Y-84637619D02*
X159646905Y-84590000D01*
X159742143Y-84542381D01*
X159980239Y-84542381D01*
X160075477Y-84590000D01*
X160123096Y-84637619D01*
X160170715Y-84732857D01*
X160170715Y-84828095D01*
X160123096Y-84970952D01*
X159551667Y-85542381D01*
X160170715Y-85542381D01*
X159218334Y-89352381D02*
X158885000Y-88876190D01*
X158646905Y-89352381D02*
X158646905Y-88352381D01*
X159027858Y-88352381D01*
X159123096Y-88400000D01*
X159170715Y-88447619D01*
X159218334Y-88542857D01*
X159218334Y-88685714D01*
X159170715Y-88780952D01*
X159123096Y-88828571D01*
X159027858Y-88876190D01*
X158646905Y-88876190D01*
X159551667Y-88352381D02*
X160170715Y-88352381D01*
X159837381Y-88733333D01*
X159980239Y-88733333D01*
X160075477Y-88780952D01*
X160123096Y-88828571D01*
X160170715Y-88923810D01*
X160170715Y-89161905D01*
X160123096Y-89257143D01*
X160075477Y-89304762D01*
X159980239Y-89352381D01*
X159694524Y-89352381D01*
X159599286Y-89304762D01*
X159551667Y-89257143D01*
X159218334Y-93162381D02*
X158885000Y-92686190D01*
X158646905Y-93162381D02*
X158646905Y-92162381D01*
X159027858Y-92162381D01*
X159123096Y-92210000D01*
X159170715Y-92257619D01*
X159218334Y-92352857D01*
X159218334Y-92495714D01*
X159170715Y-92590952D01*
X159123096Y-92638571D01*
X159027858Y-92686190D01*
X158646905Y-92686190D01*
X160075477Y-92495714D02*
X160075477Y-93162381D01*
X159837381Y-92114762D02*
X159599286Y-92829048D01*
X160218334Y-92829048D01*
X159218334Y-96972381D02*
X158885000Y-96496190D01*
X158646905Y-96972381D02*
X158646905Y-95972381D01*
X159027858Y-95972381D01*
X159123096Y-96020000D01*
X159170715Y-96067619D01*
X159218334Y-96162857D01*
X159218334Y-96305714D01*
X159170715Y-96400952D01*
X159123096Y-96448571D01*
X159027858Y-96496190D01*
X158646905Y-96496190D01*
X160123096Y-95972381D02*
X159646905Y-95972381D01*
X159599286Y-96448571D01*
X159646905Y-96400952D01*
X159742143Y-96353333D01*
X159980239Y-96353333D01*
X160075477Y-96400952D01*
X160123096Y-96448571D01*
X160170715Y-96543810D01*
X160170715Y-96781905D01*
X160123096Y-96877143D01*
X160075477Y-96924762D01*
X159980239Y-96972381D01*
X159742143Y-96972381D01*
X159646905Y-96924762D01*
X159599286Y-96877143D01*
X159218334Y-100782381D02*
X158885000Y-100306190D01*
X158646905Y-100782381D02*
X158646905Y-99782381D01*
X159027858Y-99782381D01*
X159123096Y-99830000D01*
X159170715Y-99877619D01*
X159218334Y-99972857D01*
X159218334Y-100115714D01*
X159170715Y-100210952D01*
X159123096Y-100258571D01*
X159027858Y-100306190D01*
X158646905Y-100306190D01*
X160075477Y-99782381D02*
X159885000Y-99782381D01*
X159789762Y-99830000D01*
X159742143Y-99877619D01*
X159646905Y-100020476D01*
X159599286Y-100210952D01*
X159599286Y-100591905D01*
X159646905Y-100687143D01*
X159694524Y-100734762D01*
X159789762Y-100782381D01*
X159980239Y-100782381D01*
X160075477Y-100734762D01*
X160123096Y-100687143D01*
X160170715Y-100591905D01*
X160170715Y-100353810D01*
X160123096Y-100258571D01*
X160075477Y-100210952D01*
X159980239Y-100163333D01*
X159789762Y-100163333D01*
X159694524Y-100210952D01*
X159646905Y-100258571D01*
X159599286Y-100353810D01*
X159218334Y-104592381D02*
X158885000Y-104116190D01*
X158646905Y-104592381D02*
X158646905Y-103592381D01*
X159027858Y-103592381D01*
X159123096Y-103640000D01*
X159170715Y-103687619D01*
X159218334Y-103782857D01*
X159218334Y-103925714D01*
X159170715Y-104020952D01*
X159123096Y-104068571D01*
X159027858Y-104116190D01*
X158646905Y-104116190D01*
X159551667Y-103592381D02*
X160218334Y-103592381D01*
X159789762Y-104592381D01*
X159218334Y-108402381D02*
X158885000Y-107926190D01*
X158646905Y-108402381D02*
X158646905Y-107402381D01*
X159027858Y-107402381D01*
X159123096Y-107450000D01*
X159170715Y-107497619D01*
X159218334Y-107592857D01*
X159218334Y-107735714D01*
X159170715Y-107830952D01*
X159123096Y-107878571D01*
X159027858Y-107926190D01*
X158646905Y-107926190D01*
X159789762Y-107830952D02*
X159694524Y-107783333D01*
X159646905Y-107735714D01*
X159599286Y-107640476D01*
X159599286Y-107592857D01*
X159646905Y-107497619D01*
X159694524Y-107450000D01*
X159789762Y-107402381D01*
X159980239Y-107402381D01*
X160075477Y-107450000D01*
X160123096Y-107497619D01*
X160170715Y-107592857D01*
X160170715Y-107640476D01*
X160123096Y-107735714D01*
X160075477Y-107783333D01*
X159980239Y-107830952D01*
X159789762Y-107830952D01*
X159694524Y-107878571D01*
X159646905Y-107926190D01*
X159599286Y-108021429D01*
X159599286Y-108211905D01*
X159646905Y-108307143D01*
X159694524Y-108354762D01*
X159789762Y-108402381D01*
X159980239Y-108402381D01*
X160075477Y-108354762D01*
X160123096Y-108307143D01*
X160170715Y-108211905D01*
X160170715Y-108021429D01*
X160123096Y-107926190D01*
X160075477Y-107878571D01*
X159980239Y-107830952D01*
X155782381Y-131571905D02*
X156591905Y-131571905D01*
X156687143Y-131524286D01*
X156734762Y-131476667D01*
X156782381Y-131381429D01*
X156782381Y-131190952D01*
X156734762Y-131095714D01*
X156687143Y-131048095D01*
X156591905Y-131000476D01*
X155782381Y-131000476D01*
X155782381Y-130619524D02*
X155782381Y-130000476D01*
X156163333Y-130333810D01*
X156163333Y-130190952D01*
X156210952Y-130095714D01*
X156258571Y-130048095D01*
X156353810Y-130000476D01*
X156591905Y-130000476D01*
X156687143Y-130048095D01*
X156734762Y-130095714D01*
X156782381Y-130190952D01*
X156782381Y-130476667D01*
X156734762Y-130571905D01*
X156687143Y-130619524D01*
X124904762Y-137511905D02*
X124952381Y-137369048D01*
X124952381Y-137130952D01*
X124904762Y-137035714D01*
X124857143Y-136988095D01*
X124761905Y-136940476D01*
X124666667Y-136940476D01*
X124571429Y-136988095D01*
X124523810Y-137035714D01*
X124476190Y-137130952D01*
X124428571Y-137321429D01*
X124380952Y-137416667D01*
X124333333Y-137464286D01*
X124238095Y-137511905D01*
X124142857Y-137511905D01*
X124047619Y-137464286D01*
X124000000Y-137416667D01*
X123952381Y-137321429D01*
X123952381Y-137083333D01*
X124000000Y-136940476D01*
X124952381Y-135988095D02*
X124952381Y-136559524D01*
X124952381Y-136273810D02*
X123952381Y-136273810D01*
X124095238Y-136369048D01*
X124190476Y-136464286D01*
X124238095Y-136559524D01*
X159218334Y-81732381D02*
X158885000Y-81256190D01*
X158646905Y-81732381D02*
X158646905Y-80732381D01*
X159027858Y-80732381D01*
X159123096Y-80780000D01*
X159170715Y-80827619D01*
X159218334Y-80922857D01*
X159218334Y-81065714D01*
X159170715Y-81160952D01*
X159123096Y-81208571D01*
X159027858Y-81256190D01*
X158646905Y-81256190D01*
X160170715Y-81732381D02*
X159599286Y-81732381D01*
X159885000Y-81732381D02*
X159885000Y-80732381D01*
X159789762Y-80875238D01*
X159694524Y-80970476D01*
X159599286Y-81018095D01*
X153543095Y-63587381D02*
X153543095Y-64396905D01*
X153590714Y-64492143D01*
X153638333Y-64539762D01*
X153733571Y-64587381D01*
X153924048Y-64587381D01*
X154019286Y-64539762D01*
X154066905Y-64492143D01*
X154114524Y-64396905D01*
X154114524Y-63587381D01*
X154543095Y-63682619D02*
X154590714Y-63635000D01*
X154685952Y-63587381D01*
X154924048Y-63587381D01*
X155019286Y-63635000D01*
X155066905Y-63682619D01*
X155114524Y-63777857D01*
X155114524Y-63873095D01*
X155066905Y-64015952D01*
X154495476Y-64587381D01*
X155114524Y-64587381D01*
X159218334Y-112212381D02*
X158885000Y-111736190D01*
X158646905Y-112212381D02*
X158646905Y-111212381D01*
X159027858Y-111212381D01*
X159123096Y-111260000D01*
X159170715Y-111307619D01*
X159218334Y-111402857D01*
X159218334Y-111545714D01*
X159170715Y-111640952D01*
X159123096Y-111688571D01*
X159027858Y-111736190D01*
X158646905Y-111736190D01*
X159694524Y-112212381D02*
X159885000Y-112212381D01*
X159980239Y-112164762D01*
X160027858Y-112117143D01*
X160123096Y-111974286D01*
X160170715Y-111783810D01*
X160170715Y-111402857D01*
X160123096Y-111307619D01*
X160075477Y-111260000D01*
X159980239Y-111212381D01*
X159789762Y-111212381D01*
X159694524Y-111260000D01*
X159646905Y-111307619D01*
X159599286Y-111402857D01*
X159599286Y-111640952D01*
X159646905Y-111736190D01*
X159694524Y-111783810D01*
X159789762Y-111831429D01*
X159980239Y-111831429D01*
X160075477Y-111783810D01*
X160123096Y-111736190D01*
X160170715Y-111640952D01*
X158742143Y-116022381D02*
X158408809Y-115546190D01*
X158170714Y-116022381D02*
X158170714Y-115022381D01*
X158551667Y-115022381D01*
X158646905Y-115070000D01*
X158694524Y-115117619D01*
X158742143Y-115212857D01*
X158742143Y-115355714D01*
X158694524Y-115450952D01*
X158646905Y-115498571D01*
X158551667Y-115546190D01*
X158170714Y-115546190D01*
X159694524Y-116022381D02*
X159123095Y-116022381D01*
X159408809Y-116022381D02*
X159408809Y-115022381D01*
X159313571Y-115165238D01*
X159218333Y-115260476D01*
X159123095Y-115308095D01*
X160313571Y-115022381D02*
X160408810Y-115022381D01*
X160504048Y-115070000D01*
X160551667Y-115117619D01*
X160599286Y-115212857D01*
X160646905Y-115403333D01*
X160646905Y-115641429D01*
X160599286Y-115831905D01*
X160551667Y-115927143D01*
X160504048Y-115974762D01*
X160408810Y-116022381D01*
X160313571Y-116022381D01*
X160218333Y-115974762D01*
X160170714Y-115927143D01*
X160123095Y-115831905D01*
X160075476Y-115641429D01*
X160075476Y-115403333D01*
X160123095Y-115212857D01*
X160170714Y-115117619D01*
X160218333Y-115070000D01*
X160313571Y-115022381D01*
X163623334Y-117427143D02*
X163575715Y-117474762D01*
X163432858Y-117522381D01*
X163337620Y-117522381D01*
X163194762Y-117474762D01*
X163099524Y-117379524D01*
X163051905Y-117284286D01*
X163004286Y-117093810D01*
X163004286Y-116950952D01*
X163051905Y-116760476D01*
X163099524Y-116665238D01*
X163194762Y-116570000D01*
X163337620Y-116522381D01*
X163432858Y-116522381D01*
X163575715Y-116570000D01*
X163623334Y-116617619D01*
X164575715Y-117522381D02*
X164004286Y-117522381D01*
X164290000Y-117522381D02*
X164290000Y-116522381D01*
X164194762Y-116665238D01*
X164099524Y-116760476D01*
X164004286Y-116808095D01*
M02*
