M48
INCH,TZ
T1C0.012
T2C0.030
T3C0.031
T4C0.035
T5C0.043
%
G90
G05
T1
X3.4524Y-2.3668
T2
X5.25Y-2.4
X5.25Y-2.5
X5.25Y-2.6
X5.25Y-2.7
X5.35Y-2.4
X5.35Y-2.5
X5.35Y-2.6
X5.35Y-2.7
T3
X1.8Y-3.95
X1.825Y-3.5
X1.825Y-3.8
X1.875Y-3.375
X1.925Y-3.5
X1.925Y-3.8
X2.025Y-3.5
X2.025Y-3.8
X2.0719Y-3.375
X2.1Y-3.95
X2.125Y-3.5
X2.125Y-3.8
X2.625Y-3.5
X2.625Y-3.8
X2.625Y-3.95
X2.675Y-3.375
X2.725Y-3.5
X2.725Y-3.8
X2.825Y-3.5
X2.825Y-3.8
X2.8719Y-3.375
X2.925Y-3.5
X2.925Y-3.8
X2.925Y-3.95
X3.275Y-3.5
X3.275Y-3.8
X3.275Y-3.95
X3.325Y-3.375
X3.375Y-3.5
X3.375Y-3.8
X3.475Y-3.5
X3.475Y-3.8
X3.5219Y-3.375
X3.575Y-3.5
X3.575Y-3.8
X3.575Y-3.95
X3.925Y-3.5
X3.925Y-3.8
X3.925Y-3.95
X3.975Y-3.375
X4.025Y-3.5
X4.025Y-3.8
X4.125Y-3.5
X4.125Y-3.8
X4.1719Y-3.375
X4.225Y-3.5
X4.225Y-3.8
X4.225Y-3.95
X4.575Y-3.5
X4.575Y-3.8
X4.575Y-3.95
X4.625Y-3.375
X4.675Y-3.5
X4.675Y-3.8
X4.775Y-3.5
X4.775Y-3.8
X4.8219Y-3.375
X4.875Y-3.5
X4.875Y-3.8
X4.875Y-3.95
X5.225Y-3.5
X5.225Y-3.8
X5.225Y-3.95
X5.275Y-3.375
X5.325Y-3.5
X5.325Y-3.8
X5.425Y-3.5
X5.425Y-3.8
X5.45Y-2.9
X5.45Y-3.05
X5.4719Y-3.375
X5.475Y-2.4531
X5.475Y-2.65
X5.525Y-3.5
X5.525Y-3.8
X5.525Y-3.95
X5.75Y-2.9
X5.75Y-3.05
X5.8Y-3.5
X5.8Y-3.8
X5.8Y-3.95
X5.85Y-3.375
X5.9Y-3.5
X5.9Y-3.8
X6.Y-3.5
X6.Y-3.8
X6.0469Y-3.375
X6.1Y-3.5
X6.1Y-3.8
X6.1Y-3.95
X6.6Y-3.45
X6.6Y-3.75
X6.6Y-3.875
X6.65Y-3.325
X6.7Y-3.45
X6.7Y-3.75
X6.8Y-3.45
X6.8Y-3.75
X6.8469Y-3.325
X6.9Y-3.45
X6.9Y-3.75
X6.9Y-3.875
T4
X1.9Y-4.2
X1.95Y-4.1
X2.Y-4.2
X2.05Y-4.1
X2.1Y-4.2
X2.15Y-4.1
X2.2Y-4.2
X2.25Y-4.1
X2.55Y-4.2
X2.6Y-4.1
X2.65Y-4.2
X2.7Y-4.1
X2.75Y-4.2
X2.8Y-4.1
X2.85Y-4.2
X2.9Y-4.1
X3.2Y-4.2
X3.25Y-4.1
X3.3Y-4.2
X3.35Y-4.1
X3.4Y-4.2
X3.45Y-4.1
X3.5Y-4.2
X3.55Y-4.1
X3.85Y-4.2
X3.9Y-4.1
X3.95Y-4.2
X4.Y-4.1
X4.05Y-4.2
X4.1Y-4.1
X4.15Y-4.2
X4.2Y-4.1
X4.5Y-4.2
X4.55Y-4.1
X4.6Y-4.2
X4.65Y-4.1
X4.7Y-4.2
X4.75Y-4.1
X4.8Y-4.2
X4.85Y-4.1
X5.15Y-4.2
X5.2Y-4.1
X5.25Y-4.2
X5.3Y-4.1
X5.35Y-4.2
X5.4Y-4.1
X5.45Y-4.2
X5.5Y-4.1
X5.8Y-4.2
X5.85Y-4.1
X5.9Y-4.2
X5.95Y-4.1
X6.Y-4.2
X6.05Y-4.1
X6.1Y-4.2
X6.15Y-4.1
X6.45Y-4.2
X6.5Y-4.1
X6.55Y-4.2
X6.6Y-4.1
X6.65Y-4.2
X6.7Y-4.1
X6.75Y-4.2
X6.8Y-4.1
T5
X2.65Y-2.25
X2.65Y-2.85
X2.75Y-2.25
X2.75Y-2.35
X2.75Y-2.85
X2.85Y-2.25
X2.85Y-2.85
X2.95Y-2.25
X2.95Y-2.35
X2.95Y-2.85
X3.05Y-2.25
X3.05Y-2.35
X3.05Y-2.85
X3.15Y-2.25
X3.15Y-2.35
X3.15Y-2.85
X3.25Y-2.25
X3.25Y-2.45
X3.25Y-2.55
X3.25Y-2.85
X3.35Y-2.25
X3.35Y-2.45
X3.35Y-2.55
X3.35Y-2.85
X3.45Y-2.25
X3.45Y-2.45
X3.45Y-2.55
X3.45Y-2.85
X3.55Y-2.25
X3.55Y-2.45
X3.55Y-2.55
X3.55Y-2.85
X3.65Y-2.25
X3.65Y-2.85
X3.75Y-2.25
X3.75Y-2.85
X3.85Y-2.25
X3.85Y-2.85
X3.95Y-2.25
X3.95Y-2.85
X4.05Y-2.25
X4.05Y-2.85
X4.15Y-2.25
X4.15Y-2.45
X4.15Y-2.55
X4.15Y-2.85
X4.25Y-2.25
X4.25Y-2.45
X4.25Y-2.55
X4.25Y-2.85
X4.35Y-2.25
X4.35Y-2.45
X4.35Y-2.55
X4.35Y-2.85
X4.45Y-2.25
X4.45Y-2.35
X4.45Y-2.45
X4.45Y-2.55
X4.45Y-2.65
X4.45Y-2.75
X4.45Y-2.85
X4.55Y-2.25
X4.55Y-2.45
X4.55Y-2.55
X4.55Y-2.85
X4.65Y-2.25
X4.65Y-2.45
X4.65Y-2.55
X4.65Y-2.85
X4.75Y-2.25
X4.75Y-2.45
X4.75Y-2.55
X4.75Y-2.85
X4.85Y-2.25
X4.85Y-2.45
X4.85Y-2.55
X4.85Y-2.85
X4.95Y-2.25
X4.95Y-2.45
X4.95Y-2.55
X4.95Y-2.85
T0
M30
