M48
INCH,TZ
T1C0.128
T2C0.138
%
G90
G05
T1
X1.8413Y-4.45
X2.3087Y-4.45
X2.4913Y-4.45
X2.9587Y-4.45
X3.1413Y-4.45
X3.6087Y-4.45
X3.7913Y-4.45
X4.2587Y-4.45
X4.4413Y-4.45
X4.9087Y-4.45
X5.0913Y-4.45
X5.5587Y-4.45
X5.7413Y-4.45
X6.2087Y-4.45
X6.3913Y-4.45
X6.8587Y-4.45
T2
X2.4Y-2.8525
X2.4Y-3.85
X6.39Y-2.8525
X6.39Y-3.85
T0
M30
