M48
INCH,TZ
T1C0.012
T2C0.030
T3C0.031
T4C0.035
T5C0.039
T6C0.043
T7C0.062
T8C0.138
%
G90
G05
T1
X1.25Y-5.55
X2.075Y-4.45
X2.075Y-4.75
X2.125Y-3.325
X2.175Y-4.5
X2.2Y-3.575
X2.2Y-4.4
X2.25Y-3.275
X2.25Y-3.325
X2.35Y-3.275
X2.45Y-3.325
X2.625Y-5.025
X3.1Y-3.325
X3.1Y-3.6
X3.375Y-4.225
X3.375Y-5.025
X3.825Y-3.45
T2
X3.85Y-3.3
X3.85Y-3.4
X3.95Y-3.3
X3.95Y-3.4
X4.05Y-3.3
X4.05Y-3.4
X4.15Y-3.3
X4.15Y-3.4
T3
X0.9Y-5.025
X0.925Y-3.675
X0.925Y-3.8
X0.925Y-4.1
X0.925Y-4.225
X0.925Y-4.475
X0.925Y-4.6
X0.925Y-4.9
X1.025Y-3.8
X1.025Y-4.1
X1.025Y-4.6
X1.025Y-4.9
X1.125Y-3.8
X1.125Y-4.1
X1.125Y-4.6
X1.125Y-4.9
X1.2Y-5.025
X1.2203Y-3.675
X1.2203Y-4.475
X1.225Y-3.8
X1.225Y-4.1
X1.225Y-4.225
X1.225Y-4.6
X1.225Y-4.9
X1.65Y-4.475
X1.65Y-4.6
X1.65Y-4.9
X1.65Y-5.025
X1.675Y-3.675
X1.675Y-3.8
X1.675Y-4.1
X1.675Y-4.225
X1.75Y-4.6
X1.75Y-4.9
X1.775Y-3.8
X1.775Y-4.1
X1.85Y-4.6
X1.85Y-4.9
X1.875Y-3.8
X1.875Y-4.1
X1.9453Y-4.475
X1.95Y-4.6
X1.95Y-4.9
X1.95Y-5.025
X1.9703Y-3.675
X1.975Y-3.8
X1.975Y-4.1
X1.975Y-4.225
X2.45Y-3.675
X2.45Y-3.8
X2.45Y-4.1
X2.45Y-4.225
X2.45Y-4.475
X2.45Y-4.6
X2.45Y-4.9
X2.45Y-5.025
X2.55Y-3.8
X2.55Y-4.1
X2.55Y-4.6
X2.55Y-4.9
X2.65Y-3.8
X2.65Y-4.1
X2.65Y-4.6
X2.65Y-4.9
X2.7453Y-3.675
X2.7453Y-4.475
X2.75Y-3.8
X2.75Y-4.1
X2.75Y-4.225
X2.75Y-4.6
X2.75Y-4.9
X2.75Y-5.025
X3.2Y-3.675
X3.2Y-3.8
X3.2Y-4.1
X3.2Y-4.225
X3.2Y-4.475
X3.2Y-4.6
X3.2Y-4.9
X3.2Y-5.025
X3.3Y-3.8
X3.3Y-4.1
X3.3Y-4.6
X3.3Y-4.9
X3.4Y-3.8
X3.4Y-4.1
X3.4Y-4.6
X3.4Y-4.9
X3.4953Y-3.675
X3.4953Y-4.475
X3.5Y-3.8
X3.5Y-4.1
X3.5Y-4.225
X3.5Y-4.6
X3.5Y-4.9
X3.5Y-5.025
X3.85Y-3.525
X3.85Y-3.725
X3.85Y-3.95
X4.1453Y-3.525
X4.15Y-3.725
X4.15Y-3.95
T4
X1.5Y-5.341
X1.5Y-5.6
X1.55Y-5.241
X1.55Y-5.5
X1.6Y-5.341
X1.6Y-5.6
X1.65Y-5.241
X1.65Y-5.5
X1.7Y-5.341
X1.7Y-5.6
X1.75Y-5.241
X1.75Y-5.5
X1.8Y-5.341
X1.8Y-5.6
X1.85Y-5.241
X1.85Y-5.5
X2.05Y-5.341
X2.05Y-5.6
X2.1Y-5.241
X2.1Y-5.5
X2.15Y-5.341
X2.15Y-5.6
X2.2Y-5.241
X2.2Y-5.5
X2.25Y-5.341
X2.25Y-5.6
X2.3Y-5.241
X2.3Y-5.5
X2.35Y-5.341
X2.35Y-5.6
X2.4Y-5.241
X2.4Y-5.5
X2.6Y-5.341
X2.6Y-5.6
X2.65Y-5.241
X2.65Y-5.5
X2.7Y-5.341
X2.7Y-5.6
X2.75Y-5.241
X2.75Y-5.5
X2.8Y-5.341
X2.8Y-5.6
X2.85Y-5.241
X2.85Y-5.5
X2.9Y-5.341
X2.9Y-5.6
X2.95Y-5.241
X2.95Y-5.5
X3.15Y-5.341
X3.15Y-5.6
X3.2Y-5.241
X3.2Y-5.5
X3.25Y-5.341
X3.25Y-5.6
X3.3Y-5.241
X3.3Y-5.5
X3.35Y-5.341
X3.35Y-5.6
X3.4Y-5.241
X3.4Y-5.5
X3.45Y-5.341
X3.45Y-5.6
X3.5Y-5.241
X3.5Y-5.5
T5
X1.275Y-4.775
X1.35Y-4.9
X2.925Y-4.2
X2.95Y-3.95
X3.225Y-3.95
T6
X1.35Y-2.8
X1.35Y-3.4
X1.45Y-2.8
X1.45Y-2.9
X1.45Y-3.4
X1.55Y-2.8
X1.55Y-3.4
X1.65Y-2.8
X1.65Y-2.9
X1.65Y-3.4
X1.75Y-2.8
X1.75Y-2.9
X1.75Y-3.4
X1.85Y-2.8
X1.85Y-2.9
X1.85Y-3.4
X1.95Y-2.8
X1.95Y-3.
X1.95Y-3.1
X1.95Y-3.4
X2.05Y-2.8
X2.05Y-3.
X2.05Y-3.1
X2.05Y-3.4
X2.15Y-2.8
X2.15Y-3.
X2.15Y-3.1
X2.15Y-3.4
X2.25Y-2.8
X2.25Y-3.
X2.25Y-3.1
X2.25Y-3.4
X2.35Y-2.8
X2.35Y-3.4
X2.45Y-2.8
X2.45Y-3.4
X2.55Y-2.8
X2.55Y-3.4
X2.65Y-2.8
X2.65Y-3.4
X2.75Y-2.8
X2.75Y-3.4
X2.85Y-2.8
X2.85Y-3.
X2.85Y-3.1
X2.85Y-3.4
X2.95Y-2.8
X2.95Y-3.
X2.95Y-3.1
X2.95Y-3.4
X3.05Y-2.8
X3.05Y-3.
X3.05Y-3.1
X3.05Y-3.4
X3.15Y-2.8
X3.15Y-2.9
X3.15Y-3.
X3.15Y-3.1
X3.15Y-3.2
X3.15Y-3.3
X3.15Y-3.4
X3.25Y-2.8
X3.25Y-3.
X3.25Y-3.1
X3.25Y-3.4
X3.35Y-2.8
X3.35Y-3.
X3.35Y-3.1
X3.35Y-3.4
X3.45Y-2.8
X3.45Y-3.
X3.45Y-3.1
X3.45Y-3.4
X3.55Y-2.8
X3.55Y-3.
X3.55Y-3.1
X3.55Y-3.4
X3.65Y-2.8
X3.65Y-3.
X3.65Y-3.1
X3.65Y-3.4
T7
X1.34Y-5.241
X1.34Y-6.03
X1.366Y-5.49
X1.975Y-5.17
X2.525Y-5.17
X3.075Y-5.17
X3.634Y-5.619
X3.66Y-5.402
X3.66Y-6.03
T8
X1.Y-3.
X1.Y-6.
X4.Y-3.
X4.Y-6.
T0
M30
