M48
INCH,TZ
T1C0.030
T2C0.031
T3C0.035
T4C0.043
%
G90
G05
T1
X5.25Y-2.4
X5.25Y-2.5
X5.25Y-2.6
X5.25Y-2.7
X5.35Y-2.4
X5.35Y-2.5
X5.35Y-2.6
X5.35Y-2.7
T2
X1.8Y-3.95
X1.825Y-3.5
X1.825Y-3.8
X1.8504Y-3.3858
X1.925Y-3.5
X1.925Y-3.8
X2.025Y-3.5
X2.025Y-3.8
X2.1Y-3.95
X2.125Y-3.5
X2.125Y-3.8
X2.1457Y-3.3858
X2.625Y-3.5
X2.625Y-3.8
X2.625Y-3.95
X2.6378Y-3.3858
X2.725Y-3.5
X2.725Y-3.8
X2.825Y-3.5
X2.825Y-3.8
X2.925Y-3.5
X2.925Y-3.8
X2.925Y-3.95
X2.9331Y-3.3858
X3.2677Y-3.3858
X3.275Y-3.5
X3.275Y-3.8
X3.275Y-3.95
X3.375Y-3.5
X3.375Y-3.8
X3.475Y-3.5
X3.475Y-3.8
X3.563Y-3.3858
X3.575Y-3.5
X3.575Y-3.8
X3.575Y-3.95
X3.925Y-3.5
X3.925Y-3.8
X3.925Y-3.95
X3.937Y-3.3858
X4.025Y-3.5
X4.025Y-3.8
X4.125Y-3.5
X4.125Y-3.8
X4.225Y-3.5
X4.225Y-3.8
X4.225Y-3.95
X4.2323Y-3.3858
X4.5669Y-3.3858
X4.575Y-3.5
X4.575Y-3.8
X4.575Y-3.95
X4.675Y-3.5
X4.675Y-3.8
X4.775Y-3.5
X4.775Y-3.8
X4.8622Y-3.3858
X4.875Y-3.5
X4.875Y-3.8
X4.875Y-3.95
X5.225Y-3.5
X5.225Y-3.8
X5.225Y-3.95
X5.2362Y-3.3858
X5.325Y-3.5
X5.325Y-3.8
X5.425Y-3.5
X5.425Y-3.8
X5.45Y-2.9
X5.45Y-3.05
X5.4724Y-2.4016
X5.4724Y-2.6969
X5.525Y-3.5
X5.525Y-3.8
X5.525Y-3.95
X5.5315Y-3.3858
X5.75Y-2.9
X5.75Y-3.05
X5.7874Y-3.3858
X5.8Y-3.5
X5.8Y-3.8
X5.8Y-3.95
X5.9Y-3.5
X5.9Y-3.8
X6.Y-3.5
X6.Y-3.8
X6.0827Y-3.3858
X6.1Y-3.5
X6.1Y-3.8
X6.1Y-3.95
X6.6Y-3.45
X6.6Y-3.75
X6.6Y-3.875
X6.6142Y-3.3268
X6.7Y-3.45
X6.7Y-3.75
X6.8Y-3.45
X6.8Y-3.75
X6.9Y-3.45
X6.9Y-3.75
X6.9Y-3.875
X6.9094Y-3.3268
T3
X1.9Y-4.2
X1.95Y-4.1
X2.Y-4.2
X2.05Y-4.1
X2.1Y-4.2
X2.15Y-4.1
X2.2Y-4.2
X2.25Y-4.1
X2.55Y-4.2
X2.6Y-4.1
X2.65Y-4.2
X2.7Y-4.1
X2.75Y-4.2
X2.8Y-4.1
X2.85Y-4.2
X2.9Y-4.1
X3.2Y-4.2
X3.25Y-4.1
X3.3Y-4.2
X3.35Y-4.1
X3.4Y-4.2
X3.45Y-4.1
X3.5Y-4.2
X3.55Y-4.1
X3.85Y-4.2
X3.9Y-4.1
X3.95Y-4.2
X4.Y-4.1
X4.05Y-4.2
X4.1Y-4.1
X4.15Y-4.2
X4.2Y-4.1
X4.5Y-4.2
X4.55Y-4.1
X4.6Y-4.2
X4.65Y-4.1
X4.7Y-4.2
X4.75Y-4.1
X4.8Y-4.2
X4.85Y-4.1
X5.15Y-4.2
X5.2Y-4.1
X5.25Y-4.2
X5.3Y-4.1
X5.35Y-4.2
X5.4Y-4.1
X5.45Y-4.2
X5.5Y-4.1
X5.8Y-4.2
X5.85Y-4.1
X5.9Y-4.2
X5.95Y-4.1
X6.Y-4.2
X6.05Y-4.1
X6.1Y-4.2
X6.15Y-4.1
X6.45Y-4.2
X6.5Y-4.1
X6.55Y-4.2
X6.6Y-4.1
X6.65Y-4.2
X6.7Y-4.1
X6.75Y-4.2
X6.8Y-4.1
T4
X2.65Y-2.25
X2.65Y-2.85
X2.75Y-2.25
X2.75Y-2.35
X2.75Y-2.85
X2.85Y-2.25
X2.85Y-2.85
X2.95Y-2.25
X2.95Y-2.35
X2.95Y-2.85
X3.05Y-2.25
X3.05Y-2.35
X3.05Y-2.85
X3.15Y-2.25
X3.15Y-2.35
X3.15Y-2.85
X3.25Y-2.25
X3.25Y-2.45
X3.25Y-2.55
X3.25Y-2.85
X3.35Y-2.25
X3.35Y-2.45
X3.35Y-2.55
X3.35Y-2.85
X3.45Y-2.25
X3.45Y-2.45
X3.45Y-2.55
X3.45Y-2.85
X3.55Y-2.25
X3.55Y-2.45
X3.55Y-2.55
X3.55Y-2.85
X3.65Y-2.25
X3.65Y-2.85
X3.75Y-2.25
X3.75Y-2.85
X3.85Y-2.25
X3.85Y-2.85
X3.95Y-2.25
X3.95Y-2.85
X4.05Y-2.25
X4.05Y-2.85
X4.15Y-2.25
X4.15Y-2.45
X4.15Y-2.55
X4.15Y-2.85
X4.25Y-2.25
X4.25Y-2.45
X4.25Y-2.55
X4.25Y-2.85
X4.35Y-2.25
X4.35Y-2.45
X4.35Y-2.55
X4.35Y-2.85
X4.45Y-2.25
X4.45Y-2.35
X4.45Y-2.45
X4.45Y-2.55
X4.45Y-2.65
X4.45Y-2.75
X4.45Y-2.85
X4.55Y-2.25
X4.55Y-2.45
X4.55Y-2.55
X4.55Y-2.85
X4.65Y-2.25
X4.65Y-2.45
X4.65Y-2.55
X4.65Y-2.85
X4.75Y-2.25
X4.75Y-2.45
X4.75Y-2.55
X4.75Y-2.85
X4.85Y-2.25
X4.85Y-2.45
X4.85Y-2.55
X4.85Y-2.85
X4.95Y-2.25
X4.95Y-2.45
X4.95Y-2.55
X4.95Y-2.85
T0
M30
